<svg xmlns="http://www.w3.org/2000/svg" xmlns:xlink="http://www.w3.org/1999/xlink" width="200" zoomAndPan="magnify" viewBox="0 0 150 157.92" height="200" preserveAspectRatio="xMidYMid meet" version="1.2"><defs><clipPath id="95793b74fb"><path d="M 70 80 L 141 80 L 141 149.925781 L 70 149.925781 Z M 70 80 "/></clipPath></defs><g id="36917e3bce"><path style=" stroke:none;fill-rule:evenodd;fill:#ffa800;fill-opacity:1;" d="M 74.164062 136.398438 L 11.457031 136.398438 C 10.488281 136.398438 9.699219 135.609375 9.699219 134.640625 L 9.699219 65.609375 C 9.699219 64.640625 10.488281 63.851562 11.457031 63.851562 L 84.878906 63.851562 C 85.847656 63.851562 86.636719 64.640625 86.636719 65.609375 L 86.636719 82.121094 C 75.21875 88.621094 67.492188 100.914062 67.492188 114.96875 C 67.492188 122.960938 69.949219 130.339844 74.164062 136.398438 Z M 74.164062 136.398438 "/><path style=" stroke:none;fill-rule:evenodd;fill:#ffa800;fill-opacity:1;" d="M 23.839844 60.867188 L 23.839844 32.585938 C 23.839844 31.617188 24.628906 30.828125 25.597656 30.828125 L 70.652344 30.828125 C 71.617188 30.828125 72.410156 31.617188 72.410156 32.585938 L 72.410156 60.867188 Z M 23.839844 60.867188 "/><path style=" stroke:none;fill-rule:evenodd;fill:#ffa800;fill-opacity:1;" d="M 48.167969 34.339844 C 47.203125 34.339844 46.410156 33.636719 46.410156 32.585938 L 46.410156 1.757812 C 46.410156 0.789062 47.203125 0 48.167969 0 C 49.132812 0 49.925781 0.789062 49.925781 1.757812 L 49.925781 32.585938 C 49.925781 33.636719 49.132812 34.339844 48.167969 34.339844 Z M 48.167969 34.339844 "/><g clip-rule="nonzero" clip-path="url(#95793b74fb)"><path style=" stroke:none;fill-rule:evenodd;fill:#ffa800;fill-opacity:1;" d="M 105.34375 149.925781 C 86.109375 149.925781 70.476562 134.203125 70.476562 114.96875 C 70.476562 105.921875 73.902344 97.753906 79.433594 91.519531 L 97.351562 109.433594 L 92.699219 113.476562 C 92.257812 113.914062 92.082031 114.527344 92.171875 115.144531 C 92.257812 115.757812 92.699219 116.199219 93.222656 116.460938 L 100.164062 119.273438 L 94.015625 134.816406 C 93.664062 135.609375 94.015625 136.484375 94.71875 136.925781 C 94.980469 137.1875 95.332031 137.277344 95.683594 137.277344 C 96.121094 137.277344 96.5625 137.101562 96.914062 136.75 L 110.789062 122.871094 L 128.796875 140.878906 C 122.558594 146.5 114.390625 149.925781 105.34375 149.925781 Z M 81.980469 89.058594 C 88.128906 83.4375 96.386719 80.011719 105.34375 80.011719 C 124.667969 80.011719 140.300781 95.734375 140.300781 114.96875 C 140.300781 123.925781 136.875 132.183594 131.253906 138.332031 L 113.335938 120.414062 L 117.730469 116.109375 C 118.082031 115.671875 118.253906 115.144531 118.167969 114.617188 C 118.167969 114.089844 117.816406 113.652344 117.378906 113.386719 L 112.109375 109.875 L 118.429688 95.117188 C 118.78125 94.417969 118.519531 93.539062 117.816406 93.011719 C 117.203125 92.570312 116.324219 92.570312 115.621094 93.097656 L 99.988281 107.0625 Z M 109.5625 119.183594 L 109.648438 119.097656 L 113.6875 115.144531 L 108.945312 112.070312 C 108.15625 111.628906 107.890625 110.664062 108.242188 109.875 L 112.109375 101.003906 L 101.128906 110.753906 C 101.128906 110.753906 101.042969 110.839844 101.042969 110.839844 L 97.175781 114.265625 L 103.0625 116.636719 C 104.027344 116.988281 104.464844 118.042969 104.117188 118.921875 L 100.339844 128.316406 Z M 109.5625 119.183594 "/></g></g></svg>