<svg xmlns="http://www.w3.org/2000/svg" xmlns:xlink="http://www.w3.org/1999/xlink" width="200" zoomAndPan="magnify" viewBox="0 0 150 157.92" height="200" preserveAspectRatio="xMidYMid meet" version="1.2"><defs><clipPath id="ecca21ae08"><path d="M 0.414062 0 L 149.960938 0 L 149.960938 149.925781 L 0.414062 149.925781 Z M 0.414062 0 "/></clipPath></defs><g id="20d2183f60"><g clip-rule="nonzero" clip-path="url(#ecca21ae08)"><path style=" stroke:none;fill-rule:nonzero;fill:#ffa800;fill-opacity:1;" d="M 86.207031 21.425781 L 86.207031 16.585938 L 113.617188 16.585938 C 116.417969 16.585938 118.96875 17.734375 120.8125 19.578125 C 122.65625 21.421875 123.796875 23.972656 123.796875 26.773438 L 123.796875 39.984375 C 123 39.925781 122.195312 39.902344 121.390625 39.902344 C 120.574219 39.902344 119.769531 39.925781 118.96875 39.984375 L 118.96875 26.773438 C 118.96875 25.300781 118.363281 23.964844 117.398438 22.992188 C 116.425781 22.027344 115.089844 21.421875 113.617188 21.421875 L 86.207031 21.421875 Z M 92.628906 90.332031 L 16.773438 90.332031 L 16.773438 111.503906 L 111.996094 111.503906 L 111.996094 105.378906 C 103.796875 102.984375 96.898438 97.523438 92.628906 90.332031 Z M 88.066406 124.179688 L 79.433594 124.179688 L 76.527344 116.328125 L 47.691406 116.328125 L 44.777344 124.179688 L 36.152344 124.179688 C 34.816406 124.179688 33.734375 125.261719 33.734375 126.589844 C 33.734375 127.925781 34.816406 129.007812 36.152344 129.007812 L 88.066406 129.007812 C 89.398438 129.007812 90.476562 127.925781 90.476562 126.589844 C 90.476562 125.261719 89.394531 124.179688 88.066406 124.179688 Z M 5.253906 90.332031 L 5.253906 26.773438 C 5.253906 25.300781 5.851562 23.964844 6.824219 22.992188 C 7.796875 22.027344 9.132812 21.421875 10.597656 21.421875 L 38.390625 21.421875 L 38.390625 16.585938 L 10.59375 16.585938 C 7.792969 16.585938 5.25 17.730469 3.40625 19.574219 C 1.5625 21.417969 0.414062 23.972656 0.414062 26.773438 L 0.414062 101.320312 C 0.414062 104.117188 1.5625 106.664062 3.410156 108.507812 C 5.253906 110.351562 7.796875 111.5 10.597656 111.5 L 11.949219 111.5 L 11.949219 90.328125 L 5.253906 90.328125 Z M 90.167969 45.261719 C 83.25 52.441406 73.359375 53.871094 66.386719 57.210938 C 68.230469 59.121094 69.585938 61.433594 70.34375 64.289062 C 71.855469 70.039062 70.441406 76.722656 68.558594 82.46875 C 81.867188 79.261719 90.269531 68.660156 90.167969 45.261719 Z M 125.9375 106.40625 C 124.441406 106.605469 122.929688 106.714844 121.386719 106.714844 C 119.839844 106.714844 118.320312 106.605469 116.832031 106.40625 L 116.832031 113.753906 L 113.367188 113.753906 L 113.367188 141.847656 C 113.367188 146.257812 116.972656 149.855469 121.386719 149.855469 C 125.789062 149.855469 129.398438 146.261719 129.398438 141.847656 L 129.398438 113.753906 L 125.941406 113.753906 L 125.941406 106.40625 Z M 81.371094 21.425781 L 81.371094 16.585938 L 43.214844 16.585938 L 43.214844 21.425781 Z M 149.960938 73.304688 C 149.960938 89.089844 137.164062 101.886719 121.386719 101.886719 C 105.597656 101.886719 92.804688 89.089844 92.804688 73.304688 C 92.804688 57.523438 105.597656 44.730469 121.386719 44.730469 C 137.164062 44.730469 149.960938 57.527344 149.960938 73.304688 Z M 140.273438 73.304688 C 140.273438 62.875 131.8125 54.417969 121.386719 54.417969 C 110.949219 54.417969 102.492188 62.875 102.492188 73.304688 C 102.492188 83.738281 110.949219 92.199219 121.386719 92.199219 C 131.8125 92.199219 140.273438 83.742188 140.273438 73.304688 Z M 62.109375 28.378906 C 56.78125 33.097656 51.730469 40.859375 50.507812 49.101562 C 53.949219 50.335938 57.457031 51.460938 60.65625 53.09375 C 61.195312 53.375 61.726562 53.667969 62.234375 53.972656 C 65.679688 51.980469 69.738281 50.664062 73.726562 49.203125 C 72.527344 40.925781 67.453125 33.113281 62.109375 28.378906 Z M 50.667969 65.046875 C 53.714844 67.023438 57.082031 69.335938 59.898438 72.390625 C 61.742188 74.402344 63.339844 76.710938 64.445312 79.429688 C 72.925781 51.0625 47.710938 59.3125 34.050781 45.132812 C 33.933594 71.320312 44.472656 81.484375 60.621094 83.179688 C 59.816406 80.1875 58.253906 77.726562 56.351562 75.660156 C 53.890625 72.992188 50.835938 70.898438 48.042969 69.089844 C 46.929688 68.363281 46.609375 66.867188 47.335938 65.753906 C 48.058594 64.640625 49.554688 64.320312 50.667969 65.046875 Z M 11.949219 119.691406 C 11.949219 121.027344 13.03125 122.109375 14.359375 122.109375 C 15.695312 122.109375 16.777344 121.027344 16.777344 119.691406 L 16.777344 111.5 L 11.949219 111.5 Z M 136.988281 0.0703125 L 115.453125 0.0703125 L 115.453125 10.058594 L 136.988281 10.058594 Z M 43.214844 5.066406 C 43.214844 3.734375 42.132812 2.648438 40.796875 2.648438 L 32.414062 2.648438 C 31.074219 2.648438 29.996094 3.734375 29.996094 5.066406 C 29.996094 6.402344 31.074219 7.484375 32.414062 7.484375 L 38.386719 7.484375 L 38.386719 16.589844 L 43.214844 16.589844 Z M 25.730469 0.0703125 L 4.207031 0.0703125 L 4.207031 10.058594 L 25.734375 10.058594 L 25.734375 0.0703125 Z M 3.597656 137.125 L 25.128906 137.125 L 25.128906 127.144531 L 3.597656 127.144531 Z M 81.371094 36.472656 C 81.371094 37.808594 82.457031 38.890625 83.789062 38.890625 C 85.125 38.890625 86.207031 37.808594 86.207031 36.472656 L 86.207031 21.425781 L 81.371094 21.425781 Z M 38.386719 33.320312 C 38.386719 34.65625 39.46875 35.738281 40.796875 35.738281 L 48.414062 35.738281 C 49.746094 35.738281 50.832031 34.65625 50.832031 33.320312 C 50.832031 31.992188 49.746094 30.902344 48.414062 30.902344 L 43.210938 30.902344 L 43.210938 21.425781 L 38.382812 21.425781 L 38.382812 33.320312 Z M 16.773438 70.0625 L 28.90625 70.0625 C 30.238281 70.0625 31.316406 68.984375 31.316406 67.65625 C 31.316406 66.316406 30.234375 65.238281 28.90625 65.238281 L 14.359375 65.238281 C 13.027344 65.238281 11.949219 66.316406 11.949219 67.65625 L 11.949219 90.332031 L 16.777344 90.332031 L 16.777344 70.0625 Z M 86.207031 7.480469 L 108.695312 7.480469 C 110.027344 7.480469 111.105469 6.398438 111.105469 5.0625 C 111.105469 3.730469 110.023438 2.644531 108.695312 2.644531 L 83.789062 2.644531 C 82.457031 2.644531 81.371094 3.730469 81.371094 5.0625 L 81.371094 16.585938 L 86.207031 16.585938 Z M 86.207031 7.480469 "/></g></g></svg>