<svg xmlns="http://www.w3.org/2000/svg" xmlns:xlink="http://www.w3.org/1999/xlink" width="200" zoomAndPan="magnify" viewBox="0 0 150 157.92" height="200" preserveAspectRatio="xMidYMid meet" version="1.2"><defs><clipPath id="1d4de68cf4"><path d="M 0.0390625 2 L 149.960938 2 L 149.960938 134.589844 L 0.0390625 134.589844 Z M 0.0390625 2 "/></clipPath></defs><g id="dc7bc40e39"><g clip-rule="nonzero" clip-path="url(#1d4de68cf4)"><path style=" stroke:none;fill-rule:nonzero;fill:#ffa800;fill-opacity:1;" d="M 74.667969 2.125 C 73.988281 2.15625 73.316406 2.273438 72.664062 2.472656 C 72.007812 2.671875 71.390625 2.949219 70.804688 3.304688 C 70.21875 3.660156 69.683594 4.082031 69.203125 4.574219 C 68.722656 5.066406 68.3125 5.609375 67.964844 6.203125 L 1.535156 121.6875 C 1.171875 122.316406 0.894531 122.980469 0.703125 123.679688 C 0.511719 124.382812 0.414062 125.09375 0.410156 125.824219 C 0.40625 126.550781 0.496094 127.265625 0.679688 127.96875 C 0.863281 128.671875 1.132812 129.339844 1.492188 129.96875 C 1.851562 130.601562 2.285156 131.175781 2.792969 131.691406 C 3.300781 132.203125 3.867188 132.644531 4.492188 133.011719 C 5.117188 133.375 5.777344 133.652344 6.472656 133.839844 C 7.167969 134.027344 7.878906 134.125 8.597656 134.125 L 140.996094 134.382812 C 141.714844 134.382812 142.425781 134.292969 143.121094 134.105469 C 143.816406 133.917969 144.476562 133.644531 145.097656 133.285156 C 145.722656 132.921875 146.289062 132.484375 146.800781 131.972656 C 147.308594 131.460938 147.742188 130.890625 148.105469 130.261719 C 148.464844 129.636719 148.738281 128.972656 148.925781 128.269531 C 149.113281 127.570312 149.207031 126.855469 149.207031 126.132812 C 149.207031 125.40625 149.113281 124.691406 148.929688 123.992188 C 148.742188 123.289062 148.46875 122.625 148.109375 121.996094 L 82.140625 6.253906 C 81.765625 5.597656 81.3125 5.003906 80.773438 4.476562 C 80.238281 3.945312 79.640625 3.496094 78.980469 3.132812 C 78.320312 2.769531 77.625 2.503906 76.894531 2.332031 C 76.160156 2.160156 75.421875 2.089844 74.667969 2.125 Z M 70.011719 38.558594 L 79.632812 38.558594 C 80.601562 38.558594 81.375 39.089844 81.375 39.746094 L 81.375 94.183594 C 81.375 94.839844 80.601562 95.371094 79.632812 95.371094 L 70.011719 95.371094 C 69.042969 95.371094 68.273438 94.839844 68.273438 94.183594 L 68.273438 39.746094 C 68.273438 39.089844 69.042969 38.558594 70.011719 38.558594 Z M 74.824219 100.273438 C 78.441406 100.273438 81.375 103.082031 81.375 106.566406 C 81.375 110.054688 78.441406 112.863281 74.824219 112.863281 C 71.207031 112.863281 68.273438 110.054688 68.273438 106.566406 C 68.273438 103.082031 71.207031 100.273438 74.824219 100.273438 Z M 74.824219 100.273438 "/></g></g></svg>