<svg xmlns="http://www.w3.org/2000/svg" xmlns:xlink="http://www.w3.org/1999/xlink" width="200" zoomAndPan="magnify" viewBox="0 0 150 157.92" height="200" preserveAspectRatio="xMidYMid meet" version="1.2"><defs><clipPath id="410eb6b462"><path d="M 0.0390625 5.714844 L 147 5.714844 L 147 143 L 0.0390625 143 Z M 0.0390625 5.714844 "/></clipPath></defs><g id="46bfb7a780"><g clip-rule="nonzero" clip-path="url(#410eb6b462)"><path style=" stroke:none;fill-rule:nonzero;fill:#ffa800;fill-opacity:1;" d="M 63.039062 70.886719 L 52.421875 70.886719 L 52.421875 42.40625 L 63.039062 42.40625 Z M 97.867188 65.035156 L 97.867188 5.714844 L 143.597656 5.714844 L 143.597656 82.496094 C 143.011719 81.574219 142.390625 80.675781 141.734375 79.800781 C 141.074219 78.925781 140.382812 78.078125 139.660156 77.257812 C 138.933594 76.441406 138.175781 75.652344 137.390625 74.894531 C 136.601562 74.136719 135.78125 73.410156 134.9375 72.71875 C 134.089844 72.027344 133.214844 71.367188 132.316406 70.746094 C 131.417969 70.125 130.496094 69.539062 129.546875 68.988281 C 128.601562 68.441406 127.632812 67.929688 126.648438 67.460938 C 125.660156 66.988281 124.65625 66.558594 123.632812 66.167969 C 122.613281 65.777344 121.574219 65.429688 120.527344 65.121094 C 119.476562 64.816406 118.414062 64.550781 117.34375 64.328125 C 116.273438 64.105469 115.195312 63.929688 114.109375 63.792969 C 113.023438 63.65625 111.933594 63.566406 110.84375 63.519531 C 109.75 63.46875 108.65625 63.464844 107.5625 63.503906 C 106.46875 63.542969 105.378906 63.628906 104.292969 63.753906 C 103.207031 63.882812 102.128906 64.050781 101.054688 64.265625 C 99.984375 64.480469 98.921875 64.738281 97.867188 65.035156 Z M 107.777344 19.179688 C 107.777344 19.417969 107.820312 19.652344 107.914062 19.871094 C 108.003906 20.09375 108.136719 20.289062 108.304688 20.457031 C 108.476562 20.628906 108.671875 20.757812 108.890625 20.851562 C 109.113281 20.941406 109.34375 20.988281 109.585938 20.988281 L 131.875 20.988281 C 132.113281 20.988281 132.34375 20.941406 132.566406 20.851562 C 132.785156 20.757812 132.980469 20.628906 133.152344 20.457031 C 133.320312 20.289062 133.453125 20.09375 133.542969 19.871094 C 133.632812 19.648438 133.679688 19.417969 133.679688 19.179688 C 133.679688 18.941406 133.632812 18.710938 133.542969 18.488281 C 133.453125 18.265625 133.320312 18.070312 133.152344 17.902344 C 132.980469 17.734375 132.785156 17.601562 132.566406 17.511719 C 132.34375 17.417969 132.113281 17.371094 131.875 17.371094 L 109.585938 17.371094 C 109.34375 17.371094 109.113281 17.417969 108.890625 17.507812 C 108.671875 17.601562 108.476562 17.730469 108.304688 17.902344 C 108.136719 18.070312 108.003906 18.265625 107.914062 18.488281 C 107.820312 18.710938 107.777344 18.941406 107.777344 19.179688 Z M 107.777344 35.6875 C 107.777344 35.929688 107.820312 36.160156 107.914062 36.378906 C 108.003906 36.601562 108.136719 36.796875 108.304688 36.96875 C 108.476562 37.136719 108.671875 37.265625 108.890625 37.359375 C 109.113281 37.449219 109.34375 37.496094 109.585938 37.496094 L 131.875 37.496094 C 132.113281 37.496094 132.34375 37.449219 132.566406 37.359375 C 132.789062 37.265625 132.984375 37.136719 133.152344 36.964844 C 133.320312 36.796875 133.453125 36.601562 133.542969 36.378906 C 133.636719 36.160156 133.683594 35.929688 133.683594 35.6875 C 133.683594 35.449219 133.636719 35.21875 133.542969 34.996094 C 133.453125 34.773438 133.320312 34.578125 133.152344 34.410156 C 132.984375 34.242188 132.789062 34.109375 132.566406 34.019531 C 132.34375 33.925781 132.113281 33.878906 131.875 33.878906 L 109.585938 33.878906 C 109.34375 33.878906 109.113281 33.925781 108.890625 34.019531 C 108.671875 34.109375 108.476562 34.242188 108.304688 34.410156 C 108.136719 34.578125 108.003906 34.773438 107.914062 34.996094 C 107.820312 35.21875 107.777344 35.449219 107.777344 35.6875 Z M 109.585938 53.996094 L 131.875 53.996094 C 132.113281 53.996094 132.34375 53.949219 132.566406 53.859375 C 132.789062 53.765625 132.984375 53.636719 133.152344 53.464844 C 133.320312 53.296875 133.453125 53.101562 133.542969 52.878906 C 133.636719 52.65625 133.683594 52.425781 133.683594 52.1875 C 133.683594 51.949219 133.636719 51.71875 133.542969 51.496094 C 133.453125 51.273438 133.320312 51.078125 133.152344 50.910156 C 132.984375 50.738281 132.789062 50.609375 132.566406 50.515625 C 132.34375 50.425781 132.113281 50.378906 131.875 50.378906 L 109.585938 50.378906 C 109.34375 50.378906 109.113281 50.425781 108.890625 50.515625 C 108.671875 50.609375 108.476562 50.738281 108.304688 50.910156 C 108.136719 51.078125 108.003906 51.273438 107.914062 51.496094 C 107.824219 51.71875 107.777344 51.949219 107.777344 52.1875 C 107.777344 52.425781 107.824219 52.65625 107.914062 52.878906 C 108.003906 53.101562 108.136719 53.296875 108.304688 53.464844 C 108.476562 53.636719 108.671875 53.765625 108.890625 53.859375 C 109.113281 53.949219 109.34375 53.996094 109.585938 53.996094 Z M 94.253906 66.253906 L 94.253906 46.347656 L 66.652344 46.347656 L 66.652344 66.949219 L 92.585938 66.949219 C 93.136719 66.703125 93.691406 66.472656 94.253906 66.253906 Z M 14.886719 79.066406 L 26.652344 79.066406 C 26.691406 79.0625 26.730469 79.0625 26.769531 79.066406 L 30.277344 79.066406 L 30.277344 78.851562 C 30.277344 78.070312 30.355469 77.296875 30.507812 76.53125 C 30.660156 75.765625 30.886719 75.019531 31.1875 74.296875 C 31.484375 73.578125 31.851562 72.890625 32.285156 72.242188 C 32.71875 71.59375 33.214844 70.992188 33.765625 70.4375 C 34.320312 69.886719 34.917969 69.394531 35.570312 68.957031 C 36.21875 68.523438 36.902344 68.15625 37.625 67.859375 C 38.347656 67.558594 39.089844 67.332031 39.859375 67.179688 C 40.625 67.027344 41.398438 66.949219 42.179688 66.949219 L 48.804688 66.949219 L 48.804688 46.347656 L 44.191406 46.347656 C 43.097656 46.347656 42.007812 46.402344 40.921875 46.503906 C 39.832031 46.609375 38.753906 46.765625 37.679688 46.972656 C 36.605469 47.179688 35.546875 47.4375 34.5 47.746094 C 33.449219 48.054688 32.417969 48.410156 31.402344 48.816406 C 30.390625 49.21875 29.394531 49.671875 28.425781 50.171875 C 27.453125 50.671875 26.507812 51.21875 25.585938 51.804688 C 24.667969 52.394531 23.777344 53.027344 22.917969 53.699219 C 22.054688 54.375 21.230469 55.085938 20.4375 55.839844 C 19.644531 56.59375 18.890625 57.378906 18.171875 58.203125 C 17.453125 59.027344 16.777344 59.882812 16.140625 60.769531 C 15.503906 61.660156 14.910156 62.574219 14.359375 63.519531 C 13.808594 64.464844 13.304688 65.433594 12.847656 66.425781 C 12.390625 67.417969 11.980469 68.425781 11.617188 69.457031 C 11.253906 70.488281 10.941406 71.535156 10.679688 72.59375 C 10.417969 73.65625 10.203125 74.726562 10.042969 75.808594 C 9.882812 76.886719 9.769531 77.972656 9.710938 79.066406 L 14.773438 79.066406 C 14.808594 79.0625 14.847656 79.0625 14.886719 79.066406 Z M 117.140625 117.378906 C 119.523438 115.078125 120.351562 111.6875 119.546875 107.574219 C 118.558594 102.546875 115.261719 96.753906 109.746094 90.347656 C 104.207031 96.773438 100.898438 102.578125 99.894531 107.613281 C 99.074219 111.722656 99.894531 115.109375 102.265625 117.398438 C 106.152344 121.15625 113.242188 121.144531 117.140625 117.378906 Z M 144.503906 115.910156 C 149.933594 99.28125 142.863281 80.855469 127.695312 72.09375 C 125.378906 70.75 122.945312 69.667969 120.394531 68.851562 C 117.84375 68.035156 115.234375 67.5 112.566406 67.246094 C 109.898438 66.992188 107.238281 67.03125 104.578125 67.355469 C 101.917969 67.679688 99.324219 68.28125 96.796875 69.167969 C 96.710938 69.195312 96.625 69.226562 96.542969 69.257812 C 95.597656 69.59375 94.664062 69.972656 93.746094 70.386719 C 93.742188 70.390625 93.730469 70.394531 93.726562 70.394531 C 93.703125 70.40625 93.679688 70.417969 93.65625 70.429688 C 92.738281 70.847656 91.832031 71.304688 90.941406 71.800781 L 93.769531 74.625 C 95.203125 73.886719 96.683594 73.257812 98.207031 72.734375 C 99.734375 72.210938 101.289062 71.800781 102.875 71.503906 C 104.457031 71.207031 106.058594 71.023438 107.667969 70.957031 C 109.28125 70.890625 110.886719 70.9375 112.492188 71.105469 C 114.09375 71.269531 115.679688 71.550781 117.242188 71.945312 C 118.808594 72.339844 120.335938 72.84375 121.824219 73.460938 C 123.316406 74.074219 124.753906 74.792969 126.140625 75.617188 C 127.527344 76.441406 128.847656 77.359375 130.101562 78.375 C 131.355469 79.390625 132.53125 80.488281 133.625 81.671875 C 134.71875 82.855469 135.722656 84.113281 136.636719 85.441406 C 137.550781 86.773438 138.363281 88.160156 139.074219 89.609375 C 139.785156 91.054688 140.390625 92.546875 140.886719 94.078125 C 141.382812 95.613281 141.769531 97.175781 142.039062 98.765625 C 142.308594 100.355469 142.464844 101.957031 142.503906 103.570312 C 142.542969 105.179688 142.46875 106.789062 142.273438 108.390625 C 142.082031 109.988281 141.773438 111.570312 141.351562 113.125 C 141.277344 113.394531 141.148438 113.636719 140.964844 113.847656 C 140.777344 114.058594 140.554688 114.214844 140.296875 114.324219 C 140.035156 114.429688 139.765625 114.472656 139.488281 114.457031 C 139.207031 114.4375 138.945312 114.359375 138.703125 114.21875 L 137.800781 113.695312 L 137.800781 123.085938 L 145.929688 118.386719 L 145.320312 118.039062 C 144.949219 117.824219 144.6875 117.519531 144.535156 117.117188 C 144.382812 116.71875 144.371094 116.316406 144.503906 115.910156 Z M 93.648438 134.203125 C 92.058594 133.285156 90.558594 132.246094 89.144531 131.085938 C 87.726562 129.921875 86.414062 128.652344 85.207031 127.273438 C 84 125.894531 82.914062 124.425781 81.949219 122.871094 C 80.980469 121.3125 80.148438 119.6875 79.449219 117.992188 C 78.75 116.300781 78.195312 114.558594 77.78125 112.773438 C 77.367188 110.988281 77.101562 109.183594 76.988281 107.355469 C 76.871094 105.523438 76.902344 103.699219 77.085938 101.875 C 77.269531 100.050781 77.601562 98.257812 78.082031 96.488281 C 78.15625 96.21875 78.285156 95.976562 78.46875 95.765625 C 78.65625 95.554688 78.878906 95.398438 79.136719 95.289062 C 79.398438 95.183594 79.667969 95.140625 79.945312 95.15625 C 80.226562 95.175781 80.488281 95.253906 80.730469 95.394531 L 81.625 95.914062 L 81.625 86.53125 L 73.503906 91.222656 L 74.117188 91.578125 C 74.484375 91.792969 74.746094 92.097656 74.898438 92.496094 C 75.050781 92.894531 75.058594 93.296875 74.929688 93.703125 C 69.488281 110.332031 76.558594 128.753906 91.738281 137.507812 C 93.125 138.3125 94.558594 139.027344 96.039062 139.644531 C 97.519531 140.265625 99.03125 140.785156 100.582031 141.207031 C 102.128906 141.632812 103.695312 141.953125 105.285156 142.171875 C 106.875 142.394531 108.472656 142.507812 110.074219 142.523438 C 111.679688 142.535156 113.277344 142.445312 114.871094 142.25 C 116.464844 142.058594 118.035156 141.761719 119.589844 141.363281 C 121.144531 140.964844 122.667969 140.46875 124.15625 139.875 C 125.648438 139.28125 127.09375 138.59375 128.492188 137.808594 L 125.664062 134.980469 C 124.421875 135.613281 123.148438 136.167969 121.839844 136.644531 C 120.53125 137.117188 119.195312 137.511719 117.839844 137.820312 C 116.480469 138.128906 115.109375 138.355469 113.722656 138.496094 C 112.335938 138.632812 110.949219 138.6875 109.554688 138.652344 C 108.164062 138.617188 106.78125 138.5 105.402344 138.292969 C 104.023438 138.085938 102.664062 137.796875 101.324219 137.421875 C 99.984375 137.046875 98.671875 136.589844 97.386719 136.050781 C 96.101562 135.511719 94.855469 134.898438 93.648438 134.203125 Z M 89.0625 140.125 L 0.0390625 140.125 L 0.0390625 116.183594 C 2.007812 116.632812 3.523438 117.921875 5.222656 119.367188 C 7.28125 121.117188 9.664062 123.144531 13.035156 123.140625 C 14.921875 123.140625 17.121094 122.503906 19.746094 120.824219 C 20.59375 120.28125 21.375 119.714844 22.128906 119.164062 C 24.09375 117.734375 25.789062 116.496094 28.097656 116.046875 C 32.882812 115.109375 35.722656 116.964844 39.960938 120.066406 C 43.058594 122.34375 45.984375 124.085938 50.449219 122.429688 C 52.675781 121.601562 54.402344 120.238281 56.070312 118.914062 C 59.085938 116.523438 61.265625 114.792969 65.550781 116.472656 C 66.847656 116.984375 67.789062 117.882812 68.878906 118.917969 C 70.015625 120.003906 71.28125 121.207031 73.101562 122.054688 C 74.796875 125.796875 77 129.210938 79.722656 132.292969 C 82.441406 135.371094 85.554688 137.984375 89.0625 140.125 Z M 28.519531 129.15625 C 28.527344 128.917969 28.488281 128.683594 28.40625 128.460938 C 28.324219 128.234375 28.199219 128.035156 28.035156 127.859375 C 27.871094 127.683594 27.679688 127.546875 27.464844 127.445312 C 27.246094 127.347656 27.015625 127.292969 26.777344 127.285156 C 23.527344 127.167969 22.054688 128.566406 20.871094 129.691406 C 20.574219 129.980469 20.261719 130.253906 19.9375 130.511719 C 18.886719 131.300781 17.125 131.648438 15.925781 130.738281 C 15.652344 130.511719 15.410156 130.257812 15.191406 129.980469 C 14.328125 128.953125 13.140625 127.546875 9.839844 127.632812 C 9.597656 127.640625 9.371094 127.691406 9.152344 127.789062 C 8.933594 127.886719 8.742188 128.023438 8.578125 128.199219 C 8.414062 128.371094 8.289062 128.570312 8.203125 128.796875 C 8.117188 129.019531 8.078125 129.25 8.082031 129.488281 C 8.089844 129.730469 8.140625 129.957031 8.238281 130.175781 C 8.335938 130.394531 8.472656 130.585938 8.648438 130.75 C 8.820312 130.917969 9.019531 131.042969 9.242188 131.128906 C 9.46875 131.214844 9.699219 131.253906 9.9375 131.246094 C 11.5 131.203125 11.769531 131.527344 12.433594 132.3125 C 12.816406 132.796875 13.253906 133.234375 13.742188 133.617188 C 14.90625 134.480469 16.214844 134.902344 17.664062 134.886719 C 19.3125 134.882812 20.792969 134.386719 22.113281 133.398438 C 22.546875 133.0625 22.960938 132.699219 23.355469 132.3125 C 24.363281 131.359375 24.917969 130.835938 26.644531 130.898438 C 26.886719 130.90625 27.117188 130.871094 27.34375 130.789062 C 27.570312 130.703125 27.769531 130.582031 27.945312 130.417969 C 28.121094 130.253906 28.257812 130.0625 28.359375 129.84375 C 28.457031 129.625 28.511719 129.394531 28.519531 129.15625 Z M 59 129.15625 C 59.007812 128.917969 58.972656 128.683594 58.886719 128.460938 C 58.804688 128.234375 58.679688 128.035156 58.519531 127.859375 C 58.355469 127.683594 58.164062 127.546875 57.945312 127.445312 C 57.730469 127.347656 57.5 127.292969 57.261719 127.285156 C 54.007812 127.167969 52.527344 128.570312 51.339844 129.695312 C 51.046875 129.984375 50.742188 130.253906 50.425781 130.507812 C 49.367188 131.300781 47.597656 131.648438 46.398438 130.738281 C 46.128906 130.511719 45.886719 130.257812 45.671875 129.980469 C 44.589844 128.695312 43.363281 127.550781 40.3125 127.632812 C 40.074219 127.640625 39.84375 127.691406 39.625 127.789062 C 39.40625 127.886719 39.214844 128.023438 39.050781 128.199219 C 38.886719 128.371094 38.761719 128.570312 38.675781 128.792969 C 38.589844 129.019531 38.550781 129.25 38.558594 129.488281 C 38.566406 129.730469 38.617188 129.957031 38.714844 130.175781 C 38.8125 130.394531 38.949219 130.585938 39.121094 130.75 C 39.296875 130.917969 39.496094 131.042969 39.71875 131.128906 C 39.941406 131.214844 40.171875 131.253906 40.414062 131.246094 C 41.976562 131.203125 42.246094 131.527344 42.902344 132.308594 C 43.289062 132.792969 43.726562 133.230469 44.214844 133.617188 C 45.382812 134.480469 46.6875 134.90625 48.140625 134.886719 C 49.789062 134.878906 51.277344 134.382812 52.597656 133.398438 C 53.03125 133.058594 53.441406 132.699219 53.832031 132.316406 C 54.835938 131.359375 55.390625 130.835938 57.128906 130.898438 C 57.367188 130.90625 57.601562 130.871094 57.828125 130.789062 C 58.050781 130.703125 58.253906 130.582031 58.429688 130.417969 C 58.605469 130.253906 58.742188 130.0625 58.839844 129.84375 C 58.941406 129.625 58.992188 129.394531 59 129.15625 Z M 7.566406 116.613281 C 10.683594 119.265625 12.746094 121.015625 17.796875 117.777344 C 18.554688 117.296875 19.289062 116.757812 20.003906 116.242188 C 22.117188 114.699219 24.308594 113.105469 27.402344 112.496094 C 28.234375 112.332031 29.074219 112.230469 29.921875 112.203125 C 31.261719 112.152344 32.582031 112.292969 33.878906 112.628906 C 31.832031 106.984375 30.132812 97.160156 28.695312 82.679688 L 12.835938 82.679688 C 10.757812 102.914062 7.3125 111.066406 4.507812 114.246094 C 5.511719 114.917969 6.46875 115.652344 7.375 116.453125 C 7.4375 116.503906 7.5 116.558594 7.566406 116.613281 Z M 7.566406 116.613281 "/></g></g></svg>