<svg xmlns="http://www.w3.org/2000/svg" xmlns:xlink="http://www.w3.org/1999/xlink" width="200" zoomAndPan="magnify" viewBox="0 0 150 157.92" height="200" preserveAspectRatio="xMidYMid meet" version="1.2"><defs><clipPath id="db762a8e51"><path d="M 7 92 L 140 92 L 140 149.925781 L 7 149.925781 Z M 7 92 "/></clipPath><clipPath id="a6fb47b7e5"><path d="M 18 60 L 143.496094 60 L 143.496094 80 L 18 80 Z M 18 60 "/></clipPath></defs><g id="b60d107382"><g clip-rule="nonzero" clip-path="url(#db762a8e51)"><path style=" stroke:none;fill-rule:nonzero;fill:#ffa800;fill-opacity:1;" d="M 137.542969 146.820312 C 136.839844 147.734375 135.972656 148.449219 134.933594 148.960938 C 133.898438 149.46875 132.804688 149.722656 131.648438 149.71875 L 14.507812 149.71875 C 13.941406 149.71875 13.382812 149.652344 12.828125 149.523438 C 12.277344 149.390625 11.746094 149.203125 11.238281 148.949219 C 10.726562 148.699219 10.253906 148.394531 9.816406 148.035156 C 9.375 147.675781 8.984375 147.273438 8.636719 146.824219 C 8.289062 146.375 7.996094 145.890625 7.761719 145.375 C 7.523438 144.859375 7.347656 144.324219 7.234375 143.769531 C 7.121094 143.210938 7.070312 142.652344 7.085938 142.082031 C 7.097656 141.515625 7.175781 140.957031 7.320312 140.410156 L 18.1875 98.425781 C 18.398438 97.628906 18.730469 96.882812 19.1875 96.195312 C 19.644531 95.507812 20.195312 94.914062 20.851562 94.410156 C 21.503906 93.90625 22.21875 93.523438 23 93.253906 C 23.78125 92.988281 24.585938 92.855469 25.410156 92.855469 L 120.777344 92.855469 C 121.601562 92.859375 122.402344 92.992188 123.183594 93.257812 C 123.960938 93.523438 124.675781 93.910156 125.328125 94.414062 C 125.980469 94.917969 126.535156 95.511719 126.988281 96.199219 C 127.441406 96.886719 127.773438 97.628906 127.984375 98.425781 L 138.871094 140.410156 C 139.160156 141.523438 139.1875 142.640625 138.957031 143.769531 C 138.722656 144.894531 138.25 145.910156 137.542969 146.820312 Z M 137.542969 146.820312 "/></g><path style=" stroke:none;fill-rule:nonzero;fill:#ffa800;fill-opacity:1;" d="M 27.484375 50.234375 L 41.363281 50.234375 L 41.363281 89.738281 L 27.484375 89.738281 Z M 27.484375 50.234375 "/><path style=" stroke:none;fill-rule:nonzero;fill:#ffa800;fill-opacity:1;" d="M 104.824219 50.234375 L 118.703125 50.234375 L 118.703125 89.738281 L 104.824219 89.738281 Z M 104.824219 50.234375 "/><g clip-rule="nonzero" clip-path="url(#a6fb47b7e5)"><path style=" stroke:none;fill-rule:nonzero;fill:#ffa800;fill-opacity:1;" d="M 141.640625 79.273438 L 133.171875 79.273438 C 132.75 79.273438 132.335938 79.230469 131.921875 79.148438 C 131.507812 79.066406 131.105469 78.945312 130.714844 78.78125 C 130.328125 78.621094 129.957031 78.421875 129.605469 78.1875 C 129.253906 77.953125 128.929688 77.6875 128.632812 77.390625 C 128.335938 77.089844 128.066406 76.765625 127.832031 76.414062 C 127.597656 76.066406 127.402344 75.695312 127.238281 75.304688 C 127.078125 74.917969 126.957031 74.515625 126.871094 74.101562 C 126.789062 73.6875 126.75 73.269531 126.75 72.847656 L 126.75 66.625 C 126.746094 66.1875 126.664062 65.765625 126.496094 65.359375 C 126.328125 64.957031 126.089844 64.597656 125.777344 64.289062 C 125.46875 63.976562 125.109375 63.738281 124.707031 63.570312 C 124.300781 63.402344 123.878906 63.320312 123.441406 63.320312 L 20.195312 63.320312 C 19.988281 63.320312 19.789062 63.277344 19.597656 63.199219 C 19.410156 63.121094 19.238281 63.007812 19.09375 62.863281 C 18.945312 62.714844 18.835938 62.546875 18.753906 62.355469 C 18.675781 62.164062 18.636719 61.964844 18.636719 61.757812 C 18.636719 61.550781 18.675781 61.355469 18.753906 61.164062 C 18.835938 60.972656 18.945312 60.804688 19.09375 60.65625 C 19.238281 60.511719 19.410156 60.398438 19.597656 60.320312 C 19.789062 60.238281 19.988281 60.199219 20.195312 60.199219 L 123.441406 60.199219 C 123.863281 60.199219 124.28125 60.242188 124.695312 60.324219 C 125.105469 60.40625 125.507812 60.527344 125.898438 60.691406 C 126.289062 60.851562 126.65625 61.050781 127.007812 61.285156 C 127.359375 61.519531 127.683594 61.785156 127.980469 62.082031 C 128.28125 62.382812 128.546875 62.707031 128.78125 63.058594 C 129.015625 63.40625 129.214844 63.777344 129.375 64.167969 C 129.539062 64.558594 129.660156 64.957031 129.742188 65.371094 C 129.824219 65.785156 129.867188 66.203125 129.867188 66.625 L 129.867188 72.847656 C 129.867188 73.285156 129.953125 73.707031 130.121094 74.113281 C 130.289062 74.515625 130.527344 74.875 130.835938 75.183594 C 131.148438 75.496094 131.503906 75.734375 131.910156 75.902344 C 132.3125 76.070312 132.734375 76.152344 133.171875 76.152344 L 141.640625 76.152344 C 141.847656 76.152344 142.046875 76.195312 142.238281 76.273438 C 142.429688 76.351562 142.597656 76.464844 142.746094 76.609375 C 142.890625 76.757812 143.003906 76.925781 143.082031 77.117188 C 143.164062 77.308594 143.203125 77.507812 143.203125 77.714844 C 143.203125 77.921875 143.164062 78.121094 143.082031 78.3125 C 143.003906 78.5 142.890625 78.671875 142.746094 78.816406 C 142.597656 78.960938 142.429688 79.074219 142.238281 79.15625 C 142.046875 79.234375 141.847656 79.273438 141.640625 79.273438 Z M 141.640625 79.273438 "/></g><path style=" stroke:none;fill-rule:nonzero;fill:#ffa800;fill-opacity:1;" d="M 81.691406 73.222656 L 78.867188 89.738281 L 57.722656 89.738281 L 54.902344 73.222656 C 54.859375 72.996094 54.867188 72.773438 54.925781 72.550781 C 54.984375 72.328125 55.089844 72.128906 55.234375 71.953125 C 55.382812 71.777344 55.5625 71.640625 55.769531 71.542969 C 55.976562 71.445312 56.195312 71.398438 56.425781 71.398438 L 80.160156 71.398438 C 80.390625 71.398438 80.613281 71.445312 80.820312 71.542969 C 81.027344 71.636719 81.207031 71.773438 81.355469 71.949219 C 81.503906 72.128906 81.605469 72.328125 81.664062 72.550781 C 81.722656 72.773438 81.730469 72.996094 81.691406 73.222656 Z M 81.691406 73.222656 "/><path style=" stroke:none;fill-rule:nonzero;fill:#ffa800;fill-opacity:1;" d="M 68.296875 74.515625 C 68.089844 74.515625 67.894531 74.476562 67.703125 74.394531 C 67.511719 74.316406 67.34375 74.203125 67.195312 74.058594 C 67.050781 73.910156 66.9375 73.742188 66.859375 73.550781 C 66.777344 73.359375 66.738281 73.164062 66.738281 72.957031 L 66.738281 61.757812 C 66.738281 61.550781 66.777344 61.355469 66.859375 61.164062 C 66.9375 60.972656 67.050781 60.804688 67.195312 60.65625 C 67.34375 60.511719 67.511719 60.398438 67.703125 60.320312 C 67.894531 60.238281 68.089844 60.199219 68.296875 60.199219 C 68.503906 60.199219 68.703125 60.238281 68.894531 60.320312 C 69.085938 60.398438 69.253906 60.511719 69.402344 60.65625 C 69.546875 60.804688 69.660156 60.972656 69.738281 61.164062 C 69.816406 61.355469 69.859375 61.550781 69.859375 61.757812 L 69.859375 72.957031 C 69.859375 73.164062 69.816406 73.359375 69.738281 73.550781 C 69.660156 73.742188 69.546875 73.910156 69.402344 74.058594 C 69.253906 74.203125 69.085938 74.316406 68.894531 74.394531 C 68.703125 74.476562 68.503906 74.515625 68.296875 74.515625 Z M 68.296875 74.515625 "/><path style=" stroke:none;fill-rule:nonzero;fill:#ffa800;fill-opacity:1;" d="M 78.328125 67.167969 C 78.121094 67.167969 77.921875 67.128906 77.730469 67.050781 C 77.539062 66.972656 77.371094 66.859375 77.226562 66.710938 C 77.078125 66.566406 76.964844 66.398438 76.886719 66.207031 C 76.808594 66.015625 76.769531 65.816406 76.769531 65.609375 L 76.769531 57.910156 C 76.769531 57.703125 76.808594 57.503906 76.886719 57.3125 C 76.964844 57.121094 77.078125 56.953125 77.226562 56.804688 C 77.371094 56.660156 77.539062 56.546875 77.730469 56.46875 C 77.921875 56.390625 78.121094 56.347656 78.328125 56.347656 C 78.535156 56.347656 78.734375 56.390625 78.925781 56.46875 C 79.117188 56.546875 79.285156 56.660156 79.429688 56.804688 C 79.578125 56.953125 79.691406 57.121094 79.769531 57.3125 C 79.847656 57.503906 79.886719 57.703125 79.886719 57.910156 L 79.886719 65.609375 C 79.886719 65.816406 79.847656 66.015625 79.769531 66.207031 C 79.691406 66.398438 79.578125 66.566406 79.429688 66.710938 C 79.285156 66.859375 79.117188 66.972656 78.925781 67.050781 C 78.734375 67.128906 78.535156 67.167969 78.328125 67.167969 Z M 78.328125 67.167969 "/><path style=" stroke:none;fill-rule:nonzero;fill:#ffa800;fill-opacity:1;" d="M 85.542969 67.167969 C 85.335938 67.167969 85.136719 67.128906 84.945312 67.050781 C 84.753906 66.972656 84.585938 66.859375 84.441406 66.710938 C 84.292969 66.566406 84.179688 66.398438 84.101562 66.207031 C 84.023438 66.015625 83.984375 65.816406 83.984375 65.609375 L 83.984375 57.910156 C 83.984375 57.703125 84.023438 57.503906 84.101562 57.3125 C 84.179688 57.121094 84.292969 56.953125 84.441406 56.804688 C 84.585938 56.660156 84.753906 56.546875 84.945312 56.46875 C 85.136719 56.390625 85.335938 56.347656 85.542969 56.347656 C 85.75 56.347656 85.949219 56.390625 86.140625 56.46875 C 86.332031 56.546875 86.5 56.660156 86.644531 56.804688 C 86.792969 56.953125 86.90625 57.121094 86.984375 57.3125 C 87.0625 57.503906 87.101562 57.703125 87.101562 57.910156 L 87.101562 65.609375 C 87.101562 65.816406 87.0625 66.015625 86.984375 66.207031 C 86.90625 66.398438 86.792969 66.566406 86.644531 66.710938 C 86.5 66.859375 86.332031 66.972656 86.140625 67.050781 C 85.949219 67.128906 85.75 67.167969 85.542969 67.167969 Z M 85.542969 67.167969 "/><path style=" stroke:none;fill-rule:nonzero;fill:#ffa800;fill-opacity:1;" d="M 92.761719 67.167969 C 92.558594 67.167969 92.359375 67.128906 92.167969 67.050781 C 91.976562 66.972656 91.808594 66.859375 91.660156 66.710938 C 91.515625 66.566406 91.402344 66.398438 91.324219 66.207031 C 91.242188 66.015625 91.203125 65.816406 91.203125 65.609375 L 91.203125 57.910156 C 91.203125 57.703125 91.242188 57.503906 91.324219 57.3125 C 91.402344 57.121094 91.515625 56.953125 91.660156 56.804688 C 91.808594 56.660156 91.976562 56.546875 92.167969 56.46875 C 92.359375 56.390625 92.558594 56.347656 92.761719 56.347656 C 92.96875 56.347656 93.167969 56.390625 93.359375 56.46875 C 93.550781 56.546875 93.71875 56.660156 93.867188 56.804688 C 94.011719 56.953125 94.125 57.121094 94.203125 57.3125 C 94.285156 57.503906 94.324219 57.703125 94.324219 57.910156 L 94.324219 65.609375 C 94.324219 65.816406 94.285156 66.015625 94.203125 66.207031 C 94.125 66.398438 94.011719 66.566406 93.867188 66.710938 C 93.71875 66.859375 93.550781 66.972656 93.359375 67.050781 C 93.167969 67.128906 92.96875 67.167969 92.761719 67.167969 Z M 92.761719 67.167969 "/><path style=" stroke:none;fill-rule:nonzero;fill:#ffa800;fill-opacity:1;" d="M 70.929688 19.835938 L 56.214844 19.835938 C 56.121094 19.835938 56.042969 19.863281 55.972656 19.929688 C 55.90625 19.992188 55.871094 20.070312 55.871094 20.164062 L 55.871094 25.296875 C 55.867188 25.390625 55.902344 25.472656 55.96875 25.539062 C 56.035156 25.609375 56.117188 25.640625 56.214844 25.640625 L 70.929688 25.640625 C 71.023438 25.640625 71.101562 25.605469 71.164062 25.535156 C 71.226562 25.46875 71.257812 25.390625 71.253906 25.296875 L 71.253906 20.164062 C 71.253906 20.070312 71.222656 19.996094 71.160156 19.929688 C 71.097656 19.867188 71.019531 19.835938 70.929688 19.835938 Z M 70.929688 19.835938 "/><path style=" stroke:none;fill-rule:nonzero;fill:#ffa800;fill-opacity:1;" d="M 109.714844 30.386719 L 94.992188 30.386719 C 94.902344 30.386719 94.824219 30.417969 94.757812 30.480469 C 94.691406 30.542969 94.65625 30.621094 94.652344 30.710938 L 94.652344 35.84375 C 94.648438 35.941406 94.683594 36.023438 94.75 36.089844 C 94.816406 36.15625 94.898438 36.191406 94.992188 36.191406 L 109.714844 36.191406 C 109.808594 36.1875 109.886719 36.15625 109.949219 36.085938 C 110.015625 36.019531 110.042969 35.9375 110.039062 35.84375 L 110.039062 30.710938 C 110.039062 30.621094 110.007812 30.542969 109.945312 30.480469 C 109.882812 30.417969 109.804688 30.386719 109.714844 30.386719 Z M 109.714844 30.386719 "/><path style=" stroke:none;fill-rule:nonzero;fill:#ffa800;fill-opacity:1;" d="M 100.460938 27.269531 C 100.554688 27.265625 100.632812 27.234375 100.699219 27.164062 C 100.761719 27.097656 100.789062 27.015625 100.785156 26.921875 L 100.785156 21.789062 C 100.785156 21.699219 100.753906 21.621094 100.691406 21.558594 C 100.628906 21.496094 100.550781 21.464844 100.460938 21.464844 L 85.746094 21.464844 C 85.652344 21.464844 85.574219 21.496094 85.507812 21.558594 C 85.441406 21.621094 85.40625 21.699219 85.402344 21.789062 L 85.402344 26.921875 C 85.402344 27.019531 85.433594 27.101562 85.5 27.167969 C 85.570312 27.234375 85.648438 27.269531 85.746094 27.269531 L 100.46875 27.269531 Z M 100.460938 27.269531 "/><path style=" stroke:none;fill-rule:nonzero;fill:#ffa800;fill-opacity:1;" d="M 61.679688 16.71875 C 61.773438 16.714844 61.851562 16.683594 61.917969 16.617188 C 61.980469 16.546875 62.011719 16.46875 62.003906 16.375 L 62.003906 11.242188 C 62.007812 11.152344 61.972656 11.074219 61.910156 11.011719 C 61.847656 10.949219 61.769531 10.917969 61.679688 10.917969 L 46.957031 10.917969 C 46.867188 10.914062 46.789062 10.945312 46.71875 11.007812 C 46.652344 11.070312 46.617188 11.148438 46.617188 11.242188 L 46.617188 16.375 C 46.613281 16.46875 46.648438 16.550781 46.714844 16.617188 C 46.78125 16.6875 46.863281 16.71875 46.957031 16.71875 Z M 61.679688 16.71875 "/><path style=" stroke:none;fill-rule:nonzero;fill:#ffa800;fill-opacity:1;" d="M 131.179688 39.003906 L 108.175781 2.746094 C 107.699219 1.894531 107.042969 1.226562 106.203125 0.734375 C 105.363281 0.242188 104.457031 0 103.484375 0 L 42.699219 0 C 41.746094 0.00390625 40.851562 0.242188 40.023438 0.71875 C 39.195312 1.191406 38.539062 1.84375 38.054688 2.667969 L 14.972656 39.066406 C 14.855469 39.269531 14.753906 39.480469 14.667969 39.699219 C 14.578125 39.917969 14.503906 40.136719 14.445312 40.363281 C 14.386719 40.59375 14.34375 40.820312 14.3125 41.054688 C 14.285156 41.285156 14.269531 41.519531 14.273438 41.753906 C 14.273438 41.988281 14.289062 42.222656 14.320312 42.453125 C 14.355469 42.6875 14.398438 42.914062 14.460938 43.140625 C 14.523438 43.367188 14.601562 43.589844 14.691406 43.804688 C 14.78125 44.019531 14.886719 44.230469 15.003906 44.433594 C 15.121094 44.636719 15.25 44.828125 15.394531 45.015625 C 15.535156 45.199219 15.691406 45.375 15.859375 45.542969 C 16.023438 45.707031 16.199219 45.863281 16.386719 46.003906 C 16.570312 46.144531 16.765625 46.277344 16.96875 46.394531 C 17.171875 46.511719 17.382812 46.613281 17.597656 46.703125 C 17.816406 46.792969 18.035156 46.867188 18.261719 46.929688 C 18.488281 46.992188 18.71875 47.035156 18.949219 47.066406 C 19.183594 47.097656 19.417969 47.113281 19.652344 47.113281 L 126.527344 47.113281 C 127.492188 47.113281 128.390625 46.867188 129.222656 46.382812 C 130.058594 45.898438 130.714844 45.238281 131.195312 44.402344 C 131.671875 43.566406 131.910156 42.664062 131.90625 41.699219 C 131.90625 40.738281 131.660156 39.839844 131.175781 39.003906 Z M 74.378906 25.296875 C 74.378906 25.753906 74.292969 26.195312 74.117188 26.617188 C 73.941406 27.042969 73.691406 27.417969 73.371094 27.742188 C 73.046875 28.066406 72.671875 28.316406 72.25 28.492188 C 71.828125 28.667969 71.386719 28.757812 70.929688 28.757812 L 56.214844 28.757812 C 55.753906 28.757812 55.3125 28.667969 54.890625 28.492188 C 54.464844 28.316406 54.089844 28.066406 53.765625 27.742188 C 53.441406 27.417969 53.191406 27.042969 53.015625 26.621094 C 52.839844 26.195312 52.75 25.753906 52.75 25.296875 L 52.75 20.164062 C 52.75 20.050781 52.773438 19.945312 52.785156 19.835938 L 46.957031 19.835938 C 46.5 19.835938 46.058594 19.746094 45.632812 19.570312 C 45.210938 19.394531 44.835938 19.144531 44.511719 18.820312 C 44.1875 18.496094 43.9375 18.125 43.761719 17.699219 C 43.585938 17.277344 43.496094 16.835938 43.496094 16.375 L 43.496094 11.242188 C 43.496094 10.785156 43.585938 10.34375 43.761719 9.921875 C 43.941406 9.5 44.191406 9.125 44.515625 8.804688 C 44.839844 8.480469 45.214844 8.230469 45.636719 8.058594 C 46.058594 7.882812 46.5 7.796875 46.957031 7.796875 L 61.679688 7.796875 C 62.136719 7.796875 62.578125 7.886719 63 8.0625 C 63.421875 8.234375 63.792969 8.484375 64.113281 8.808594 C 64.4375 9.128906 64.6875 9.503906 64.863281 9.925781 C 65.035156 10.347656 65.125 10.785156 65.125 11.242188 L 65.125 16.375 C 65.125 16.492188 65.101562 16.601562 65.089844 16.71875 L 70.929688 16.71875 C 71.386719 16.71875 71.824219 16.804688 72.246094 16.980469 C 72.667969 17.15625 73.039062 17.40625 73.363281 17.726562 C 73.6875 18.050781 73.933594 18.421875 74.109375 18.84375 C 74.285156 19.265625 74.371094 19.707031 74.371094 20.164062 Z M 113.15625 35.84375 C 113.160156 36.304688 113.074219 36.742188 112.898438 37.167969 C 112.722656 37.589844 112.476562 37.964844 112.152344 38.289062 C 111.832031 38.613281 111.457031 38.863281 111.035156 39.042969 C 110.613281 39.21875 110.171875 39.308594 109.714844 39.308594 L 94.992188 39.308594 C 94.535156 39.308594 94.09375 39.21875 93.667969 39.042969 C 93.246094 38.867188 92.871094 38.617188 92.546875 38.292969 C 92.222656 37.96875 91.972656 37.59375 91.796875 37.171875 C 91.621094 36.746094 91.53125 36.304688 91.53125 35.84375 L 91.53125 30.710938 C 91.53125 30.601562 91.554688 30.496094 91.5625 30.386719 L 85.746094 30.386719 C 85.285156 30.386719 84.84375 30.296875 84.421875 30.121094 C 83.996094 29.945312 83.621094 29.695312 83.296875 29.371094 C 82.972656 29.046875 82.722656 28.671875 82.546875 28.246094 C 82.371094 27.824219 82.285156 27.382812 82.28125 26.921875 L 82.28125 21.789062 C 82.285156 21.332031 82.375 20.890625 82.550781 20.46875 C 82.726562 20.046875 82.976562 19.675781 83.300781 19.351562 C 83.625 19.027344 84 18.78125 84.425781 18.605469 C 84.847656 18.429688 85.289062 18.34375 85.746094 18.34375 L 100.46875 18.34375 C 100.925781 18.347656 101.363281 18.433594 101.785156 18.609375 C 102.207031 18.785156 102.578125 19.03125 102.902344 19.355469 C 103.222656 19.679688 103.472656 20.050781 103.648438 20.472656 C 103.824219 20.894531 103.910156 21.332031 103.910156 21.789062 L 103.910156 26.921875 C 103.910156 27.042969 103.886719 27.152344 103.878906 27.269531 L 109.722656 27.269531 C 110.175781 27.269531 110.617188 27.355469 111.039062 27.53125 C 111.460938 27.707031 111.832031 27.953125 112.15625 28.277344 C 112.476562 28.601562 112.726562 28.972656 112.902344 29.394531 C 113.078125 29.816406 113.164062 30.253906 113.164062 30.710938 Z M 113.15625 35.84375 "/></g></svg>