<svg xmlns="http://www.w3.org/2000/svg" xmlns:xlink="http://www.w3.org/1999/xlink" width="200" zoomAndPan="magnify" viewBox="0 0 150 157.92" height="200" preserveAspectRatio="xMidYMid meet" version="1.2"><defs><clipPath id="fefc3ab66a"><path d="M 20 9.371094 L 135 9.371094 L 135 69 L 20 69 Z M 20 9.371094 "/></clipPath><clipPath id="3c4f9aed37"><path d="M 0.0390625 59 L 149.960938 59 L 149.960938 79 L 0.0390625 79 Z M 0.0390625 59 "/></clipPath></defs><g id="9642e6bf8d"><g clip-rule="nonzero" clip-path="url(#fefc3ab66a)"><path style=" stroke:none;fill-rule:nonzero;fill:#ffa800;fill-opacity:1;" d="M 34.214844 35.085938 L 31.652344 33.574219 C 29.675781 32.410156 27.113281 33.109375 25.949219 35.085938 L 21.296875 43 C 20.714844 43.929688 20.597656 45.09375 20.832031 46.144531 C 21.0625 47.191406 21.761719 48.121094 22.808594 48.703125 L 25.367188 50.214844 C 24.4375 52.777344 23.738281 55.335938 23.15625 58.011719 C 29.675781 57.3125 36.773438 57.664062 43.988281 58.59375 C 48.410156 45.5625 60.628906 36.136719 75.058594 36.136719 C 92.980469 36.136719 107.640625 50.679688 107.640625 68.71875 C 117.53125 68.949219 126.609375 67.554688 134.289062 63.132812 C 133.824219 61.386719 132.195312 59.992188 130.214844 59.992188 L 127.191406 59.992188 C 126.609375 56.617188 125.792969 53.359375 124.632812 50.214844 L 127.191406 48.703125 C 128.121094 48.121094 128.820312 47.191406 129.167969 46.144531 C 129.519531 45.09375 129.285156 43.929688 128.703125 43 L 124.050781 35.085938 C 122.886719 33.109375 120.324219 32.410156 118.347656 33.574219 L 115.785156 35.085938 C 113.691406 32.527344 111.25 30.082031 108.6875 27.988281 L 110.203125 25.429688 C 111.363281 23.449219 110.667969 20.890625 108.6875 19.726562 L 100.777344 15.074219 C 98.796875 13.910156 96.238281 14.605469 95.074219 16.585938 L 93.5625 19.144531 C 90.417969 17.980469 87.160156 17.050781 83.785156 16.585938 L 83.785156 13.558594 C 83.785156 11.230469 81.925781 9.371094 79.597656 9.371094 L 70.402344 9.371094 C 68.074219 9.371094 66.214844 11.230469 66.214844 13.558594 L 66.214844 16.585938 C 62.839844 17.167969 59.582031 17.980469 56.4375 19.144531 L 54.925781 16.585938 C 53.761719 14.605469 51.203125 13.910156 49.222656 15.074219 L 41.3125 19.726562 C 39.332031 20.890625 38.636719 23.449219 39.796875 25.429688 L 41.3125 27.988281 C 38.75 30.082031 36.425781 32.410156 34.214844 35.085938 Z M 34.214844 35.085938 "/></g><g clip-rule="nonzero" clip-path="url(#3c4f9aed37)"><path style=" stroke:none;fill-rule:nonzero;fill:#ffa800;fill-opacity:1;" d="M 145.460938 60.105469 C 127.074219 79.65625 97.050781 73.488281 67.960938 67.554688 C 40.496094 61.96875 14.664062 56.617188 1.046875 74.1875 C 0.234375 75.234375 0.464844 76.632812 1.398438 77.445312 C 2.445312 78.261719 3.839844 78.027344 4.65625 77.097656 C 16.523438 61.851562 40.960938 66.855469 67.027344 72.210938 C 80.875 75.003906 95.65625 78.027344 109.503906 78.027344 C 124.515625 78.027344 138.363281 74.535156 148.835938 63.363281 C 149.765625 62.433594 149.648438 60.921875 148.71875 60.105469 C 147.90625 59.175781 146.390625 59.175781 145.460938 60.105469 Z M 145.460938 60.105469 "/></g><path style=" stroke:none;fill-rule:nonzero;fill:#ffa800;fill-opacity:1;" d="M 136.851562 108.632812 C 136.035156 107.46875 135.335938 106.421875 134.753906 105.375 C 132.3125 100.71875 131.03125 97.113281 131.03125 97.113281 C 130.683594 96.179688 129.867188 95.597656 128.9375 95.484375 C 128.003906 95.367188 127.074219 96.066406 126.726562 96.996094 C 126.726562 96.996094 125.328125 100.601562 122.652344 105.257812 C 122.1875 106.1875 121.371094 107.234375 120.675781 108.285156 C 119.511719 109.914062 118.347656 111.542969 117.53125 113.289062 C 114.855469 118.988281 115.671875 125.738281 119.742188 130.394531 C 122.304688 133.300781 125.5625 134.933594 128.9375 134.933594 C 132.777344 134.933594 136.269531 132.835938 138.828125 129.230469 C 141.96875 124.691406 142.433594 118.523438 139.992188 113.289062 C 139.0625 111.773438 137.898438 110.144531 136.851562 108.632812 Z M 136.851562 108.632812 "/><path style=" stroke:none;fill-rule:nonzero;fill:#ffa800;fill-opacity:1;" d="M 115.902344 102.464844 L 118.113281 103.746094 C 118.230469 103.511719 118.464844 103.28125 118.578125 103.046875 C 121.023438 98.625 122.421875 95.367188 122.421875 95.367188 C 123.46875 92.691406 126.027344 90.945312 128.9375 90.945312 C 128.9375 90.945312 129.054688 90.945312 129.054688 90.945312 C 128.703125 90.128906 128.121094 89.316406 127.308594 88.851562 L 124.746094 87.335938 C 125.5625 85.242188 126.144531 83.148438 126.609375 81.054688 C 121.140625 82.332031 115.554688 82.796875 109.734375 82.796875 C 107.992188 82.796875 106.359375 82.796875 104.617188 82.683594 C 99.378906 93.621094 88.089844 101.300781 75.058594 101.300781 C 58.300781 101.300781 44.570312 88.617188 42.707031 72.441406 C 32.117188 71.046875 22.808594 71.046875 15.828125 74.1875 C 16.175781 76.050781 17.921875 77.5625 19.898438 77.5625 L 22.925781 77.5625 C 23.507812 80.9375 24.320312 84.195312 25.484375 87.335938 L 22.925781 88.851562 C 20.945312 90.011719 20.25 92.574219 21.414062 94.550781 L 26.066406 102.464844 C 27.230469 104.441406 29.789062 105.140625 31.769531 103.976562 L 34.328125 102.464844 C 36.425781 105.023438 38.867188 107.46875 41.429688 109.5625 L 39.914062 112.125 C 38.75 114.101562 39.449219 116.660156 41.429688 117.824219 L 49.339844 122.480469 C 51.320312 123.644531 53.878906 122.945312 55.042969 120.96875 L 56.554688 118.40625 C 59.699219 119.570312 62.957031 120.503906 66.332031 120.96875 L 66.332031 123.875 C 66.332031 126.203125 68.191406 128.066406 70.519531 128.066406 L 79.714844 128.066406 C 82.039062 128.066406 83.902344 126.203125 83.902344 123.875 L 83.902344 120.96875 C 87.277344 120.386719 90.535156 119.570312 93.675781 118.40625 L 95.191406 120.96875 C 96.355469 122.945312 98.914062 123.644531 100.890625 122.480469 L 108.804688 117.824219 C 110.785156 116.660156 111.480469 114.101562 110.316406 112.125 L 108.804688 109.5625 C 111.363281 107.46875 113.691406 105.023438 115.902344 102.464844 Z M 31.1875 96.878906 C 30.488281 96.878906 30.023438 96.414062 30.023438 95.714844 C 30.023438 95.015625 30.488281 94.550781 31.1875 94.550781 C 31.886719 94.550781 32.351562 95.015625 32.351562 95.714844 C 32.351562 96.296875 31.769531 96.878906 31.1875 96.878906 Z M 33.164062 86.871094 C 32.46875 86.871094 32 86.40625 32 85.707031 C 32 85.007812 32.46875 84.542969 33.164062 84.542969 C 33.863281 84.542969 34.328125 85.007812 34.328125 85.707031 C 34.328125 86.40625 33.863281 86.871094 33.164062 86.871094 Z M 35.492188 92.574219 C 34.792969 92.574219 34.328125 92.109375 34.328125 91.410156 C 34.328125 90.710938 34.792969 90.246094 35.492188 90.246094 C 36.191406 90.246094 36.65625 90.710938 36.65625 91.410156 C 36.65625 92.109375 36.191406 92.574219 35.492188 92.574219 Z M 40.960938 99.089844 C 40.265625 99.089844 39.796875 98.625 39.796875 97.925781 C 39.796875 97.226562 40.265625 96.761719 40.960938 96.761719 C 41.660156 96.761719 42.125 97.226562 42.125 97.925781 C 42.125 98.625 41.542969 99.089844 40.960938 99.089844 Z M 46.898438 103.859375 C 46.199219 103.859375 45.734375 103.394531 45.734375 102.699219 C 45.734375 102 46.199219 101.535156 46.898438 101.535156 C 47.59375 101.535156 48.0625 102 48.0625 102.699219 C 48.0625 103.28125 47.480469 103.859375 46.898438 103.859375 Z M 48.875 114.101562 C 48.175781 114.101562 47.710938 113.636719 47.710938 112.9375 C 47.710938 112.238281 48.175781 111.773438 48.875 111.773438 C 49.574219 111.773438 50.039062 112.238281 50.039062 112.9375 C 50.039062 113.636719 49.574219 114.101562 48.875 114.101562 Z M 51.085938 108.050781 C 50.386719 108.050781 49.921875 107.585938 49.921875 106.886719 C 49.921875 106.1875 50.386719 105.722656 51.085938 105.722656 C 51.785156 105.722656 52.25 106.1875 52.25 106.886719 C 52.25 107.585938 51.785156 108.050781 51.085938 108.050781 Z M 54.808594 111.773438 C 54.113281 111.773438 53.644531 111.308594 53.644531 110.609375 C 53.644531 109.914062 54.113281 109.445312 54.808594 109.445312 C 55.507812 109.445312 55.972656 109.914062 55.972656 110.609375 C 55.972656 111.308594 55.390625 111.773438 54.808594 111.773438 Z M 63.539062 117.242188 C 63.1875 117.476562 62.722656 117.59375 62.257812 117.59375 C 61.441406 117.59375 60.746094 117.242188 60.28125 116.546875 C 58.765625 114.21875 57.835938 111.542969 57.488281 108.75 C 57.488281 108.398438 57.371094 108.050781 57.371094 107.703125 C 57.371094 106.886719 57.253906 106.074219 57.019531 105.492188 C 56.554688 104.09375 54.925781 102.929688 52.015625 101.882812 L 51.433594 101.648438 C 48.757812 100.71875 45.734375 99.554688 43.753906 96.996094 C 42.589844 95.484375 42.125 93.738281 41.660156 92.222656 C 41.542969 91.644531 41.3125 91.0625 41.078125 90.480469 C 39.214844 85.359375 33.515625 81.984375 28.160156 82.683594 C 26.882812 82.796875 25.71875 81.984375 25.601562 80.703125 C 25.484375 79.425781 26.300781 78.261719 27.578125 78.144531 C 35.144531 77.214844 42.824219 81.867188 45.5 88.964844 C 45.734375 89.664062 45.964844 90.363281 46.199219 91.0625 C 46.546875 92.339844 46.898438 93.503906 47.59375 94.433594 C 48.757812 95.949219 50.855469 96.761719 53.066406 97.460938 L 53.644531 97.695312 C 56.324219 98.625 60.164062 100.371094 61.441406 104.09375 C 61.910156 105.257812 61.910156 106.539062 62.023438 107.585938 C 62.023438 107.933594 62.023438 108.167969 62.140625 108.515625 C 62.375 110.496094 63.070312 112.472656 64.121094 114.21875 C 64.933594 115.03125 64.585938 116.546875 63.539062 117.242188 Z M 90.300781 111.773438 C 89.605469 111.773438 89.140625 111.308594 89.140625 110.609375 C 89.140625 109.914062 89.605469 109.445312 90.300781 109.445312 C 91 109.445312 91.464844 109.914062 91.464844 110.609375 C 91.464844 111.308594 91 111.773438 90.300781 111.773438 Z M 97.285156 111.773438 C 96.585938 111.773438 96.121094 111.308594 96.121094 110.609375 C 96.121094 109.914062 96.585938 109.445312 97.285156 109.445312 C 97.984375 109.445312 98.449219 109.914062 98.449219 110.609375 C 98.449219 111.308594 97.867188 111.773438 97.285156 111.773438 Z M 101.824219 112.9375 C 101.125 112.9375 100.660156 112.472656 100.660156 111.773438 C 100.660156 111.074219 101.125 110.609375 101.824219 110.609375 C 102.519531 110.609375 102.988281 111.074219 102.988281 111.773438 C 102.988281 112.472656 102.519531 112.9375 101.824219 112.9375 Z M 101.824219 105.957031 C 101.125 105.957031 100.660156 105.492188 100.660156 104.792969 C 100.660156 104.09375 101.125 103.628906 101.824219 103.628906 C 102.519531 103.628906 102.988281 104.09375 102.988281 104.792969 C 102.988281 105.492188 102.519531 105.957031 101.824219 105.957031 Z M 106.828125 98.742188 C 106.828125 98.742188 106.710938 98.625 106.59375 98.625 C 106.59375 98.625 106.476562 98.625 106.476562 98.742188 L 106.128906 98.859375 C 104.730469 99.4375 103.453125 99.671875 102.171875 99.789062 C 101.007812 99.90625 100.078125 100.019531 99.378906 100.488281 C 98.796875 100.835938 98.214844 101.648438 97.632812 102.582031 C 96.933594 103.628906 96.121094 104.792969 94.839844 105.722656 C 92.863281 107.121094 90.535156 107.351562 88.558594 107.46875 C 87.160156 107.585938 85.765625 107.703125 84.832031 108.167969 C 83.785156 108.75 82.972656 110.144531 82.855469 111.65625 C 82.738281 113.054688 82.972656 114.800781 83.785156 116.777344 C 84.25 117.941406 83.667969 119.339844 82.390625 119.804688 C 82.15625 119.921875 81.808594 119.921875 81.574219 119.921875 C 80.644531 119.921875 79.714844 119.339844 79.363281 118.40625 C 78.316406 115.730469 77.96875 113.289062 78.199219 111.074219 C 78.550781 108.050781 80.179688 105.375 82.503906 104.09375 C 84.367188 103.046875 86.460938 102.929688 88.207031 102.699219 C 89.835938 102.582031 91.234375 102.464844 92.164062 101.765625 C 92.746094 101.300781 93.328125 100.601562 93.792969 99.789062 C 94.609375 98.625 95.539062 97.34375 96.933594 96.414062 C 98.449219 95.484375 100.195312 95.25 101.589844 95.132812 C 102.519531 95.015625 103.453125 94.902344 104.148438 94.667969 L 104.382812 94.550781 C 104.847656 94.320312 105.664062 93.96875 106.59375 93.96875 C 107.875 93.96875 108.804688 94.550781 109.386719 94.902344 L 114.972656 98.625 C 116.019531 99.324219 116.367188 100.71875 115.671875 101.882812 C 114.972656 102.929688 113.574219 103.28125 112.414062 102.582031 Z M 106.828125 98.742188 "/></g></svg>