<svg xmlns="http://www.w3.org/2000/svg" xmlns:xlink="http://www.w3.org/1999/xlink" width="200" zoomAndPan="magnify" viewBox="0 0 150 157.92" height="200" preserveAspectRatio="xMidYMid meet" version="1.2"><g id="46187d9633"><path style=" stroke:none;fill-rule:nonzero;fill:#ffa800;fill-opacity:1;" d="M 87.882812 87.617188 C 87.882812 82.167969 83.417969 77.722656 77.988281 77.722656 C 72.539062 77.722656 68.09375 82.167969 68.09375 87.617188 C 68.09375 93.105469 72.539062 97.515625 77.988281 97.515625 C 83.417969 97.515625 87.882812 93.105469 87.882812 87.617188 Z M 77.988281 48.035156 C 99.847656 48.035156 117.570312 65.738281 117.570312 87.617188 C 117.570312 109.476562 99.847656 127.203125 77.988281 127.203125 C 56.109375 127.203125 38.402344 109.476562 38.402344 87.617188 C 38.402344 65.738281 56.109375 48.035156 77.988281 48.035156 "/><path style=" stroke:none;fill-rule:nonzero;fill:#ffa800;fill-opacity:1;" d="M 122.519531 87.617188 C 122.519531 63.03125 102.574219 43.085938 77.988281 43.085938 C 53.382812 43.085938 33.457031 63.03125 33.457031 87.617188 C 33.457031 112.203125 53.382812 132.148438 77.988281 132.148438 C 102.574219 132.148438 122.519531 112.203125 122.519531 87.617188 Z M 125.4375 114.234375 C 110.730469 140.460938 77.542969 149.816406 51.355469 135.070312 C 25.144531 120.378906 15.789062 87.210938 30.539062 61.003906 L 55.316406 16.761719 C 57.65625 12.605469 61.113281 9.144531 65.269531 6.808594 C 77.777344 -0.207031 93.625 4.238281 100.640625 16.761719 L 125.4375 61.003906 C 134.734375 77.527344 134.734375 97.707031 125.4375 114.234375 "/></g></svg>