<svg xmlns="http://www.w3.org/2000/svg" xmlns:xlink="http://www.w3.org/1999/xlink" width="200" zoomAndPan="magnify" viewBox="0 0 150 157.92" height="200" preserveAspectRatio="xMidYMid meet" version="1.2"><defs><clipPath id="0e90996436"><path d="M 7.816406 0 L 141.996094 0 L 141.996094 149 L 7.816406 149 Z M 7.816406 0 "/></clipPath></defs><g id="7101ce88d1"><g clip-rule="nonzero" clip-path="url(#0e90996436)"><path style=" stroke:none;fill-rule:evenodd;fill:#ffa800;fill-opacity:1;" d="M 84.167969 7.578125 C 88.816406 8.632812 93.171875 10.464844 97.085938 12.929688 C 97.179688 12.992188 97.289062 12.996094 97.390625 12.945312 L 102.339844 10.421875 C 103.515625 9.824219 104.890625 10.039062 105.824219 10.976562 L 112.164062 17.3125 C 113.097656 18.25 113.316406 19.621094 112.714844 20.800781 L 110.191406 25.75 C 110.140625 25.847656 110.148438 25.957031 110.207031 26.054688 C 112.671875 29.96875 114.503906 34.324219 115.558594 38.972656 C 115.585938 39.082031 115.660156 39.164062 115.765625 39.195312 L 121.046875 40.914062 C 122.304688 41.320312 123.121094 42.445312 123.121094 43.769531 L 123.121094 47.433594 C 123.121094 47.546875 123.066406 47.640625 122.96875 47.699219 C 122.871094 47.757812 122.761719 47.757812 122.664062 47.703125 C 117.414062 44.835938 111.921875 42.441406 106.246094 40.558594 C 106.144531 40.523438 106.070312 40.445312 106.046875 40.339844 C 102.460938 26.179688 89.671875 16.109375 74.890625 16.109375 C 60.105469 16.109375 47.316406 26.179688 43.730469 40.339844 C 43.703125 40.445312 43.632812 40.523438 43.53125 40.558594 C 37.855469 42.441406 32.359375 44.835938 27.113281 47.703125 C 27.015625 47.757812 26.90625 47.757812 26.808594 47.699219 C 26.710938 47.640625 26.65625 47.546875 26.65625 47.433594 L 26.65625 43.769531 C 26.65625 42.445312 27.472656 41.320312 28.730469 40.914062 L 34.011719 39.195312 C 34.117188 39.164062 34.191406 39.082031 34.214844 38.972656 C 35.273438 34.324219 37.105469 29.96875 39.570312 26.054688 C 39.628906 25.957031 39.632812 25.847656 39.582031 25.75 L 37.0625 20.800781 C 36.460938 19.621094 36.679688 18.25 37.613281 17.3125 L 43.953125 10.976562 C 44.886719 10.039062 46.261719 9.824219 47.4375 10.421875 L 52.386719 12.945312 C 52.488281 12.996094 52.597656 12.992188 52.691406 12.929688 C 56.605469 10.464844 60.960938 8.632812 65.609375 7.578125 C 65.71875 7.550781 65.800781 7.476562 65.835938 7.371094 L 67.550781 2.09375 C 67.960938 0.835938 69.085938 0.0195312 70.40625 0.0195312 L 79.371094 0.0195312 C 80.695312 0.0195312 81.816406 0.835938 82.226562 2.09375 L 83.941406 7.371094 C 83.976562 7.476562 84.058594 7.550781 84.167969 7.578125 Z M 7.925781 67.949219 C 7.816406 68.054688 7.804688 68.222656 7.894531 68.347656 C 7.984375 68.476562 8.15625 68.515625 8.292969 68.4375 C 49.722656 45.503906 100.054688 45.503906 141.480469 68.4375 C 141.621094 68.515625 141.792969 68.476562 141.882812 68.347656 C 141.972656 68.222656 141.960938 68.054688 141.851562 67.949219 C 104.910156 31.039062 44.867188 31.039062 7.925781 67.949219 Z M 75.175781 69.84375 C 79.269531 69.84375 82.585938 73.164062 82.585938 77.257812 C 82.585938 81.347656 79.269531 84.667969 75.175781 84.667969 C 71.082031 84.667969 67.765625 81.347656 67.765625 77.257812 C 67.765625 73.164062 71.082031 69.84375 75.175781 69.84375 Z M 58.71875 57.203125 L 65.640625 71.929688 C 65.683594 72.019531 65.679688 72.117188 65.632812 72.207031 C 61.875 79.285156 66.964844 88.050781 75.175781 88.050781 C 83.476562 88.050781 88.554688 79.113281 84.625 72.03125 C 84.574219 71.941406 84.574219 71.835938 84.621094 71.742188 L 92.003906 57.308594 C 92.066406 57.191406 92.1875 57.128906 92.320312 57.144531 C 95.339844 57.542969 98.347656 58.050781 101.34375 58.660156 C 101.433594 58.679688 101.503906 58.730469 101.546875 58.808594 C 101.59375 58.890625 101.601562 58.976562 101.574219 59.0625 C 95.003906 78.035156 86.757812 89.488281 87.5 105.882812 L 89.191406 143.175781 C 89.324219 146.121094 87.292969 148.355469 84.320312 148.355469 C 81.972656 148.355469 80.011719 146.695312 79.621094 144.386719 L 75.144531 117.839844 C 75.117188 117.691406 74.992188 117.582031 74.839844 117.582031 C 74.6875 117.582031 74.558594 117.691406 74.535156 117.839844 L 70.054688 144.386719 C 69.375 148.402344 64.34375 149.679688 61.71875 146.808594 C 60.78125 145.789062 60.414062 144.558594 60.484375 143.175781 L 62.414062 105.265625 C 63.253906 88.761719 55.832031 77.933594 49.3125 58.839844 C 49.28125 58.75 49.289062 58.664062 49.335938 58.585938 C 49.382812 58.503906 49.453125 58.453125 49.546875 58.4375 C 52.484375 57.867188 55.4375 57.398438 58.398438 57.027344 C 58.535156 57.007812 58.660156 57.078125 58.71875 57.203125 Z M 111.242188 76.628906 C 114.742188 76.628906 117.578125 79.464844 117.578125 82.964844 C 117.578125 86.460938 114.742188 89.296875 111.242188 89.296875 C 107.746094 89.296875 104.90625 86.460938 104.90625 82.964844 C 104.90625 79.464844 107.742188 76.628906 111.242188 76.628906 Z M 100.972656 74.375 L 102.761719 78.058594 C 102.804688 78.148438 102.804688 78.25 102.753906 78.339844 C 99.289062 84.679688 103.839844 92.628906 111.242188 92.628906 C 118.648438 92.628906 123.199219 84.679688 119.730469 78.339844 C 119.683594 78.25 119.679688 78.148438 119.722656 78.058594 L 125.429688 66.304688 C 125.5 66.160156 125.671875 66.09375 125.824219 66.15625 C 128.226562 67.15625 130.609375 68.226562 132.964844 69.371094 C 133.105469 69.441406 133.171875 69.601562 133.125 69.75 C 127.894531 85.179688 122.390625 92.835938 122.84375 103.980469 L 124.4375 143.253906 C 124.546875 145.972656 122.695312 148.015625 119.957031 148.015625 C 117.800781 148.015625 116 146.492188 115.640625 144.367188 L 111.546875 120.113281 C 111.523438 119.964844 111.394531 119.855469 111.242188 119.855469 C 111.089844 119.855469 110.964844 119.964844 110.9375 120.113281 L 106.847656 144.367188 C 106.222656 148.054688 101.601562 149.234375 99.183594 146.59375 C 98.324219 145.65625 97.996094 144.527344 98.050781 143.253906 L 99.71875 104.597656 C 100.003906 97.917969 98.25 92.527344 95.679688 86.085938 C 95.652344 86.015625 95.652344 85.949219 95.671875 85.878906 C 96.007812 84.800781 99.285156 77.058594 100.414062 74.386719 C 100.460938 74.273438 100.566406 74.203125 100.6875 74.199219 C 100.8125 74.195312 100.917969 74.261719 100.972656 74.375 Z M 38.535156 76.5625 C 35 76.5625 32.132812 79.425781 32.132812 82.964844 C 32.132812 86.5 35 89.363281 38.535156 89.363281 C 42.070312 89.363281 44.9375 86.5 44.9375 82.964844 C 44.9375 79.429688 42.070312 76.5625 38.535156 76.5625 Z M 49.371094 73.203125 C 49.425781 73.09375 49.535156 73.027344 49.660156 73.03125 C 49.785156 73.035156 49.890625 73.109375 49.9375 73.222656 C 51.023438 75.925781 54.183594 83.746094 54.496094 84.824219 C 54.519531 84.894531 54.515625 84.960938 54.488281 85.027344 C 51.804688 91.636719 49.910156 97.050781 50.171875 103.683594 L 51.726562 143.253906 C 51.777344 144.527344 51.453125 145.65625 50.59375 146.59375 C 48.175781 149.234375 43.554688 148.054688 42.933594 144.367188 L 38.839844 120.113281 C 38.8125 119.960938 38.6875 119.855469 38.535156 119.855469 C 38.382812 119.855469 38.253906 119.960938 38.230469 120.113281 L 34.136719 144.367188 C 33.777344 146.492188 31.976562 148.015625 29.820312 148.015625 C 27.085938 148.015625 25.226562 145.96875 25.34375 143.253906 L 27.003906 104.546875 C 27.492188 93.105469 21.964844 85.441406 16.652344 69.75 C 16.605469 69.601562 16.671875 69.4375 16.8125 69.371094 C 19.167969 68.226562 21.550781 67.152344 23.953125 66.15625 C 24.105469 66.09375 24.277344 66.15625 24.347656 66.304688 L 30.054688 78.054688 C 30.097656 78.148438 30.09375 78.25 30.046875 78.339844 C 26.578125 84.675781 31.128906 92.628906 38.535156 92.628906 C 45.9375 92.628906 50.488281 84.679688 47.023438 78.339844 C 46.972656 78.25 46.972656 78.148438 47.015625 78.054688 Z M 74.890625 20.816406 C 63.34375 20.816406 53.320312 27.984375 49.308594 38.324219 C 49.265625 38.4375 49.285156 38.554688 49.363281 38.644531 C 49.445312 38.730469 49.558594 38.765625 49.671875 38.738281 C 66.210938 34.40625 83.566406 34.40625 100.105469 38.738281 C 100.21875 38.765625 100.332031 38.734375 100.414062 38.644531 C 100.492188 38.554688 100.515625 38.4375 100.46875 38.324219 C 96.453125 27.976562 86.425781 20.816406 74.890625 20.816406 Z M 74.890625 20.816406 "/></g></g></svg>