<svg xmlns="http://www.w3.org/2000/svg" xmlns:xlink="http://www.w3.org/1999/xlink" width="200" zoomAndPan="magnify" viewBox="0 0 150 157.92" height="200" preserveAspectRatio="xMidYMid meet" version="1.2"><defs><clipPath id="dac4c096cb"><path d="M 40.421875 30 L 73 30 L 73 42 L 40.421875 42 Z M 40.421875 30 "/></clipPath><clipPath id="160871944e"><path d="M 77 30 L 109.390625 30 L 109.390625 42 L 77 42 Z M 77 30 "/></clipPath><clipPath id="ed3e3c54a9"><path d="M 59 66 L 91 66 L 91 149.925781 L 59 149.925781 Z M 59 66 "/></clipPath></defs><g id="5575f7f06f"><path style=" stroke:none;fill-rule:nonzero;fill:#ffa800;fill-opacity:1;" d="M 100.984375 3.871094 C 102.074219 3.367188 103.367188 3.84375 103.875 4.933594 C 104.375 6.027344 103.898438 7.316406 102.808594 7.824219 C 97.972656 10.054688 93.15625 12.488281 88.496094 15.058594 C 87.199219 15.773438 85.898438 16.507812 84.605469 17.253906 C 85.816406 18.007812 87.058594 18.488281 88.3125 18.6875 C 95.328125 19.773438 103.609375 12.753906 108.628906 1.75 C 97.136719 -0.0078125 86.9375 3.125 83.808594 9.589844 C 83.269531 10.699219 82.941406 11.925781 82.824219 13.257812 C 84.011719 12.574219 85.199219 11.902344 86.394531 11.242188 C 91.140625 8.625 96.050781 6.144531 100.984375 3.871094 Z M 100.984375 3.871094 "/><g clip-rule="nonzero" clip-path="url(#dac4c096cb)"><path style=" stroke:none;fill-rule:nonzero;fill:#ffa800;fill-opacity:1;" d="M 72.730469 41.109375 L 72.730469 30.878906 C 64.554688 30.976562 56.808594 31.613281 50.710938 32.703125 C 43.972656 33.90625 41.25 35.316406 40.476562 35.996094 C 41.25 36.675781 43.972656 38.085938 50.710938 39.285156 C 56.804688 40.375 64.554688 41.015625 72.730469 41.109375 Z M 72.730469 41.109375 "/></g><g clip-rule="nonzero" clip-path="url(#160871944e)"><path style=" stroke:none;fill-rule:nonzero;fill:#ffa800;fill-opacity:1;" d="M 77.082031 30.878906 L 77.082031 41.109375 C 85.257812 41.011719 93.003906 40.375 99.101562 39.285156 C 105.839844 38.082031 108.5625 36.671875 109.335938 35.992188 C 108.5625 35.3125 105.839844 33.902344 99.101562 32.703125 C 93.007812 31.617188 85.257812 30.976562 77.082031 30.878906 Z M 77.082031 30.878906 "/></g><path style=" stroke:none;fill-rule:nonzero;fill:#ffa800;fill-opacity:1;" d="M 74.90625 45.476562 C 64.945312 45.476562 55.554688 44.699219 48.476562 43.292969 C 45.484375 42.695312 43.058594 42.027344 41.15625 41.265625 C 41.996094 44.605469 43.535156 48.34375 46.3125 51.84375 C 56.351562 64.496094 73.921875 62.667969 74.664062 62.582031 C 74.679688 62.582031 74.699219 62.582031 74.710938 62.582031 C 74.773438 62.574219 74.835938 62.566406 74.898438 62.566406 L 74.917969 62.566406 C 74.980469 62.566406 75.042969 62.570312 75.105469 62.582031 C 75.121094 62.582031 75.136719 62.582031 75.148438 62.582031 C 75.898438 62.667969 93.464844 64.496094 103.503906 51.84375 C 106.28125 48.34375 107.820312 44.609375 108.660156 41.265625 C 106.757812 42.027344 104.328125 42.699219 101.339844 43.292969 C 94.257812 44.699219 84.867188 45.476562 74.90625 45.476562 Z M 74.90625 45.476562 "/><path style=" stroke:none;fill-rule:nonzero;fill:#ffa800;fill-opacity:1;" d="M 72.730469 26.523438 C 73.453125 26.519531 74.175781 26.511719 74.90625 26.511719 C 75.636719 26.511719 76.359375 26.515625 77.082031 26.523438 L 77.082031 21.804688 C 78.21875 21.089844 79.367188 20.371094 80.519531 19.675781 C 80.09375 19.328125 79.667969 18.960938 79.253906 18.5625 C 78.898438 18.226562 78.671875 17.773438 78.605469 17.289062 C 78.539062 16.800781 78.484375 16.3125 78.453125 15.839844 C 77.261719 16.5625 76.078125 17.292969 74.90625 18.035156 C 73.734375 17.289062 72.550781 16.558594 71.359375 15.839844 C 71.324219 16.3125 71.273438 16.796875 71.207031 17.289062 C 71.140625 17.773438 70.914062 18.226562 70.558594 18.5625 C 70.144531 18.960938 69.71875 19.332031 69.292969 19.675781 C 70.449219 20.375 71.59375 21.089844 72.730469 21.804688 Z M 72.730469 26.523438 "/><path style=" stroke:none;fill-rule:nonzero;fill:#ffa800;fill-opacity:1;" d="M 61.5 18.6875 C 62.757812 18.492188 64 18.011719 65.210938 17.253906 C 63.917969 16.503906 62.621094 15.773438 61.320312 15.058594 C 56.660156 12.488281 51.84375 10.054688 47.007812 7.824219 C 45.917969 7.320312 45.441406 6.027344 45.941406 4.933594 C 46.445312 3.84375 47.734375 3.367188 48.828125 3.871094 C 53.765625 6.144531 58.671875 8.625 63.421875 11.246094 C 64.613281 11.898438 65.804688 12.578125 66.992188 13.261719 C 66.871094 11.925781 66.542969 10.699219 66.007812 9.59375 C 62.878906 3.128906 52.679688 -0.0078125 41.1875 1.75 C 46.207031 12.753906 54.488281 19.773438 61.5 18.6875 Z M 61.5 18.6875 "/><g clip-rule="nonzero" clip-path="url(#ed3e3c54a9)"><path style=" stroke:none;fill-rule:nonzero;fill:#ffa800;fill-opacity:1;" d="M 77.183594 67.066406 C 76.136719 67.039062 75.355469 66.980469 74.90625 66.933594 C 74.457031 66.980469 73.675781 67.039062 72.628906 67.066406 L 60.011719 131.417969 C 59.136719 135.890625 60.296875 140.464844 63.1875 143.984375 C 66.085938 147.5 70.351562 149.519531 74.90625 149.519531 C 79.460938 149.519531 83.734375 147.5 86.625 143.984375 C 89.515625 140.464844 90.671875 135.890625 89.796875 131.417969 Z M 76.289062 145.710938 L 75.992188 145.710938 C 73.347656 145.710938 71.078125 145.054688 69.242188 143.75 C 63.371094 139.585938 62.429688 129.484375 66.957031 119.191406 C 67.4375 118.089844 68.722656 117.589844 69.824219 118.074219 C 70.925781 118.554688 71.425781 119.839844 70.9375 120.941406 C 66.875 130.191406 68.332031 137.765625 71.761719 140.203125 C 72.886719 141 74.386719 141.390625 76.210938 141.355469 L 76.257812 141.355469 C 77.4375 141.355469 78.40625 142.300781 78.425781 143.488281 C 78.449219 144.695312 77.496094 145.683594 76.289062 145.710938 Z M 76.289062 145.710938 "/></g></g></svg>