<svg xmlns="http://www.w3.org/2000/svg" xmlns:xlink="http://www.w3.org/1999/xlink" width="200" zoomAndPan="magnify" viewBox="0 0 150 157.92" height="200" preserveAspectRatio="xMidYMid meet" version="1.2"><defs><clipPath id="2fe01ba2b5"><path d="M 17.191406 0 L 125.886719 0 L 125.886719 149.925781 L 17.191406 149.925781 Z M 17.191406 0 "/></clipPath></defs><g id="89660b5686"><g clip-rule="nonzero" clip-path="url(#2fe01ba2b5)"><path style=" stroke:none;fill-rule:nonzero;fill:#ffa800;fill-opacity:1;" d="M 43.527344 10.296875 L 45.890625 7.367188 C 43.539062 4.183594 40.320312 1.671875 36.664062 0.164062 L 35.5625 3.605469 C 38.832031 5 41.585938 7.320312 43.527344 10.296875 Z M 36.023438 60.425781 C 28.066406 91.683594 26.558594 117.472656 30.648438 149.757812 L 79.480469 149.527344 C 79.09375 140.082031 78.9375 130.050781 80.753906 118.207031 C 82.535156 106.625 86.1875 93.328125 93.335938 77.152344 C 85.242188 80.566406 73.375 79.851562 63.234375 77.132812 C 52.785156 74.335938 40.851562 68.414062 36.023438 60.425781 Z M 88.617188 64.039062 C 85.234375 65.421875 82.097656 67.386719 79.421875 69.910156 C 83.800781 69.6875 90.550781 68.324219 88.617188 64.039062 Z M 118.863281 56.972656 L 117.296875 60.261719 C 119.472656 60.851562 121.476562 61.847656 123.292969 63.210938 L 125.71875 60.523438 C 123.679688 58.945312 121.339844 57.734375 118.863281 56.972656 Z M 24.617188 31.542969 L 24.90625 27.914062 C 22.355469 27.347656 19.792969 27.21875 17.203125 27.566406 L 17.964844 31.097656 C 20.195312 30.835938 22.453125 30.984375 24.617188 31.542969 Z M 47.5625 49.824219 C 46.835938 48.664062 46.070312 47.613281 45.289062 46.683594 C 35.582031 49.59375 34.847656 56.527344 43.585938 63.875 C 53.980469 72.625 73.496094 77.847656 86.886719 75.46875 C 95.949219 73.863281 100.695312 69.03125 95.863281 62.019531 L 91.839844 62.921875 C 92.429688 64.359375 92.566406 65.929688 92.050781 67.390625 C 90.917969 70.5625 87.042969 72.535156 81.675781 73.144531 C 71.300781 74.335938 55.25 70.386719 47.117188 63.28125 C 43.769531 60.363281 42.148438 57.074219 43.222656 54.046875 C 43.660156 52.839844 44.46875 51.8125 45.601562 50.964844 L 45.601562 50.976562 Z M 53.441406 63.574219 C 52.523438 60.085938 51.042969 56.226562 49.257812 52.792969 C 48.628906 53.054688 48.085938 53.351562 47.644531 53.695312 C 43.421875 56.835938 50.210938 61.71875 53.441406 63.574219 Z M 70.402344 69.339844 L 84.539062 16.613281 L 74.808594 14.003906 L 60.652344 66.847656 C 63.757812 67.945312 67.171875 68.820312 70.402344 69.339844 Z M 74.472656 67.328125 L 73.8125 69.761719 C 74.140625 69.789062 74.460938 69.820312 74.777344 69.84375 C 81.894531 61.546875 93.34375 57.273438 104.125 58.460938 C 107.207031 58.800781 110.292969 59.574219 113.261719 60.800781 L 116.625 53.746094 C 106.015625 49.238281 94.027344 49.390625 83.574219 54.074219 C 82.753906 54.441406 81.941406 54.835938 81.148438 55.261719 C 80.992188 55.46875 80.835938 55.679688 80.683594 55.890625 C 78.164062 59.378906 76.066406 63.21875 74.472656 67.328125 Z M 82.382812 37.820312 L 78.328125 52.933594 C 78.511719 52.828125 78.707031 52.722656 78.890625 52.621094 C 81.441406 49.296875 84.351562 46.296875 87.5625 43.667969 C 94.609375 37.898438 103.027344 33.941406 112.042969 32.25 L 110.855469 24.550781 C 100.308594 26.488281 90.597656 31.046875 82.382812 37.820312 Z M 78.164062 11.371094 L 83 12.667969 L 85.707031 2.574219 L 80.875 1.277344 Z M 62.898438 45.3125 L 66.523438 31.773438 C 64.578125 27.140625 62.054688 22.714844 59.003906 18.613281 C 56.226562 14.898438 53.027344 11.46875 49.421875 8.40625 L 44.546875 14.464844 C 51.519531 20.441406 56.804688 28.050781 60.035156 36.601562 C 60.992188 39.152344 61.765625 41.78125 62.339844 44.46875 C 62.527344 44.75 62.714844 45.03125 62.898438 45.3125 Z M 57.464844 65.589844 L 60.140625 55.589844 C 60.121094 52.566406 59.839844 49.554688 59.296875 46.597656 C 59.25 46.347656 59.203125 46.085938 59.144531 45.824219 C 58.566406 44.992188 57.976562 44.179688 57.359375 43.390625 C 50.027344 33.980469 40.445312 27.761719 28.445312 26.292969 L 27.835938 34.085938 C 35.210938 35.0625 41.757812 38.339844 47.007812 43.515625 C 49.261719 45.730469 51.65625 49.839844 53.160156 53 C 55.140625 57.167969 56.648438 61.742188 57.363281 65.550781 Z M 114.964844 28.902344 C 117.585938 27.953125 120.386719 27.652344 123.164062 27.984375 L 123.929688 24.445312 C 120.730469 24.007812 117.480469 24.308594 114.40625 25.292969 Z M 114.964844 28.902344 "/></g></g></svg>