<svg xmlns="http://www.w3.org/2000/svg" xmlns:xlink="http://www.w3.org/1999/xlink" width="200" zoomAndPan="magnify" viewBox="0 0 150 157.92" height="200" preserveAspectRatio="xMidYMid meet" version="1.2"><defs><clipPath id="5fe30be26a"><path d="M 0.0390625 32 L 149.960938 32 L 149.960938 119 L 0.0390625 119 Z M 0.0390625 32 "/></clipPath></defs><g id="7f2a0e754e"><g clip-rule="nonzero" clip-path="url(#5fe30be26a)"><path style=" stroke:none;fill-rule:nonzero;fill:#ffa800;fill-opacity:1;" d="M 24.914062 32.441406 L 24.914062 118.648438 L 0.0546875 118.648438 L 0.0546875 32.441406 Z M 125.085938 32.441406 L 125.085938 118.648438 L 149.945312 118.648438 L 149.945312 32.441406 Z M 125.085938 32.441406 "/></g><path style=" stroke:none;fill-rule:nonzero;fill:#ffa800;fill-opacity:1;" d="M 119.5 45.378906 L 119.5 105.75 L 98.296875 105.75 C 96.617188 106.984375 94.855469 108.082031 93.003906 109.035156 C 91.152344 109.988281 89.238281 110.789062 87.257812 111.441406 C 85.28125 112.089844 83.265625 112.578125 81.207031 112.90625 C 79.152344 113.238281 77.082031 113.402344 75 113.402344 C 72.917969 113.402344 70.847656 113.238281 68.792969 112.90625 C 66.734375 112.578125 64.71875 112.089844 62.742188 111.441406 C 60.761719 110.789062 58.847656 109.988281 56.996094 109.035156 C 55.144531 108.082031 53.382812 106.984375 51.703125 105.75 L 30.492188 105.75 L 30.492188 45.378906 L 48.1875 45.378906 C 49.085938 44.539062 50.023438 43.746094 50.996094 42.996094 C 51.96875 42.242188 52.976562 41.539062 54.015625 40.882812 C 55.054688 40.226562 56.125 39.621094 57.222656 39.0625 C 58.316406 38.507812 59.4375 38.003906 60.582031 37.550781 C 61.726562 37.101562 62.890625 36.707031 64.070312 36.363281 C 65.25 36.023438 66.445312 35.734375 67.65625 35.507812 C 68.863281 35.277344 70.078125 35.105469 71.304688 34.988281 C 72.527344 34.875 73.753906 34.816406 74.984375 34.816406 C 76.214844 34.816406 77.441406 34.875 78.664062 34.988281 C 79.890625 35.105469 81.105469 35.277344 82.3125 35.507812 C 83.523438 35.734375 84.71875 36.023438 85.898438 36.363281 C 87.078125 36.707031 88.242188 37.101562 89.386719 37.550781 C 90.53125 38.003906 91.652344 38.507812 92.746094 39.0625 C 93.84375 39.621094 94.914062 40.226562 95.953125 40.882812 C 96.992188 41.539062 98 42.242188 98.972656 42.996094 C 99.945312 43.746094 100.882812 44.539062 101.78125 45.378906 Z M 119.5 45.378906 "/></g></svg>