<svg xmlns="http://www.w3.org/2000/svg" xmlns:xlink="http://www.w3.org/1999/xlink" width="200" zoomAndPan="magnify" viewBox="0 0 150 157.92" height="200" preserveAspectRatio="xMidYMid meet" version="1.2"><defs><clipPath id="54ba3abc7b"><path d="M 0.0390625 34 L 59 34 L 59 117 L 0.0390625 117 Z M 0.0390625 34 "/></clipPath><clipPath id="4d33d1a8e5"><path d="M 94 96 L 128 96 L 128 134.746094 L 94 134.746094 Z M 94 96 "/></clipPath><clipPath id="310dc2e5dc"><path d="M 114 80 L 149.960938 80 L 149.960938 132 L 114 132 Z M 114 80 "/></clipPath></defs><g id="a85aa696b0"><path style=" stroke:none;fill-rule:nonzero;fill:#ffa800;fill-opacity:1;" d="M 50.570312 33.082031 C 50.652344 33.140625 50.730469 33.210938 50.824219 33.265625 L 59.402344 38.871094 C 59.496094 38.929688 59.574219 38.984375 59.664062 39.03125 C 61.027344 39.785156 62.675781 39.683594 63.921875 38.859375 C 74.960938 47.601562 83.105469 58.03125 87.578125 68.40625 C 90.699219 56.75 83.824219 41.503906 70.144531 29.777344 C 70.773438 28.109375 70.246094 26.175781 68.792969 25.066406 C 68.714844 24.996094 68.632812 24.9375 68.542969 24.882812 L 59.964844 19.277344 C 59.871094 19.21875 59.792969 19.160156 59.699219 19.117188 C 58.097656 18.234375 56.121094 18.53125 54.839844 19.78125 C 38.605469 11.964844 21.882812 11.804688 12.46875 19.355469 C 23.757812 19.277344 36.582031 22.535156 49.027344 29.125 C 48.765625 30.589844 49.324219 32.132812 50.570312 33.082031 Z M 50.570312 33.082031 "/><path style=" stroke:none;fill-rule:nonzero;fill:#ffa800;fill-opacity:1;" d="M 69.675781 23.132812 C 69.765625 23.1875 69.847656 23.246094 69.925781 23.304688 L 70.417969 22.546875 C 71.082031 21.542969 70.796875 20.179688 69.777344 19.515625 L 64.34375 15.96875 C 63.328125 15.308594 61.976562 15.59375 61.3125 16.609375 L 60.820312 17.367188 C 60.914062 17.421875 60.992188 17.46875 61.085938 17.527344 Z M 69.675781 23.132812 "/><g clip-rule="nonzero" clip-path="url(#54ba3abc7b)"><path style=" stroke:none;fill-rule:nonzero;fill:#ffa800;fill-opacity:1;" d="M 58.257812 40.609375 L 49.679688 35.003906 C 49.589844 34.949219 49.507812 34.890625 49.429688 34.832031 L 1.726562 107.894531 C 0.0898438 110.414062 0.789062 113.777344 3.304688 115.410156 C 4.5625 116.234375 6.027344 116.464844 7.386719 116.179688 C 8.75 115.890625 9.996094 115.089844 10.820312 113.832031 L 58.523438 40.769531 C 58.429688 40.714844 58.351562 40.667969 58.257812 40.609375 Z M 58.257812 40.609375 "/></g><path style=" stroke:none;fill-rule:nonzero;fill:#ffa800;fill-opacity:1;" d="M 81.871094 95.964844 L 67.5 91.355469 L 51.222656 111.429688 L 46.886719 126.074219 L 66.414062 133.945312 L 89.191406 131.496094 L 91.640625 123.085938 L 90.277344 102.75 Z M 81.871094 95.964844 "/><path style=" stroke:none;fill-rule:nonzero;fill:#ffa800;fill-opacity:1;" d="M 112.925781 91.355469 L 123.644531 83.085938 L 126.355469 76.300781 L 118.359375 68.980469 L 109.542969 65.042969 L 94.625 65.042969 L 86.078125 76.574219 L 78.484375 77.9375 L 71.835938 85.53125 L 69.960938 90.039062 L 82.28125 93.265625 C 82.691406 93.265625 93.675781 100.050781 93.675781 100.050781 L 103.84375 92.179688 Z M 112.925781 91.355469 "/><g clip-rule="nonzero" clip-path="url(#4d33d1a8e5)"><path style=" stroke:none;fill-rule:nonzero;fill:#ffa800;fill-opacity:1;" d="M 124.273438 117.917969 C 125.214844 121.085938 126.253906 125.617188 127.25 130.535156 L 117.261719 130.132812 L 104.917969 134.746094 L 94.074219 131.082031 L 95.300781 122.539062 L 94.074219 103.960938 L 103.296875 99.351562 L 108.042969 96.640625 L 108.464844 96.558594 C 111.632812 99.578125 121.882812 109.773438 124.273438 117.917969 Z M 124.273438 117.917969 "/></g><g clip-rule="nonzero" clip-path="url(#310dc2e5dc)"><path style=" stroke:none;fill-rule:nonzero;fill:#ffa800;fill-opacity:1;" d="M 149.679688 116.578125 L 148.195312 127.023438 L 145.070312 131.359375 L 132.28125 130.761719 C 131.148438 125.089844 129.960938 119.882812 128.976562 116.53125 C 126.699219 108.777344 118.808594 99.980469 114.195312 95.324219 L 121.882812 89.855469 L 128.941406 84.835938 L 131.117188 80.226562 L 143.457031 91.34375 L 144.546875 101.25 Z M 149.679688 116.578125 "/></g><path style=" stroke:none;fill-rule:nonzero;fill:#ffa800;fill-opacity:1;" d="M 100.8125 48.800781 L 103.5 45.4375 L 99.097656 43.949219 L 94.074219 49.613281 L 97.039062 60.652344 Z M 100.8125 48.800781 "/><path style=" stroke:none;fill-rule:nonzero;fill:#ffa800;fill-opacity:1;" d="M 109.164062 55.675781 L 114.824219 51.902344 L 110.113281 50.6875 L 103.5 57.289062 Z M 109.164062 55.675781 "/><path style=" stroke:none;fill-rule:nonzero;fill:#ffa800;fill-opacity:1;" d="M 73.460938 59.851562 L 69.261719 61.328125 L 64.160156 57.289062 L 66.585938 65.777344 L 77.773438 65.777344 Z M 73.460938 59.851562 "/><path style=" stroke:none;fill-rule:nonzero;fill:#ffa800;fill-opacity:1;" d="M 61.738281 77.628906 L 57.425781 79.390625 L 56.210938 84.640625 L 60.796875 83.566406 L 63.359375 80.234375 L 70.363281 76.964844 L 75.347656 71.703125 L 62.824219 74.402344 Z M 61.738281 77.628906 "/></g></svg>