<svg xmlns="http://www.w3.org/2000/svg" xmlns:xlink="http://www.w3.org/1999/xlink" width="200" zoomAndPan="magnify" viewBox="0 0 150 157.92" height="200" preserveAspectRatio="xMidYMid meet" version="1.2"><defs><clipPath id="9547c34e89"><path d="M 0.0390625 30.734375 L 149.960938 30.734375 L 149.960938 119.191406 L 0.0390625 119.191406 Z M 0.0390625 30.734375 "/></clipPath></defs><g id="8e041deb22"><g clip-rule="nonzero" clip-path="url(#9547c34e89)"><path style=" stroke:none;fill-rule:nonzero;fill:#ffa800;fill-opacity:1;" d="M 83.902344 99.644531 L 88.398438 99.644531 C 88.699219 97.636719 88.96875 95.476562 89.238281 93.230469 L 83.902344 93.230469 Z M 61.691406 115.859375 L 66.699219 115.859375 L 66.699219 102.3125 L 61.273438 102.3125 Z M 83.902344 115.859375 L 85.128906 115.859375 C 85.128906 115.859375 86.660156 110.464844 88.007812 102.3125 L 83.902344 102.3125 Z M 106.050781 115.859375 L 110.488281 115.859375 L 110.488281 119.1875 L 112.886719 119.1875 L 112.886719 102.3125 L 103.175781 102.3125 C 104.554688 110.496094 106.050781 115.859375 106.050781 115.859375 Z M 102.785156 99.644531 L 112.914062 99.644531 L 112.914062 93.230469 L 101.945312 93.230469 C 102.183594 95.476562 102.484375 97.636719 102.785156 99.644531 Z M 137.851562 92.152344 C 137.402344 90.054688 136.832031 87.957031 136.175781 85.917969 L 145.316406 77.703125 L 134.347656 58.703125 L 122.65625 62.507812 C 121.21875 60.917969 119.691406 59.390625 118.101562 57.953125 L 121.90625 46.261719 L 102.90625 35.292969 L 94.691406 44.433594 C 92.652344 43.773438 90.554688 43.207031 88.457031 42.757812 L 85.941406 30.738281 L 64 30.738281 L 61.453125 42.785156 C 59.355469 43.234375 57.257812 43.804688 55.21875 44.464844 L 47.003906 35.324219 L 28.003906 46.261719 L 31.808594 57.953125 C 30.21875 59.390625 28.691406 60.917969 27.253906 62.507812 L 15.5625 58.703125 L 4.59375 77.703125 L 13.734375 85.917969 C 13.074219 87.957031 12.507812 90.054688 12.058594 92.152344 L 0.0390625 94.699219 L 0.0390625 116.640625 L 12.085938 119.1875 L 19.820312 119.1875 C 18.742188 114.75 18.203125 110.226562 18.203125 105.667969 C 18.203125 74.289062 43.617188 48.871094 75 48.871094 C 106.382812 48.871094 131.796875 74.289062 131.796875 105.667969 C 131.796875 110.226562 131.257812 114.75 130.179688 119.1875 L 137.914062 119.1875 L 149.960938 116.640625 L 149.960938 94.699219 Z M 74.96875 53.457031 C 46.136719 53.457031 22.757812 76.835938 22.757812 105.667969 C 22.757812 110.226562 23.355469 114.78125 24.527344 119.1875 L 34.355469 119.1875 L 34.355469 86.066406 L 37.023438 86.066406 L 37.023438 119.1875 L 39.421875 119.1875 L 39.421875 115.859375 L 43.886719 115.859375 L 44.609375 91.820312 L 43.558594 91.820312 L 43.558594 86.785156 L 44.757812 86.785156 L 45.058594 76.746094 L 43.886719 76.746094 L 43.886719 72.820312 L 45.175781 72.820312 L 45.265625 70 L 50.03125 70 L 50.121094 72.820312 L 51.410156 72.820312 L 51.410156 76.746094 L 50.242188 76.746094 L 50.542969 86.785156 L 51.742188 86.785156 L 51.742188 91.820312 L 50.691406 91.820312 L 51.410156 115.859375 L 54.167969 115.859375 L 54.886719 91.820312 L 53.839844 91.820312 L 53.839844 86.785156 L 55.039062 86.785156 L 55.335938 76.746094 L 54.167969 76.746094 L 54.167969 72.820312 L 55.457031 72.820312 L 55.546875 70 L 60.3125 70 L 60.402344 72.820312 L 61.691406 72.820312 L 61.691406 76.746094 L 60.523438 76.746094 L 60.824219 86.785156 L 62.023438 86.785156 L 62.023438 91.820312 L 60.972656 91.820312 L 61.210938 99.644531 L 66.699219 99.644531 L 66.699219 97.398438 C 66.699219 95.628906 68.136719 94.21875 69.875 94.21875 C 71.613281 94.21875 73.050781 95.628906 73.050781 97.367188 L 73.050781 91.703125 C 73.050781 88.554688 75.597656 86.007812 78.746094 86.007812 C 81.292969 86.125 83.421875 88.046875 83.8125 90.5625 L 89.476562 90.5625 C 89.804688 86.726562 90.046875 82.679688 90.046875 78.515625 L 101.105469 78.515625 C 101.105469 82.679688 101.316406 86.757812 101.675781 90.5625 L 115.554688 90.5625 L 115.554688 119.1875 L 125.382812 119.1875 C 126.554688 114.78125 127.152344 110.226562 127.152344 105.667969 C 127.183594 76.835938 103.804688 53.457031 74.96875 53.457031 Z M 74.96875 53.457031 "/></g></g></svg>