<svg xmlns="http://www.w3.org/2000/svg" xmlns:xlink="http://www.w3.org/1999/xlink" width="200" zoomAndPan="magnify" viewBox="0 0 150 157.92" height="200" preserveAspectRatio="xMidYMid meet" version="1.2"><defs><clipPath id="1d877fa6db"><path d="M 2 2 L 149.960938 2 L 149.960938 149.925781 L 2 149.925781 Z M 2 2 "/></clipPath></defs><g id="1a9573b148"><g clip-rule="nonzero" clip-path="url(#1d877fa6db)"><path style=" stroke:none;fill-rule:evenodd;fill:#ffa800;fill-opacity:1;" d="M 76.179688 2.371094 C 116.921875 2.371094 149.949219 35.402344 149.949219 76.144531 C 149.949219 116.882812 116.921875 149.914062 76.179688 149.914062 C 35.4375 149.914062 2.410156 116.882812 2.410156 76.144531 C 2.410156 35.402344 35.441406 2.371094 76.179688 2.371094 Z M 63.492188 111.648438 C 66.277344 106.550781 67.285156 101.503906 66.378906 95.578125 C 66.34375 95.335938 66.046875 95.238281 65.875 95.414062 L 58.007812 103.3125 C 57.945312 103.378906 57.914062 103.460938 57.921875 103.550781 C 58.261719 107.28125 57.496094 112.003906 56.972656 116.296875 C 56.789062 117.765625 58.691406 118.632812 59.667969 117.332031 C 61.351562 115.105469 62.214844 113.992188 63.492188 111.648438 Z M 53.609375 94.742188 C 47.324219 88.929688 37.878906 88.191406 32.078125 81.777344 C 25.128906 74.09375 22.265625 64.851562 25.15625 54.695312 C 26.925781 48.464844 30.980469 43.453125 33.742188 40.039062 C 34.324219 39.320312 34.734375 38.601562 35.710938 38.71875 C 36.527344 38.820312 37.105469 39.5625 37.007812 40.378906 C 36.683594 43.011719 36.246094 45.550781 35.832031 47.980469 C 33.929688 59.046875 32.453125 67.675781 44.730469 74.375 C 50.992188 77.792969 58.183594 79.1875 62.621094 85.632812 C 62.726562 85.789062 62.945312 85.808594 63.078125 85.675781 L 69.847656 78.875 C 69.992188 78.734375 69.953125 78.496094 69.777344 78.402344 C 63.910156 75.3125 56.839844 73.664062 52.140625 68.46875 C 46.683594 62.433594 43.742188 52.675781 44.917969 44.726562 C 46.179688 36.175781 51.898438 27.070312 57.101562 21.417969 C 58.183594 20.242188 60.074219 21.332031 59.632812 22.832031 C 56.886719 32.148438 52.351562 47.925781 58.953125 56.339844 C 63.429688 62.050781 73.242188 63.292969 79.871094 68.441406 C 79.992188 68.535156 80.15625 68.523438 80.265625 68.417969 L 84.519531 64.144531 C 84.664062 63.996094 84.621094 63.75 84.433594 63.664062 C 79.6875 61.464844 75.226562 59.992188 71.046875 55.375 C 57.664062 40.578125 68.195312 19.273438 81.878906 16.65625 C 84.917969 16.074219 88.972656 16.289062 92.097656 17.324219 C 100.226562 20.019531 103.160156 32.296875 101.488281 39.324219 C 100.761719 42.394531 100.1875 42.28125 99.363281 40.882812 C 99.195312 40.597656 98.351562 40.804688 98.480469 39.308594 C 98.503906 39.023438 96.964844 36.441406 96.0625 35.136719 C 93.042969 30.753906 87.507812 25.125 80.808594 29.746094 C 76.386719 32.796875 75.378906 39.15625 78.597656 43.824219 C 80.078125 45.964844 81.765625 47.132812 84.332031 48.535156 C 87.988281 50.527344 91.261719 52.3125 94.128906 54.160156 C 94.246094 54.238281 94.398438 54.222656 94.5 54.121094 L 123.015625 25.488281 C 123.132812 25.367188 123.128906 25.171875 123.003906 25.058594 C 95.675781 -0.0078125 53.425781 0.894531 27.179688 27.140625 C 0.851562 53.46875 0.0351562 95.875 25.289062 123.179688 C 25.40625 123.304688 25.601562 123.308594 25.71875 123.1875 L 53.617188 95.175781 C 53.738281 95.054688 53.734375 94.859375 53.609375 94.742188 Z M 103.917969 102.796875 C 106.523438 97.542969 108.488281 91.871094 108.96875 86.8125 C 109.496094 81.308594 109.054688 76.792969 108.074219 72.988281 C 106.855469 68.246094 104.4375 63.472656 101.445312 60.140625 C 101.332031 60.011719 101.132812 60.007812 101.011719 60.128906 L 92.253906 68.921875 C 92.148438 69.027344 92.140625 69.195312 92.230469 69.316406 C 93.925781 71.519531 95.585938 75.253906 96.667969 78.332031 C 97.566406 80.882812 98.320312 83.796875 98.554688 86.78125 L 98.554688 86.789062 C 99.152344 94.402344 95.539062 104.257812 92.875 111.519531 C 92.261719 113.199219 91.695312 114.738281 91.179688 116.285156 C 90.691406 117.761719 92.539062 118.898438 93.636719 117.800781 L 93.644531 117.804688 C 97.0625 114.386719 100.921875 108.847656 103.917969 102.796875 Z M 83.859375 107.242188 C 85.621094 103.242188 87.03125 98.722656 87.683594 94.308594 C 88.535156 88.523438 88.226562 81.664062 85.738281 76.042969 C 85.652344 75.851562 85.402344 75.804688 85.253906 75.953125 L 76.824219 84.417969 C 76.730469 84.511719 76.710938 84.652344 76.773438 84.769531 C 81.421875 93.402344 77.429688 107.484375 74.820312 116.332031 C 74.378906 117.828125 76.273438 118.917969 77.355469 117.742188 C 79.613281 115.34375 81.953125 111.582031 83.859375 107.242188 Z M 126.191406 28.613281 L 28.863281 126.351562 C 28.742188 126.472656 28.746094 126.664062 28.871094 126.777344 C 34.113281 131.679688 40.121094 135.777344 46.695312 138.875 C 46.894531 138.964844 47.121094 138.824219 47.121094 138.601562 L 47.121094 135.851562 C 47.121094 127.601562 53.863281 120.859375 62.113281 120.859375 L 90.25 120.859375 C 98.5 120.859375 105.242188 127.601562 105.242188 135.851562 L 105.242188 138.601562 C 105.242188 138.824219 105.46875 138.964844 105.667969 138.875 C 129.546875 127.628906 145.480469 103.492188 145.480469 76.144531 C 145.480469 57.75 138.3125 41.027344 126.617188 28.621094 C 126.503906 28.496094 126.308594 28.496094 126.191406 28.613281 Z M 126.191406 28.613281 "/></g></g></svg>