<svg xmlns="http://www.w3.org/2000/svg" xmlns:xlink="http://www.w3.org/1999/xlink" width="200" zoomAndPan="magnify" viewBox="0 0 150 157.92" height="200" preserveAspectRatio="xMidYMid meet" version="1.2"><defs><clipPath id="4cf8a0fd9f"><path d="M 75 134 L 91 134 L 91 149.925781 L 75 149.925781 Z M 75 134 "/></clipPath><clipPath id="b026089f39"><path d="M 51 134 L 68 134 L 68 149.925781 L 51 149.925781 Z M 51 134 "/></clipPath><clipPath id="83e28318c0"><path d="M 11.84375 134 L 44 134 L 44 149.925781 L 11.84375 149.925781 Z M 11.84375 134 "/></clipPath><clipPath id="f7da0bde72"><path d="M 98 134 L 138.53125 134 L 138.53125 149.925781 L 98 149.925781 Z M 98 134 "/></clipPath></defs><g id="a3c937581c"><path style=" stroke:none;fill-rule:nonzero;fill:#ffa800;fill-opacity:1;" d="M 82.890625 86.796875 L 98.671875 86.796875 L 98.671875 94.6875 L 82.890625 94.6875 Z M 82.890625 86.796875 "/><path style=" stroke:none;fill-rule:nonzero;fill:#ffa800;fill-opacity:1;" d="M 75 102.582031 L 90.78125 102.582031 L 90.78125 110.472656 L 75 110.472656 Z M 75 102.582031 "/><path style=" stroke:none;fill-rule:nonzero;fill:#ffa800;fill-opacity:1;" d="M 106.5625 86.796875 L 126.289062 86.796875 L 126.289062 94.6875 L 106.5625 94.6875 Z M 106.5625 86.796875 "/><path style=" stroke:none;fill-rule:nonzero;fill:#ffa800;fill-opacity:1;" d="M 51.328125 102.582031 L 67.109375 102.582031 L 67.109375 110.472656 L 51.328125 110.472656 Z M 51.328125 102.582031 "/><path style=" stroke:none;fill-rule:nonzero;fill:#ffa800;fill-opacity:1;" d="M 106.5625 118.363281 L 126.289062 118.363281 L 126.289062 126.253906 L 106.5625 126.253906 Z M 106.5625 118.363281 "/><path style=" stroke:none;fill-rule:nonzero;fill:#ffa800;fill-opacity:1;" d="M 82.890625 118.363281 L 98.671875 118.363281 L 98.671875 126.253906 L 82.890625 126.253906 Z M 82.890625 118.363281 "/><path style=" stroke:none;fill-rule:nonzero;fill:#ffa800;fill-opacity:1;" d="M 23.710938 118.363281 L 51.328125 118.363281 L 51.328125 126.253906 L 23.710938 126.253906 Z M 23.710938 118.363281 "/><path style=" stroke:none;fill-rule:nonzero;fill:#ffa800;fill-opacity:1;" d="M 59.21875 118.363281 L 75 118.363281 L 75 126.253906 L 59.21875 126.253906 Z M 59.21875 118.363281 "/><path style=" stroke:none;fill-rule:nonzero;fill:#ffa800;fill-opacity:1;" d="M 59.21875 86.796875 L 75 86.796875 L 75 94.6875 L 59.21875 94.6875 Z M 59.21875 86.796875 "/><g clip-rule="nonzero" clip-path="url(#4cf8a0fd9f)"><path style=" stroke:none;fill-rule:nonzero;fill:#ffa800;fill-opacity:1;" d="M 75 134.144531 L 90.78125 134.144531 L 90.78125 149.925781 L 75 149.925781 Z M 75 134.144531 "/></g><g clip-rule="nonzero" clip-path="url(#b026089f39)"><path style=" stroke:none;fill-rule:nonzero;fill:#ffa800;fill-opacity:1;" d="M 51.328125 134.144531 L 67.109375 134.144531 L 67.109375 149.925781 L 51.328125 149.925781 Z M 51.328125 134.144531 "/></g><g clip-rule="nonzero" clip-path="url(#83e28318c0)"><path style=" stroke:none;fill-rule:nonzero;fill:#ffa800;fill-opacity:1;" d="M 23.710938 142.035156 L 15.816406 142.035156 C 13.648438 142.035156 11.871094 143.808594 11.871094 145.980469 C 11.871094 148.148438 13.648438 149.925781 15.816406 149.925781 L 43.4375 149.925781 L 43.4375 134.144531 L 23.710938 134.144531 Z M 23.710938 142.035156 "/></g><g clip-rule="nonzero" clip-path="url(#f7da0bde72)"><path style=" stroke:none;fill-rule:nonzero;fill:#ffa800;fill-opacity:1;" d="M 134.183594 142.035156 L 126.289062 142.035156 L 126.289062 134.144531 L 98.671875 134.144531 L 98.671875 149.925781 L 134.183594 149.925781 C 136.351562 149.925781 138.128906 148.148438 138.128906 145.980469 C 138.128906 143.808594 136.351562 142.035156 134.183594 142.035156 Z M 134.183594 142.035156 "/></g><path style=" stroke:none;fill-rule:nonzero;fill:#ffa800;fill-opacity:1;" d="M 19.765625 78.90625 L 130.234375 78.90625 C 132.414062 78.90625 134.183594 77.140625 134.183594 74.960938 L 134.183594 67.070312 C 134.183594 64.890625 132.414062 63.125 130.234375 63.125 L 118.398438 63.125 L 118.398438 39.453125 L 130.234375 39.453125 C 131.53125 39.453125 132.742188 38.816406 133.480469 37.753906 C 134.214844 36.691406 134.386719 35.335938 133.929688 34.121094 L 130.011719 23.671875 L 19.988281 23.671875 L 16.070312 34.121094 C 15.613281 35.335938 15.785156 36.691406 16.519531 37.753906 C 17.257812 38.816406 18.46875 39.453125 19.765625 39.453125 L 31.601562 39.453125 L 31.601562 63.125 L 19.765625 63.125 C 17.585938 63.125 15.816406 64.890625 15.816406 67.070312 L 15.816406 74.960938 C 15.816406 77.140625 17.585938 78.90625 19.765625 78.90625 Z M 39.492188 39.453125 L 110.507812 39.453125 L 110.507812 63.125 L 39.492188 63.125 Z M 39.492188 39.453125 "/><path style=" stroke:none;fill-rule:nonzero;fill:#ffa800;fill-opacity:1;" d="M 23.710938 86.796875 L 51.328125 86.796875 L 51.328125 94.6875 L 23.710938 94.6875 Z M 23.710938 86.796875 "/><path style=" stroke:none;fill-rule:nonzero;fill:#ffa800;fill-opacity:1;" d="M 23.710938 102.582031 L 43.4375 102.582031 L 43.4375 110.472656 L 23.710938 110.472656 Z M 23.710938 102.582031 "/><path style=" stroke:none;fill-rule:nonzero;fill:#ffa800;fill-opacity:1;" d="M 98.671875 102.582031 L 126.289062 102.582031 L 126.289062 110.472656 L 98.671875 110.472656 Z M 98.671875 102.582031 "/><path style=" stroke:none;fill-rule:nonzero;fill:#ffa800;fill-opacity:1;" d="M 122.09375 2.558594 C 121.515625 1.019531 120.046875 0 118.398438 0 L 31.601562 0 C 29.953125 0 28.484375 1.019531 27.90625 2.558594 L 22.945312 15.78125 L 127.054688 15.78125 Z M 122.09375 2.558594 "/></g></svg>