<svg xmlns="http://www.w3.org/2000/svg" xmlns:xlink="http://www.w3.org/1999/xlink" width="200" zoomAndPan="magnify" viewBox="0 0 150 157.92" height="200" preserveAspectRatio="xMidYMid meet" version="1.2"><defs><clipPath id="b37e43aa05"><path d="M 14 41 L 127 41 L 127 149.925781 L 14 149.925781 Z M 14 41 "/></clipPath></defs><g id="d781d7da00"><g clip-rule="nonzero" clip-path="url(#b37e43aa05)"><path style=" stroke:none;fill-rule:nonzero;fill:#ffa800;fill-opacity:1;" d="M 114.90625 78.101562 C 111.171875 76.839844 108.476562 73.859375 107.402344 70.269531 L 101.738281 70.089844 C 99.929688 71.15625 97.878906 71.738281 95.769531 71.738281 C 94.558594 71.738281 93.320312 71.542969 92.113281 71.140625 C 91.070312 70.796875 90.101562 70.300781 89.238281 69.695312 L 43.417969 68.257812 L 46.277344 63.695312 L 58.425781 63.695312 C 66.175781 63.695312 72.457031 57.414062 72.457031 49.660156 L 72.457031 47.273438 C 72.457031 43.953125 69.78125 41.261719 66.457031 41.261719 L 38.324219 41.261719 C 35.535156 41.261719 32.941406 42.699219 31.460938 45.0625 L 15.285156 70.953125 C 13.421875 73.9375 13.695312 77.785156 15.96875 80.476562 L 49.058594 119.589844 L 49.058594 149.230469 L 106.6875 149.230469 L 106.6875 119.589844 L 116.367188 104.886719 L 126.5 75.621094 C 124.316406 77.585938 121.476562 78.703125 118.550781 78.703125 C 117.335938 78.703125 116.105469 78.503906 114.90625 78.101562 "/></g><path style=" stroke:none;fill-rule:nonzero;fill:#ffa800;fill-opacity:1;" d="M 69.40625 12.402344 C 70.867188 8.023438 68.679688 3.355469 64.507812 1.953125 C 60.347656 0.5625 55.789062 2.976562 54.320312 7.351562 L 44.664062 36.210938 L 61.429688 36.210938 L 69.40625 12.402344 "/><path style=" stroke:none;fill-rule:nonzero;fill:#ffa800;fill-opacity:1;" d="M 77.507812 47.273438 L 77.507812 49.660156 C 77.507812 55.402344 74.960938 60.574219 70.921875 64.078125 L 73.539062 64.152344 C 76.261719 63.570312 78.664062 61.507812 79.648438 58.570312 L 93.738281 17.367188 C 95.207031 12.992188 93.007812 8.3125 88.847656 6.925781 C 84.6875 5.535156 80.117188 7.945312 78.664062 12.320312 L 70.261719 36.886719 C 74.476562 38.4375 77.507812 42.503906 77.507812 47.273438 "/><path style=" stroke:none;fill-rule:nonzero;fill:#ffa800;fill-opacity:1;" d="M 93.359375 67.414062 C 97.527344 68.808594 102.085938 66.394531 103.550781 62.027344 L 114.835938 28.316406 C 116.292969 23.945312 114.105469 19.269531 109.941406 17.875 C 105.773438 16.480469 101.214844 18.894531 99.75 23.265625 L 88.46875 56.976562 C 87.007812 61.347656 89.199219 66.023438 93.359375 67.414062 "/><path style=" stroke:none;fill-rule:nonzero;fill:#ffa800;fill-opacity:1;" d="M 130.046875 33.183594 C 125.886719 31.789062 121.320312 34.203125 119.859375 38.574219 L 111.253906 63.941406 C 109.796875 68.3125 111.984375 72.984375 116.148438 74.378906 C 120.316406 75.773438 124.875 73.359375 126.335938 68.988281 L 134.941406 43.621094 C 136.40625 39.25 134.214844 34.578125 130.046875 33.183594 "/></g></svg>