<svg xmlns="http://www.w3.org/2000/svg" xmlns:xlink="http://www.w3.org/1999/xlink" width="200" zoomAndPan="magnify" viewBox="0 0 150 157.92" height="200" preserveAspectRatio="xMidYMid meet" version="1.2"><defs><clipPath id="84f06a4086"><path d="M 11.09375 101 L 40 101 L 40 142 L 11.09375 142 Z M 11.09375 101 "/></clipPath><clipPath id="aefe2340f9"><path d="M 45 128 L 88 128 L 88 149.925781 L 45 149.925781 Z M 45 128 "/></clipPath></defs><g id="b790e1173a"><path style=" stroke:none;fill-rule:nonzero;fill:#ffa800;fill-opacity:1;" d="M 118.734375 99.71875 C 117.265625 101.242188 109.96875 109.148438 109.96875 114.386719 C 110.402344 128.507812 130.917969 128.507812 131.347656 114.386719 C 131.347656 109.148438 124.054688 101.242188 122.582031 99.71875 C 121.59375 98.652344 119.722656 98.652344 118.734375 99.71875 Z M 118.734375 99.71875 "/><g clip-rule="nonzero" clip-path="url(#84f06a4086)"><path style=" stroke:none;fill-rule:nonzero;fill:#ffa800;fill-opacity:1;" d="M 35.144531 130.949219 L 35.144531 119.195312 C 35.144531 109.46875 27.234375 101.5625 17.507812 101.5625 C 17.507812 101.5625 13.765625 101.5625 13.765625 101.5625 C 12.296875 101.5625 11.09375 102.765625 11.09375 104.234375 L 11.09375 107.972656 C 11.0625 118.113281 19.714844 126.148438 29.800781 125.605469 C 29.800781 125.605469 29.800781 130.949219 29.800781 130.949219 C 29.800781 136.585938 34.128906 141.179688 39.660156 141.582031 L 39.660156 136.210938 C 37.097656 135.8125 35.144531 133.59375 35.144531 130.949219 Z M 35.144531 130.949219 "/></g><g clip-rule="nonzero" clip-path="url(#aefe2340f9)"><path style=" stroke:none;fill-rule:nonzero;fill:#ffa800;fill-opacity:1;" d="M 50.347656 128.277344 L 82.417969 128.277344 C 85.367188 128.277344 87.761719 130.671875 87.761719 133.621094 L 87.761719 144.304688 C 87.761719 147.253906 85.367188 149.648438 82.421875 149.648438 L 50.351562 149.648438 C 47.402344 149.648438 45.007812 147.253906 45.007812 144.304688 L 45.007812 133.621094 C 45.007812 130.671875 47.402344 128.277344 50.347656 128.277344 Z M 50.347656 128.277344 "/></g><path style=" stroke:none;fill-rule:nonzero;fill:#ffa800;fill-opacity:1;" d="M 82.417969 91.4375 C 72.925781 97.777344 59.832031 97.792969 50.351562 91.4375 C 50.351562 91.4375 50.351562 122.933594 50.351562 122.933594 L 82.417969 122.933594 Z M 82.417969 91.4375 "/><path style=" stroke:none;fill-rule:nonzero;fill:#ffa800;fill-opacity:1;" d="M 23.628906 88.207031 C 25.097656 88.207031 26.300781 87.003906 26.300781 85.535156 C 26.496094 81.375 25.519531 73.679688 27.714844 69.988281 C 27.714844 69.988281 32.339844 60.714844 32.339844 60.714844 C 33.621094 58.152344 34.316406 55.238281 34.316406 52.355469 L 34.316406 24.089844 C 34.316406 19.898438 35.734375 16.023438 38.058594 12.925781 L 50.351562 25.1875 L 50.351562 42.230469 C 59.828125 35.890625 72.921875 35.878906 82.417969 42.230469 C 82.417969 42.230469 82.417969 24.089844 82.417969 24.089844 C 82.417969 22.621094 81.214844 21.421875 79.746094 21.421875 L 69.058594 21.421875 L 69.058594 5.390625 L 82.417969 5.390625 C 85.898438 5.351562 85.949219 0.105469 82.417969 0.046875 C 82.417969 0.046875 53.023438 0.046875 53.023438 0.046875 C 39.769531 0.046875 28.972656 10.839844 28.972656 24.089844 L 28.972656 52.355469 C 29.300781 56.671875 24.585938 63.804688 22.933594 67.609375 C 20.15625 72.292969 21.109375 80.332031 20.957031 85.535156 C 20.957031 87.003906 22.160156 88.207031 23.628906 88.207031 Z M 53.023438 5.390625 L 63.710938 5.390625 L 63.710938 21.421875 L 54.117188 21.421875 L 41.851562 9.132812 C 44.953125 6.808594 48.828125 5.390625 53.023438 5.390625 Z M 53.023438 5.390625 "/><path style=" stroke:none;fill-rule:nonzero;fill:#ffa800;fill-opacity:1;" d="M 131.347656 85.535156 L 131.347656 77.519531 C 131.347656 65.738281 121.753906 56.148438 109.96875 56.148438 L 93.75 56.148438 C 96.480469 63.027344 96.457031 70.664062 93.75 77.519531 C 93.75 77.519531 109.96875 77.519531 109.96875 77.519531 L 109.96875 85.535156 C 108.5 85.535156 107.296875 86.738281 107.296875 88.207031 C 107.296875 89.675781 108.5 90.878906 109.96875 90.878906 L 131.347656 90.878906 C 134.847656 90.808594 134.867188 85.605469 131.347656 85.535156 Z M 131.347656 85.535156 "/><path style=" stroke:none;fill-rule:nonzero;fill:#ffa800;fill-opacity:1;" d="M 87.921875 56.148438 C 81.503906 42.207031 61.460938 38.332031 50.351562 48.9375 C 34 63.414062 44.46875 90.925781 66.386719 90.878906 C 83.8125 91.257812 96.039062 71.519531 87.921875 56.148438 Z M 73.949219 68.304688 L 68.601562 76.316406 C 66.664062 79.242188 62.238281 76.261719 64.167969 73.378906 C 64.167969 73.378906 66.730469 69.503906 66.730469 69.503906 L 61.039062 69.503906 C 58.988281 69.582031 57.589844 67.027344 58.820312 65.363281 C 58.820312 65.363281 64.167969 57.351562 64.167969 57.351562 C 66.117188 54.457031 70.542969 57.328125 68.601562 60.289062 C 68.601562 60.289062 66.039062 64.164062 66.039062 64.164062 L 71.730469 64.164062 C 73.78125 64.085938 75.179688 66.640625 73.949219 68.304688 Z M 73.949219 68.304688 "/></g></svg>