<svg xmlns="http://www.w3.org/2000/svg" xmlns:xlink="http://www.w3.org/1999/xlink" width="200" zoomAndPan="magnify" viewBox="0 0 150 157.92" height="200" preserveAspectRatio="xMidYMid meet" version="1.2"><defs><clipPath id="cd10bc1a7a"><path d="M 1.164062 108 L 12 108 L 12 123 L 1.164062 123 Z M 1.164062 108 "/></clipPath><clipPath id="6c6164263b"><path d="M 138 107 L 148.835938 107 L 148.835938 127 L 138 127 Z M 138 107 "/></clipPath><clipPath id="5be37b9b5e"><path d="M 138 83 L 148.835938 83 L 148.835938 104 L 138 104 Z M 138 83 "/></clipPath><clipPath id="5f9d0aff2d"><path d="M 1.164062 82 L 115 82 L 115 109 L 1.164062 109 Z M 1.164062 82 "/></clipPath><clipPath id="680ae478c5"><path d="M 1.164062 128 L 148.835938 128 L 148.835938 149.925781 L 1.164062 149.925781 Z M 1.164062 128 "/></clipPath></defs><g id="7d293ca879"><path style=" stroke:none;fill-rule:nonzero;fill:#ffa800;fill-opacity:1;" d="M 15.953125 72.886719 C 15.953125 78.652344 20.335938 83.496094 26.101562 83.496094 C 31.636719 83.496094 36.019531 78.882812 36.019531 72.886719 C 36.019531 67.121094 31.636719 62.277344 26.101562 62.277344 C 20.566406 62.277344 15.953125 67.121094 15.953125 72.886719 Z M 15.953125 72.886719 "/><path style=" stroke:none;fill-rule:nonzero;fill:#ffa800;fill-opacity:1;" d="M 75 72.886719 C 75 78.652344 79.382812 83.496094 85.148438 83.496094 C 90.683594 83.496094 95.066406 78.882812 95.066406 72.886719 C 95.066406 67.121094 90.453125 62.277344 85.148438 62.277344 C 79.382812 62.277344 75 67.121094 75 72.886719 Z M 75 72.886719 "/><path style=" stroke:none;fill-rule:nonzero;fill:#ffa800;fill-opacity:1;" d="M 7.1875 75.191406 L 11.339844 75.191406 C 11.339844 74.5 11.109375 73.578125 11.109375 72.886719 C 11.109375 64.582031 17.796875 57.664062 25.871094 57.664062 C 33.945312 57.664062 40.402344 64.351562 40.402344 72.886719 C 40.402344 73.578125 40.402344 74.5 40.171875 75.191406 L 70.15625 75.191406 C 70.15625 74.5 69.925781 73.578125 69.925781 72.886719 C 69.925781 64.582031 76.613281 57.664062 84.6875 57.664062 C 92.761719 57.664062 99.21875 64.351562 99.21875 72.886719 C 99.21875 73.578125 99.21875 74.5 98.988281 75.191406 L 109.828125 75.191406 C 111.210938 75.191406 112.136719 74.039062 112.136719 72.886719 L 112.136719 13.378906 L 123.898438 13.378906 L 123.898438 46.824219 L 121.359375 46.824219 C 120.667969 46.824219 120.207031 47.054688 119.746094 47.515625 C 119.285156 47.976562 119.054688 48.667969 119.054688 49.128906 C 119.054688 124.550781 117.210938 128.703125 124.128906 143.464844 C 124.589844 144.15625 125.28125 144.851562 126.203125 144.851562 C 127.128906 144.851562 127.820312 144.386719 128.28125 143.464844 C 135.429688 128.472656 133.355469 122.9375 133.355469 49.128906 C 133.355469 48.4375 133.125 47.976562 132.664062 47.515625 C 132.203125 47.054688 131.742188 46.824219 131.046875 46.824219 L 128.28125 46.824219 L 128.28125 2.304688 C 128.28125 0.921875 127.359375 0 125.972656 0 C 124.820312 0 123.667969 0.921875 123.667969 2.304688 L 123.667969 8.765625 L 98.296875 8.765625 C 97.375 8.765625 96.449219 9.457031 96.21875 10.148438 L 81.917969 47.054688 L 44.324219 47.054688 L 44.324219 25.832031 C 44.324219 24.449219 43.171875 23.527344 42.015625 23.527344 L 18.027344 23.527344 C 17.105469 23.527344 16.414062 23.988281 15.953125 24.679688 L 5.113281 44.746094 C 4.882812 45.207031 4.882812 45.4375 4.882812 45.898438 L 4.882812 73.117188 C 4.882812 74.039062 6.035156 75.191406 7.1875 75.191406 Z M 107.984375 45.898438 L 92.992188 39.902344 L 107.984375 32.984375 Z M 99.910156 13.378906 L 107.984375 13.378906 L 107.984375 24.449219 L 98.527344 16.605469 Z M 96.910156 21.21875 L 106.136719 28.832031 L 91.375 35.75 Z M 88.378906 43.132812 L 98.066406 47.054688 L 86.761719 47.054688 Z M 9.496094 46.128906 L 19.414062 27.910156 L 34.40625 27.910156 L 34.40625 48.898438 L 9.496094 48.898438 Z M 9.496094 46.128906 "/><path style=" stroke:none;fill-rule:nonzero;fill:#ffa800;fill-opacity:1;" d="M 103.601562 101.71875 C 98.296875 101.71875 93.222656 101.949219 87.917969 102.640625 L 62.082031 129.855469 C 68.773438 128.933594 73.386719 128.242188 79.382812 127.089844 Z M 103.601562 101.71875 "/><path style=" stroke:none;fill-rule:nonzero;fill:#ffa800;fill-opacity:1;" d="M 56.546875 109.097656 C 50.320312 110.714844 44.324219 112.097656 38.09375 112.789062 L 20.105469 131.472656 C 24.71875 132.164062 29.5625 132.394531 34.175781 132.394531 Z M 56.546875 109.097656 "/><path style=" stroke:none;fill-rule:nonzero;fill:#ffa800;fill-opacity:1;" d="M 17.105469 112.789062 L 3.265625 127.320312 C 7.1875 128.703125 11.109375 129.855469 15.03125 130.550781 L 31.40625 113.25 C 30.253906 113.25 28.871094 113.25 27.714844 113.25 C 24.257812 113.480469 20.796875 113.25 17.105469 112.789062 Z M 17.105469 112.789062 "/><g clip-rule="nonzero" clip-path="url(#cd10bc1a7a)"><path style=" stroke:none;fill-rule:nonzero;fill:#ffa800;fill-opacity:1;" d="M 1.191406 108.636719 L 1.191406 122.9375 L 11.800781 111.867188 C 8.339844 110.945312 4.882812 110.019531 1.191406 108.636719 Z M 1.191406 108.636719 "/></g><path style=" stroke:none;fill-rule:nonzero;fill:#ffa800;fill-opacity:1;" d="M 138.660156 109.328125 L 141.429688 106.332031 C 140.503906 106.101562 139.582031 105.871094 138.660156 105.640625 C 138.890625 106.792969 138.890625 108.175781 138.660156 109.328125 Z M 138.660156 109.328125 "/><g clip-rule="nonzero" clip-path="url(#6c6164263b)"><path style=" stroke:none;fill-rule:nonzero;fill:#ffa800;fill-opacity:1;" d="M 138.660156 116.019531 C 138.660156 119.476562 138.429688 122.246094 138.199219 125.011719 C 141.660156 125.476562 145.117188 126.167969 148.808594 126.859375 L 148.808594 107.945312 C 148.347656 107.945312 148.347656 107.945312 146.964844 107.484375 Z M 138.660156 116.019531 "/></g><g clip-rule="nonzero" clip-path="url(#5be37b9b5e)"><path style=" stroke:none;fill-rule:nonzero;fill:#ffa800;fill-opacity:1;" d="M 138.660156 83.265625 L 138.660156 88.109375 C 139.121094 87.878906 139.8125 87.648438 140.503906 87.648438 C 142.8125 87.648438 144.65625 89.492188 144.65625 91.800781 C 144.65625 94.105469 142.8125 95.953125 140.503906 95.953125 C 139.8125 95.953125 139.121094 95.722656 138.660156 95.488281 C 138.660156 97.335938 138.660156 99.179688 138.660156 101.027344 C 142.121094 101.71875 147.425781 102.871094 148.808594 103.332031 L 148.808594 83.496094 L 138.660156 83.496094 Z M 138.660156 83.265625 "/></g><g clip-rule="nonzero" clip-path="url(#5f9d0aff2d)"><path style=" stroke:none;fill-rule:nonzero;fill:#ffa800;fill-opacity:1;" d="M 58.164062 103.792969 C 78.230469 98.949219 93.914062 95.953125 114.671875 97.335938 C 114.671875 97.105469 114.671875 82.113281 114.671875 83.035156 L 1.191406 83.035156 L 1.191406 103.5625 C 1.421875 103.5625 1.652344 103.5625 2.113281 103.5625 C 24.027344 112.328125 39.941406 108.40625 58.164062 103.792969 Z M 106.367188 86.496094 C 108.675781 86.496094 110.519531 88.339844 110.519531 90.644531 C 110.519531 96.183594 102.449219 96.183594 102.449219 90.644531 C 102.449219 88.339844 104.292969 86.496094 106.367188 86.496094 Z M 89.992188 86.496094 C 92.300781 86.496094 94.144531 88.339844 94.144531 90.644531 C 94.144531 92.953125 92.300781 94.796875 89.992188 94.796875 C 87.6875 94.796875 86.070312 92.953125 86.070312 90.644531 C 86.070312 88.339844 87.6875 86.496094 89.992188 86.496094 Z M 75 86.496094 C 77.304688 86.496094 79.152344 88.339844 79.152344 90.644531 C 79.152344 92.953125 77.304688 94.566406 75 94.566406 C 72.695312 94.566406 71.078125 92.722656 71.078125 90.414062 C 71.078125 88.109375 72.695312 86.496094 75 86.496094 Z M 59.777344 92.722656 C 62.082031 92.722656 63.699219 94.566406 63.699219 96.875 C 63.699219 99.179688 61.851562 101.027344 59.777344 101.027344 C 57.46875 101.027344 55.625 99.179688 55.625 96.875 C 55.625 94.566406 57.46875 92.722656 59.777344 92.722656 Z M 47.089844 88.570312 C 49.398438 88.570312 51.242188 90.414062 51.242188 92.722656 C 51.242188 95.027344 49.398438 96.875 47.089844 96.875 C 44.785156 96.875 42.9375 95.027344 42.9375 92.722656 C 42.9375 90.414062 44.785156 88.570312 47.089844 88.570312 Z M 42.9375 97.796875 C 45.246094 97.796875 46.859375 99.640625 46.859375 101.949219 C 46.859375 104.253906 45.015625 106.101562 42.9375 106.101562 C 40.632812 106.101562 38.789062 104.253906 38.789062 101.949219 C 38.789062 99.640625 40.632812 97.796875 42.9375 97.796875 Z M 33.484375 87.648438 C 35.789062 87.648438 37.402344 89.492188 37.402344 91.800781 C 37.402344 94.105469 35.558594 95.953125 33.484375 95.953125 C 31.175781 95.953125 29.332031 94.105469 29.332031 91.800781 C 29.332031 89.492188 31.175781 87.648438 33.484375 87.648438 Z M 31.175781 97.796875 C 33.484375 97.796875 35.097656 99.640625 35.097656 101.949219 C 35.097656 104.253906 33.25 106.101562 31.175781 106.101562 C 28.871094 106.101562 27.023438 104.253906 27.023438 101.949219 C 27.023438 99.640625 28.871094 97.796875 31.175781 97.796875 Z M 19.644531 94.566406 C 21.949219 94.566406 23.796875 96.414062 23.796875 98.71875 C 23.796875 101.027344 21.949219 102.871094 19.644531 102.871094 C 17.335938 102.871094 15.722656 101.027344 15.722656 98.71875 C 15.722656 96.414062 17.335938 94.566406 19.644531 94.566406 Z M 10.417969 88.570312 C 12.722656 88.570312 14.570312 90.414062 14.570312 92.722656 C 14.570312 95.027344 12.722656 96.875 10.417969 96.875 C 8.109375 96.875 6.496094 95.027344 6.496094 92.722656 C 6.496094 90.414062 8.339844 88.570312 10.417969 88.570312 Z M 10.417969 88.570312 "/></g><g clip-rule="nonzero" clip-path="url(#680ae478c5)"><path style=" stroke:none;fill-rule:nonzero;fill:#ffa800;fill-opacity:1;" d="M 137.738281 129.625 C 137.507812 131.242188 137.277344 132.855469 137.046875 134.238281 L 141.660156 134.238281 C 143.042969 134.238281 143.964844 135.394531 143.964844 136.546875 C 143.964844 137.929688 143.042969 138.851562 141.660156 138.851562 L 135.890625 138.851562 C 135.199219 141.160156 134.277344 143.234375 133.125 145.542969 C 131.972656 147.847656 129.433594 149.460938 126.898438 149.460938 C 124.128906 149.460938 121.824219 147.847656 120.667969 145.542969 C 117.902344 139.773438 116.515625 135.394531 115.59375 128.242188 C 74.078125 128.933594 38.789062 145.3125 1.191406 131.472656 L 1.191406 149.925781 L 148.808594 149.925781 L 148.808594 131.472656 C 148.578125 131.472656 148.578125 131.472656 148.347656 131.472656 C 144.886719 130.550781 141.429688 130.089844 137.738281 129.625 Z M 14.109375 142.773438 L 7.1875 142.773438 C 6.035156 142.773438 4.882812 141.851562 4.882812 140.46875 C 4.882812 139.3125 6.035156 138.160156 7.1875 138.160156 L 13.878906 138.160156 C 15.261719 138.160156 16.183594 139.3125 16.183594 140.46875 C 16.414062 141.851562 15.261719 142.773438 14.109375 142.773438 Z M 36.480469 144.851562 L 29.792969 144.851562 C 28.640625 144.851562 27.484375 143.695312 27.484375 142.542969 C 27.484375 141.390625 28.640625 140.238281 29.792969 140.238281 L 36.480469 140.238281 C 37.632812 140.238281 38.789062 141.390625 38.789062 142.542969 C 38.789062 143.695312 37.863281 144.851562 36.480469 144.851562 Z M 54.242188 144.851562 L 47.550781 144.851562 C 46.167969 144.851562 45.246094 143.695312 45.246094 142.542969 C 45.246094 141.390625 46.167969 140.238281 47.550781 140.238281 L 54.242188 140.238281 C 55.394531 140.238281 56.546875 141.390625 56.546875 142.542969 C 56.546875 143.695312 55.394531 144.851562 54.242188 144.851562 Z M 68.3125 142.082031 L 61.621094 142.082031 C 60.46875 142.082031 59.316406 141.160156 59.316406 139.773438 C 59.316406 138.621094 60.46875 137.46875 61.621094 137.46875 L 68.3125 137.46875 C 69.695312 137.46875 70.617188 138.621094 70.617188 139.773438 C 70.617188 141.160156 69.695312 142.082031 68.3125 142.082031 Z M 82.84375 145.542969 L 76.152344 145.542969 C 74.769531 145.542969 73.847656 144.617188 73.847656 143.234375 C 73.847656 142.082031 74.769531 140.929688 76.152344 140.929688 L 82.84375 140.929688 C 83.996094 140.929688 85.148438 142.082031 85.148438 143.234375 C 85.148438 144.617188 84.226562 145.542969 82.84375 145.542969 Z M 88.378906 138.160156 L 81.6875 138.160156 C 80.535156 138.160156 79.382812 137.007812 79.382812 135.855469 C 79.382812 134.46875 80.535156 133.546875 81.6875 133.546875 C 85.378906 134.007812 90.683594 132.164062 90.683594 135.855469 C 90.683594 137.007812 89.761719 138.160156 88.378906 138.160156 Z M 99.21875 144.851562 L 92.53125 144.851562 C 91.375 144.851562 90.222656 143.695312 90.222656 142.542969 C 90.222656 141.390625 91.375 140.238281 92.53125 140.238281 L 99.21875 140.238281 C 100.371094 140.238281 101.523438 141.390625 101.523438 142.542969 C 101.523438 143.695312 100.601562 144.851562 99.21875 144.851562 Z M 100.832031 133.085938 C 100.832031 131.933594 101.753906 130.78125 103.140625 130.78125 L 109.828125 130.78125 C 110.980469 130.78125 112.136719 131.933594 112.136719 133.085938 C 112.136719 134.46875 110.980469 135.394531 109.828125 135.394531 L 103.140625 135.394531 C 101.753906 135.394531 100.832031 134.46875 100.832031 133.085938 Z M 115.59375 145.542969 L 108.90625 145.542969 C 107.523438 145.542969 106.597656 144.617188 106.597656 143.234375 C 106.597656 142.082031 107.523438 140.929688 108.90625 140.929688 L 115.59375 140.929688 C 116.75 140.929688 117.902344 142.082031 117.902344 143.234375 C 117.902344 144.617188 116.75 145.542969 115.59375 145.542969 Z M 115.59375 145.542969 "/></g><path style=" stroke:none;fill-rule:nonzero;fill:#ffa800;fill-opacity:1;" d="M 114.902344 118.785156 L 110.058594 123.859375 C 111.671875 123.859375 113.519531 123.628906 115.132812 123.628906 C 114.902344 122.246094 114.902344 120.632812 114.902344 118.785156 Z M 114.902344 118.785156 "/><path style=" stroke:none;fill-rule:nonzero;fill:#ffa800;fill-opacity:1;" d="M 114.671875 112.328125 C 114.671875 109.328125 114.671875 106.101562 114.671875 102.179688 C 113.058594 102.179688 111.441406 101.949219 109.828125 101.949219 L 86.761719 126.167969 C 91.835938 125.476562 97.605469 124.78125 103.371094 124.320312 Z M 114.671875 112.328125 "/><path style=" stroke:none;fill-rule:nonzero;fill:#ffa800;fill-opacity:1;" d="M 80.535156 103.792969 C 75 104.714844 69.925781 105.871094 64.851562 107.023438 L 40.863281 132.164062 C 45.476562 131.933594 50.089844 131.472656 54.703125 130.78125 Z M 80.535156 103.792969 "/></g></svg>