<svg xmlns="http://www.w3.org/2000/svg" xmlns:xlink="http://www.w3.org/1999/xlink" width="200" zoomAndPan="magnify" viewBox="0 0 150 157.92" height="200" preserveAspectRatio="xMidYMid meet" version="1.2"><defs><clipPath id="8cd5f3fe39"><path d="M 1.445312 92 L 148.367188 92 L 148.367188 149.925781 L 1.445312 149.925781 Z M 1.445312 92 "/></clipPath></defs><g id="3c1406e9fe"><path style=" stroke:none;fill-rule:nonzero;fill:#ffa800;fill-opacity:1;" d="M 39.75 33.097656 C 39.277344 32.992188 38.804688 32.914062 38.328125 32.863281 C 37.851562 32.808594 37.371094 32.78125 36.890625 32.777344 C 36.410156 32.773438 35.929688 32.796875 35.453125 32.84375 C 34.972656 32.890625 34.5 32.960938 34.027344 33.058594 C 33.558594 33.15625 33.09375 33.277344 32.636719 33.421875 C 32.179688 33.566406 31.730469 33.738281 31.289062 33.929688 C 30.847656 34.125 30.421875 34.339844 30.003906 34.578125 C 29.585938 34.816406 29.179688 35.074219 28.792969 35.355469 C 28.402344 35.636719 28.027344 35.933594 27.667969 36.253906 C 27.308594 36.574219 26.96875 36.914062 26.644531 37.269531 C 26.320312 37.625 26.019531 37.996094 25.734375 38.382812 C 25.449219 38.769531 25.1875 39.171875 24.945312 39.585938 C 24.703125 40 24.484375 40.429688 24.285156 40.867188 C 24.089844 41.304688 23.914062 41.753906 23.765625 42.207031 C 23.613281 42.664062 23.488281 43.128906 23.386719 43.597656 C 23.285156 44.066406 23.207031 44.542969 23.15625 45.019531 C 23.105469 45.496094 23.078125 45.976562 23.078125 46.457031 C 23.074219 46.9375 23.097656 47.417969 23.148438 47.894531 C 23.195312 48.375 23.269531 48.847656 23.371094 49.316406 C 23.46875 49.789062 23.589844 50.25 23.738281 50.710938 C 23.886719 51.167969 24.058594 51.613281 24.253906 52.054688 C 24.445312 52.492188 24.664062 52.921875 24.902344 53.339844 C 25.144531 53.753906 25.402344 54.15625 25.6875 54.546875 C 25.96875 54.9375 26.269531 55.308594 26.589844 55.667969 C 26.910156 56.023438 27.25 56.363281 27.605469 56.6875 C 27.964844 57.007812 28.335938 57.308594 28.726562 57.59375 C 29.113281 57.875 29.515625 58.136719 29.933594 58.378906 C 30.347656 58.617188 30.777344 58.835938 31.214844 59.03125 C 31.652344 59.226562 32.101562 59.398438 32.558594 59.546875 C 33.015625 59.695312 33.480469 59.820312 33.949219 59.921875 C 34.421875 60.019531 34.894531 60.09375 35.371094 60.144531 C 35.851562 60.195312 36.328125 60.21875 36.808594 60.21875 L 113.679688 60.21875 C 114.574219 60.207031 115.457031 60.105469 116.332031 59.921875 C 117.203125 59.738281 118.050781 59.46875 118.871094 59.117188 C 119.695312 58.769531 120.472656 58.339844 121.210938 57.839844 C 121.949219 57.335938 122.632812 56.765625 123.257812 56.132812 C 123.886719 55.496094 124.445312 54.804688 124.9375 54.058594 C 125.429688 53.316406 125.84375 52.527344 126.183594 51.703125 C 126.523438 50.875 126.777344 50.027344 126.949219 49.148438 C 127.121094 48.273438 127.210938 47.390625 127.210938 46.496094 C 127.210938 45.601562 127.121094 44.71875 126.949219 43.84375 C 126.777344 42.964844 126.523438 42.117188 126.183594 41.289062 C 125.84375 40.464844 125.429688 39.675781 124.9375 38.933594 C 124.445312 38.1875 123.886719 37.496094 123.257812 36.859375 C 122.632812 36.226562 121.949219 35.65625 121.210938 35.152344 C 120.472656 34.652344 119.695312 34.222656 118.871094 33.875 C 118.050781 33.523438 117.203125 33.253906 116.332031 33.070312 C 115.457031 32.886719 114.574219 32.785156 113.679688 32.773438 C 112.984375 32.78125 112.292969 32.839844 111.605469 32.949219 C 111.492188 32.964844 111.375 32.96875 111.257812 32.957031 C 111.140625 32.945312 111.027344 32.921875 110.917969 32.882812 C 110.808594 32.84375 110.707031 32.789062 110.609375 32.726562 C 110.511719 32.660156 110.421875 32.582031 110.347656 32.496094 C 110.269531 32.410156 110.203125 32.3125 110.148438 32.210938 C 110.09375 32.105469 110.050781 32 110.023438 31.886719 C 109.996094 31.769531 109.984375 31.65625 109.984375 31.539062 C 109.988281 31.421875 110.003906 31.308594 110.035156 31.195312 C 110.222656 30.496094 110.375 29.789062 110.496094 29.078125 C 110.617188 28.363281 110.703125 27.648438 110.757812 26.925781 C 110.808594 26.203125 110.828125 25.480469 110.808594 24.757812 C 110.792969 24.035156 110.742188 23.316406 110.652344 22.597656 C 110.566406 21.878906 110.445312 21.167969 110.292969 20.460938 C 110.136719 19.753906 109.949219 19.058594 109.726562 18.367188 C 109.507812 17.679688 109.253906 17.003906 108.964844 16.339844 C 108.679688 15.675781 108.363281 15.027344 108.011719 14.394531 C 107.664062 13.757812 107.285156 13.144531 106.878906 12.546875 C 106.472656 11.949219 106.035156 11.371094 105.574219 10.816406 C 105.109375 10.261719 104.621094 9.730469 104.109375 9.21875 C 103.59375 8.710938 103.054688 8.230469 102.496094 7.773438 C 101.933594 7.3125 101.355469 6.886719 100.753906 6.484375 C 100.152344 6.082031 99.53125 5.710938 98.894531 5.367188 C 98.257812 5.027344 97.605469 4.714844 96.9375 4.4375 C 96.269531 4.15625 95.59375 3.910156 94.902344 3.695312 C 94.210938 3.480469 93.511719 3.300781 92.804688 3.152344 C 92.09375 3.003906 91.382812 2.890625 90.664062 2.8125 C 89.945312 2.734375 89.222656 2.691406 88.5 2.679688 C 87.777344 2.671875 87.054688 2.695312 86.335938 2.753906 C 85.613281 2.816406 84.898438 2.910156 84.183594 3.035156 C 83.472656 3.164062 82.769531 3.328125 82.074219 3.523438 C 81.378906 3.71875 80.691406 3.949219 80.019531 4.210938 C 79.34375 4.46875 78.683594 4.765625 78.039062 5.089844 C 77.390625 5.414062 76.761719 5.769531 76.148438 6.152344 C 75.539062 6.539062 74.945312 6.953125 74.371094 7.394531 C 73.800781 7.835938 73.25 8.304688 72.722656 8.800781 C 72.195312 9.292969 71.691406 9.8125 71.214844 10.355469 C 70.738281 10.898438 70.285156 11.464844 69.863281 12.050781 C 69.441406 12.636719 69.046875 13.242188 68.679688 13.867188 C 68.3125 14.488281 67.980469 15.128906 67.675781 15.785156 C 67.371094 16.441406 67.097656 17.109375 66.859375 17.792969 C 66.820312 17.90625 66.765625 18.011719 66.699219 18.113281 C 66.632812 18.210938 66.554688 18.300781 66.464844 18.378906 C 66.375 18.460938 66.273438 18.527344 66.167969 18.582031 C 66.0625 18.632812 65.949219 18.675781 65.832031 18.699219 C 65.714844 18.726562 65.597656 18.734375 65.476562 18.730469 C 65.355469 18.726562 65.238281 18.707031 65.125 18.671875 C 65.007812 18.636719 64.902344 18.589844 64.796875 18.527344 C 64.695312 18.464844 64.601562 18.390625 64.519531 18.304688 C 63.996094 17.757812 63.433594 17.257812 62.828125 16.804688 C 62.222656 16.351562 61.585938 15.953125 60.914062 15.605469 C 60.242188 15.257812 59.546875 14.96875 58.828125 14.734375 C 58.109375 14.503906 57.375 14.332031 56.625 14.222656 C 55.878906 14.113281 55.125 14.0625 54.371094 14.078125 C 53.613281 14.09375 52.867188 14.167969 52.121094 14.308594 C 51.378906 14.445312 50.652344 14.644531 49.941406 14.902344 C 49.230469 15.160156 48.546875 15.476562 47.890625 15.847656 C 47.230469 16.21875 46.609375 16.644531 46.019531 17.117188 C 45.433594 17.59375 44.886719 18.113281 44.386719 18.679688 C 43.882812 19.242188 43.433594 19.847656 43.03125 20.488281 C 42.628906 21.125 42.28125 21.796875 41.988281 22.492188 C 41.699219 23.191406 41.464844 23.90625 41.292969 24.644531 C 41.121094 25.378906 41.011719 26.125 40.960938 26.878906 C 40.914062 27.632812 40.925781 28.386719 41 29.136719 C 41.078125 29.890625 41.214844 30.628906 41.410156 31.359375 C 41.441406 31.476562 41.457031 31.597656 41.460938 31.714844 C 41.460938 31.835938 41.445312 31.957031 41.414062 32.074219 C 41.386719 32.191406 41.339844 32.300781 41.28125 32.40625 C 41.222656 32.511719 41.152344 32.609375 41.066406 32.695312 C 40.984375 32.785156 40.890625 32.859375 40.789062 32.921875 C 40.6875 32.984375 40.578125 33.035156 40.460938 33.070312 C 40.34375 33.105469 40.226562 33.125 40.105469 33.128906 C 39.984375 33.132812 39.867188 33.121094 39.75 33.097656 Z M 88.636719 49.703125 L 93.121094 49.703125 C 93.304688 49.703125 93.484375 49.738281 93.660156 49.808594 C 93.832031 49.882812 93.984375 49.984375 94.113281 50.117188 C 94.246094 50.246094 94.347656 50.398438 94.421875 50.570312 C 94.492188 50.746094 94.527344 50.925781 94.527344 51.109375 C 94.527344 51.296875 94.492188 51.476562 94.421875 51.648438 C 94.347656 51.820312 94.246094 51.972656 94.113281 52.105469 C 93.984375 52.238281 93.832031 52.339844 93.660156 52.410156 C 93.484375 52.480469 93.304688 52.519531 93.121094 52.519531 L 88.636719 52.519531 C 88.449219 52.519531 88.269531 52.480469 88.097656 52.410156 C 87.925781 52.339844 87.773438 52.238281 87.640625 52.105469 C 87.507812 51.972656 87.40625 51.820312 87.335938 51.648438 C 87.265625 51.476562 87.230469 51.296875 87.230469 51.109375 C 87.230469 50.925781 87.265625 50.746094 87.335938 50.570312 C 87.40625 50.398438 87.507812 50.246094 87.640625 50.117188 C 87.773438 49.984375 87.925781 49.882812 88.097656 49.808594 C 88.269531 49.738281 88.449219 49.703125 88.636719 49.703125 Z M 41.832031 49.703125 L 75.246094 49.703125 C 75.433594 49.703125 75.613281 49.738281 75.785156 49.808594 C 75.957031 49.882812 76.109375 49.984375 76.242188 50.117188 C 76.375 50.246094 76.476562 50.398438 76.546875 50.570312 C 76.617188 50.746094 76.652344 50.925781 76.652344 51.109375 C 76.652344 51.296875 76.617188 51.476562 76.546875 51.648438 C 76.476562 51.820312 76.375 51.972656 76.242188 52.105469 C 76.109375 52.238281 75.957031 52.339844 75.785156 52.410156 C 75.613281 52.480469 75.433594 52.519531 75.246094 52.519531 L 41.832031 52.519531 C 41.644531 52.519531 41.464844 52.480469 41.292969 52.410156 C 41.121094 52.339844 40.96875 52.238281 40.835938 52.105469 C 40.703125 51.972656 40.601562 51.820312 40.53125 51.648438 C 40.460938 51.476562 40.421875 51.296875 40.421875 51.109375 C 40.421875 50.925781 40.460938 50.746094 40.53125 50.570312 C 40.601562 50.398438 40.703125 50.246094 40.835938 50.117188 C 40.96875 49.984375 41.121094 49.882812 41.292969 49.808594 C 41.464844 49.738281 41.644531 49.703125 41.832031 49.703125 Z M 41.832031 49.703125 "/><path style=" stroke:none;fill-rule:nonzero;fill:#ffa800;fill-opacity:1;" d="M 29.554688 83.976562 C 29.183594 84.625 28.929688 85.316406 28.800781 86.054688 C 28.667969 86.792969 28.667969 87.53125 28.800781 88.269531 C 28.929688 89.003906 29.179688 89.699219 29.554688 90.347656 C 29.929688 90.996094 30.40625 91.5625 30.976562 92.042969 C 31.550781 92.523438 32.191406 92.894531 32.894531 93.148438 C 33.597656 93.40625 34.324219 93.535156 35.074219 93.535156 C 35.824219 93.535156 36.550781 93.40625 37.253906 93.148438 C 37.957031 92.894531 38.597656 92.523438 39.171875 92.042969 C 39.746094 91.5625 40.21875 90.996094 40.59375 90.347656 C 40.96875 89.699219 41.21875 89.003906 41.351562 88.269531 C 41.480469 87.53125 41.480469 86.792969 41.351562 86.054688 C 41.21875 85.316406 40.96875 84.625 40.59375 83.976562 L 35.074219 74.40625 Z M 29.554688 83.976562 "/><path style=" stroke:none;fill-rule:nonzero;fill:#ffa800;fill-opacity:1;" d="M 56.328125 83.976562 C 55.953125 84.625 55.703125 85.316406 55.570312 86.054688 C 55.441406 86.792969 55.441406 87.53125 55.570312 88.269531 C 55.703125 89.003906 55.953125 89.699219 56.328125 90.347656 C 56.703125 90.996094 57.175781 91.5625 57.75 92.042969 C 58.324219 92.523438 58.964844 92.894531 59.667969 93.148438 C 60.371094 93.40625 61.097656 93.535156 61.847656 93.535156 C 62.597656 93.535156 63.324219 93.40625 64.027344 93.148438 C 64.730469 92.894531 65.371094 92.523438 65.945312 92.042969 C 66.519531 91.5625 66.992188 90.996094 67.367188 90.347656 C 67.742188 89.699219 67.992188 89.003906 68.125 88.269531 C 68.253906 87.53125 68.253906 86.792969 68.125 86.054688 C 67.992188 85.316406 67.742188 84.625 67.367188 83.976562 L 61.847656 74.40625 Z M 56.328125 83.976562 "/><path style=" stroke:none;fill-rule:nonzero;fill:#ffa800;fill-opacity:1;" d="M 83.117188 83.976562 C 82.742188 84.625 82.488281 85.316406 82.359375 86.054688 C 82.230469 86.792969 82.230469 87.53125 82.359375 88.269531 C 82.488281 89.003906 82.742188 89.699219 83.117188 90.347656 C 83.492188 90.996094 83.964844 91.5625 84.539062 92.042969 C 85.113281 92.523438 85.75 92.894531 86.457031 93.148438 C 87.160156 93.40625 87.886719 93.535156 88.636719 93.535156 C 89.382812 93.535156 90.109375 93.40625 90.816406 93.148438 C 91.519531 92.894531 92.15625 92.523438 92.730469 92.042969 C 93.304688 91.5625 93.777344 90.996094 94.152344 90.347656 C 94.527344 89.699219 94.78125 89.003906 94.910156 88.269531 C 95.039062 87.53125 95.039062 86.792969 94.910156 86.054688 C 94.78125 85.316406 94.527344 84.625 94.152344 83.976562 L 88.636719 74.40625 Z M 83.117188 83.976562 "/><path style=" stroke:none;fill-rule:nonzero;fill:#ffa800;fill-opacity:1;" d="M 109.898438 83.976562 C 109.523438 84.625 109.269531 85.316406 109.140625 86.054688 C 109.011719 86.792969 109.011719 87.53125 109.140625 88.269531 C 109.269531 89.003906 109.523438 89.699219 109.898438 90.347656 C 110.273438 90.996094 110.746094 91.5625 111.320312 92.042969 C 111.894531 92.523438 112.53125 92.894531 113.238281 93.148438 C 113.941406 93.40625 114.667969 93.535156 115.417969 93.535156 C 116.164062 93.535156 116.890625 93.40625 117.597656 93.148438 C 118.300781 92.894531 118.9375 92.523438 119.511719 92.042969 C 120.085938 91.5625 120.5625 90.996094 120.933594 90.347656 C 121.308594 89.699219 121.5625 89.003906 121.691406 88.269531 C 121.820312 87.53125 121.820312 86.792969 121.691406 86.054688 C 121.5625 85.316406 121.308594 84.625 120.933594 83.976562 L 115.417969 74.40625 Z M 109.898438 83.976562 "/><path style=" stroke:none;fill-rule:nonzero;fill:#ffa800;fill-opacity:1;" d="M 15.304688 107.847656 L 15.304688 133.136719 L 135.183594 133.136719 L 135.183594 107.847656 C 133.972656 107.273438 132.707031 106.847656 131.394531 106.566406 C 130.082031 106.289062 128.753906 106.164062 127.410156 106.199219 C 126.070312 106.230469 124.75 106.417969 123.449219 106.757812 C 122.152344 107.101562 120.910156 107.589844 119.726562 108.222656 L 117.476562 109.429688 C 116.371094 110.019531 115.214844 110.464844 114 110.769531 C 112.789062 111.074219 111.558594 111.226562 110.304688 111.226562 C 109.054688 111.226562 107.824219 111.074219 106.609375 110.769531 C 105.398438 110.464844 104.238281 110.019531 103.136719 109.429688 L 98.632812 107.015625 C 97.734375 106.535156 96.792969 106.171875 95.800781 105.925781 C 94.8125 105.675781 93.808594 105.554688 92.789062 105.554688 C 91.773438 105.554688 90.765625 105.675781 89.777344 105.925781 C 88.789062 106.171875 87.847656 106.535156 86.949219 107.015625 L 82.445312 109.425781 C 81.339844 110.011719 80.183594 110.460938 78.96875 110.761719 C 77.757812 111.066406 76.527344 111.21875 75.277344 111.21875 C 74.027344 111.21875 72.796875 111.066406 71.582031 110.761719 C 70.371094 110.460938 69.210938 110.011719 68.109375 109.425781 L 63.589844 107.011719 C 62.691406 106.53125 61.75 106.167969 60.761719 105.921875 C 59.769531 105.671875 58.765625 105.550781 57.75 105.550781 C 56.730469 105.550781 55.726562 105.671875 54.734375 105.921875 C 53.746094 106.167969 52.804688 106.53125 51.90625 107.011719 L 47.386719 109.421875 C 46.285156 110.011719 45.125 110.457031 43.914062 110.757812 C 42.703125 111.0625 41.46875 111.214844 40.21875 111.214844 C 38.96875 111.214844 37.738281 111.0625 36.527344 110.757812 C 35.3125 110.457031 34.15625 110.011719 33.050781 109.421875 L 30.800781 108.214844 C 29.613281 107.578125 28.371094 107.089844 27.066406 106.746094 C 25.765625 106.40625 24.441406 106.21875 23.097656 106.1875 C 21.75 106.15625 20.421875 106.277344 19.105469 106.558594 C 17.789062 106.839844 16.519531 107.269531 15.304688 107.847656 Z M 80.199219 123.511719 L 84.984375 123.511719 C 85.171875 123.511719 85.351562 123.546875 85.523438 123.621094 C 85.695312 123.691406 85.847656 123.792969 85.980469 123.925781 C 86.113281 124.054688 86.214844 124.207031 86.285156 124.382812 C 86.355469 124.554688 86.394531 124.734375 86.394531 124.917969 C 86.394531 125.105469 86.355469 125.285156 86.285156 125.457031 C 86.214844 125.628906 86.113281 125.78125 85.980469 125.914062 C 85.847656 126.046875 85.695312 126.148438 85.523438 126.21875 C 85.351562 126.292969 85.171875 126.328125 84.984375 126.328125 L 80.199219 126.328125 C 80.015625 126.328125 79.835938 126.292969 79.664062 126.21875 C 79.488281 126.148438 79.335938 126.046875 79.207031 125.914062 C 79.074219 125.78125 78.972656 125.628906 78.902344 125.457031 C 78.828125 125.285156 78.792969 125.105469 78.792969 124.917969 C 78.792969 124.734375 78.828125 124.554688 78.902344 124.382812 C 78.972656 124.207031 79.074219 124.054688 79.207031 123.925781 C 79.335938 123.792969 79.488281 123.691406 79.664062 123.621094 C 79.835938 123.546875 80.015625 123.511719 80.199219 123.511719 Z M 30.402344 123.511719 L 67.007812 123.511719 C 67.195312 123.511719 67.375 123.546875 67.546875 123.621094 C 67.71875 123.691406 67.871094 123.792969 68.003906 123.925781 C 68.136719 124.054688 68.238281 124.207031 68.308594 124.382812 C 68.378906 124.554688 68.414062 124.734375 68.414062 124.917969 C 68.414062 125.105469 68.378906 125.285156 68.308594 125.457031 C 68.238281 125.628906 68.136719 125.78125 68.003906 125.914062 C 67.871094 126.046875 67.71875 126.148438 67.546875 126.21875 C 67.375 126.292969 67.195312 126.328125 67.007812 126.328125 L 30.417969 126.328125 C 30.230469 126.328125 30.050781 126.292969 29.878906 126.21875 C 29.707031 126.148438 29.554688 126.046875 29.421875 125.914062 C 29.289062 125.78125 29.1875 125.628906 29.117188 125.457031 C 29.046875 125.285156 29.011719 125.105469 29.011719 124.917969 C 29.011719 124.734375 29.046875 124.554688 29.117188 124.382812 C 29.1875 124.207031 29.289062 124.054688 29.421875 123.925781 C 29.554688 123.792969 29.707031 123.691406 29.878906 123.621094 C 30.050781 123.546875 30.230469 123.511719 30.417969 123.511719 Z M 30.402344 123.511719 "/><g clip-rule="nonzero" clip-path="url(#8cd5f3fe39)"><path style=" stroke:none;fill-rule:nonzero;fill:#ffa800;fill-opacity:1;" d="M 148.335938 94.660156 L 138 94.660156 L 138 134.542969 C 138 134.730469 137.964844 134.910156 137.894531 135.082031 C 137.820312 135.253906 137.71875 135.40625 137.585938 135.539062 C 137.457031 135.671875 137.304688 135.773438 137.132812 135.84375 C 136.957031 135.914062 136.777344 135.949219 136.59375 135.949219 L 13.898438 135.949219 C 13.710938 135.949219 13.53125 135.914062 13.359375 135.84375 C 13.1875 135.773438 13.035156 135.671875 12.902344 135.539062 C 12.769531 135.40625 12.667969 135.253906 12.597656 135.082031 C 12.527344 134.910156 12.492188 134.730469 12.492188 134.542969 L 12.492188 107.03125 C 12.492188 107.011719 12.492188 107 12.492188 106.980469 L 12.492188 92.71875 L 1.476562 92.71875 L 1.476562 149.578125 L 148.335938 149.578125 Z M 148.335938 94.660156 "/></g></g></svg>