<svg xmlns="http://www.w3.org/2000/svg" xmlns:xlink="http://www.w3.org/1999/xlink" width="200" zoomAndPan="magnify" viewBox="0 0 150 157.92" height="200" preserveAspectRatio="xMidYMid meet" version="1.2"><defs><clipPath id="dd8e52a03a"><path d="M 0.0820312 13 L 149.917969 13 L 149.917969 137.179688 L 0.0820312 137.179688 Z M 0.0820312 13 "/></clipPath></defs><g id="37f80a225a"><g clip-rule="nonzero" clip-path="url(#dd8e52a03a)"><path style=" stroke:none;fill-rule:evenodd;fill:#ffa800;fill-opacity:1;" d="M 86.65625 116.4375 L 89.726562 126.320312 C 89.863281 126.765625 89.71875 127.253906 89.359375 127.554688 C 86.210938 130.183594 82.785156 132.320312 79.1875 133.957031 C 78.761719 134.152344 78.261719 134.070312 77.917969 133.75 C 77.917969 133.75 70.34375 126.691406 70.34375 126.691406 C 66.433594 127.832031 62.363281 128.28125 58.324219 128.042969 L 52.511719 136.605469 C 52.246094 136.992188 51.777344 137.183594 51.320312 137.089844 C 47.414062 136.289062 43.59375 134.96875 39.972656 133.128906 C 39.554688 132.917969 39.304688 132.472656 39.339844 132.007812 C 39.339844 132.007812 40.136719 121.683594 40.136719 121.683594 C 38.507812 120.53125 36.949219 119.230469 35.492188 117.773438 C 34.035156 116.316406 32.734375 114.757812 31.582031 113.128906 L 21.257812 113.925781 C 20.792969 113.960938 20.347656 113.710938 20.136719 113.292969 C 18.296875 109.671875 16.976562 105.851562 16.175781 101.945312 C 16.082031 101.488281 16.269531 101.019531 16.660156 100.753906 C 16.660156 100.753906 25.222656 94.941406 25.222656 94.941406 C 24.984375 90.902344 25.433594 86.835938 26.574219 82.921875 L 19.515625 75.347656 C 19.195312 75.003906 19.113281 74.503906 19.308594 74.078125 C 20.945312 70.480469 23.082031 67.054688 25.710938 63.90625 C 26.011719 63.546875 26.5 63.402344 26.945312 63.539062 C 26.945312 63.539062 36.828125 66.613281 36.828125 66.613281 C 39.925781 63.820312 43.394531 61.671875 47.066406 60.171875 L 48.589844 49.9375 C 48.65625 49.472656 49 49.097656 49.453125 48.984375 C 53.367188 48.007812 57.386719 47.558594 61.398438 47.644531 C 61.867188 47.652344 62.28125 47.945312 62.453125 48.378906 C 62.453125 48.378906 66.214844 58.019531 66.214844 58.019531 C 70.171875 58.671875 74.039062 60.003906 77.632812 62.011719 L 86.582031 56.820312 C 86.988281 56.585938 87.496094 56.617188 87.867188 56.902344 C 89.441406 58.109375 90.957031 59.429688 92.398438 60.871094 C 93.835938 62.308594 95.15625 63.824219 96.363281 65.398438 C 96.648438 65.769531 96.679688 66.277344 96.445312 66.683594 C 96.445312 66.683594 91.253906 75.632812 91.253906 75.632812 C 93.261719 79.226562 94.59375 83.09375 95.246094 87.054688 L 104.886719 90.8125 C 105.320312 90.984375 105.613281 91.398438 105.621094 91.867188 C 105.707031 95.878906 105.257812 99.898438 104.28125 103.8125 C 104.167969 104.265625 103.792969 104.609375 103.328125 104.675781 C 103.328125 104.675781 93.09375 106.199219 93.09375 106.199219 C 91.59375 109.871094 89.445312 113.339844 86.65625 116.4375 Z M 45.105469 108.160156 C 53.574219 116.628906 67.304688 116.632812 75.777344 108.160156 C 84.246094 99.691406 84.246094 85.960938 75.777344 77.492188 C 67.304688 69.019531 53.574219 69.019531 45.105469 77.488281 C 36.632812 85.960938 36.636719 99.691406 45.105469 108.160156 Z M 122.480469 56.601562 C 120.519531 58.164062 118.3125 59.265625 116.003906 59.910156 L 112.648438 67.625 C 112.46875 68.039062 112.0625 68.3125 111.609375 68.320312 C 108.523438 68.386719 105.429688 67.910156 102.480469 66.886719 C 102.050781 66.738281 101.75 66.355469 101.707031 65.90625 C 101.707031 65.90625 100.894531 57.511719 100.894531 57.511719 C 99.898438 56.847656 98.949219 56.078125 98.066406 55.199219 C 97.1875 54.316406 96.417969 53.367188 95.757812 52.371094 L 87.359375 51.558594 C 86.910156 51.515625 86.527344 51.214844 86.378906 50.789062 C 85.355469 47.839844 84.878906 44.742188 84.945312 41.65625 C 84.953125 41.203125 85.226562 40.796875 85.640625 40.617188 C 85.640625 40.617188 93.355469 37.261719 93.355469 37.261719 C 94 34.953125 95.101562 32.746094 96.664062 30.785156 L 94.839844 22.558594 C 94.742188 22.117188 94.910156 21.65625 95.269531 21.382812 C 97.792969 19.464844 100.585938 18.058594 103.503906 17.179688 C 103.9375 17.050781 104.40625 17.183594 104.707031 17.523438 C 104.707031 17.523438 110.296875 23.839844 110.296875 23.839844 C 112.726562 23.738281 115.171875 24.113281 117.480469 24.972656 L 124.734375 20.699219 C 125.125 20.46875 125.613281 20.488281 125.984375 20.746094 C 127.234375 21.617188 128.429688 22.605469 129.546875 23.71875 C 130.660156 24.835938 131.648438 26.03125 132.519531 27.28125 C 132.777344 27.652344 132.796875 28.140625 132.566406 28.53125 C 132.566406 28.53125 128.292969 35.785156 128.292969 35.785156 C 129.152344 38.09375 129.527344 40.539062 129.425781 42.96875 L 135.742188 48.558594 C 136.082031 48.859375 136.214844 49.328125 136.085938 49.761719 C 135.207031 52.679688 133.804688 55.472656 131.882812 57.996094 C 131.609375 58.355469 131.148438 58.523438 130.707031 58.425781 Z M 106.347656 46.917969 C 108.953125 49.523438 113.179688 49.523438 115.78125 46.917969 C 118.386719 44.3125 118.386719 40.089844 115.78125 37.484375 C 113.175781 34.878906 108.953125 34.878906 106.347656 37.484375 C 103.742188 40.085938 103.742188 44.3125 106.347656 46.917969 Z M 68.726562 41.679688 C 53.132812 39.292969 36.648438 44.097656 24.652344 56.09375 C 4.640625 76.105469 4.640625 108.601562 24.652344 128.613281 C 26.453125 130.414062 26.453125 133.339844 24.652344 135.140625 C 22.851562 136.945312 19.925781 136.945312 18.125 135.140625 C -5.492188 111.527344 -5.492188 73.179688 18.125 49.566406 C 32.25 35.4375 51.648438 29.761719 70.007812 32.535156 L 70.203125 31.152344 C 70.261719 30.753906 70.523438 30.410156 70.894531 30.25 C 71.265625 30.089844 71.695312 30.136719 72.027344 30.371094 L 83.101562 38.300781 C 83.453125 38.550781 83.636719 38.976562 83.574219 39.40625 C 83.515625 39.832031 83.222656 40.191406 82.816406 40.335938 L 69.984375 44.90625 C 69.601562 45.042969 69.175781 44.96875 68.863281 44.710938 C 68.550781 44.457031 68.390625 44.054688 68.449219 43.652344 Z M 111.59375 81.769531 L 111.589844 83.320312 C 111.589844 83.726562 111.375 84.101562 111.03125 84.308594 C 110.683594 84.519531 110.25 84.53125 109.890625 84.34375 L 97.835938 78.003906 C 97.453125 77.804688 97.214844 77.40625 97.214844 76.976562 C 97.21875 76.542969 97.457031 76.148438 97.839844 75.949219 L 109.925781 69.667969 C 110.285156 69.480469 110.71875 69.496094 111.0625 69.707031 C 111.410156 69.917969 111.621094 70.292969 111.621094 70.699219 C 111.621094 70.699219 111.617188 72.535156 111.617188 72.535156 C 119.085938 72.351562 126.5 69.414062 132.195312 63.71875 C 143.964844 51.949219 143.964844 32.839844 132.195312 21.070312 C 130.394531 19.269531 130.394531 16.34375 132.195312 14.542969 C 133.996094 12.742188 136.921875 12.742188 138.722656 14.542969 C 154.09375 29.914062 154.09375 54.875 138.722656 70.246094 C 131.21875 77.75 121.433594 81.589844 111.59375 81.769531 Z M 111.59375 81.769531 "/></g></g></svg>