<svg xmlns="http://www.w3.org/2000/svg" xmlns:xlink="http://www.w3.org/1999/xlink" width="200" zoomAndPan="magnify" viewBox="0 0 150 157.92" height="200" preserveAspectRatio="xMidYMid meet" version="1.2"><defs><clipPath id="e334bf1ab6"><path d="M 5.894531 0 L 36 0 L 36 129 L 5.894531 129 Z M 5.894531 0 "/></clipPath><clipPath id="2d5a1c419e"><path d="M 40 120 L 143.824219 120 L 143.824219 134 L 40 134 Z M 40 120 "/></clipPath><clipPath id="5eebf5fa55"><path d="M 40 99 L 143.824219 99 L 143.824219 113 L 40 113 Z M 40 99 "/></clipPath><clipPath id="7fa1b57993"><path d="M 84 78 L 143.824219 78 L 143.824219 92 L 84 92 Z M 84 78 "/></clipPath></defs><g id="9a4ef1416d"><path style=" stroke:none;fill-rule:nonzero;fill:#ffa800;fill-opacity:1;" d="M 111.296875 45.4375 C 111.296875 27.964844 93.945312 7.804688 89.109375 2.9375 C 84.277344 7.804688 66.925781 27.964844 66.925781 45.4375 C 66.925781 57.691406 76.878906 67.660156 89.109375 67.660156 C 101.34375 67.660156 111.296875 57.691406 111.296875 45.4375 Z M 72.472656 45.4375 C 72.472656 40.492188 74.171875 34.695312 77.515625 28.207031 C 78.078125 27.117188 79.417969 26.691406 80.503906 27.253906 C 81.59375 27.8125 82.019531 29.152344 81.460938 30.238281 C 78.441406 36.09375 76.910156 41.210938 76.910156 45.4375 C 76.910156 52.1875 82.382812 57.679688 89.109375 57.679688 C 90.335938 57.679688 91.328125 58.671875 91.328125 59.898438 C 91.328125 61.121094 90.335938 62.117188 89.109375 62.117188 C 79.9375 62.117188 72.472656 54.632812 72.472656 45.4375 Z M 72.472656 45.4375 "/><g clip-rule="nonzero" clip-path="url(#e334bf1ab6)"><path style=" stroke:none;fill-rule:nonzero;fill:#ffa800;fill-opacity:1;" d="M 30.324219 122.011719 C 29.097656 122.011719 28.105469 121.019531 28.105469 119.792969 C 28.105469 118.570312 29.097656 117.574219 30.324219 117.574219 L 35.871094 117.574219 L 35.871094 110.921875 L 23.667969 110.921875 C 22.445312 110.921875 21.449219 109.925781 21.449219 108.703125 C 21.449219 107.476562 22.445312 106.484375 23.667969 106.484375 L 35.871094 106.484375 L 35.871094 99.828125 L 30.324219 99.828125 C 29.097656 99.828125 28.105469 98.835938 28.105469 97.609375 C 28.105469 96.386719 29.097656 95.390625 30.324219 95.390625 L 35.871094 95.390625 L 35.871094 88.734375 L 23.667969 88.734375 C 22.445312 88.734375 21.449219 87.742188 21.449219 86.519531 C 21.449219 85.292969 22.445312 84.300781 23.667969 84.300781 L 35.871094 84.300781 L 35.871094 77.644531 L 30.324219 77.644531 C 29.097656 77.644531 28.105469 76.648438 28.105469 75.425781 C 28.105469 74.203125 29.097656 73.207031 30.324219 73.207031 L 35.871094 73.207031 L 35.871094 66.550781 L 23.667969 66.550781 C 22.445312 66.550781 21.449219 65.558594 21.449219 64.332031 C 21.449219 63.109375 22.445312 62.117188 23.667969 62.117188 L 35.871094 62.117188 L 35.871094 55.460938 L 30.324219 55.460938 C 29.097656 55.460938 28.105469 54.464844 28.105469 53.242188 C 28.105469 52.015625 29.097656 51.023438 30.324219 51.023438 L 35.871094 51.023438 L 35.871094 44.367188 L 23.667969 44.367188 C 22.445312 44.367188 21.449219 43.375 21.449219 42.148438 C 21.449219 40.925781 22.445312 39.929688 23.667969 39.929688 L 35.871094 39.929688 L 35.871094 33.277344 L 30.324219 33.277344 C 29.097656 33.277344 28.105469 32.28125 28.105469 31.058594 C 28.105469 29.832031 29.097656 28.839844 30.324219 28.839844 L 35.871094 28.839844 L 35.871094 22.183594 L 23.667969 22.183594 C 22.445312 22.183594 21.449219 21.191406 21.449219 19.964844 C 21.449219 18.742188 22.445312 17.746094 23.667969 17.746094 L 35.871094 17.746094 L 35.871094 11.09375 L 30.324219 11.09375 C 29.097656 11.09375 28.105469 10.097656 28.105469 8.875 C 28.105469 7.648438 29.097656 6.65625 30.324219 6.65625 L 35.871094 6.65625 L 35.871094 0 L 5.921875 0 L 5.921875 128.667969 L 35.871094 128.667969 L 35.871094 122.011719 Z M 30.324219 122.011719 "/></g><g clip-rule="nonzero" clip-path="url(#2d5a1c419e)"><path style=" stroke:none;fill-rule:nonzero;fill:#ffa800;fill-opacity:1;" d="M 45.105469 128.601562 C 48.1875 131.605469 52.324219 133.105469 56.46875 133.105469 C 60.613281 133.105469 64.765625 131.597656 67.855469 128.585938 C 72.261719 124.292969 79.988281 124.292969 84.410156 128.601562 C 90.574219 134.605469 100.984375 134.605469 107.15625 128.589844 C 111.5625 124.292969 119.292969 124.292969 123.699219 128.59375 C 128.386719 133.164062 135.988281 134.324219 142.1875 131.414062 C 143.296875 130.894531 143.773438 129.570312 143.25 128.464844 C 142.730469 127.355469 141.410156 126.878906 140.300781 127.398438 C 135.742188 129.539062 130.1875 128.722656 126.796875 125.414062 C 120.632812 119.40625 110.21875 119.40625 104.050781 125.421875 C 99.644531 129.71875 91.914062 129.71875 87.492188 125.410156 C 81.332031 119.402344 70.917969 119.402344 64.746094 125.421875 C 60.339844 129.71875 52.609375 129.71875 48.179688 125.402344 C 46.046875 123.324219 43.300781 121.90625 40.304688 121.277344 L 40.304688 125.84375 C 42.125 126.375 43.777344 127.308594 45.105469 128.601562 Z M 45.105469 128.601562 "/></g><g clip-rule="nonzero" clip-path="url(#5eebf5fa55)"><path style=" stroke:none;fill-rule:nonzero;fill:#ffa800;fill-opacity:1;" d="M 45.105469 107.527344 C 51.269531 113.535156 61.679688 113.53125 67.855469 107.511719 C 72.261719 103.21875 79.988281 103.21875 84.410156 107.523438 C 90.574219 113.53125 100.984375 113.53125 107.15625 107.515625 C 111.5625 103.21875 119.292969 103.21875 123.699219 107.515625 C 126.828125 110.570312 131.117188 112.195312 135.390625 112.195312 C 137.722656 112.195312 140.050781 111.710938 142.1875 110.710938 C 143.296875 110.1875 143.773438 108.867188 143.25 107.757812 C 142.730469 106.648438 141.410156 106.171875 140.300781 106.691406 C 135.890625 108.761719 130.339844 107.796875 126.796875 104.339844 C 120.632812 98.332031 110.21875 98.328125 104.050781 104.347656 C 99.644531 108.640625 91.914062 108.640625 87.492188 104.332031 C 81.332031 98.328125 70.917969 98.328125 64.746094 104.347656 C 60.339844 108.644531 52.609375 108.644531 48.179688 104.328125 C 46.046875 102.25 43.300781 100.832031 40.304688 100.203125 L 40.304688 104.769531 C 42.125 105.300781 43.777344 106.234375 45.105469 107.527344 Z M 45.105469 107.527344 "/></g><g clip-rule="nonzero" clip-path="url(#7fa1b57993)"><path style=" stroke:none;fill-rule:nonzero;fill:#ffa800;fill-opacity:1;" d="M 140.300781 85.617188 C 135.890625 87.6875 130.339844 86.722656 126.796875 83.265625 C 120.632812 77.257812 110.21875 77.253906 104.050781 83.269531 C 99.644531 87.566406 91.914062 87.566406 87.5 83.265625 L 84.410156 86.449219 C 90.570312 92.457031 100.984375 92.457031 107.152344 86.441406 C 111.558594 82.144531 119.292969 82.144531 123.699219 86.441406 C 126.828125 89.492188 131.113281 91.121094 135.386719 91.121094 C 137.722656 91.121094 140.050781 90.636719 142.183594 89.632812 C 143.292969 89.113281 143.769531 87.792969 143.25 86.683594 C 142.730469 85.574219 141.410156 85.097656 140.300781 85.617188 Z M 140.300781 85.617188 "/></g><path style=" stroke:none;fill-rule:nonzero;fill:#ffa800;fill-opacity:1;" d="M 60.175781 74.410156 C 59.308594 73.542969 57.90625 73.542969 57.039062 74.410156 L 46.503906 84.949219 C 45.636719 85.816406 45.636719 87.21875 46.503906 88.085938 L 57.039062 98.621094 C 57.472656 99.054688 58.039062 99.273438 58.609375 99.273438 C 59.175781 99.273438 59.742188 99.054688 60.175781 98.621094 C 61.042969 97.757812 61.042969 96.351562 60.175781 95.484375 L 53.425781 88.734375 L 75.800781 88.734375 C 77.023438 88.734375 78.019531 87.742188 78.019531 86.519531 C 78.019531 85.292969 77.023438 84.300781 75.800781 84.300781 L 53.425781 84.300781 L 60.175781 77.546875 C 61.042969 76.679688 61.042969 75.277344 60.175781 74.410156 Z M 60.175781 74.410156 "/></g></svg>