<svg xmlns="http://www.w3.org/2000/svg" xmlns:xlink="http://www.w3.org/1999/xlink" width="200" zoomAndPan="magnify" viewBox="0 0 150 157.92" height="200" preserveAspectRatio="xMidYMid meet" version="1.2"><defs><clipPath id="5970f156ed"><path d="M 35 145 L 115 145 L 115 149.925781 L 35 149.925781 Z M 35 145 "/></clipPath><clipPath id="cb06f7eef4"><path d="M 0.0390625 72 L 10 72 L 10 78 L 0.0390625 78 Z M 0.0390625 72 "/></clipPath><clipPath id="f7af9c14a5"><path d="M 140 72 L 149.960938 72 L 149.960938 78 L 140 78 Z M 140 72 "/></clipPath><clipPath id="72eb24dd1a"><path d="M 67 128 L 83 128 L 83 149.925781 L 67 149.925781 Z M 67 128 "/></clipPath></defs><g id="16c6c5de31"><g clip-rule="nonzero" clip-path="url(#5970f156ed)"><path style=" stroke:none;fill-rule:evenodd;fill:#ffa800;fill-opacity:1;" d="M 111.894531 149.921875 L 38.101562 149.921875 C 36.808594 149.921875 35.761719 148.875 35.761719 147.582031 C 35.761719 146.285156 36.808594 145.238281 38.101562 145.238281 L 111.894531 145.238281 C 113.1875 145.238281 114.234375 146.285156 114.234375 147.582031 C 114.234375 148.875 113.1875 149.921875 111.894531 149.921875 Z M 111.894531 149.921875 "/></g><g clip-rule="nonzero" clip-path="url(#cb06f7eef4)"><path style=" stroke:none;fill-rule:evenodd;fill:#ffa800;fill-opacity:1;" d="M 7.21875 77.304688 L 2.378906 77.304688 C 1.085938 77.304688 0.0351562 76.253906 0.0351562 74.960938 C 0.0351562 73.667969 1.085938 72.617188 2.378906 72.617188 L 7.21875 72.617188 C 8.515625 72.617188 9.5625 73.667969 9.5625 74.960938 C 9.5625 76.253906 8.515625 77.304688 7.21875 77.304688 Z M 7.21875 77.304688 "/></g><path style=" stroke:none;fill-rule:evenodd;fill:#ffa800;fill-opacity:1;" d="M 123.410156 77.304688 L 118.570312 77.304688 C 117.277344 77.304688 116.226562 76.253906 116.226562 74.960938 C 116.226562 73.667969 117.277344 72.617188 118.570312 72.617188 L 123.410156 72.617188 C 124.707031 72.617188 125.753906 73.667969 125.753906 74.960938 C 125.753906 76.253906 124.707031 77.304688 123.410156 77.304688 Z M 123.410156 77.304688 "/><path style=" stroke:none;fill-rule:evenodd;fill:#ffa800;fill-opacity:1;" d="M 31.425781 77.304688 L 26.585938 77.304688 C 25.292969 77.304688 24.242188 76.253906 24.242188 74.960938 C 24.242188 73.667969 25.292969 72.617188 26.585938 72.617188 L 31.425781 72.617188 C 32.722656 72.617188 33.769531 73.667969 33.769531 74.960938 C 33.769531 76.253906 32.722656 77.304688 31.425781 77.304688 Z M 31.425781 77.304688 "/><g clip-rule="nonzero" clip-path="url(#f7af9c14a5)"><path style=" stroke:none;fill-rule:evenodd;fill:#ffa800;fill-opacity:1;" d="M 147.617188 77.304688 L 142.777344 77.304688 C 141.484375 77.304688 140.433594 76.253906 140.433594 74.960938 C 140.433594 73.667969 141.484375 72.617188 142.777344 72.617188 L 147.617188 72.617188 C 148.910156 72.617188 149.960938 73.667969 149.960938 74.960938 C 149.960938 76.253906 148.910156 77.304688 147.617188 77.304688 Z M 147.617188 77.304688 "/></g><path style=" stroke:none;fill-rule:evenodd;fill:#ffa800;fill-opacity:1;" d="M 16.296875 43.414062 C 15.902344 43.414062 15.5 43.3125 15.128906 43.101562 L 10.9375 40.679688 C 9.816406 40.03125 9.433594 38.601562 10.078125 37.480469 C 10.726562 36.359375 12.160156 35.976562 13.277344 36.621094 L 17.472656 39.042969 C 18.589844 39.691406 18.976562 41.121094 18.328125 42.242188 C 17.894531 42.996094 17.109375 43.414062 16.296875 43.414062 Z M 16.296875 43.414062 "/><path style=" stroke:none;fill-rule:evenodd;fill:#ffa800;fill-opacity:1;" d="M 37.261719 55.519531 C 36.867188 55.519531 36.464844 55.417969 36.09375 55.203125 L 31.898438 52.78125 C 30.78125 52.136719 30.394531 50.703125 31.042969 49.582031 C 31.6875 48.460938 33.121094 48.078125 34.242188 48.726562 L 38.4375 51.144531 C 39.558594 51.792969 39.941406 53.226562 39.292969 54.347656 C 38.859375 55.097656 38.074219 55.519531 37.261719 55.519531 Z M 37.261719 55.519531 "/><path style=" stroke:none;fill-rule:evenodd;fill:#ffa800;fill-opacity:1;" d="M 41.113281 29.734375 C 40.300781 29.734375 39.515625 29.3125 39.082031 28.5625 L 36.660156 24.367188 C 36.011719 23.25 36.398438 21.816406 37.519531 21.167969 C 38.636719 20.523438 40.070312 20.90625 40.71875 22.027344 L 43.136719 26.21875 C 43.785156 27.339844 43.402344 28.773438 42.28125 29.417969 C 41.910156 29.632812 41.507812 29.734375 41.113281 29.734375 Z M 41.113281 29.734375 "/><path style=" stroke:none;fill-rule:evenodd;fill:#ffa800;fill-opacity:1;" d="M 65.316406 71.660156 C 64.507812 71.660156 63.722656 71.238281 63.285156 70.488281 L 60.867188 66.296875 C 60.21875 65.175781 60.601562 63.742188 61.722656 63.09375 C 62.84375 62.449219 64.277344 62.832031 64.925781 63.953125 L 67.34375 68.144531 C 67.992188 69.265625 67.609375 70.699219 66.488281 71.347656 C 66.117188 71.558594 65.714844 71.660156 65.316406 71.660156 Z M 65.316406 71.660156 "/><path style=" stroke:none;fill-rule:evenodd;fill:#ffa800;fill-opacity:1;" d="M 53.214844 50.695312 C 52.40625 50.695312 51.617188 50.277344 51.183594 49.523438 L 48.761719 45.332031 C 48.117188 44.210938 48.5 42.78125 49.621094 42.132812 C 50.742188 41.484375 52.171875 41.871094 52.820312 42.988281 L 55.242188 47.183594 C 55.886719 48.300781 55.503906 49.734375 54.382812 50.382812 C 54.015625 50.59375 53.613281 50.695312 53.214844 50.695312 Z M 53.214844 50.695312 "/><path style=" stroke:none;fill-rule:evenodd;fill:#ffa800;fill-opacity:1;" d="M 75 9.523438 C 73.703125 9.523438 72.65625 8.476562 72.65625 7.183594 L 72.65625 2.339844 C 72.65625 1.046875 73.703125 0 75 0 C 76.292969 0 77.339844 1.046875 77.339844 2.339844 L 77.339844 7.183594 C 77.339844 8.476562 76.292969 9.523438 75 9.523438 Z M 75 9.523438 "/><path style=" stroke:none;fill-rule:evenodd;fill:#ffa800;fill-opacity:1;" d="M 75 33.730469 C 73.703125 33.730469 72.65625 32.683594 72.65625 31.390625 L 72.65625 26.546875 C 72.65625 25.253906 73.703125 24.207031 75 24.207031 C 76.292969 24.207031 77.339844 25.253906 77.339844 26.546875 L 77.339844 31.390625 C 77.339844 32.683594 76.292969 33.730469 75 33.730469 Z M 75 33.730469 "/><path style=" stroke:none;fill-rule:evenodd;fill:#ffa800;fill-opacity:1;" d="M 108.886719 29.734375 C 108.488281 29.734375 108.085938 29.632812 107.714844 29.417969 C 106.597656 28.773438 106.210938 27.339844 106.859375 26.21875 L 109.28125 22.027344 C 109.925781 20.90625 111.359375 20.523438 112.480469 21.167969 C 113.601562 21.816406 113.984375 23.25 113.335938 24.367188 L 110.917969 28.5625 C 110.480469 29.3125 109.695312 29.734375 108.886719 29.734375 Z M 108.886719 29.734375 "/><path style=" stroke:none;fill-rule:evenodd;fill:#ffa800;fill-opacity:1;" d="M 84.679688 71.660156 C 84.28125 71.660156 83.878906 71.558594 83.511719 71.347656 C 82.390625 70.699219 82.003906 69.265625 82.652344 68.144531 L 85.074219 63.953125 C 85.71875 62.832031 87.152344 62.449219 88.273438 63.09375 C 89.394531 63.742188 89.777344 65.175781 89.128906 66.296875 L 86.710938 70.488281 C 86.277344 71.238281 85.488281 71.660156 84.679688 71.660156 Z M 84.679688 71.660156 "/><path style=" stroke:none;fill-rule:evenodd;fill:#ffa800;fill-opacity:1;" d="M 96.78125 50.695312 C 96.386719 50.695312 95.980469 50.59375 95.613281 50.382812 C 94.492188 49.734375 94.109375 48.300781 94.757812 47.183594 L 97.175781 42.988281 C 97.824219 41.867188 99.257812 41.484375 100.375 42.132812 C 101.496094 42.78125 101.882812 44.210938 101.234375 45.332031 L 98.8125 49.523438 C 98.378906 50.277344 97.59375 50.695312 96.78125 50.695312 Z M 96.78125 50.695312 "/><path style=" stroke:none;fill-rule:evenodd;fill:#ffa800;fill-opacity:1;" d="M 133.699219 43.414062 C 132.890625 43.414062 132.101562 42.996094 131.667969 42.242188 C 131.023438 41.121094 131.40625 39.691406 132.527344 39.042969 L 136.71875 36.621094 C 137.839844 35.976562 139.273438 36.359375 139.917969 37.480469 C 140.566406 38.601562 140.179688 40.03125 139.0625 40.679688 L 134.867188 43.101562 C 134.5 43.3125 134.097656 43.414062 133.699219 43.414062 Z M 133.699219 43.414062 "/><path style=" stroke:none;fill-rule:evenodd;fill:#ffa800;fill-opacity:1;" d="M 112.734375 55.519531 C 111.925781 55.519531 111.136719 55.097656 110.703125 54.347656 C 110.054688 53.226562 110.441406 51.792969 111.558594 51.144531 L 115.753906 48.726562 C 116.875 48.078125 118.308594 48.460938 118.957031 49.582031 C 119.601562 50.703125 119.21875 52.136719 118.097656 52.78125 L 113.902344 55.203125 C 113.535156 55.417969 113.132812 55.519531 112.734375 55.519531 Z M 112.734375 55.519531 "/><path style=" stroke:none;fill-rule:evenodd;fill:#ffa800;fill-opacity:1;" d="M 89.523438 103.695312 L 60.472656 103.695312 C 59.585938 103.695312 58.777344 103.195312 58.378906 102.402344 L 48.695312 83.035156 C 48.332031 82.308594 48.371094 81.449219 48.800781 80.757812 C 49.226562 80.066406 49.980469 79.644531 50.792969 79.644531 L 99.203125 79.644531 C 100.015625 79.644531 100.769531 80.066406 101.199219 80.757812 C 101.625 81.449219 101.664062 82.308594 101.300781 83.035156 L 91.617188 102.402344 C 91.222656 103.195312 90.410156 103.695312 89.523438 103.695312 Z M 89.523438 103.695312 "/><g clip-rule="nonzero" clip-path="url(#72eb24dd1a)"><path style=" stroke:none;fill-rule:evenodd;fill:#ffa800;fill-opacity:1;" d="M 80.269531 149.921875 L 69.726562 149.921875 C 68.433594 149.921875 67.386719 148.875 67.386719 147.582031 L 67.386719 128.09375 L 82.613281 128.09375 L 82.613281 147.582031 C 82.613281 148.875 81.5625 149.921875 80.269531 149.921875 Z M 80.269531 149.921875 "/></g><path style=" stroke:none;fill-rule:evenodd;fill:#ffa800;fill-opacity:1;" d="M 89.523438 123.0625 L 60.476562 123.0625 C 59.179688 123.0625 58.132812 122.011719 58.132812 120.71875 L 58.132812 108.347656 C 58.875 108.597656 59.664062 108.730469 60.476562 108.730469 L 89.523438 108.730469 C 90.332031 108.730469 91.121094 108.597656 91.867188 108.347656 L 91.867188 120.71875 C 91.867188 122.011719 90.816406 123.0625 89.523438 123.0625 Z M 89.523438 123.0625 "/><path style=" stroke:none;fill-rule:evenodd;fill:#ffa800;fill-opacity:1;" d="M 56.84375 74.613281 L 56.84375 72.617188 C 56.84375 71.324219 57.894531 70.277344 59.1875 70.277344 L 91.980469 70.277344 C 93.277344 70.277344 94.324219 71.324219 94.324219 72.617188 L 94.324219 74.613281 Z M 56.84375 74.613281 "/></g></svg>