<svg xmlns="http://www.w3.org/2000/svg" xmlns:xlink="http://www.w3.org/1999/xlink" width="200" zoomAndPan="magnify" viewBox="0 0 150 157.92" height="200" preserveAspectRatio="xMidYMid meet" version="1.2"><defs><clipPath id="3844aecc64"><path d="M 0.0390625 65 L 149.960938 65 L 149.960938 113 L 0.0390625 113 Z M 0.0390625 65 "/></clipPath></defs><g id="bc5752ef4b"><g clip-rule="nonzero" clip-path="url(#3844aecc64)"><path style=" stroke:none;fill-rule:nonzero;fill:#ffa800;fill-opacity:1;" d="M 148.691406 103.886719 L 139.585938 103.886719 L 139.585938 90.839844 C 139.585938 85.144531 136.160156 80.058594 130.996094 77.8125 L 131.578125 73.230469 L 137.601562 73.230469 C 139.773438 73.230469 141.546875 71.457031 141.546875 69.28125 C 141.546875 67.109375 139.773438 65.332031 137.601562 65.332031 L 113.050781 65.332031 C 110.871094 65.332031 109.101562 67.105469 109.101562 69.28125 C 109.101562 71.460938 110.871094 73.230469 113.050781 73.230469 L 119.070312 73.230469 L 119.65625 77.8125 C 114.488281 80.058594 111.0625 85.144531 111.0625 90.839844 L 111.0625 103.886719 L 89.257812 103.886719 L 89.257812 90.839844 C 89.257812 85.144531 85.832031 80.058594 80.667969 77.8125 L 81.25 73.230469 L 87.269531 73.230469 C 89.445312 73.230469 91.21875 71.457031 91.21875 69.28125 C 91.21875 67.109375 89.445312 65.332031 87.269531 65.332031 L 62.722656 65.332031 C 60.546875 65.332031 58.773438 67.105469 58.773438 69.28125 C 58.773438 71.460938 60.546875 73.230469 62.722656 73.230469 L 68.742188 73.230469 L 69.324219 77.8125 C 64.160156 80.058594 60.734375 85.144531 60.734375 90.839844 L 60.734375 103.886719 L 38.929688 103.886719 L 38.929688 90.839844 C 38.929688 85.144531 35.503906 80.058594 30.335938 77.8125 L 30.921875 73.230469 L 36.941406 73.230469 C 39.121094 73.230469 40.890625 71.457031 40.890625 69.28125 C 40.890625 67.109375 39.121094 65.332031 36.941406 65.332031 L 12.398438 65.332031 C 10.226562 65.332031 8.453125 67.105469 8.453125 69.28125 C 8.453125 71.460938 10.226562 73.230469 12.398438 73.230469 L 18.421875 73.230469 L 19.003906 77.8125 C 13.839844 80.058594 10.414062 85.144531 10.414062 90.839844 L 10.414062 103.886719 L 1.308594 103.886719 C 0.605469 103.886719 0.0390625 104.457031 0.0390625 105.15625 L 0.0390625 111.347656 C 0.0390625 112.050781 0.605469 112.617188 1.308594 112.617188 L 148.691406 112.617188 C 149.394531 112.617188 149.960938 112.050781 149.960938 111.347656 L 149.960938 105.15625 C 149.960938 104.457031 149.394531 103.886719 148.691406 103.886719 Z M 137.046875 90.839844 L 137.046875 103.890625 L 134.707031 103.890625 L 134.707031 90.839844 C 134.707031 87.59375 133.054688 84.640625 130.34375 82.9375 L 130.34375 82.929688 C 130.34375 82.929688 130.664062 80.421875 130.664062 80.421875 C 134.535156 82.398438 137.046875 86.410156 137.046875 90.839844 Z M 127.710938 83.457031 L 127.292969 86.738281 L 123.359375 86.738281 L 122.941406 83.457031 C 122.941406 83.457031 122.933594 83.402344 122.933594 83.402344 L 121.632812 73.230469 L 129.019531 73.230469 L 127.769531 83.015625 L 127.714844 83.457031 Z M 122.238281 89.28125 L 128.410156 89.28125 C 129.050781 89.28125 129.589844 88.804688 129.671875 88.171875 L 129.96875 85.832031 C 131.355469 87.101562 132.164062 88.898438 132.164062 90.839844 L 132.164062 103.886719 L 118.484375 103.886719 L 118.484375 90.839844 C 118.484375 88.898438 119.292969 87.101562 120.679688 85.832031 L 120.976562 88.167969 C 121.058594 88.804688 121.597656 89.277344 122.234375 89.277344 Z M 113.054688 70.6875 C 112.277344 70.6875 111.644531 70.058594 111.644531 69.28125 C 111.644531 68.507812 112.277344 67.875 113.054688 67.875 L 137.601562 67.875 C 138.378906 67.875 139.007812 68.507812 139.007812 69.28125 C 139.007812 70.058594 138.378906 70.6875 137.601562 70.6875 Z M 113.605469 90.839844 C 113.605469 86.410156 116.113281 82.398438 119.988281 80.421875 L 120.308594 82.933594 C 117.597656 84.640625 115.945312 87.59375 115.945312 90.839844 L 115.945312 103.886719 L 113.605469 103.886719 Z M 86.71875 90.839844 L 86.71875 103.890625 L 84.382812 103.890625 L 84.382812 90.839844 C 84.382812 87.597656 82.730469 84.644531 80.015625 82.9375 L 80.015625 82.929688 C 80.015625 82.929688 80.339844 80.421875 80.339844 80.421875 C 84.207031 82.398438 86.71875 86.410156 86.71875 90.839844 Z M 77.386719 83.457031 L 76.964844 86.738281 L 73.03125 86.738281 L 72.613281 83.457031 L 72.558594 83.015625 L 71.308594 73.230469 L 78.695312 73.230469 L 77.445312 83.015625 Z M 71.914062 89.28125 L 78.085938 89.28125 C 78.726562 89.28125 79.265625 88.804688 79.347656 88.171875 L 79.644531 85.835938 C 81.03125 87.105469 81.839844 88.898438 81.839844 90.839844 L 81.839844 103.890625 L 68.160156 103.890625 L 68.160156 90.839844 C 68.160156 88.902344 68.96875 87.105469 70.355469 85.835938 L 70.652344 88.171875 C 70.734375 88.804688 71.273438 89.28125 71.914062 89.28125 Z M 62.722656 70.6875 C 61.949219 70.6875 61.320312 70.058594 61.320312 69.28125 C 61.320312 68.507812 61.949219 67.875 62.722656 67.875 L 87.273438 67.875 C 88.046875 67.875 88.679688 68.507812 88.679688 69.28125 C 88.679688 70.058594 88.046875 70.6875 87.273438 70.6875 Z M 63.28125 90.839844 C 63.28125 86.410156 65.789062 82.398438 69.660156 80.421875 L 69.984375 82.929688 L 69.984375 82.9375 C 67.269531 84.644531 65.617188 87.597656 65.617188 90.839844 L 65.617188 103.890625 L 63.28125 103.890625 Z M 36.394531 90.839844 L 36.394531 103.890625 L 34.054688 103.890625 L 34.054688 90.839844 C 34.054688 87.597656 32.402344 84.644531 29.691406 82.9375 L 30.011719 80.421875 C 33.882812 82.402344 36.394531 86.414062 36.394531 90.84375 Z M 22.230469 83.015625 L 20.980469 73.230469 L 28.367188 73.230469 L 27.070312 83.402344 L 27.0625 83.457031 C 27.0625 83.457031 26.644531 86.738281 26.644531 86.738281 L 22.710938 86.738281 L 22.289062 83.457031 L 22.234375 83.015625 Z M 21.589844 89.28125 L 27.761719 89.28125 C 28.398438 89.28125 28.941406 88.804688 29.023438 88.171875 L 29.320312 85.835938 C 30.703125 87.105469 31.515625 88.898438 31.515625 90.839844 L 31.515625 103.890625 L 17.832031 103.890625 L 17.832031 90.839844 C 17.832031 88.902344 18.644531 87.105469 20.027344 85.835938 L 20.324219 88.171875 C 20.40625 88.808594 20.949219 89.285156 21.585938 89.285156 Z M 12.398438 70.6875 C 11.625 70.6875 10.996094 70.058594 10.996094 69.28125 C 10.996094 68.507812 11.625 67.875 12.398438 67.875 L 36.949219 67.875 C 37.726562 67.875 38.359375 68.507812 38.359375 69.28125 C 38.359375 70.058594 37.726562 70.6875 36.949219 70.6875 Z M 12.953125 90.839844 C 12.953125 86.410156 15.460938 82.398438 19.335938 80.421875 L 19.65625 82.929688 L 19.65625 82.9375 C 16.945312 84.640625 15.292969 87.59375 15.292969 90.839844 L 15.292969 103.890625 L 12.953125 103.890625 Z M 147.421875 110.078125 L 2.578125 110.078125 L 2.578125 106.429688 L 147.421875 106.429688 Z M 147.421875 110.078125 "/></g><path style=" stroke:none;fill-rule:nonzero;fill:#ffa800;fill-opacity:1;" d="M 75 57.148438 C 75.507812 57.148438 75.941406 56.871094 76.167969 56.410156 C 76.957031 54.683594 80.871094 45.867188 80.871094 43.171875 C 80.871094 39.945312 78.253906 37.304688 75 37.304688 C 71.746094 37.304688 69.128906 39.945312 69.128906 43.171875 C 69.128906 45.867188 73.042969 54.683594 73.832031 56.410156 C 74.058594 56.871094 74.492188 57.148438 75 57.148438 Z M 75 57.148438 "/><path style=" stroke:none;fill-rule:nonzero;fill:#ffa800;fill-opacity:1;" d="M 59.601562 54.632812 C 61.914062 56.464844 64.277344 58.140625 65.0625 58.671875 C 65.269531 58.824219 65.523438 58.902344 65.777344 58.902344 C 66.003906 58.902344 66.234375 58.851562 66.4375 58.722656 C 66.867188 58.46875 67.097656 58.011719 67.046875 57.503906 C 66.84375 55.597656 65.800781 46.019531 64.429688 43.707031 C 63.640625 42.359375 62.371094 41.394531 60.847656 40.988281 C 59.320312 40.582031 57.746094 40.808594 56.398438 41.597656 C 53.605469 43.25 52.664062 46.859375 54.289062 49.652344 C 54.976562 50.820312 57.261719 52.804688 59.601562 54.632812 Z M 59.601562 54.632812 "/><path style=" stroke:none;fill-rule:nonzero;fill:#ffa800;fill-opacity:1;" d="M 84.9375 58.671875 C 86.511719 57.582031 94.363281 51.964844 95.710938 49.652344 C 96.242188 48.710938 96.496094 47.695312 96.496094 46.707031 C 96.496094 44.671875 95.457031 42.691406 93.601562 41.597656 C 92.253906 40.808594 90.679688 40.582031 89.152344 40.988281 C 87.628906 41.394531 86.359375 42.359375 85.570312 43.707031 C 84.199219 46.019531 83.15625 55.597656 82.953125 57.503906 C 82.902344 58.011719 83.132812 58.46875 83.5625 58.722656 C 83.765625 58.851562 83.996094 58.902344 84.222656 58.902344 C 84.476562 58.902344 84.730469 58.824219 84.9375 58.671875 Z M 84.9375 58.671875 "/><path style=" stroke:none;fill-rule:nonzero;fill:#ffa800;fill-opacity:1;" d="M 24.6875 57.148438 C 25.167969 57.148438 25.625 56.871094 25.828125 56.410156 C 26.617188 54.683594 30.554688 45.867188 30.554688 43.171875 C 30.554688 39.945312 27.914062 37.304688 24.6875 37.304688 C 21.433594 37.304688 18.792969 39.945312 18.792969 43.171875 C 18.792969 45.867188 22.730469 54.683594 23.519531 56.410156 C 23.722656 56.871094 24.179688 57.148438 24.6875 57.148438 Z M 24.6875 57.148438 "/><path style=" stroke:none;fill-rule:nonzero;fill:#ffa800;fill-opacity:1;" d="M 9.289062 54.632812 C 11.601562 56.464844 13.964844 58.140625 14.726562 58.671875 C 14.953125 58.824219 15.207031 58.902344 15.460938 58.902344 C 15.691406 58.902344 15.894531 58.851562 16.097656 58.722656 C 16.53125 58.46875 16.785156 58.011719 16.734375 57.503906 C 16.53125 55.597656 15.460938 46.019531 14.117188 43.707031 C 13.328125 42.359375 12.058594 41.394531 10.53125 40.988281 C 9.007812 40.582031 7.433594 40.808594 6.058594 41.597656 C 3.265625 43.25 2.324219 46.859375 3.976562 49.652344 C 4.664062 50.820312 6.949219 52.804688 9.289062 54.632812 Z M 9.289062 54.632812 "/><path style=" stroke:none;fill-rule:nonzero;fill:#ffa800;fill-opacity:1;" d="M 34.621094 58.671875 C 36.171875 57.582031 44.023438 51.964844 45.371094 49.652344 C 47.023438 46.859375 46.082031 43.25 43.289062 41.597656 C 40.492188 39.972656 36.882812 40.910156 35.230469 43.707031 C 33.886719 46.019531 32.816406 55.597656 32.613281 57.503906 C 32.5625 58.011719 32.816406 58.46875 33.25 58.722656 C 33.453125 58.851562 33.65625 58.902344 33.886719 58.902344 C 34.140625 58.902344 34.394531 58.824219 34.621094 58.671875 Z M 34.621094 58.671875 "/><path style=" stroke:none;fill-rule:nonzero;fill:#ffa800;fill-opacity:1;" d="M 115.378906 58.671875 C 115.605469 58.824219 115.859375 58.902344 116.113281 58.902344 C 116.34375 58.902344 116.546875 58.851562 116.75 58.722656 C 117.183594 58.46875 117.4375 58.011719 117.386719 57.503906 C 117.183594 55.597656 116.113281 46.019531 114.769531 43.707031 C 113.117188 40.910156 109.507812 39.972656 106.710938 41.597656 C 103.917969 43.25 102.976562 46.859375 104.628906 49.652344 C 105.976562 51.964844 113.828125 57.582031 115.378906 58.671875 Z M 115.378906 58.671875 "/><path style=" stroke:none;fill-rule:nonzero;fill:#ffa800;fill-opacity:1;" d="M 125.3125 57.148438 C 125.820312 57.148438 126.277344 56.871094 126.480469 56.410156 C 127.269531 54.683594 131.207031 45.867188 131.207031 43.171875 C 131.207031 39.945312 128.566406 37.304688 125.3125 37.304688 C 122.085938 37.304688 119.445312 39.945312 119.445312 43.171875 C 119.445312 45.867188 123.382812 54.683594 124.171875 56.410156 C 124.375 56.871094 124.832031 57.148438 125.3125 57.148438 Z M 125.3125 57.148438 "/><path style=" stroke:none;fill-rule:nonzero;fill:#ffa800;fill-opacity:1;" d="M 135.273438 58.671875 C 136.824219 57.582031 144.675781 51.964844 146.023438 49.652344 C 146.582031 48.710938 146.835938 47.695312 146.835938 46.679688 C 146.835938 44.671875 145.792969 42.691406 143.941406 41.597656 C 142.566406 40.808594 140.992188 40.582031 139.46875 40.988281 C 137.941406 41.394531 136.671875 42.359375 135.882812 43.707031 C 134.539062 46.019531 133.46875 55.597656 133.265625 57.503906 C 133.214844 58.011719 133.46875 58.46875 133.902344 58.722656 C 134.105469 58.851562 134.308594 58.902344 134.539062 58.902344 C 134.792969 58.902344 135.046875 58.824219 135.273438 58.671875 Z M 135.273438 58.671875 "/></g></svg>