<svg xmlns="http://www.w3.org/2000/svg" xmlns:xlink="http://www.w3.org/1999/xlink" width="200" zoomAndPan="magnify" viewBox="0 0 150 157.92" height="200" preserveAspectRatio="xMidYMid meet" version="1.2"><defs><clipPath id="15ffdbee09"><path d="M 0.0390625 10.027344 L 149.960938 10.027344 L 149.960938 139.710938 L 0.0390625 139.710938 Z M 0.0390625 10.027344 "/></clipPath></defs><g id="57303ba296"><g clip-rule="nonzero" clip-path="url(#15ffdbee09)"><path style=" stroke:none;fill-rule:nonzero;fill:#ffa800;fill-opacity:1;" d="M 98.46875 120.109375 L 103.496094 126.078125 C 92.675781 134.292969 79.183594 139.160156 64.589844 139.160156 C 29.003906 139.160156 0.0390625 110.195312 0.0390625 74.609375 C 0.0390625 39.011719 29.003906 10.058594 64.589844 10.058594 C 100.179688 10.058594 129.140625 39.011719 129.140625 74.609375 C 129.140625 74.863281 129.140625 75.125 129.132812 75.378906 L 121.328125 75.378906 C 121.335938 75.125 121.335938 74.863281 121.335938 74.609375 C 121.335938 43.3125 95.875 17.863281 64.589844 17.863281 C 33.304688 17.863281 7.84375 43.3125 7.84375 74.609375 C 7.84375 105.894531 33.304688 131.355469 64.589844 131.355469 C 77.28125 131.355469 89.007812 127.171875 98.46875 120.109375 Z M 137.449219 82.820312 L 113.398438 82.839844 L 113.398438 87.355469 L 137.449219 87.355469 Z M 137.449219 98.910156 L 137.449219 89.410156 L 113.40625 89.410156 L 113.40625 98.910156 Z M 137.449219 109.136719 L 137.449219 100.960938 L 113.40625 100.960938 L 113.410156 105.496094 L 113.410156 109.136719 L 101.117188 109.136719 L 113.273438 124.410156 L 125.429688 139.6875 L 137.59375 124.410156 L 149.746094 109.136719 Z M 76.410156 63.785156 L 84.382812 63.785156 C 84.824219 63.785156 85.1875 63.644531 85.472656 63.359375 C 85.757812 63.078125 85.902344 62.710938 85.902344 62.269531 L 85.902344 57.425781 C 85.902344 56.984375 85.757812 56.621094 85.472656 56.335938 C 85.1875 56.050781 84.824219 55.90625 84.382812 55.90625 L 76.265625 55.90625 C 75.726562 53.285156 74.714844 51.003906 73.226562 49.074219 L 84.285156 49.074219 C 84.730469 49.074219 85.09375 48.933594 85.378906 48.648438 C 85.660156 48.363281 85.804688 48 85.804688 47.554688 L 85.804688 42.714844 C 85.804688 42.269531 85.660156 41.90625 85.378906 41.621094 C 85.09375 41.339844 84.730469 41.195312 84.285156 41.195312 L 44.796875 41.195312 C 44.355469 41.195312 43.992188 41.339844 43.707031 41.621094 C 43.421875 41.90625 43.28125 42.269531 43.28125 42.714844 L 43.28125 49.027344 C 43.28125 49.4375 43.429688 49.792969 43.730469 50.09375 C 44.03125 50.394531 44.386719 50.542969 44.796875 50.542969 L 51.679688 50.542969 C 58.355469 50.542969 62.597656 52.332031 64.398438 55.90625 L 44.796875 55.90625 C 44.355469 55.90625 43.992188 56.050781 43.707031 56.335938 C 43.421875 56.621094 43.277344 56.984375 43.277344 57.425781 L 43.277344 62.269531 C 43.277344 62.710938 43.421875 63.074219 43.707031 63.359375 C 43.992188 63.644531 44.355469 63.785156 44.796875 63.785156 L 65.066406 63.785156 C 64.367188 66.378906 62.746094 68.359375 60.199219 69.71875 C 57.652344 71.078125 54.289062 71.761719 50.113281 71.761719 L 44.796875 71.761719 C 44.386719 71.761719 44.03125 71.910156 43.730469 72.210938 C 43.429688 72.511719 43.277344 72.867188 43.277344 73.277344 L 43.277344 79.304688 C 43.277344 79.71875 43.421875 80.066406 43.707031 80.351562 C 49.78125 86.804688 57.660156 95.835938 67.34375 107.449219 C 67.628906 107.832031 68.023438 108.023438 68.527344 108.023438 L 77.78125 108.023438 C 78.449219 108.023438 78.90625 107.738281 79.160156 107.167969 C 79.476562 106.597656 79.414062 106.058594 78.96875 105.554688 C 69.730469 94.226562 62.46875 85.746094 57.183594 80.113281 C 62.566406 79.480469 66.929688 77.738281 70.285156 74.894531 C 73.640625 72.042969 75.679688 68.34375 76.410156 63.785156 Z M 76.410156 63.785156 "/></g></g></svg>