<svg xmlns="http://www.w3.org/2000/svg" xmlns:xlink="http://www.w3.org/1999/xlink" width="200" zoomAndPan="magnify" viewBox="0 0 150 157.92" height="200" preserveAspectRatio="xMidYMid meet" version="1.2"><defs><clipPath id="e3d34ae9f6"><path d="M 10.71875 0 L 139.65625 0 L 139.65625 149.925781 L 10.71875 149.925781 Z M 10.71875 0 "/></clipPath></defs><g id="7978da1aa9"><g clip-rule="nonzero" clip-path="url(#e3d34ae9f6)"><path style=" stroke:none;fill-rule:nonzero;fill:#ffa800;fill-opacity:1;" d="M 134.144531 20.0625 L 78.894531 0.882812 C 77.632812 0.445312 76.335938 0.226562 75.003906 0.226562 C 73.671875 0.226562 72.375 0.445312 71.117188 0.882812 L 15.863281 20.0625 C 15.113281 20.324219 14.417969 20.695312 13.78125 21.175781 C 13.144531 21.65625 12.597656 22.222656 12.140625 22.875 C 11.683594 23.527344 11.335938 24.234375 11.101562 24.996094 C 10.867188 25.757812 10.753906 26.535156 10.765625 27.332031 C 11.015625 47.75 15.835938 119.390625 69.910156 148.226562 C 70.695312 148.644531 71.515625 148.960938 72.378906 149.175781 C 73.238281 149.390625 74.113281 149.5 75 149.5 C 75.890625 149.5 76.765625 149.390625 77.625 149.175781 C 78.488281 148.960938 79.308594 148.644531 80.09375 148.226562 C 134.171875 119.390625 138.992188 47.75 139.238281 27.332031 C 139.25 26.535156 139.136719 25.757812 138.902344 24.996094 C 138.667969 24.234375 138.320312 23.527344 137.863281 22.875 C 137.40625 22.222656 136.859375 21.65625 136.226562 21.175781 C 135.589844 20.695312 134.898438 20.324219 134.144531 20.0625 Z M 109.042969 61.347656 L 76.023438 94.367188 C 75.660156 94.714844 75.269531 95.023438 74.84375 95.296875 C 74.421875 95.570312 73.976562 95.800781 73.511719 95.988281 C 73.046875 96.175781 72.566406 96.316406 72.070312 96.410156 C 71.578125 96.507812 71.078125 96.554688 70.578125 96.554688 C 70.074219 96.554688 69.578125 96.507812 69.082031 96.410156 C 68.589844 96.316406 68.109375 96.175781 67.640625 95.988281 C 67.175781 95.800781 66.730469 95.570312 66.308594 95.296875 C 65.886719 95.023438 65.492188 94.714844 65.128906 94.367188 L 46.257812 75.496094 C 45.914062 75.148438 45.609375 74.769531 45.339844 74.359375 C 45.074219 73.953125 44.847656 73.523438 44.664062 73.070312 C 44.480469 72.617188 44.339844 72.152344 44.246094 71.671875 C 44.15625 71.191406 44.109375 70.707031 44.113281 70.21875 C 44.113281 69.730469 44.164062 69.25 44.261719 68.769531 C 44.359375 68.289062 44.5 67.828125 44.6875 67.375 C 44.875 66.925781 45.105469 66.496094 45.378906 66.089844 C 45.648438 65.683594 45.957031 65.308594 46.304688 64.964844 C 46.648438 64.621094 47.027344 64.3125 47.429688 64.039062 C 47.835938 63.769531 48.265625 63.539062 48.71875 63.351562 C 49.167969 63.164062 49.632812 63.023438 50.113281 62.925781 C 50.589844 62.828125 51.074219 62.78125 51.5625 62.777344 C 52.050781 62.777344 52.535156 62.824219 53.015625 62.914062 C 53.492188 63.007812 53.957031 63.148438 54.410156 63.332031 C 54.863281 63.515625 55.292969 63.742188 55.699219 64.011719 C 56.109375 64.28125 56.488281 64.585938 56.835938 64.929688 L 70.578125 78.667969 L 98.472656 50.773438 C 98.820312 50.429688 99.199219 50.117188 99.605469 49.847656 C 100.015625 49.574219 100.445312 49.34375 100.898438 49.15625 C 101.351562 48.96875 101.820312 48.828125 102.300781 48.734375 C 102.78125 48.636719 103.269531 48.589844 103.757812 48.589844 C 104.25 48.589844 104.734375 48.636719 105.214844 48.734375 C 105.695312 48.828125 106.164062 48.972656 106.617188 49.160156 C 107.070312 49.347656 107.5 49.578125 107.910156 49.851562 C 108.316406 50.121094 108.695312 50.433594 109.039062 50.777344 C 109.386719 51.125 109.699219 51.503906 109.96875 51.910156 C 110.242188 52.320312 110.472656 52.75 110.660156 53.203125 C 110.847656 53.65625 110.992188 54.121094 111.085938 54.605469 C 111.183594 55.085938 111.230469 55.570312 111.230469 56.0625 C 111.230469 56.550781 111.183594 57.039062 111.089844 57.519531 C 110.992188 58 110.851562 58.46875 110.664062 58.921875 C 110.476562 59.375 110.246094 59.804688 109.976562 60.214844 C 109.703125 60.621094 109.394531 61 109.046875 61.347656 Z M 109.042969 61.347656 "/></g></g></svg>