<svg xmlns="http://www.w3.org/2000/svg" xmlns:xlink="http://www.w3.org/1999/xlink" width="200" zoomAndPan="magnify" viewBox="0 0 150 157.92" height="200" preserveAspectRatio="xMidYMid meet" version="1.2"><defs><clipPath id="3e82d06858"><path d="M 0.0390625 0 L 149.960938 0 L 149.960938 149.175781 L 0.0390625 149.175781 Z M 0.0390625 0 "/></clipPath></defs><g id="601f9d0805"><g clip-rule="nonzero" clip-path="url(#3e82d06858)"><path style=" stroke:none;fill-rule:evenodd;fill:#ffa800;fill-opacity:1;" d="M 73.066406 0.820312 L 17.808594 41.1875 L 64.871094 41.1875 L 64.871094 37.621094 L 63.597656 37.621094 C 63.105469 37.621094 62.617188 37.570312 62.136719 37.476562 C 61.65625 37.378906 61.1875 37.238281 60.734375 37.046875 C 60.28125 36.859375 59.847656 36.628906 59.441406 36.355469 C 59.03125 36.082031 58.652344 35.773438 58.304688 35.425781 C 57.960938 35.078125 57.648438 34.699219 57.375 34.292969 C 57.101562 33.882812 56.871094 33.453125 56.683594 33 C 56.496094 32.542969 56.351562 32.078125 56.257812 31.59375 C 56.160156 31.113281 56.113281 30.625 56.113281 30.136719 L 56.113281 26.324219 C 56.113281 25.832031 56.160156 25.34375 56.257812 24.863281 C 56.351562 24.382812 56.496094 23.914062 56.683594 23.460938 C 56.871094 23.007812 57.101562 22.574219 57.375 22.167969 C 57.648438 21.757812 57.960938 21.378906 58.304688 21.03125 C 58.652344 20.683594 59.03125 20.375 59.441406 20.101562 C 59.847656 19.828125 60.28125 19.597656 60.734375 19.410156 C 61.1875 19.222656 61.65625 19.078125 62.136719 18.984375 C 62.617188 18.886719 63.105469 18.839844 63.597656 18.835938 L 89.847656 18.835938 C 90.339844 18.839844 90.828125 18.886719 91.308594 18.984375 C 91.792969 19.078125 92.257812 19.222656 92.710938 19.410156 C 93.167969 19.597656 93.597656 19.828125 94.007812 20.101562 C 94.414062 20.375 94.792969 20.683594 95.140625 21.03125 C 95.488281 21.378906 95.796875 21.757812 96.070312 22.167969 C 96.34375 22.574219 96.574219 23.007812 96.761719 23.460938 C 96.953125 23.914062 97.09375 24.382812 97.191406 24.863281 C 97.285156 25.34375 97.335938 25.832031 97.335938 26.324219 L 97.335938 30.132812 C 97.335938 30.625 97.285156 31.113281 97.191406 31.59375 C 97.09375 32.074219 96.953125 32.542969 96.761719 32.996094 C 96.574219 33.449219 96.34375 33.882812 96.070312 34.289062 C 95.796875 34.699219 95.488281 35.078125 95.140625 35.425781 C 94.792969 35.773438 94.414062 36.082031 94.007812 36.355469 C 93.597656 36.628906 93.167969 36.859375 92.710938 37.046875 C 92.257812 37.234375 91.792969 37.378906 91.308594 37.472656 C 90.828125 37.570312 90.339844 37.617188 89.847656 37.621094 L 88.574219 37.621094 L 88.574219 41.1875 L 132.003906 41.1875 L 76.746094 0.820312 C 76.480469 0.621094 76.191406 0.472656 75.875 0.367188 C 75.5625 0.261719 75.238281 0.210938 74.90625 0.210938 C 74.574219 0.210938 74.25 0.261719 73.9375 0.367188 C 73.621094 0.472656 73.332031 0.621094 73.066406 0.820312 Z M 132.957031 115.519531 L 132.957031 89.265625 C 132.957031 88.851562 133.035156 88.457031 133.195312 88.074219 C 133.355469 87.691406 133.578125 87.355469 133.871094 87.0625 C 134.164062 86.769531 134.5 86.546875 134.882812 86.386719 C 135.265625 86.226562 135.660156 86.148438 136.074219 86.148438 L 139.886719 86.148438 C 140.300781 86.148438 140.695312 86.226562 141.078125 86.386719 C 141.460938 86.546875 141.796875 86.769531 142.089844 87.0625 C 142.382812 87.355469 142.605469 87.691406 142.765625 88.074219 C 142.925781 88.457031 143.003906 88.851562 143.003906 89.265625 L 143.003906 115.519531 C 143.003906 115.933594 142.925781 116.332031 142.765625 116.710938 C 142.605469 117.09375 142.382812 117.429688 142.089844 117.722656 C 141.796875 118.015625 141.460938 118.242188 141.078125 118.398438 C 140.695312 118.558594 140.300781 118.636719 139.886719 118.636719 L 136.074219 118.636719 C 135.660156 118.636719 135.265625 118.558594 134.882812 118.398438 C 134.5 118.242188 134.164062 118.015625 133.871094 117.722656 C 133.578125 117.429688 133.355469 117.09375 133.195312 116.710938 C 133.035156 116.332031 132.957031 115.933594 132.957031 115.519531 Z M 63.597656 23.207031 L 89.851562 23.207031 C 90.265625 23.207031 90.660156 23.285156 91.042969 23.445312 C 91.425781 23.601562 91.761719 23.828125 92.054688 24.121094 C 92.347656 24.414062 92.570312 24.75 92.730469 25.132812 C 92.890625 25.515625 92.96875 25.910156 92.96875 26.324219 L 92.96875 30.136719 C 92.96875 30.550781 92.890625 30.945312 92.730469 31.328125 C 92.570312 31.710938 92.347656 32.046875 92.054688 32.339844 C 91.761719 32.632812 91.425781 32.855469 91.042969 33.015625 C 90.660156 33.175781 90.265625 33.253906 89.851562 33.253906 L 63.597656 33.253906 C 63.183594 33.253906 62.789062 33.175781 62.40625 33.015625 C 62.023438 32.855469 61.6875 32.632812 61.394531 32.339844 C 61.101562 32.046875 60.875 31.710938 60.71875 31.328125 C 60.558594 30.945312 60.480469 30.550781 60.480469 30.136719 L 60.480469 26.324219 C 60.480469 25.910156 60.558594 25.511719 60.71875 25.128906 C 60.875 24.75 61.101562 24.410156 61.394531 24.121094 C 61.6875 23.828125 62.023438 23.601562 62.40625 23.441406 C 62.789062 23.285156 63.183594 23.203125 63.597656 23.203125 Z M 25.132812 96.476562 L 25.132812 70.222656 C 25.136719 69.8125 25.214844 69.414062 25.375 69.03125 C 25.53125 68.648438 25.757812 68.3125 26.050781 68.019531 C 26.339844 67.726562 26.679688 67.503906 27.058594 67.34375 C 27.441406 67.1875 27.839844 67.105469 28.253906 67.105469 L 32.0625 67.105469 C 32.476562 67.105469 32.875 67.1875 33.257812 67.34375 C 33.636719 67.503906 33.976562 67.726562 34.265625 68.019531 C 34.558594 68.3125 34.785156 68.648438 34.945312 69.03125 C 35.101562 69.414062 35.183594 69.8125 35.183594 70.222656 L 35.183594 96.476562 C 35.183594 96.890625 35.101562 97.289062 34.945312 97.667969 C 34.785156 98.050781 34.558594 98.386719 34.265625 98.679688 C 33.976562 98.972656 33.636719 99.199219 33.257812 99.355469 C 32.875 99.515625 32.476562 99.59375 32.0625 99.59375 L 28.253906 99.59375 C 27.839844 99.59375 27.441406 99.515625 27.058594 99.355469 C 26.679688 99.199219 26.339844 98.972656 26.050781 98.679688 C 25.757812 98.386719 25.53125 98.050781 25.375 97.667969 C 25.214844 97.289062 25.136719 96.890625 25.132812 96.476562 Z M 84.210938 37.621094 L 84.210938 73.992188 C 84.210938 74.546875 84.179688 75.09375 84.125 75.644531 C 84.070312 76.191406 83.992188 76.738281 83.882812 77.277344 C 83.773438 77.820312 83.640625 78.351562 83.480469 78.878906 C 83.320312 79.40625 83.132812 79.925781 82.921875 80.4375 C 82.710938 80.945312 82.476562 81.441406 82.214844 81.929688 C 81.953125 82.414062 81.671875 82.886719 81.363281 83.34375 C 81.058594 83.804688 80.730469 84.246094 80.378906 84.671875 C 80.03125 85.097656 79.660156 85.507812 79.269531 85.898438 C 78.882812 86.285156 78.472656 86.65625 78.046875 87.007812 C 77.621094 87.355469 77.179688 87.683594 76.71875 87.992188 C 76.261719 88.296875 75.789062 88.582031 75.304688 88.839844 C 74.816406 89.101562 74.320312 89.335938 73.808594 89.546875 C 73.300781 89.757812 72.78125 89.945312 72.253906 90.105469 C 71.726562 90.265625 71.191406 90.402344 70.652344 90.507812 C 70.113281 90.617188 69.566406 90.699219 69.019531 90.753906 C 68.46875 90.808594 67.917969 90.835938 67.367188 90.835938 L 64.996094 90.835938 L 64.996094 124.476562 C 65 124.722656 65.046875 124.960938 65.144531 125.191406 C 65.238281 125.417969 65.375 125.621094 65.550781 125.796875 C 65.726562 125.96875 65.925781 126.105469 66.15625 126.203125 C 66.382812 126.296875 66.621094 126.347656 66.867188 126.347656 L 94.742188 126.347656 C 94.992188 126.347656 95.230469 126.296875 95.457031 126.203125 C 95.683594 126.105469 95.886719 125.96875 96.0625 125.796875 C 96.238281 125.621094 96.371094 125.417969 96.46875 125.191406 C 96.5625 124.960938 96.613281 124.722656 96.613281 124.476562 L 96.613281 111.75 C 96.617188 111.195312 96.644531 110.648438 96.699219 110.097656 C 96.753906 109.550781 96.832031 109.003906 96.941406 108.464844 C 97.050781 107.921875 97.183594 107.390625 97.34375 106.863281 C 97.503906 106.335938 97.691406 105.816406 97.902344 105.304688 C 98.113281 104.796875 98.347656 104.300781 98.609375 103.8125 C 98.871094 103.328125 99.152344 102.855469 99.460938 102.394531 C 99.765625 101.9375 100.09375 101.496094 100.445312 101.070312 C 100.792969 100.644531 101.164062 100.234375 101.554688 99.84375 C 101.941406 99.457031 102.351562 99.085938 102.777344 98.734375 C 103.203125 98.386719 103.644531 98.058594 104.105469 97.75 C 104.5625 97.445312 105.035156 97.160156 105.519531 96.902344 C 106.007812 96.640625 106.503906 96.40625 107.015625 96.195312 C 107.523438 95.984375 108.042969 95.796875 108.570312 95.636719 C 109.097656 95.476562 109.632812 95.339844 110.171875 95.234375 C 110.714844 95.125 111.257812 95.042969 111.804688 94.988281 C 112.355469 94.933594 112.90625 94.90625 113.457031 94.90625 L 128.589844 94.90625 L 128.589844 109.878906 L 113.457031 109.878906 C 113.210938 109.878906 112.972656 109.929688 112.742188 110.023438 C 112.515625 110.121094 112.3125 110.253906 112.136719 110.429688 C 111.964844 110.605469 111.828125 110.804688 111.730469 111.035156 C 111.636719 111.261719 111.585938 111.5 111.585938 111.75 L 111.585938 124.476562 C 111.585938 125.027344 111.558594 125.578125 111.503906 126.125 C 111.449219 126.675781 111.367188 127.21875 111.257812 127.757812 C 111.152344 128.300781 111.015625 128.835938 110.855469 129.363281 C 110.695312 129.890625 110.507812 130.40625 110.296875 130.917969 C 110.085938 131.425781 109.851562 131.925781 109.589844 132.410156 C 109.332031 132.898438 109.046875 133.367188 108.742188 133.828125 C 108.433594 134.285156 108.105469 134.726562 107.757812 135.152344 C 107.40625 135.582031 107.035156 135.988281 106.648438 136.378906 C 106.257812 136.769531 105.847656 137.136719 105.421875 137.488281 C 104.996094 137.839844 104.554688 138.167969 104.097656 138.472656 C 103.636719 138.777344 103.164062 139.0625 102.679688 139.324219 C 102.191406 139.582031 101.695312 139.820312 101.1875 140.03125 C 100.675781 140.242188 100.15625 140.425781 99.628906 140.585938 C 99.101562 140.746094 98.570312 140.882812 98.027344 140.988281 C 97.488281 141.097656 96.941406 141.179688 96.394531 141.234375 C 95.84375 141.289062 95.296875 141.316406 94.742188 141.316406 L 66.871094 141.316406 C 66.316406 141.316406 65.769531 141.289062 65.21875 141.234375 C 64.671875 141.179688 64.125 141.097656 63.585938 140.988281 C 63.042969 140.882812 62.511719 140.746094 61.984375 140.585938 C 61.457031 140.425781 60.9375 140.242188 60.425781 140.03125 C 59.917969 139.820312 59.421875 139.582031 58.933594 139.324219 C 58.449219 139.0625 57.976562 138.777344 57.519531 138.472656 C 57.058594 138.167969 56.617188 137.835938 56.191406 137.488281 C 55.765625 137.136719 55.355469 136.769531 54.964844 136.378906 C 54.578125 135.988281 54.207031 135.582031 53.855469 135.152344 C 53.507812 134.726562 53.179688 134.285156 52.871094 133.828125 C 52.566406 133.367188 52.28125 132.898438 52.023438 132.410156 C 51.761719 131.925781 51.527344 131.425781 51.316406 130.917969 C 51.105469 130.40625 50.917969 129.890625 50.757812 129.363281 C 50.597656 128.835938 50.460938 128.300781 50.355469 127.757812 C 50.246094 127.21875 50.164062 126.675781 50.109375 126.125 C 50.054688 125.578125 50.027344 125.027344 50.027344 124.476562 L 50.027344 90.835938 L 39.546875 90.835938 L 39.546875 75.863281 L 67.367188 75.863281 C 67.617188 75.863281 67.855469 75.8125 68.082031 75.71875 C 68.3125 75.621094 68.511719 75.488281 68.6875 75.3125 C 68.863281 75.136719 68.996094 74.9375 69.09375 74.707031 C 69.1875 74.480469 69.238281 74.242188 69.238281 73.992188 L 69.238281 37.621094 Z M 1.613281 45.554688 C 1.40625 45.554688 1.207031 45.597656 1.015625 45.675781 C 0.824219 45.753906 0.65625 45.867188 0.511719 46.011719 C 0.363281 46.160156 0.253906 46.328125 0.171875 46.519531 C 0.09375 46.710938 0.0546875 46.910156 0.0546875 47.113281 L 0.0546875 54.042969 C 0.0546875 54.25 0.09375 54.449219 0.171875 54.640625 C 0.253906 54.832031 0.363281 55 0.511719 55.144531 C 0.65625 55.292969 0.824219 55.40625 1.015625 55.484375 C 1.207031 55.5625 1.40625 55.605469 1.613281 55.605469 L 64.871094 55.605469 L 64.871094 45.554688 Z M 88.574219 45.554688 L 88.574219 55.605469 L 148.199219 55.605469 C 148.40625 55.605469 148.605469 55.5625 148.796875 55.484375 C 148.984375 55.40625 149.15625 55.292969 149.300781 55.144531 C 149.445312 55 149.558594 54.832031 149.640625 54.640625 C 149.71875 54.449219 149.757812 54.25 149.757812 54.042969 L 149.757812 47.113281 C 149.757812 46.910156 149.71875 46.710938 149.640625 46.519531 C 149.558594 46.328125 149.445312 46.160156 149.300781 46.011719 C 149.15625 45.867188 148.984375 45.753906 148.796875 45.675781 C 148.605469 45.597656 148.40625 45.554688 148.199219 45.554688 Z M 137.980469 59.96875 L 88.574219 59.96875 L 88.574219 73.992188 C 88.574219 74.644531 88.542969 75.296875 88.484375 75.949219 C 88.421875 76.597656 88.332031 77.242188 88.210938 77.882812 C 88.09375 78.527344 87.941406 79.160156 87.765625 79.789062 C 87.585938 80.417969 87.378906 81.035156 87.140625 81.644531 C 86.90625 82.25 86.644531 82.847656 86.351562 83.433594 C 86.0625 84.015625 85.746094 84.585938 85.402344 85.140625 C 85.058594 85.695312 84.6875 86.234375 84.296875 86.753906 C 83.902344 87.277344 83.488281 87.777344 83.046875 88.261719 C 82.609375 88.746094 82.148438 89.207031 81.667969 89.644531 C 81.183594 90.085938 80.683594 90.503906 80.164062 90.898438 C 79.644531 91.292969 79.105469 91.660156 78.550781 92.003906 C 77.996094 92.351562 77.429688 92.667969 76.84375 92.960938 C 76.261719 93.253906 75.664062 93.515625 75.054688 93.753906 C 74.449219 93.992188 73.832031 94.199219 73.203125 94.378906 C 72.574219 94.558594 71.941406 94.710938 71.300781 94.832031 C 70.660156 94.953125 70.015625 95.046875 69.363281 95.109375 L 69.363281 121.980469 L 92.25 121.980469 L 92.25 111.75 C 92.25 111.054688 92.285156 110.359375 92.351562 109.671875 C 92.421875 108.980469 92.523438 108.292969 92.660156 107.613281 C 92.796875 106.929688 92.964844 106.257812 93.167969 105.59375 C 93.367188 104.929688 93.601562 104.277344 93.867188 103.636719 C 94.132812 102.996094 94.429688 102.367188 94.757812 101.753906 C 95.085938 101.144531 95.445312 100.546875 95.828125 99.972656 C 96.214844 99.394531 96.628906 98.835938 97.070312 98.300781 C 97.507812 97.761719 97.976562 97.25 98.464844 96.757812 C 98.957031 96.265625 99.472656 95.800781 100.007812 95.359375 C 100.542969 94.921875 101.101562 94.507812 101.679688 94.121094 C 102.257812 93.734375 102.851562 93.378906 103.464844 93.050781 C 104.074219 92.722656 104.703125 92.425781 105.34375 92.160156 C 105.984375 91.894531 106.636719 91.660156 107.300781 91.457031 C 107.96875 91.257812 108.640625 91.085938 109.320312 90.953125 C 110 90.816406 110.6875 90.714844 111.378906 90.644531 C 112.070312 90.574219 112.761719 90.539062 113.457031 90.539062 L 128.589844 90.539062 L 128.589844 89.265625 C 128.589844 88.773438 128.636719 88.289062 128.734375 87.804688 C 128.832031 87.324219 128.972656 86.855469 129.160156 86.402344 C 129.351562 85.949219 129.582031 85.515625 129.855469 85.109375 C 130.125 84.699219 130.4375 84.324219 130.785156 83.976562 C 131.132812 83.628906 131.511719 83.316406 131.917969 83.042969 C 132.328125 82.769531 132.757812 82.539062 133.210938 82.351562 C 133.664062 82.164062 134.132812 82.023438 134.613281 81.925781 C 135.097656 81.828125 135.582031 81.78125 136.074219 81.78125 L 137.980469 81.78125 Z M 137.980469 123.003906 L 136.074219 123.003906 C 135.582031 123.003906 135.097656 122.957031 134.617188 122.859375 C 134.132812 122.761719 133.664062 122.621094 133.210938 122.433594 C 132.757812 122.246094 132.328125 122.015625 131.917969 121.742188 C 131.511719 121.46875 131.132812 121.15625 130.785156 120.808594 C 130.4375 120.460938 130.128906 120.085938 129.855469 119.675781 C 129.582031 119.265625 129.351562 118.835938 129.160156 118.382812 C 128.972656 117.929688 128.832031 117.460938 128.734375 116.980469 C 128.640625 116.496094 128.589844 116.011719 128.589844 115.519531 L 128.589844 114.242188 L 115.953125 114.242188 L 115.953125 124.476562 C 115.953125 125.167969 115.917969 125.863281 115.847656 126.554688 C 115.78125 127.246094 115.675781 127.929688 115.539062 128.613281 C 115.40625 129.292969 115.234375 129.964844 115.035156 130.628906 C 114.832031 131.292969 114.597656 131.945312 114.332031 132.589844 C 114.066406 133.230469 113.769531 133.855469 113.441406 134.46875 C 113.113281 135.082031 112.757812 135.675781 112.371094 136.253906 C 111.984375 136.828125 111.570312 137.386719 111.132812 137.921875 C 110.691406 138.460938 110.226562 138.972656 109.734375 139.464844 C 109.242188 139.957031 108.730469 140.421875 108.191406 140.863281 C 107.65625 141.304688 107.097656 141.714844 106.519531 142.101562 C 105.945312 142.488281 105.347656 142.84375 104.738281 143.171875 C 104.125 143.5 103.496094 143.796875 102.855469 144.0625 C 102.214844 144.328125 101.5625 144.5625 100.898438 144.765625 C 100.234375 144.96875 99.5625 145.136719 98.878906 145.273438 C 98.199219 145.410156 97.511719 145.511719 96.820312 145.578125 C 96.132812 145.648438 95.4375 145.683594 94.742188 145.683594 L 66.871094 145.683594 C 66.175781 145.683594 65.484375 145.648438 64.792969 145.578125 C 64.101562 145.511719 63.414062 145.410156 62.734375 145.273438 C 62.050781 145.136719 61.378906 144.96875 60.714844 144.765625 C 60.050781 144.5625 59.398438 144.328125 58.757812 144.0625 C 58.117188 143.796875 57.488281 143.5 56.875 143.171875 C 56.265625 142.84375 55.667969 142.488281 55.09375 142.101562 C 54.515625 141.714844 53.957031 141.304688 53.421875 140.863281 C 52.882812 140.421875 52.371094 139.957031 51.878906 139.464844 C 51.386719 138.972656 50.921875 138.460938 50.480469 137.921875 C 50.042969 137.386719 49.628906 136.828125 49.242188 136.253906 C 48.855469 135.675781 48.5 135.082031 48.171875 134.46875 C 47.84375 133.855469 47.546875 133.230469 47.28125 132.589844 C 47.015625 131.945312 46.78125 131.292969 46.578125 130.628906 C 46.378906 129.964844 46.207031 129.292969 46.074219 128.609375 C 45.9375 127.929688 45.835938 127.246094 45.765625 126.554688 C 45.695312 125.863281 45.664062 125.167969 45.660156 124.476562 L 45.660156 95.203125 L 39.546875 95.203125 L 39.546875 96.476562 C 39.546875 96.96875 39.5 97.453125 39.402344 97.9375 C 39.308594 98.417969 39.164062 98.886719 38.976562 99.339844 C 38.789062 99.792969 38.558594 100.226562 38.285156 100.632812 C 38.011719 101.042969 37.703125 101.417969 37.355469 101.765625 C 37.007812 102.113281 36.628906 102.425781 36.21875 102.699219 C 35.8125 102.972656 35.378906 103.203125 34.925781 103.390625 C 34.472656 103.578125 34.003906 103.71875 33.523438 103.816406 C 33.042969 103.914062 32.554688 103.960938 32.0625 103.960938 L 28.253906 103.960938 C 27.761719 103.960938 27.273438 103.914062 26.792969 103.816406 C 26.3125 103.71875 25.84375 103.578125 25.390625 103.390625 C 24.9375 103.203125 24.503906 102.972656 24.097656 102.699219 C 23.6875 102.425781 23.308594 102.113281 22.960938 101.765625 C 22.613281 101.417969 22.304688 101.042969 22.03125 100.632812 C 21.757812 100.226562 21.527344 99.792969 21.339844 99.339844 C 21.152344 98.886719 21.007812 98.417969 20.914062 97.9375 C 20.816406 97.453125 20.769531 96.96875 20.769531 96.476562 L 20.769531 70.222656 C 20.769531 69.734375 20.816406 69.246094 20.914062 68.765625 C 21.007812 68.28125 21.152344 67.816406 21.339844 67.359375 C 21.527344 66.90625 21.757812 66.476562 22.03125 66.066406 C 22.304688 65.660156 22.613281 65.28125 22.960938 64.933594 C 23.308594 64.585938 23.6875 64.277344 24.097656 64.003906 C 24.503906 63.730469 24.9375 63.5 25.390625 63.3125 C 25.84375 63.121094 26.3125 62.980469 26.792969 62.882812 C 27.273438 62.789062 27.761719 62.738281 28.253906 62.738281 L 32.0625 62.738281 C 32.554688 62.738281 33.042969 62.789062 33.523438 62.882812 C 34.003906 62.980469 34.472656 63.121094 34.925781 63.3125 C 35.378906 63.5 35.8125 63.730469 36.21875 64.003906 C 36.628906 64.277344 37.007812 64.585938 37.355469 64.933594 C 37.703125 65.28125 38.011719 65.660156 38.285156 66.066406 C 38.558594 66.476562 38.789062 66.90625 38.976562 67.359375 C 39.164062 67.816406 39.308594 68.28125 39.402344 68.765625 C 39.5 69.246094 39.546875 69.734375 39.550781 70.222656 L 39.550781 71.5 L 64.875 71.5 L 64.875 59.96875 L 11.832031 59.96875 L 11.832031 142.707031 C 11.832031 143.132812 11.875 143.554688 11.957031 143.96875 C 12.042969 144.386719 12.167969 144.789062 12.328125 145.183594 C 12.492188 145.574219 12.691406 145.945312 12.929688 146.300781 C 13.164062 146.652344 13.433594 146.980469 13.734375 147.28125 C 14.035156 147.582031 14.359375 147.847656 14.714844 148.085938 C 15.066406 148.320312 15.4375 148.519531 15.832031 148.683594 C 16.222656 148.847656 16.628906 148.96875 17.042969 149.054688 C 17.460938 149.136719 17.878906 149.179688 18.304688 149.183594 L 131.507812 149.183594 C 131.929688 149.179688 132.351562 149.136719 132.769531 149.054688 C 133.183594 148.96875 133.589844 148.847656 133.980469 148.683594 C 134.375 148.519531 134.746094 148.320312 135.097656 148.085938 C 135.453125 147.847656 135.777344 147.582031 136.078125 147.28125 C 136.378906 146.980469 136.648438 146.652344 136.882812 146.300781 C 137.121094 145.945312 137.320312 145.574219 137.484375 145.183594 C 137.644531 144.789062 137.769531 144.386719 137.851562 143.96875 C 137.9375 143.554688 137.980469 143.132812 137.980469 142.707031 Z M 137.980469 123.003906 "/></g></g></svg>