<svg xmlns="http://www.w3.org/2000/svg" xmlns:xlink="http://www.w3.org/1999/xlink" width="200" zoomAndPan="magnify" viewBox="0 0 150 157.92" height="200" preserveAspectRatio="xMidYMid meet" version="1.2"><defs><clipPath id="670c7cc945"><path d="M 0.0390625 0 L 149.960938 0 L 149.960938 149.925781 L 0.0390625 149.925781 Z M 0.0390625 0 "/></clipPath></defs><g id="95baee3230"><g clip-rule="nonzero" clip-path="url(#670c7cc945)"><path style=" stroke:none;fill-rule:nonzero;fill:#ffa800;fill-opacity:1;" d="M 75 0 C 33.683594 0 0.0546875 33.660156 0.0546875 74.976562 C 0.0546875 116.308594 33.683594 149.925781 75 149.925781 C 116.316406 149.925781 149.945312 116.308594 149.945312 74.976562 C 149.945312 33.660156 116.316406 0 75 0 Z M 75 139.351562 C 59.15625 139.351562 44.621094 133.574219 33.414062 124.027344 L 45.300781 112.144531 C 45.078125 110.738281 45.1875 109.269531 45.644531 107.882812 L 47.382812 102.59375 L 42.0625 104.332031 C 41.164062 104.632812 40.21875 104.789062 39.269531 104.789062 C 38.78125 104.789062 38.292969 104.757812 37.835938 104.679688 L 25.949219 116.5625 C 16.402344 105.355469 10.628906 90.824219 10.628906 74.976562 C 10.628906 39.46875 39.492188 10.574219 75 10.574219 C 90.84375 10.574219 105.378906 16.382812 116.585938 25.929688 L 104.652344 37.859375 C 104.875 39.21875 104.765625 40.621094 104.304688 42.011719 L 102.570312 47.375 L 107.9375 45.671875 C 108.835938 45.371094 109.78125 45.214844 110.730469 45.214844 C 111.1875 45.214844 111.675781 45.246094 112.132812 45.324219 L 124.066406 33.394531 C 133.613281 44.597656 139.386719 59.132812 139.386719 74.976562 C 139.371094 110.484375 110.507812 139.351562 75 139.351562 Z M 75 139.351562 "/></g><path style=" stroke:none;fill-rule:nonzero;fill:#ffa800;fill-opacity:1;" d="M 116.773438 72.707031 L 106.785156 70.574219 C 105.09375 70.210938 103.4375 64.167969 104.828125 62.90625 L 112.324219 56.101562 C 113.128906 55.363281 113.316406 54.160156 112.765625 53.214844 L 112.734375 53.167969 C 112.179688 52.238281 111.0625 51.792969 110.019531 52.125 L 100.28125 55.25 C 98.5625 55.789062 94.175781 51.398438 94.710938 49.695312 L 97.851562 39.941406 C 98.183594 38.902344 97.757812 37.78125 96.808594 37.226562 L 96.746094 37.195312 C 95.800781 36.644531 94.601562 36.832031 93.859375 37.640625 L 87.042969 45.136719 C 85.792969 46.523438 79.734375 44.867188 79.371094 43.179688 L 77.242188 33.1875 C 77.019531 32.117188 76.074219 31.359375 74.96875 31.359375 C 73.863281 31.359375 72.933594 32.132812 72.695312 33.1875 L 70.566406 43.179688 C 70.203125 44.851562 64.078125 46.539062 62.800781 45.121094 L 56.078125 37.65625 C 55.335938 36.832031 54.105469 36.628906 53.144531 37.195312 C 52.179688 37.75 51.738281 38.902344 52.085938 39.957031 L 55.226562 49.648438 C 55.792969 51.351562 51.375 55.773438 49.703125 55.234375 L 39.964844 52.109375 C 38.90625 51.777344 37.773438 52.207031 37.203125 53.167969 C 36.636719 54.128906 36.824219 55.363281 37.660156 56.101562 L 45.140625 62.890625 C 46.53125 64.136719 44.855469 70.195312 43.167969 70.558594 L 33.195312 72.691406 C 32.121094 72.910156 31.363281 73.855469 31.363281 74.960938 L 31.363281 74.976562 C 31.363281 76.066406 32.136719 77.011719 33.195312 77.25 L 43.183594 79.378906 C 44.855469 79.742188 46.5625 85.867188 45.140625 87.144531 L 37.660156 93.898438 C 36.839844 94.640625 36.652344 95.839844 37.203125 96.789062 L 37.234375 96.851562 C 37.789062 97.796875 38.921875 98.222656 39.949219 97.890625 L 49.671875 94.734375 C 51.359375 94.183594 55.792969 98.601562 55.242188 100.308594 L 52.085938 110.011719 C 51.753906 111.054688 52.179688 112.175781 53.125 112.726562 L 53.191406 112.757812 C 54.136719 113.3125 55.335938 113.121094 56.078125 112.300781 L 62.832031 104.820312 C 64.09375 103.398438 70.234375 105.089844 70.597656 106.777344 L 72.726562 116.75 C 72.949219 117.824219 73.894531 118.582031 75 118.582031 C 76.089844 118.582031 77.035156 117.808594 77.273438 116.75 L 79.402344 106.761719 C 79.765625 105.074219 85.824219 103.417969 87.074219 104.804688 L 93.875 112.300781 C 94.617188 113.105469 95.816406 113.296875 96.761719 112.742188 L 96.824219 112.710938 C 97.757812 112.160156 98.199219 111.039062 97.867188 109.996094 L 94.726562 100.257812 C 94.191406 98.554688 98.609375 94.152344 100.3125 94.71875 L 110.019531 97.875 C 111.0625 98.207031 112.179688 97.78125 112.734375 96.835938 L 112.765625 96.773438 C 113.316406 95.824219 113.128906 94.625 112.308594 93.882812 L 104.828125 87.128906 C 103.40625 85.851562 105.09375 79.726562 106.769531 79.363281 L 116.757812 77.234375 C 117.832031 77.011719 118.589844 76.066406 118.589844 74.960938 C 118.589844 73.855469 117.847656 72.941406 116.773438 72.707031 Z M 59.296875 84.273438 C 57.484375 84.273438 56 82.804688 56 80.976562 C 56 79.160156 57.484375 77.675781 59.296875 77.675781 C 61.113281 77.675781 62.597656 79.160156 62.597656 80.976562 C 62.578125 82.789062 61.113281 84.273438 59.296875 84.273438 Z M 65.027344 64.453125 C 63.070312 64.453125 61.492188 62.875 61.492188 60.917969 C 61.492188 58.960938 63.070312 57.382812 65.027344 57.382812 C 66.984375 57.382812 68.5625 58.960938 68.5625 60.917969 C 68.5625 62.875 66.984375 64.453125 65.027344 64.453125 Z M 76.121094 71.238281 C 78.1875 71.238281 79.859375 72.910156 79.859375 74.976562 C 79.859375 77.046875 78.1875 78.71875 76.121094 78.71875 C 74.054688 78.71875 72.378906 77.046875 72.378906 74.976562 C 72.378906 72.910156 74.054688 71.238281 76.121094 71.238281 Z M 76.371094 96.09375 C 74.335938 96.09375 72.695312 94.453125 72.695312 92.417969 C 72.695312 90.378906 74.335938 88.738281 76.371094 88.738281 C 78.410156 88.738281 80.050781 90.378906 80.050781 92.417969 C 80.050781 94.453125 78.410156 96.09375 76.371094 96.09375 Z M 85.9375 64.75 C 84.167969 64.75 82.71875 63.316406 82.71875 61.546875 C 82.71875 59.78125 84.152344 58.328125 85.9375 58.328125 C 87.703125 58.328125 89.15625 59.765625 89.15625 61.546875 C 89.140625 63.316406 87.703125 64.75 85.9375 64.75 Z M 91.191406 85.125 C 89.425781 85.125 87.988281 83.6875 87.988281 81.921875 C 87.988281 80.152344 89.425781 78.71875 91.191406 78.71875 C 92.960938 78.71875 94.394531 80.152344 94.394531 81.921875 C 94.394531 83.6875 92.960938 85.125 91.191406 85.125 Z M 91.191406 85.125 "/></g></svg>