<svg xmlns="http://www.w3.org/2000/svg" xmlns:xlink="http://www.w3.org/1999/xlink" width="200" zoomAndPan="magnify" viewBox="0 0 150 157.92" height="200" preserveAspectRatio="xMidYMid meet" version="1.2"><defs><clipPath id="5ac1a8ce34"><path d="M 0.0390625 77.175781 L 98.851562 77.175781 L 98.851562 113.738281 L 0.0390625 113.738281 Z M 0.0390625 77.175781 "/></clipPath><clipPath id="8363d328f7"><path d="M 99 77.175781 L 113 77.175781 L 113 113.738281 L 99 113.738281 Z M 99 77.175781 "/></clipPath><clipPath id="27667c0f1c"><path d="M 136 62 L 149.960938 62 L 149.960938 99 L 136 99 Z M 136 62 "/></clipPath></defs><g id="413bb50665"><g clip-rule="nonzero" clip-path="url(#5ac1a8ce34)"><path style=" stroke:none;fill-rule:nonzero;fill:#ffa800;fill-opacity:1;" d="M 6.90625 77.507812 C 1.914062 77.507812 0.0390625 90.621094 0.0390625 95.625 L 0.0390625 97.808594 C 0.664062 107.175781 4.097656 113.738281 6.90625 113.738281 L 98.425781 113.738281 C 95.617188 109.679688 94.058594 103.117188 94.058594 95.625 C 94.058594 88.117188 95.617188 81.570312 98.425781 77.507812 L 6.90625 77.507812 "/></g><g clip-rule="nonzero" clip-path="url(#8363d328f7)"><path style=" stroke:none;fill-rule:nonzero;fill:#ffa800;fill-opacity:1;" d="M 105.917969 77.507812 C 103.109375 77.507812 99.050781 84.683594 99.050781 95.625 C 99.050781 106.550781 103.109375 113.738281 105.917969 113.738281 C 108.742188 113.738281 112.800781 106.550781 112.800781 95.625 C 112.800781 84.683594 108.742188 77.507812 105.917969 77.507812 "/></g><path style=" stroke:none;fill-rule:nonzero;fill:#ffa800;fill-opacity:1;" d="M 22.210938 72.503906 L 113.730469 72.503906 C 110.921875 68.445312 109.367188 61.882812 109.367188 54.390625 C 109.367188 46.898438 110.921875 40.335938 113.730469 36.273438 L 22.210938 36.273438 C 17.527344 36.273438 15.34375 48.148438 15.34375 54.390625 L 15.34375 56.574219 C 15.652344 65.941406 19.097656 72.503906 22.210938 72.503906 "/><path style=" stroke:none;fill-rule:nonzero;fill:#ffa800;fill-opacity:1;" d="M 120.90625 72.503906 C 123.726562 72.503906 127.789062 65.316406 127.789062 54.390625 C 127.789062 43.460938 123.726562 36.273438 120.90625 36.273438 C 118.109375 36.273438 114.039062 43.460938 114.039062 54.390625 C 114.039062 65.316406 118.109375 72.503906 120.90625 72.503906 "/><path style=" stroke:none;fill-rule:nonzero;fill:#ffa800;fill-opacity:1;" d="M 132.167969 62.507812 C 130.597656 71.253906 126.535156 77.191406 121.53125 77.507812 L 113.425781 77.507812 C 116.222656 81.570312 117.792969 88.117188 117.792969 95.625 L 117.792969 98.738281 L 136.226562 98.738281 C 133.40625 94.679688 131.847656 88.132812 131.847656 80.625 C 131.847656 73.128906 133.40625 66.570312 136.226562 62.507812 L 132.167969 62.507812 "/><g clip-rule="nonzero" clip-path="url(#27667c0f1c)"><path style=" stroke:none;fill-rule:nonzero;fill:#ffa800;fill-opacity:1;" d="M 143.09375 62.507812 C 140.273438 62.507812 136.226562 69.695312 136.226562 80.625 C 136.226562 91.871094 140.273438 98.738281 143.09375 98.738281 C 145.902344 98.738281 149.960938 91.566406 149.960938 80.625 C 149.960938 69.378906 145.902344 62.507812 143.09375 62.507812 "/></g></g></svg>