<svg xmlns="http://www.w3.org/2000/svg" xmlns:xlink="http://www.w3.org/1999/xlink" width="200" zoomAndPan="magnify" viewBox="0 0 150 149.999998" height="200" preserveAspectRatio="xMidYMid meet" version="1.2"><defs><clipPath id="2442df7818"><path d="M 0 6.28125 L 150 6.28125 L 150 143 L 0 143 Z M 0 6.28125 "/></clipPath></defs><g id="5f25ed462a"><g clip-rule="nonzero" clip-path="url(#2442df7818)"><path style=" stroke:none;fill-rule:nonzero;fill:#ffa800;fill-opacity:1;" d="M 12.792969 6.28125 C 5.929688 6.28125 0.371094 11.839844 0.371094 18.703125 L 0.371094 68.386719 C 0.371094 75.246094 5.929688 80.804688 12.792969 80.804688 L 37.890625 80.804688 C 38.042969 91.898438 36.960938 115.667969 26.222656 133.304688 C 26.226562 133.304688 26.230469 133.304688 26.234375 133.304688 C 25.835938 133.914062 25.558594 134.574219 25.394531 135.285156 C 25.230469 135.992188 25.191406 136.710938 25.277344 137.433594 C 25.367188 138.15625 25.574219 138.84375 25.902344 139.492188 C 26.234375 140.140625 26.664062 140.714844 27.195312 141.214844 C 27.722656 141.710938 28.324219 142.105469 28.992188 142.390625 C 29.664062 142.679688 30.359375 142.84375 31.085938 142.886719 C 31.816406 142.929688 32.527344 142.84375 33.226562 142.636719 C 33.921875 142.429688 34.5625 142.105469 35.148438 141.671875 C 35.148438 141.671875 62.476562 120.828125 62.476562 80.804688 L 62.476562 18.703125 C 62.476562 11.839844 56.917969 6.28125 50.054688 6.28125 Z M 99.738281 6.28125 C 92.875 6.28125 87.320312 11.839844 87.320312 18.703125 L 87.320312 68.386719 C 87.320312 75.246094 92.875 80.804688 99.738281 80.804688 L 124.835938 80.804688 C 124.992188 91.898438 123.90625 115.667969 113.167969 133.304688 C 113.167969 133.304688 113.179688 133.304688 113.179688 133.304688 C 112.78125 133.914062 112.503906 134.574219 112.339844 135.285156 C 112.175781 135.992188 112.136719 136.710938 112.222656 137.433594 C 112.3125 138.15625 112.519531 138.84375 112.847656 139.492188 C 113.179688 140.140625 113.609375 140.714844 114.140625 141.214844 C 114.671875 141.710938 115.269531 142.105469 115.9375 142.390625 C 116.609375 142.679688 117.304688 142.84375 118.035156 142.886719 C 118.761719 142.929688 119.472656 142.84375 120.171875 142.636719 C 120.867188 142.429688 121.507812 142.105469 122.09375 141.671875 C 122.09375 141.671875 149.421875 120.828125 149.421875 80.804688 L 149.421875 18.703125 C 149.421875 11.839844 143.863281 6.28125 137 6.28125 Z M 99.738281 6.28125 "/></g></g></svg>