<svg xmlns="http://www.w3.org/2000/svg" xmlns:xlink="http://www.w3.org/1999/xlink" width="200" zoomAndPan="magnify" viewBox="0 0 150 157.92" height="200" preserveAspectRatio="xMidYMid meet" version="1.2"><defs><clipPath id="91420b1be3"><path d="M 9 40 L 71 40 L 71 149.925781 L 9 149.925781 Z M 9 40 "/></clipPath><clipPath id="1f9694fc26"><path d="M 79 40 L 141 40 L 141 149.925781 L 79 149.925781 Z M 79 40 "/></clipPath></defs><g id="7c5c6410a7"><path style=" stroke:none;fill-rule:nonzero;fill:#ffa800;fill-opacity:1;" d="M 101.917969 53.964844 L 41.457031 19.054688 L 14.539062 34.597656 L 75 69.503906 Z M 101.917969 53.964844 "/><g clip-rule="nonzero" clip-path="url(#91420b1be3)"><path style=" stroke:none;fill-rule:nonzero;fill:#ffa800;fill-opacity:1;" d="M 9.097656 113.832031 L 70.882812 149.503906 L 70.882812 76.640625 L 9.097656 40.96875 Z M 9.097656 113.832031 "/></g><path style=" stroke:none;fill-rule:nonzero;fill:#ffa800;fill-opacity:1;" d="M 135.460938 34.597656 L 75 -0.308594 L 49.695312 14.300781 L 110.007812 49.121094 L 109.863281 49.378906 Z M 135.460938 34.597656 "/><g clip-rule="nonzero" clip-path="url(#1f9694fc26)"><path style=" stroke:none;fill-rule:nonzero;fill:#ffa800;fill-opacity:1;" d="M 79.117188 149.503906 L 140.902344 113.832031 L 140.902344 40.96875 L 79.117188 76.640625 Z M 99.710938 100.5 L 124.425781 86.230469 L 124.425781 102.703125 L 99.710938 116.972656 Z M 99.710938 100.5 "/></g></g></svg>