<svg xmlns="http://www.w3.org/2000/svg" xmlns:xlink="http://www.w3.org/1999/xlink" width="200" zoomAndPan="magnify" viewBox="0 0 150 157.92" height="200" preserveAspectRatio="xMidYMid meet" version="1.2"><defs><clipPath id="1e1bdf5a35"><path d="M 0.0390625 36.730469 L 149.960938 36.730469 L 149.960938 131 L 0.0390625 131 Z M 0.0390625 36.730469 "/></clipPath></defs><g id="2f4bbdf4c2"><g clip-rule="nonzero" clip-path="url(#1e1bdf5a35)"><path style=" stroke:none;fill-rule:nonzero;fill:#ffa800;fill-opacity:1;" d="M 137.363281 69.066406 C 136.757812 69.433594 136.3125 70.015625 136.113281 70.695312 L 133.078125 81.0625 L 87.484375 57.199219 C 87.078125 56.984375 86.625 56.878906 86.179688 56.878906 C 85.523438 56.878906 84.871094 57.109375 84.351562 57.546875 C 84.242188 57.640625 73.65625 66.625 64.597656 73.765625 C 59.746094 77.582031 55.253906 76.480469 52.664062 75.222656 L 67.660156 54.625 C 72.472656 48.007812 80.535156 44.339844 88.617188 45.066406 L 112.5625 47.648438 C 113.316406 47.742188 114.085938 47.503906 114.675781 47.011719 L 126.933594 36.789062 L 149.953125 61.507812 Z M 133.484375 97.9375 C 132.691406 98.550781 131.804688 98.953125 130.777344 99.167969 C 124.097656 100.542969 107.019531 93.546875 101.035156 90.71875 C 99.628906 90.054688 97.941406 90.652344 97.277344 92.066406 C 96.609375 93.476562 97.214844 95.160156 98.621094 95.824219 C 100.429688 96.679688 113.0625 102.527344 123.332031 104.390625 C 122.921875 106.035156 121.835938 109.300781 119.390625 110.976562 C 117.867188 112.019531 116.007812 112.292969 113.699219 111.769531 C 102.644531 109.320312 91 105.175781 90.882812 105.132812 C 89.410156 104.609375 87.800781 105.378906 87.277344 106.84375 C 86.753906 108.3125 87.515625 109.925781 88.984375 110.449219 C 89.433594 110.613281 99.339844 114.121094 109.824219 116.65625 C 109.015625 119.257812 106.726562 122.914062 100.132812 122.652344 C 88.640625 122.265625 82.179688 117.757812 82.125 117.722656 C 80.875 116.808594 79.101562 117.078125 78.183594 118.347656 C 77.265625 119.605469 77.542969 121.371094 78.804688 122.289062 C 79.027344 122.449219 82.847656 125.105469 89.675781 126.835938 C 85.949219 129.523438 80.039062 132.25 73.75 129.054688 C 71.574219 127.953125 69.976562 127.136719 68.804688 126.53125 C 71.820312 124.425781 73.738281 122.582031 73.914062 122.40625 C 74.167969 122.152344 74.371094 121.851562 74.515625 121.519531 C 74.707031 121.066406 76.339844 116.984375 74.261719 112.847656 C 72.914062 110.167969 70.335938 108.265625 66.714844 107.089844 C 65.746094 104.269531 63.0625 98.554688 57.300781 97.0625 C 57.054688 95.558594 56.441406 93.632812 54.988281 91.734375 C 52.691406 88.738281 48.96875 86.796875 44.054688 85.824219 C 43.101562 81.09375 37.191406 76.84375 33.558594 74.984375 C 33.558594 74.984375 33.558594 74.984375 33.554688 74.984375 C 27.136719 71.699219 13.097656 77.320312 6.558594 80.292969 L 0.046875 73.488281 L 26.683594 37.945312 L 38.671875 48.246094 C 39.191406 48.691406 39.78125 48.808594 40.546875 48.929688 L 65.308594 48.644531 C 64.527344 49.488281 63.777344 50.363281 63.09375 51.300781 L 46.339844 74.320312 C 45.46875 75.511719 45.664062 77.175781 46.789062 78.132812 C 50.351562 81.160156 59.375 85.070312 68.09375 78.199219 C 75.238281 72.570312 83.3125 65.808594 86.554688 63.082031 L 131.308594 86.488281 C 131.882812 86.71875 132.421875 87.023438 132.90625 87.386719 C 132.996094 87.464844 133.085938 87.535156 133.175781 87.601562 C 134.539062 88.730469 135.464844 90.359375 135.726562 92.183594 C 136.046875 94.488281 135.230469 96.582031 133.484375 97.9375 Z M 50.476562 127.554688 C 45.34375 127.703125 42.949219 125.667969 41.800781 123.835938 C 51.339844 122.117188 61.589844 114.992188 65.019531 112.441406 C 67.113281 113.121094 68.542969 114.082031 69.199219 115.347656 C 69.875 116.664062 69.644531 118.125 69.457031 118.84375 C 67.5 120.625 59.5625 127.300781 50.476562 127.554688 Z M 29.253906 114.328125 C 38.492188 112.921875 51.570312 104.792969 55.289062 102.382812 C 58.484375 102.867188 60.308594 106.179688 61.140625 108.277344 C 57.136719 111.1875 46.21875 118.539062 37.945312 118.589844 C 33.144531 118.550781 30.605469 116.34375 29.253906 114.328125 Z M 18.359375 102.101562 C 26.292969 100.757812 34.925781 95.835938 39.808594 93.042969 L 40.902344 92.417969 C 41.507812 92.078125 42.015625 91.675781 42.464844 91.238281 C 49.816406 92.53125 51.445312 96.074219 51.75 97.949219 C 45.964844 101.640625 33.242188 108.910156 26.714844 108.910156 C 22 108.910156 19.527344 104.898438 18.359375 102.101562 Z M 4.703125 90.234375 C 3.996094 88.539062 6.078125 86.835938 7.128906 86.246094 C 14.578125 82.679688 23.660156 79.5625 28.519531 79.5625 C 29.546875 79.5625 30.390625 79.703125 30.984375 80.007812 C 36.140625 82.652344 38.804688 86.253906 38.601562 87.121094 C 38.585938 87.160156 38.457031 87.316406 38.121094 87.503906 L 37.007812 88.140625 C 31.851562 91.085938 18.183594 98.921875 11.339844 96.320312 C 8.363281 95.1875 5.308594 91.691406 4.703125 90.234375 "/></g></g></svg>