<svg xmlns="http://www.w3.org/2000/svg" xmlns:xlink="http://www.w3.org/1999/xlink" width="200" zoomAndPan="magnify" viewBox="0 0 150 157.92" height="200" preserveAspectRatio="xMidYMid meet" version="1.2"><defs><clipPath id="a902ce3c65"><path d="M 69 12 L 149.960938 12 L 149.960938 144 L 69 144 Z M 69 12 "/></clipPath><clipPath id="3bda0bf160"><path d="M 44 6.183594 L 74 6.183594 L 74 25 L 44 25 Z M 44 6.183594 "/></clipPath><clipPath id="c312edd399"><path d="M 0.0390625 21 L 89 21 L 89 104 L 0.0390625 104 Z M 0.0390625 21 "/></clipPath></defs><g id="c0ede42c44"><g clip-rule="nonzero" clip-path="url(#a902ce3c65)"><path style=" stroke:none;fill-rule:nonzero;fill:#ffa800;fill-opacity:1;" d="M 127.605469 100.0625 C 129.042969 97.542969 130.300781 94.878906 131.347656 92.132812 C 132.484375 89.148438 133.371094 86.058594 133.984375 82.949219 L 134.464844 80.515625 L 150.027344 79.957031 L 149.261719 58.714844 L 133.699219 59.273438 L 133.046875 56.882812 C 132.214844 53.820312 131.101562 50.804688 129.753906 47.90625 C 128.515625 45.246094 127.066406 42.679688 125.453125 40.269531 L 124.070312 38.210938 L 134.679688 26.8125 L 119.121094 12.335938 L 108.515625 23.734375 L 106.359375 22.503906 C 106.15625 22.386719 105.949219 22.273438 105.746094 22.160156 C 103.40625 20.863281 100.953125 19.722656 98.4375 18.761719 C 96.023438 17.84375 93.542969 17.085938 91.039062 16.507812 L 90.9375 32.667969 C 91.191406 32.753906 91.449219 32.835938 91.699219 32.925781 C 92.320312 33.140625 92.933594 33.367188 93.53125 33.609375 C 98.003906 35.40625 102.085938 37.945312 105.625 41.09375 C 109.621094 44.644531 112.917969 48.972656 115.304688 53.875 C 115.582031 54.4375 115.855469 55.039062 116.117188 55.648438 C 118.128906 60.320312 119.246094 65.289062 119.429688 70.421875 C 119.609375 75.550781 118.859375 80.59375 117.183594 85.402344 C 116.972656 86.023438 116.742188 86.636719 116.5 87.230469 C 112.675781 96.765625 105.480469 104.5 96.234375 109.003906 C 95.675781 109.28125 95.070312 109.554688 94.464844 109.816406 C 91.769531 110.976562 88.980469 111.839844 86.117188 112.394531 C 84.664062 112.679688 83.191406 112.882812 81.695312 113.007812 C 81.03125 113.066406 69.210938 113.457031 69.210938 113.457031 L 70.300781 143.71875 L 91.398438 142.960938 L 90.835938 127.402344 L 93.226562 126.75 C 96.289062 125.914062 99.3125 124.800781 102.203125 123.453125 C 103.148438 123.015625 104.082031 122.542969 105.003906 122.054688 C 106.671875 121.164062 108.289062 120.195312 109.839844 119.152344 L 111.898438 117.769531 L 123.296875 128.378906 L 137.777344 112.820312 L 126.378906 102.214844 L 127.605469 100.0625 "/></g><g clip-rule="nonzero" clip-path="url(#3bda0bf160)"><path style=" stroke:none;fill-rule:nonzero;fill:#ffa800;fill-opacity:1;" d="M 51.570312 18.40625 C 52.453125 21.355469 54.558594 22.738281 57.460938 22.757812 C 58.585938 22.765625 59.683594 22.167969 60.578125 21.285156 C 61.34375 20.527344 61.6875 19.679688 61.726562 18.710938 C 61.738281 18.367188 62.132812 18.167969 62.410156 18.363281 C 62.570312 18.480469 62.632812 18.691406 62.597656 18.976562 C 62.5 19.757812 62.300781 20.4375 61.902344 21.257812 C 61.683594 21.710938 61.339844 22.140625 60.789062 22.539062 C 61.828125 23.5625 63.058594 23.84375 64.414062 23.996094 C 65.859375 24.160156 66.914062 23.457031 67.992188 22.738281 C 68.753906 23.59375 69.402344 24.121094 70.027344 24.363281 L 73.667969 21.574219 C 73.660156 21.394531 73.640625 21.210938 73.597656 21.023438 C 73.289062 19.570312 72.246094 18.878906 70.070312 18.722656 C 70.0625 17.367188 69.886719 16.054688 68.945312 14.941406 C 67.984375 13.8125 66.855469 12.976562 65.363281 12.800781 C 64.761719 12.734375 64.554688 12.503906 64.40625 11.9375 C 63.472656 8.378906 59.960938 6.164062 56.414062 6.839844 C 54.457031 7.210938 53.179688 8.542969 52.90625 10.523438 C 52.851562 10.921875 52.773438 11.308594 52.265625 11.234375 C 51.789062 11.167969 51.691406 10.753906 51.785156 10.375 C 51.984375 9.554688 52.140625 8.707031 52.648438 8.003906 C 50.808594 6.792969 48.289062 7.035156 46.394531 8.566406 C 44.640625 9.992188 43.910156 12.761719 44.746094 14.832031 C 45.839844 17.542969 47.898438 18.640625 51.570312 18.40625 "/></g><path style=" stroke:none;fill-rule:nonzero;fill:#ffa800;fill-opacity:1;" d="M 6.898438 47.027344 C 6.902344 47.824219 6.902344 48.628906 6.90625 49.425781 L 26.40625 49.425781 C 26.402344 48.574219 26.398438 47.769531 26.394531 47.027344 L 6.898438 47.027344 "/><path style=" stroke:none;fill-rule:nonzero;fill:#ffa800;fill-opacity:1;" d="M 26.441406 53.984375 C 26.433594 53.167969 26.425781 52.363281 26.421875 51.585938 L 6.910156 51.585938 C 6.914062 52.386719 6.914062 53.183594 6.917969 53.984375 L 26.441406 53.984375 "/><g clip-rule="nonzero" clip-path="url(#c312edd399)"><path style=" stroke:none;fill-rule:nonzero;fill:#ffa800;fill-opacity:1;" d="M 37.542969 87.941406 L 43.171875 87.941406 L 43.171875 94.761719 C 43.171875 95.242188 42.78125 95.632812 42.296875 95.632812 L 38.417969 95.632812 C 37.929688 95.632812 37.542969 95.242188 37.542969 94.761719 Z M 37.542969 77 C 37.542969 76.515625 37.929688 76.125 38.417969 76.125 L 42.296875 76.125 C 42.78125 76.125 43.171875 76.515625 43.171875 77 L 43.171875 83.816406 L 37.542969 83.816406 Z M 50.296875 87.941406 L 55.925781 87.941406 L 55.925781 94.761719 C 55.925781 95.242188 55.535156 95.632812 55.050781 95.632812 L 51.171875 95.632812 C 50.6875 95.632812 50.296875 95.242188 50.296875 94.761719 Z M 50.296875 77 C 50.296875 76.515625 50.6875 76.125 51.171875 76.125 L 55.050781 76.125 C 55.535156 76.125 55.925781 76.515625 55.925781 77 L 55.925781 83.816406 L 50.296875 83.816406 Z M 63.054688 87.941406 L 68.683594 87.941406 L 68.683594 94.761719 C 68.683594 95.242188 68.292969 95.632812 67.808594 95.632812 L 63.929688 95.632812 C 63.445312 95.632812 63.054688 95.242188 63.054688 94.761719 Z M 63.054688 77 C 63.054688 76.515625 63.445312 76.125 63.929688 76.125 L 67.808594 76.125 C 68.292969 76.125 68.683594 76.515625 68.683594 77 L 68.683594 83.816406 L 63.054688 83.816406 Z M 75.8125 87.941406 L 81.4375 87.941406 L 81.4375 94.761719 C 81.4375 95.242188 81.046875 95.632812 80.566406 95.632812 L 76.6875 95.632812 C 76.203125 95.632812 75.8125 95.242188 75.8125 94.761719 Z M 75.8125 77 C 75.8125 76.515625 76.203125 76.125 76.6875 76.125 L 80.566406 76.125 C 81.046875 76.125 81.4375 76.515625 81.4375 77 L 81.4375 83.816406 L 75.8125 83.816406 Z M 78.421875 63.253906 L 87.265625 63.253906 L 87.265625 65.496094 L 78.421875 65.496094 C 78.109375 65.496094 77.832031 65.367188 77.628906 65.164062 C 77.425781 64.964844 77.300781 64.683594 77.300781 64.371094 C 77.300781 63.753906 77.800781 63.253906 78.421875 63.253906 Z M 81.742188 59.078125 L 87.265625 59.078125 L 87.265625 61.320312 L 81.742188 61.320312 C 81.433594 61.320312 81.152344 61.195312 80.953125 60.992188 C 80.746094 60.789062 80.621094 60.511719 80.621094 60.203125 C 80.621094 59.582031 81.125 59.078125 81.742188 59.078125 Z M 84.058594 54.910156 L 87.265625 54.910156 L 87.265625 57.152344 L 84.058594 57.152344 C 83.75 57.152344 83.472656 57.023438 83.269531 56.820312 C 83.066406 56.621094 82.941406 56.339844 82.941406 56.027344 C 82.941406 55.410156 83.445312 54.910156 84.058594 54.910156 Z M 88.753906 103.039062 L 88.753906 43.683594 C 86.894531 44.488281 85.160156 45.242188 83.273438 46.058594 C 82.78125 38.886719 82.273438 31.863281 81.816406 24.828125 C 81.800781 24.578125 81.789062 24.351562 81.773438 24.144531 C 81.609375 21.828125 81.398438 21.796875 78.695312 21.792969 C 78.277344 21.792969 77.851562 21.796875 77.429688 21.800781 L 69.734375 27.707031 C 69.648438 29.527344 69.570312 31.523438 69.480469 33.570312 C 69.4375 34.726562 69.390625 35.894531 69.34375 37.058594 L 69.34375 37.105469 L 68.679688 49.289062 L 68.675781 49.320312 L 68.488281 52.800781 L 68 53.019531 L 67.527344 53.234375 L 67.519531 53.238281 C 66.359375 53.734375 64.882812 54.414062 63.429688 55.101562 L 63.371094 55.132812 L 59.769531 56.773438 L 59.769531 43.390625 C 52.199219 46.863281 44.832031 50.246094 37.335938 53.6875 L 37.324219 53.671875 L 35.601562 54.484375 C 35.320312 54.613281 35.039062 54.742188 34.757812 54.871094 L 34.757812 47.347656 C 34.757812 41.847656 34.773438 36.34375 34.753906 30.84375 C 34.738281 27.757812 33.097656 26.148438 29.992188 26.132812 C 26.554688 26.121094 23.113281 26.113281 19.679688 26.136719 C 16.761719 26.15625 15.054688 27.882812 15.03125 30.796875 C 15.019531 32.035156 15.027344 33.277344 15.027344 34.460938 C 9.15625 36.632812 7.152344 39.117188 6.917969 44.863281 L 26.347656 44.863281 C 26.007812 39.023438 23.703125 36.34375 17.703125 34.46875 C 17.703125 33.324219 17.757812 32.257812 17.699219 31.203125 C 17.597656 29.4375 18.359375 28.726562 20.140625 28.773438 C 23.386719 28.859375 26.644531 28.84375 29.890625 28.777344 C 31.578125 28.742188 32.300781 29.460938 32.292969 31.105469 C 32.277344 39.046875 32.289062 56.050781 32.289062 56.050781 L 31.0625 56.628906 C 30.628906 56.988281 30.546875 57.527344 30.539062 58.121094 C 30.535156 58.257812 30.535156 58.394531 30.535156 58.535156 C 30.5625 63.964844 30.546875 69.394531 30.546875 74.914062 L 26.589844 74.914062 C 26.640625 74.445312 26.535156 64.855469 26.457031 56.144531 L 6.925781 56.144531 C 6.941406 61.691406 6.964844 67.242188 6.980469 72.789062 L 6.980469 74.960938 L 0.0742188 74.960938 L 0.0742188 103.035156 L 12.402344 103.035156 L 12.402344 89.402344 C 12.402344 87.644531 13.121094 86.050781 14.269531 84.898438 C 15.425781 83.746094 17.019531 83.03125 18.777344 83.03125 C 22.296875 83.03125 25.152344 85.886719 25.152344 89.402344 L 25.152344 103.039062 L 88.753906 103.039062 "/></g><path style=" stroke:none;fill-rule:nonzero;fill:#ffa800;fill-opacity:1;" d="M 38.085938 33.125 L 54.863281 33.125 C 55.117188 33.125 55.320312 32.917969 55.320312 32.664062 L 55.320312 31.648438 C 55.320312 31.394531 55.117188 31.191406 54.863281 31.191406 L 38.085938 31.191406 C 37.832031 31.191406 37.628906 31.394531 37.628906 31.648438 L 37.628906 32.664062 C 37.628906 32.917969 37.832031 33.125 38.085938 33.125 "/><path style=" stroke:none;fill-rule:nonzero;fill:#ffa800;fill-opacity:1;" d="M 40.683594 41.367188 C 40.683594 41.210938 40.808594 41.082031 40.964844 41.082031 L 44.875 41.082031 C 45.035156 41.082031 45.164062 41.210938 45.164062 41.367188 L 45.164062 44.121094 C 45.164062 44.277344 45.035156 44.402344 44.875 44.402344 L 40.964844 44.402344 C 40.808594 44.402344 40.683594 44.277344 40.683594 44.121094 Z M 40.683594 36.265625 C 40.683594 36.109375 40.808594 35.980469 40.964844 35.980469 L 44.875 35.980469 C 45.035156 35.980469 45.164062 36.109375 45.164062 36.265625 L 45.164062 39.019531 C 45.164062 39.175781 45.035156 39.304688 44.875 39.304688 L 40.964844 39.304688 C 40.808594 39.304688 40.683594 39.175781 40.683594 39.019531 Z M 47.785156 41.367188 C 47.785156 41.210938 47.914062 41.082031 48.074219 41.082031 L 51.984375 41.082031 C 52.140625 41.082031 52.269531 41.210938 52.269531 41.367188 L 52.269531 44.121094 C 52.269531 44.277344 52.140625 44.402344 51.984375 44.402344 L 48.074219 44.402344 C 47.914062 44.402344 47.785156 44.277344 47.785156 44.121094 Z M 47.785156 36.265625 C 47.785156 36.109375 47.914062 35.980469 48.074219 35.980469 L 51.984375 35.980469 C 52.140625 35.980469 52.269531 36.109375 52.269531 36.265625 L 52.269531 39.019531 C 52.269531 39.175781 52.140625 39.304688 51.984375 39.304688 L 48.074219 39.304688 C 47.914062 39.304688 47.785156 39.175781 47.785156 39.019531 Z M 50.675781 45.777344 C 51.476562 45.410156 52.707031 44.847656 54.046875 44.230469 L 54.046875 33.972656 L 38.902344 33.972656 L 38.902344 51.183594 C 42.839844 49.371094 46.75 47.582031 50.675781 45.777344 "/></g></svg>