<svg xmlns="http://www.w3.org/2000/svg" xmlns:xlink="http://www.w3.org/1999/xlink" width="200" zoomAndPan="magnify" viewBox="0 0 150 157.92" height="200" preserveAspectRatio="xMidYMid meet" version="1.2"><defs><clipPath id="d258c62fd2"><path d="M 34 132 L 40 132 L 40 149.925781 L 34 149.925781 Z M 34 132 "/></clipPath><clipPath id="5d573cab46"><path d="M 58 132 L 64 132 L 64 149.925781 L 58 149.925781 Z M 58 132 "/></clipPath><clipPath id="1620cc7410"><path d="M 83 132 L 89 132 L 89 149.925781 L 83 149.925781 Z M 83 132 "/></clipPath><clipPath id="4403294263"><path d="M 107 132 L 113 132 L 113 149.925781 L 107 149.925781 Z M 107 132 "/></clipPath><clipPath id="b98edca1cb"><path d="M 132 132 L 138 132 L 138 149.925781 L 132 149.925781 Z M 132 132 "/></clipPath><clipPath id="da0d94e126"><path d="M 15.03125 0 L 144.714844 0 L 144.714844 36 L 15.03125 36 Z M 15.03125 0 "/></clipPath></defs><g id="09305d776d"><path style=" stroke:none;fill-rule:nonzero;fill:#ffa800;fill-opacity:1;" d="M 22.550781 138.597656 C 22.554688 139.964844 23.699219 141.105469 25.070312 141.101562 C 26.46875 141.09375 27.574219 139.949219 27.570312 138.582031 L 27.53125 126.871094 C 27.527344 125.488281 26.410156 124.363281 25.011719 124.367188 C 23.644531 124.371094 22.503906 125.503906 22.511719 126.886719 L 22.550781 138.597656 "/><path style=" stroke:none;fill-rule:nonzero;fill:#ffa800;fill-opacity:1;" d="M 24.84375 74.1875 C 26.242188 74.183594 27.347656 73.039062 27.34375 71.667969 L 27.304688 59.957031 C 27.300781 58.5625 26.183594 57.453125 24.785156 57.457031 C 23.417969 57.460938 22.277344 58.578125 22.285156 59.976562 L 22.324219 71.6875 C 22.328125 73.054688 23.472656 74.191406 24.84375 74.1875 "/><path style=" stroke:none;fill-rule:nonzero;fill:#ffa800;fill-opacity:1;" d="M 22.4375 105.136719 C 22.441406 106.515625 23.585938 107.640625 24.957031 107.636719 C 26.355469 107.632812 27.460938 106.5 27.457031 105.117188 L 27.433594 98.429688 C 27.429688 97.042969 26.3125 95.921875 24.914062 95.925781 C 23.546875 95.929688 22.410156 97.0625 22.414062 98.445312 L 22.4375 105.136719 "/><path style=" stroke:none;fill-rule:nonzero;fill:#ffa800;fill-opacity:1;" d="M 36.582031 82.792969 C 37.980469 82.789062 39.089844 81.65625 39.085938 80.273438 L 39.042969 68.5625 C 39.039062 67.179688 37.921875 66.054688 36.523438 66.0625 C 35.15625 66.066406 34.019531 67.195312 34.023438 68.582031 L 34.0625 80.289062 C 34.066406 81.671875 35.214844 82.796875 36.582031 82.792969 "/><g clip-rule="nonzero" clip-path="url(#d258c62fd2)"><path style=" stroke:none;fill-rule:nonzero;fill:#ffa800;fill-opacity:1;" d="M 34.289062 147.203125 C 34.292969 148.601562 35.441406 149.710938 36.808594 149.703125 C 38.207031 149.699219 39.316406 148.582031 39.3125 147.183594 L 39.273438 135.476562 C 39.265625 134.09375 38.148438 132.96875 36.753906 132.972656 C 35.382812 132.976562 34.246094 134.109375 34.25 135.492188 L 34.289062 147.203125 "/></g><path style=" stroke:none;fill-rule:nonzero;fill:#ffa800;fill-opacity:1;" d="M 34.175781 113.753906 C 34.179688 115.136719 35.328125 116.261719 36.695312 116.253906 C 38.09375 116.25 39.203125 115.121094 39.199219 113.738281 L 39.175781 107.03125 C 39.171875 105.648438 38.054688 104.539062 36.65625 104.546875 C 35.289062 104.550781 34.148438 105.667969 34.152344 107.050781 L 34.175781 113.753906 "/><path style=" stroke:none;fill-rule:nonzero;fill:#ffa800;fill-opacity:1;" d="M 47.097656 138.515625 C 47.105469 139.882812 48.21875 141.023438 49.617188 141.019531 C 51 141.011719 52.125 139.867188 52.121094 138.5 L 52.078125 126.785156 C 52.074219 125.402344 50.945312 124.28125 49.5625 124.285156 C 48.164062 124.289062 47.054688 125.421875 47.058594 126.804688 L 47.097656 138.515625 "/><path style=" stroke:none;fill-rule:nonzero;fill:#ffa800;fill-opacity:1;" d="M 49.390625 74.105469 C 50.773438 74.101562 51.898438 72.953125 51.894531 71.585938 L 51.851562 59.875 C 51.847656 58.476562 50.71875 57.367188 49.335938 57.375 C 47.9375 57.378906 46.828125 58.496094 46.832031 59.890625 L 46.871094 71.601562 C 46.875 72.972656 47.992188 74.109375 49.390625 74.105469 "/><path style=" stroke:none;fill-rule:nonzero;fill:#ffa800;fill-opacity:1;" d="M 46.984375 105.050781 C 46.988281 106.433594 48.105469 107.558594 49.503906 107.554688 C 50.886719 107.550781 52.011719 106.417969 52.007812 105.035156 L 51.984375 98.34375 C 51.980469 96.960938 50.847656 95.839844 49.464844 95.84375 C 48.066406 95.847656 46.957031 96.980469 46.960938 98.363281 L 46.984375 105.050781 "/><path style=" stroke:none;fill-rule:nonzero;fill:#ffa800;fill-opacity:1;" d="M 58.726562 113.671875 C 58.730469 115.054688 59.847656 116.179688 61.246094 116.171875 C 62.628906 116.167969 63.75 115.035156 63.746094 113.652344 L 63.722656 106.949219 C 63.71875 105.566406 62.589844 104.457031 61.203125 104.460938 C 59.808594 104.464844 58.699219 105.582031 58.703125 106.96875 L 58.726562 113.671875 "/><g clip-rule="nonzero" clip-path="url(#5d573cab46)"><path style=" stroke:none;fill-rule:nonzero;fill:#ffa800;fill-opacity:1;" d="M 58.839844 147.117188 C 58.84375 148.515625 59.960938 149.625 61.359375 149.621094 C 62.742188 149.617188 63.863281 148.5 63.859375 147.101562 L 63.820312 135.390625 C 63.816406 134.007812 62.683594 132.886719 61.300781 132.890625 C 59.902344 132.894531 58.792969 134.027344 58.800781 135.410156 L 58.839844 147.117188 "/></g><path style=" stroke:none;fill-rule:nonzero;fill:#ffa800;fill-opacity:1;" d="M 61.132812 82.710938 C 62.515625 82.703125 63.636719 81.574219 63.632812 80.191406 L 63.59375 68.480469 C 63.589844 67.097656 62.457031 65.972656 61.074219 65.976562 C 59.675781 65.980469 58.566406 67.113281 58.570312 68.496094 L 58.613281 80.207031 C 58.617188 81.589844 59.734375 82.714844 61.132812 82.710938 "/><path style=" stroke:none;fill-rule:nonzero;fill:#ffa800;fill-opacity:1;" d="M 71.632812 138.433594 C 71.636719 139.800781 72.769531 140.9375 74.152344 140.933594 C 75.519531 140.929688 76.660156 139.785156 76.652344 138.414062 L 76.613281 126.703125 C 76.609375 125.320312 75.464844 124.195312 74.09375 124.203125 C 72.710938 124.207031 71.589844 125.339844 71.59375 126.722656 L 71.632812 138.433594 "/><path style=" stroke:none;fill-rule:nonzero;fill:#ffa800;fill-opacity:1;" d="M 71.519531 104.96875 C 71.523438 106.351562 72.65625 107.476562 74.039062 107.46875 C 75.40625 107.464844 76.546875 106.335938 76.539062 104.949219 L 76.515625 98.261719 C 76.511719 96.878906 75.367188 95.753906 74 95.761719 C 72.617188 95.765625 71.492188 96.894531 71.496094 98.277344 L 71.519531 104.96875 "/><path style=" stroke:none;fill-rule:nonzero;fill:#ffa800;fill-opacity:1;" d="M 73.925781 74.023438 C 75.292969 74.015625 76.429688 72.871094 76.425781 71.503906 L 76.386719 59.792969 C 76.382812 58.394531 75.234375 57.285156 73.867188 57.292969 C 72.484375 57.292969 71.363281 58.410156 71.367188 59.808594 L 71.40625 71.519531 C 71.410156 72.886719 72.542969 74.027344 73.925781 74.023438 "/><g clip-rule="nonzero" clip-path="url(#1620cc7410)"><path style=" stroke:none;fill-rule:nonzero;fill:#ffa800;fill-opacity:1;" d="M 83.371094 147.035156 C 83.378906 148.433594 84.507812 149.542969 85.890625 149.539062 C 87.261719 149.53125 88.398438 148.417969 88.394531 147.019531 L 88.355469 135.308594 C 88.347656 133.925781 87.203125 132.800781 85.835938 132.804688 C 84.453125 132.8125 83.328125 133.941406 83.332031 135.324219 L 83.371094 147.035156 "/></g><path style=" stroke:none;fill-rule:nonzero;fill:#ffa800;fill-opacity:1;" d="M 83.257812 113.589844 C 83.265625 114.972656 84.394531 116.09375 85.777344 116.089844 C 87.144531 116.085938 88.285156 114.953125 88.28125 113.570312 L 88.257812 106.867188 C 88.253906 105.480469 87.105469 104.375 85.738281 104.378906 C 84.355469 104.382812 83.230469 105.5 83.238281 106.882812 L 83.257812 113.589844 "/><path style=" stroke:none;fill-rule:nonzero;fill:#ffa800;fill-opacity:1;" d="M 85.664062 82.628906 C 87.03125 82.621094 88.171875 81.492188 88.167969 80.109375 L 88.128906 68.394531 C 88.121094 67.011719 86.976562 65.890625 85.609375 65.894531 C 84.226562 65.898438 83.101562 67.03125 83.105469 68.414062 L 83.144531 80.125 C 83.152344 81.507812 84.28125 82.632812 85.664062 82.628906 "/><path style=" stroke:none;fill-rule:nonzero;fill:#ffa800;fill-opacity:1;" d="M 98.457031 73.9375 C 99.839844 73.933594 100.949219 72.789062 100.945312 71.421875 L 100.90625 59.707031 C 100.902344 58.3125 99.785156 57.203125 98.402344 57.207031 C 97.019531 57.210938 95.894531 58.328125 95.898438 59.726562 L 95.941406 71.4375 C 95.945312 72.804688 97.074219 73.945312 98.457031 73.9375 "/><path style=" stroke:none;fill-rule:nonzero;fill:#ffa800;fill-opacity:1;" d="M 96.167969 138.347656 C 96.171875 139.71875 97.300781 140.855469 98.6875 140.851562 C 100.070312 140.847656 101.175781 139.699219 101.171875 138.332031 L 101.132812 126.621094 C 101.128906 125.238281 100.011719 124.113281 98.628906 124.121094 C 97.246094 124.125 96.121094 125.253906 96.128906 126.636719 L 96.167969 138.347656 "/><path style=" stroke:none;fill-rule:nonzero;fill:#ffa800;fill-opacity:1;" d="M 96.054688 104.886719 C 96.058594 106.269531 97.1875 107.390625 98.570312 107.386719 C 99.957031 107.382812 101.0625 106.25 101.058594 104.867188 L 101.035156 98.179688 C 101.03125 96.796875 99.914062 95.671875 98.53125 95.675781 C 97.148438 95.679688 96.027344 96.8125 96.03125 98.195312 L 96.054688 104.886719 "/><path style=" stroke:none;fill-rule:nonzero;fill:#ffa800;fill-opacity:1;" d="M 110.199219 82.542969 C 111.582031 82.539062 112.691406 81.40625 112.6875 80.023438 L 112.644531 68.3125 C 112.640625 66.929688 111.523438 65.804688 110.140625 65.8125 C 108.757812 65.816406 107.636719 66.949219 107.640625 68.332031 L 107.679688 80.042969 C 107.683594 81.425781 108.816406 82.546875 110.199219 82.542969 "/><g clip-rule="nonzero" clip-path="url(#4403294263)"><path style=" stroke:none;fill-rule:nonzero;fill:#ffa800;fill-opacity:1;" d="M 107.90625 146.953125 C 107.910156 148.351562 109.042969 149.460938 110.425781 149.457031 C 111.808594 149.449219 112.917969 148.335938 112.914062 146.9375 L 112.871094 135.226562 C 112.867188 133.84375 111.753906 132.71875 110.371094 132.722656 C 108.984375 132.726562 107.863281 133.859375 107.867188 135.242188 L 107.90625 146.953125 "/></g><path style=" stroke:none;fill-rule:nonzero;fill:#ffa800;fill-opacity:1;" d="M 107.792969 113.503906 C 107.796875 114.886719 108.929688 116.011719 110.3125 116.007812 C 111.695312 116.003906 112.804688 114.871094 112.800781 113.488281 L 112.777344 106.78125 C 112.773438 105.398438 111.65625 104.289062 110.273438 104.296875 C 108.890625 104.300781 107.765625 105.417969 107.769531 106.800781 L 107.792969 113.503906 "/><path style=" stroke:none;fill-rule:nonzero;fill:#ffa800;fill-opacity:1;" d="M 122.992188 73.855469 C 124.375 73.851562 125.5 72.703125 125.496094 71.335938 L 125.453125 59.625 C 125.449219 58.226562 124.320312 57.117188 122.933594 57.125 C 121.550781 57.128906 120.429688 58.246094 120.433594 59.644531 L 120.472656 71.355469 C 120.480469 72.722656 121.609375 73.859375 122.992188 73.855469 "/><path style=" stroke:none;fill-rule:nonzero;fill:#ffa800;fill-opacity:1;" d="M 120.699219 138.265625 C 120.707031 139.632812 121.835938 140.773438 123.21875 140.769531 C 124.601562 140.761719 125.726562 139.617188 125.722656 138.25 L 125.683594 126.539062 C 125.675781 125.15625 124.546875 124.03125 123.164062 124.035156 C 121.78125 124.039062 120.65625 125.171875 120.660156 126.554688 L 120.699219 138.265625 "/><path style=" stroke:none;fill-rule:nonzero;fill:#ffa800;fill-opacity:1;" d="M 120.585938 104.800781 C 120.59375 106.183594 121.722656 107.308594 123.105469 107.304688 C 124.488281 107.300781 125.613281 106.167969 125.609375 104.785156 L 125.585938 98.09375 C 125.582031 96.710938 124.449219 95.589844 123.066406 95.59375 C 121.683594 95.597656 120.558594 96.730469 120.566406 98.113281 L 120.585938 104.800781 "/><path style=" stroke:none;fill-rule:nonzero;fill:#ffa800;fill-opacity:1;" d="M 134.734375 82.460938 C 136.117188 82.457031 137.238281 81.324219 137.234375 79.941406 L 137.195312 68.230469 C 137.191406 66.847656 136.058594 65.722656 134.675781 65.730469 C 133.292969 65.734375 132.167969 66.863281 132.171875 68.246094 L 132.214844 79.957031 C 132.21875 81.339844 133.351562 82.464844 134.734375 82.460938 "/><g clip-rule="nonzero" clip-path="url(#b98edca1cb)"><path style=" stroke:none;fill-rule:nonzero;fill:#ffa800;fill-opacity:1;" d="M 132.441406 146.871094 C 132.445312 148.269531 133.574219 149.375 134.957031 149.371094 C 136.34375 149.367188 137.464844 148.25 137.460938 146.851562 L 137.421875 135.144531 C 137.417969 133.757812 136.285156 132.636719 134.902344 132.640625 C 133.519531 132.644531 132.394531 133.777344 132.402344 135.160156 L 132.441406 146.871094 "/></g><path style=" stroke:none;fill-rule:nonzero;fill:#ffa800;fill-opacity:1;" d="M 132.328125 113.421875 C 132.332031 114.804688 133.464844 115.929688 134.847656 115.921875 C 136.226562 115.917969 137.351562 114.789062 137.347656 113.40625 L 137.324219 106.699219 C 137.320312 105.316406 136.191406 104.207031 134.808594 104.214844 C 133.421875 104.21875 132.300781 105.335938 132.304688 106.71875 L 132.328125 113.421875 "/><g clip-rule="nonzero" clip-path="url(#da0d94e126)"><path style=" stroke:none;fill-rule:nonzero;fill:#ffa800;fill-opacity:1;" d="M 144.707031 28.324219 L 144.707031 35.507812 C 144.707031 34.269531 144.046875 33.066406 142.796875 31.917969 C 141.417969 30.644531 139.324219 29.441406 136.617188 28.324219 C 135.148438 27.71875 133.496094 27.136719 131.679688 26.582031 L 131.675781 26.582031 C 131.148438 26.421875 130.605469 26.265625 130.046875 26.109375 C 129.792969 26.039062 129.527344 25.964844 129.265625 25.898438 C 129 25.824219 128.734375 25.75 128.460938 25.6875 C 127.71875 25.492188 126.953125 25.304688 126.171875 25.125 C 126.042969 25.089844 125.910156 25.0625 125.777344 25.03125 C 125.539062 24.972656 125.304688 24.917969 125.058594 24.871094 C 124.996094 24.851562 124.929688 24.835938 124.859375 24.828125 C 124.5 24.742188 124.132812 24.664062 123.757812 24.585938 C 123.667969 24.566406 123.574219 24.546875 123.476562 24.527344 C 123.242188 24.472656 123.003906 24.425781 122.761719 24.382812 C 122.675781 24.363281 122.589844 24.347656 122.507812 24.332031 C 122.140625 24.253906 121.761719 24.179688 121.386719 24.113281 C 121.007812 24.039062 120.628906 23.964844 120.246094 23.894531 C 120.136719 23.878906 120.027344 23.855469 119.917969 23.839844 C 119.476562 23.761719 119.03125 23.679688 118.582031 23.601562 C 118.132812 23.523438 117.675781 23.453125 117.214844 23.378906 C 116.800781 23.308594 116.378906 23.242188 115.953125 23.175781 C 115.367188 23.082031 114.769531 22.996094 114.167969 22.914062 C 113.261719 22.78125 112.34375 22.660156 111.410156 22.539062 C 111.023438 22.488281 110.628906 22.4375 110.234375 22.394531 C 109.867188 22.351562 109.496094 22.308594 109.121094 22.261719 C 108.941406 22.238281 108.757812 22.21875 108.566406 22.199219 C 108.246094 22.160156 107.925781 22.125 107.601562 22.089844 C 107.074219 22.03125 106.535156 21.976562 105.996094 21.921875 C 105.800781 21.90625 105.605469 21.886719 105.410156 21.867188 C 103.121094 21.636719 100.761719 21.441406 98.34375 21.277344 C 97.90625 21.25 97.472656 21.21875 97.03125 21.191406 C 95.082031 21.070312 93.089844 20.96875 91.0625 20.886719 C 90.335938 20.859375 89.605469 20.828125 88.867188 20.808594 C 87.667969 20.769531 86.453125 20.742188 85.230469 20.714844 C 84.648438 20.707031 84.058594 20.695312 83.472656 20.691406 C 82.285156 20.675781 81.082031 20.667969 79.871094 20.667969 C 78.664062 20.667969 77.460938 20.675781 76.269531 20.691406 C 75.683594 20.695312 75.097656 20.707031 74.515625 20.714844 C 73.292969 20.742188 72.078125 20.769531 70.878906 20.808594 C 70.140625 20.828125 69.410156 20.859375 68.683594 20.886719 C 66.65625 20.96875 64.664062 21.070312 62.710938 21.191406 C 62.273438 21.21875 61.835938 21.25 61.402344 21.277344 C 58.984375 21.441406 56.625 21.636719 54.335938 21.867188 C 54.140625 21.886719 53.945312 21.90625 53.746094 21.921875 C 53.210938 21.976562 52.671875 22.03125 52.144531 22.089844 C 51.820312 22.125 51.496094 22.160156 51.179688 22.199219 C 50.988281 22.21875 50.800781 22.238281 50.621094 22.261719 C 50.25 22.308594 49.878906 22.351562 49.511719 22.394531 C 49.113281 22.4375 48.722656 22.488281 48.335938 22.539062 C 47.402344 22.660156 46.480469 22.78125 45.578125 22.914062 C 44.972656 22.996094 44.378906 23.082031 43.789062 23.175781 C 43.363281 23.242188 42.945312 23.308594 42.527344 23.378906 C 42.066406 23.453125 41.613281 23.523438 41.164062 23.601562 C 40.710938 23.679688 40.269531 23.761719 39.828125 23.839844 C 39.71875 23.855469 39.605469 23.878906 39.5 23.894531 C 39.117188 23.964844 38.734375 24.039062 38.359375 24.113281 C 37.980469 24.179688 37.605469 24.253906 37.238281 24.332031 C 37.15625 24.347656 37.066406 24.363281 36.984375 24.382812 C 36.738281 24.425781 36.503906 24.472656 36.269531 24.527344 C 36.171875 24.546875 36.078125 24.566406 35.984375 24.585938 C 35.613281 24.664062 35.246094 24.742188 34.882812 24.828125 C 34.816406 24.835938 34.746094 24.851562 34.683594 24.871094 C 34.4375 24.917969 34.203125 24.972656 33.964844 25.03125 C 33.832031 25.0625 33.699219 25.089844 33.574219 25.125 C 32.789062 25.304688 32.027344 25.492188 31.285156 25.6875 C 31.007812 25.75 30.746094 25.824219 30.480469 25.898438 C 30.21875 25.964844 29.953125 26.039062 29.699219 26.109375 C 29.140625 26.265625 28.597656 26.421875 28.070312 26.582031 L 28.0625 26.582031 C 26.25 27.136719 24.59375 27.71875 23.125 28.324219 C 20.421875 29.441406 18.328125 30.644531 16.945312 31.917969 C 15.699219 33.066406 15.039062 34.269531 15.039062 35.507812 L 15.039062 28.324219 C 15.039062 22.007812 32.28125 16.613281 56.582031 14.472656 C 56.914062 12.785156 57.75 11.273438 58.925781 10.097656 C 60.472656 8.546875 62.613281 7.585938 64.976562 7.585938 L 72.675781 7.585938 L 72.675781 0.00390625 L 88.710938 0.00390625 L 88.710938 7.585938 L 96.40625 7.585938 C 100.609375 7.585938 104.113281 10.625 104.828125 14.625 C 128.246094 16.859375 144.707031 22.15625 144.707031 28.324219 "/></g><path style=" stroke:none;fill-rule:nonzero;fill:#ffa800;fill-opacity:1;" d="M 142.738281 37.957031 C 142.738281 44.789062 114.59375 50.324219 79.871094 50.324219 C 45.152344 50.324219 17.007812 44.789062 17.007812 37.957031 C 17.007812 31.125 45.152344 25.585938 79.871094 25.585938 C 114.59375 25.585938 142.738281 31.125 142.738281 37.957031 "/></g></svg>