<svg xmlns="http://www.w3.org/2000/svg" xmlns:xlink="http://www.w3.org/1999/xlink" width="200" zoomAndPan="magnify" viewBox="0 0 150 157.92" height="200" preserveAspectRatio="xMidYMid meet" version="1.2"><defs><clipPath id="d6b8e03233"><path d="M 12.40625 0 L 108 0 L 108 147 L 12.40625 147 Z M 12.40625 0 "/></clipPath><clipPath id="363c951b79"><path d="M 79 77 L 137.59375 77 L 137.59375 149.925781 L 79 149.925781 Z M 79 77 "/></clipPath></defs><g id="5a416c3376"><g clip-rule="nonzero" clip-path="url(#d6b8e03233)"><path style=" stroke:none;fill-rule:nonzero;fill:#ffa800;fill-opacity:1;" d="M 86.414062 139.789062 C 86.386719 139.761719 86.359375 139.730469 86.332031 139.703125 C 86.171875 139.519531 86.011719 139.335938 85.851562 139.148438 C 85.824219 139.117188 85.792969 139.082031 85.765625 139.050781 C 85.605469 138.863281 85.449219 138.675781 85.292969 138.484375 C 85.273438 138.460938 85.253906 138.433594 85.234375 138.410156 C 85.074219 138.21875 84.917969 138.023438 84.765625 137.824219 C 84.757812 137.816406 84.753906 137.808594 84.746094 137.800781 C 84.589844 137.601562 84.4375 137.402344 84.289062 137.203125 C 84.261719 137.171875 84.238281 137.140625 84.214844 137.105469 C 84.070312 136.914062 83.929688 136.71875 83.789062 136.523438 C 83.761719 136.488281 83.734375 136.449219 83.710938 136.414062 C 83.570312 136.214844 83.429688 136.015625 83.292969 135.816406 C 83.273438 135.789062 83.253906 135.761719 83.238281 135.734375 C 83.097656 135.527344 82.957031 135.320312 82.824219 135.113281 C 82.820312 135.105469 82.8125 135.101562 82.808594 135.09375 C 82.671875 134.882812 82.539062 134.671875 82.40625 134.460938 C 82.386719 134.425781 82.367188 134.394531 82.34375 134.359375 C 82.21875 134.15625 82.09375 133.949219 81.972656 133.742188 C 81.949219 133.703125 81.925781 133.664062 81.902344 133.625 C 81.78125 133.417969 81.660156 133.210938 81.542969 133 C 81.523438 132.96875 81.507812 132.9375 81.492188 132.90625 C 81.367188 132.691406 81.25 132.472656 81.132812 132.25 C 81.128906 132.246094 81.125 132.242188 81.125 132.238281 C 81.007812 132.015625 80.890625 131.792969 80.777344 131.570312 C 80.761719 131.535156 80.742188 131.5 80.726562 131.46875 C 80.617188 131.253906 80.511719 131.035156 80.40625 130.820312 C 80.386719 130.777344 80.367188 130.738281 80.347656 130.695312 C 80.246094 130.480469 80.144531 130.261719 80.042969 130.039062 C 80.03125 130.007812 80.015625 129.972656 80 129.941406 C 79.894531 129.710938 79.792969 129.476562 79.695312 129.242188 C 79.246094 128.1875 78.847656 127.113281 78.496094 126.019531 C 78.394531 125.707031 78.296875 125.394531 78.207031 125.078125 C 78.066406 124.605469 77.9375 124.128906 77.816406 123.648438 C 77.738281 123.332031 77.660156 123.011719 77.585938 122.6875 C 77.371094 121.722656 77.1875 120.742188 77.042969 119.753906 C 76.996094 119.425781 76.949219 119.09375 76.910156 118.761719 C 76.828125 118.097656 76.765625 117.429688 76.714844 116.753906 C 76.640625 115.742188 76.605469 114.722656 76.605469 113.695312 L 76.605469 85.902344 C 76.605469 85.742188 76.632812 85.585938 76.679688 85.4375 C 76.753906 85.21875 76.875 85.023438 77.039062 84.859375 C 77.144531 84.753906 77.269531 84.660156 77.410156 84.589844 C 77.480469 84.554688 77.554688 84.523438 77.628906 84.5 L 107.378906 75.023438 C 102.316406 60.558594 93.453125 42.433594 83.421875 26.074219 C 78.675781 18.339844 74.125 11.765625 70.261719 7.070312 C 64.609375 0.199219 62.570312 0 62.355469 0 C 62.074219 0 59.386719 0.304688 51.503906 10.808594 C 46.214844 17.859375 40.136719 27.457031 34.390625 37.835938 C 28.171875 49.066406 22.859375 60.246094 19.023438 70.167969 C 14.707031 81.34375 12.425781 90.617188 12.425781 96.984375 C 12.425781 103.71875 13.742188 110.25 16.34375 116.394531 C 18.855469 122.335938 22.449219 127.667969 27.03125 132.25 C 31.613281 136.832031 36.945312 140.425781 42.886719 142.941406 C 49.035156 145.539062 55.566406 146.859375 62.300781 146.859375 C 70.972656 146.859375 79.449219 144.617188 86.933594 140.359375 C 86.929688 140.359375 86.929688 140.355469 86.925781 140.355469 C 86.753906 140.167969 86.582031 139.980469 86.414062 139.789062 Z M 37.382812 130.082031 C 37.089844 130.441406 36.667969 130.625 36.238281 130.625 C 35.914062 130.625 35.585938 130.519531 35.3125 130.296875 C 34.070312 129.289062 32.863281 128.199219 31.722656 127.058594 C 27.484375 122.820312 24.160156 117.890625 21.839844 112.402344 C 19.4375 106.722656 18.21875 100.6875 18.21875 94.460938 C 18.21875 93.652344 18.878906 92.992188 19.691406 92.992188 C 20.5 92.992188 21.160156 93.652344 21.160156 94.460938 C 21.160156 100.292969 22.300781 105.941406 24.546875 111.257812 C 26.722656 116.394531 29.832031 121.011719 33.800781 124.976562 C 34.871094 126.046875 36.003906 127.070312 37.167969 128.015625 C 37.796875 128.527344 37.894531 129.453125 37.382812 130.082031 Z M 48.300781 136.15625 C 48.0625 136.71875 47.519531 137.054688 46.945312 137.054688 C 46.753906 137.054688 46.5625 137.015625 46.375 136.9375 C 44.570312 136.175781 42.804688 135.292969 41.125 134.3125 C 40.425781 133.90625 40.1875 133.003906 40.59375 132.304688 C 41.003906 131.601562 41.90625 131.363281 42.605469 131.773438 C 44.179688 132.691406 45.832031 133.515625 47.519531 134.230469 C 48.265625 134.546875 48.617188 135.410156 48.300781 136.15625 Z M 48.300781 136.15625 "/></g><g clip-rule="nonzero" clip-path="url(#363c951b79)"><path style=" stroke:none;fill-rule:nonzero;fill:#ffa800;fill-opacity:1;" d="M 108.980469 77.863281 C 108.980469 77.863281 108.980469 77.863281 108.976562 77.863281 L 108.5625 77.730469 L 79.546875 86.976562 L 79.546875 113.695312 C 79.546875 114.011719 79.550781 114.328125 79.558594 114.644531 C 79.671875 119.390625 80.625 123.910156 82.402344 128.09375 C 84.226562 132.394531 86.890625 136.273438 90.316406 139.617188 C 90.316406 139.621094 90.316406 139.621094 90.316406 139.621094 C 95.148438 144.339844 101.449219 147.898438 108.5625 149.925781 C 117.105469 147.492188 124.3125 142.953125 129.425781 136.777344 C 134.761719 130.34375 137.578125 122.359375 137.578125 113.695312 L 137.578125 86.976562 Z M 124.863281 106.890625 L 108.777344 122.183594 C 108.152344 122.78125 107.324219 123.109375 106.460938 123.109375 C 106.414062 123.109375 106.367188 123.109375 106.316406 123.105469 C 105.40625 123.066406 104.550781 122.660156 103.945312 121.976562 L 97.183594 114.324219 C 95.953125 112.933594 96.085938 110.808594 97.476562 109.582031 C 98.867188 108.351562 100.988281 108.484375 102.21875 109.875 L 106.671875 114.914062 L 120.234375 102.019531 C 121.578125 100.742188 123.703125 100.792969 124.984375 102.140625 C 126.261719 103.484375 126.207031 105.609375 124.863281 106.890625 Z M 124.863281 106.890625 "/></g></g></svg>