<svg xmlns="http://www.w3.org/2000/svg" xmlns:xlink="http://www.w3.org/1999/xlink" width="200" zoomAndPan="magnify" viewBox="0 0 150 157.92" height="200" preserveAspectRatio="xMidYMid meet" version="1.2"><defs><clipPath id="273abb9d0c"><path d="M 0.0390625 91 L 149.960938 91 L 149.960938 146 L 0.0390625 146 Z M 0.0390625 91 "/></clipPath></defs><g id="70e61d1ce7"><path style=" stroke:none;fill-rule:evenodd;fill:#ffa800;fill-opacity:1;" d="M 62.382812 76.0625 C 54.90625 76.0625 47.609375 74.652344 40.839844 72.015625 C 47.082031 63.925781 52.886719 53.8125 56.136719 48.714844 C 56.667969 47.835938 56.667969 46.691406 56.136719 45.902344 C 52.445312 40.097656 46.113281 30.074219 39.429688 23.125 C 46.554688 20.136719 54.378906 18.464844 62.382812 18.464844 C 82.695312 18.464844 101.421875 28.753906 112.328125 45.902344 C 112.855469 46.691406 112.855469 47.835938 112.328125 48.714844 C 101.421875 65.859375 82.695312 76.0625 62.382812 76.0625 Z M 35.914062 49.945312 L 32.660156 49.945312 C 31.253906 49.945312 30.023438 48.714844 30.023438 47.308594 C 30.023438 45.8125 31.253906 44.667969 32.660156 44.667969 L 35.914062 44.667969 C 37.410156 44.667969 38.550781 45.8125 38.550781 47.308594 C 38.550781 48.714844 37.410156 49.945312 35.914062 49.945312 Z M 36.179688 69.992188 C 26.679688 65.332031 18.414062 58.035156 12.4375 48.714844 C 11.910156 47.835938 11.910156 46.691406 12.4375 45.902344 C 18.0625 37.019531 25.800781 30.074219 34.683594 25.324219 C 40.839844 31.566406 47.257812 42.382812 50.773438 47.308594 C 47.695312 51.527344 41.980469 62.34375 36.179688 69.992188 Z M 91.398438 49.945312 C 90.519531 49.945312 89.640625 49.503906 89.113281 48.714844 C 83.308594 39.480469 73.285156 34.03125 62.382812 34.03125 C 60.976562 34.03125 59.742188 32.886719 59.742188 31.390625 C 59.742188 29.984375 60.976562 28.753906 62.382812 28.753906 C 75.042969 28.753906 86.738281 35.171875 93.597656 45.902344 C 94.390625 47.042969 94.039062 48.714844 92.804688 49.503906 C 92.367188 49.769531 91.839844 49.945312 91.398438 49.945312 Z M 91.398438 49.945312 "/><path style=" stroke:none;fill-rule:evenodd;fill:#ffa800;fill-opacity:1;" d="M 135.277344 75.269531 C 134.835938 75.269531 134.398438 75.183594 133.957031 74.917969 L 109.777344 60.671875 C 112.328125 57.859375 114.703125 54.871094 116.8125 51.527344 C 118.480469 48.976562 118.480469 45.636719 116.8125 43 C 114.703125 39.746094 112.328125 36.667969 109.777344 33.855469 L 133.957031 19.609375 C 135.101562 18.992188 136.597656 19.257812 137.386719 20.3125 C 138.179688 21.367188 138.089844 22.949219 137.125 23.828125 C 126.042969 34.207031 121.472656 40.976562 121.472656 47.308594 C 121.472656 53.550781 126.042969 60.410156 137.125 70.699219 C 138.089844 71.664062 138.179688 73.160156 137.386719 74.214844 C 136.859375 74.917969 136.070312 75.269531 135.277344 75.269531 Z M 135.277344 75.269531 "/><path style=" stroke:none;fill-rule:evenodd;fill:#ffa800;fill-opacity:1;" d="M 56.753906 13.453125 C 61.679688 10.375 68.625 7.296875 78.5625 4.75 C 79.441406 4.484375 80.496094 4.75 81.109375 5.453125 C 81.816406 6.242188 81.992188 7.210938 81.640625 8.175781 L 79 15.386719 C 73.726562 13.980469 68.097656 13.191406 62.382812 13.191406 C 60.535156 13.191406 58.601562 13.277344 56.753906 13.453125 Z M 56.753906 13.453125 "/><path style=" stroke:none;fill-rule:evenodd;fill:#ffa800;fill-opacity:1;" d="M 79.175781 89.953125 C 79 89.953125 78.738281 89.867188 78.5625 89.867188 C 68.625 87.316406 61.679688 84.152344 56.753906 81.074219 C 58.601562 81.25 60.535156 81.335938 62.382812 81.335938 C 68.097656 81.335938 73.726562 80.632812 79 79.226562 L 81.640625 86.347656 C 81.992188 87.316406 81.816406 88.371094 81.109375 89.074219 C 80.671875 89.601562 79.878906 89.953125 79.175781 89.953125 Z M 79.175781 89.953125 "/><g clip-rule="nonzero" clip-path="url(#273abb9d0c)"><path style=" stroke:none;fill-rule:evenodd;fill:#ffa800;fill-opacity:1;" d="M 149.960938 142.800781 C 149.960938 144.296875 148.820312 145.441406 147.324219 145.441406 C 143.015625 145.441406 139.144531 142.625 135.453125 139.898438 C 132.375 137.703125 129.210938 135.414062 126.660156 135.414062 C 124.109375 135.414062 120.945312 137.703125 117.867188 139.898438 C 114.171875 142.625 110.304688 145.441406 105.996094 145.441406 C 101.6875 145.441406 97.816406 142.625 94.125 139.898438 C 91.046875 137.703125 87.882812 135.414062 85.332031 135.414062 C 82.695312 135.414062 79.617188 137.703125 76.539062 139.898438 C 72.84375 142.625 68.976562 145.441406 64.667969 145.441406 C 60.359375 145.441406 56.492188 142.625 52.796875 139.898438 C 49.71875 137.703125 46.554688 135.414062 44.003906 135.414062 C 41.367188 135.414062 38.289062 137.703125 35.210938 139.898438 C 31.429688 142.625 27.648438 145.441406 23.339844 145.441406 C 19.03125 145.441406 15.164062 142.625 11.46875 139.898438 C 8.390625 137.703125 5.226562 135.414062 2.675781 135.414062 C 1.179688 135.414062 0.0390625 134.273438 0.0390625 132.777344 C 0.0390625 124.511719 0.0390625 107.714844 0.0390625 94.527344 C 0.0390625 93.121094 1.179688 91.890625 2.675781 91.890625 C 6.984375 91.890625 10.765625 94.703125 14.546875 97.429688 C 17.535156 99.625 20.703125 101.914062 23.339844 101.914062 C 25.890625 101.914062 29.054688 99.625 32.132812 97.429688 C 35.828125 94.703125 39.695312 91.890625 44.003906 91.890625 C 48.3125 91.890625 52.183594 94.703125 55.875 97.429688 C 58.953125 99.625 62.03125 101.914062 64.667969 101.914062 C 67.21875 101.914062 70.382812 99.625 73.460938 97.429688 C 77.15625 94.703125 81.023438 91.890625 85.332031 91.890625 C 89.640625 91.890625 93.507812 94.703125 97.203125 97.429688 C 100.28125 99.625 103.359375 101.914062 105.996094 101.914062 C 108.546875 101.914062 111.710938 99.625 114.789062 97.429688 C 118.480469 94.703125 122.351562 91.890625 126.660156 91.890625 C 130.96875 91.890625 134.835938 94.703125 138.53125 97.429688 C 141.609375 99.625 144.773438 101.914062 147.324219 101.914062 C 148.820312 101.914062 149.960938 103.144531 149.960938 104.550781 C 149.960938 109.035156 149.960938 129.4375 149.960938 142.800781 Z M 149.960938 142.800781 "/></g></g></svg>