<svg xmlns="http://www.w3.org/2000/svg" xmlns:xlink="http://www.w3.org/1999/xlink" width="200" zoomAndPan="magnify" viewBox="0 0 150 157.92" height="200" preserveAspectRatio="xMidYMid meet" version="1.2"><defs><clipPath id="7a1b444cd2"><path d="M 0.0390625 5.808594 L 149.960938 5.808594 L 149.960938 144.488281 L 0.0390625 144.488281 Z M 0.0390625 5.808594 "/></clipPath></defs><g id="51de4b7483"><g clip-rule="nonzero" clip-path="url(#7a1b444cd2)"><path style=" stroke:none;fill-rule:evenodd;fill:#ffa800;fill-opacity:1;" d="M 65.355469 26.117188 C 65.746094 25.949219 66.191406 25.949219 66.585938 26.117188 L 113.875 46.390625 C 114.449219 46.636719 114.820312 47.199219 114.820312 47.824219 L 114.820312 86.28125 C 114.820312 113.765625 94.816406 137.515625 67.746094 142.226562 L 65.96875 142.542969 L 64.191406 142.226562 C 37.136719 137.515625 17.132812 113.765625 17.132812 86.28125 L 17.132812 47.824219 C 17.132812 47.199219 17.503906 46.636719 18.078125 46.390625 Z M 66.953125 35.84375 C 66.324219 35.578125 65.613281 35.578125 64.984375 35.847656 L 27.808594 51.78125 C 26.886719 52.175781 26.292969 53.078125 26.292969 54.078125 L 26.292969 86.386719 C 26.292969 109.4375 42.941406 129.429688 65.503906 133.726562 C 65.8125 133.785156 66.128906 133.785156 66.4375 133.726562 C 89.011719 129.429688 105.660156 109.4375 105.660156 86.386719 L 105.660156 54.078125 C 105.660156 53.078125 105.0625 52.175781 104.144531 51.78125 Z M 65.96875 40.859375 L 100.664062 55.726562 L 100.664062 86.386719 C 100.664062 106.886719 85.96875 124.691406 65.96875 128.726562 C 45.984375 124.691406 31.289062 106.886719 31.289062 86.386719 L 31.289062 55.726562 C 31.289062 55.726562 65.96875 40.859375 65.96875 40.859375 Z M 60.84375 87.917969 L 53.476562 80.554688 C 51.570312 78.648438 48.472656 78.648438 46.566406 80.554688 C 44.660156 82.472656 44.660156 85.558594 46.566406 87.46875 L 57.390625 98.300781 C 59.300781 100.210938 62.394531 100.210938 64.304688 98.300781 C 70.832031 91.773438 78.902344 83.542969 85.398438 76.984375 C 87.296875 75.066406 87.289062 71.976562 85.378906 70.082031 C 83.472656 68.183594 80.375 68.191406 78.476562 70.101562 Z M 10.769531 121.472656 C 10.90625 121.089844 11.269531 120.835938 11.675781 120.835938 C 12.082031 120.835938 12.441406 121.089844 12.582031 121.472656 C 14.222656 126.1875 17.960938 129.925781 22.675781 131.566406 C 23.058594 131.703125 23.3125 132.066406 23.3125 132.472656 C 23.3125 132.878906 23.058594 133.242188 22.675781 133.378906 C 17.960938 135.019531 14.222656 138.757812 12.582031 143.472656 C 12.445312 143.855469 12.082031 144.109375 11.675781 144.109375 C 11.269531 144.109375 10.90625 143.855469 10.769531 143.472656 C 9.128906 138.757812 5.390625 135.019531 0.675781 133.378906 C 0.292969 133.242188 0.0390625 132.878906 0.0390625 132.472656 C 0.0390625 132.066406 0.292969 131.703125 0.675781 131.566406 C 5.390625 129.925781 9.128906 126.1875 10.769531 121.472656 Z M 102.253906 6.449219 C 102.394531 6.070312 102.753906 5.816406 103.160156 5.816406 C 103.566406 5.816406 103.929688 6.070312 104.066406 6.449219 C 105.707031 11.167969 109.445312 14.902344 114.160156 16.546875 C 114.542969 16.683594 114.796875 17.046875 114.796875 17.453125 C 114.796875 17.859375 114.542969 18.21875 114.160156 18.355469 C 109.445312 20 105.707031 23.738281 104.066406 28.453125 C 103.929688 28.835938 103.566406 29.089844 103.160156 29.089844 C 102.753906 29.089844 102.394531 28.832031 102.253906 28.453125 C 100.613281 23.738281 96.875 20 92.160156 18.359375 C 91.777344 18.21875 91.523438 17.859375 91.523438 17.453125 C 91.523438 17.046875 91.777344 16.683594 92.160156 16.546875 C 96.875 14.902344 100.613281 11.167969 102.253906 6.449219 Z M 137.417969 45.515625 C 137.554688 45.132812 137.917969 44.878906 138.324219 44.878906 C 138.730469 44.878906 139.09375 45.132812 139.230469 45.515625 C 140.871094 50.230469 144.609375 53.96875 149.324219 55.609375 C 149.707031 55.75 149.960938 56.109375 149.960938 56.515625 C 149.960938 56.921875 149.707031 57.285156 149.324219 57.421875 C 144.609375 59.066406 140.871094 62.800781 139.230469 67.515625 C 139.09375 67.898438 138.730469 68.152344 138.324219 68.152344 C 137.917969 68.152344 137.558594 67.898438 137.417969 67.515625 C 135.777344 62.800781 132.039062 59.066406 127.324219 57.421875 C 126.941406 57.285156 126.6875 56.921875 126.6875 56.515625 C 126.6875 56.109375 126.941406 55.75 127.324219 55.609375 C 132.039062 53.96875 135.777344 50.230469 137.417969 45.515625 Z M 137.417969 45.515625 "/></g></g></svg>