<svg xmlns="http://www.w3.org/2000/svg" xmlns:xlink="http://www.w3.org/1999/xlink" width="200" zoomAndPan="magnify" viewBox="0 0 150 157.92" height="200" preserveAspectRatio="xMidYMid meet" version="1.2"><defs><clipPath id="6ad119dbf9"><path d="M 32 90 L 149.960938 90 L 149.960938 137 L 32 137 Z M 32 90 "/></clipPath><clipPath id="628312ef64"><path d="M 0.0390625 89 L 45 89 L 45 149.925781 L 0.0390625 149.925781 Z M 0.0390625 89 "/></clipPath></defs><g id="ad86238dd9"><path style=" stroke:none;fill-rule:nonzero;fill:#ffa800;fill-opacity:1;" d="M 89.128906 73.835938 C 86.960938 73.835938 85.203125 72.078125 85.203125 69.910156 L 85.203125 55.214844 C 85.203125 53.046875 86.960938 51.289062 89.128906 51.289062 C 91.296875 51.289062 93.054688 53.046875 93.054688 55.214844 L 93.054688 69.910156 C 93.054688 72.078125 91.296875 73.835938 89.128906 73.835938 Z M 89.128906 73.835938 "/><path style=" stroke:none;fill-rule:nonzero;fill:#ffa800;fill-opacity:1;" d="M 75.476562 47.21875 C 62.292969 47.21875 52.175781 43.777344 45.367188 36.972656 C 38.164062 29.765625 34.726562 18.839844 35.15625 4.5 C 35.21875 2.429688 36.882812 0.757812 38.957031 0.695312 C 53.3125 0.242188 64.253906 3.671875 71.460938 10.875 C 78.671875 18.082031 82.09375 29.019531 81.644531 43.382812 C 81.582031 45.453125 79.910156 47.121094 77.839844 47.183594 C 77.039062 47.207031 76.253906 47.21875 75.480469 47.21875 Z M 42.988281 8.523438 C 43.246094 18.714844 45.90625 26.40625 50.917969 31.417969 C 55.929688 36.433594 63.621094 39.089844 73.8125 39.347656 C 73.570312 29.136719 70.921875 21.4375 65.90625 16.425781 C 60.898438 11.414062 53.199219 8.761719 42.988281 8.523438 Z M 42.988281 8.523438 "/><path style=" stroke:none;fill-rule:nonzero;fill:#ffa800;fill-opacity:1;" d="M 89.128906 59.140625 C 88.09375 59.140625 87.058594 58.730469 86.289062 57.925781 L 62.019531 32.492188 C 60.523438 30.921875 60.582031 28.4375 62.148438 26.941406 C 63.714844 25.445312 66.203125 25.503906 67.699219 27.070312 L 91.96875 52.503906 C 93.464844 54.074219 93.40625 56.558594 91.839844 58.054688 C 91.078125 58.78125 90.101562 59.140625 89.128906 59.140625 Z M 89.128906 59.140625 "/><path style=" stroke:none;fill-rule:nonzero;fill:#ffa800;fill-opacity:1;" d="M 102.78125 47.21875 C 102.003906 47.21875 101.21875 47.203125 100.417969 47.179688 C 98.347656 47.117188 96.679688 45.453125 96.613281 43.378906 C 96.164062 29.015625 99.589844 18.082031 106.796875 10.875 C 114 3.667969 124.914062 0.222656 139.300781 0.695312 C 141.371094 0.757812 143.039062 2.425781 143.101562 4.496094 C 143.53125 18.835938 140.09375 29.761719 132.890625 36.96875 C 126.085938 43.773438 115.964844 47.21875 102.78125 47.21875 Z M 135.269531 8.523438 C 125.058594 8.761719 117.359375 11.414062 112.347656 16.425781 C 107.335938 21.4375 104.683594 29.136719 104.445312 39.347656 C 114.636719 39.089844 122.328125 36.433594 127.339844 31.417969 C 132.351562 26.40625 135.011719 18.714844 135.269531 8.523438 Z M 135.269531 8.523438 "/><path style=" stroke:none;fill-rule:nonzero;fill:#ffa800;fill-opacity:1;" d="M 89.128906 59.140625 C 88.152344 59.140625 87.179688 58.777344 86.417969 58.054688 C 84.851562 56.558594 84.792969 54.074219 86.289062 52.503906 L 110.5625 27.070312 C 112.058594 25.5 114.539062 25.445312 116.109375 26.941406 C 117.675781 28.4375 117.738281 30.921875 116.238281 32.492188 L 91.96875 57.925781 C 91.199219 58.734375 90.164062 59.140625 89.128906 59.140625 Z M 89.128906 59.140625 "/><path style=" stroke:none;fill-rule:nonzero;fill:#ffa800;fill-opacity:1;" d="M 136.773438 94.941406 C 130.550781 77.890625 110.195312 65.988281 87.269531 65.988281 C 68.253906 65.988281 50.882812 74.035156 41.941406 86.992188 C 41.074219 88.246094 41.015625 89.882812 41.777344 91.199219 C 42.546875 92.511719 44 93.261719 45.519531 93.128906 C 49.679688 92.757812 53.75 93.34375 57.632812 94.867188 L 77.621094 102.6875 C 78.078125 102.867188 78.5625 102.957031 79.050781 102.957031 L 97.210938 102.957031 C 99.054688 102.957031 100.679688 104.390625 100.691406 105.992188 L 100.691406 106.136719 C 100.6875 106.1875 100.679688 106.234375 100.679688 106.28125 C 100.625 106.933594 100.320312 107.59375 99.839844 108.101562 C 98.53125 109.472656 98.390625 111.578125 99.503906 113.113281 C 100.261719 114.160156 101.457031 114.734375 102.683594 114.734375 C 103.253906 114.734375 103.828125 114.613281 104.371094 114.351562 L 134.777344 99.832031 C 136.597656 98.960938 137.464844 96.839844 136.773438 94.941406 Z M 136.773438 94.941406 "/><path style=" stroke:none;fill-rule:nonzero;fill:#ffa800;fill-opacity:1;" d="M 102.683594 114.734375 C 101.707031 114.734375 100.734375 114.371094 99.972656 113.648438 C 98.40625 112.152344 98.347656 109.667969 99.84375 108.097656 C 100.324219 107.59375 100.628906 106.929688 100.679688 106.277344 C 100.683594 106.230469 100.6875 106.183594 100.695312 106.136719 L 100.695312 106.042969 C 100.683594 104.386719 99.054688 102.957031 97.214844 102.957031 L 79.054688 102.957031 C 78.566406 102.957031 78.078125 102.863281 77.625 102.6875 L 57.632812 94.863281 C 53.75 93.339844 49.683594 92.753906 45.523438 93.128906 C 43.367188 93.300781 41.457031 91.730469 41.261719 89.570312 C 41.070312 87.410156 42.664062 85.503906 44.820312 85.308594 C 50.203125 84.835938 55.46875 85.585938 60.496094 87.554688 L 79.796875 95.105469 L 97.214844 95.105469 C 103.421875 95.105469 108.5 99.976562 108.542969 105.960938 L 108.542969 106.40625 C 108.542969 106.605469 108.523438 106.824219 108.492188 107.046875 C 108.265625 109.445312 107.214844 111.738281 105.519531 113.511719 C 104.75 114.320312 103.714844 114.734375 102.683594 114.734375 Z M 102.683594 114.734375 "/><path style=" stroke:none;fill-rule:nonzero;fill:#ffa800;fill-opacity:1;" d="M 97.660156 116.878906 L 79.054688 116.878906 C 76.886719 116.878906 75.128906 115.121094 75.128906 112.953125 C 75.128906 110.785156 76.886719 109.027344 79.054688 109.027344 L 97.660156 109.027344 C 98.492188 109.027344 99.269531 108.695312 99.851562 108.089844 C 101.355469 106.523438 103.839844 106.476562 105.402344 107.980469 C 106.964844 109.480469 107.015625 111.964844 105.511719 113.527344 C 103.4375 115.691406 100.644531 116.878906 97.660156 116.878906 Z M 97.660156 116.878906 "/><path style=" stroke:none;fill-rule:nonzero;fill:#ffa800;fill-opacity:1;" d="M 20.894531 103.796875 C 19.535156 103.796875 18.214844 103.085938 17.488281 101.824219 C 16.410156 99.941406 17.058594 97.542969 18.9375 96.464844 L 30.660156 89.738281 C 32.539062 88.660156 34.9375 89.308594 36.019531 91.191406 C 37.097656 93.074219 36.449219 95.472656 34.566406 96.550781 L 22.84375 103.273438 C 22.230469 103.628906 21.558594 103.796875 20.894531 103.796875 Z M 20.894531 103.796875 "/><g clip-rule="nonzero" clip-path="url(#6ad119dbf9)"><path style=" stroke:none;fill-rule:nonzero;fill:#ffa800;fill-opacity:1;" d="M 101.269531 136.320312 L 70.394531 136.320312 C 67.601562 136.320312 64.835938 135.621094 62.402344 134.300781 L 51.355469 128.308594 C 48.835938 126.945312 45.78125 126.882812 43.1875 128.132812 L 38.097656 130.566406 C 36.144531 131.507812 33.804688 130.675781 32.867188 128.722656 C 31.929688 126.769531 32.757812 124.425781 34.710938 123.488281 L 39.785156 121.058594 C 44.628906 118.71875 50.355469 118.847656 55.09375 121.402344 L 66.144531 127.398438 C 67.449219 128.109375 68.882812 128.46875 70.394531 128.46875 L 101.269531 128.46875 C 103.070312 128.46875 104.8125 127.9375 106.304688 126.9375 L 140.226562 104.023438 C 140.957031 103.53125 141.425781 102.792969 141.554688 101.933594 C 141.6875 101.0625 141.449219 100.203125 140.894531 99.519531 C 140.039062 98.464844 138.476562 98.113281 137.308594 98.621094 L 134.769531 99.828125 C 132.8125 100.757812 130.46875 99.929688 129.539062 97.96875 C 128.609375 96.011719 129.441406 93.671875 131.398438 92.738281 L 134.042969 91.484375 C 138.707031 89.425781 143.945312 90.816406 146.988281 94.566406 C 148.925781 96.953125 149.773438 100.0625 149.320312 103.09375 C 148.867188 106.117188 147.152344 108.828125 144.617188 110.53125 L 110.6875 133.445312 C 107.886719 135.328125 104.632812 136.320312 101.269531 136.320312 Z M 101.269531 136.320312 "/></g><g clip-rule="nonzero" clip-path="url(#628312ef64)"><path style=" stroke:none;fill-rule:nonzero;fill:#ffa800;fill-opacity:1;" d="M 24.746094 149.792969 C 24.421875 149.792969 24.089844 149.75 23.765625 149.671875 C 22.6875 149.394531 21.78125 148.667969 21.265625 147.683594 L 0.742188 108.25 C -0.0546875 106.71875 0.242188 104.847656 1.472656 103.636719 L 14.546875 90.785156 C 15.417969 89.933594 16.625 89.53125 17.835938 89.699219 C 19.042969 89.867188 20.101562 90.582031 20.707031 91.640625 L 44.417969 133.132812 C 45.445312 134.929688 44.902344 137.210938 43.179688 138.351562 L 26.917969 149.140625 C 26.269531 149.574219 25.511719 149.792969 24.746094 149.792969 Z M 9.046875 107.199219 L 26.214844 140.183594 L 35.785156 133.839844 L 16.417969 99.953125 Z M 9.046875 107.199219 "/></g><path style=" stroke:none;fill-rule:nonzero;fill:#ffa800;fill-opacity:1;" d="M 102.683594 114.734375 C 101.21875 114.734375 99.816406 113.910156 99.140625 112.5 C 98.207031 110.542969 99.035156 108.203125 100.992188 107.265625 L 131.394531 92.746094 C 133.351562 91.8125 135.695312 92.640625 136.628906 94.597656 C 137.5625 96.554688 136.734375 98.894531 134.777344 99.828125 L 104.375 114.351562 C 103.832031 114.613281 103.253906 114.734375 102.683594 114.734375 Z M 102.683594 114.734375 "/></g></svg>