<svg xmlns="http://www.w3.org/2000/svg" xmlns:xlink="http://www.w3.org/1999/xlink" width="200" zoomAndPan="magnify" viewBox="0 0 150 157.92" height="200" preserveAspectRatio="xMidYMid meet" version="1.2"><defs><clipPath id="cdfd93ee57"><path d="M 76 4.496094 L 104 4.496094 L 104 14 L 76 14 Z M 76 4.496094 "/></clipPath><clipPath id="f89df56300"><path d="M 85 4.496094 L 95 4.496094 L 95 28 L 85 28 Z M 85 4.496094 "/></clipPath><clipPath id="c548f30f2e"><path d="M 0.0390625 68 L 60 68 L 60 145.425781 L 0.0390625 145.425781 Z M 0.0390625 68 "/></clipPath></defs><g id="a541ee842e"><g clip-rule="nonzero" clip-path="url(#cdfd93ee57)"><path style=" stroke:none;fill-rule:nonzero;fill:#ffa800;fill-opacity:1;" d="M 99.148438 13.753906 L 80.808594 13.753906 C 80.507812 13.753906 80.210938 13.726562 79.914062 13.667969 C 79.621094 13.609375 79.332031 13.519531 79.054688 13.40625 C 78.777344 13.289062 78.511719 13.148438 78.261719 12.980469 C 78.011719 12.816406 77.78125 12.625 77.566406 12.410156 C 77.355469 12.199219 77.164062 11.96875 76.996094 11.71875 C 76.832031 11.464844 76.6875 11.203125 76.574219 10.925781 C 76.457031 10.644531 76.371094 10.359375 76.3125 10.0625 C 76.253906 9.769531 76.226562 9.472656 76.226562 9.167969 C 76.226562 8.867188 76.253906 8.570312 76.3125 8.273438 C 76.371094 7.980469 76.457031 7.691406 76.574219 7.414062 C 76.6875 7.136719 76.832031 6.871094 76.996094 6.621094 C 77.164062 6.371094 77.355469 6.140625 77.566406 5.925781 C 77.78125 5.714844 78.011719 5.523438 78.261719 5.359375 C 78.511719 5.191406 78.777344 5.050781 79.054688 4.933594 C 79.332031 4.820312 79.621094 4.730469 79.914062 4.671875 C 80.210938 4.613281 80.507812 4.585938 80.808594 4.585938 L 99.148438 4.585938 C 99.449219 4.585938 99.75 4.613281 100.042969 4.671875 C 100.339844 4.730469 100.625 4.820312 100.902344 4.933594 C 101.183594 5.050781 101.445312 5.191406 101.695312 5.359375 C 101.945312 5.523438 102.179688 5.714844 102.390625 5.925781 C 102.605469 6.140625 102.792969 6.371094 102.960938 6.621094 C 103.128906 6.871094 103.269531 7.136719 103.386719 7.414062 C 103.5 7.691406 103.585938 7.980469 103.644531 8.273438 C 103.703125 8.570312 103.734375 8.867188 103.734375 9.167969 C 103.734375 9.472656 103.703125 9.769531 103.644531 10.0625 C 103.585938 10.359375 103.5 10.644531 103.386719 10.925781 C 103.269531 11.203125 103.128906 11.464844 102.960938 11.71875 C 102.792969 11.96875 102.605469 12.199219 102.390625 12.410156 C 102.179688 12.625 101.945312 12.816406 101.695312 12.980469 C 101.445312 13.148438 101.183594 13.289062 100.902344 13.40625 C 100.625 13.519531 100.339844 13.609375 100.042969 13.667969 C 99.75 13.726562 99.449219 13.753906 99.148438 13.753906 Z M 99.148438 13.753906 "/></g><g clip-rule="nonzero" clip-path="url(#f89df56300)"><path style=" stroke:none;fill-rule:nonzero;fill:#ffa800;fill-opacity:1;" d="M 89.980469 27.507812 C 89.679688 27.507812 89.378906 27.480469 89.085938 27.421875 C 88.789062 27.363281 88.503906 27.273438 88.226562 27.160156 C 87.945312 27.042969 87.683594 26.902344 87.433594 26.734375 C 87.183594 26.570312 86.949219 26.378906 86.738281 26.167969 C 86.523438 25.953125 86.335938 25.722656 86.167969 25.472656 C 86 25.222656 85.859375 24.957031 85.742188 24.679688 C 85.628906 24.402344 85.542969 24.113281 85.484375 23.820312 C 85.425781 23.523438 85.394531 23.226562 85.394531 22.925781 L 85.394531 9.167969 C 85.394531 8.867188 85.425781 8.570312 85.484375 8.273438 C 85.542969 7.980469 85.628906 7.691406 85.742188 7.414062 C 85.859375 7.136719 86 6.871094 86.167969 6.621094 C 86.335938 6.371094 86.523438 6.140625 86.738281 5.925781 C 86.949219 5.714844 87.183594 5.523438 87.433594 5.359375 C 87.683594 5.191406 87.945312 5.050781 88.226562 4.933594 C 88.503906 4.820312 88.789062 4.730469 89.085938 4.671875 C 89.378906 4.613281 89.679688 4.585938 89.980469 4.585938 C 90.28125 4.585938 90.578125 4.613281 90.875 4.671875 C 91.167969 4.730469 91.457031 4.820312 91.734375 4.933594 C 92.011719 5.050781 92.277344 5.191406 92.527344 5.359375 C 92.777344 5.523438 93.007812 5.714844 93.222656 5.925781 C 93.433594 6.140625 93.625 6.371094 93.792969 6.621094 C 93.957031 6.871094 94.101562 7.136719 94.214844 7.414062 C 94.332031 7.691406 94.417969 7.980469 94.476562 8.273438 C 94.535156 8.570312 94.5625 8.867188 94.5625 9.167969 L 94.5625 22.925781 C 94.5625 23.226562 94.535156 23.523438 94.476562 23.820312 C 94.417969 24.113281 94.332031 24.402344 94.214844 24.679688 C 94.101562 24.957031 93.957031 25.222656 93.792969 25.472656 C 93.625 25.722656 93.433594 25.953125 93.222656 26.167969 C 93.007812 26.378906 92.777344 26.570312 92.527344 26.734375 C 92.277344 26.902344 92.011719 27.042969 91.734375 27.160156 C 91.457031 27.273438 91.167969 27.363281 90.875 27.421875 C 90.578125 27.480469 90.28125 27.507812 89.980469 27.507812 Z M 89.980469 27.507812 "/></g><path style=" stroke:none;fill-rule:nonzero;fill:#ffa800;fill-opacity:1;" d="M 48.246094 43.625 C 46.980469 43.625 45.898438 43.175781 45.003906 42.28125 L 38.519531 35.796875 C 38.308594 35.582031 38.117188 35.351562 37.949219 35.101562 C 37.78125 34.851562 37.640625 34.585938 37.523438 34.308594 C 37.410156 34.03125 37.320312 33.746094 37.261719 33.449219 C 37.203125 33.152344 37.171875 32.855469 37.171875 32.554688 C 37.171875 32.253906 37.203125 31.953125 37.261719 31.660156 C 37.320312 31.363281 37.40625 31.074219 37.523438 30.796875 C 37.636719 30.519531 37.777344 30.253906 37.945312 30.003906 C 38.113281 29.753906 38.304688 29.523438 38.515625 29.308594 C 38.730469 29.09375 38.960938 28.90625 39.210938 28.738281 C 39.460938 28.570312 39.726562 28.429688 40.003906 28.3125 C 40.285156 28.199219 40.570312 28.113281 40.867188 28.054688 C 41.160156 27.996094 41.460938 27.964844 41.761719 27.964844 C 42.0625 27.964844 42.359375 27.996094 42.65625 28.054688 C 42.953125 28.113281 43.238281 28.199219 43.515625 28.316406 C 43.796875 28.433594 44.058594 28.574219 44.308594 28.742188 C 44.558594 28.910156 44.792969 29.101562 45.003906 29.3125 L 51.488281 35.796875 C 51.808594 36.117188 52.074219 36.476562 52.289062 36.878906 C 52.503906 37.277344 52.652344 37.699219 52.742188 38.144531 C 52.832031 38.589844 52.851562 39.035156 52.808594 39.488281 C 52.761719 39.9375 52.65625 40.375 52.480469 40.792969 C 52.308594 41.210938 52.078125 41.597656 51.789062 41.945312 C 51.5 42.296875 51.167969 42.597656 50.792969 42.851562 C 50.414062 43.101562 50.011719 43.292969 49.578125 43.425781 C 49.144531 43.558594 48.699219 43.621094 48.246094 43.621094 Z M 48.246094 43.625 "/><path style=" stroke:none;fill-rule:nonzero;fill:#ffa800;fill-opacity:1;" d="M 131.714844 43.625 C 131.261719 43.621094 130.816406 43.558594 130.382812 43.425781 C 129.949219 43.292969 129.542969 43.101562 129.167969 42.851562 C 128.789062 42.597656 128.457031 42.296875 128.167969 41.945312 C 127.882812 41.597656 127.652344 41.210938 127.476562 40.792969 C 127.304688 40.375 127.195312 39.9375 127.152344 39.488281 C 127.105469 39.035156 127.128906 38.589844 127.21875 38.144531 C 127.304688 37.699219 127.457031 37.277344 127.671875 36.878906 C 127.882812 36.476562 128.152344 36.117188 128.472656 35.796875 L 134.957031 29.3125 C 135.171875 29.101562 135.402344 28.910156 135.652344 28.746094 C 135.902344 28.578125 136.167969 28.4375 136.445312 28.320312 C 136.722656 28.207031 137.007812 28.121094 137.304688 28.0625 C 137.597656 28.003906 137.898438 27.972656 138.199219 27.972656 C 138.5 27.972656 138.796875 28.003906 139.089844 28.0625 C 139.386719 28.121094 139.671875 28.207031 139.949219 28.324219 C 140.230469 28.4375 140.492188 28.578125 140.742188 28.746094 C 140.992188 28.914062 141.226562 29.105469 141.4375 29.316406 C 141.648438 29.527344 141.839844 29.761719 142.007812 30.011719 C 142.175781 30.261719 142.316406 30.523438 142.429688 30.804688 C 142.546875 31.082031 142.632812 31.367188 142.691406 31.664062 C 142.75 31.957031 142.78125 32.253906 142.78125 32.554688 C 142.78125 32.855469 142.75 33.15625 142.691406 33.449219 C 142.632812 33.746094 142.546875 34.03125 142.433594 34.308594 C 142.316406 34.585938 142.175781 34.851562 142.007812 35.101562 C 141.84375 35.351562 141.652344 35.582031 141.441406 35.796875 L 134.953125 42.28125 C 134.058594 43.175781 132.980469 43.625 131.714844 43.625 Z M 131.714844 43.625 "/><g clip-rule="nonzero" clip-path="url(#c548f30f2e)"><path style=" stroke:none;fill-rule:nonzero;fill:#ffa800;fill-opacity:1;" d="M 29.90625 68.433594 L 0.0390625 77.867188 L 0.0390625 115.539062 C -0.109375 119.863281 0.761719 123.96875 2.660156 127.855469 C 9.207031 140.847656 25.714844 144.570312 29.90625 145.355469 C 34.097656 144.570312 50.550781 140.847656 57.101562 127.800781 C 58.984375 123.988281 59.859375 119.953125 59.71875 115.699219 L 59.71875 77.867188 Z M 51.859375 97.570312 L 31.425781 117.953125 C 31.1875 118.199219 30.925781 118.421875 30.640625 118.617188 C 30.355469 118.8125 30.054688 118.980469 29.738281 119.113281 C 29.421875 119.25 29.09375 119.351562 28.753906 119.417969 C 28.417969 119.488281 28.074219 119.523438 27.730469 119.523438 C 27.386719 119.523438 27.042969 119.488281 26.707031 119.417969 C 26.367188 119.351562 26.042969 119.25 25.722656 119.113281 C 25.40625 118.980469 25.105469 118.8125 24.820312 118.617188 C 24.539062 118.421875 24.277344 118.199219 24.039062 117.953125 L 13.191406 107.15625 C 12.949219 106.914062 12.730469 106.652344 12.539062 106.367188 C 12.347656 106.082031 12.1875 105.78125 12.054688 105.460938 C 11.925781 105.144531 11.824219 104.820312 11.757812 104.484375 C 11.691406 104.144531 11.65625 103.804688 11.65625 103.464844 C 11.65625 103.121094 11.691406 102.78125 11.757812 102.445312 C 11.824219 102.105469 11.925781 101.78125 12.054688 101.464844 C 12.1875 101.144531 12.347656 100.84375 12.539062 100.558594 C 12.730469 100.273438 12.949219 100.011719 13.191406 99.769531 C 13.4375 99.527344 13.703125 99.308594 13.988281 99.117188 C 14.277344 98.925781 14.582031 98.765625 14.898438 98.632812 C 15.21875 98.503906 15.546875 98.402344 15.886719 98.335938 C 16.222656 98.269531 16.566406 98.238281 16.910156 98.238281 C 17.257812 98.238281 17.597656 98.269531 17.9375 98.335938 C 18.273438 98.402344 18.605469 98.503906 18.921875 98.632812 C 19.242188 98.765625 19.546875 98.925781 19.832031 99.117188 C 20.121094 99.308594 20.386719 99.527344 20.632812 99.769531 L 27.757812 106.84375 L 44.421875 90.179688 C 44.664062 89.9375 44.929688 89.71875 45.21875 89.53125 C 45.507812 89.339844 45.808594 89.175781 46.128906 89.046875 C 46.449219 88.914062 46.777344 88.816406 47.113281 88.75 C 47.453125 88.679688 47.796875 88.648438 48.140625 88.648438 C 48.484375 88.648438 48.828125 88.679688 49.164062 88.75 C 49.503906 88.816406 49.832031 88.914062 50.152344 89.046875 C 50.472656 89.175781 50.773438 89.339844 51.0625 89.53125 C 51.347656 89.71875 51.617188 89.9375 51.859375 90.179688 C 52.101562 90.421875 52.320312 90.6875 52.511719 90.972656 C 52.703125 91.257812 52.863281 91.558594 52.996094 91.875 C 53.125 92.191406 53.226562 92.519531 53.292969 92.855469 C 53.359375 93.191406 53.394531 93.53125 53.394531 93.875 C 53.394531 94.21875 53.359375 94.558594 53.292969 94.894531 C 53.226562 95.230469 53.125 95.558594 52.996094 95.875 C 52.863281 96.191406 52.703125 96.492188 52.511719 96.777344 C 52.320312 97.0625 52.101562 97.324219 51.859375 97.570312 Z M 51.859375 97.570312 "/></g><path style=" stroke:none;fill-rule:nonzero;fill:#ffa800;fill-opacity:1;" d="M 120.554688 77.289062 C 120.554688 76.96875 120.589844 76.648438 120.652344 76.328125 C 120.714844 76.011719 120.804688 75.703125 120.925781 75.402344 C 121.046875 75.101562 121.195312 74.816406 121.367188 74.542969 C 121.542969 74.269531 121.738281 74.015625 121.960938 73.78125 C 122.183594 73.546875 122.421875 73.332031 122.683594 73.140625 C 122.945312 72.949219 123.222656 72.785156 123.515625 72.648438 C 123.804688 72.507812 124.109375 72.398438 124.421875 72.3125 C 124.734375 72.230469 125.050781 72.179688 125.375 72.15625 C 124.941406 69.09375 124.136719 66.136719 122.957031 63.277344 C 121.777344 60.421875 120.261719 57.757812 118.40625 55.285156 C 117.449219 56.132812 116.332031 56.570312 115.050781 56.59375 C 114.355469 56.589844 113.6875 56.457031 113.042969 56.195312 C 112.402344 55.933594 111.828125 55.558594 111.332031 55.074219 C 111.105469 54.839844 110.902344 54.589844 110.722656 54.320312 C 110.542969 54.046875 110.390625 53.761719 110.265625 53.464844 C 110.136719 53.164062 110.039062 52.859375 109.96875 52.539062 C 109.902344 52.222656 109.859375 51.902344 109.851562 51.578125 C 109.84375 51.253906 109.863281 50.929688 109.914062 50.609375 C 109.964844 50.289062 110.042969 49.976562 110.152344 49.667969 C 110.261719 49.363281 110.394531 49.070312 110.558594 48.789062 C 110.722656 48.507812 110.910156 48.246094 111.121094 48 C 108.648438 46.144531 105.984375 44.628906 103.128906 43.449219 C 100.269531 42.269531 97.3125 41.460938 94.25 41.03125 C 94.230469 41.355469 94.179688 41.671875 94.097656 41.984375 C 94.019531 42.296875 93.910156 42.601562 93.773438 42.894531 C 93.636719 43.183594 93.472656 43.460938 93.28125 43.722656 C 93.09375 43.984375 92.878906 44.226562 92.644531 44.449219 C 92.410156 44.671875 92.15625 44.867188 91.882812 45.042969 C 91.613281 45.214844 91.324219 45.363281 91.027344 45.484375 C 90.726562 45.601562 90.417969 45.695312 90.101562 45.757812 C 89.78125 45.816406 89.464844 45.851562 89.140625 45.851562 C 88.816406 45.851562 88.496094 45.824219 88.179688 45.765625 C 87.859375 45.707031 87.550781 45.621094 87.25 45.503906 C 86.949219 45.386719 86.660156 45.242188 86.386719 45.070312 C 86.113281 44.898438 85.859375 44.703125 85.621094 44.484375 C 85.382812 44.265625 85.167969 44.027344 84.976562 43.765625 C 84.785156 43.507812 84.617188 43.230469 84.476562 42.941406 C 84.335938 42.648438 84.226562 42.347656 84.140625 42.035156 C 84.058594 41.722656 84.003906 41.40625 83.980469 41.082031 C 80.925781 41.511719 77.976562 42.316406 75.128906 43.5 C 72.277344 44.679688 69.621094 46.195312 67.160156 48.050781 C 67.574219 48.550781 67.882812 49.109375 68.089844 49.722656 C 68.296875 50.335938 68.390625 50.964844 68.367188 51.613281 C 68.339844 52.261719 68.203125 52.882812 67.949219 53.476562 C 67.699219 54.074219 67.347656 54.605469 66.898438 55.074219 C 66.671875 55.304688 66.421875 55.507812 66.15625 55.691406 C 65.890625 55.875 65.609375 56.03125 65.3125 56.160156 C 65.015625 56.289062 64.710938 56.390625 64.398438 56.464844 C 64.082031 56.535156 63.761719 56.578125 63.441406 56.589844 C 63.117188 56.601562 62.796875 56.585938 62.476562 56.535156 C 62.15625 56.488281 61.84375 56.410156 61.539062 56.300781 C 61.234375 56.195312 60.941406 56.058594 60.664062 55.898438 C 60.382812 55.734375 60.121094 55.546875 59.878906 55.335938 C 57.613281 58.371094 55.847656 61.671875 54.585938 65.238281 L 66.53125 69.011719 C 67.066406 69.179688 67.5625 69.425781 68.015625 69.753906 C 68.472656 70.078125 68.863281 70.46875 69.195312 70.921875 C 69.523438 71.375 69.777344 71.867188 69.949219 72.402344 C 70.121094 72.933594 70.203125 73.480469 70.199219 74.042969 L 70.199219 108.570312 C 74.445312 111.191406 79.039062 112.851562 83.980469 113.550781 C 84 113.226562 84.050781 112.90625 84.132812 112.59375 C 84.210938 112.28125 84.320312 111.976562 84.460938 111.683594 C 84.597656 111.390625 84.761719 111.113281 84.953125 110.847656 C 85.144531 110.585938 85.359375 110.34375 85.59375 110.125 C 85.832031 109.902344 86.085938 109.703125 86.359375 109.53125 C 86.632812 109.355469 86.921875 109.210938 87.222656 109.089844 C 87.523438 108.972656 87.832031 108.882812 88.152344 108.820312 C 88.46875 108.757812 88.792969 108.730469 89.117188 108.730469 C 89.441406 108.730469 89.761719 108.757812 90.078125 108.820312 C 90.398438 108.882812 90.707031 108.972656 91.007812 109.089844 C 91.308594 109.210938 91.597656 109.355469 91.871094 109.53125 C 92.144531 109.703125 92.402344 109.902344 92.636719 110.125 C 92.875 110.34375 93.085938 110.585938 93.277344 110.847656 C 93.46875 111.113281 93.632812 111.390625 93.769531 111.683594 C 93.910156 111.976562 94.019531 112.28125 94.097656 112.59375 C 94.179688 112.90625 94.230469 113.226562 94.25 113.550781 C 97.3125 113.117188 100.269531 112.3125 103.128906 111.132812 C 105.984375 109.953125 108.648438 108.433594 111.121094 106.582031 C 110.90625 106.335938 110.714844 106.074219 110.546875 105.796875 C 110.378906 105.515625 110.242188 105.222656 110.128906 104.914062 C 110.019531 104.609375 109.9375 104.296875 109.886719 103.972656 C 109.835938 103.652344 109.8125 103.328125 109.824219 103.003906 C 109.832031 102.675781 109.871094 102.355469 109.941406 102.035156 C 110.015625 101.71875 110.113281 101.410156 110.242188 101.109375 C 110.371094 100.8125 110.527344 100.527344 110.710938 100.257812 C 110.894531 99.988281 111.101562 99.738281 111.332031 99.507812 C 111.5625 99.277344 111.8125 99.070312 112.082031 98.886719 C 112.351562 98.703125 112.636719 98.546875 112.933594 98.417969 C 113.234375 98.289062 113.542969 98.1875 113.859375 98.117188 C 114.179688 98.046875 114.5 98.007812 114.828125 98 C 115.152344 97.988281 115.476562 98.007812 115.796875 98.0625 C 116.121094 98.113281 116.433594 98.195312 116.742188 98.304688 C 117.046875 98.417969 117.339844 98.554688 117.621094 98.722656 C 117.898438 98.890625 118.160156 99.082031 118.40625 99.296875 C 120.261719 96.824219 121.777344 94.160156 122.957031 91.300781 C 124.136719 88.445312 124.941406 85.484375 125.375 82.425781 C 125.050781 82.402344 124.734375 82.347656 124.421875 82.265625 C 124.109375 82.183594 123.804688 82.074219 123.515625 81.933594 C 123.222656 81.796875 122.945312 81.628906 122.683594 81.441406 C 122.421875 81.25 122.183594 81.035156 121.960938 80.800781 C 121.738281 80.5625 121.542969 80.308594 121.367188 80.039062 C 121.195312 79.765625 121.046875 79.476562 120.925781 79.179688 C 120.804688 78.878906 120.714844 78.570312 120.652344 78.25 C 120.589844 77.933594 120.554688 77.613281 120.554688 77.289062 Z M 100.222656 82.53125 L 89.113281 82.53125 C 88.769531 82.527344 88.429688 82.496094 88.09375 82.425781 C 87.757812 82.359375 87.429688 82.257812 87.113281 82.128906 C 86.796875 81.996094 86.492188 81.832031 86.207031 81.640625 C 85.921875 81.453125 85.65625 81.234375 85.414062 80.992188 C 85.171875 80.746094 84.953125 80.484375 84.761719 80.199219 C 84.570312 79.914062 84.410156 79.609375 84.277344 79.292969 C 84.144531 78.976562 84.046875 78.648438 83.980469 78.3125 C 83.910156 77.976562 83.875 77.632812 83.875 77.289062 L 83.875 61.625 C 83.875 61.28125 83.910156 60.9375 83.976562 60.601562 C 84.042969 60.265625 84.140625 59.9375 84.273438 59.617188 C 84.40625 59.300781 84.566406 59 84.757812 58.710938 C 84.949219 58.425781 85.167969 58.160156 85.410156 57.917969 C 85.652344 57.675781 85.917969 57.457031 86.203125 57.265625 C 86.488281 57.074219 86.792969 56.914062 87.109375 56.78125 C 87.429688 56.652344 87.753906 56.550781 88.09375 56.484375 C 88.429688 56.417969 88.769531 56.382812 89.113281 56.382812 C 89.460938 56.382812 89.800781 56.417969 90.136719 56.484375 C 90.476562 56.550781 90.800781 56.652344 91.121094 56.78125 C 91.4375 56.914062 91.738281 57.074219 92.027344 57.265625 C 92.3125 57.457031 92.578125 57.675781 92.820312 57.917969 C 93.0625 58.160156 93.28125 58.425781 93.472656 58.710938 C 93.664062 59 93.824219 59.300781 93.957031 59.617188 C 94.085938 59.9375 94.1875 60.265625 94.253906 60.601562 C 94.320312 60.9375 94.355469 61.28125 94.355469 61.625 L 94.355469 72.050781 L 100.222656 72.050781 C 100.566406 72.050781 100.910156 72.082031 101.246094 72.148438 C 101.585938 72.214844 101.914062 72.3125 102.234375 72.445312 C 102.550781 72.578125 102.855469 72.738281 103.140625 72.929688 C 103.429688 73.121094 103.695312 73.335938 103.9375 73.578125 C 104.183594 73.824219 104.402344 74.089844 104.59375 74.375 C 104.785156 74.660156 104.945312 74.964844 105.078125 75.28125 C 105.210938 75.601562 105.308594 75.929688 105.378906 76.265625 C 105.445312 76.605469 105.480469 76.945312 105.480469 77.289062 C 105.480469 77.636719 105.445312 77.976562 105.378906 78.316406 C 105.308594 78.652344 105.210938 78.980469 105.078125 79.300781 C 104.945312 79.617188 104.785156 79.917969 104.59375 80.207031 C 104.402344 80.492188 104.183594 80.757812 103.9375 81 C 103.695312 81.246094 103.429688 81.460938 103.140625 81.652344 C 102.855469 81.84375 102.550781 82.003906 102.234375 82.136719 C 101.914062 82.265625 101.585938 82.367188 101.246094 82.433594 C 100.910156 82.5 100.566406 82.53125 100.222656 82.53125 Z M 100.222656 82.53125 "/><path style=" stroke:none;fill-rule:nonzero;fill:#ffa800;fill-opacity:1;" d="M 89.113281 134.929688 C 81.558594 134.894531 74.28125 133.445312 67.289062 130.582031 C 68.71875 127.289062 69.625 123.855469 70.007812 120.285156 C 76.078125 123.039062 82.449219 124.429688 89.113281 124.449219 C 90.550781 124.449219 91.984375 124.386719 93.417969 124.253906 C 94.847656 124.125 96.269531 123.929688 97.683594 123.667969 C 99.09375 123.410156 100.492188 123.085938 101.875 122.699219 C 103.261719 122.308594 104.621094 121.859375 105.964844 121.347656 C 107.308594 120.835938 108.625 120.261719 109.914062 119.628906 C 111.203125 118.996094 112.460938 118.304688 113.6875 117.558594 C 114.914062 116.8125 116.105469 116.007812 117.257812 115.152344 C 118.414062 114.296875 119.523438 113.386719 120.59375 112.429688 C 121.664062 111.472656 122.691406 110.46875 123.667969 109.414062 C 124.648438 108.363281 125.578125 107.269531 126.457031 106.132812 C 127.335938 104.996094 128.160156 103.820312 128.929688 102.609375 C 129.703125 101.398438 130.417969 100.152344 131.074219 98.875 C 131.730469 97.597656 132.328125 96.292969 132.867188 94.960938 C 133.40625 93.628906 133.882812 92.273438 134.296875 90.898438 C 134.710938 89.523438 135.0625 88.132812 135.351562 86.726562 C 135.636719 85.316406 135.859375 83.898438 136.019531 82.472656 C 136.175781 81.042969 136.269531 79.609375 136.296875 78.175781 C 136.324219 76.738281 136.285156 75.304688 136.179688 73.871094 C 136.074219 72.4375 135.90625 71.011719 135.671875 69.59375 C 135.4375 68.175781 135.136719 66.773438 134.777344 65.382812 C 134.414062 63.992188 133.988281 62.621094 133.5 61.269531 C 133.011719 59.917969 132.464844 58.59375 131.855469 57.292969 C 131.246094 55.992188 130.578125 54.71875 129.851562 53.480469 C 129.125 52.242188 128.347656 51.035156 127.511719 49.867188 C 126.675781 48.699219 125.789062 47.570312 124.847656 46.480469 C 123.910156 45.394531 122.925781 44.351562 121.890625 43.355469 C 120.855469 42.355469 119.777344 41.40625 118.660156 40.507812 C 117.539062 39.609375 116.378906 38.765625 115.179688 37.96875 C 113.984375 37.175781 112.75 36.441406 111.484375 35.761719 C 110.21875 35.078125 108.925781 34.457031 107.605469 33.894531 C 106.28125 33.332031 104.9375 32.832031 103.570312 32.390625 C 102.203125 31.953125 100.816406 31.578125 99.414062 31.265625 C 98.011719 30.953125 96.597656 30.703125 95.175781 30.519531 C 93.75 30.335938 92.320312 30.21875 90.882812 30.164062 C 89.445312 30.113281 88.011719 30.125 86.578125 30.203125 C 85.144531 30.28125 83.714844 30.425781 82.292969 30.632812 C 80.871094 30.84375 79.460938 31.113281 78.066406 31.453125 C 76.667969 31.789062 75.292969 32.191406 73.933594 32.652344 C 72.570312 33.117188 71.234375 33.640625 69.925781 34.226562 C 68.613281 34.8125 67.328125 35.457031 66.078125 36.160156 C 64.824219 36.863281 63.605469 37.621094 62.421875 38.4375 C 61.238281 39.25 60.09375 40.117188 58.988281 41.035156 C 57.882812 41.953125 56.824219 42.921875 55.808594 43.9375 C 54.792969 44.953125 53.824219 46.011719 52.90625 47.117188 C 51.984375 48.222656 51.117188 49.363281 50.304688 50.546875 C 49.488281 51.730469 48.730469 52.949219 48.027344 54.203125 C 47.324219 55.457031 46.679688 56.738281 46.09375 58.050781 C 45.503906 59.359375 44.980469 60.695312 44.515625 62.054688 L 34.542969 58.902344 C 35.105469 57.238281 35.738281 55.601562 36.449219 53.996094 C 37.160156 52.390625 37.945312 50.820312 38.800781 49.285156 C 39.652344 47.75 40.578125 46.257812 41.566406 44.808594 C 42.558594 43.355469 43.613281 41.953125 44.734375 40.601562 C 45.851562 39.246094 47.03125 37.945312 48.269531 36.699219 C 49.507812 35.453125 50.800781 34.269531 52.148438 33.140625 C 53.496094 32.011719 54.890625 30.949219 56.335938 29.949219 C 57.777344 28.949219 59.265625 28.015625 60.792969 27.152344 C 62.324219 26.285156 63.890625 25.496094 65.492188 24.773438 C 67.09375 24.050781 68.726562 23.40625 70.386719 22.835938 C 72.046875 22.261719 73.730469 21.769531 75.4375 21.351562 C 77.144531 20.933594 78.867188 20.59375 80.601562 20.332031 C 82.339844 20.074219 84.085938 19.894531 85.839844 19.792969 C 87.59375 19.691406 89.347656 19.671875 91.105469 19.730469 C 92.859375 19.792969 94.609375 19.929688 96.351562 20.152344 C 98.09375 20.371094 99.824219 20.671875 101.539062 21.046875 C 103.253906 21.425781 104.949219 21.882812 106.625 22.414062 C 108.296875 22.949219 109.941406 23.558594 111.5625 24.242188 C 113.179688 24.925781 114.761719 25.679688 116.3125 26.507812 C 117.859375 27.335938 119.371094 28.234375 120.835938 29.203125 C 122.304688 30.167969 123.722656 31.199219 125.09375 32.296875 C 126.46875 33.390625 127.789062 34.550781 129.054688 35.765625 C 130.320312 36.984375 131.53125 38.253906 132.679688 39.582031 C 133.832031 40.910156 134.917969 42.289062 135.941406 43.714844 C 136.964844 45.140625 137.925781 46.613281 138.8125 48.128906 C 139.703125 49.640625 140.523438 51.195312 141.269531 52.785156 C 142.019531 54.375 142.691406 55.992188 143.292969 57.644531 C 143.890625 59.296875 144.414062 60.972656 144.859375 62.671875 C 145.308594 64.371094 145.675781 66.085938 145.964844 67.816406 C 146.253906 69.550781 146.464844 71.292969 146.59375 73.042969 C 146.722656 74.796875 146.773438 76.550781 146.742188 78.308594 C 146.714844 80.0625 146.601562 81.816406 146.414062 83.5625 C 146.222656 85.308594 145.953125 87.042969 145.601562 88.761719 C 145.253906 90.484375 144.828125 92.1875 144.324219 93.871094 C 143.816406 95.550781 143.238281 97.207031 142.582031 98.839844 C 141.925781 100.46875 141.195312 102.0625 140.394531 103.625 C 139.589844 105.1875 138.71875 106.710938 137.777344 108.195312 C 136.835938 109.679688 135.828125 111.113281 134.753906 112.507812 C 133.683594 113.898438 132.546875 115.234375 131.351562 116.523438 C 130.15625 117.808594 128.90625 119.039062 127.597656 120.210938 C 126.289062 121.386719 124.929688 122.496094 123.519531 123.542969 C 122.109375 124.59375 120.65625 125.574219 119.15625 126.488281 C 117.65625 127.40625 116.117188 128.25 114.542969 129.023438 C 112.964844 129.800781 111.355469 130.5 109.714844 131.128906 C 108.074219 131.753906 106.410156 132.304688 104.71875 132.78125 C 103.027344 133.257812 101.316406 133.652344 99.589844 133.972656 C 97.863281 134.289062 96.125 134.53125 94.375 134.691406 C 92.625 134.847656 90.871094 134.929688 89.113281 134.929688 Z M 89.113281 134.929688 "/></g></svg>