<svg xmlns="http://www.w3.org/2000/svg" xmlns:xlink="http://www.w3.org/1999/xlink" width="200" zoomAndPan="magnify" viewBox="0 0 150 157.92" height="200" preserveAspectRatio="xMidYMid meet" version="1.2"><defs><clipPath id="d9be72974f"><path d="M 0.0390625 100 L 149.960938 100 L 149.960938 115 L 0.0390625 115 Z M 0.0390625 100 "/></clipPath><clipPath id="a5ba3c44c3"><path d="M 0.0390625 35 L 149.960938 35 L 149.960938 50 L 0.0390625 50 Z M 0.0390625 35 "/></clipPath><clipPath id="5fb00086d9"><path d="M 40 9.183594 L 110 9.183594 L 110 25 L 40 25 Z M 40 9.183594 "/></clipPath></defs><g id="094bdd89ed"><path style=" stroke:none;fill-rule:nonzero;fill:#ffa800;fill-opacity:1;" d="M 138.53125 49.90625 L 145.789062 73.761719 C 145.851562 65.269531 146.472656 56.78125 147.65625 48.382812 C 144.617188 48.925781 141.578125 49.433594 138.53125 49.90625 Z M 138.53125 49.90625 "/><path style=" stroke:none;fill-rule:nonzero;fill:#ffa800;fill-opacity:1;" d="M 147.644531 101.6875 C 147.296875 99.21875 147 96.738281 146.753906 94.257812 L 133.480469 50.65625 C 130.320312 51.113281 127.15625 51.527344 123.988281 51.902344 L 138.6875 100.191406 C 141.675781 100.65625 144.660156 101.15625 147.644531 101.6875 Z M 147.644531 101.6875 "/><path style=" stroke:none;fill-rule:nonzero;fill:#ffa800;fill-opacity:1;" d="M 133.160156 99.367188 L 118.890625 52.484375 C 115.691406 52.828125 112.496094 53.132812 109.296875 53.398438 L 122.882812 98.035156 C 126.308594 98.433594 129.734375 98.878906 133.160156 99.367188 Z M 133.160156 99.367188 "/><path style=" stroke:none;fill-rule:nonzero;fill:#ffa800;fill-opacity:1;" d="M 117.421875 97.433594 L 104.140625 53.796875 C 100.910156 54.027344 97.679688 54.21875 94.441406 54.371094 L 107.269531 96.507812 C 110.65625 96.773438 114.039062 97.082031 117.421875 97.433594 Z M 117.421875 97.433594 "/><path style=" stroke:none;fill-rule:nonzero;fill:#ffa800;fill-opacity:1;" d="M 101.875 96.121094 L 89.234375 54.585938 C 85.964844 54.699219 82.699219 54.773438 79.429688 54.808594 L 91.839844 95.585938 C 95.183594 95.722656 98.53125 95.898438 101.875 96.121094 Z M 101.875 96.121094 "/><path style=" stroke:none;fill-rule:nonzero;fill:#ffa800;fill-opacity:1;" d="M 86.507812 95.40625 L 74.15625 54.828125 C 70.851562 54.828125 67.546875 54.777344 64.246094 54.691406 L 76.585938 95.242188 C 79.894531 95.257812 83.199219 95.308594 86.507812 95.40625 Z M 86.507812 95.40625 "/><path style=" stroke:none;fill-rule:nonzero;fill:#ffa800;fill-opacity:1;" d="M 71.316406 95.257812 L 58.917969 54.515625 C 55.574219 54.386719 52.230469 54.214844 48.886719 54.003906 L 61.507812 95.464844 C 64.777344 95.355469 68.046875 95.289062 71.316406 95.257812 Z M 71.316406 95.257812 "/><path style=" stroke:none;fill-rule:nonzero;fill:#ffa800;fill-opacity:1;" d="M 56.292969 95.667969 L 43.496094 53.625 C 40.113281 53.367188 36.730469 53.0625 33.347656 52.71875 L 46.585938 96.226562 C 49.820312 96 53.054688 95.816406 56.292969 95.667969 Z M 56.292969 95.667969 "/><g clip-rule="nonzero" clip-path="url(#d9be72974f)"><path style=" stroke:none;fill-rule:nonzero;fill:#ffa800;fill-opacity:1;" d="M 136.402344 104.949219 C 136.394531 104.945312 136.390625 104.945312 136.386719 104.945312 C 136.355469 104.9375 136.324219 104.9375 136.292969 104.929688 C 131.164062 104.148438 126.035156 103.46875 120.894531 102.886719 C 120.886719 102.890625 120.878906 102.886719 120.871094 102.886719 C 120.730469 102.882812 120.597656 102.867188 120.460938 102.839844 C 115.46875 102.277344 110.472656 101.8125 105.472656 101.4375 L 105.46875 101.4375 C 105.433594 101.4375 105.398438 101.4375 105.363281 101.4375 C 105.203125 101.4375 105.046875 101.421875 104.894531 101.394531 C 104.890625 101.394531 104.886719 101.390625 104.878906 101.390625 C 99.992188 101.03125 95.101562 100.757812 90.207031 100.578125 C 90.125 100.585938 90.039062 100.589844 89.957031 100.589844 C 89.808594 100.589844 89.664062 100.578125 89.519531 100.550781 C 89.519531 100.550781 89.519531 100.550781 89.515625 100.550781 C 84.710938 100.378906 79.910156 100.289062 75.109375 100.289062 L 75.105469 100.289062 C 74.976562 100.308594 74.851562 100.320312 74.726562 100.320312 C 74.605469 100.320312 74.484375 100.308594 74.371094 100.292969 L 74.359375 100.292969 C 69.605469 100.300781 64.859375 100.386719 60.105469 100.566406 L 60.101562 100.566406 C 59.953125 100.59375 59.8125 100.605469 59.667969 100.605469 C 59.585938 100.605469 59.503906 100.601562 59.421875 100.589844 C 59.421875 100.589844 59.421875 100.589844 59.417969 100.589844 C 54.691406 100.769531 49.964844 101.035156 45.242188 101.382812 C 45.238281 101.382812 45.230469 101.386719 45.226562 101.386719 C 45.070312 101.414062 44.917969 101.429688 44.765625 101.429688 C 44.734375 101.429688 44.703125 101.429688 44.671875 101.425781 L 44.664062 101.425781 C 39.957031 101.777344 35.253906 102.207031 30.554688 102.726562 C 30.390625 102.757812 30.234375 102.777344 30.078125 102.78125 L 30.0625 102.78125 C 25.3125 103.308594 20.5625 103.917969 15.816406 104.617188 C 11.050781 105.3125 6.289062 106.097656 1.535156 106.964844 C 1.09375 109.582031 0.59375 112.183594 0.0429688 114.777344 L 6.996094 113.433594 C 29.554688 109.066406 52.277344 106.882812 75 106.882812 C 97.722656 106.882812 120.445312 109.066406 143.007812 113.433594 L 149.957031 114.777344 C 149.40625 112.183594 148.90625 109.582031 148.464844 106.964844 C 144.449219 106.230469 140.425781 105.558594 136.402344 104.949219 Z M 136.402344 104.949219 "/></g><path style=" stroke:none;fill-rule:nonzero;fill:#ffa800;fill-opacity:1;" d="M 12.183594 100.054688 L 4.210938 73.859375 C 4.265625 83.167969 3.648438 92.476562 2.355469 101.6875 C 5.628906 101.105469 8.902344 100.5625 12.183594 100.054688 Z M 12.183594 100.054688 "/><path style=" stroke:none;fill-rule:nonzero;fill:#ffa800;fill-opacity:1;" d="M 26.730469 98.082031 L 12.097656 50 C 8.84375 49.503906 5.59375 48.960938 2.34375 48.382812 C 2.507812 49.554688 2.664062 50.734375 2.808594 51.914062 L 2.808594 51.917969 L 17.230469 99.3125 C 20.398438 98.863281 23.5625 98.453125 26.730469 98.082031 Z M 26.730469 98.082031 "/><path style=" stroke:none;fill-rule:nonzero;fill:#ffa800;fill-opacity:1;" d="M 41.429688 96.613281 L 27.890625 52.128906 C 24.464844 51.734375 21.039062 51.296875 17.621094 50.816406 L 31.832031 97.511719 C 35.03125 97.175781 38.230469 96.875 41.429688 96.613281 Z M 41.429688 96.613281 "/><g clip-rule="nonzero" clip-path="url(#a5ba3c44c3)"><path style=" stroke:none;fill-rule:nonzero;fill:#ffa800;fill-opacity:1;" d="M 14.3125 45.230469 C 14.386719 45.238281 14.464844 45.25 14.539062 45.265625 C 19.664062 46.035156 24.796875 46.707031 29.929688 47.277344 C 30.046875 47.277344 30.164062 47.292969 30.277344 47.316406 C 30.28125 47.3125 30.285156 47.316406 30.289062 47.316406 C 35.28125 47.871094 40.277344 48.328125 45.277344 48.691406 C 45.484375 48.679688 45.6875 48.695312 45.886719 48.734375 C 50.761719 49.089844 55.644531 49.351562 60.527344 49.523438 C 60.769531 49.496094 61.011719 49.503906 61.246094 49.550781 C 66.042969 49.714844 70.84375 49.789062 75.644531 49.78125 L 75.652344 49.78125 C 75.902344 49.742188 76.148438 49.742188 76.386719 49.78125 C 81.132812 49.765625 85.878906 49.667969 90.617188 49.480469 C 90.859375 49.4375 91.097656 49.425781 91.332031 49.453125 C 96.039062 49.265625 100.75 48.992188 105.449219 48.640625 C 105.660156 48.597656 105.867188 48.582031 106.074219 48.59375 C 110.777344 48.234375 115.484375 47.789062 120.183594 47.261719 C 120.328125 47.234375 120.476562 47.21875 120.621094 47.214844 C 125.363281 46.679688 130.101562 46.0625 134.835938 45.359375 C 134.875 45.351562 134.90625 45.34375 134.945312 45.34375 C 139.457031 44.671875 143.96875 43.929688 148.476562 43.105469 C 148.917969 40.507812 149.414062 37.917969 149.960938 35.34375 C 125.28125 39.878906 100.082031 42.179688 75 42.179688 C 49.917969 42.179688 24.71875 39.878906 0.0390625 35.34375 C 0.585938 37.917969 1.082031 40.507812 1.523438 43.105469 C 5.78125 43.882812 10.046875 44.59375 14.3125 45.230469 Z M 14.3125 45.230469 "/></g><g clip-rule="nonzero" clip-path="url(#5fb00086d9)"><path style=" stroke:none;fill-rule:nonzero;fill:#ffa800;fill-opacity:1;" d="M 40.964844 17.484375 C 40.976562 17.566406 40.996094 17.640625 41.015625 17.714844 C 41.035156 17.773438 41.050781 17.828125 41.074219 17.878906 C 41.085938 17.914062 41.101562 17.949219 41.117188 17.984375 C 41.132812 18.027344 41.152344 18.074219 41.175781 18.117188 C 41.191406 18.148438 41.207031 18.175781 41.222656 18.207031 C 41.246094 18.253906 41.273438 18.296875 41.300781 18.339844 C 41.316406 18.367188 41.332031 18.390625 41.347656 18.414062 C 41.359375 18.429688 41.367188 18.441406 41.378906 18.453125 C 41.398438 18.488281 41.425781 18.527344 41.453125 18.558594 C 41.515625 18.640625 41.582031 18.714844 41.65625 18.789062 L 46.703125 23.839844 C 47.199219 24.332031 47.84375 24.578125 48.492188 24.578125 C 49.136719 24.578125 49.78125 24.332031 50.277344 23.839844 C 51.261719 22.851562 51.261719 21.253906 50.277344 20.265625 L 49.539062 19.527344 L 100.460938 19.527344 L 99.722656 20.265625 C 98.738281 21.253906 98.738281 22.851562 99.722656 23.839844 C 100.21875 24.332031 100.863281 24.578125 101.511719 24.578125 C 102.15625 24.578125 102.800781 24.332031 103.296875 23.839844 L 108.347656 18.789062 C 108.398438 18.734375 108.449219 18.679688 108.496094 18.625 C 108.511719 18.601562 108.527344 18.582031 108.546875 18.558594 C 108.578125 18.527344 108.601562 18.492188 108.625 18.457031 L 108.625 18.453125 C 108.632812 18.441406 108.644531 18.429688 108.652344 18.414062 C 108.667969 18.390625 108.683594 18.367188 108.699219 18.339844 C 108.730469 18.296875 108.757812 18.253906 108.777344 18.207031 C 108.796875 18.179688 108.808594 18.152344 108.824219 18.125 C 108.824219 18.121094 108.828125 18.121094 108.828125 18.117188 C 108.847656 18.074219 108.867188 18.027344 108.886719 17.984375 C 108.902344 17.953125 108.914062 17.917969 108.925781 17.886719 C 108.925781 17.882812 108.925781 17.882812 108.925781 17.878906 C 108.949219 17.828125 108.964844 17.773438 108.984375 17.714844 C 109.007812 17.640625 109.023438 17.566406 109.039062 17.484375 C 109.054688 17.40625 109.066406 17.324219 109.074219 17.246094 C 109.082031 17.164062 109.085938 17.085938 109.085938 17.003906 C 109.085938 16.921875 109.082031 16.84375 109.074219 16.761719 C 109.066406 16.679688 109.054688 16.597656 109.039062 16.519531 C 109.027344 16.441406 109.007812 16.367188 108.984375 16.289062 C 108.964844 16.234375 108.949219 16.179688 108.925781 16.125 C 108.925781 16.121094 108.925781 16.121094 108.925781 16.121094 C 108.914062 16.089844 108.902344 16.054688 108.886719 16.023438 C 108.867188 15.976562 108.847656 15.933594 108.828125 15.890625 C 108.828125 15.886719 108.824219 15.886719 108.824219 15.882812 C 108.808594 15.855469 108.796875 15.828125 108.777344 15.800781 C 108.757812 15.753906 108.730469 15.710938 108.699219 15.664062 C 108.683594 15.640625 108.667969 15.613281 108.652344 15.59375 C 108.644531 15.578125 108.632812 15.5625 108.625 15.550781 L 108.625 15.546875 C 108.601562 15.515625 108.578125 15.480469 108.546875 15.449219 C 108.527344 15.425781 108.511719 15.402344 108.496094 15.382812 C 108.449219 15.324219 108.398438 15.269531 108.347656 15.21875 L 103.296875 10.167969 C 102.308594 9.183594 100.710938 9.183594 99.722656 10.167969 C 98.738281 11.15625 98.738281 12.753906 99.722656 13.742188 L 100.460938 14.480469 L 49.539062 14.480469 L 50.277344 13.742188 C 51.261719 12.753906 51.261719 11.15625 50.277344 10.167969 C 49.289062 9.183594 47.691406 9.183594 46.703125 10.167969 L 41.65625 15.21875 C 41.582031 15.289062 41.515625 15.367188 41.453125 15.449219 C 41.425781 15.480469 41.398438 15.515625 41.375 15.550781 C 41.367188 15.566406 41.359375 15.578125 41.347656 15.59375 C 41.332031 15.613281 41.316406 15.640625 41.300781 15.664062 C 41.273438 15.710938 41.242188 15.753906 41.222656 15.800781 C 41.207031 15.828125 41.191406 15.859375 41.175781 15.890625 C 41.152344 15.933594 41.132812 15.976562 41.113281 16.023438 C 41.097656 16.058594 41.085938 16.089844 41.074219 16.125 C 41.050781 16.179688 41.035156 16.234375 41.015625 16.289062 C 40.996094 16.367188 40.976562 16.441406 40.960938 16.519531 C 40.945312 16.601562 40.933594 16.683594 40.929688 16.761719 C 40.917969 16.84375 40.914062 16.921875 40.914062 17.003906 C 40.914062 17.085938 40.917969 17.164062 40.929688 17.246094 C 40.933594 17.324219 40.949219 17.40625 40.964844 17.484375 Z M 40.964844 17.484375 "/></g><path style=" stroke:none;fill-rule:nonzero;fill:#ffa800;fill-opacity:1;" d="M 109.035156 132.65625 C 109.023438 132.578125 109.003906 132.503906 108.984375 132.425781 C 108.964844 132.371094 108.949219 132.316406 108.925781 132.261719 C 108.914062 132.226562 108.898438 132.191406 108.882812 132.160156 C 108.867188 132.113281 108.847656 132.070312 108.824219 132.027344 C 108.808594 131.996094 108.792969 131.964844 108.777344 131.9375 C 108.753906 131.890625 108.726562 131.847656 108.699219 131.800781 C 108.683594 131.777344 108.667969 131.75 108.652344 131.730469 C 108.640625 131.714844 108.632812 131.699219 108.621094 131.6875 C 108.601562 131.652344 108.574219 131.617188 108.546875 131.585938 C 108.484375 131.503906 108.417969 131.425781 108.34375 131.355469 L 103.296875 126.304688 C 102.308594 125.320312 100.710938 125.320312 99.722656 126.304688 C 98.738281 127.292969 98.738281 128.890625 99.722656 129.878906 L 100.460938 130.617188 L 49.539062 130.617188 L 50.277344 129.878906 C 51.261719 128.890625 51.261719 127.292969 50.277344 126.304688 C 49.289062 125.320312 47.691406 125.320312 46.703125 126.304688 L 41.65625 131.355469 C 41.582031 131.425781 41.515625 131.503906 41.453125 131.585938 C 41.425781 131.617188 41.398438 131.652344 41.375 131.6875 C 41.367188 131.699219 41.359375 131.714844 41.347656 131.730469 C 41.332031 131.75 41.316406 131.777344 41.300781 131.800781 C 41.273438 131.847656 41.242188 131.890625 41.222656 131.9375 C 41.207031 131.964844 41.191406 131.996094 41.175781 132.027344 C 41.152344 132.070312 41.132812 132.113281 41.113281 132.160156 C 41.097656 132.191406 41.085938 132.226562 41.074219 132.261719 C 41.050781 132.316406 41.035156 132.371094 41.015625 132.425781 C 40.996094 132.503906 40.976562 132.578125 40.960938 132.65625 C 40.945312 132.734375 40.933594 132.816406 40.929688 132.898438 C 40.917969 132.980469 40.914062 133.058594 40.914062 133.140625 C 40.914062 133.222656 40.917969 133.300781 40.929688 133.382812 C 40.933594 133.460938 40.945312 133.542969 40.960938 133.621094 C 40.976562 133.703125 40.996094 133.777344 41.015625 133.851562 C 41.035156 133.910156 41.050781 133.964844 41.074219 134.015625 C 41.085938 134.050781 41.097656 134.085938 41.113281 134.121094 C 41.132812 134.164062 41.152344 134.210938 41.175781 134.253906 C 41.191406 134.285156 41.207031 134.3125 41.222656 134.34375 C 41.242188 134.390625 41.273438 134.433594 41.300781 134.476562 C 41.316406 134.503906 41.332031 134.527344 41.347656 134.550781 C 41.359375 134.566406 41.367188 134.578125 41.375 134.589844 C 41.398438 134.625 41.425781 134.664062 41.453125 134.695312 C 41.515625 134.777344 41.582031 134.851562 41.65625 134.925781 L 46.703125 139.976562 C 47.199219 140.46875 47.84375 140.714844 48.492188 140.714844 C 49.136719 140.714844 49.78125 140.46875 50.277344 139.976562 C 51.261719 138.988281 51.261719 137.390625 50.277344 136.402344 L 49.539062 135.664062 L 100.460938 135.664062 L 99.722656 136.402344 C 98.738281 137.390625 98.738281 138.988281 99.722656 139.976562 C 100.21875 140.46875 100.863281 140.714844 101.507812 140.714844 C 102.15625 140.714844 102.800781 140.46875 103.296875 139.976562 L 108.34375 134.925781 C 108.417969 134.851562 108.484375 134.777344 108.546875 134.695312 C 108.574219 134.664062 108.601562 134.625 108.625 134.589844 C 108.632812 134.578125 108.640625 134.566406 108.652344 134.550781 C 108.667969 134.527344 108.683594 134.503906 108.699219 134.476562 C 108.726562 134.433594 108.757812 134.390625 108.777344 134.34375 C 108.792969 134.3125 108.808594 134.285156 108.824219 134.253906 C 108.847656 134.210938 108.867188 134.164062 108.886719 134.121094 C 108.902344 134.085938 108.914062 134.050781 108.925781 134.015625 C 108.949219 133.964844 108.964844 133.910156 108.984375 133.851562 C 109.003906 133.777344 109.023438 133.703125 109.039062 133.621094 C 109.054688 133.542969 109.066406 133.460938 109.070312 133.382812 C 109.082031 133.300781 109.085938 133.222656 109.085938 133.140625 C 109.085938 133.058594 109.082031 132.980469 109.070312 132.898438 C 109.066406 132.816406 109.050781 132.734375 109.035156 132.65625 Z M 109.035156 132.65625 "/></g></svg>