<svg xmlns="http://www.w3.org/2000/svg" xmlns:xlink="http://www.w3.org/1999/xlink" width="200" zoomAndPan="magnify" viewBox="0 0 150 157.92" height="200" preserveAspectRatio="xMidYMid meet" version="1.2"><defs><clipPath id="24388e2ed7"><path d="M 58 136 L 65 136 L 65 144.863281 L 58 144.863281 Z M 58 136 "/></clipPath><clipPath id="27e06fd73a"><path d="M 42 120 L 81 120 L 81 144.863281 L 42 144.863281 Z M 42 120 "/></clipPath><clipPath id="8fcc9722f6"><path d="M 0.0390625 84 L 38 84 L 38 124 L 0.0390625 124 Z M 0.0390625 84 "/></clipPath><clipPath id="9fc6efcb4d"><path d="M 0.0390625 128 L 38 128 L 38 144.863281 L 0.0390625 144.863281 Z M 0.0390625 128 "/></clipPath><clipPath id="1f46b61887"><path d="M 128 117 L 149.960938 117 L 149.960938 124 L 128 124 Z M 128 117 "/></clipPath><clipPath id="724a5acd77"><path d="M 128 128 L 145 128 L 145 144.863281 L 128 144.863281 Z M 128 128 "/></clipPath><clipPath id="a0fa26c4ed"><path d="M 85 128 L 124 128 L 124 144.863281 L 85 144.863281 Z M 85 128 "/></clipPath><clipPath id="5613713453"><path d="M 77 5.433594 L 126 5.433594 L 126 30 L 77 30 Z M 77 5.433594 "/></clipPath><clipPath id="8e35b714a7"><path d="M 32 5.433594 L 65 5.433594 L 65 30 L 32 30 Z M 32 5.433594 "/></clipPath></defs><g id="808b38ac44"><g clip-rule="nonzero" clip-path="url(#24388e2ed7)"><path style=" stroke:none;fill-rule:nonzero;fill:#ffa800;fill-opacity:1;" d="M 58.957031 144.488281 L 64.304688 144.488281 L 64.304688 136.46875 L 58.957031 136.46875 L 58.957031 144.488281 "/></g><g clip-rule="nonzero" clip-path="url(#27e06fd73a)"><path style=" stroke:none;fill-rule:nonzero;fill:#ffa800;fill-opacity:1;" d="M 42.910156 144.488281 L 53.605469 144.488281 L 53.605469 133.792969 C 53.605469 132.320312 54.808594 131.117188 56.28125 131.117188 L 66.976562 131.117188 C 68.449219 131.117188 69.652344 132.320312 69.652344 133.792969 L 69.652344 144.488281 L 80.347656 144.488281 L 80.347656 120.421875 L 42.910156 120.421875 L 42.910156 144.488281 "/></g><path style=" stroke:none;fill-rule:nonzero;fill:#ffa800;fill-opacity:1;" d="M 42.910156 99.800781 L 50.367188 95.601562 L 49.0625 56.242188 L 31.410156 56.242188 L 30.53125 82.703125 L 38.929688 77.980469 C 39.753906 77.519531 40.769531 77.519531 41.582031 78 C 42.410156 78.480469 42.910156 79.359375 42.910156 80.308594 L 42.910156 99.800781 "/><path style=" stroke:none;fill-rule:nonzero;fill:#ffa800;fill-opacity:1;" d="M 42.910156 115.074219 L 80.347656 115.074219 L 80.347656 84.886719 L 42.910156 105.945312 L 42.910156 115.074219 "/><g clip-rule="nonzero" clip-path="url(#8fcc9722f6)"><path style=" stroke:none;fill-rule:nonzero;fill:#ffa800;fill-opacity:1;" d="M 0.125 123.097656 L 37.5625 123.097656 L 37.5625 84.886719 L 0.125 105.945312 L 0.125 123.097656 "/></g><g clip-rule="nonzero" clip-path="url(#9fc6efcb4d)"><path style=" stroke:none;fill-rule:nonzero;fill:#ffa800;fill-opacity:1;" d="M 5.472656 133.792969 L 10.820312 133.792969 L 10.820312 139.140625 L 5.472656 139.140625 Z M 16.167969 133.792969 L 21.515625 133.792969 L 21.515625 139.140625 L 16.167969 139.140625 Z M 26.867188 133.792969 L 32.214844 133.792969 L 32.214844 139.140625 L 26.867188 139.140625 Z M 0.125 144.488281 L 37.5625 144.488281 L 37.5625 128.445312 L 0.125 128.445312 L 0.125 144.488281 "/></g><path style=" stroke:none;fill-rule:nonzero;fill:#ffa800;fill-opacity:1;" d="M 85.695312 99.800781 L 95.789062 94.128906 L 94.523438 56.242188 L 76.871094 56.242188 L 76.042969 81.167969 L 81.714844 77.980469 C 82.542969 77.519531 83.554688 77.519531 84.371094 78 C 85.195312 78.480469 85.695312 79.359375 85.695312 80.308594 L 85.695312 99.800781 "/><path style=" stroke:none;fill-rule:nonzero;fill:#ffa800;fill-opacity:1;" d="M 144.527344 107.050781 L 128.484375 107.050781 L 128.484375 112.398438 L 144.527344 112.398438 L 144.527344 107.050781 "/><g clip-rule="nonzero" clip-path="url(#1f46b61887)"><path style=" stroke:none;fill-rule:nonzero;fill:#ffa800;fill-opacity:1;" d="M 147.203125 117.746094 L 128.484375 117.746094 L 128.484375 123.097656 L 147.203125 123.097656 C 148.675781 123.097656 149.875 121.894531 149.875 120.421875 C 149.875 118.949219 148.675781 117.746094 147.203125 117.746094 "/></g><g clip-rule="nonzero" clip-path="url(#724a5acd77)"><path style=" stroke:none;fill-rule:nonzero;fill:#ffa800;fill-opacity:1;" d="M 133.832031 133.792969 L 139.179688 133.792969 L 139.179688 139.140625 L 133.832031 139.140625 Z M 128.484375 144.488281 L 144.527344 144.488281 L 144.527344 128.445312 L 128.484375 128.445312 L 128.484375 144.488281 "/></g><path style=" stroke:none;fill-rule:nonzero;fill:#ffa800;fill-opacity:1;" d="M 48.34375 34.851562 L 32.128906 34.851562 L 31.953125 40.199219 L 48.519531 40.199219 L 48.34375 34.851562 "/><path style=" stroke:none;fill-rule:nonzero;fill:#ffa800;fill-opacity:1;" d="M 48.769531 47.46875 L 48.699219 45.546875 L 31.773438 45.546875 L 31.597656 50.894531 L 48.886719 50.894531 L 48.769531 47.46875 "/><path style=" stroke:none;fill-rule:nonzero;fill:#ffa800;fill-opacity:1;" d="M 85.695312 123.097656 L 123.132812 123.097656 L 123.132812 84.886719 L 85.695312 105.945312 L 85.695312 123.097656 "/><g clip-rule="nonzero" clip-path="url(#a0fa26c4ed)"><path style=" stroke:none;fill-rule:nonzero;fill:#ffa800;fill-opacity:1;" d="M 91.042969 133.792969 L 96.394531 133.792969 L 96.394531 139.140625 L 91.042969 139.140625 Z M 101.742188 133.792969 L 107.089844 133.792969 L 107.089844 139.140625 L 101.742188 139.140625 Z M 112.4375 133.792969 L 117.785156 133.792969 L 117.785156 139.140625 L 112.4375 139.140625 Z M 85.695312 144.488281 L 123.132812 144.488281 L 123.132812 128.445312 L 85.695312 128.445312 L 85.695312 144.488281 "/></g><path style=" stroke:none;fill-rule:nonzero;fill:#ffa800;fill-opacity:1;" d="M 94.199219 46.757812 L 94.15625 45.546875 L 77.234375 45.546875 L 77.214844 46.058594 L 77.046875 50.894531 L 94.34375 50.894531 L 94.199219 46.757812 "/><path style=" stroke:none;fill-rule:nonzero;fill:#ffa800;fill-opacity:1;" d="M 93.800781 34.851562 L 77.589844 34.851562 L 77.414062 40.199219 L 93.980469 40.199219 L 93.800781 34.851562 "/><g clip-rule="nonzero" clip-path="url(#5613713453)"><path style=" stroke:none;fill-rule:nonzero;fill:#ffa800;fill-opacity:1;" d="M 77.675781 24.152344 C 77.675781 19.726562 81.265625 16.132812 85.695312 16.132812 L 93.71875 16.132812 C 95.191406 16.132812 96.394531 14.929688 96.394531 13.457031 C 96.394531 9.027344 99.988281 5.433594 104.414062 5.433594 L 125.808594 5.433594 L 125.808594 10.78125 C 125.808594 15.210938 122.214844 18.804688 117.785156 18.804688 L 109.761719 18.804688 C 108.289062 18.804688 107.089844 20.007812 107.089844 21.480469 C 107.089844 25.910156 103.496094 29.5 99.066406 29.5 L 77.675781 29.5 L 77.675781 24.152344 "/></g><g clip-rule="nonzero" clip-path="url(#8e35b714a7)"><path style=" stroke:none;fill-rule:nonzero;fill:#ffa800;fill-opacity:1;" d="M 32.214844 26.828125 C 32.214844 22.398438 35.808594 18.804688 40.238281 18.804688 C 41.710938 18.804688 42.910156 17.605469 42.910156 16.132812 L 42.910156 13.457031 C 42.910156 9.027344 46.503906 5.433594 50.933594 5.433594 L 64.304688 5.433594 L 64.304688 8.109375 C 64.304688 12.539062 60.710938 16.132812 56.28125 16.132812 C 54.808594 16.132812 53.605469 17.332031 53.605469 18.804688 L 53.605469 21.480469 C 53.605469 25.910156 50.011719 29.5 45.585938 29.5 L 32.214844 29.5 L 32.214844 26.828125 "/></g></g></svg>