<svg xmlns="http://www.w3.org/2000/svg" xmlns:xlink="http://www.w3.org/1999/xlink" width="200" zoomAndPan="magnify" viewBox="0 0 150 157.92" height="200" preserveAspectRatio="xMidYMid meet" version="1.2"><defs><clipPath id="696f250674"><path d="M 0.0390625 9.269531 L 149.960938 9.269531 L 149.960938 140 L 0.0390625 140 Z M 0.0390625 9.269531 "/></clipPath></defs><g id="91a3859b8c"><g clip-rule="nonzero" clip-path="url(#696f250674)"><path style=" stroke:none;fill-rule:nonzero;fill:#ffa800;fill-opacity:1;" d="M 56.570312 16.320312 C 59.316406 11.867188 62.605469 9.269531 66.070312 9.269531 C 75.574219 9.269531 83.613281 28.839844 83.613281 52.03125 C 83.613281 75.21875 83.613281 52.296875 83.613281 52.449219 C 78.800781 49.96875 73.75 48.355469 68.96875 47.308594 C 68.101562 32.246094 63.203125 20.175781 56.570312 16.351562 Z M 44.882812 52.03125 C 44.882812 32.578125 50.085938 16.261719 57.703125 9.269531 L 17.601562 9.269531 C 8.097656 9.269531 0.0625 28.839844 0.0625 52.03125 C 0.0625 75.21875 8.097656 94.792969 17.601562 94.792969 L 57.703125 94.792969 C 50.113281 87.800781 44.882812 71.511719 44.882812 52.03125 Z M 68.910156 94.164062 C 67.386719 88.90625 64.277344 85.675781 61.019531 83.703125 C 59.644531 85.496094 58.183594 86.871094 56.597656 87.738281 C 59.347656 92.160156 62.605469 94.761719 66.070312 94.761719 C 69.539062 94.761719 67.953125 94.550781 68.910156 94.132812 Z M 146.394531 125.839844 L 138.773438 132.980469 C 135.039062 136.476562 129.808594 136.476562 126.046875 132.980469 C 120.933594 128.199219 113.496094 128.199219 108.355469 132.980469 C 104.621094 136.476562 99.390625 136.476562 95.625 132.980469 C 90.515625 128.199219 83.074219 128.167969 77.933594 132.980469 C 74.199219 136.476562 68.96875 136.476562 65.234375 132.980469 C 60.09375 128.167969 52.683594 128.167969 47.542969 132.980469 C 43.808594 136.476562 38.578125 136.476562 34.84375 132.980469 L 27.253906 125.867188 C 26.507812 125.183594 25.371094 125.210938 24.683594 125.957031 C 23.996094 126.707031 24.027344 127.839844 24.773438 128.527344 L 32.363281 135.640625 C 37.472656 140.453125 44.914062 140.453125 50.054688 135.640625 C 53.789062 132.144531 59.019531 132.144531 62.753906 135.640625 C 67.863281 140.453125 75.304688 140.453125 80.445312 135.640625 C 84.179688 132.144531 89.410156 132.144531 93.175781 135.640625 C 98.285156 140.421875 105.726562 140.453125 110.863281 135.640625 C 114.601562 132.144531 119.828125 132.144531 123.59375 135.640625 C 126.164062 138.03125 129.300781 139.226562 132.441406 139.226562 C 135.578125 139.226562 138.714844 138.03125 141.285156 135.640625 L 148.90625 128.5 C 149.652344 127.8125 149.683594 126.644531 148.996094 125.929688 C 148.308594 125.183594 147.140625 125.152344 146.425781 125.839844 Z M 91.230469 62.070312 C 99.359375 69.539062 103.484375 80.089844 103.484375 93.386719 L 103.484375 122.074219 C 100.765625 122.550781 97.925781 121.714844 95.625 119.59375 C 90.515625 114.8125 83.074219 114.78125 77.933594 119.59375 C 76.589844 120.847656 75.066406 121.625 73.480469 121.984375 L 73.480469 101.484375 C 73.480469 89.113281 67.386719 82.957031 61.46875 79.941406 C 61.46875 79.941406 61.410156 79.878906 61.378906 79.851562 C 61.289062 79.789062 61.171875 79.761719 61.082031 79.730469 C 57.34375 77.90625 53.789062 77.28125 51.90625 77.042969 C 49.753906 69.960938 48.46875 61.261719 48.46875 52.03125 C 48.46875 42.796875 48.46875 50.058594 48.53125 49.101562 C 54.65625 48.890625 77.066406 49.101562 91.203125 62.070312 Z M 83.433594 86.515625 C 81.578125 77.578125 76.351562 71.003906 67.894531 67 C 66.996094 66.582031 65.890625 66.941406 65.472656 67.867188 C 65.054688 68.765625 65.445312 69.871094 66.339844 70.289062 C 73.691406 73.785156 78.261719 79.492188 79.875 87.261719 C 80.054688 88.128906 80.804688 88.695312 81.667969 88.695312 C 82.535156 88.695312 81.910156 88.695312 82.027344 88.664062 C 83.015625 88.457031 83.640625 87.5 83.433594 86.515625 Z M 96.609375 100.589844 C 96.609375 99.574219 95.804688 98.765625 94.789062 98.765625 C 93.773438 98.765625 92.964844 99.574219 92.964844 100.589844 L 92.964844 108.867188 C 92.964844 109.882812 93.773438 110.6875 94.789062 110.6875 C 95.804688 110.6875 96.609375 109.882812 96.609375 108.867188 Z M 63.5 59.648438 C 67.804688 60.457031 71.75 61.683594 75.214844 63.355469 C 86.988281 68.941406 92.964844 79.011719 92.964844 93.238281 C 92.964844 107.460938 93.773438 95.058594 94.789062 95.058594 C 95.804688 95.058594 96.609375 94.253906 96.609375 93.238281 C 96.609375 77.699219 89.769531 66.222656 76.769531 60.066406 C 73.003906 58.273438 68.761719 56.960938 64.160156 56.09375 C 63.171875 55.914062 62.214844 56.570312 62.035156 57.558594 C 61.859375 58.542969 62.515625 59.5 63.5 59.679688 Z M 95.65625 122.550781 C 90.542969 117.769531 83.105469 117.742188 77.964844 122.550781 C 74.230469 126.046875 69 126.046875 65.265625 122.550781 C 60.125 117.742188 52.714844 117.742188 47.574219 122.550781 C 43.839844 126.046875 38.609375 126.046875 34.875 122.550781 L 27.285156 115.441406 C 26.535156 114.753906 25.402344 114.78125 24.714844 115.53125 C 24.027344 116.277344 24.054688 117.414062 24.804688 118.097656 L 32.394531 125.210938 C 37.503906 130.023438 44.945312 130.023438 50.085938 125.210938 C 53.820312 121.714844 59.046875 121.714844 62.785156 125.210938 C 67.894531 130.023438 75.335938 130.023438 80.472656 125.210938 C 84.210938 121.714844 89.4375 121.714844 93.203125 125.210938 C 98.3125 129.992188 105.753906 130.023438 110.894531 125.210938 C 114.628906 121.714844 119.859375 121.714844 123.625 125.210938 C 126.195312 127.601562 129.332031 128.796875 132.46875 128.796875 C 135.605469 128.796875 138.746094 127.601562 141.316406 125.210938 L 148.933594 118.070312 C 149.683594 117.382812 149.710938 116.21875 149.023438 115.5 C 148.335938 114.753906 147.171875 114.722656 146.453125 115.410156 L 138.835938 122.550781 C 135.097656 126.046875 129.871094 126.046875 126.105469 122.550781 C 120.996094 117.769531 113.554688 117.769531 108.414062 122.550781 C 104.679688 126.046875 99.449219 126.046875 95.683594 122.550781 Z M 95.65625 122.550781 "/></g></g></svg>