<svg xmlns="http://www.w3.org/2000/svg" xmlns:xlink="http://www.w3.org/1999/xlink" width="200" zoomAndPan="magnify" viewBox="0 0 150 157.92" height="200" preserveAspectRatio="xMidYMid meet" version="1.2"><defs><clipPath id="a1cf40401c"><path d="M 46 94 L 104 94 L 104 149.925781 L 46 149.925781 Z M 46 94 "/></clipPath></defs><g id="77550dd39e"><path style=" stroke:none;fill-rule:nonzero;fill:#ffa800;fill-opacity:1;" d="M 35.277344 92.261719 C 36.691406 92.261719 37.839844 93.410156 37.839844 94.824219 C 37.839844 96.238281 36.691406 97.386719 35.277344 97.386719 L 5.804688 97.386719 L 5.804688 130.703125 C 5.804688 134.941406 9.253906 138.390625 13.492188 138.390625 L 41.683594 138.390625 L 41.683594 102.511719 C 41.683594 96.324219 46.09375 91.148438 51.933594 89.957031 L 51.933594 84.574219 C 51.933594 84.183594 51.988281 83.804688 52.070312 83.4375 C 51.605469 83.351562 51.132812 83.292969 50.652344 83.292969 L 13.492188 83.292969 C 9.253906 83.292969 5.804688 86.738281 5.804688 90.980469 L 5.804688 92.261719 Z M 35.277344 130.703125 L 16.054688 130.703125 C 14.640625 130.703125 13.492188 129.554688 13.492188 128.140625 C 13.492188 126.726562 14.640625 125.578125 16.054688 125.578125 L 35.277344 125.578125 C 36.691406 125.578125 37.839844 126.726562 37.839844 128.140625 C 37.839844 129.554688 36.691406 130.703125 35.277344 130.703125 Z M 35.277344 130.703125 "/><path style=" stroke:none;fill-rule:nonzero;fill:#ffa800;fill-opacity:1;" d="M 99.347656 83.292969 C 98.867188 83.292969 98.394531 83.351562 97.929688 83.4375 C 98.011719 83.804688 98.066406 84.183594 98.066406 84.574219 L 98.066406 89.957031 C 103.90625 91.148438 108.316406 96.324219 108.316406 102.511719 L 108.316406 138.390625 L 136.507812 138.390625 C 140.746094 138.390625 144.195312 134.941406 144.195312 130.703125 L 114.722656 130.703125 C 113.308594 130.703125 112.160156 129.554688 112.160156 128.140625 C 112.160156 126.726562 113.308594 125.578125 114.722656 125.578125 L 144.195312 125.578125 L 144.195312 90.980469 C 144.195312 86.738281 140.746094 83.292969 136.507812 83.292969 Z M 133.945312 97.386719 L 114.722656 97.386719 C 113.308594 97.386719 112.160156 96.238281 112.160156 94.824219 C 112.160156 93.410156 113.308594 92.261719 114.722656 92.261719 L 133.945312 92.261719 C 135.359375 92.261719 136.507812 93.410156 136.507812 94.824219 C 136.507812 96.238281 135.359375 97.386719 133.945312 97.386719 Z M 133.945312 97.386719 "/><path style=" stroke:none;fill-rule:nonzero;fill:#ffa800;fill-opacity:1;" d="M 16.054688 73.039062 L 48.089844 73.039062 L 48.089844 78.164062 L 16.054688 78.164062 Z M 16.054688 73.039062 "/><path style=" stroke:none;fill-rule:nonzero;fill:#ffa800;fill-opacity:1;" d="M 57.058594 84.574219 L 92.941406 84.574219 L 92.941406 89.699219 L 57.058594 89.699219 Z M 57.058594 84.574219 "/><g clip-rule="nonzero" clip-path="url(#a1cf40401c)"><path style=" stroke:none;fill-rule:nonzero;fill:#ffa800;fill-opacity:1;" d="M 54.496094 139.671875 C 54.496094 138.257812 55.644531 137.109375 57.058594 137.109375 L 103.191406 137.109375 L 103.191406 102.511719 C 103.191406 98.273438 99.742188 94.824219 95.503906 94.824219 L 54.496094 94.824219 C 50.257812 94.824219 46.808594 98.273438 46.808594 102.511719 L 46.808594 103.792969 L 92.941406 103.792969 C 94.355469 103.792969 95.503906 104.941406 95.503906 106.355469 C 95.503906 107.769531 94.355469 108.917969 92.941406 108.917969 L 46.808594 108.917969 L 46.808594 142.234375 C 46.808594 146.476562 50.257812 149.925781 54.496094 149.925781 L 95.503906 149.925781 C 99.742188 149.925781 103.191406 146.476562 103.191406 142.234375 L 57.058594 142.234375 C 55.644531 142.234375 54.496094 141.085938 54.496094 139.671875 Z M 54.496094 139.671875 "/></g><path style=" stroke:none;fill-rule:nonzero;fill:#ffa800;fill-opacity:1;" d="M 40.402344 47.410156 L 114.722656 47.410156 C 120.375 47.410156 124.976562 42.8125 124.976562 37.160156 C 124.976562 30.773438 119.128906 25.667969 112.457031 27.171875 C 111.621094 27.359375 110.746094 27.117188 110.128906 26.527344 C 109.507812 25.9375 109.222656 25.074219 109.371094 24.230469 C 109.523438 23.351562 109.597656 22.550781 109.597656 21.785156 C 109.597656 14.011719 103.273438 7.6875 95.503906 7.6875 C 91.203125 7.6875 87.195312 9.621094 84.496094 12.992188 C 83.921875 13.710938 83.011719 14.066406 82.105469 13.925781 C 81.195312 13.785156 80.433594 13.171875 80.105469 12.316406 C 77.21875 4.832031 70.183594 0 62.1875 0 C 51.585938 0 42.964844 8.621094 42.964844 19.222656 C 42.964844 20.636719 41.816406 21.785156 40.402344 21.785156 C 33.335938 21.785156 27.589844 27.53125 27.589844 34.597656 C 27.589844 41.664062 33.335938 47.410156 40.402344 47.410156 Z M 40.402344 47.410156 "/><path style=" stroke:none;fill-rule:nonzero;fill:#ffa800;fill-opacity:1;" d="M 101.910156 73.039062 L 133.945312 73.039062 L 133.945312 78.164062 L 101.910156 78.164062 Z M 101.910156 73.039062 "/><path style=" stroke:none;fill-rule:nonzero;fill:#ffa800;fill-opacity:1;" d="M 45.636719 52.648438 L 40.511719 57.773438 C 39.511719 58.773438 39.511719 60.394531 40.511719 61.398438 C 41.011719 61.898438 41.667969 62.148438 42.324219 62.148438 C 42.980469 62.148438 43.636719 61.898438 44.136719 61.398438 L 49.261719 56.273438 C 50.261719 55.269531 50.261719 53.648438 49.261719 52.648438 C 48.261719 51.648438 46.640625 51.648438 45.636719 52.648438 Z M 45.636719 52.648438 "/><path style=" stroke:none;fill-rule:nonzero;fill:#ffa800;fill-opacity:1;" d="M 71.046875 52.648438 C 70.042969 51.648438 68.421875 51.648438 67.421875 52.648438 L 62.296875 57.773438 C 61.296875 58.773438 61.296875 60.394531 62.296875 61.398438 C 62.796875 61.898438 63.453125 62.148438 64.109375 62.148438 C 64.765625 62.148438 65.417969 61.898438 65.921875 61.398438 L 71.046875 56.273438 C 72.046875 55.269531 72.046875 53.648438 71.046875 52.648438 Z M 71.046875 52.648438 "/><path style=" stroke:none;fill-rule:nonzero;fill:#ffa800;fill-opacity:1;" d="M 92.828125 52.648438 C 91.828125 51.648438 90.207031 51.648438 89.207031 52.648438 L 84.078125 57.773438 C 83.078125 58.773438 83.078125 60.394531 84.078125 61.398438 C 84.582031 61.898438 85.234375 62.148438 85.890625 62.148438 C 86.546875 62.148438 87.203125 61.898438 87.703125 61.398438 L 92.828125 56.273438 C 93.832031 55.269531 93.832031 53.648438 92.828125 52.648438 Z M 92.828125 52.648438 "/><path style=" stroke:none;fill-rule:nonzero;fill:#ffa800;fill-opacity:1;" d="M 67.421875 66.742188 L 62.296875 71.867188 C 61.296875 72.871094 61.296875 74.492188 62.296875 75.492188 C 62.796875 75.992188 63.453125 76.242188 64.109375 76.242188 C 64.765625 76.242188 65.417969 75.992188 65.921875 75.492188 L 71.046875 70.367188 C 72.046875 69.367188 72.046875 67.742188 71.046875 66.742188 C 70.042969 65.742188 68.421875 65.742188 67.421875 66.742188 Z M 67.421875 66.742188 "/><path style=" stroke:none;fill-rule:nonzero;fill:#ffa800;fill-opacity:1;" d="M 89.207031 66.742188 L 84.078125 71.867188 C 83.078125 72.871094 83.078125 74.492188 84.078125 75.492188 C 84.582031 75.992188 85.234375 76.242188 85.890625 76.242188 C 86.546875 76.242188 87.203125 75.992188 87.703125 75.492188 L 92.828125 70.367188 C 93.832031 69.367188 93.832031 67.742188 92.828125 66.742188 C 91.828125 65.742188 90.207031 65.742188 89.207031 66.742188 Z M 89.207031 66.742188 "/><path style=" stroke:none;fill-rule:nonzero;fill:#ffa800;fill-opacity:1;" d="M 110.988281 52.648438 L 105.863281 57.773438 C 104.863281 58.773438 104.863281 60.394531 105.863281 61.398438 C 106.363281 61.898438 107.019531 62.148438 107.675781 62.148438 C 108.332031 62.148438 108.988281 61.898438 109.488281 61.398438 L 114.613281 56.273438 C 115.613281 55.269531 115.613281 53.648438 114.613281 52.648438 C 113.613281 51.648438 111.988281 51.648438 110.988281 52.648438 Z M 110.988281 52.648438 "/></g></svg>