<svg xmlns="http://www.w3.org/2000/svg" xmlns:xlink="http://www.w3.org/1999/xlink" width="200" zoomAndPan="magnify" viewBox="0 0 150 157.92" height="200" preserveAspectRatio="xMidYMid meet" version="1.2"><defs><clipPath id="05449dd192"><path d="M 9.035156 0 L 140.964844 0 L 140.964844 149.925781 L 9.035156 149.925781 Z M 9.035156 0 "/></clipPath></defs><g id="a702371526"><path style=" stroke:none;fill-rule:nonzero;fill:#ffa800;fill-opacity:1;" d="M 72.855469 73.667969 L 80.039062 93.523438 L 84.433594 84.707031 C 84.578125 84.441406 84.761719 84.210938 84.984375 84.007812 C 85.207031 83.808594 85.457031 83.652344 85.738281 83.539062 C 86.015625 83.425781 86.304688 83.363281 86.605469 83.351562 C 86.90625 83.335938 87.199219 83.375 87.484375 83.464844 L 98.136719 87.164062 L 88.132812 65.8125 C 86.046875 67.871094 83.703125 69.574219 81.097656 70.914062 C 78.492188 72.253906 75.742188 73.171875 72.855469 73.667969 Z M 72.855469 73.667969 "/><path style=" stroke:none;fill-rule:nonzero;fill:#ffa800;fill-opacity:1;" d="M 37.828125 87.164062 L 48.53125 83.464844 C 48.816406 83.375 49.109375 83.335938 49.410156 83.351562 C 49.710938 83.363281 50 83.425781 50.277344 83.539062 C 50.558594 83.652344 50.808594 83.808594 51.03125 84.007812 C 51.253906 84.210938 51.4375 84.441406 51.582031 84.707031 L 56 93.546875 L 63.136719 73.695312 C 60.25 73.210938 57.503906 72.304688 54.894531 70.984375 C 52.285156 69.660156 49.929688 67.980469 47.832031 65.941406 Z M 37.828125 87.164062 "/><path style=" stroke:none;fill-rule:nonzero;fill:#ffa800;fill-opacity:1;" d="M 81.023438 36.601562 C 80.679688 36.082031 80.308594 35.585938 79.910156 35.113281 C 79.507812 34.636719 79.082031 34.1875 78.628906 33.765625 C 78.175781 33.339844 77.699219 32.945312 77.195312 32.578125 C 76.695312 32.210938 76.175781 31.875 75.632812 31.570312 C 75.09375 31.261719 74.535156 30.992188 73.964844 30.75 C 73.390625 30.511719 72.804688 30.308594 72.207031 30.136719 C 71.609375 29.96875 71.007812 29.835938 70.394531 29.738281 C 69.78125 29.640625 69.164062 29.578125 68.542969 29.550781 C 67.921875 29.527344 67.300781 29.539062 66.683594 29.589844 C 66.0625 29.636719 65.449219 29.722656 64.839844 29.84375 C 64.230469 29.964844 63.632812 30.125 63.042969 30.316406 C 62.453125 30.511719 61.875 30.738281 61.3125 31 C 60.75 31.261719 60.203125 31.554688 59.675781 31.878906 C 59.144531 32.207031 58.640625 32.5625 58.152344 32.949219 C 57.667969 33.335938 57.207031 33.75 56.769531 34.191406 C 56.332031 34.632812 55.921875 35.097656 55.539062 35.585938 C 55.160156 36.078125 54.808594 36.585938 54.488281 37.121094 C 54.164062 37.652344 53.878906 38.199219 53.621094 38.765625 C 53.367188 39.332031 53.144531 39.910156 52.957031 40.503906 C 52.769531 41.09375 52.617188 41.695312 52.503906 42.304688 C 52.386719 42.914062 52.308594 43.53125 52.265625 44.148438 C 52.222656 44.769531 52.214844 45.390625 52.246094 46.007812 C 52.277344 46.628906 52.34375 47.246094 52.449219 47.859375 C 52.554688 48.46875 52.691406 49.074219 52.867188 49.667969 C 53.042969 50.265625 53.253906 50.847656 53.5 51.417969 C 53.746094 51.988281 54.023438 52.542969 54.332031 53.082031 C 54.644531 53.621094 54.984375 54.136719 55.355469 54.632812 C 55.730469 55.128906 56.128906 55.605469 56.558594 56.054688 C 56.988281 56.503906 57.441406 56.925781 57.917969 57.320312 C 58.398438 57.71875 58.898438 58.082031 59.417969 58.417969 C 59.941406 58.757812 60.480469 59.058594 61.039062 59.332031 C 61.597656 59.605469 62.167969 59.84375 62.757812 60.046875 C 63.34375 60.25 63.9375 60.421875 64.546875 60.554688 C 65.152344 60.6875 65.765625 60.785156 66.382812 60.84375 C 67 60.90625 67.621094 60.929688 68.242188 60.917969 C 68.859375 60.90625 69.480469 60.855469 70.09375 60.769531 C 70.710938 60.683594 71.316406 60.5625 71.917969 60.402344 C 72.519531 60.246094 73.105469 60.050781 73.683594 59.824219 C 74.261719 59.59375 74.824219 59.332031 75.371094 59.039062 C 75.917969 58.742188 76.445312 58.417969 76.953125 58.058594 C 77.460938 57.703125 77.945312 57.316406 78.40625 56.902344 C 78.867188 56.484375 79.304688 56.042969 79.710938 55.578125 C 80.121094 55.109375 80.503906 54.621094 80.855469 54.109375 C 81.207031 53.597656 81.527344 53.066406 81.8125 52.515625 C 82.101562 51.964844 82.355469 51.402344 82.578125 50.820312 C 82.800781 50.242188 82.984375 49.648438 83.136719 49.046875 C 83.289062 48.445312 83.402344 47.835938 83.480469 47.21875 C 83.558594 46.605469 83.601562 45.984375 83.609375 45.363281 C 83.625 43.808594 83.414062 42.28125 82.976562 40.789062 C 82.535156 39.296875 81.882812 37.898438 81.023438 36.601562 Z M 78.929688 40.222656 L 67.605469 53.144531 C 67.390625 53.378906 67.144531 53.5625 66.859375 53.703125 C 66.578125 53.84375 66.277344 53.929688 65.964844 53.960938 C 65.652344 53.992188 65.339844 53.964844 65.035156 53.882812 C 64.730469 53.800781 64.449219 53.667969 64.195312 53.480469 L 56.285156 47.25 C 55.972656 46.785156 55.828125 46.269531 55.851562 45.703125 C 55.875 45.140625 56.0625 44.640625 56.414062 44.199219 C 56.765625 43.757812 57.210938 43.464844 57.757812 43.316406 C 58.300781 43.171875 58.835938 43.199219 59.363281 43.402344 L 65.382812 48.15625 L 75.128906 36.9375 C 75.355469 36.695312 75.613281 36.503906 75.914062 36.363281 C 76.210938 36.222656 76.523438 36.140625 76.855469 36.117188 C 77.183594 36.097656 77.503906 36.136719 77.816406 36.238281 C 78.132812 36.339844 78.417969 36.496094 78.671875 36.707031 C 78.910156 36.929688 79.101562 37.1875 79.242188 37.480469 C 79.386719 37.777344 79.46875 38.085938 79.492188 38.414062 C 79.515625 38.738281 79.480469 39.058594 79.382812 39.371094 C 79.285156 39.683594 79.132812 39.964844 78.929688 40.222656 Z M 78.929688 40.222656 "/><path style=" stroke:none;fill-rule:nonzero;fill:#ffa800;fill-opacity:1;" d="M 86.683594 59.996094 C 87.222656 59.304688 87.71875 58.589844 88.175781 57.84375 C 88.636719 57.097656 89.050781 56.332031 89.425781 55.542969 C 89.796875 54.75 90.125 53.941406 90.410156 53.113281 C 90.691406 52.289062 90.929688 51.449219 91.121094 50.59375 C 91.308594 49.742188 91.453125 48.878906 91.546875 48.011719 C 91.644531 47.140625 91.6875 46.269531 91.6875 45.394531 C 91.6875 44.519531 91.636719 43.648438 91.539062 42.78125 C 91.441406 41.914062 91.292969 41.050781 91.101562 40.199219 C 90.90625 39.347656 90.667969 38.507812 90.382812 37.679688 C 90.09375 36.855469 89.765625 36.046875 89.386719 35.257812 C 89.011719 34.46875 88.59375 33.703125 88.132812 32.960938 C 87.671875 32.214844 87.171875 31.5 86.632812 30.8125 C 86.089844 30.125 85.515625 29.46875 84.902344 28.847656 C 84.289062 28.222656 83.644531 27.632812 82.96875 27.082031 C 82.289062 26.53125 81.582031 26.015625 80.847656 25.542969 C 80.113281 25.070312 79.355469 24.636719 78.574219 24.246094 C 77.789062 23.855469 76.988281 23.511719 76.167969 23.210938 C 75.347656 22.910156 74.511719 22.652344 73.664062 22.445312 C 72.816406 22.234375 71.957031 22.074219 71.089844 21.960938 C 70.222656 21.847656 69.351562 21.78125 68.480469 21.765625 C 67.605469 21.746094 66.730469 21.777344 65.863281 21.859375 C 64.992188 21.9375 64.128906 22.0625 63.269531 22.238281 C 62.414062 22.414062 61.570312 22.636719 60.738281 22.90625 C 59.90625 23.171875 59.089844 23.488281 58.292969 23.84375 C 57.496094 24.203125 56.722656 24.605469 55.96875 25.050781 C 55.214844 25.496094 54.488281 25.980469 53.789062 26.503906 C 53.09375 27.03125 52.425781 27.59375 51.785156 28.191406 C 51.148438 28.789062 50.546875 29.421875 49.980469 30.089844 C 49.414062 30.753906 48.886719 31.449219 48.398438 32.171875 C 47.90625 32.898438 47.457031 33.644531 47.050781 34.421875 C 46.644531 35.195312 46.28125 35.988281 45.964844 36.800781 C 45.644531 37.617188 45.371094 38.445312 45.144531 39.289062 C 44.917969 40.132812 44.738281 40.988281 44.605469 41.851562 C 44.472656 42.714844 44.390625 43.585938 44.351562 44.457031 C 44.316406 45.332031 44.328125 46.207031 44.390625 47.078125 C 44.449219 47.949219 44.558594 48.816406 44.714844 49.675781 C 44.871094 50.535156 45.074219 51.386719 45.324219 52.222656 C 45.574219 53.058594 45.871094 53.882812 46.214844 54.6875 C 46.554688 55.492188 46.941406 56.273438 47.367188 57.035156 C 47.796875 57.800781 48.265625 58.535156 48.777344 59.246094 C 49.285156 59.957031 49.832031 60.636719 50.417969 61.285156 C 51.003906 61.933594 51.621094 62.550781 52.277344 63.132812 C 52.929688 63.710938 53.613281 64.253906 54.324219 64.761719 C 55.039062 65.265625 55.777344 65.730469 56.542969 66.152344 C 57.308594 66.578125 58.09375 66.957031 58.902344 67.292969 C 59.707031 67.628906 60.53125 67.921875 61.371094 68.164062 C 62.210938 68.410156 63.058594 68.609375 63.921875 68.757812 C 64.78125 68.910156 65.648438 69.011719 66.523438 69.070312 L 66.78125 69.070312 C 66.996094 69.074219 67.203125 69.117188 67.402344 69.199219 C 67.621094 69.269531 67.820312 69.378906 67.996094 69.535156 C 68.179688 69.378906 68.386719 69.269531 68.617188 69.199219 C 68.804688 69.121094 69.003906 69.078125 69.210938 69.070312 L 69.496094 69.070312 C 71.164062 68.960938 72.808594 68.679688 74.421875 68.226562 C 76.03125 67.773438 77.578125 67.15625 79.058594 66.371094 C 80.542969 65.589844 81.925781 64.664062 83.210938 63.585938 C 84.496094 62.511719 85.652344 61.316406 86.683594 59.996094 Z M 67.996094 66.070312 C 67.316406 66.070312 66.640625 66.035156 65.96875 65.96875 C 65.292969 65.902344 64.625 65.804688 63.960938 65.671875 C 63.296875 65.539062 62.640625 65.375 61.992188 65.179688 C 61.34375 64.984375 60.707031 64.753906 60.082031 64.496094 C 59.457031 64.238281 58.84375 63.949219 58.246094 63.628906 C 57.648438 63.308594 57.070312 62.960938 56.507812 62.585938 C 55.941406 62.207031 55.398438 61.804688 54.875 61.375 C 54.351562 60.945312 53.851562 60.492188 53.371094 60.011719 C 52.894531 59.535156 52.4375 59.03125 52.007812 58.507812 C 51.578125 57.984375 51.175781 57.441406 50.800781 56.878906 C 50.425781 56.316406 50.078125 55.734375 49.757812 55.140625 C 49.4375 54.542969 49.148438 53.929688 48.890625 53.304688 C 48.628906 52.679688 48.402344 52.042969 48.207031 51.394531 C 48.007812 50.746094 47.84375 50.089844 47.714844 49.425781 C 47.582031 48.761719 47.480469 48.089844 47.414062 47.417969 C 47.347656 46.742188 47.316406 46.066406 47.316406 45.390625 C 47.316406 44.714844 47.347656 44.039062 47.414062 43.363281 C 47.480469 42.691406 47.582031 42.019531 47.714844 41.355469 C 47.84375 40.691406 48.007812 40.035156 48.207031 39.386719 C 48.402344 38.738281 48.628906 38.101562 48.890625 37.476562 C 49.148438 36.851562 49.4375 36.238281 49.757812 35.644531 C 50.078125 35.046875 50.425781 34.464844 50.800781 33.902344 C 51.175781 33.339844 51.578125 32.796875 52.007812 32.273438 C 52.4375 31.75 52.894531 31.246094 53.371094 30.769531 C 53.851562 30.289062 54.351562 29.835938 54.875 29.40625 C 55.398438 28.976562 55.941406 28.574219 56.507812 28.195312 C 57.070312 27.820312 57.648438 27.472656 58.246094 27.152344 C 58.84375 26.835938 59.457031 26.542969 60.082031 26.285156 C 60.707031 26.027344 61.34375 25.796875 61.992188 25.601562 C 62.640625 25.40625 63.296875 25.242188 63.960938 25.109375 C 64.625 24.976562 65.292969 24.878906 65.96875 24.8125 C 66.640625 24.746094 67.316406 24.710938 67.996094 24.710938 C 68.671875 24.710938 69.347656 24.746094 70.023438 24.8125 C 70.695312 24.878906 71.363281 24.976562 72.027344 25.109375 C 72.695312 25.242188 73.351562 25.40625 73.996094 25.601562 C 74.644531 25.796875 75.28125 26.027344 75.910156 26.285156 C 76.535156 26.542969 77.144531 26.835938 77.742188 27.152344 C 78.339844 27.472656 78.921875 27.820312 79.484375 28.195312 C 80.046875 28.574219 80.589844 28.976562 81.113281 29.40625 C 81.636719 29.835938 82.136719 30.289062 82.617188 30.769531 C 83.097656 31.246094 83.550781 31.75 83.980469 32.273438 C 84.410156 32.796875 84.8125 33.339844 85.1875 33.902344 C 85.566406 34.464844 85.914062 35.046875 86.230469 35.644531 C 86.550781 36.238281 86.839844 36.851562 87.101562 37.476562 C 87.359375 38.101562 87.585938 38.738281 87.785156 39.386719 C 87.980469 40.035156 88.144531 40.691406 88.277344 41.355469 C 88.410156 42.019531 88.507812 42.691406 88.574219 43.363281 C 88.640625 44.039062 88.675781 44.714844 88.675781 45.390625 C 88.675781 46.066406 88.640625 46.742188 88.574219 47.417969 C 88.507812 48.089844 88.410156 48.761719 88.277344 49.425781 C 88.144531 50.089844 87.980469 50.746094 87.785156 51.394531 C 87.585938 52.042969 87.359375 52.679688 87.101562 53.304688 C 86.839844 53.929688 86.550781 54.542969 86.230469 55.140625 C 85.914062 55.734375 85.566406 56.316406 85.1875 56.878906 C 84.8125 57.441406 84.410156 57.984375 83.980469 58.507812 C 83.550781 59.03125 83.097656 59.535156 82.617188 60.011719 C 82.136719 60.492188 81.636719 60.945312 81.113281 61.375 C 80.589844 61.804688 80.046875 62.207031 79.484375 62.585938 C 78.921875 62.960938 78.339844 63.308594 77.742188 63.628906 C 77.144531 63.949219 76.535156 64.238281 75.910156 64.496094 C 75.28125 64.753906 74.644531 64.984375 73.996094 65.179688 C 73.351562 65.375 72.695312 65.539062 72.027344 65.671875 C 71.363281 65.804688 70.695312 65.902344 70.023438 65.96875 C 69.347656 66.035156 68.671875 66.070312 67.996094 66.070312 Z M 67.996094 66.070312 "/><g clip-rule="nonzero" clip-path="url(#05449dd192)"><path style=" stroke:none;fill-rule:nonzero;fill:#ffa800;fill-opacity:1;" d="M 124.5 0 L 38.191406 0 C 37.25 0 36.3125 0.046875 35.378906 0.140625 C 34.445312 0.234375 33.515625 0.371094 32.59375 0.554688 C 31.675781 0.738281 30.765625 0.96875 29.863281 1.242188 C 28.964844 1.515625 28.082031 1.832031 27.214844 2.191406 C 26.347656 2.550781 25.5 2.953125 24.671875 3.394531 C 23.84375 3.839844 23.039062 4.320312 22.257812 4.84375 C 21.476562 5.367188 20.722656 5.925781 19.996094 6.519531 C 19.269531 7.117188 18.574219 7.746094 17.910156 8.410156 C 17.246094 9.074219 16.617188 9.769531 16.019531 10.496094 C 15.421875 11.222656 14.863281 11.976562 14.34375 12.757812 C 13.820312 13.539062 13.335938 14.34375 12.894531 15.171875 C 12.449219 16 12.050781 16.847656 11.691406 17.714844 C 11.328125 18.585938 11.011719 19.46875 10.738281 20.367188 C 10.464844 21.265625 10.238281 22.175781 10.054688 23.097656 C 9.871094 24.019531 9.730469 24.945312 9.640625 25.878906 C 9.546875 26.816406 9.5 27.753906 9.5 28.691406 L 9.5 146.691406 C 9.5 147.035156 9.5625 147.367188 9.695312 147.683594 C 9.828125 148 10.011719 148.277344 10.253906 148.519531 C 10.5 148.761719 10.777344 148.949219 11.09375 149.082031 C 11.410156 149.210938 11.742188 149.277344 12.082031 149.277344 L 123.984375 149.925781 C 124.328125 149.925781 124.65625 149.859375 124.972656 149.726562 C 125.289062 149.597656 125.570312 149.410156 125.8125 149.167969 C 126.054688 148.925781 126.242188 148.644531 126.371094 148.328125 C 126.503906 148.011719 126.570312 147.683594 126.570312 147.339844 L 126.570312 36.445312 L 137.8125 36.445312 C 138.15625 36.445312 138.484375 36.382812 138.800781 36.25 C 139.117188 36.117188 139.398438 35.933594 139.640625 35.691406 C 139.882812 35.449219 140.070312 35.167969 140.199219 34.851562 C 140.332031 34.535156 140.398438 34.203125 140.398438 33.863281 L 140.398438 18.84375 C 140.402344 17.722656 140.308594 16.613281 140.117188 15.507812 C 139.925781 14.402344 139.636719 13.324219 139.253906 12.273438 C 138.871094 11.21875 138.402344 10.207031 137.839844 9.238281 C 137.277344 8.269531 136.636719 7.355469 135.914062 6.5 C 135.191406 5.640625 134.398438 4.855469 133.539062 4.140625 C 132.675781 3.421875 131.761719 2.789062 130.785156 2.234375 C 129.8125 1.679688 128.796875 1.214844 127.742188 0.839844 C 126.6875 0.464844 125.605469 0.183594 124.5 0 Z M 99.945312 131.546875 L 32.453125 131.546875 C 32.261719 131.597656 32.066406 131.628906 31.867188 131.632812 C 31.667969 131.640625 31.472656 131.625 31.277344 131.585938 C 31.082031 131.550781 30.894531 131.488281 30.714844 131.40625 C 30.53125 131.328125 30.363281 131.226562 30.203125 131.105469 C 30.046875 130.984375 29.90625 130.847656 29.777344 130.695312 C 29.652344 130.539062 29.546875 130.375 29.457031 130.195312 C 29.371094 130.019531 29.304688 129.832031 29.257812 129.640625 C 29.210938 129.445312 29.191406 129.25 29.191406 129.050781 C 29.191406 128.851562 29.210938 128.65625 29.257812 128.464844 C 29.304688 128.269531 29.371094 128.082031 29.457031 127.90625 C 29.546875 127.726562 29.652344 127.5625 29.777344 127.410156 C 29.90625 127.253906 30.046875 127.117188 30.203125 126.996094 C 30.363281 126.875 30.53125 126.777344 30.714844 126.695312 C 30.894531 126.613281 31.082031 126.550781 31.277344 126.515625 C 31.472656 126.476562 31.667969 126.460938 31.867188 126.46875 C 32.066406 126.476562 32.261719 126.503906 32.453125 126.554688 L 99.945312 126.554688 C 100.21875 126.632812 100.472656 126.746094 100.707031 126.90625 C 100.945312 127.0625 101.148438 127.253906 101.320312 127.480469 C 101.492188 127.707031 101.625 127.953125 101.714844 128.222656 C 101.804688 128.492188 101.851562 128.765625 101.851562 129.050781 C 101.851562 129.335938 101.804688 129.609375 101.714844 129.878906 C 101.625 130.148438 101.492188 130.394531 101.320312 130.621094 C 101.148438 130.847656 100.945312 131.039062 100.707031 131.195312 C 100.472656 131.355469 100.21875 131.472656 99.945312 131.546875 Z M 99.945312 116.035156 L 32.453125 116.035156 C 32.261719 116.089844 32.066406 116.117188 31.867188 116.125 C 31.667969 116.132812 31.472656 116.117188 31.277344 116.078125 C 31.082031 116.039062 30.894531 115.980469 30.714844 115.898438 C 30.53125 115.816406 30.363281 115.714844 30.203125 115.59375 C 30.046875 115.472656 29.90625 115.335938 29.777344 115.183594 C 29.652344 115.03125 29.546875 114.863281 29.457031 114.6875 C 29.371094 114.507812 29.304688 114.324219 29.257812 114.128906 C 29.210938 113.9375 29.191406 113.742188 29.191406 113.542969 C 29.191406 113.34375 29.210938 113.148438 29.257812 112.953125 C 29.304688 112.761719 29.371094 112.574219 29.457031 112.394531 C 29.546875 112.21875 29.652344 112.050781 29.777344 111.898438 C 29.90625 111.746094 30.046875 111.609375 30.203125 111.488281 C 30.363281 111.367188 30.53125 111.265625 30.714844 111.183594 C 30.894531 111.101562 31.082031 111.042969 31.277344 111.003906 C 31.472656 110.96875 31.667969 110.953125 31.867188 110.957031 C 32.066406 110.964844 32.261719 110.996094 32.453125 111.046875 L 99.945312 111.046875 C 100.21875 111.121094 100.472656 111.238281 100.707031 111.394531 C 100.945312 111.554688 101.148438 111.746094 101.320312 111.972656 C 101.492188 112.195312 101.625 112.445312 101.714844 112.714844 C 101.804688 112.980469 101.851562 113.257812 101.851562 113.542969 C 101.851562 113.824219 101.804688 114.101562 101.714844 114.371094 C 101.625 114.640625 101.492188 114.886719 101.320312 115.113281 C 101.148438 115.335938 100.945312 115.527344 100.707031 115.6875 C 100.472656 115.84375 100.21875 115.960938 99.945312 116.035156 Z M 104.828125 93.054688 C 104.496094 93.398438 104.09375 93.632812 103.628906 93.753906 C 103.167969 93.871094 102.703125 93.863281 102.246094 93.726562 L 87.796875 88.894531 L 81.773438 100.992188 C 81.554688 101.410156 81.25 101.742188 80.851562 101.992188 C 80.453125 102.242188 80.019531 102.375 79.550781 102.386719 L 79.394531 102.386719 C 78.902344 102.347656 78.457031 102.179688 78.0625 101.886719 C 77.667969 101.59375 77.378906 101.21875 77.195312 100.757812 L 67.890625 74.910156 L 58.714844 100.8125 C 58.535156 101.269531 58.246094 101.644531 57.847656 101.941406 C 57.453125 102.234375 57.007812 102.398438 56.519531 102.441406 L 56.363281 102.441406 C 55.894531 102.425781 55.460938 102.292969 55.0625 102.042969 C 54.664062 101.792969 54.355469 101.460938 54.140625 101.042969 L 48.089844 88.945312 L 33.875 93.859375 C 33.414062 93.992188 32.953125 94.003906 32.488281 93.882812 C 32.023438 93.761719 31.625 93.527344 31.289062 93.1875 C 30.949219 92.820312 30.730469 92.394531 30.636719 91.902344 C 30.542969 91.414062 30.589844 90.9375 30.773438 90.472656 L 44.292969 61.703125 C 43.800781 60.984375 43.34375 60.25 42.921875 59.492188 C 42.496094 58.734375 42.109375 57.960938 41.757812 57.167969 C 41.402344 56.375 41.085938 55.570312 40.804688 54.75 C 40.527344 53.929688 40.28125 53.097656 40.078125 52.253906 C 39.871094 51.410156 39.707031 50.558594 39.578125 49.703125 C 39.449219 48.84375 39.363281 47.984375 39.3125 47.117188 C 39.261719 46.25 39.25 45.382812 39.277344 44.515625 C 39.308594 43.648438 39.375 42.785156 39.480469 41.925781 C 39.589844 41.066406 39.734375 40.210938 39.917969 39.363281 C 40.101562 38.515625 40.324219 37.675781 40.582031 36.851562 C 40.84375 36.023438 41.140625 35.207031 41.472656 34.40625 C 41.808594 33.605469 42.175781 32.824219 42.582031 32.054688 C 42.984375 31.289062 43.425781 30.539062 43.894531 29.8125 C 44.367188 29.085938 44.871094 28.382812 45.410156 27.699219 C 45.945312 27.015625 46.511719 26.359375 47.105469 25.730469 C 47.699219 25.097656 48.324219 24.496094 48.972656 23.921875 C 49.625 23.347656 50.296875 22.804688 50.996094 22.289062 C 51.695312 21.777344 52.417969 21.296875 53.160156 20.847656 C 53.902344 20.402344 54.664062 19.988281 55.445312 19.609375 C 56.226562 19.230469 57.019531 18.886719 57.832031 18.578125 C 58.644531 18.273438 59.464844 18 60.300781 17.769531 C 61.136719 17.535156 61.980469 17.34375 62.835938 17.1875 C 63.6875 17.03125 64.546875 16.914062 65.410156 16.835938 C 66.273438 16.757812 67.140625 16.71875 68.007812 16.71875 C 68.875 16.71875 69.742188 16.757812 70.605469 16.835938 C 71.46875 16.914062 72.328125 17.03125 73.179688 17.1875 C 74.035156 17.34375 74.878906 17.535156 75.714844 17.769531 C 76.550781 18 77.371094 18.273438 78.183594 18.578125 C 78.996094 18.886719 79.789062 19.230469 80.570312 19.609375 C 81.351562 19.988281 82.113281 20.402344 82.855469 20.847656 C 83.597656 21.296875 84.320312 21.777344 85.019531 22.289062 C 85.71875 22.804688 86.390625 23.347656 87.042969 23.921875 C 87.691406 24.496094 88.316406 25.097656 88.910156 25.730469 C 89.503906 26.359375 90.070312 27.015625 90.605469 27.699219 C 91.144531 28.382812 91.648438 29.085938 92.121094 29.8125 C 92.589844 30.539062 93.03125 31.289062 93.433594 32.054688 C 93.839844 32.824219 94.207031 33.605469 94.542969 34.40625 C 94.875 35.207031 95.171875 36.023438 95.433594 36.851562 C 95.691406 37.675781 95.914062 38.515625 96.097656 39.363281 C 96.28125 40.210938 96.425781 41.066406 96.535156 41.925781 C 96.640625 42.785156 96.707031 43.648438 96.738281 44.515625 C 96.765625 45.382812 96.753906 46.25 96.703125 47.117188 C 96.652344 47.984375 96.566406 48.84375 96.4375 49.703125 C 96.308594 50.558594 96.144531 51.410156 95.9375 52.253906 C 95.734375 53.097656 95.488281 53.929688 95.210938 54.75 C 94.929688 55.570312 94.613281 56.375 94.257812 57.167969 C 93.90625 57.960938 93.519531 58.734375 93.09375 59.492188 C 92.671875 60.25 92.214844 60.984375 91.722656 61.703125 L 105.21875 90.472656 C 105.390625 90.90625 105.445312 91.355469 105.375 91.816406 C 105.304688 92.277344 105.125 92.691406 104.828125 93.054688 Z M 135.253906 31.457031 L 126.570312 31.457031 L 126.570312 5.789062 C 127.855469 6.3125 129.039062 7.011719 130.121094 7.886719 C 131.199219 8.761719 132.128906 9.773438 132.910156 10.925781 C 133.6875 12.074219 134.285156 13.3125 134.699219 14.640625 C 135.109375 15.96875 135.320312 17.324219 135.332031 18.714844 Z M 135.253906 31.457031 "/></g><path style=" stroke:none;fill-rule:nonzero;fill:#ffa800;fill-opacity:1;" d="M 67.996094 74.109375 L 67.683594 74.109375 L 67.996094 74.9375 L 68.304688 74.109375 Z M 67.996094 74.109375 "/></g></svg>