<svg xmlns="http://www.w3.org/2000/svg" xmlns:xlink="http://www.w3.org/1999/xlink" width="200" zoomAndPan="magnify" viewBox="0 0 150 157.92" height="200" preserveAspectRatio="xMidYMid meet" version="1.2"><defs><clipPath id="aa8378df5d"><path d="M 17 55 L 134 55 L 134 149.925781 L 17 149.925781 Z M 17 55 "/></clipPath><clipPath id="0780860a40"><path d="M 0.0390625 2 L 149.960938 2 L 149.960938 149.925781 L 0.0390625 149.925781 Z M 0.0390625 2 "/></clipPath><clipPath id="93108cf046"><path d="M 71 95 L 78 95 L 78 149.925781 L 71 149.925781 Z M 71 95 "/></clipPath></defs><g id="d2057f991d"><g clip-rule="nonzero" clip-path="url(#aa8378df5d)"><path style=" stroke:none;fill-rule:nonzero;fill:#ffa800;fill-opacity:1;" d="M 119.054688 143.042969 C 120.863281 143.042969 122.34375 144.519531 122.34375 146.328125 C 122.34375 148.136719 120.863281 149.617188 119.054688 149.617188 L 20.421875 149.617188 C 18.613281 149.617188 17.132812 148.136719 17.132812 146.328125 L 17.132812 58.875 C 17.132812 57.066406 18.613281 55.585938 20.421875 55.585938 L 129.742188 55.585938 C 131.550781 55.585938 133.03125 57.066406 133.03125 58.875 L 133.03125 146.328125 C 133.03125 148.136719 131.550781 149.617188 129.742188 149.617188 C 127.933594 149.617188 126.453125 148.136719 126.453125 146.328125 L 126.453125 62.324219 L 23.710938 62.324219 L 23.710938 143.207031 L 119.054688 143.207031 Z M 119.054688 143.042969 "/></g><g clip-rule="nonzero" clip-path="url(#0780860a40)"><path style=" stroke:none;fill-rule:nonzero;fill:#ffa800;fill-opacity:1;" d="M 6.613281 146.328125 C 6.613281 148.136719 5.132812 149.617188 3.324219 149.617188 C 1.515625 149.617188 0.0390625 148.136719 0.0390625 146.328125 L 0.0390625 45.394531 C 0.0390625 44.078125 0.859375 42.925781 2.011719 42.433594 L 73.355469 2.652344 C 74.507812 1.992188 75.65625 2.160156 76.644531 2.652344 L 148.316406 42.433594 C 149.46875 42.925781 149.960938 44.078125 149.960938 45.230469 L 149.960938 146.328125 C 149.960938 148.136719 148.484375 149.617188 146.675781 149.617188 L 129.578125 149.617188 C 127.769531 149.617188 126.289062 148.136719 126.289062 146.328125 C 126.289062 144.519531 127.769531 143.042969 129.578125 143.042969 L 143.386719 143.042969 L 143.386719 47.203125 L 75 9.390625 L 6.613281 47.203125 Z M 6.613281 146.328125 "/></g><path style=" stroke:none;fill-rule:nonzero;fill:#ffa800;fill-opacity:1;" d="M 61.191406 87.3125 C 63.328125 86.984375 65.628906 87.3125 67.765625 88.132812 C 69.902344 88.957031 71.875 90.273438 73.683594 91.914062 C 75.492188 93.722656 76.808594 95.695312 77.464844 97.832031 C 78.289062 100.136719 78.617188 102.4375 78.289062 104.574219 C 78.125 106.054688 76.808594 107.039062 75.492188 107.367188 C 73.355469 107.695312 71.054688 107.367188 68.917969 106.546875 C 66.78125 105.722656 64.808594 104.410156 63 102.765625 C 61.191406 101.121094 60.039062 98.984375 59.21875 96.847656 C 58.398438 94.710938 58.066406 92.246094 58.398438 90.273438 C 58.5625 88.628906 59.875 87.476562 61.191406 87.3125 Z M 65.464844 94.382812 L 65.300781 94.21875 L 65.464844 94.382812 C 65.792969 95.695312 66.617188 96.847656 67.601562 98 C 68.753906 99.148438 69.902344 99.804688 71.054688 100.300781 L 71.21875 100.464844 L 71.054688 100.300781 C 70.5625 99.148438 69.738281 97.832031 68.753906 96.847656 C 67.929688 95.53125 66.78125 94.710938 65.464844 94.382812 Z M 65.464844 94.382812 "/><path style=" stroke:none;fill-rule:nonzero;fill:#ffa800;fill-opacity:1;" d="M 61.191406 98.164062 C 63.328125 97.832031 65.628906 98.164062 67.765625 98.984375 C 69.902344 99.804688 71.875 101.121094 73.683594 102.765625 C 75.492188 104.574219 76.808594 106.546875 77.464844 108.519531 C 78.289062 110.820312 78.617188 113.121094 78.289062 115.257812 C 78.125 116.738281 76.808594 117.890625 75.492188 118.054688 C 73.355469 118.382812 71.054688 118.054688 68.917969 117.230469 C 66.78125 116.410156 64.808594 115.09375 63 113.449219 C 61.191406 111.640625 60.039062 109.667969 59.21875 107.695312 C 58.398438 105.394531 58.066406 103.09375 58.398438 100.957031 C 58.5625 99.476562 59.875 98.328125 61.191406 98.164062 Z M 65.464844 105.230469 L 65.300781 105.066406 L 65.464844 105.230469 C 65.792969 106.546875 66.617188 107.863281 67.601562 108.847656 C 68.753906 110 69.902344 110.65625 71.054688 111.148438 L 71.21875 111.3125 L 71.054688 111.148438 C 70.5625 110 69.738281 108.683594 68.753906 107.695312 C 67.929688 106.382812 66.78125 105.722656 65.464844 105.230469 Z M 65.464844 105.230469 "/><path style=" stroke:none;fill-rule:nonzero;fill:#ffa800;fill-opacity:1;" d="M 61.191406 109.667969 C 63.328125 109.339844 65.628906 109.667969 67.765625 110.492188 C 69.902344 111.3125 71.875 112.628906 73.683594 114.273438 C 75.492188 116.082031 76.808594 118.054688 77.464844 120.191406 C 78.289062 122.492188 78.617188 124.792969 78.289062 126.929688 C 78.125 128.410156 76.808594 129.398438 75.492188 129.726562 C 73.355469 130.054688 71.054688 129.726562 68.917969 128.902344 C 66.78125 128.082031 64.808594 126.765625 63 125.121094 C 61.191406 123.3125 60.039062 121.339844 59.21875 119.367188 C 58.398438 117.066406 58.066406 114.765625 58.398438 112.628906 C 58.5625 110.820312 59.875 109.835938 61.191406 109.667969 Z M 65.464844 116.574219 L 65.300781 116.410156 L 65.464844 116.574219 C 65.792969 117.890625 66.617188 119.039062 67.601562 120.191406 C 68.753906 121.339844 69.902344 122 71.054688 122.492188 L 71.21875 122.65625 L 71.054688 122.492188 C 70.5625 121.339844 69.738281 120.027344 68.753906 119.039062 C 67.929688 117.726562 66.78125 117.066406 65.464844 116.574219 Z M 65.464844 116.574219 "/><path style=" stroke:none;fill-rule:nonzero;fill:#ffa800;fill-opacity:1;" d="M 84.863281 94.21875 C 84.699219 94.21875 84.699219 94.21875 84.699219 94.382812 C 83.546875 94.875 82.234375 95.53125 81.246094 96.683594 C 80.261719 97.832031 79.4375 98.984375 78.945312 100.136719 L 78.78125 100.300781 L 78.945312 100.136719 C 80.097656 99.640625 81.410156 98.820312 82.398438 97.832031 C 83.546875 96.683594 84.207031 95.53125 84.699219 94.382812 Z M 82.234375 88.132812 C 84.371094 87.3125 86.671875 86.984375 88.808594 87.3125 C 90.289062 87.476562 91.4375 88.628906 91.601562 90.105469 C 91.933594 92.246094 91.601562 94.546875 90.78125 96.683594 C 89.960938 98.820312 88.644531 100.792969 87 102.601562 C 85.191406 104.410156 83.21875 105.722656 81.082031 106.382812 C 78.945312 107.203125 76.644531 107.53125 74.507812 107.203125 C 73.027344 107.039062 71.875 105.890625 71.710938 104.410156 C 71.382812 102.273438 71.546875 99.972656 72.535156 97.667969 C 73.355469 95.53125 74.671875 93.558594 76.316406 91.914062 C 78.125 90.273438 80.261719 88.957031 82.234375 88.132812 Z M 82.234375 88.132812 "/><path style=" stroke:none;fill-rule:nonzero;fill:#ffa800;fill-opacity:1;" d="M 84.863281 105.066406 L 84.699219 105.230469 C 83.546875 105.722656 82.234375 106.382812 81.246094 107.53125 C 80.261719 108.683594 79.4375 109.835938 78.945312 110.984375 C 78.945312 111.148438 78.945312 111.148438 78.78125 111.148438 L 78.945312 110.984375 C 80.097656 110.492188 81.410156 109.835938 82.398438 108.683594 C 83.546875 107.53125 84.207031 106.382812 84.699219 105.230469 Z M 82.234375 98.984375 C 84.371094 98.164062 86.671875 97.832031 88.808594 98.164062 C 90.289062 98.328125 91.4375 99.476562 91.601562 100.957031 C 91.933594 103.09375 91.601562 105.394531 90.78125 107.695312 C 89.960938 109.835938 88.644531 111.808594 87 113.449219 C 85.191406 115.257812 83.21875 116.574219 81.082031 117.230469 C 78.945312 118.054688 76.644531 118.382812 74.507812 118.054688 C 73.027344 117.890625 71.875 116.738281 71.710938 115.257812 C 71.382812 113.121094 71.546875 110.820312 72.535156 108.519531 C 73.355469 106.382812 74.671875 104.410156 76.316406 102.765625 C 78.125 101.121094 80.261719 99.804688 82.234375 98.984375 Z M 82.234375 98.984375 "/><path style=" stroke:none;fill-rule:nonzero;fill:#ffa800;fill-opacity:1;" d="M 84.863281 116.410156 L 84.699219 116.574219 C 83.546875 117.066406 82.234375 117.726562 81.246094 118.875 C 80.261719 120.027344 79.4375 121.175781 78.945312 122.328125 C 78.945312 122.328125 78.945312 122.492188 78.78125 122.492188 L 78.945312 122.328125 C 80.097656 121.835938 81.410156 121.175781 82.398438 120.027344 C 83.546875 118.875 84.207031 117.726562 84.699219 116.574219 Z M 82.234375 110.328125 C 84.371094 109.503906 86.671875 109.175781 88.808594 109.503906 C 90.289062 109.667969 91.4375 110.820312 91.601562 112.300781 C 91.933594 114.4375 91.601562 116.738281 90.78125 119.039062 C 89.960938 121.175781 88.644531 123.148438 87 124.792969 C 85.191406 126.601562 83.21875 127.917969 81.082031 128.574219 C 78.945312 129.398438 76.644531 129.726562 74.507812 129.398438 C 73.027344 129.230469 71.875 128.082031 71.710938 126.601562 C 71.382812 124.464844 71.546875 122.164062 72.535156 119.863281 C 73.355469 117.726562 74.671875 115.753906 76.316406 114.109375 C 78.125 112.464844 80.261719 111.148438 82.234375 110.328125 Z M 82.234375 110.328125 "/><g clip-rule="nonzero" clip-path="url(#93108cf046)"><path style=" stroke:none;fill-rule:nonzero;fill:#ffa800;fill-opacity:1;" d="M 71.054688 98.65625 C 71.054688 96.847656 72.535156 95.367188 74.34375 95.367188 C 76.152344 95.367188 77.628906 96.847656 77.628906 98.65625 L 77.628906 146.328125 C 77.628906 148.136719 76.152344 149.617188 74.34375 149.617188 C 72.535156 149.617188 71.054688 148.136719 71.054688 146.328125 Z M 71.054688 98.65625 "/></g><path style=" stroke:none;fill-rule:nonzero;fill:#ffa800;fill-opacity:1;" d="M 64.972656 90.601562 C 64.972656 92.410156 63.492188 93.886719 61.683594 93.886719 C 59.875 93.886719 58.398438 92.410156 58.398438 90.601562 L 58.398438 83.53125 C 58.398438 81.722656 59.875 80.242188 61.683594 80.242188 C 63.492188 80.242188 64.972656 81.722656 64.972656 83.53125 Z M 64.972656 90.601562 "/><path style=" stroke:none;fill-rule:nonzero;fill:#ffa800;fill-opacity:1;" d="M 91.769531 90.601562 C 91.769531 92.410156 90.289062 93.886719 88.480469 93.886719 C 86.671875 93.886719 85.191406 92.410156 85.191406 90.601562 L 85.191406 83.53125 C 85.191406 81.722656 86.671875 80.242188 88.480469 80.242188 C 90.289062 80.242188 91.769531 81.722656 91.769531 83.53125 Z M 91.769531 90.601562 "/><path style=" stroke:none;fill-rule:nonzero;fill:#ffa800;fill-opacity:1;" d="M 76.644531 75.96875 C 78.289062 77.285156 79.765625 79.09375 80.753906 81.230469 C 81.574219 83.203125 82.234375 85.667969 82.234375 87.96875 C 82.234375 90.4375 81.738281 92.738281 80.753906 94.875 C 79.765625 97.011719 78.289062 98.984375 76.644531 100.136719 C 75.492188 100.957031 73.847656 100.957031 72.699219 100.136719 C 71.054688 98.820312 69.574219 97.011719 68.589844 94.875 C 67.765625 92.902344 67.109375 90.4375 67.109375 87.96875 C 67.109375 85.503906 67.601562 83.203125 68.589844 81.230469 C 69.574219 79.09375 71.054688 77.121094 72.863281 75.96875 C 73.847656 74.984375 75.492188 75.148438 76.644531 75.96875 Z M 74.671875 83.859375 C 74.671875 83.859375 74.671875 83.695312 74.507812 83.695312 C 74.507812 83.695312 74.507812 83.859375 74.34375 83.859375 C 73.847656 85.011719 73.519531 86.492188 73.519531 87.96875 C 73.519531 89.449219 73.847656 90.929688 74.34375 92.078125 C 74.34375 92.246094 74.34375 92.246094 74.507812 92.246094 C 74.507812 92.246094 74.507812 92.078125 74.671875 92.078125 C 75.164062 90.929688 75.492188 89.449219 75.492188 87.96875 C 75.65625 86.492188 75.328125 85.011719 74.671875 83.859375 Z M 74.671875 83.859375 "/><path style=" stroke:none;fill-rule:nonzero;fill:#ffa800;fill-opacity:1;" d="M 77.960938 78.601562 C 77.960938 80.410156 76.480469 81.886719 74.671875 81.886719 C 72.863281 81.886719 71.382812 80.410156 71.382812 78.601562 L 71.382812 71.53125 C 71.382812 69.722656 72.863281 68.242188 74.671875 68.242188 C 76.480469 68.242188 77.960938 69.722656 77.960938 71.53125 Z M 77.960938 78.601562 "/></g></svg>