<svg xmlns="http://www.w3.org/2000/svg" xmlns:xlink="http://www.w3.org/1999/xlink" width="200" zoomAndPan="magnify" viewBox="0 0 150 157.92" height="200" preserveAspectRatio="xMidYMid meet" version="1.2"><defs><clipPath id="dc75fae8c9"><path d="M 27 104 L 66 104 L 66 149.925781 L 27 149.925781 Z M 27 104 "/></clipPath><clipPath id="dc1681d206"><path d="M 18.589844 0 L 131.785156 0 L 131.785156 113 L 18.589844 113 Z M 18.589844 0 "/></clipPath><clipPath id="48af3486c9"><path d="M 84 104 L 123 104 L 123 149.925781 L 84 149.925781 Z M 84 104 "/></clipPath></defs><g id="cb8083dc56"><g clip-rule="nonzero" clip-path="url(#dc75fae8c9)"><path style=" stroke:none;fill-rule:nonzero;fill:#ffa800;fill-opacity:1;" d="M 45.507812 111.367188 C 44.113281 111.679688 42.722656 110.84375 42.269531 109.488281 L 40.773438 104.855469 L 27.714844 140.964844 L 42.476562 131.945312 C 43.210938 131.492188 44.078125 131.421875 44.878906 131.703125 C 45.679688 131.980469 46.308594 132.605469 46.585938 133.441406 L 52.15625 149.808594 L 65.808594 112.097656 L 61.28125 107.988281 Z M 45.507812 111.367188 "/></g><path style=" stroke:none;fill-rule:nonzero;fill:#ffa800;fill-opacity:1;" d="M 68.59375 66.796875 C 67.511719 67.875 65.773438 67.875 64.691406 66.796875 L 55.535156 57.742188 L 51.113281 62.0625 L 66.644531 77.417969 L 73.050781 71.113281 L 98.886719 45.554688 L 94.5 41.203125 Z M 68.59375 66.796875 "/><g clip-rule="nonzero" clip-path="url(#dc1681d206)"><path style=" stroke:none;fill-rule:nonzero;fill:#ffa800;fill-opacity:1;" d="M 121.378906 67.632812 L 131.410156 56.523438 L 121.347656 45.417969 C 120.753906 44.753906 120.511719 43.851562 120.683594 42.980469 L 123.816406 28.320312 L 109.578125 23.722656 C 108.742188 23.445312 108.042969 22.785156 107.765625 21.914062 L 103.203125 7.671875 L 88.546875 10.804688 C 87.675781 10.980469 86.769531 10.734375 86.109375 10.144531 L 75 0.117188 L 63.890625 10.179688 C 63.230469 10.769531 62.324219 11.015625 61.453125 10.839844 L 46.796875 7.707031 L 42.199219 21.949219 C 41.921875 22.785156 41.257812 23.480469 40.386719 23.757812 L 26.148438 28.320312 L 29.28125 42.980469 C 29.453125 43.851562 29.210938 44.753906 28.621094 45.417969 L 18.589844 56.523438 L 28.652344 67.632812 C 29.246094 68.292969 29.488281 69.199219 29.316406 70.070312 L 26.183594 84.730469 L 40.421875 89.324219 C 41.257812 89.605469 41.957031 90.265625 42.234375 91.136719 L 43.59375 95.316406 L 46.832031 105.378906 L 61.488281 102.242188 C 61.699219 102.207031 61.871094 102.175781 62.082031 102.175781 C 62.777344 102.175781 63.441406 102.417969 63.960938 102.90625 L 75 112.933594 L 86.109375 102.871094 C 86.769531 102.277344 87.675781 102.035156 88.546875 102.207031 L 103.203125 105.34375 L 106.441406 95.28125 L 107.800781 91.101562 C 108.078125 90.265625 108.742188 89.570312 109.613281 89.289062 L 123.851562 84.695312 L 120.71875 70.035156 C 120.511719 69.199219 120.753906 68.292969 121.378906 67.632812 Z M 75 99.703125 C 51.949219 99.703125 33.214844 80.96875 33.214844 57.917969 C 33.214844 34.867188 51.949219 16.132812 75 16.132812 C 98.050781 16.132812 116.785156 34.867188 116.785156 57.917969 C 116.785156 80.96875 98.050781 99.703125 75 99.703125 Z M 75 99.703125 "/></g><g clip-rule="nonzero" clip-path="url(#48af3486c9)"><path style=" stroke:none;fill-rule:nonzero;fill:#ffa800;fill-opacity:1;" d="M 107.730469 109.488281 C 107.277344 110.84375 105.886719 111.644531 104.492188 111.367188 L 88.789062 107.988281 L 84.261719 112.097656 L 97.910156 149.808594 L 103.484375 133.441406 C 103.761719 132.640625 104.386719 132.015625 105.1875 131.703125 C 105.988281 131.421875 106.859375 131.492188 107.59375 131.945312 L 122.355469 140.964844 L 109.296875 104.855469 Z M 107.730469 109.488281 "/></g><path style=" stroke:none;fill-rule:nonzero;fill:#ffa800;fill-opacity:1;" d="M 75 21.703125 C 55.046875 21.703125 38.785156 37.964844 38.785156 57.917969 C 38.785156 77.871094 55.046875 94.128906 75 94.128906 C 94.953125 94.128906 111.214844 77.871094 111.214844 57.917969 C 111.214844 37.964844 94.953125 21.703125 75 21.703125 Z M 104.492188 45.554688 C 104.492188 47.054688 103.902344 48.445312 102.855469 49.492188 L 70.578125 81.386719 C 69.5 82.464844 68.070312 82.988281 66.644531 82.988281 C 65.214844 82.988281 63.789062 82.464844 62.707031 81.386719 L 47.144531 65.996094 C 46.097656 64.953125 45.507812 63.558594 45.507812 62.0625 C 45.507812 60.5625 46.097656 59.171875 47.144531 58.125 L 51.566406 53.773438 C 53.726562 51.648438 57.242188 51.648438 59.433594 53.773438 L 66.644531 60.910156 L 90.566406 37.269531 C 92.722656 35.144531 96.242188 35.144531 98.433594 37.269531 L 102.855469 41.621094 C 103.902344 42.667969 104.492188 44.058594 104.492188 45.554688 Z M 104.492188 45.554688 "/></g></svg>