<svg xmlns="http://www.w3.org/2000/svg" xmlns:xlink="http://www.w3.org/1999/xlink" width="200" zoomAndPan="magnify" viewBox="0 0 150 157.92" height="200" preserveAspectRatio="xMidYMid meet" version="1.2"><defs><clipPath id="2722522b19"><path d="M 14.484375 0 L 135 0 L 135 149.925781 L 14.484375 149.925781 Z M 14.484375 0 "/></clipPath></defs><g id="34e256d593"><g clip-rule="nonzero" clip-path="url(#2722522b19)"><path style=" stroke:none;fill-rule:nonzero;fill:#ffa800;fill-opacity:1;" d="M 56.191406 102.574219 C 56.257812 110.785156 56.4375 123.3125 56.496094 131.519531 C 56.574219 132.839844 57.027344 134.015625 57.855469 135.042969 C 61.957031 142.238281 72.046875 143.433594 76.214844 143.699219 C 76.613281 143.714844 76.992188 143.804688 77.355469 143.964844 C 77.714844 144.128906 78.035156 144.355469 78.308594 144.640625 C 78.585938 144.925781 78.796875 145.253906 78.945312 145.621094 C 79.09375 145.992188 79.167969 146.375 79.167969 146.769531 C 79.167969 147.167969 79.09375 147.550781 78.945312 147.917969 C 78.796875 148.289062 78.585938 148.613281 78.308594 148.902344 C 78.035156 149.1875 77.714844 149.410156 77.355469 149.574219 C 76.992188 149.738281 76.613281 149.828125 76.214844 149.84375 L 26.648438 149.84375 C 26.242188 149.851562 25.851562 149.78125 25.476562 149.625 C 25.101562 149.472656 24.773438 149.25 24.488281 148.957031 C 24.207031 148.664062 23.996094 148.328125 23.855469 147.949219 C 23.714844 147.570312 23.65625 147.175781 23.679688 146.769531 C 23.679688 146.371094 23.757812 145.988281 23.90625 145.621094 C 24.054688 145.253906 24.269531 144.925781 24.546875 144.640625 C 24.820312 144.351562 25.140625 144.128906 25.503906 143.964844 C 25.867188 143.804688 26.246094 143.714844 26.644531 143.699219 C 28.445312 143.675781 40.410156 143.347656 45.285156 135.097656 C 45.964844 133.941406 46.46875 132.710938 46.796875 131.410156 L 46.859375 103.277344 L 46.84375 95.953125 C 46.882812 95.5625 46.84375 95.179688 46.730469 94.804688 C 46.613281 94.429688 46.433594 94.09375 46.179688 93.792969 C 45.929688 93.492188 45.632812 93.253906 45.285156 93.074219 C 44.9375 92.894531 44.566406 92.789062 44.175781 92.757812 C 43.140625 92.542969 42.117188 92.289062 41.101562 91.984375 C 40.085938 91.683594 39.089844 91.339844 38.105469 90.953125 C 37.121094 90.566406 36.15625 90.136719 35.207031 89.664062 C 34.261719 89.195312 33.335938 88.683594 32.433594 88.132812 C 31.53125 87.582031 30.652344 86.992188 29.800781 86.367188 C 28.949219 85.738281 28.125 85.074219 27.332031 84.378906 C 26.539062 83.679688 25.773438 82.949219 25.042969 82.183594 C 24.3125 81.417969 23.617188 80.625 22.953125 79.800781 C 22.289062 78.976562 21.664062 78.125 21.078125 77.246094 C 20.488281 76.367188 19.9375 75.464844 19.429688 74.539062 C 18.917969 73.613281 18.449219 72.664062 18.019531 71.699219 C 17.589844 70.730469 17.203125 69.746094 16.859375 68.746094 C 16.515625 67.746094 16.21875 66.734375 15.960938 65.707031 C 15.707031 64.679688 15.496094 63.644531 15.328125 62.601562 C 15.164062 61.554688 15.042969 60.507812 14.964844 59.453125 C 14.890625 58.398438 14.863281 57.339844 14.878906 56.28125 L 14.878906 6.980469 C 14.878906 6.523438 14.921875 6.066406 15.011719 5.617188 C 15.101562 5.167969 15.234375 4.730469 15.410156 4.308594 C 15.585938 3.886719 15.800781 3.484375 16.054688 3.101562 C 16.308594 2.722656 16.597656 2.367188 16.921875 2.042969 C 17.246094 1.71875 17.597656 1.429688 17.980469 1.175781 C 18.359375 0.921875 18.761719 0.707031 19.1875 0.53125 C 19.609375 0.355469 20.046875 0.222656 20.496094 0.132812 C 20.945312 0.0429688 21.398438 0 21.859375 0 L 81.25 0 C 81.707031 0 82.160156 0.0429688 82.609375 0.132812 C 83.058594 0.222656 83.496094 0.355469 83.921875 0.53125 C 84.34375 0.707031 84.746094 0.921875 85.125 1.175781 C 85.507812 1.429688 85.859375 1.71875 86.183594 2.042969 C 86.507812 2.367188 86.796875 2.71875 87.054688 3.097656 C 87.308594 3.480469 87.523438 3.882812 87.699219 4.304688 C 87.875 4.726562 88.007812 5.164062 88.097656 5.613281 C 88.1875 6.0625 88.230469 6.515625 88.230469 6.976562 L 88.230469 18.210938 C 88.257812 30.902344 88.28125 43.960938 88.179688 56.800781 C 88.175781 57.84375 88.128906 58.882812 88.039062 59.921875 C 87.949219 60.960938 87.816406 61.996094 87.636719 63.023438 C 87.457031 64.050781 87.234375 65.070312 86.972656 66.078125 C 86.707031 67.085938 86.398438 68.082031 86.050781 69.066406 C 85.699219 70.046875 85.308594 71.011719 84.875 71.964844 C 84.445312 72.914062 83.972656 73.84375 83.460938 74.75 C 82.949219 75.660156 82.402344 76.546875 81.816406 77.410156 C 81.230469 78.273438 80.605469 79.109375 79.949219 79.917969 C 79.292969 80.726562 78.601562 81.507812 77.878906 82.257812 C 77.152344 83.007812 76.398438 83.726562 75.613281 84.414062 C 74.828125 85.101562 74.015625 85.753906 73.175781 86.371094 C 72.335938 86.988281 71.46875 87.570312 70.578125 88.113281 C 69.691406 88.65625 68.777344 89.164062 67.84375 89.628906 C 66.910156 90.097656 65.960938 90.523438 64.992188 90.90625 C 64.023438 91.292969 63.039062 91.636719 62.039062 91.9375 C 61.042969 92.238281 60.03125 92.5 59.011719 92.714844 C 58.597656 92.734375 58.203125 92.835938 57.828125 93.019531 C 57.457031 93.203125 57.136719 93.457031 56.871094 93.773438 C 56.605469 94.09375 56.414062 94.453125 56.300781 94.851562 C 56.183594 95.25 56.152344 95.65625 56.210938 96.070312 C 56.203125 98.238281 56.199219 100.40625 56.191406 102.574219 Z M 129.847656 0 C 129.558594 0 129.269531 0.0273438 128.984375 0.0859375 C 128.695312 0.140625 128.417969 0.226562 128.148438 0.339844 C 127.878906 0.449219 127.625 0.585938 127.382812 0.75 C 127.140625 0.910156 126.914062 1.09375 126.710938 1.300781 C 126.503906 1.507812 126.320312 1.730469 126.15625 1.972656 C 125.996094 2.214844 125.859375 2.472656 125.746094 2.742188 C 125.636719 3.011719 125.550781 3.289062 125.492188 3.574219 C 125.4375 3.859375 125.410156 4.148438 125.410156 4.441406 L 125.410156 41.554688 C 125.460938 41.941406 125.433594 42.328125 125.335938 42.707031 C 125.234375 43.085938 125.066406 43.429688 124.828125 43.746094 C 124.59375 44.058594 124.304688 44.3125 123.964844 44.511719 C 123.628906 44.710938 123.265625 44.839844 122.875 44.894531 C 122.738281 44.917969 122.597656 44.925781 122.460938 44.921875 L 122.433594 44.921875 C 122.019531 44.972656 121.609375 44.945312 121.207031 44.847656 C 120.871094 44.753906 120.558594 44.605469 120.277344 44.402344 C 119.992188 44.199219 119.753906 43.953125 119.554688 43.664062 C 119.355469 43.378906 119.214844 43.066406 119.125 42.726562 C 119.039062 42.390625 119.011719 42.046875 119.042969 41.699219 L 119.042969 14.574219 L 119.058594 4.449219 C 119.058594 4.15625 119.03125 3.867188 118.976562 3.582031 C 118.917969 3.296875 118.835938 3.015625 118.722656 2.746094 C 118.613281 2.476562 118.476562 2.222656 118.3125 1.976562 C 118.152344 1.734375 117.96875 1.511719 117.761719 1.304688 C 117.554688 1.097656 117.332031 0.914062 117.085938 0.75 C 116.84375 0.589844 116.589844 0.453125 116.320312 0.339844 C 116.050781 0.226562 115.773438 0.144531 115.484375 0.0859375 C 115.199219 0.0273438 114.910156 0 114.617188 0 L 114.5625 0 C 114.269531 0 113.980469 0.0273438 113.695312 0.0859375 C 113.410156 0.140625 113.132812 0.226562 112.863281 0.339844 C 112.59375 0.449219 112.335938 0.585938 112.09375 0.75 C 111.851562 0.910156 111.628906 1.09375 111.421875 1.300781 C 111.214844 1.507812 111.03125 1.730469 110.871094 1.972656 C 110.707031 2.214844 110.570312 2.472656 110.460938 2.742188 C 110.347656 3.011719 110.261719 3.289062 110.207031 3.574219 C 110.148438 3.859375 110.121094 4.148438 110.121094 4.441406 L 110.121094 41.707031 C 110.15625 42.054688 110.128906 42.394531 110.042969 42.734375 C 109.960938 43.070312 109.820312 43.382812 109.625 43.667969 C 109.425781 43.957031 109.1875 44.203125 108.90625 44.40625 C 108.625 44.609375 108.316406 44.757812 107.984375 44.855469 C 107.570312 44.953125 107.152344 44.976562 106.730469 44.929688 C 106.582031 44.933594 106.433594 44.925781 106.285156 44.902344 C 105.898438 44.84375 105.539062 44.714844 105.199219 44.515625 C 104.863281 44.316406 104.578125 44.058594 104.339844 43.746094 C 104.105469 43.433594 103.9375 43.089844 103.835938 42.710938 C 103.734375 42.332031 103.707031 41.949219 103.753906 41.5625 L 103.753906 4.441406 C 103.753906 4.148438 103.726562 3.859375 103.671875 3.574219 C 103.613281 3.289062 103.527344 3.011719 103.417969 2.742188 C 103.304688 2.472656 103.167969 2.214844 103.007812 1.972656 C 102.84375 1.730469 102.660156 1.507812 102.453125 1.300781 C 102.25 1.09375 102.023438 0.910156 101.78125 0.75 C 101.539062 0.585938 101.285156 0.449219 101.015625 0.339844 C 100.746094 0.226562 100.464844 0.140625 100.179688 0.0859375 C 99.894531 0.0273438 99.605469 0 99.3125 0 L 98.808594 0 C 98.515625 0 98.226562 0.0273438 97.941406 0.0859375 C 97.65625 0.140625 97.378906 0.226562 97.109375 0.339844 C 96.839844 0.449219 96.582031 0.585938 96.339844 0.75 C 96.097656 0.910156 95.875 1.09375 95.667969 1.300781 C 95.460938 1.507812 95.277344 1.730469 95.113281 1.972656 C 94.953125 2.214844 94.816406 2.472656 94.703125 2.742188 C 94.59375 3.011719 94.507812 3.289062 94.453125 3.574219 C 94.394531 3.859375 94.367188 4.148438 94.367188 4.441406 L 94.367188 10.371094 C 94.367188 19.390625 94.375 28.410156 94.390625 37.433594 C 94.386719 39.539062 94.582031 41.628906 94.980469 43.699219 C 95.515625 46.753906 96.679688 49.546875 98.472656 52.082031 C 99.472656 53.511719 100.664062 54.769531 102.035156 55.851562 C 103.410156 56.933594 104.910156 57.796875 106.535156 58.4375 C 106.957031 58.59375 107.347656 58.8125 107.703125 59.089844 C 108.0625 59.367188 108.371094 59.691406 108.628906 60.0625 C 108.886719 60.433594 109.085938 60.832031 109.226562 61.265625 C 109.363281 61.695312 109.433594 62.136719 109.441406 62.585938 L 109.441406 147.742188 C 109.441406 148.023438 109.492188 148.289062 109.601562 148.546875 C 109.707031 148.804688 109.859375 149.03125 110.054688 149.230469 C 110.253906 149.425781 110.480469 149.578125 110.738281 149.683594 C 110.996094 149.789062 111.261719 149.84375 111.542969 149.84375 L 117.648438 149.84375 C 117.925781 149.84375 118.191406 149.789062 118.449219 149.683594 C 118.707031 149.578125 118.933594 149.425781 119.132812 149.226562 C 119.328125 149.03125 119.480469 148.804688 119.585938 148.546875 C 119.691406 148.289062 119.746094 148.023438 119.746094 147.742188 L 119.746094 62.578125 C 119.75 62.128906 119.824219 61.6875 119.960938 61.257812 C 120.101562 60.828125 120.296875 60.425781 120.558594 60.054688 C 120.816406 59.6875 121.125 59.363281 121.480469 59.085938 C 121.839844 58.808594 122.226562 58.589844 122.652344 58.429688 C 124.269531 57.789062 125.765625 56.933594 127.132812 55.855469 C 128.503906 54.777344 129.691406 53.527344 130.691406 52.105469 C 132.484375 49.5625 133.648438 46.761719 134.183594 43.699219 C 134.582031 41.628906 134.777344 39.539062 134.773438 37.433594 C 134.820312 28.410156 134.820312 19.390625 134.820312 10.371094 L 134.820312 4.441406 C 134.820312 4.148438 134.792969 3.863281 134.738281 3.578125 C 134.679688 3.289062 134.597656 3.011719 134.484375 2.746094 C 134.375 2.476562 134.238281 2.21875 134.074219 1.976562 C 133.914062 1.734375 133.730469 1.511719 133.523438 1.304688 C 133.320312 1.097656 133.097656 0.914062 132.855469 0.753906 C 132.613281 0.589844 132.355469 0.453125 132.089844 0.339844 C 131.820312 0.230469 131.542969 0.144531 131.257812 0.0859375 C 130.972656 0.03125 130.683594 0 130.394531 0 Z M 129.847656 0 "/></g></g></svg>