<svg xmlns="http://www.w3.org/2000/svg" xmlns:xlink="http://www.w3.org/1999/xlink" width="200" zoomAndPan="magnify" viewBox="0 0 150 157.92" height="200" preserveAspectRatio="xMidYMid meet" version="1.2"><defs><clipPath id="15320bba9c"><path d="M 0.0390625 136 L 149.960938 136 L 149.960938 145.425781 L 0.0390625 145.425781 Z M 0.0390625 136 "/></clipPath><clipPath id="c872093e17"><path d="M 6 4.496094 L 144 4.496094 L 144 133 L 6 133 Z M 6 4.496094 "/></clipPath></defs><g id="8beea69087"><g clip-rule="nonzero" clip-path="url(#15320bba9c)"><path style=" stroke:none;fill-rule:nonzero;fill:#ffa800;fill-opacity:1;" d="M 144.546875 136.363281 L 5.453125 136.363281 C 2.464844 136.363281 0.0429688 138.785156 0.0429688 141.777344 L 0.0429688 145.402344 L 149.957031 145.402344 L 149.957031 141.777344 C 149.957031 138.785156 147.535156 136.363281 144.546875 136.363281 "/></g><path style=" stroke:none;fill-rule:nonzero;fill:#ffa800;fill-opacity:1;" d="M 51.035156 25.707031 C 48.597656 25.136719 46.101562 24.554688 43.515625 23.953125 C 43.515625 28.464844 43.515625 32.9375 43.515625 37.511719 C 45.964844 37.972656 48.460938 38.4375 51.035156 38.921875 C 51.035156 34.515625 51.035156 30.175781 51.035156 25.707031 "/><path style=" stroke:none;fill-rule:nonzero;fill:#ffa800;fill-opacity:1;" d="M 50.199219 43.390625 C 48.179688 43.113281 46.179688 42.710938 44.167969 42.367188 C 43.964844 42.332031 43.75 42.363281 43.480469 42.363281 C 43.464844 42.609375 43.433594 42.839844 43.433594 43.078125 C 43.429688 47.054688 43.445312 51.03125 43.417969 55.011719 C 43.414062 55.613281 43.574219 55.847656 44.203125 55.914062 C 46.210938 56.121094 48.203125 56.40625 50.199219 56.65625 C 50.460938 56.6875 50.730469 56.695312 51.105469 56.71875 C 51.105469 54.992188 51.105469 53.382812 51.105469 51.769531 C 51.105469 49.355469 51.078125 46.933594 51.121094 44.515625 C 51.132812 43.796875 50.976562 43.496094 50.199219 43.390625 "/><path style=" stroke:none;fill-rule:nonzero;fill:#ffa800;fill-opacity:1;" d="M 51.050781 61.402344 C 48.554688 61.128906 46.0625 60.859375 43.496094 60.578125 C 43.496094 65.125 43.496094 69.589844 43.496094 74.117188 C 46.023438 74.273438 48.507812 74.425781 51.050781 74.582031 C 51.050781 70.191406 51.050781 65.851562 51.050781 61.402344 "/><path style=" stroke:none;fill-rule:nonzero;fill:#ffa800;fill-opacity:1;" d="M 51.046875 79.21875 C 48.511719 79.101562 46.050781 78.988281 43.507812 78.875 C 43.507812 83.378906 43.507812 87.84375 43.507812 92.359375 C 46.011719 92.359375 48.496094 92.359375 51.046875 92.359375 C 51.046875 88 51.046875 83.660156 51.046875 79.21875 "/><path style=" stroke:none;fill-rule:nonzero;fill:#ffa800;fill-opacity:1;" d="M 55.863281 39.828125 C 57.953125 40.179688 60.027344 40.597656 62.214844 41.007812 C 62.214844 36.699219 62.214844 32.535156 62.214844 28.308594 C 59.910156 27.769531 57.621094 27.230469 55.226562 26.667969 C 55.203125 26.976562 55.164062 27.230469 55.164062 27.476562 C 55.160156 31.296875 55.171875 35.117188 55.152344 38.933594 C 55.148438 39.488281 55.277344 39.726562 55.863281 39.828125 "/><path style=" stroke:none;fill-rule:nonzero;fill:#ffa800;fill-opacity:1;" d="M 55.988281 57.382812 C 58.042969 57.589844 60.085938 57.882812 62.195312 58.152344 C 62.195312 53.910156 62.195312 49.722656 62.195312 45.464844 C 59.90625 45.066406 57.617188 44.671875 55.222656 44.261719 C 55.203125 44.570312 55.164062 44.824219 55.164062 45.074219 C 55.160156 48.867188 55.175781 52.660156 55.148438 56.453125 C 55.144531 57.097656 55.324219 57.3125 55.988281 57.382812 "/><path style=" stroke:none;fill-rule:nonzero;fill:#ffa800;fill-opacity:1;" d="M 55.582031 74.839844 C 57.769531 75.019531 59.960938 75.144531 62.203125 75.285156 C 62.222656 74.980469 62.242188 74.773438 62.246094 74.5625 C 62.246094 70.828125 62.246094 67.085938 62.246094 63.347656 C 62.242188 62.984375 62.347656 62.585938 61.757812 62.523438 C 59.671875 62.324219 57.589844 62.09375 55.5 61.878906 C 55.421875 61.871094 55.34375 61.898438 55.160156 61.929688 C 55.160156 63.921875 55.160156 65.851562 55.160156 67.785156 C 55.160156 69.910156 55.148438 72.03125 55.179688 74.160156 C 55.183594 74.398438 55.421875 74.828125 55.582031 74.839844 "/><path style=" stroke:none;fill-rule:nonzero;fill:#ffa800;fill-opacity:1;" d="M 62.179688 79.742188 C 59.875 79.628906 57.582031 79.519531 55.222656 79.410156 C 55.222656 83.757812 55.222656 88.015625 55.222656 92.367188 C 57.554688 92.367188 59.832031 92.367188 62.179688 92.367188 C 62.179688 88.183594 62.179688 84.007812 62.179688 79.742188 "/><path style=" stroke:none;fill-rule:nonzero;fill:#ffa800;fill-opacity:1;" d="M 51.117188 98.398438 C 48.582031 98.285156 46.121094 98.175781 43.582031 98.058594 C 43.582031 102.566406 43.582031 107.027344 43.582031 111.539062 C 46.085938 111.539062 48.570312 111.539062 51.117188 111.539062 C 51.117188 107.179688 51.117188 102.84375 51.117188 98.398438 "/><path style=" stroke:none;fill-rule:nonzero;fill:#ffa800;fill-opacity:1;" d="M 62.25 98.921875 C 59.945312 98.8125 57.652344 98.703125 55.292969 98.589844 C 55.292969 102.941406 55.292969 107.195312 55.292969 111.550781 C 57.632812 111.550781 59.90625 111.550781 62.25 111.550781 C 62.25 107.363281 62.25 103.195312 62.25 98.921875 "/><path style=" stroke:none;fill-rule:nonzero;fill:#ffa800;fill-opacity:1;" d="M 112.183594 48.285156 C 109.929688 47.792969 107.695312 47.238281 105.367188 46.6875 C 105.367188 51.277344 105.367188 55.730469 105.367188 60.265625 C 107.882812 60.734375 110.375 61.195312 112.945312 61.675781 C 112.960938 61.339844 112.984375 61.074219 112.984375 60.816406 C 112.984375 56.972656 112.96875 53.128906 113 49.285156 C 113.003906 48.644531 112.792969 48.417969 112.183594 48.285156 "/><path style=" stroke:none;fill-rule:nonzero;fill:#ffa800;fill-opacity:1;" d="M 112.222656 84.074219 C 110.109375 83.894531 108.007812 83.628906 105.902344 83.394531 C 105.75 83.378906 105.589844 83.394531 105.386719 83.394531 C 105.386719 87.886719 105.386719 92.332031 105.386719 96.890625 C 107.875 97.050781 110.355469 97.210938 112.929688 97.378906 C 112.949219 97.09375 112.980469 96.839844 112.980469 96.582031 C 112.984375 92.714844 112.972656 88.84375 112.996094 84.976562 C 113 84.390625 112.878906 84.136719 112.222656 84.074219 "/><path style=" stroke:none;fill-rule:nonzero;fill:#ffa800;fill-opacity:1;" d="M 106.171875 78.691406 C 108.121094 78.890625 110.0625 79.179688 112.007812 79.425781 C 112.296875 79.460938 112.585938 79.457031 112.984375 79.480469 C 112.984375 76.910156 112.984375 74.464844 112.984375 72.019531 C 112.984375 70.378906 112.964844 68.738281 112.996094 67.097656 C 113.003906 66.542969 112.871094 66.292969 112.273438 66.203125 C 110.203125 65.882812 108.140625 65.492188 106.078125 65.140625 C 105.871094 65.105469 105.65625 65.105469 105.335938 65.082031 C 105.335938 65.386719 105.335938 65.644531 105.335938 65.90625 C 105.335938 69.863281 105.347656 73.816406 105.320312 77.773438 C 105.316406 78.433594 105.519531 78.628906 106.171875 78.691406 "/><path style=" stroke:none;fill-rule:nonzero;fill:#ffa800;fill-opacity:1;" d="M 112.148438 101.933594 C 109.917969 101.882812 107.695312 101.769531 105.375 101.679688 C 105.375 106.214844 105.375 110.636719 105.375 115.121094 C 107.886719 115.121094 110.367188 115.121094 112.941406 115.121094 C 112.957031 114.871094 112.980469 114.613281 112.980469 114.355469 C 112.984375 110.511719 112.96875 106.671875 113 102.828125 C 113.003906 102.167969 112.8125 101.949219 112.148438 101.933594 "/><path style=" stroke:none;fill-rule:nonzero;fill:#ffa800;fill-opacity:1;" d="M 117.742188 62.613281 C 119.832031 62.964844 121.910156 63.378906 124.046875 63.777344 C 124.046875 59.550781 124.046875 55.371094 124.046875 51.074219 C 121.804688 50.546875 119.519531 50.007812 117.117188 49.441406 C 117.09375 49.777344 117.0625 50.015625 117.0625 50.25 C 117.0625 54.066406 117.070312 57.878906 117.050781 61.695312 C 117.046875 62.230469 117.152344 62.507812 117.742188 62.613281 "/><path style=" stroke:none;fill-rule:nonzero;fill:#ffa800;fill-opacity:1;" d="M 124.042969 85.382812 C 121.785156 85.132812 119.503906 84.882812 117.117188 84.613281 C 117.09375 84.957031 117.0625 85.1875 117.0625 85.425781 C 117.0625 89.21875 117.074219 93.007812 117.046875 96.796875 C 117.042969 97.453125 117.234375 97.675781 117.902344 97.703125 C 119.933594 97.785156 121.964844 97.929688 124.042969 98.058594 C 124.042969 93.820312 124.042969 89.664062 124.042969 85.382812 "/><path style=" stroke:none;fill-rule:nonzero;fill:#ffa800;fill-opacity:1;" d="M 124.054688 68.226562 C 121.738281 67.832031 119.492188 67.445312 117.132812 67.042969 C 117.105469 67.363281 117.066406 67.640625 117.066406 67.914062 C 117.058594 71.679688 117.074219 75.445312 117.050781 79.207031 C 117.046875 79.828125 117.1875 80.082031 117.875 80.148438 C 119.921875 80.351562 121.960938 80.652344 124.054688 80.917969 C 124.054688 76.667969 124.054688 72.484375 124.054688 68.226562 "/><path style=" stroke:none;fill-rule:nonzero;fill:#ffa800;fill-opacity:1;" d="M 117.125 115.144531 C 119.453125 115.144531 121.726562 115.144531 124.042969 115.144531 C 124.042969 110.9375 124.042969 106.761719 124.042969 102.53125 C 121.734375 102.417969 119.464844 102.308594 117.125 102.199219 C 117.125 106.539062 117.125 110.792969 117.125 115.144531 "/><g clip-rule="nonzero" clip-path="url(#c872093e17)"><path style=" stroke:none;fill-rule:nonzero;fill:#ffa800;fill-opacity:1;" d="M 14.808594 132.113281 L 38.722656 132.113281 L 38.722656 16.445312 C 40.363281 16.871094 41.890625 17.261719 43.414062 17.671875 C 50.964844 19.699219 58.503906 21.730469 66.0625 23.730469 C 66.625 23.878906 66.835938 24.066406 66.835938 24.679688 C 66.816406 58.238281 66.816406 91.785156 66.816406 125.335938 C 66.816406 125.546875 66.800781 125.761719 66.785156 126.082031 L 66.0625 126.082031 C 63.46875 126.082031 61.363281 128.183594 61.363281 130.777344 L 61.363281 132.585938 L 100.28125 132.585938 L 100.28125 37.902344 C 101.855469 38.320312 103.296875 38.710938 104.742188 39.09375 C 112.292969 41.121094 119.84375 43.144531 127.402344 45.136719 C 128.15625 45.335938 128.390625 45.636719 128.390625 46.425781 C 128.363281 74.570312 128.375 102.710938 128.375 130.859375 L 128.375 132.03125 L 143.792969 132.03125 L 143.792969 130.234375 C 143.792969 127.640625 141.683594 125.535156 139.089844 125.535156 L 134.953125 125.535156 L 134.953125 124.359375 C 134.953125 97.789062 134.945312 71.222656 134.96875 44.660156 C 134.960938 43.609375 134.964844 42.558594 134.96875 41.511719 C 134.972656 40.714844 134.796875 40.359375 133.972656 40.140625 C 132.609375 39.777344 131.253906 39.40625 129.886719 39.03125 L 129.898438 37.019531 C 129.902344 37.019531 129.910156 33.738281 129.910156 33.738281 C 129.476562 33.632812 129.039062 33.527344 128.605469 33.425781 C 127.988281 33.273438 127.371094 33.125 126.753906 32.980469 C 126.6875 32.964844 126.617188 32.949219 126.550781 32.933594 L 125.179688 32.601562 L 123.207031 33.335938 C 123.0625 33.378906 122.914062 33.433594 122.914062 33.449219 C 122.914062 33.457031 122.914062 33.46875 122.914062 33.480469 C 122.898438 34.707031 122.894531 35.921875 122.890625 37.152344 C 121.320312 36.726562 119.746094 36.308594 118.175781 35.875 C 118.175781 35.835938 118.175781 35.792969 118.175781 35.753906 C 118.175781 35.292969 118.179688 34.839844 118.179688 34.378906 C 118.179688 34.171875 118.179688 33.957031 118.179688 33.746094 L 118.191406 30.464844 C 117.753906 30.359375 117.324219 30.257812 116.886719 30.148438 C 116.269531 30 115.648438 29.851562 115.03125 29.707031 C 114.964844 29.691406 114.898438 29.675781 114.835938 29.660156 L 113.460938 29.328125 L 111.492188 30.0625 C 111.34375 30.105469 111.195312 30.15625 111.195312 30.171875 C 111.191406 31.359375 111.1875 32.546875 111.175781 33.726562 C 111.175781 33.808594 111.175781 33.894531 111.175781 33.976562 C 109.609375 33.5625 108.039062 33.136719 106.472656 32.699219 L 106.488281 27.152344 C 105.136719 26.832031 103.769531 26.503906 102.324219 26.15625 C 102.324219 26.167969 101.753906 26.03125 101.753906 26.03125 L 99.78125 26.765625 C 99.683594 26.796875 99.597656 26.824219 99.546875 26.847656 C 99.527344 26.855469 99.507812 26.859375 99.492188 26.867188 C 99.484375 28.0625 99.480469 29.25 99.46875 30.429688 C 99.472656 30.429688 99.46875 30.792969 99.46875 30.792969 C 97.882812 30.371094 96.289062 29.933594 94.703125 29.5 C 94.019531 29.316406 93.566406 29.46875 92.976562 29.863281 C 92.328125 30.292969 91.675781 30.714844 91.023438 31.140625 C 90.472656 31.5 89.921875 31.855469 89.371094 32.21875 C 88.558594 32.742188 87.765625 33.289062 86.964844 33.824219 C 86.148438 34.367188 85.328125 34.910156 84.511719 35.457031 C 83.699219 36 82.878906 36.539062 82.0625 37.082031 C 81.242188 37.625 80.425781 38.167969 79.601562 38.707031 C 78.785156 39.25 77.960938 39.792969 77.136719 40.328125 C 76.550781 40.714844 76.324219 41.101562 76.324219 41.8125 C 76.351562 69.285156 76.339844 96.753906 76.339844 124.230469 L 76.339844 125.433594 L 73.410156 125.433594 L 73.410156 124.371094 C 73.410156 94.027344 73.402344 63.699219 73.421875 33.359375 C 73.421875 30.5 73.425781 27.640625 73.429688 24.789062 C 73.429688 23.191406 73.429688 21.597656 73.433594 20.003906 C 73.433594 19.207031 73.253906 18.855469 72.429688 18.636719 C 71.066406 18.277344 69.707031 17.910156 68.339844 17.539062 L 68.347656 15.527344 L 68.351562 15.527344 L 68.351562 12.246094 C 67.914062 12.144531 67.476562 12.039062 67.039062 11.9375 C 66.421875 11.785156 65.800781 11.640625 65.1875 11.5 C 65.117188 11.480469 65.050781 11.46875 64.984375 11.449219 L 63.613281 11.125 L 61.644531 11.867188 C 61.5 11.910156 61.347656 11.960938 61.347656 11.976562 C 61.347656 11.984375 61.347656 11.996094 61.347656 12.007812 C 61.347656 12.007812 61.34375 12.007812 61.34375 12.007812 C 61.335938 13.234375 61.335938 14.453125 61.335938 15.683594 C 59.765625 15.261719 58.1875 14.847656 56.621094 14.421875 L 56.621094 9.007812 C 56.183594 8.90625 55.75 8.800781 55.3125 8.699219 C 54.695312 8.546875 54.078125 8.402344 53.457031 8.257812 C 53.390625 8.246094 53.328125 8.230469 53.261719 8.210938 L 51.886719 7.886719 L 49.914062 8.625 C 49.769531 8.667969 49.625 8.722656 49.625 8.738281 C 49.625 9.921875 49.621094 11.109375 49.613281 12.289062 C 49.613281 12.371094 49.613281 12.457031 49.613281 12.542969 C 48.042969 12.128906 46.476562 11.707031 44.90625 11.28125 L 44.90625 5.730469 C 43.550781 5.410156 42.1875 5.089844 40.742188 4.746094 C 40.742188 4.75 40.738281 4.753906 40.738281 4.757812 L 40.167969 4.625 L 38.199219 5.363281 C 38.101562 5.394531 38.015625 5.421875 37.964844 5.445312 C 37.945312 5.449219 37.929688 5.457031 37.90625 5.464844 L 37.90625 5.472656 L 37.902344 5.472656 C 37.902344 6.660156 37.902344 7.847656 37.894531 9.027344 L 37.898438 9.027344 L 37.894531 9.394531 C 36.308594 8.972656 34.714844 8.542969 33.128906 8.117188 C 32.445312 7.929688 31.925781 8.007812 31.339844 8.402344 C 29.882812 9.371094 28.414062 10.316406 26.953125 11.28125 C 23.132812 13.796875 19.316406 16.3125 15.484375 18.800781 C 14.96875 19.136719 14.792969 19.496094 14.792969 20.101562 C 14.808594 55.28125 14.808594 90.464844 14.808594 125.632812 L 10.914062 125.632812 C 8.320312 125.632812 6.214844 127.734375 6.214844 130.328125 L 6.214844 132.050781 C 9.058594 132.070312 11.898438 132.085938 14.75 132.101562 C 14.765625 132.101562 14.792969 132.101562 14.808594 132.113281 "/></g></g></svg>