<svg xmlns="http://www.w3.org/2000/svg" xmlns:xlink="http://www.w3.org/1999/xlink" width="200" zoomAndPan="magnify" viewBox="0 0 150 157.92" height="200" preserveAspectRatio="xMidYMid meet" version="1.2"><defs><clipPath id="b287796356"><path d="M 0.867188 12 L 131 12 L 131 142.429688 L 0.867188 142.429688 Z M 0.867188 12 "/></clipPath><clipPath id="f08e9192ee"><path d="M 28 7.496094 L 149.960938 7.496094 L 149.960938 103 L 28 103 Z M 28 7.496094 "/></clipPath></defs><g id="4c573a5b33"><g clip-rule="nonzero" clip-path="url(#b287796356)"><path style=" stroke:none;fill-rule:evenodd;fill:#ffa800;fill-opacity:1;" d="M 26.074219 27.066406 C 20.109375 27.066406 15.269531 31.902344 15.269531 37.867188 L 15.269531 117.097656 C 15.269531 123.0625 20.109375 127.902344 26.074219 127.902344 L 105.304688 127.902344 C 111.269531 127.902344 116.105469 123.0625 116.105469 117.097656 L 116.105469 63.078125 L 130.511719 63.078125 L 130.511719 117.097656 C 130.511719 131.019531 119.226562 142.304688 105.304688 142.304688 L 26.074219 142.304688 C 12.152344 142.304688 0.867188 131.019531 0.867188 117.097656 L 0.867188 37.867188 C 0.867188 23.945312 12.152344 12.660156 26.074219 12.660156 L 98.101562 12.660156 L 98.101562 27.066406 Z M 26.074219 27.066406 "/></g><g clip-rule="nonzero" clip-path="url(#f08e9192ee)"><path style=" stroke:none;fill-rule:evenodd;fill:#ffa800;fill-opacity:1;" d="M 150.011719 17.753906 L 67.179688 100.582031 C 64.367188 103.394531 59.808594 103.394531 56.996094 100.582031 L 28.183594 71.773438 L 38.371094 61.585938 L 62.085938 85.304688 L 139.824219 7.566406 Z M 150.011719 17.753906 "/></g></g></svg>