<svg xmlns="http://www.w3.org/2000/svg" xmlns:xlink="http://www.w3.org/1999/xlink" width="200" zoomAndPan="magnify" viewBox="0 0 150 157.92" height="200" preserveAspectRatio="xMidYMid meet" version="1.2"><defs><clipPath id="7e73b7f177"><path d="M 0.0390625 3.1875 L 149.960938 3.1875 L 149.960938 147 L 0.0390625 147 Z M 0.0390625 3.1875 "/></clipPath></defs><g id="cfd27ccbd9"><g clip-rule="nonzero" clip-path="url(#7e73b7f177)"><path style=" stroke:none;fill-rule:evenodd;fill:#ffa800;fill-opacity:1;" d="M 42.996094 55.8125 L 3.035156 55.8125 C 1.386719 55.8125 0.0390625 57.160156 0.0390625 58.8125 L 0.0390625 143.714844 C 0.0390625 145.363281 1.386719 146.710938 3.035156 146.710938 L 42.996094 146.710938 Z M 102.207031 146.710938 L 102.207031 33.53125 L 47.792969 33.53125 L 47.792969 146.710938 L 62.683594 146.710938 L 62.683594 113.679688 C 62.683594 110.613281 65.457031 108.109375 68.859375 108.109375 L 81.140625 108.109375 C 84.542969 108.109375 87.316406 110.613281 87.316406 113.679688 L 87.316406 146.710938 Z M 93.589844 66.085938 C 93.589844 76.351562 85.265625 84.675781 75 84.675781 C 64.734375 84.675781 56.410156 76.351562 56.410156 66.085938 C 56.410156 55.816406 64.734375 47.496094 75 47.496094 C 85.265625 47.496094 93.589844 55.816406 93.589844 66.085938 Z M 70.5625 55.8125 L 79.4375 55.8125 L 79.4375 61.648438 L 85.273438 61.648438 L 85.273438 70.523438 L 79.4375 70.523438 L 79.4375 76.359375 L 70.5625 76.359375 L 70.5625 70.523438 L 64.726562 70.523438 L 64.726562 61.648438 L 70.5625 61.648438 Z M 45.65625 18.277344 L 72.601562 18.277344 L 72.601562 5.582031 C 72.601562 4.257812 73.675781 3.183594 75 3.183594 C 76.324219 3.183594 77.398438 4.257812 77.398438 5.582031 L 77.398438 18.277344 L 104.34375 18.277344 C 105.996094 18.277344 107.34375 19.621094 107.34375 21.273438 L 107.34375 25.734375 C 107.34375 27.386719 105.996094 28.734375 104.34375 28.734375 C 78.128906 28.734375 71.871094 28.734375 45.65625 28.734375 C 44.003906 28.734375 42.65625 27.386719 42.65625 25.734375 L 42.65625 21.273438 C 42.65625 19.621094 44.003906 18.277344 45.65625 18.277344 Z M 146.964844 55.8125 L 107.003906 55.8125 L 107.003906 146.710938 L 146.964844 146.710938 C 148.613281 146.710938 149.960938 145.363281 149.960938 143.714844 L 149.960938 58.8125 C 149.960938 57.160156 148.613281 55.8125 146.964844 55.8125 Z M 117.242188 75.625 L 139.722656 75.625 C 140.550781 75.625 141.222656 76.296875 141.222656 77.121094 L 141.222656 82.433594 C 141.222656 83.257812 140.550781 83.929688 139.722656 83.929688 L 117.242188 83.929688 C 116.417969 83.929688 115.742188 83.257812 115.742188 82.433594 L 115.742188 77.121094 C 115.742188 76.296875 116.417969 75.625 117.242188 75.625 Z M 117.242188 97.109375 L 139.722656 97.109375 C 140.550781 97.109375 141.222656 97.78125 141.222656 98.609375 L 141.222656 103.917969 C 141.222656 104.742188 140.550781 105.417969 139.722656 105.417969 L 117.242188 105.417969 C 116.417969 105.417969 115.742188 104.742188 115.742188 103.917969 L 115.742188 98.609375 C 115.742188 97.78125 116.417969 97.109375 117.242188 97.109375 Z M 117.242188 118.59375 L 139.722656 118.59375 C 140.550781 118.59375 141.222656 119.265625 141.222656 120.09375 L 141.222656 125.402344 C 141.222656 126.226562 140.550781 126.902344 139.722656 126.902344 L 117.242188 126.902344 C 116.417969 126.902344 115.742188 126.226562 115.742188 125.402344 L 115.742188 120.09375 C 115.742188 119.265625 116.417969 118.59375 117.242188 118.59375 Z M 10.277344 75.625 L 32.757812 75.625 C 33.582031 75.625 34.257812 76.296875 34.257812 77.121094 L 34.257812 82.433594 C 34.257812 83.257812 33.582031 83.929688 32.757812 83.929688 L 10.277344 83.929688 C 9.449219 83.929688 8.777344 83.257812 8.777344 82.433594 L 8.777344 77.121094 C 8.777344 76.296875 9.449219 75.625 10.277344 75.625 Z M 10.277344 97.109375 L 32.757812 97.109375 C 33.582031 97.109375 34.257812 97.78125 34.257812 98.609375 L 34.257812 103.917969 C 34.257812 104.742188 33.582031 105.417969 32.757812 105.417969 L 10.277344 105.417969 C 9.449219 105.417969 8.777344 104.742188 8.777344 103.917969 L 8.777344 98.609375 C 8.777344 97.78125 9.449219 97.109375 10.277344 97.109375 Z M 10.277344 118.59375 L 32.757812 118.59375 C 33.582031 118.59375 34.257812 119.265625 34.257812 120.09375 L 34.257812 125.402344 C 34.257812 126.226562 33.582031 126.902344 32.757812 126.902344 L 10.277344 126.902344 C 9.449219 126.902344 8.777344 126.226562 8.777344 125.402344 L 8.777344 120.09375 C 8.777344 119.265625 9.449219 118.59375 10.277344 118.59375 Z M 10.277344 118.59375 "/></g></g></svg>