<svg xmlns="http://www.w3.org/2000/svg" xmlns:xlink="http://www.w3.org/1999/xlink" width="200" zoomAndPan="magnify" viewBox="0 0 150 157.92" height="200" preserveAspectRatio="xMidYMid meet" version="1.2"><defs><clipPath id="be521d10a7"><path d="M 14.1875 3 L 135.625 3 L 135.625 149.925781 L 14.1875 149.925781 Z M 14.1875 3 "/></clipPath></defs><g id="4dc56f65a2"><g clip-rule="nonzero" clip-path="url(#be521d10a7)"><path style=" stroke:none;fill-rule:evenodd;fill:#ffa800;fill-opacity:1;" d="M 43.386719 92.671875 C 41.273438 116.945312 54.25 139.0625 74.769531 149.660156 C 74.859375 149.707031 74.953125 149.707031 75.042969 149.660156 C 95.5625 139.0625 108.539062 116.945312 106.425781 92.671875 C 106.410156 92.523438 106.292969 92.410156 106.144531 92.398438 C 94.460938 91.636719 84.328125 87.230469 76.476562 77.433594 C 76.417969 77.367188 76.398438 77.28125 76.414062 77.195312 C 76.429688 77.105469 76.480469 77.035156 76.554688 76.988281 L 133.984375 42.738281 C 133.984375 42.738281 133.988281 42.738281 133.988281 42.734375 C 135.226562 42.042969 135.550781 40.59375 134.796875 39.460938 C 134.796875 39.460938 134.792969 39.460938 134.792969 39.457031 C 127.742188 28.46875 119.242188 20 109.953125 14.050781 C 88.03125 0.015625 61.78125 0.015625 39.859375 14.050781 C 30.550781 20.011719 22.03125 28.507812 14.972656 39.53125 C 14.273438 40.621094 14.613281 42.050781 15.800781 42.722656 C 15.800781 42.722656 15.804688 42.722656 15.804688 42.726562 L 73.253906 76.992188 C 73.332031 77.035156 73.382812 77.105469 73.398438 77.195312 C 73.414062 77.28125 73.390625 77.367188 73.335938 77.4375 C 65.484375 87.230469 55.351562 91.636719 43.667969 92.398438 C 43.519531 92.410156 43.402344 92.523438 43.386719 92.671875 Z M 62.03125 40.78125 C 61.996094 40.703125 61.996094 40.625 62.027344 40.546875 C 62.984375 38.265625 64.609375 36.296875 66.675781 34.859375 C 73.90625 29.828125 84.4375 32.539062 87.785156 40.546875 C 87.816406 40.625 87.816406 40.703125 87.78125 40.78125 L 75.179688 69.203125 C 75.132812 69.3125 75.027344 69.382812 74.90625 69.382812 C 74.785156 69.382812 74.679688 69.3125 74.632812 69.203125 Z M 92.128906 42.058594 C 92.144531 42.023438 92.164062 41.996094 92.191406 41.96875 C 98.691406 35.25 105.167969 32.890625 111.554688 33.398438 C 117.179688 33.84375 122.851562 36.472656 128.484375 40.300781 C 128.574219 40.359375 128.621094 40.453125 128.617188 40.558594 C 128.613281 40.664062 128.5625 40.75 128.46875 40.804688 L 80.628906 69.339844 C 80.515625 69.40625 80.378906 69.394531 80.277344 69.304688 C 80.179688 69.21875 80.148438 69.082031 80.203125 68.960938 Z M 69.609375 68.960938 C 69.664062 69.082031 69.632812 69.21875 69.535156 69.304688 C 69.433594 69.394531 69.296875 69.40625 69.183594 69.339844 L 21.320312 40.792969 C 21.230469 40.738281 21.175781 40.648438 21.171875 40.542969 C 21.167969 40.441406 21.214844 40.347656 21.304688 40.289062 C 26.621094 36.628906 32.1875 33.929688 37.804688 33.378906 C 44.253906 32.746094 50.929688 34.984375 57.621094 41.964844 C 57.648438 41.992188 57.664062 42.015625 57.679688 42.050781 Z M 72.703125 96.199219 L 77.109375 96.199219 C 79.003906 96.199219 80.554688 97.75 80.554688 99.644531 L 80.554688 107.445312 C 80.554688 107.609375 80.691406 107.746094 80.855469 107.746094 L 88.660156 107.746094 C 90.554688 107.746094 92.105469 109.296875 92.105469 111.191406 L 92.105469 115.597656 C 92.105469 117.492188 90.554688 119.042969 88.660156 119.042969 L 80.855469 119.042969 C 80.691406 119.042969 80.554688 119.179688 80.554688 119.34375 L 80.554688 127.148438 C 80.554688 129.042969 79.003906 130.59375 77.109375 130.59375 L 72.703125 130.59375 C 70.804688 130.59375 69.257812 129.042969 69.257812 127.148438 L 69.257812 119.34375 C 69.257812 119.179688 69.121094 119.042969 68.957031 119.042969 L 61.152344 119.042969 C 59.257812 119.042969 57.707031 117.496094 57.707031 115.597656 L 57.707031 111.191406 C 57.707031 109.296875 59.257812 107.746094 61.152344 107.746094 L 68.957031 107.746094 C 69.121094 107.746094 69.257812 107.609375 69.257812 107.445312 L 69.257812 99.644531 C 69.257812 97.75 70.804688 96.199219 72.703125 96.199219 Z M 72.703125 96.199219 "/></g></g></svg>