<svg xmlns="http://www.w3.org/2000/svg" xmlns:xlink="http://www.w3.org/1999/xlink" width="200" zoomAndPan="magnify" viewBox="0 0 150 157.92" height="200" preserveAspectRatio="xMidYMid meet" version="1.2"><defs><clipPath id="93a7725051"><path d="M 1 56 L 149.960938 56 L 149.960938 136 L 1 136 Z M 1 56 "/></clipPath><clipPath id="7470218eaa"><path d="M 0.0390625 142 L 149.960938 142 L 149.960938 149.925781 L 0.0390625 149.925781 Z M 0.0390625 142 "/></clipPath></defs><g id="77db16b6c5"><g clip-rule="nonzero" clip-path="url(#93a7725051)"><path style=" stroke:none;fill-rule:nonzero;fill:#ffa800;fill-opacity:1;" d="M 145.800781 56.191406 L 126.554688 56.191406 C 124.503906 56.191406 122.769531 57.925781 122.769531 59.976562 C 122.769531 62.027344 124.503906 63.761719 126.554688 63.761719 L 136.652344 63.761719 L 73.707031 126.703125 L 8.082031 61.078125 C 6.664062 59.660156 4.140625 59.660156 2.71875 61.078125 C 1.300781 62.5 1.300781 65.023438 2.71875 66.445312 L 71.027344 134.75 C 72.445312 136.171875 74.96875 136.171875 76.390625 134.75 L 142.015625 69.125 L 142.015625 79.222656 C 142.015625 81.273438 143.75 83.007812 145.800781 83.007812 C 147.851562 83.007812 149.585938 81.273438 149.585938 79.222656 L 149.585938 59.976562 C 149.585938 57.925781 147.851562 56.191406 145.800781 56.191406 Z M 145.800781 56.191406 "/></g><g clip-rule="nonzero" clip-path="url(#7470218eaa)"><path style=" stroke:none;fill-rule:nonzero;fill:#ffa800;fill-opacity:1;" d="M 145.800781 142.324219 L 3.824219 142.324219 C 1.773438 142.324219 0.0390625 144.058594 0.0390625 146.109375 C 0.0390625 148.160156 1.773438 149.894531 3.824219 149.894531 L 145.800781 149.894531 C 147.851562 149.894531 149.585938 148.160156 149.585938 146.109375 C 149.585938 144.058594 147.851562 142.324219 145.800781 142.324219 Z M 145.800781 142.324219 "/></g><path style=" stroke:none;fill-rule:nonzero;fill:#ffa800;fill-opacity:1;" d="M 70.554688 15.175781 C 70.867188 15.175781 71.34375 15.175781 71.65625 15.015625 C 74.179688 14.386719 75.601562 11.859375 75.128906 9.335938 L 73.394531 2.238281 C 73.078125 1.292969 72.289062 0.34375 71.34375 0.1875 C 71.183594 0.1875 70.867188 0.03125 70.710938 0.03125 C 69.449219 0.03125 68.34375 0.976562 68.027344 2.238281 L 66.292969 9.335938 C 66.136719 10.125 66.136719 10.914062 66.292969 11.546875 C 66.609375 13.597656 68.503906 15.175781 70.554688 15.175781 Z M 70.554688 15.175781 "/><path style=" stroke:none;fill-rule:nonzero;fill:#ffa800;fill-opacity:1;" d="M 48.941406 16.277344 C 49.097656 17.066406 49.570312 17.699219 50.046875 18.171875 C 50.992188 19.117188 52.097656 19.589844 53.359375 19.589844 C 54.621094 19.589844 55.722656 19.117188 56.671875 18.328125 C 57.617188 17.539062 58.089844 16.277344 58.089844 15.015625 C 58.089844 13.753906 57.617188 12.648438 56.828125 11.703125 L 51.78125 6.339844 C 51.148438 6.023438 50.359375 5.707031 49.570312 5.707031 C 49.257812 5.707031 49.097656 5.707031 48.785156 5.867188 C 47.996094 6.023438 47.519531 6.496094 47.046875 7.285156 C 46.734375 7.917969 46.574219 8.707031 46.734375 9.496094 Z M 48.941406 16.277344 "/><path style=" stroke:none;fill-rule:nonzero;fill:#ffa800;fill-opacity:1;" d="M 37.582031 30.949219 C 38.214844 31.421875 38.84375 31.894531 39.476562 32.054688 C 39.949219 32.210938 40.265625 32.210938 40.738281 32.210938 C 42.789062 32.210938 44.683594 30.792969 45.15625 28.898438 C 45.46875 27.636719 45.3125 26.375 44.683594 25.429688 C 44.050781 24.324219 43.105469 23.535156 41.84375 23.21875 L 34.742188 21.167969 C 34.429688 21.167969 34.269531 21.011719 33.953125 21.011719 C 33.164062 21.011719 32.378906 21.328125 31.902344 21.800781 C 30.800781 22.902344 30.800781 24.796875 31.902344 25.742188 Z M 37.582031 30.949219 "/><path style=" stroke:none;fill-rule:nonzero;fill:#ffa800;fill-opacity:1;" d="M 27.960938 47.511719 L 35.058594 49.25 C 35.375 49.40625 35.847656 49.40625 36.164062 49.40625 C 36.480469 49.40625 36.953125 49.40625 37.265625 49.25 C 38.53125 48.933594 39.476562 48.144531 40.105469 47.199219 C 40.738281 46.09375 40.894531 44.832031 40.582031 43.726562 C 40.105469 41.675781 38.214844 40.257812 36.003906 40.257812 C 35.691406 40.257812 35.214844 40.257812 34.902344 40.414062 L 27.800781 42.148438 C 26.855469 42.464844 25.910156 43.253906 25.75 44.199219 C 25.59375 45.621094 26.382812 47.199219 27.960938 47.511719 Z M 27.960938 47.511719 "/><path style=" stroke:none;fill-rule:nonzero;fill:#ffa800;fill-opacity:1;" d="M 40.894531 57.292969 C 39.632812 57.292969 38.53125 57.765625 37.582031 58.554688 L 32.21875 63.605469 C 31.429688 64.394531 31.113281 65.496094 31.429688 66.445312 C 31.746094 67.707031 32.851562 68.496094 34.113281 68.496094 C 34.429688 68.496094 34.585938 68.496094 34.902344 68.335938 L 42 66.285156 C 42.789062 66.128906 43.417969 65.65625 43.894531 65.179688 C 45.785156 63.445312 45.785156 60.449219 44.050781 58.554688 C 43.261719 57.765625 42.15625 57.292969 40.894531 57.292969 Z M 40.894531 57.292969 "/><path style=" stroke:none;fill-rule:nonzero;fill:#ffa800;fill-opacity:1;" d="M 54.621094 70.070312 C 54.148438 69.914062 53.832031 69.914062 53.359375 69.914062 C 51.308594 69.914062 49.414062 71.332031 48.941406 73.226562 L 46.890625 80.324219 C 46.574219 81.273438 46.890625 82.375 47.679688 83.164062 C 48.152344 83.636719 48.941406 83.953125 49.570312 83.953125 C 50.359375 83.953125 51.148438 83.636719 51.621094 83.164062 L 56.671875 77.800781 C 57.144531 77.171875 57.617188 76.539062 57.773438 75.910156 C 58.089844 74.648438 57.933594 73.382812 57.300781 72.4375 C 56.828125 71.175781 55.882812 70.386719 54.621094 70.070312 Z M 54.621094 70.070312 "/><path style=" stroke:none;fill-rule:nonzero;fill:#ffa800;fill-opacity:1;" d="M 70.554688 74.488281 C 70.238281 74.488281 69.765625 74.488281 69.449219 74.648438 C 66.925781 75.277344 65.503906 77.800781 65.976562 80.324219 L 67.714844 87.425781 C 68.027344 88.371094 68.816406 89.316406 69.765625 89.476562 C 69.921875 89.476562 70.238281 89.632812 70.394531 89.632812 C 71.65625 89.632812 72.761719 88.6875 73.078125 87.425781 L 74.8125 80.324219 C 74.96875 79.535156 74.96875 78.75 74.8125 78.117188 C 74.65625 75.910156 72.761719 74.488281 70.554688 74.488281 Z M 70.554688 74.488281 "/><path style=" stroke:none;fill-rule:nonzero;fill:#ffa800;fill-opacity:1;" d="M 91.0625 71.332031 C 90.113281 70.386719 89.011719 69.914062 87.75 69.914062 C 86.484375 69.914062 85.382812 70.386719 84.433594 71.175781 C 82.542969 72.910156 82.542969 75.910156 84.277344 77.800781 L 89.324219 83.164062 C 89.800781 83.796875 90.585938 84.113281 91.375 84.113281 C 91.691406 84.113281 91.851562 84.113281 92.164062 83.953125 C 93.742188 83.480469 94.53125 81.902344 94.058594 80.484375 L 92.007812 73.382812 C 92.007812 72.597656 91.691406 71.808594 91.0625 71.332031 Z M 91.0625 71.332031 "/><path style=" stroke:none;fill-rule:nonzero;fill:#ffa800;fill-opacity:1;" d="M 99.105469 66.445312 L 106.207031 68.496094 C 106.519531 68.496094 106.679688 68.652344 106.992188 68.652344 C 107.78125 68.652344 108.570312 68.335938 109.042969 67.863281 C 109.519531 67.390625 109.832031 66.601562 109.832031 65.8125 C 109.832031 65.023438 109.519531 64.394531 109.042969 63.761719 L 103.679688 58.714844 C 103.050781 58.242188 102.417969 57.765625 101.789062 57.609375 C 101.316406 57.453125 101 57.453125 100.527344 57.453125 C 98.476562 57.453125 96.582031 58.871094 96.109375 60.765625 C 95.164062 63.128906 96.582031 65.8125 99.105469 66.445312 Z M 99.105469 66.445312 "/><path style=" stroke:none;fill-rule:nonzero;fill:#ffa800;fill-opacity:1;" d="M 104.941406 40.097656 C 104.628906 40.097656 104.15625 40.097656 103.839844 40.257812 C 102.578125 40.570312 101.628906 41.359375 101 42.308594 C 100.367188 43.410156 100.210938 44.671875 100.527344 45.777344 C 101 47.828125 102.890625 49.25 105.101562 49.25 C 105.417969 49.25 105.890625 49.25 106.207031 49.089844 L 113.304688 47.355469 C 114.25 47.039062 115.195312 46.25 115.355469 45.304688 C 115.511719 44.515625 115.355469 43.726562 115.039062 43.097656 C 114.722656 42.464844 114.09375 41.992188 113.304688 41.835938 L 106.046875 40.257812 C 105.730469 40.097656 105.257812 40.097656 104.941406 40.097656 Z M 104.941406 40.097656 "/><path style=" stroke:none;fill-rule:nonzero;fill:#ffa800;fill-opacity:1;" d="M 100.367188 32.210938 C 101.628906 32.210938 102.734375 31.738281 103.679688 30.949219 L 109.042969 25.902344 C 109.832031 25.113281 110.148438 24.007812 109.832031 23.0625 C 109.519531 21.800781 108.414062 21.011719 107.152344 21.011719 C 106.835938 21.011719 106.679688 21.011719 106.363281 21.167969 L 99.265625 23.21875 C 98.476562 23.378906 97.84375 23.851562 97.371094 24.324219 C 96.425781 25.113281 95.953125 26.375 95.953125 27.636719 C 95.953125 28.898438 96.425781 30.003906 97.214844 30.949219 C 97.84375 31.738281 99.105469 32.210938 100.367188 32.210938 Z M 100.367188 32.210938 "/><path style=" stroke:none;fill-rule:nonzero;fill:#ffa800;fill-opacity:1;" d="M 86.484375 19.589844 C 86.960938 19.75 87.273438 19.75 87.75 19.75 C 89.800781 19.75 91.691406 18.328125 92.164062 16.4375 L 94.214844 9.335938 C 94.53125 8.390625 94.214844 7.285156 93.425781 6.496094 C 92.953125 6.023438 92.164062 5.707031 91.535156 5.707031 C 90.746094 5.707031 89.957031 6.023438 89.484375 6.496094 L 84.433594 11.859375 C 83.960938 12.335938 83.488281 13.125 83.332031 13.753906 C 83.015625 15.015625 83.171875 16.277344 83.804688 17.226562 C 84.277344 18.328125 85.222656 19.117188 86.484375 19.589844 Z M 86.484375 19.589844 "/><path style=" stroke:none;fill-rule:nonzero;fill:#ffa800;fill-opacity:1;" d="M 70.554688 19.589844 C 56.671875 19.589844 45.3125 30.949219 45.3125 44.832031 C 45.3125 58.714844 56.671875 70.070312 70.554688 70.070312 C 84.433594 70.070312 95.792969 58.714844 95.792969 44.832031 C 95.792969 30.949219 84.433594 19.589844 70.554688 19.589844 Z M 70.554688 19.589844 "/></g></svg>