<svg xmlns="http://www.w3.org/2000/svg" xmlns:xlink="http://www.w3.org/1999/xlink" width="200" zoomAndPan="magnify" viewBox="0 0 150 157.92" height="200" preserveAspectRatio="xMidYMid meet" version="1.2"><defs><clipPath id="4370c07c68"><path d="M 18.027344 1.09375 L 131.972656 1.09375 L 131.972656 148.769531 L 18.027344 148.769531 Z M 18.027344 1.09375 "/></clipPath></defs><g id="0cd6984383"><g clip-rule="nonzero" clip-path="url(#4370c07c68)"><path style=" stroke:none;fill-rule:evenodd;fill:#ffa800;fill-opacity:1;" d="M 87.765625 82.921875 C 84.976562 84.214844 82.886719 86.71875 82.148438 89.890625 C 82.148438 89.902344 81.214844 93.875 81.214844 93.875 C 81.214844 93.878906 81.210938 93.882812 81.210938 93.886719 C 81.183594 94.003906 81.132812 94.097656 81.042969 94.179688 C 81.039062 94.179688 81.039062 94.183594 81.035156 94.1875 L 78.046875 96.988281 C 74.675781 100.15625 73.824219 104.988281 75.917969 109.109375 C 75.921875 109.117188 77.753906 112.746094 77.753906 112.746094 C 77.8125 112.859375 77.835938 112.972656 77.820312 113.097656 C 77.820312 113.105469 77.820312 113.109375 77.820312 113.113281 L 77.332031 117.179688 L 77.332031 117.1875 C 77.140625 118.820312 77.328125 120.414062 77.839844 121.867188 C 57.910156 121.867188 37.246094 121.867188 31.277344 121.863281 C 30.839844 121.863281 30.425781 121.675781 30.140625 121.347656 C 29.855469 121.019531 29.726562 120.585938 29.785156 120.152344 C 33.003906 98.070312 52.011719 81.109375 74.980469 81.109375 C 79.417969 81.109375 83.707031 81.742188 87.765625 82.921875 Z M 74.980469 78.097656 C 62.265625 78.097656 51.898438 67.71875 51.898438 55 C 51.898438 42.285156 62.265625 31.90625 74.980469 31.90625 C 87.710938 31.90625 98.074219 42.285156 98.074219 55 C 98.074219 67.71875 87.710938 78.097656 74.980469 78.097656 Z M 122.601562 130.785156 L 128.136719 142.679688 C 128.222656 142.851562 128.199219 143.035156 128.082031 143.179688 C 127.972656 143.332031 127.804688 143.398438 127.617188 143.367188 L 120.277344 142.085938 L 116.523438 148.527344 C 116.4375 148.6875 116.269531 148.773438 116.085938 148.769531 C 115.902344 148.761719 115.75 148.660156 115.667969 148.488281 L 110.585938 137.574219 C 114.675781 138.367188 118.757812 136.667969 121.089844 133.101562 Z M 100.269531 137.574219 L 95.1875 148.488281 C 95.113281 148.660156 94.953125 148.761719 94.769531 148.769531 C 94.585938 148.773438 94.417969 148.6875 94.332031 148.527344 L 90.585938 142.085938 L 83.238281 143.367188 C 83.050781 143.398438 82.882812 143.332031 82.773438 143.179688 C 82.65625 143.035156 82.632812 142.851562 82.71875 142.679688 L 88.253906 130.785156 C 88.90625 131.785156 89.769531 133.101562 89.769531 133.101562 C 92.097656 136.667969 96.179688 138.367188 100.269531 137.574219 Z M 108.691406 83.035156 L 111.972656 85.492188 C 112.867188 86.164062 113.804688 86.507812 114.929688 86.570312 L 119.015625 86.792969 C 121.460938 86.933594 123.453125 88.601562 124.007812 90.984375 L 124.949219 94.976562 C 125.199219 96.066406 125.699219 96.9375 126.523438 97.703125 L 129.507812 100.503906 C 131.296875 102.183594 131.746094 104.742188 130.636719 106.925781 L 128.789062 110.585938 C 128.289062 111.582031 128.109375 112.570312 128.25 113.6875 L 128.734375 117.753906 C 129.023438 120.183594 127.726562 122.4375 125.46875 123.402344 L 121.707031 125.011719 C 120.675781 125.449219 119.90625 126.101562 119.292969 127.039062 L 117.050781 130.464844 C 115.710938 132.519531 113.273438 133.402344 110.921875 132.695312 L 107 131.511719 C 105.929688 131.183594 104.925781 131.183594 103.855469 131.511719 L 99.933594 132.695312 C 97.582031 133.402344 95.144531 132.519531 93.804688 130.464844 L 91.566406 127.039062 C 90.949219 126.101562 90.179688 125.449219 89.148438 125.011719 L 85.386719 123.402344 C 83.132812 122.4375 81.832031 120.183594 82.121094 117.753906 L 82.609375 113.6875 C 82.746094 112.570312 82.566406 111.582031 82.066406 110.585938 L 80.21875 106.925781 C 79.109375 104.742188 79.558594 102.183594 81.347656 100.503906 L 84.332031 97.703125 C 85.15625 96.9375 85.65625 96.066406 85.90625 94.976562 L 86.847656 90.984375 C 87.402344 88.601562 89.394531 86.933594 91.839844 86.792969 L 95.925781 86.570312 C 97.050781 86.507812 97.996094 86.164062 98.882812 85.492188 L 102.164062 83.035156 C 104.128906 81.570312 106.726562 81.570312 108.691406 83.035156 Z M 105.429688 122.402344 C 113.667969 122.402344 120.390625 115.675781 120.390625 107.433594 C 120.390625 99.191406 113.667969 92.46875 105.429688 92.46875 C 97.1875 92.46875 90.464844 99.191406 90.464844 107.433594 C 90.464844 115.675781 97.1875 122.402344 105.429688 122.402344 Z M 73.871094 1.898438 C 74.027344 1.417969 74.476562 1.09375 74.980469 1.09375 C 75.484375 1.09375 75.933594 1.417969 76.089844 1.898438 L 78.210938 8.429688 C 78.367188 8.910156 78.816406 9.234375 79.320312 9.234375 L 86.1875 9.234375 C 86.691406 9.234375 87.140625 9.5625 87.296875 10.042969 C 87.453125 10.523438 87.28125 11.046875 86.871094 11.34375 L 81.316406 15.382812 C 80.910156 15.679688 80.738281 16.203125 80.894531 16.683594 L 83.015625 23.214844 C 83.171875 23.695312 83 24.222656 82.59375 24.519531 C 82.183594 24.816406 81.628906 24.816406 81.222656 24.519531 L 75.664062 20.484375 C 75.257812 20.183594 74.703125 20.183594 74.296875 20.484375 L 68.738281 24.519531 C 68.332031 24.816406 67.777344 24.816406 67.371094 24.519531 C 66.960938 24.222656 66.789062 23.695312 66.945312 23.214844 L 69.066406 16.683594 C 69.222656 16.203125 69.054688 15.679688 68.644531 15.382812 L 63.089844 11.34375 C 62.679688 11.046875 62.507812 10.523438 62.664062 10.042969 C 62.820312 9.5625 63.269531 9.234375 63.773438 9.234375 L 70.640625 9.234375 C 71.144531 9.234375 71.59375 8.910156 71.75 8.429688 Z M 34.519531 19.125 C 34.289062 18.671875 34.375 18.125 34.734375 17.769531 C 35.089844 17.414062 35.636719 17.324219 36.085938 17.554688 L 42.203125 20.671875 C 42.65625 20.902344 43.203125 20.816406 43.558594 20.457031 L 48.414062 15.601562 C 48.769531 15.246094 49.316406 15.160156 49.769531 15.386719 C 50.21875 15.617188 50.46875 16.109375 50.390625 16.609375 L 49.316406 23.390625 C 49.238281 23.890625 49.488281 24.382812 49.9375 24.613281 L 56.054688 27.730469 C 56.507812 27.960938 56.757812 28.453125 56.679688 28.953125 C 56.601562 29.449219 56.207031 29.84375 55.710938 29.921875 L 48.929688 30.996094 C 48.429688 31.074219 48.039062 31.464844 47.957031 31.964844 L 46.882812 38.746094 C 46.804688 39.246094 46.414062 39.636719 45.914062 39.714844 C 45.417969 39.792969 44.921875 39.542969 44.695312 39.09375 L 41.578125 32.976562 C 41.347656 32.523438 40.855469 32.273438 40.355469 32.351562 L 33.574219 33.425781 C 33.074219 33.507812 32.582031 33.253906 32.351562 32.804688 C 32.121094 32.355469 32.207031 31.808594 32.566406 31.449219 L 37.421875 26.59375 C 37.777344 26.238281 37.863281 25.691406 37.636719 25.242188 Z M 18.871094 59.128906 C 18.390625 58.972656 18.066406 58.527344 18.066406 58.019531 C 18.066406 57.515625 18.390625 57.066406 18.871094 56.910156 L 25.402344 54.789062 C 25.882812 54.632812 26.207031 54.1875 26.207031 53.679688 L 26.207031 46.816406 C 26.207031 46.308594 26.53125 45.863281 27.011719 45.707031 C 27.492188 45.550781 28.019531 45.71875 28.316406 46.128906 L 32.351562 51.683594 C 32.648438 52.09375 33.175781 52.265625 33.65625 52.109375 L 40.1875 49.984375 C 40.667969 49.828125 41.195312 50 41.492188 50.410156 C 41.789062 50.820312 41.789062 51.371094 41.492188 51.78125 L 37.453125 57.335938 C 37.15625 57.746094 37.15625 58.296875 37.453125 58.707031 L 41.492188 64.261719 C 41.789062 64.671875 41.789062 65.222656 41.492188 65.632812 C 41.195312 66.039062 40.667969 66.210938 40.1875 66.054688 L 33.65625 63.933594 C 33.175781 63.777344 32.648438 63.949219 32.351562 64.359375 L 28.316406 69.914062 C 28.019531 70.320312 27.492188 70.492188 27.011719 70.335938 C 26.53125 70.179688 26.207031 69.730469 26.207031 69.226562 L 26.207031 62.359375 C 26.207031 61.855469 25.882812 61.40625 25.402344 61.25 Z M 113.878906 17.546875 C 114.328125 17.316406 114.875 17.402344 115.230469 17.761719 C 115.589844 18.117188 115.675781 18.664062 115.445312 19.113281 L 112.328125 25.234375 C 112.097656 25.683594 112.1875 26.230469 112.542969 26.585938 L 117.398438 31.441406 C 117.753906 31.800781 117.84375 32.347656 117.613281 32.796875 C 117.382812 33.246094 116.890625 33.496094 116.390625 33.417969 L 109.609375 32.34375 C 109.109375 32.265625 108.617188 32.515625 108.386719 32.964844 L 105.269531 39.085938 C 105.042969 39.535156 104.550781 39.785156 104.050781 39.707031 C 103.550781 39.628906 103.160156 39.238281 103.082031 38.738281 L 102.007812 31.957031 C 101.925781 31.457031 101.535156 31.066406 101.039062 30.988281 L 94.253906 29.914062 C 93.757812 29.832031 93.363281 29.441406 93.285156 28.941406 C 93.207031 28.445312 93.457031 27.949219 93.90625 27.722656 L 100.027344 24.605469 C 100.476562 24.375 100.726562 23.882812 100.648438 23.382812 L 99.574219 16.601562 C 99.496094 16.101562 99.746094 15.609375 100.195312 15.378906 C 100.648438 15.152344 101.191406 15.238281 101.550781 15.59375 L 106.40625 20.449219 C 106.761719 20.808594 107.308594 20.894531 107.757812 20.664062 Z M 131.101562 56.898438 C 131.582031 57.054688 131.90625 57.503906 131.90625 58.007812 C 131.90625 58.515625 131.582031 58.960938 131.101562 59.117188 L 124.570312 61.238281 C 124.089844 61.394531 123.765625 61.84375 123.765625 62.347656 L 123.765625 69.214844 C 123.765625 69.71875 123.441406 70.167969 122.960938 70.324219 C 122.480469 70.480469 121.953125 70.308594 121.65625 69.902344 L 117.621094 64.34375 C 117.324219 63.9375 116.796875 63.765625 116.316406 63.921875 L 109.785156 66.042969 C 109.304688 66.199219 108.78125 66.027344 108.484375 65.621094 C 108.1875 65.210938 108.1875 64.65625 108.484375 64.25 L 112.519531 58.695312 C 112.816406 58.285156 112.816406 57.730469 112.519531 57.324219 L 108.484375 51.769531 C 108.1875 51.359375 108.1875 50.804688 108.484375 50.398438 C 108.78125 49.988281 109.304688 49.816406 109.785156 49.972656 L 116.316406 52.097656 C 116.796875 52.25 117.324219 52.082031 117.621094 51.671875 L 121.65625 46.117188 C 121.953125 45.707031 122.480469 45.539062 122.960938 45.695312 C 123.441406 45.851562 123.765625 46.296875 123.765625 46.800781 L 123.765625 53.667969 C 123.765625 54.175781 124.089844 54.621094 124.570312 54.777344 Z M 131.101562 56.898438 "/></g></g></svg>