<svg xmlns="http://www.w3.org/2000/svg" xmlns:xlink="http://www.w3.org/1999/xlink" width="200" zoomAndPan="magnify" viewBox="0 0 150 157.92" height="200" preserveAspectRatio="xMidYMid meet" version="1.2"><defs><clipPath id="cdeeb2fd6d"><path d="M 0.0390625 6.277344 L 149.960938 6.277344 L 149.960938 143 L 0.0390625 143 Z M 0.0390625 6.277344 "/></clipPath></defs><g id="060cb7b41a"><g clip-rule="nonzero" clip-path="url(#cdeeb2fd6d)"><path style=" stroke:none;fill-rule:nonzero;fill:#ffa800;fill-opacity:1;" d="M 12.824219 6.277344 C 5.964844 6.277344 0.410156 11.832031 0.410156 18.691406 L 0.410156 68.351562 C 0.410156 75.210938 5.964844 80.765625 12.824219 80.765625 L 37.910156 80.765625 C 38.0625 91.851562 36.980469 115.609375 26.246094 133.234375 C 26.25 133.238281 26.253906 133.234375 26.257812 133.234375 C 25.863281 133.847656 25.582031 134.507812 25.417969 135.214844 C 25.253906 135.925781 25.214844 136.640625 25.304688 137.363281 C 25.390625 138.085938 25.597656 138.773438 25.929688 139.421875 C 26.257812 140.070312 26.6875 140.644531 27.21875 141.140625 C 27.75 141.640625 28.347656 142.03125 29.015625 142.320312 C 29.6875 142.609375 30.382812 142.773438 31.109375 142.8125 C 31.835938 142.855469 32.546875 142.773438 33.246094 142.566406 C 33.945312 142.355469 34.585938 142.035156 35.167969 141.601562 C 35.167969 141.601562 62.484375 120.769531 62.484375 80.765625 L 62.484375 18.691406 C 62.484375 11.832031 56.925781 6.277344 50.070312 6.277344 Z M 99.726562 6.277344 C 92.867188 6.277344 87.3125 11.832031 87.3125 18.691406 L 87.3125 68.351562 C 87.3125 75.210938 92.867188 80.765625 99.726562 80.765625 L 124.808594 80.765625 C 124.964844 91.851562 123.878906 115.609375 113.148438 133.234375 C 113.148438 133.234375 113.160156 133.234375 113.160156 133.234375 C 112.761719 133.847656 112.484375 134.507812 112.320312 135.214844 C 112.15625 135.925781 112.117188 136.640625 112.207031 137.363281 C 112.292969 138.085938 112.5 138.773438 112.832031 139.421875 C 113.160156 140.070312 113.589844 140.644531 114.121094 141.140625 C 114.648438 141.640625 115.25 142.03125 115.917969 142.320312 C 116.585938 142.609375 117.285156 142.773438 118.011719 142.8125 C 118.738281 142.855469 119.449219 142.773438 120.148438 142.566406 C 120.84375 142.355469 121.484375 142.035156 122.070312 141.601562 C 122.070312 141.601562 149.386719 120.769531 149.386719 80.765625 L 149.386719 18.691406 C 149.386719 11.832031 143.828125 6.277344 136.96875 6.277344 Z M 99.726562 6.277344 "/></g></g></svg>