<svg xmlns="http://www.w3.org/2000/svg" xmlns:xlink="http://www.w3.org/1999/xlink" width="200" zoomAndPan="magnify" viewBox="0 0 150 157.92" height="200" preserveAspectRatio="xMidYMid meet" version="1.2"><defs><clipPath id="f1b1c00c72"><path d="M 5 66 L 144.996094 66 L 144.996094 149.925781 L 5 149.925781 Z M 5 66 "/></clipPath></defs><g id="9cbbf241ff"><g clip-rule="nonzero" clip-path="url(#f1b1c00c72)"><path style=" stroke:none;fill-rule:nonzero;fill:#ffa800;fill-opacity:1;" d="M 142.03125 66.542969 L 127.714844 66.542969 C 127.714844 66.542969 127.523438 66.542969 127.523438 66.542969 C 116.691406 67.511719 113.59375 75.25 113.402344 79.3125 L 113.402344 97.109375 C 113.402344 119.160156 96.570312 136.957031 75.875 136.957031 C 55.175781 136.957031 38.347656 119.160156 38.347656 97.109375 L 38.347656 79.3125 C 38.347656 78.34375 38.539062 73.894531 35.445312 70.414062 C 33.121094 67.898438 29.640625 66.542969 25 66.542969 L 7.78125 66.542969 C 6.429688 66.542969 5.460938 67.703125 5.460938 68.867188 L 5.460938 147.402344 C 5.460938 148.757812 6.621094 149.722656 7.78125 149.722656 L 142.03125 149.722656 C 143.382812 149.722656 144.351562 148.5625 144.351562 147.402344 L 144.351562 68.867188 C 144.351562 67.511719 143.382812 66.542969 142.03125 66.542969 Z M 142.03125 66.542969 "/></g><path style=" stroke:none;fill-rule:nonzero;fill:#ffa800;fill-opacity:1;" d="M 54.789062 73.507812 L 50.726562 71.765625 C 48.984375 70.992188 47.242188 71.765625 46.46875 73.507812 C 45.695312 75.25 46.46875 76.988281 48.210938 77.761719 L 54.980469 80.664062 L 54.980469 91.304688 C 54.980469 91.304688 54.980469 91.304688 54.980469 91.496094 L 54.980469 103.492188 C 54.980469 104.265625 55.175781 105.039062 55.753906 105.621094 L 72.972656 125.929688 C 73.550781 126.703125 74.519531 127.089844 75.488281 127.089844 C 76.453125 127.089844 77.421875 126.703125 78 125.929688 L 92.894531 108.328125 C 93.476562 107.554688 93.863281 106.585938 93.671875 105.425781 C 93.476562 104.265625 92.703125 103.683594 91.929688 103.105469 L 61.558594 89.175781 L 61.558594 83.375 L 70.070312 87.046875 L 99.28125 99.816406 C 99.667969 100.007812 100.246094 100.007812 100.632812 100.007812 C 101.792969 100.007812 103.148438 99.234375 103.535156 98.074219 C 104.308594 96.332031 103.535156 94.59375 101.792969 93.820312 L 96.378906 91.496094 L 96.378906 84.148438 C 96.378906 82.792969 95.605469 81.632812 94.445312 81.050781 L 61.558594 67.316406 L 61.558594 61.515625 L 91.734375 74.089844 L 99.085938 77.375 C 99.472656 77.570312 100.054688 77.570312 100.441406 77.570312 C 101.601562 77.570312 102.957031 76.796875 103.34375 75.636719 C 104.117188 73.894531 103.34375 72.152344 101.601562 71.378906 L 96.183594 69.058594 L 96.183594 61.902344 C 96.183594 60.546875 95.410156 59.386719 94.25 58.804688 L 61.367188 45.265625 L 61.367188 38.496094 L 98.894531 54.9375 C 99.28125 55.132812 99.859375 55.132812 100.246094 55.132812 C 101.40625 55.132812 102.761719 54.355469 103.148438 53.195312 C 103.921875 51.457031 103.148438 49.714844 101.40625 48.941406 L 96.183594 47.007812 L 96.183594 38.882812 C 96.183594 37.527344 95.410156 36.367188 94.25 35.980469 L 61.367188 21.859375 L 61.367188 16.054688 L 90.574219 28.824219 L 99.085938 32.5 C 99.472656 32.691406 100.054688 32.691406 100.441406 32.691406 C 101.601562 32.691406 102.957031 31.917969 103.34375 30.757812 C 104.117188 29.015625 103.34375 27.273438 101.601562 26.5 L 96.183594 24.179688 L 96.183594 17.988281 C 96.183594 16.636719 95.410156 15.476562 94.25 14.894531 L 59.429688 0.386719 C 58.464844 0 57.304688 0 56.335938 0.773438 C 55.367188 1.546875 54.789062 2.320312 54.789062 3.480469 L 54.789062 5.996094 L 50.726562 4.253906 C 48.984375 3.480469 47.246094 4.253906 46.46875 5.996094 C 45.695312 7.738281 46.46875 9.480469 48.210938 10.253906 L 54.980469 13.152344 L 54.980469 28.824219 L 50.917969 27.082031 C 49.179688 26.308594 47.4375 27.082031 46.664062 28.824219 C 45.890625 30.5625 46.664062 32.304688 48.40625 33.078125 L 55.175781 35.980469 L 55.175781 51.070312 L 51.113281 49.328125 C 49.371094 48.554688 47.632812 49.328125 46.855469 51.070312 C 46.082031 52.808594 46.855469 54.550781 48.597656 55.324219 L 55.367188 58.226562 L 55.367188 73.507812 Z M 54.789062 73.507812 "/></g></svg>