<svg xmlns="http://www.w3.org/2000/svg" xmlns:xlink="http://www.w3.org/1999/xlink" width="200" zoomAndPan="magnify" viewBox="0 0 150 157.92" height="200" preserveAspectRatio="xMidYMid meet" version="1.2"><defs><clipPath id="c4fd410f9b"><path d="M 0.0390625 4.871094 L 149.960938 4.871094 L 149.960938 145 L 0.0390625 145 Z M 0.0390625 4.871094 "/></clipPath></defs><g id="59acc36bee"><g clip-rule="nonzero" clip-path="url(#c4fd410f9b)"><path style=" stroke:none;fill-rule:evenodd;fill:#ffa800;fill-opacity:1;" d="M 54.640625 29.433594 L 54.640625 54.304688 L 95.402344 54.304688 L 95.402344 29.433594 Z M 96.390625 25.507812 L 100.316406 25.507812 L 100.316406 8.882812 L 135.476562 8.882812 C 136.558594 8.882812 137.429688 8.003906 137.429688 6.921875 C 137.429688 5.835938 136.558594 4.957031 135.476562 4.957031 L 14.582031 4.957031 C 13.5 4.957031 12.617188 5.835938 12.617188 6.921875 C 12.617188 8.003906 13.5 8.882812 14.582031 8.882812 L 49.734375 8.882812 L 49.734375 25.507812 Z M 149.964844 136.589844 L 0.0429688 136.589844 L 0.0429688 144.953125 L 149.964844 144.953125 Z M 134.554688 92.652344 L 102.320312 123.1875 C 101.53125 123.929688 101.5 125.171875 102.246094 125.960938 C 102.632812 126.371094 103.152344 126.574219 103.671875 126.574219 C 104.15625 126.574219 104.640625 126.394531 105.019531 126.035156 L 137.253906 95.503906 C 138.042969 94.757812 138.070312 93.511719 137.320312 92.726562 C 136.582031 91.9375 135.34375 91.90625 134.554688 92.652344 Z M 123.996094 69.257812 C 124.550781 68.324219 125.753906 68.011719 126.6875 68.5625 C 127.621094 69.117188 127.933594 70.320312 127.382812 71.253906 L 95.46875 125.289062 C 95.101562 125.90625 94.449219 126.253906 93.777344 126.253906 C 93.4375 126.253906 93.09375 126.164062 92.78125 125.980469 C 91.84375 125.429688 91.539062 124.222656 92.085938 123.289062 Z M 47.582031 123.1875 L 15.355469 92.652344 C 14.566406 91.90625 13.320312 91.9375 12.574219 92.726562 C 11.828125 93.511719 11.863281 94.757812 12.652344 95.503906 L 44.882812 126.035156 C 45.261719 126.394531 45.746094 126.574219 46.230469 126.574219 C 46.75 126.574219 47.269531 126.367188 47.65625 125.960938 C 48.398438 125.171875 48.371094 123.929688 47.582031 123.1875 Z M 58.613281 123.292969 C 59.167969 124.222656 58.855469 125.429688 57.921875 125.980469 C 57.609375 126.167969 57.265625 126.257812 56.925781 126.257812 C 56.253906 126.257812 55.597656 125.910156 55.230469 125.292969 L 23.320312 71.257812 C 22.769531 70.324219 23.078125 69.117188 24.011719 68.566406 C 24.945312 68.015625 26.148438 68.324219 26.703125 69.257812 Z M 79.214844 129.140625 L 73.695312 133.175781 L 75.941406 135.441406 Z M 79.214844 116.6875 L 79.214844 124.304688 L 70.796875 130.347656 L 70.796875 122.734375 Z M 79.214844 104.238281 L 70.796875 110.285156 L 70.796875 117.898438 L 79.214844 111.855469 Z M 79.214844 91.789062 L 79.214844 99.402344 L 70.796875 105.449219 L 70.796875 97.832031 Z M 75.078125 89.925781 L 70.796875 89.925781 L 70.796875 93 Z M 99.785156 58.230469 L 50.265625 58.230469 L 50.265625 70.113281 L 88.667969 70.113281 C 89.75 70.113281 90.628906 70.996094 90.628906 72.078125 C 90.628906 73.160156 89.75 74.042969 88.667969 74.042969 L 51.773438 74.042969 L 58.949219 85.996094 L 91.101562 85.996094 L 99.785156 71.535156 Z M 99.785156 58.230469 "/></g></g></svg>