<svg xmlns="http://www.w3.org/2000/svg" xmlns:xlink="http://www.w3.org/1999/xlink" width="200" zoomAndPan="magnify" viewBox="0 0 150 157.92" height="200" preserveAspectRatio="xMidYMid meet" version="1.2"><defs><clipPath id="50ac59f6cf"><path d="M 17.371094 121 L 104 121 L 104 149.925781 L 17.371094 149.925781 Z M 17.371094 121 "/></clipPath><clipPath id="358da5843d"><path d="M 124 69 L 132.816406 69 L 132.816406 86 L 124 86 Z M 124 69 "/></clipPath></defs><g id="5f9656494e"><path style=" stroke:none;fill-rule:nonzero;fill:#ffa800;fill-opacity:1;" d="M 88.734375 41.421875 C 88.734375 39.03125 86.796875 37.089844 84.402344 37.089844 L 36.171875 37.089844 C 33.777344 37.089844 31.839844 39.03125 31.839844 41.421875 L 31.839844 65.945312 L 88.734375 65.945312 L 88.734375 41.421875 "/><g clip-rule="nonzero" clip-path="url(#50ac59f6cf)"><path style=" stroke:none;fill-rule:nonzero;fill:#ffa800;fill-opacity:1;" d="M 96.207031 121.851562 L 24.367188 121.851562 L 20.238281 127.941406 C 18.414062 130.628906 17.441406 133.808594 17.441406 137.058594 L 17.441406 147.707031 C 17.441406 148.933594 18.433594 149.925781 19.65625 149.925781 L 100.917969 149.925781 C 102.140625 149.925781 103.132812 148.933594 103.132812 147.707031 L 103.132812 137.058594 C 103.132812 133.808594 102.160156 130.628906 100.335938 127.941406 L 96.207031 121.851562 "/></g><path style=" stroke:none;fill-rule:nonzero;fill:#ffa800;fill-opacity:1;" d="M 70.511719 5.515625 C 70.511719 2.46875 68.042969 0 64.996094 0 L 55.578125 0 C 52.53125 0 50.0625 2.46875 50.0625 5.515625 L 50.0625 33.398438 L 70.511719 33.398438 L 70.511719 5.515625 "/><path style=" stroke:none;fill-rule:nonzero;fill:#ffa800;fill-opacity:1;" d="M 106.828125 118.15625 C 117.675781 118.15625 126.46875 109.363281 126.46875 98.515625 L 126.46875 88.851562 L 106.828125 88.851562 L 106.828125 118.15625 "/><path style=" stroke:none;fill-rule:nonzero;fill:#ffa800;fill-opacity:1;" d="M 103.265625 85.65625 L 109.050781 85.65625 L 109.050781 69.640625 L 103.265625 69.640625 C 101.882812 69.640625 100.761719 70.761719 100.761719 72.148438 L 100.761719 83.148438 C 100.761719 84.535156 101.882812 85.65625 103.265625 85.65625 "/><path style=" stroke:none;fill-rule:nonzero;fill:#ffa800;fill-opacity:1;" d="M 122.402344 85.65625 L 122.402344 69.640625 L 110.894531 69.640625 L 110.894531 85.65625 L 122.402344 85.65625 "/><g clip-rule="nonzero" clip-path="url(#358da5843d)"><path style=" stroke:none;fill-rule:nonzero;fill:#ffa800;fill-opacity:1;" d="M 130.027344 69.640625 L 124.25 69.640625 L 124.25 85.65625 L 130.027344 85.65625 C 131.414062 85.65625 132.535156 84.535156 132.535156 83.148438 L 132.535156 72.148438 C 132.535156 70.761719 131.414062 69.640625 130.027344 69.640625 "/></g><path style=" stroke:none;fill-rule:nonzero;fill:#ffa800;fill-opacity:1;" d="M 122.691406 48.320312 L 110.605469 48.320312 L 109.375 66.441406 L 123.921875 66.441406 L 122.691406 48.320312 "/><path style=" stroke:none;fill-rule:nonzero;fill:#ffa800;fill-opacity:1;" d="M 112.0625 43.105469 L 112.632812 43.105469 L 112.632812 45.128906 L 120.664062 45.128906 L 120.664062 43.105469 L 121.234375 43.105469 C 121.421875 43.105469 121.574219 42.953125 121.574219 42.765625 L 121.574219 42.273438 C 121.574219 42.085938 121.421875 41.933594 121.234375 41.933594 L 120.664062 41.933594 L 120.664062 39.828125 L 121.234375 39.828125 C 121.421875 39.828125 121.574219 39.675781 121.574219 39.488281 L 121.574219 38.996094 C 121.574219 38.808594 121.421875 38.65625 121.234375 38.65625 L 120.664062 38.65625 L 120.664062 36.546875 L 121.234375 36.546875 C 121.421875 36.546875 121.574219 36.398438 121.574219 36.210938 L 121.574219 35.71875 C 121.574219 35.53125 121.421875 35.378906 121.234375 35.378906 L 120.664062 35.378906 L 120.664062 33.269531 L 121.234375 33.269531 C 121.421875 33.269531 121.574219 33.117188 121.574219 32.933594 L 121.574219 32.4375 C 121.574219 32.253906 121.421875 32.101562 121.234375 32.101562 L 120.664062 32.101562 L 120.664062 30.078125 L 112.632812 30.078125 L 112.632812 32.101562 L 112.0625 32.101562 C 111.875 32.101562 111.722656 32.253906 111.722656 32.4375 L 111.722656 32.933594 C 111.722656 33.117188 111.875 33.269531 112.0625 33.269531 L 112.632812 33.269531 L 112.632812 35.378906 L 112.0625 35.378906 C 111.875 35.378906 111.722656 35.53125 111.722656 35.71875 L 111.722656 36.210938 C 111.722656 36.398438 111.875 36.546875 112.0625 36.546875 L 112.632812 36.546875 L 112.632812 38.65625 L 112.0625 38.65625 C 111.875 38.65625 111.722656 38.808594 111.722656 38.996094 L 111.722656 39.488281 C 111.722656 39.675781 111.875 39.828125 112.0625 39.828125 L 112.632812 39.828125 L 112.632812 41.933594 L 112.0625 41.933594 C 111.875 41.933594 111.722656 42.085938 111.722656 42.273438 L 111.722656 42.765625 C 111.722656 42.953125 111.875 43.105469 112.0625 43.105469 "/><path style=" stroke:none;fill-rule:nonzero;fill:#ffa800;fill-opacity:1;" d="M 68.175781 103.761719 C 67.636719 105.378906 66.574219 106.757812 65.128906 107.671875 C 63.644531 108.613281 61.957031 109.101562 60.289062 109.117188 C 58.617188 109.101562 56.929688 108.613281 55.445312 107.671875 C 54.003906 106.757812 52.941406 105.378906 52.398438 103.761719 C 50.882812 99.257812 53.328125 95.308594 55.488281 91.539062 C 57.761719 87.566406 60.101562 83.335938 60.289062 78.679688 C 60.472656 83.335938 62.8125 87.566406 65.085938 91.539062 C 67.25 95.308594 69.691406 99.257812 68.175781 103.761719 Z M 95.171875 91.59375 L 88.734375 69.640625 L 31.839844 69.640625 L 25.402344 91.59375 C 24.714844 93.941406 24.367188 96.371094 24.367188 98.8125 L 24.367188 118.15625 L 103.308594 118.15625 L 103.308594 98.8125 L 96.207031 98.8125 C 96.207031 96.371094 95.859375 93.941406 95.171875 91.59375 "/></g></svg>