<svg xmlns="http://www.w3.org/2000/svg" xmlns:xlink="http://www.w3.org/1999/xlink" width="200" zoomAndPan="magnify" viewBox="0 0 150 157.92" height="200" preserveAspectRatio="xMidYMid meet" version="1.2"><defs><clipPath id="4117e83389"><path d="M 0.0390625 17.148438 L 105 17.148438 L 105 132.589844 L 0.0390625 132.589844 Z M 0.0390625 17.148438 "/></clipPath></defs><g id="9c60439b2b"><path style=" stroke:none;fill-rule:nonzero;fill:#ffa800;fill-opacity:1;" d="M 50.308594 48.347656 C 50.933594 48.972656 51.867188 49.285156 52.804688 49.285156 C 53.738281 49.285156 54.519531 48.972656 55.300781 48.347656 C 56.703125 46.945312 56.703125 44.761719 55.300781 43.511719 L 45.785156 33.996094 C 44.378906 32.589844 42.195312 32.589844 40.949219 33.996094 C 39.542969 35.398438 39.542969 37.582031 40.949219 38.832031 Z M 50.308594 48.347656 "/><g clip-rule="nonzero" clip-path="url(#4117e83389)"><path style=" stroke:none;fill-rule:nonzero;fill:#ffa800;fill-opacity:1;" d="M 95.082031 91.40625 C 96.953125 89.53125 99.136719 88.285156 101.632812 87.972656 L 104.753906 59.113281 C 105.222656 54.898438 103.816406 50.6875 101.007812 47.566406 C 98.199219 44.449219 94.144531 42.574219 89.933594 42.574219 L 81.351562 42.574219 C 79.636719 28.222656 67.46875 17.148438 52.804688 17.148438 C 38.140625 17.148438 25.972656 28.222656 24.253906 42.417969 L 15.519531 42.417969 C 11.308594 42.417969 7.25 44.136719 4.445312 47.410156 C 1.636719 50.53125 0.230469 54.742188 0.699219 58.957031 L 7.09375 119.328125 C 7.875 126.972656 14.273438 132.589844 21.914062 132.589844 L 83.378906 132.589844 C 91.023438 132.589844 97.421875 126.816406 98.199219 119.328125 L 98.824219 112.933594 L 95.082031 109.03125 C 90.246094 104.195312 90.246094 96.085938 95.082031 91.40625 Z M 33.773438 42.417969 L 31.121094 42.417969 C 32.679688 33.058594 39.855469 25.726562 49.214844 24.324219 L 49.214844 26.976562 C 49.214844 28.847656 50.777344 30.40625 52.648438 30.40625 C 54.519531 30.40625 56.082031 28.847656 56.082031 26.976562 L 56.082031 24.324219 C 59.511719 24.792969 62.789062 26.195312 65.441406 28.222656 L 63.566406 30.097656 C 62.164062 31.5 62.164062 33.683594 63.566406 34.933594 C 64.191406 35.554688 65.128906 36.023438 65.910156 36.023438 C 66.6875 36.023438 67.625 35.710938 68.40625 34.933594 L 70.277344 33.058594 C 72.304688 35.710938 73.550781 38.988281 74.175781 42.417969 L 71.679688 42.417969 C 69.808594 42.417969 68.25 43.980469 68.25 45.851562 C 68.25 47.722656 69.808594 49.285156 71.679688 49.285156 L 74.332031 49.285156 C 73.707031 52.714844 72.460938 55.992188 70.433594 58.644531 L 68.558594 56.929688 C 67.15625 55.523438 64.972656 55.523438 63.722656 56.929688 C 62.320312 58.332031 62.320312 60.515625 63.722656 61.765625 L 65.597656 63.636719 C 62.789062 65.664062 59.667969 66.914062 56.234375 67.535156 L 56.234375 64.882812 C 56.234375 63.011719 54.675781 61.453125 52.804688 61.453125 C 50.933594 61.453125 49.371094 63.011719 49.371094 64.882812 L 49.371094 67.535156 C 45.941406 66.914062 42.664062 65.664062 40.011719 63.636719 L 41.882812 61.765625 C 43.289062 60.359375 43.289062 58.175781 41.882812 56.929688 C 40.480469 55.523438 38.296875 55.523438 37.046875 56.929688 L 35.175781 58.800781 C 33.148438 55.992188 31.898438 52.871094 31.277344 49.441406 L 33.929688 49.441406 C 35.800781 49.441406 37.359375 47.878906 37.359375 46.007812 C 37.203125 43.980469 35.644531 42.417969 33.773438 42.417969 Z M 69.964844 112.933594 L 35.644531 112.933594 C 33.773438 112.933594 32.210938 111.371094 32.210938 109.5 C 32.210938 107.628906 33.773438 106.070312 35.644531 106.070312 L 69.964844 106.070312 C 71.835938 106.070312 73.394531 107.628906 73.394531 109.5 C 73.394531 111.371094 71.835938 112.933594 69.964844 112.933594 Z M 74.488281 94.367188 L 31.121094 94.367188 C 29.246094 94.367188 27.6875 92.808594 27.6875 90.9375 C 27.6875 89.066406 29.246094 87.503906 31.121094 87.503906 L 74.488281 87.503906 C 76.359375 87.503906 77.921875 89.066406 77.921875 90.9375 C 77.921875 92.808594 76.359375 94.367188 74.488281 94.367188 Z M 74.488281 94.367188 "/></g><path style=" stroke:none;fill-rule:nonzero;fill:#ffa800;fill-opacity:1;" d="M 147.183594 95.929688 C 146.09375 94.835938 144.535156 94.210938 142.972656 94.210938 C 141.414062 94.210938 139.851562 94.835938 138.761719 95.929688 L 129.402344 105.132812 L 129.402344 57.863281 C 129.402344 54.589844 126.75 51.78125 123.316406 51.78125 C 119.886719 51.78125 117.234375 54.433594 117.234375 57.863281 L 117.234375 105.132812 L 108.027344 95.929688 C 106.9375 94.835938 105.375 94.210938 103.816406 94.210938 C 102.257812 94.210938 100.695312 94.835938 99.605469 95.929688 C 97.265625 98.269531 97.265625 102.167969 99.605469 104.507812 L 119.105469 124.007812 C 120.195312 125.101562 121.757812 125.726562 123.316406 125.726562 C 124.878906 125.726562 126.4375 125.101562 127.527344 124.007812 L 147.03125 104.507812 C 149.527344 102.011719 149.527344 98.269531 147.183594 95.929688 Z M 147.183594 95.929688 "/></g></svg>