<svg xmlns="http://www.w3.org/2000/svg" xmlns:xlink="http://www.w3.org/1999/xlink" width="200" zoomAndPan="magnify" viewBox="0 0 150 157.92" height="200" preserveAspectRatio="xMidYMid meet" version="1.2"><defs><clipPath id="017d5af14f"><path d="M 56 127 L 88 127 L 88 149.925781 L 56 149.925781 Z M 56 127 "/></clipPath><clipPath id="416e4d4eba"><path d="M 125 64 L 138.765625 64 L 138.765625 70 L 125 70 Z M 125 64 "/></clipPath><clipPath id="ab87870876"><path d="M 6.183594 64 L 20 64 L 20 70 L 6.183594 70 Z M 6.183594 64 "/></clipPath></defs><g id="88002709dc"><g clip-rule="nonzero" clip-path="url(#017d5af14f)"><path style=" stroke:none;fill-rule:nonzero;fill:#ffa800;fill-opacity:1;" d="M 80.339844 147.285156 C 81.039062 144.265625 83.125 142.417969 85.683594 142.417969 C 87.066406 142.417969 87.992188 141.257812 87.992188 140.097656 L 87.992188 129.441406 C 87.992188 128.042969 87.066406 127.121094 85.683594 127.121094 L 59.03125 127.121094 C 57.632812 127.121094 56.707031 128.042969 56.707031 129.441406 L 56.707031 140.097656 C 56.707031 141.257812 57.632812 142.417969 59.03125 142.417969 C 61.574219 142.417969 63.660156 144.265625 64.582031 147.285156 C 64.820312 148.207031 65.742188 149.132812 66.902344 149.132812 L 78.257812 149.132812 C 79.179688 148.894531 80.117188 148.207031 80.339844 147.285156 "/></g><path style=" stroke:none;fill-rule:nonzero;fill:#ffa800;fill-opacity:1;" d="M 105.609375 124.101562 C 106.757812 123.414062 106.996094 122.015625 106.53125 120.855469 L 101.890625 112.984375 C 101.207031 111.824219 99.808594 111.597656 98.648438 112.058594 C 97.5 112.746094 97.261719 114.144531 97.722656 115.289062 L 102.367188 123.175781 C 103.050781 124.574219 104.449219 124.800781 105.609375 124.101562 "/><path style=" stroke:none;fill-rule:nonzero;fill:#ffa800;fill-opacity:1;" d="M 129.941406 100.007812 C 130.640625 98.84375 130.179688 97.449219 129.019531 96.75 L 121.132812 92.121094 C 119.972656 91.421875 118.585938 91.882812 117.886719 93.054688 C 117.1875 94.203125 117.664062 95.601562 118.8125 96.285156 L 126.699219 100.929688 C 127.859375 101.390625 129.242188 101.152344 129.941406 100.007812 "/><g clip-rule="nonzero" clip-path="url(#416e4d4eba)"><path style=" stroke:none;fill-rule:nonzero;fill:#ffa800;fill-opacity:1;" d="M 138.75 66.863281 C 138.75 65.464844 137.816406 64.542969 136.429688 64.542969 L 127.398438 64.542969 C 126 64.542969 125.074219 65.464844 125.074219 66.863281 C 125.074219 68.25 126 69.183594 127.398438 69.183594 L 136.429688 69.183594 C 137.589844 69.183594 138.75 68.023438 138.75 66.863281 "/></g><path style=" stroke:none;fill-rule:nonzero;fill:#ffa800;fill-opacity:1;" d="M 121.132812 41.371094 L 129.003906 36.730469 C 130.167969 36.042969 130.402344 34.644531 129.941406 33.484375 C 129.242188 32.335938 127.859375 32.101562 126.699219 32.5625 L 118.8125 37.191406 C 117.652344 37.890625 117.425781 39.289062 117.886719 40.433594 C 118.585938 41.609375 119.972656 42.070312 121.132812 41.371094 "/><path style=" stroke:none;fill-rule:nonzero;fill:#ffa800;fill-opacity:1;" d="M 101.902344 20.507812 L 106.53125 12.636719 C 107.230469 11.472656 106.769531 10.089844 105.609375 9.390625 C 104.449219 8.691406 103.050781 9.152344 102.367188 10.3125 L 97.722656 18.199219 C 97.039062 19.347656 97.5 20.746094 98.660156 21.429688 C 99.808594 21.90625 101.207031 21.667969 101.902344 20.507812 "/><path style=" stroke:none;fill-rule:nonzero;fill:#ffa800;fill-opacity:1;" d="M 74.777344 11.9375 L 74.777344 2.902344 C 74.777344 1.503906 73.851562 0.582031 72.46875 0.582031 C 71.070312 0.582031 70.148438 1.503906 70.148438 2.902344 L 70.148438 11.9375 C 70.148438 13.332031 71.070312 14.257812 72.46875 14.257812 C 73.851562 14.257812 74.777344 13.332031 74.777344 11.9375 "/><path style=" stroke:none;fill-rule:nonzero;fill:#ffa800;fill-opacity:1;" d="M 46.277344 21.429688 C 47.4375 20.746094 47.660156 19.347656 47.214844 18.199219 L 42.570312 10.3125 C 41.871094 9.152344 40.488281 8.929688 39.328125 9.390625 C 38.164062 10.089844 37.941406 11.472656 38.402344 12.636719 L 43.03125 20.507812 C 43.730469 21.667969 45.117188 21.90625 46.277344 21.429688 "/><path style=" stroke:none;fill-rule:nonzero;fill:#ffa800;fill-opacity:1;" d="M 26.113281 37.429688 L 18.238281 32.785156 C 17.078125 32.101562 15.679688 32.5625 14.996094 33.722656 C 14.296875 34.882812 14.757812 36.269531 15.917969 36.96875 L 23.804688 41.597656 C 24.953125 42.292969 26.347656 41.832031 27.046875 40.671875 C 27.511719 39.511719 27.273438 38.128906 26.113281 37.429688 "/><g clip-rule="nonzero" clip-path="url(#ab87870876)"><path style=" stroke:none;fill-rule:nonzero;fill:#ffa800;fill-opacity:1;" d="M 6.183594 66.863281 C 6.183594 68.25 7.109375 69.183594 8.507812 69.183594 L 17.539062 69.183594 C 18.925781 69.183594 19.859375 68.25 19.859375 66.863281 C 19.859375 65.464844 18.925781 64.542969 17.539062 64.542969 L 8.507812 64.542969 C 7.34375 64.542969 6.183594 65.464844 6.183594 66.863281 "/></g><path style=" stroke:none;fill-rule:nonzero;fill:#ffa800;fill-opacity:1;" d="M 23.804688 92.355469 L 15.917969 96.984375 C 14.757812 97.683594 14.53125 99.070312 14.996094 100.230469 C 15.695312 101.390625 17.078125 101.613281 18.238281 101.152344 L 26.113281 96.523438 C 27.273438 95.824219 27.511719 94.441406 27.046875 93.28125 C 26.347656 91.882812 24.964844 91.65625 23.804688 92.355469 "/><path style=" stroke:none;fill-rule:nonzero;fill:#ffa800;fill-opacity:1;" d="M 46.277344 112.285156 C 45.117188 111.585938 43.730469 112.058594 43.03125 113.207031 L 38.402344 121.09375 C 37.703125 122.253906 38.164062 123.640625 39.328125 124.339844 C 40.488281 125.035156 41.871094 124.5625 42.570312 123.414062 L 47.214844 115.527344 C 47.660156 114.367188 47.214844 112.984375 46.277344 112.285156 "/><path style=" stroke:none;fill-rule:nonzero;fill:#ffa800;fill-opacity:1;" d="M 75.9375 68.710938 C 75.9375 70.636719 74.378906 72.191406 72.46875 72.191406 C 70.542969 72.191406 68.988281 70.636719 68.988281 68.710938 C 68.988281 66.796875 70.542969 65.242188 72.46875 65.242188 C 74.378906 65.242188 75.9375 66.796875 75.9375 68.710938 "/><path style=" stroke:none;fill-rule:nonzero;fill:#ffa800;fill-opacity:1;" d="M 92.855469 49.480469 C 92.855469 51.394531 91.300781 52.964844 89.386719 52.964844 C 87.464844 52.964844 85.90625 51.394531 85.90625 49.480469 C 85.90625 47.558594 87.464844 46 89.386719 46 C 91.300781 46 92.855469 47.558594 92.855469 49.480469 "/><path style=" stroke:none;fill-rule:nonzero;fill:#ffa800;fill-opacity:1;" d="M 56.707031 58.292969 C 56.707031 60.203125 55.152344 61.761719 53.226562 61.761719 C 51.316406 61.761719 49.757812 60.203125 49.757812 58.292969 C 49.757812 56.367188 51.316406 54.808594 53.226562 54.808594 C 55.152344 54.808594 56.707031 56.367188 56.707031 58.292969 "/><path style=" stroke:none;fill-rule:nonzero;fill:#ffa800;fill-opacity:1;" d="M 43.03125 101.390625 C 50.679688 107.878906 55.546875 114.828125 57.867188 122.476562 L 70.148438 122.476562 L 70.148438 109.964844 L 51.605469 92.121094 C 51.144531 91.65625 50.917969 90.972656 50.917969 90.496094 L 50.917969 66.164062 C 47.660156 65.242188 45.117188 61.996094 45.117188 58.515625 C 45.117188 54.113281 48.820312 50.40625 53.226562 50.40625 C 57.632812 50.40625 61.335938 54.113281 61.335938 58.515625 C 61.335938 62.222656 58.792969 65.242188 55.546875 66.164062 L 55.546875 89.335938 L 70.148438 103.472656 L 70.148438 76.597656 C 66.902344 75.660156 64.359375 72.429688 64.359375 68.949219 C 64.359375 64.542969 68.0625 60.835938 72.46875 60.835938 C 76.875 60.835938 80.578125 64.542969 80.578125 68.949219 C 80.578125 72.652344 78.019531 75.660156 74.777344 76.597656 L 74.777344 90.496094 L 87.066406 84.46875 L 87.066406 57.355469 C 83.824219 56.433594 81.277344 53.1875 81.277344 49.707031 C 81.277344 45.300781 84.984375 41.597656 89.386719 41.597656 C 93.78125 41.597656 97.5 45.300781 97.5 49.707031 C 97.5 53.425781 94.941406 56.433594 91.695312 57.355469 L 91.695312 86.09375 C 91.695312 87.015625 91.234375 87.714844 90.3125 88.191406 L 74.777344 95.601562 L 74.777344 122.253906 L 87.066406 122.253906 C 89.386719 114.605469 94.480469 107.65625 102.128906 101.152344 C 112.785156 91.65625 118.351562 77.746094 116.726562 63.382812 C 114.644531 42.757812 98.183594 26.296875 77.558594 23.988281 C 75.9375 23.753906 74.089844 23.753906 72.46875 23.753906 C 47.898438 23.753906 28.195312 43.691406 28.195312 68.25 C 27.972656 80.765625 33.535156 92.820312 43.03125 101.390625 "/></g></svg>