<svg xmlns="http://www.w3.org/2000/svg" xmlns:xlink="http://www.w3.org/1999/xlink" width="200" zoomAndPan="magnify" viewBox="0 0 150 157.92" height="200" preserveAspectRatio="xMidYMid meet" version="1.2"><defs><clipPath id="07755e3225"><path d="M 0.0390625 115 L 11 115 L 11 145 L 0.0390625 145 Z M 0.0390625 115 "/></clipPath><clipPath id="899081203f"><path d="M 139 5 L 149.960938 5 L 149.960938 35 L 139 35 Z M 139 5 "/></clipPath><clipPath id="788c555c3b"><path d="M 16 107 L 128 107 L 128 149.925781 L 16 149.925781 Z M 16 107 "/></clipPath></defs><g id="c3f397d5da"><path style=" stroke:none;fill-rule:nonzero;fill:#ffa800;fill-opacity:1;" d="M 101.773438 85.671875 L 96.417969 88.347656 L 96.417969 104.410156 L 85.707031 104.410156 L 85.707031 88.347656 L 80.355469 85.671875 L 80.355469 75.59375 C 80.355469 73.566406 81.5 71.710938 83.3125 70.804688 L 91.0625 66.929688 L 88.667969 65.734375 C 86.855469 64.824219 85.707031 62.972656 85.707031 60.941406 L 85.707031 59.53125 C 85.707031 57.503906 86.855469 55.648438 88.667969 54.742188 C 90.175781 53.988281 91.949219 53.988281 93.457031 54.742188 C 95.269531 55.648438 96.417969 57.503906 96.417969 59.53125 L 96.417969 60.941406 C 96.417969 62.972656 95.269531 64.824219 93.457031 65.734375 L 91.0625 66.929688 L 98.8125 70.804688 C 100.625 71.710938 101.773438 73.566406 101.773438 75.59375 Z M 69.644531 82.992188 L 58.9375 82.992188 L 58.9375 93.703125 L 48.226562 93.703125 L 48.226562 82.992188 L 37.519531 82.992188 L 37.519531 72.285156 L 48.226562 72.285156 L 48.226562 61.574219 L 58.9375 61.574219 L 58.9375 72.285156 L 69.644531 72.285156 Z M 125.09375 44.644531 L 119.425781 46.773438 C 117.308594 47.566406 115.105469 47.964844 112.867188 47.964844 C 112.386719 47.964844 111.902344 47.945312 111.414062 47.910156 C 105.117188 47.429688 94.054688 46.578125 86.902344 46.042969 L 75 58.347656 L 62.949219 45.886719 C 57.773438 40.539062 50.550781 37.480469 43.097656 37.480469 C 43.019531 37.480469 42.941406 37.480469 42.863281 37.480469 C 39.230469 37.515625 35.742188 38.25 32.546875 39.617188 L 32.289062 39.726562 C 29.097656 41.132812 26.203125 43.175781 23.761719 45.792969 C 18.765625 51.140625 16.042969 58.195312 16.101562 65.65625 C 16.160156 73.121094 19.003906 80.136719 24.101562 85.410156 L 40.285156 102.144531 C 47.382812 102.6875 58.585938 103.542969 64.996094 104.023438 C 69.003906 104.320312 72.429688 106.839844 73.933594 110.597656 L 73.996094 110.753906 C 75.160156 113.671875 74.945312 116.917969 73.398438 119.652344 C 71.851562 122.390625 69.1875 124.25 66.085938 124.753906 L 58.148438 126.050781 L 66.484375 129.601562 C 68.492188 130.460938 70.792969 130.457031 72.796875 129.597656 L 90.523438 122 L 125.898438 85.410156 C 130.996094 80.136719 133.839844 73.121094 133.898438 65.65625 C 133.957031 58.195312 131.234375 51.140625 126.238281 45.792969 C 125.871094 45.394531 125.488281 45.015625 125.09375 44.644531 "/><g clip-rule="nonzero" clip-path="url(#07755e3225)"><path style=" stroke:none;fill-rule:nonzero;fill:#ffa800;fill-opacity:1;" d="M 0.0390625 144.570312 L 10.746094 144.570312 L 10.746094 115.121094 L 0.0390625 115.121094 L 0.0390625 144.570312 "/></g><path style=" stroke:none;fill-rule:nonzero;fill:#ffa800;fill-opacity:1;" d="M 125.632812 4.394531 L 116.078125 0.574219 C 115.125 0.195312 114.121094 0 113.09375 0 L 72.613281 0 C 71.15625 0 69.726562 0.394531 68.480469 1.144531 L 24.269531 27.671875 C 23.171875 28.328125 22.433594 29.382812 22.183594 30.640625 C 21.9375 31.898438 22.226562 33.15625 22.996094 34.179688 C 24.238281 35.835938 26.4375 36.421875 28.339844 35.601562 L 29.808594 34.96875 C 30.199219 34.789062 30.59375 34.617188 30.988281 34.457031 L 80.347656 13.152344 L 101.726562 22.261719 L 106.695312 21.453125 L 107.558594 26.738281 L 84.777344 30.453125 C 83.285156 30.695312 82.003906 31.589844 81.261719 32.90625 C 80.519531 34.222656 80.414062 35.777344 80.976562 37.179688 L 81.039062 37.335938 C 81.773438 39.179688 83.449219 40.414062 85.402344 40.5625 C 92.351562 41.078125 104.941406 42.042969 111.824219 42.570312 C 113.78125 42.722656 115.707031 42.449219 117.546875 41.757812 L 133.898438 35.625 L 133.898438 5.355469 L 130.605469 5.355469 C 128.894531 5.355469 127.222656 5.03125 125.632812 4.394531 "/><g clip-rule="nonzero" clip-path="url(#899081203f)"><path style=" stroke:none;fill-rule:nonzero;fill:#ffa800;fill-opacity:1;" d="M 139.253906 5.355469 L 139.253906 34.804688 L 149.960938 34.804688 L 149.960938 5.355469 L 139.253906 5.355469 "/></g><g clip-rule="nonzero" clip-path="url(#788c555c3b)"><path style=" stroke:none;fill-rule:nonzero;fill:#ffa800;fill-opacity:1;" d="M 121.820312 114.414062 L 74.90625 134.519531 C 71.566406 135.949219 67.730469 135.953125 64.386719 134.527344 L 48.273438 127.660156 L 43.304688 128.472656 L 42.441406 123.1875 L 65.222656 119.472656 C 66.714844 119.226562 67.996094 118.332031 68.738281 117.019531 C 69.480469 115.703125 69.585938 114.144531 69.023438 112.742188 L 68.960938 112.585938 C 68.222656 110.742188 66.550781 109.507812 64.597656 109.363281 C 57.648438 108.84375 45.058594 107.878906 38.175781 107.351562 C 36.21875 107.203125 34.292969 107.476562 32.453125 108.164062 L 16.101562 114.296875 L 16.101562 144.570312 L 19.394531 144.570312 C 21.105469 144.570312 22.777344 144.890625 24.367188 145.527344 L 33.921875 149.347656 C 34.875 149.730469 35.878906 149.925781 36.90625 149.925781 L 77.386719 149.925781 C 78.84375 149.925781 80.273438 149.527344 81.519531 148.78125 L 125.804688 122.210938 C 126.882812 121.5625 127.609375 120.523438 127.851562 119.289062 C 128.09375 118.054688 127.8125 116.820312 127.058594 115.8125 C 125.839844 114.191406 123.683594 113.613281 121.820312 114.414062 "/></g></g></svg>