<svg xmlns="http://www.w3.org/2000/svg" xmlns:xlink="http://www.w3.org/1999/xlink" width="200" zoomAndPan="magnify" viewBox="0 0 150 157.92" height="200" preserveAspectRatio="xMidYMid meet" version="1.2"><defs><clipPath id="1a729f5609"><path d="M 0.0390625 2.53125 L 149.960938 2.53125 L 149.960938 147 L 0.0390625 147 Z M 0.0390625 2.53125 "/></clipPath></defs><g id="fd0f09f1f1"><g clip-rule="nonzero" clip-path="url(#1a729f5609)"><path style=" stroke:none;fill-rule:evenodd;fill:#ffa800;fill-opacity:1;" d="M 24.527344 42.324219 L 12.277344 21.101562 L 0.0273438 42.320312 L 6.054688 42.320312 C 7.15625 42.320312 8.054688 43.214844 8.054688 44.320312 L 8.054688 71.253906 L 16.503906 71.253906 L 16.503906 44.320312 C 16.503906 43.214844 17.402344 42.320312 18.503906 42.320312 L 24.527344 42.320312 Z M 62.390625 142.347656 L 45.992188 142.347656 L 48.449219 145.378906 C 49.480469 146.304688 52.601562 147.132812 55.746094 146.921875 C 58.144531 146.765625 59.480469 146.09375 59.925781 145.511719 Z M 64.476562 134.648438 L 43.792969 134.648438 L 43.792969 138.34375 L 64.476562 138.34375 Z M 64.476562 126.957031 L 43.792969 126.957031 L 43.792969 130.652344 L 64.476562 130.652344 Z M 64.503906 53.65625 C 65.238281 53.898438 65.960938 54.164062 66.667969 54.457031 L 66.667969 52.5625 C 65.933594 52.902344 65.210938 53.265625 64.503906 53.65625 Z M 59.949219 85.714844 C 59.949219 82.507812 57.339844 79.898438 54.132812 79.898438 C 50.925781 79.898438 48.316406 82.507812 48.316406 85.714844 C 48.316406 88.921875 50.925781 91.53125 54.132812 91.53125 C 57.34375 91.53125 59.949219 88.921875 59.949219 85.714844 Z M 58.605469 72.101562 C 59.285156 72.324219 59.957031 72.601562 60.59375 72.925781 C 61.953125 73.613281 63.585938 73.351562 64.664062 72.273438 L 66.914062 70.023438 L 69.824219 72.933594 L 67.574219 75.183594 C 66.496094 76.261719 66.238281 77.898438 66.921875 79.253906 C 67.246094 79.894531 67.523438 80.566406 67.746094 81.246094 C 68.21875 82.691406 69.5625 83.660156 71.082031 83.660156 L 74.265625 83.660156 L 74.265625 87.773438 L 71.082031 87.773438 C 69.5625 87.773438 68.21875 88.746094 67.746094 90.191406 C 67.523438 90.871094 67.246094 91.539062 66.921875 92.179688 C 66.238281 93.535156 66.496094 95.171875 67.574219 96.246094 L 69.824219 98.496094 L 66.914062 101.40625 L 64.664062 99.15625 C 63.585938 98.082031 61.949219 97.820312 60.59375 98.507812 C 59.953125 98.832031 59.285156 99.109375 58.605469 99.332031 C 57.160156 99.804688 56.191406 101.148438 56.191406 102.667969 L 56.191406 105.851562 L 52.078125 105.851562 L 52.078125 102.667969 C 52.078125 101.148438 51.105469 99.804688 49.660156 99.332031 C 48.984375 99.109375 48.3125 98.832031 47.671875 98.507812 C 46.3125 97.816406 44.679688 98.082031 43.605469 99.15625 L 41.355469 101.40625 L 38.445312 98.496094 L 40.695312 96.246094 C 41.773438 95.171875 42.035156 93.535156 41.347656 92.179688 C 41.023438 91.539062 40.746094 90.871094 40.523438 90.191406 C 40.050781 88.746094 38.707031 87.773438 37.1875 87.773438 L 34.003906 87.773438 L 34.003906 83.660156 L 37.1875 83.660156 C 38.710938 83.660156 40.050781 82.691406 40.523438 81.246094 C 40.746094 80.566406 41.023438 79.894531 41.347656 79.257812 C 42.035156 77.902344 41.773438 76.265625 40.695312 75.1875 L 38.445312 72.9375 L 41.355469 70.027344 L 43.605469 72.277344 C 44.683594 73.355469 46.320312 73.613281 47.675781 72.929688 C 48.316406 72.605469 48.984375 72.328125 49.664062 72.105469 C 51.105469 71.628906 52.082031 70.289062 52.082031 68.769531 L 52.082031 65.585938 L 56.195312 65.585938 L 56.195312 68.769531 C 56.191406 70.285156 57.164062 71.625 58.605469 72.101562 Z M 44.316406 85.714844 C 44.316406 80.300781 48.71875 75.898438 54.132812 75.898438 C 59.546875 75.898438 63.949219 80.300781 63.949219 85.714844 C 63.949219 91.128906 59.546875 95.53125 54.132812 95.53125 C 48.722656 95.53125 44.316406 91.128906 44.316406 85.714844 Z M 83.34375 85.203125 C 83.34375 85.21875 83.34375 85.234375 83.34375 85.25 C 83.621094 97.222656 78.203125 103.542969 72.964844 109.65625 C 69.429688 113.78125 66.074219 117.699219 64.816406 122.957031 L 43.445312 122.957031 C 42.191406 117.695312 38.832031 113.777344 35.296875 109.65625 C 30.058594 103.542969 24.636719 97.222656 24.917969 85.25 C 24.917969 85.238281 24.917969 85.222656 24.917969 85.203125 C 24.917969 69.097656 38.019531 55.996094 54.125 55.996094 C 70.238281 55.996094 83.34375 69.097656 83.34375 85.203125 Z M 73 70.449219 C 74.371094 71.820312 74.371094 74.046875 73 75.414062 L 70.648438 77.765625 C 70.945312 78.382812 71.210938 79.015625 71.4375 79.660156 L 74.757812 79.660156 C 76.691406 79.660156 78.269531 81.234375 78.269531 83.167969 L 78.269531 88.257812 C 78.269531 90.195312 76.691406 91.769531 74.757812 91.769531 L 71.4375 91.769531 C 71.210938 92.410156 70.945312 93.042969 70.648438 93.660156 L 73 96.007812 C 74.371094 97.378906 74.371094 99.609375 73 100.972656 L 69.402344 104.574219 C 68.03125 105.945312 65.804688 105.945312 64.4375 104.574219 L 62.085938 102.222656 C 61.46875 102.519531 60.835938 102.785156 60.191406 103.011719 L 60.191406 106.332031 C 60.191406 108.269531 58.617188 109.839844 56.679688 109.839844 L 51.589844 109.839844 C 49.652344 109.839844 48.078125 108.265625 48.078125 106.332031 L 48.078125 103.011719 C 47.433594 102.789062 46.800781 102.519531 46.183594 102.222656 L 43.832031 104.574219 C 42.464844 105.945312 40.238281 105.945312 38.867188 104.574219 L 35.269531 100.972656 C 34.605469 100.3125 34.242188 99.429688 34.242188 98.492188 C 34.242188 97.550781 34.609375 96.671875 35.269531 96.007812 L 37.621094 93.660156 C 37.324219 93.042969 37.058594 92.410156 36.832031 91.769531 L 33.515625 91.769531 C 31.578125 91.769531 30 90.191406 30 88.257812 L 30 83.167969 C 30 81.230469 31.578125 79.660156 33.515625 79.660156 L 36.832031 79.660156 C 37.058594 79.015625 37.324219 78.382812 37.621094 77.765625 L 35.269531 75.414062 C 34.605469 74.753906 34.242188 73.871094 34.242188 72.933594 C 34.242188 71.992188 34.609375 71.113281 35.269531 70.449219 L 38.867188 66.847656 C 40.238281 65.480469 42.464844 65.480469 43.832031 66.847656 L 46.183594 69.199219 C 46.800781 68.902344 47.433594 68.636719 48.078125 68.410156 L 48.078125 65.09375 C 48.078125 63.15625 49.652344 61.582031 51.589844 61.582031 L 56.679688 61.582031 C 58.617188 61.582031 60.191406 63.15625 60.191406 65.09375 L 60.191406 68.410156 C 60.835938 68.636719 61.46875 68.902344 62.085938 69.199219 L 64.4375 66.847656 C 65.804688 65.480469 68.03125 65.480469 69.402344 66.847656 Z M 117.597656 88.574219 C 117.367188 89.148438 117.414062 89.796875 117.726562 90.332031 L 124.597656 102.113281 C 124.871094 102.578125 124.941406 103.125 124.804688 103.652344 C 124.664062 104.175781 124.335938 104.617188 123.867188 104.886719 C 123.222656 105.265625 122.644531 105.539062 122.136719 105.78125 C 119.945312 106.820312 118.238281 107.984375 119.527344 111.667969 C 119.886719 112.699219 119.652344 113.015625 119.136719 113.714844 C 118.660156 114.355469 117.871094 115.425781 118.316406 116.867188 C 118.558594 117.660156 118.394531 118.40625 117.839844 119.023438 C 116.648438 120.347656 117.363281 121.949219 118.050781 123.492188 C 118.964844 125.539062 119.648438 127.339844 118.765625 128.683594 C 117.789062 130.171875 114.023438 132.636719 99.753906 132.472656 C 99.210938 132.453125 98.707031 132.675781 98.324219 133.054688 C 97.945312 133.429688 97.734375 133.941406 97.734375 134.476562 L 97.734375 145.851562 L 64.46875 146.191406 L 68.054688 141.574219 C 68.316406 141.234375 68.472656 140.808594 68.472656 140.347656 L 68.472656 125.128906 C 69.214844 120.1875 72.359375 116.511719 76 112.265625 C 81.460938 105.890625 87.648438 98.671875 87.339844 85.183594 C 87.328125 73.136719 80.875 62.570312 71.242188 56.753906 L 81.117188 56.753906 C 82.21875 56.753906 83.117188 55.859375 83.117188 54.753906 L 83.117188 49.199219 C 92.371094 49.445312 101.214844 53.027344 108.8125 59.640625 C 118.160156 67.773438 121.523438 78.863281 117.597656 88.574219 Z M 137.511719 21.101562 L 125.261719 42.320312 L 131.289062 42.320312 C 132.394531 42.320312 133.289062 43.214844 133.289062 44.320312 L 133.289062 71.253906 L 141.734375 71.253906 L 141.734375 44.320312 C 141.734375 43.214844 142.632812 42.320312 143.734375 42.320312 L 149.761719 42.320312 Z M 74.894531 2.601562 L 87.144531 23.820312 L 81.117188 23.820312 C 80.011719 23.820312 79.117188 24.714844 79.117188 25.820312 L 79.117188 52.753906 L 70.667969 52.753906 L 70.667969 25.820312 C 70.667969 24.714844 69.773438 23.820312 68.667969 23.820312 L 62.644531 23.820312 Z M 74.894531 2.601562 "/></g></g></svg>