<svg xmlns="http://www.w3.org/2000/svg" xmlns:xlink="http://www.w3.org/1999/xlink" width="200" zoomAndPan="magnify" viewBox="0 0 150 157.92" height="200" preserveAspectRatio="xMidYMid meet" version="1.2"><defs><clipPath id="9b0c66d3bd"><path d="M 0.0390625 25.769531 L 149.960938 25.769531 L 149.960938 123.96875 L 0.0390625 123.96875 Z M 0.0390625 25.769531 "/></clipPath></defs><g id="1647f75c77"><path style=" stroke:none;fill-rule:nonzero;fill:#ffa800;fill-opacity:1;" d="M 32.121094 77.105469 L 32.121094 102.15625 C 32.125 109.554688 49.777344 117.800781 75.097656 117.800781 C 100.417969 117.800781 118.070312 109.554688 118.074219 102.15625 L 118.074219 73.140625 L 70.46875 94.328125 L 32.121094 77.105469 "/><g clip-rule="nonzero" clip-path="url(#9b0c66d3bd)"><path style=" stroke:none;fill-rule:nonzero;fill:#ffa800;fill-opacity:1;" d="M 85.863281 60.039062 C 84.808594 60.039062 83.957031 59.1875 83.957031 58.132812 C 83.957031 57.082031 84.808594 56.230469 85.863281 56.230469 L 134.214844 56.230469 C 133.984375 56.589844 133.847656 57.011719 133.847656 57.472656 L 133.847656 60.039062 Z M 149.65625 116.285156 C 147.605469 99.183594 140.925781 91.171875 138.492188 88.765625 L 138.492188 57.472656 C 138.492188 57.011719 138.355469 56.589844 138.125 56.230469 L 138.125 56.226562 C 137.710938 55.582031 136.992188 55.148438 136.167969 55.148438 C 136.046875 55.148438 135.925781 55.167969 135.804688 55.1875 L 70.402344 25.8125 L 0.0390625 57.128906 L 70.480469 88.761719 L 133.847656 60.5625 L 133.847656 88.765625 C 131.410156 91.171875 124.734375 99.183594 122.679688 116.285156 C 122.671875 116.351562 122.667969 116.417969 122.667969 116.484375 C 122.65625 116.835938 122.683594 118.675781 124.421875 120.472656 C 126.636719 122.765625 130.589844 123.925781 136.167969 123.925781 C 141.75 123.925781 145.699219 122.765625 147.914062 120.476562 C 149.65625 118.675781 149.683594 116.835938 149.671875 116.484375 C 149.667969 116.417969 149.664062 116.351562 149.65625 116.285156 "/></g></g></svg>