<svg xmlns="http://www.w3.org/2000/svg" xmlns:xlink="http://www.w3.org/1999/xlink" width="200" zoomAndPan="magnify" viewBox="0 0 150 157.92" height="200" preserveAspectRatio="xMidYMid meet" version="1.2"><defs><clipPath id="292397c142"><path d="M 13.90625 0 L 135 0 L 135 149.925781 L 13.90625 149.925781 Z M 13.90625 0 "/></clipPath></defs><g id="ef7a9e2096"><g clip-rule="nonzero" clip-path="url(#292397c142)"><path style=" stroke:none;fill-rule:nonzero;fill:#ffa800;fill-opacity:1;" d="M 74.4375 0.0820312 C 61.914062 14.265625 32.796875 24.253906 13.90625 24.253906 L 13.90625 60.011719 C 13.90625 103.011719 39.402344 137.351562 74.4375 149.84375 C 109.472656 137.351562 134.96875 103.011719 134.96875 60.011719 L 134.96875 24.253906 C 116.050781 24.253906 86.929688 14.265625 74.4375 0.0820312 Z M 122.355469 60.011719 C 122.355469 94.441406 103.707031 123.890625 74.4375 136.324219 C 45.167969 123.890625 26.519531 94.441406 26.519531 60.011719 L 26.519531 35.808594 C 42.511719 33.367188 61.070312 26.695312 74.4375 16.890625 C 87.804688 26.667969 106.363281 33.367188 122.355469 35.808594 Z M 122.355469 60.011719 "/></g><path style=" stroke:none;fill-rule:nonzero;fill:#ffa800;fill-opacity:1;" d="M 68.160156 104.699219 L 41.847656 77.664062 L 54.492188 65.351562 L 68.523438 79.773438 L 106.726562 42.839844 L 119.007812 55.515625 Z M 68.160156 104.699219 "/></g></svg>