<svg xmlns="http://www.w3.org/2000/svg" xmlns:xlink="http://www.w3.org/1999/xlink" width="200" zoomAndPan="magnify" viewBox="0 0 150 157.92" height="200" preserveAspectRatio="xMidYMid meet" version="1.2"><defs><clipPath id="d909cc4ea2"><path d="M 66 133 L 84 133 L 84 149.925781 L 66 149.925781 Z M 66 133 "/></clipPath><clipPath id="87a76cb4a7"><path d="M 0.0390625 88 L 43 88 L 43 140 L 0.0390625 140 Z M 0.0390625 88 "/></clipPath><clipPath id="869fd9017f"><path d="M 107 88 L 149.960938 88 L 149.960938 140 L 107 140 Z M 107 88 "/></clipPath></defs><g id="c2a6fb3613"><path style=" stroke:none;fill-rule:nonzero;fill:#ffa800;fill-opacity:1;" d="M 90.886719 12.875 C 91.136719 12.613281 91.0625 12.296875 91.019531 12.183594 C 90.949219 11.964844 90.824219 11.847656 90.65625 11.816406 L 81.578125 10.25 C 80.730469 10.101562 80.007812 9.558594 79.632812 8.796875 L 75.398438 0.28125 C 75.355469 0.210938 75.25 0 75 0 C 74.75 0 74.644531 0.21875 74.601562 0.28125 L 70.367188 8.796875 C 69.992188 9.558594 69.269531 10.101562 68.421875 10.25 L 59.34375 11.816406 C 59.175781 11.847656 59.050781 11.964844 58.980469 12.183594 C 58.9375 12.296875 58.863281 12.613281 59.113281 12.875 L 65.566406 19.703125 C 66.132812 20.296875 66.394531 21.125 66.269531 21.929688 L 64.898438 31.414062 C 64.855469 31.792969 65.054688 31.980469 65.148438 32.042969 C 65.328125 32.179688 65.453125 32.117188 65.535156 32.074219 L 73.765625 27.785156 C 74.539062 27.378906 75.460938 27.378906 76.234375 27.785156 L 84.464844 32.074219 C 84.539062 32.117188 84.664062 32.179688 84.851562 32.042969 C 84.945312 31.980469 85.144531 31.792969 85.101562 31.414062 L 83.730469 21.929688 C 83.605469 21.125 83.867188 20.296875 84.433594 19.703125 L 90.886719 12.875 "/><path style=" stroke:none;fill-rule:nonzero;fill:#ffa800;fill-opacity:1;" d="M 16.957031 53.460938 C 17.136719 53.597656 17.273438 53.535156 17.335938 53.492188 L 25.574219 49.203125 C 26.351562 48.796875 27.269531 48.796875 28.042969 49.203125 L 36.273438 53.492188 C 36.347656 53.535156 36.472656 53.597656 36.660156 53.460938 C 36.753906 53.398438 36.953125 53.210938 36.914062 52.832031 L 35.542969 43.347656 C 35.417969 42.542969 35.679688 41.714844 36.242188 41.121094 L 42.695312 34.292969 C 42.945312 34.03125 42.875 33.714844 42.832031 33.601562 C 42.757812 33.382812 42.632812 33.265625 42.464844 33.234375 L 33.386719 31.667969 C 32.542969 31.519531 31.820312 30.976562 31.441406 30.210938 L 27.207031 21.699219 C 27.164062 21.625 27.0625 21.417969 26.808594 21.417969 C 26.558594 21.417969 26.453125 21.636719 26.414062 21.699219 L 22.175781 30.210938 C 21.800781 30.976562 21.078125 31.519531 20.230469 31.667969 L 11.15625 33.234375 C 10.976562 33.265625 10.863281 33.382812 10.789062 33.601562 C 10.746094 33.714844 10.683594 34.03125 10.925781 34.292969 L 17.378906 41.121094 C 17.941406 41.714844 18.203125 42.542969 18.078125 43.347656 L 16.71875 52.832031 C 16.65625 53.210938 16.863281 53.398438 16.957031 53.460938 "/><path style=" stroke:none;fill-rule:nonzero;fill:#ffa800;fill-opacity:1;" d="M 139.074219 34.292969 C 139.328125 34.03125 139.253906 33.714844 139.210938 33.601562 C 139.136719 33.382812 139.011719 33.265625 138.84375 33.234375 L 129.769531 31.667969 C 128.921875 31.519531 128.199219 30.976562 127.824219 30.210938 L 123.585938 21.699219 C 123.546875 21.625 123.441406 21.417969 123.191406 21.417969 C 122.9375 21.417969 122.835938 21.636719 122.792969 21.699219 L 118.558594 30.210938 C 118.179688 30.976562 117.457031 31.519531 116.613281 31.667969 L 107.535156 33.234375 C 107.367188 33.265625 107.242188 33.382812 107.167969 33.601562 C 107.125 33.714844 107.054688 34.03125 107.304688 34.292969 L 113.757812 41.121094 C 114.320312 41.714844 114.582031 42.542969 114.457031 43.347656 L 113.085938 52.832031 C 113.046875 53.210938 113.246094 53.398438 113.339844 53.460938 C 113.515625 53.597656 113.652344 53.535156 113.726562 53.492188 L 121.957031 49.203125 C 122.730469 48.796875 123.648438 48.796875 124.425781 49.203125 L 132.652344 53.492188 C 132.726562 53.535156 132.851562 53.597656 133.042969 53.460938 C 133.136719 53.398438 133.335938 53.210938 133.292969 52.832031 L 131.921875 43.347656 C 131.796875 42.542969 132.058594 41.714844 132.621094 41.121094 L 139.074219 34.292969 "/><g clip-rule="nonzero" clip-path="url(#d909cc4ea2)"><path style=" stroke:none;fill-rule:nonzero;fill:#ffa800;fill-opacity:1;" d="M 66.96875 141.890625 C 66.96875 146.328125 70.566406 149.925781 75 149.925781 C 79.433594 149.925781 83.03125 146.328125 83.03125 141.890625 C 83.03125 137.457031 79.433594 133.859375 75 133.859375 C 70.566406 133.859375 66.96875 137.457031 66.96875 141.890625 "/></g><path style=" stroke:none;fill-rule:nonzero;fill:#ffa800;fill-opacity:1;" d="M 84.359375 132.355469 C 86.617188 134.5625 88.039062 137.574219 88.292969 140.917969 C 101.257812 133.695312 119.058594 123.109375 131.910156 115.414062 C 110.777344 122.671875 95.140625 128.246094 84.359375 132.355469 "/><path style=" stroke:none;fill-rule:nonzero;fill:#ffa800;fill-opacity:1;" d="M 72.324219 96.515625 L 72.324219 64.328125 C 53.664062 64.984375 36.746094 72.472656 23.957031 84.382812 L 46.710938 107.140625 C 53.632812 101.023438 62.535156 97.121094 72.324219 96.515625 "/><g clip-rule="nonzero" clip-path="url(#87a76cb4a7)"><path style=" stroke:none;fill-rule:nonzero;fill:#ffa800;fill-opacity:1;" d="M 32.164062 139.214844 C 32.164062 128.371094 36.253906 118.476562 42.925781 110.925781 L 20.167969 88.171875 C 7.691406 101.566406 0.0390625 119.511719 0.0390625 139.214844 L 32.164062 139.214844 "/></g><path style=" stroke:none;fill-rule:nonzero;fill:#ffa800;fill-opacity:1;" d="M 77.675781 64.328125 L 77.675781 96.472656 C 87.277344 97.070312 96.261719 100.886719 103.320312 107.109375 L 126.042969 84.382812 C 113.253906 72.472656 96.335938 64.984375 77.675781 64.328125 "/><g clip-rule="nonzero" clip-path="url(#869fd9017f)"><path style=" stroke:none;fill-rule:nonzero;fill:#ffa800;fill-opacity:1;" d="M 107.09375 110.90625 C 108.714844 112.734375 110.179688 114.710938 111.488281 116.835938 C 117.175781 114.835938 123.386719 112.671875 130.1875 110.339844 C 132.84375 109.421875 135.601562 110.613281 136.785156 113.121094 C 137.96875 115.652344 137.078125 118.550781 134.664062 120.003906 C 129.371094 123.171875 123.230469 126.832031 116.9375 130.546875 C 117.523438 133.390625 117.835938 136.285156 117.835938 139.214844 L 149.960938 139.214844 C 149.960938 119.511719 142.308594 101.566406 129.832031 88.171875 L 107.09375 110.90625 "/></g></g></svg>