<svg xmlns="http://www.w3.org/2000/svg" xmlns:xlink="http://www.w3.org/1999/xlink" width="200" zoomAndPan="magnify" viewBox="0 0 150 157.92" height="200" preserveAspectRatio="xMidYMid meet" version="1.2"><defs><clipPath id="4d9c32eca7"><path d="M 2 60 L 88 60 L 88 147.582031 L 2 147.582031 Z M 2 60 "/></clipPath><clipPath id="e76b92900e"><path d="M 6 2.15625 L 143 2.15625 L 143 52 L 6 52 Z M 6 2.15625 "/></clipPath></defs><g id="6f77d3deb5"><path style=" stroke:none;fill-rule:nonzero;fill:#ffa800;fill-opacity:1;" d="M 146.867188 65.539062 L 146.308594 60.636719 L 141.839844 60.636719 C 114.4375 60.636719 94.910156 67.210938 82.335938 79.78125 C 81.882812 80.234375 81.476562 80.855469 81.039062 81.3125 C 85.460938 87.007812 88.769531 92.964844 91.242188 99.101562 C 99.046875 87.007812 112.183594 75.757812 133.023438 69.542969 C 111.148438 83.773438 100.796875 104.765625 96.761719 121.183594 C 97.605469 127.820312 97.914062 134.773438 97.914062 142.085938 C 97.914062 142.71875 97.859375 143.34375 97.777344 143.953125 C 108.363281 140.421875 118.0625 134.3125 126.160156 126.207031 C 142.125 110.25 149.683594 87.992188 146.867188 65.539062 Z M 146.867188 65.539062 "/><g clip-rule="nonzero" clip-path="url(#4d9c32eca7)"><path style=" stroke:none;fill-rule:nonzero;fill:#ffa800;fill-opacity:1;" d="M 87.902344 142.09375 C 87.902344 117.648438 84.53125 97.3125 67 79.78125 C 54.429688 67.210938 35.222656 60.636719 7.820312 60.636719 L 3.355469 60.636719 L 2.796875 65.539062 C -0.0234375 87.992188 7.511719 110.25 23.46875 126.203125 C 37.167969 139.90625 55.394531 147.574219 74.792969 147.574219 C 77.828125 147.574219 80.671875 147.4375 83.6875 147.058594 L 87.898438 146.558594 L 87.898438 142.09375 Z M 34.058594 115.851562 C 23.476562 105.273438 17.589844 91.5625 17.207031 76.839844 C 35.265625 78.015625 48.515625 82.714844 56.636719 90.835938 C 67.398438 101.601562 72.074219 113.25 73.132812 132.699219 C 58.371094 132.296875 44.550781 126.347656 34.058594 115.851562 Z M 34.058594 115.851562 "/></g><g clip-rule="nonzero" clip-path="url(#e76b92900e)"><path style=" stroke:none;fill-rule:nonzero;fill:#ffa800;fill-opacity:1;" d="M 142.453125 42.914062 L 131.152344 16.578125 C 129.828125 13.5 126.925781 13.328125 124.714844 16.203125 L 121.574219 20.289062 C 108.910156 9.542969 92.550781 2.3125 74.679688 2.3125 C 42.953125 2.316406 15.925781 22.875 6.0625 50.46875 L 7.820312 50.46875 C 13.214844 50.46875 18.324219 51.414062 23.183594 51.867188 C 32.023438 32.207031 51.753906 18.808594 74.679688 18.808594 C 88.847656 18.808594 101.808594 24.238281 111.730469 32.894531 L 111.679688 33.050781 L 108.460938 37.28125 C 106.242188 40.160156 107.148438 42.9375 110.46875 43.425781 L 138.820312 47.621094 C 142.148438 48.113281 143.78125 46 142.453125 42.914062 Z M 142.453125 42.914062 "/></g></g></svg>