<svg xmlns="http://www.w3.org/2000/svg" xmlns:xlink="http://www.w3.org/1999/xlink" width="200" zoomAndPan="magnify" viewBox="0 0 150 157.92" height="200" preserveAspectRatio="xMidYMid meet" version="1.2"><defs><clipPath id="d1f8bf8f33"><path d="M 0.0390625 0 L 149.960938 0 L 149.960938 149.925781 L 0.0390625 149.925781 Z M 0.0390625 0 "/></clipPath></defs><g id="0a7d7d08d1"><path style=" stroke:none;fill-rule:nonzero;fill:#ffa800;fill-opacity:1;" d="M 75.46875 43.855469 C 76.753906 43.855469 77.808594 42.800781 77.808594 41.515625 L 77.808594 36.488281 C 77.808594 35.199219 76.753906 34.148438 75.46875 34.148438 C 74.179688 34.148438 73.128906 35.199219 73.128906 36.488281 L 73.128906 41.515625 C 73.128906 42.800781 74.179688 43.855469 75.46875 43.855469 Z M 75.46875 43.855469 "/><path style=" stroke:none;fill-rule:nonzero;fill:#ffa800;fill-opacity:1;" d="M 56.523438 47.363281 C 56.992188 48.179688 57.691406 48.53125 58.511719 48.53125 C 58.863281 48.53125 59.328125 48.414062 59.679688 48.179688 C 60.847656 47.597656 61.199219 46.078125 60.617188 45.023438 L 58.160156 40.578125 C 57.574219 39.410156 56.054688 39.058594 55.003906 39.644531 C 53.832031 40.230469 53.480469 41.75 54.066406 42.800781 Z M 56.523438 47.363281 "/><path style=" stroke:none;fill-rule:nonzero;fill:#ffa800;fill-opacity:1;" d="M 91.136719 48.296875 C 91.488281 48.53125 91.839844 48.648438 92.308594 48.648438 C 93.125 48.648438 93.945312 48.179688 94.296875 47.480469 L 96.75 43.035156 C 97.335938 41.867188 96.984375 40.464844 95.816406 39.878906 C 94.648438 39.292969 93.242188 39.644531 92.660156 40.8125 L 90.203125 45.257812 C 89.617188 46.195312 89.96875 47.597656 91.136719 48.296875 Z M 91.136719 48.296875 "/><path style=" stroke:none;fill-rule:nonzero;fill:#ffa800;fill-opacity:1;" d="M 83.652344 118.347656 L 67.28125 118.347656 C 65.996094 118.347656 64.941406 119.402344 64.941406 120.6875 C 64.941406 121.972656 65.996094 123.027344 67.28125 123.027344 L 83.652344 123.027344 C 84.941406 123.027344 85.992188 121.972656 85.992188 120.6875 C 85.992188 119.402344 84.941406 118.347656 83.652344 118.347656 Z M 83.652344 118.347656 "/><path style=" stroke:none;fill-rule:nonzero;fill:#ffa800;fill-opacity:1;" d="M 81.316406 125.367188 L 69.621094 125.367188 C 68.335938 125.367188 67.28125 126.417969 67.28125 127.703125 C 67.28125 128.992188 68.335938 130.042969 69.621094 130.042969 L 81.316406 130.042969 C 82.601562 130.042969 83.652344 128.992188 83.652344 127.703125 C 83.652344 126.417969 82.601562 125.367188 81.316406 125.367188 Z M 81.316406 125.367188 "/><path style=" stroke:none;fill-rule:nonzero;fill:#ffa800;fill-opacity:1;" d="M 40.851562 58.355469 L 45.0625 60.929688 C 45.414062 61.164062 45.878906 61.28125 46.230469 61.28125 C 47.050781 61.28125 47.75 60.929688 48.21875 60.109375 C 48.921875 59.058594 48.570312 57.539062 47.402344 56.953125 L 43.191406 54.378906 C 42.136719 53.679688 40.617188 54.027344 40.035156 55.199219 C 39.449219 56.367188 39.683594 57.769531 40.851562 58.355469 Z M 40.851562 58.355469 "/><path style=" stroke:none;fill-rule:nonzero;fill:#ffa800;fill-opacity:1;" d="M 44.125 76.25 C 44.125 74.960938 43.074219 73.910156 41.789062 73.910156 L 36.875 73.910156 C 35.589844 73.910156 34.535156 74.960938 34.535156 76.25 C 34.535156 77.535156 35.589844 78.585938 36.875 78.585938 L 41.789062 78.585938 C 43.074219 78.585938 44.125 77.535156 44.125 76.25 Z M 44.125 76.25 "/><path style=" stroke:none;fill-rule:nonzero;fill:#ffa800;fill-opacity:1;" d="M 103.535156 61.28125 C 103.886719 61.28125 104.351562 61.164062 104.703125 60.929688 L 108.914062 58.355469 C 109.964844 57.652344 110.433594 56.25 109.734375 55.199219 C 109.03125 54.144531 107.628906 53.679688 106.574219 54.378906 L 102.363281 56.953125 C 101.3125 57.652344 100.84375 59.058594 101.546875 60.109375 C 101.898438 60.8125 102.714844 61.28125 103.535156 61.28125 Z M 103.535156 61.28125 "/><path style=" stroke:none;fill-rule:nonzero;fill:#ffa800;fill-opacity:1;" d="M 105.640625 76.25 C 105.640625 77.535156 106.691406 78.585938 107.980469 78.585938 L 112.890625 78.585938 C 114.175781 78.585938 115.230469 77.535156 115.230469 76.25 C 115.230469 74.960938 114.175781 73.910156 112.890625 73.910156 L 107.980469 73.910156 C 106.691406 73.910156 105.640625 74.960938 105.640625 76.25 Z M 105.640625 76.25 "/><path style=" stroke:none;fill-rule:nonzero;fill:#ffa800;fill-opacity:1;" d="M 46.699219 73.792969 C 46.113281 83.03125 50.207031 91.800781 57.574219 97.414062 C 60.148438 99.285156 61.550781 102.09375 61.550781 105.015625 L 61.550781 110.28125 C 61.550781 112.96875 63.773438 115.894531 66.695312 115.894531 L 82.71875 115.894531 C 85.640625 115.894531 87.628906 112.96875 87.628906 110.28125 L 87.628906 105.25 C 87.628906 102.210938 89.152344 99.285156 91.722656 97.414062 C 98.738281 92.152344 102.714844 84.199219 102.714844 75.546875 C 102.714844 67.945312 99.675781 60.929688 94.0625 55.667969 C 88.332031 50.402344 80.613281 47.597656 72.660156 48.179688 C 58.746094 49.234375 47.636719 60.226562 46.699219 73.792969 Z M 62.722656 73.441406 C 63.65625 72.507812 65.058594 72.507812 65.996094 73.441406 L 71.609375 79.054688 L 83.652344 67.007812 C 84.589844 66.074219 85.992188 66.074219 86.929688 67.007812 C 87.863281 67.945312 87.863281 69.347656 86.929688 70.285156 L 72.894531 84.316406 C 72.425781 84.785156 71.84375 85.019531 71.257812 85.019531 C 70.671875 85.019531 70.089844 84.785156 69.621094 84.316406 C 69.269531 83.96875 69.035156 83.5 69.035156 83.148438 L 62.605469 76.714844 C 61.785156 75.898438 61.785156 74.378906 62.722656 73.441406 Z M 62.722656 73.441406 "/><g clip-rule="nonzero" clip-path="url(#d1f8bf8f33)"><path style=" stroke:none;fill-rule:nonzero;fill:#ffa800;fill-opacity:1;" d="M 9.042969 85.371094 C 9.746094 89.929688 10.914062 94.375 12.550781 98.585938 L 8.808594 100.691406 C 7.757812 101.273438 6.9375 102.328125 6.585938 103.496094 C 6.234375 104.667969 6.46875 105.953125 7.054688 107.003906 L 12.902344 117.0625 C 14.1875 119.285156 17.113281 120.101562 19.332031 118.816406 L 23.078125 116.59375 C 26 120.101562 29.273438 123.378906 32.78125 126.300781 L 30.5625 130.042969 C 29.976562 131.097656 29.742188 132.382812 30.09375 133.550781 C 30.445312 134.722656 31.144531 135.773438 32.316406 136.359375 L 42.488281 142.207031 C 43.191406 142.671875 44.007812 142.789062 44.828125 142.789062 C 46.464844 142.789062 47.984375 141.972656 48.921875 140.453125 L 51.144531 136.710938 C 55.46875 138.347656 59.914062 139.515625 64.476562 140.21875 L 64.476562 145.011719 C 64.476562 147.585938 66.578125 149.691406 69.152344 149.691406 L 80.847656 149.691406 C 83.421875 149.691406 85.523438 147.585938 85.523438 145.011719 L 85.523438 140.21875 C 90.085938 139.515625 94.53125 138.347656 98.855469 136.710938 L 101.078125 140.453125 C 102.363281 142.671875 105.289062 143.492188 107.511719 142.207031 L 117.683594 136.359375 C 118.738281 135.773438 119.554688 134.722656 119.90625 133.550781 C 120.257812 132.382812 120.023438 131.097656 119.4375 130.042969 L 117.21875 126.300781 C 120.726562 123.378906 124 120.21875 126.921875 116.59375 L 130.667969 118.816406 C 132.886719 120.101562 135.8125 119.285156 137.097656 117.0625 L 142.945312 107.003906 C 143.53125 105.953125 143.765625 104.667969 143.414062 103.496094 C 143.0625 102.328125 142.359375 101.273438 141.191406 100.691406 L 137.449219 98.585938 C 139.085938 94.375 140.253906 89.929688 140.957031 85.371094 L 145.285156 85.371094 C 147.855469 85.371094 149.960938 83.265625 149.960938 80.691406 L 149.960938 68.996094 C 149.960938 66.425781 147.855469 64.320312 145.285156 64.320312 L 140.957031 64.320312 C 140.253906 59.757812 139.085938 55.316406 137.449219 51.105469 L 141.191406 49 C 142.242188 48.414062 143.0625 47.363281 143.414062 46.195312 C 143.765625 45.023438 143.53125 43.738281 142.945312 42.683594 L 137.097656 32.628906 C 135.8125 30.40625 132.886719 29.585938 130.667969 30.875 L 126.921875 33.09375 C 124 29.585938 120.726562 26.3125 117.21875 23.390625 L 119.4375 19.648438 C 120.023438 18.59375 120.257812 17.308594 119.90625 16.136719 C 119.554688 14.96875 118.855469 13.917969 117.683594 13.332031 L 107.511719 7.484375 C 105.289062 6.199219 102.363281 7.015625 101.078125 9.238281 L 98.855469 12.980469 C 94.53125 11.34375 90.085938 10.175781 85.523438 9.472656 L 85.523438 4.910156 C 85.523438 2.339844 83.421875 0.234375 80.847656 0.234375 L 69.035156 0.234375 C 66.464844 0.234375 64.359375 2.339844 64.359375 4.910156 L 64.359375 9.238281 C 59.796875 9.941406 55.351562 11.109375 51.027344 12.746094 L 48.804688 9.003906 C 47.519531 6.78125 44.59375 5.964844 42.371094 7.25 L 32.199219 13.097656 C 31.144531 13.683594 30.328125 14.734375 29.976562 15.90625 C 29.625 17.074219 29.859375 18.359375 30.445312 19.414062 L 32.664062 23.15625 C 29.15625 26.078125 25.882812 29.238281 22.960938 32.863281 L 19.21875 30.640625 C 16.996094 29.351562 14.070312 30.171875 12.785156 32.394531 L 6.9375 42.453125 C 6.351562 43.503906 6.117188 44.789062 6.46875 45.960938 C 6.820312 47.128906 7.523438 48.179688 8.691406 48.765625 L 12.433594 50.871094 C 10.796875 55.082031 9.628906 59.523438 8.925781 64.085938 L 4.714844 64.085938 C 2.144531 64.085938 0.0390625 66.191406 0.0390625 68.765625 L 0.0390625 80.457031 C 0.0390625 83.03125 2.144531 85.136719 4.714844 85.136719 L 9.042969 85.136719 Z M 74.882812 21.519531 C 104.585938 21.519531 128.679688 45.609375 128.679688 75.078125 C 128.679688 99.988281 111.488281 121.039062 88.214844 127.003906 C 88.214844 127.238281 88.214844 127.46875 88.214844 127.703125 C 88.214844 131.5625 85.058594 134.722656 81.199219 134.722656 L 69.503906 134.722656 C 65.644531 134.722656 62.488281 131.5625 62.488281 127.703125 C 62.488281 127.585938 62.488281 127.46875 62.488281 127.238281 C 38.863281 121.738281 21.089844 100.457031 21.089844 75.078125 C 21.089844 45.492188 45.179688 21.519531 74.882812 21.519531 Z M 74.882812 21.519531 "/></g></g></svg>