<svg xmlns="http://www.w3.org/2000/svg" xmlns:xlink="http://www.w3.org/1999/xlink" width="200" zoomAndPan="magnify" viewBox="0 0 150 157.92" height="200" preserveAspectRatio="xMidYMid meet" version="1.2"><defs><clipPath id="cf3b79564e"><path d="M 2 0 L 149 0 L 149 149.925781 L 2 149.925781 Z M 2 0 "/></clipPath></defs><g id="10d93a0dc0"><g clip-rule="nonzero" clip-path="url(#cf3b79564e)"><path style=" stroke:none;fill-rule:evenodd;fill:#164774;fill-opacity:1;" d="M 3.363281 1.648438 C 4.753906 3.804688 58.207031 81.648438 58.910156 82.542969 C 59.269531 83.003906 50.214844 93.957031 31.304688 115.933594 C 15.824219 133.921875 2.980469 148.925781 2.761719 149.28125 C 2.488281 149.722656 4.394531 149.925781 8.867188 149.925781 L 15.363281 149.925781 L 40.125 121.136719 C 53.742188 105.308594 65.066406 92.359375 65.292969 92.371094 C 65.519531 92.378906 74.582031 105.332031 85.433594 121.15625 L 105.164062 149.925781 L 126.960938 149.925781 C 138.953125 149.925781 148.761719 149.8125 148.761719 149.679688 C 148.761719 149.542969 135.652344 130.355469 119.632812 107.03125 C 103.609375 83.710938 90.378906 64.308594 90.230469 63.917969 C 90.078125 63.53125 101.953125 49.265625 116.613281 32.222656 C 131.277344 15.179688 143.445312 0.957031 143.65625 0.617188 C 143.90625 0.207031 141.839844 0 137.539062 0 L 131.042969 0 L 107.667969 27.25 C 94.8125 42.234375 84.132812 54.515625 83.929688 54.535156 C 83.730469 54.554688 75.136719 42.292969 64.839844 27.285156 L 46.113281 0 L 2.300781 0 Z M 22.644531 13.398438 C 23.898438 15.164062 44.355469 44.433594 68.101562 78.449219 L 111.28125 140.292969 L 121.058594 140.308594 L 130.832031 140.328125 L 127.175781 135.082031 C 125.164062 132.195312 104.707031 102.917969 81.71875 70.023438 L 39.917969 10.210938 L 20.363281 10.195312 Z M 22.644531 13.398438 "/></g></g></svg>