<svg xmlns="http://www.w3.org/2000/svg" xmlns:xlink="http://www.w3.org/1999/xlink" width="200" zoomAndPan="magnify" viewBox="0 0 150 157.92" height="200" preserveAspectRatio="xMidYMid meet" version="1.2"><g id="22c42380eb"><path style=" stroke:none;fill-rule:evenodd;fill:#164774;fill-opacity:1;" d="M 52.53125 11.148438 C 40.5 11.5625 33.8125 13.152344 27.367188 17.140625 C 24.308594 19.03125 19.070312 24.273438 17.179688 27.328125 C 14.546875 31.585938 12.785156 36.679688 11.910156 42.554688 C 10.527344 51.875 10.527344 98.050781 11.910156 107.367188 C 13.257812 116.449219 16.101562 122.394531 21.835938 128.128906 C 27.582031 133.871094 33.507812 136.703125 42.644531 138.058594 C 51.78125 139.414062 98.21875 139.414062 107.355469 138.058594 C 116.523438 136.695312 122.242188 133.984375 128.015625 128.253906 C 133.902344 122.417969 136.722656 116.558594 138.089844 107.351562 C 139.464844 98.09375 139.464844 51.828125 138.089844 42.574219 C 136.722656 33.367188 133.902344 27.507812 128.015625 21.667969 C 122.246094 15.945312 116.523438 13.226562 107.371094 11.867188 C 101.148438 10.945312 70.316406 10.539062 52.53125 11.148438 M 54.210938 22.730469 C 49.453125 22.878906 43.726562 23.410156 41.523438 23.910156 C 32.160156 26.027344 26.238281 31.867188 24.042969 41.140625 C 22.894531 46.003906 22.742188 49.996094 22.742188 74.960938 C 22.742188 99.464844 22.894531 103.757812 23.957031 108.488281 C 25.699219 116.28125 30.332031 121.953125 37.128906 124.621094 C 43.246094 127.023438 45.992188 127.210938 75 127.210938 C 99.660156 127.210938 103.21875 127.085938 108.339844 126.027344 C 117.714844 124.089844 124.128906 117.6875 126.0625 108.324219 C 127.125 103.179688 127.25 99.644531 127.25 74.960938 C 127.25 45.992188 127.042969 42.953125 124.640625 37.003906 C 121.277344 28.660156 114.472656 24.269531 103.109375 23.113281 C 100.21875 22.816406 61.175781 22.511719 54.210938 22.730469 M 106.347656 33.59375 C 103.320312 34.664062 101.066406 38.371094 101.453125 41.644531 C 101.941406 45.753906 105.90625 48.980469 109.894531 48.511719 C 116.921875 47.679688 119.328125 38.933594 113.710938 34.648438 C 111.625 33.054688 108.953125 32.675781 106.347656 33.59375 M 68.265625 42.738281 C 62.046875 44.070312 56.796875 46.910156 52.085938 51.492188 C 47.121094 56.320312 43.90625 62.246094 42.648438 68.886719 C 42.074219 71.902344 42.074219 78.019531 42.648438 81.039062 C 43.90625 87.675781 47.121094 93.601562 52.085938 98.429688 C 58.554688 104.722656 66.011719 107.757812 75 107.757812 C 84.011719 107.757812 91.429688 104.738281 97.914062 98.429688 C 102.898438 93.582031 106.1875 87.460938 107.382812 80.820312 C 107.910156 77.882812 107.898438 72.109375 107.359375 69.023438 C 106.226562 62.515625 102.898438 56.339844 97.914062 51.492188 C 93.035156 46.746094 87.503906 43.828125 81.074219 42.609375 C 77.816406 41.992188 71.460938 42.054688 68.265625 42.738281 M 72.601562 53.894531 C 67.644531 54.464844 63.667969 56.40625 60.054688 60.015625 C 55.824219 64.25 53.890625 68.933594 53.890625 74.960938 C 53.890625 83.335938 58.214844 90.246094 65.878906 94.121094 C 69.824219 96.117188 75.792969 96.675781 80.375 95.480469 C 87.648438 93.585938 93.640625 87.589844 95.515625 80.335938 C 96.320312 77.21875 96.320312 72.714844 95.519531 69.605469 C 94.039062 63.871094 89.933594 58.742188 84.753906 56.152344 C 80.886719 54.214844 76.648438 53.429688 72.601562 53.894531 "/></g></svg>