<svg xmlns="http://www.w3.org/2000/svg" xmlns:xlink="http://www.w3.org/1999/xlink" width="200" zoomAndPan="magnify" viewBox="0 0 150 157.92" height="200" preserveAspectRatio="xMidYMid meet" version="1.2"><defs><clipPath id="96bc3db46b"><path d="M 0.0390625 22 L 149.960938 22 L 149.960938 128 L 0.0390625 128 Z M 0.0390625 22 "/></clipPath></defs><g id="1dc12700ba"><g clip-rule="nonzero" clip-path="url(#96bc3db46b)"><path style=" stroke:none;fill-rule:evenodd;fill:#164774;fill-opacity:1;" d="M 51.574219 22.609375 C 39.523438 22.996094 24.496094 24.0625 20.027344 24.839844 C 12.214844 26.207031 6.714844 30.050781 4.089844 35.988281 C -0.285156 45.878906 -1.40625 85.59375 2.101562 106.292969 C 3.574219 114.964844 6.742188 119.832031 13 123.023438 C 19.179688 126.175781 35.488281 127.300781 75 127.300781 C 114.511719 127.300781 130.820312 126.175781 137 123.023438 C 140.691406 121.140625 143.890625 117.976562 145.535156 114.585938 C 147.222656 111.105469 148.632812 103.660156 149.175781 95.34375 C 149.382812 92.164062 149.777344 89.425781 150.050781 89.253906 C 150.324219 89.085938 150.546875 82.359375 150.546875 74.308594 C 150.546875 66.253906 150.324219 59.804688 150.046875 59.972656 C 149.773438 60.144531 149.378906 57.699219 149.171875 54.542969 C 148.683594 47.074219 147.269531 39.0625 145.890625 35.945312 C 144.242188 32.214844 140.46875 28.476562 136.636719 26.773438 C 130.132812 23.886719 117.585938 22.921875 82.613281 22.621094 C 68.925781 22.503906 54.957031 22.5 51.574219 22.609375 M 60.359375 74.960938 L 60.359375 97.097656 L 79.367188 86.175781 C 89.824219 80.167969 98.378906 75.125 98.378906 74.960938 C 98.378906 74.800781 89.824219 69.753906 79.367188 63.746094 L 60.359375 52.828125 Z M 0.292969 74.960938 C 0.292969 83.175781 0.375 86.535156 0.476562 82.429688 C 0.578125 78.324219 0.578125 71.601562 0.476562 67.496094 C 0.375 63.386719 0.292969 66.75 0.292969 74.960938 "/></g></g></svg>