<svg xmlns="http://www.w3.org/2000/svg" xmlns:xlink="http://www.w3.org/1999/xlink" width="1080" zoomAndPan="magnify" viewBox="0 0 810 809.999993" height="1080" preserveAspectRatio="xMidYMid meet" version="1.2"><defs><clipPath id="05837ff091"><path d="M 243 301.726562 L 567 301.726562 L 567 505 L 243 505 Z M 243 301.726562 "/></clipPath></defs><g id="d8e9ca19e1"><g clip-rule="nonzero" clip-path="url(#05837ff091)"><path style=" stroke:none;fill-rule:nonzero;fill:#154371;fill-opacity:1;" d="M 539.351562 371.5 C 538.042969 372.292969 537.082031 373.550781 536.648438 375.019531 L 530.105469 397.390625 L 431.714844 345.894531 C 430.835938 345.425781 429.859375 345.203125 428.894531 345.203125 C 427.476562 345.203125 426.074219 345.695312 424.953125 346.644531 C 424.714844 346.84375 401.867188 366.238281 382.324219 381.640625 C 371.851562 389.878906 362.160156 387.503906 356.570312 384.789062 L 388.929688 340.332031 C 399.320312 326.054688 416.71875 318.136719 434.152344 319.710938 L 485.832031 325.28125 C 487.460938 325.480469 489.117188 324.96875 490.390625 323.90625 L 516.84375 301.851562 L 566.523438 355.191406 Z M 530.984375 433.800781 C 529.269531 435.128906 527.355469 435.996094 525.140625 436.460938 C 510.726562 439.429688 473.871094 424.332031 460.957031 418.226562 C 457.921875 416.792969 454.28125 418.085938 452.839844 421.136719 C 451.402344 424.179688 452.710938 427.808594 455.742188 429.25 C 459.648438 431.089844 486.914062 443.710938 509.074219 447.734375 C 508.1875 451.28125 505.84375 458.324219 500.566406 461.941406 C 497.28125 464.195312 493.269531 464.785156 488.285156 463.660156 C 464.433594 458.367188 439.296875 449.425781 439.046875 449.335938 C 435.871094 448.207031 432.394531 449.863281 431.265625 453.027344 C 430.132812 456.191406 431.777344 459.679688 434.949219 460.808594 C 435.917969 461.160156 457.292969 468.726562 479.917969 474.203125 C 478.179688 479.8125 473.234375 487.710938 459.003906 487.136719 C 434.203125 486.308594 420.265625 476.582031 420.148438 476.5 C 417.445312 474.535156 413.625 475.109375 411.636719 477.847656 C 409.660156 480.566406 410.257812 484.378906 412.980469 486.355469 C 413.457031 486.707031 421.703125 492.429688 436.4375 496.171875 C 428.402344 501.96875 415.648438 507.855469 402.070312 500.960938 C 397.382812 498.578125 393.929688 496.816406 391.402344 495.511719 C 397.90625 490.96875 402.042969 486.992188 402.425781 486.609375 C 402.972656 486.058594 403.414062 485.414062 403.722656 484.695312 C 404.140625 483.722656 407.664062 474.90625 403.175781 465.980469 C 400.269531 460.195312 394.703125 456.09375 386.890625 453.554688 C 384.796875 447.472656 379.007812 435.136719 366.574219 431.917969 C 366.046875 428.671875 364.71875 424.519531 361.582031 420.417969 C 356.625 413.949219 348.59375 409.761719 337.984375 407.664062 C 335.933594 397.453125 323.175781 388.289062 315.34375 384.273438 C 315.34375 384.273438 315.34375 384.273438 315.328125 384.273438 C 301.484375 377.1875 271.1875 389.3125 257.070312 395.730469 L 243.015625 381.042969 L 300.5 304.34375 L 326.375 326.574219 C 327.492188 327.535156 328.769531 327.78125 330.421875 328.046875 L 383.859375 327.433594 C 382.167969 329.246094 380.546875 331.136719 379.078125 333.164062 L 342.917969 382.835938 C 341.039062 385.414062 341.464844 389.003906 343.894531 391.066406 C 351.582031 397.601562 371.054688 406.035156 389.871094 391.210938 C 405.28125 379.066406 422.703125 364.472656 429.703125 358.589844 L 526.285156 409.097656 C 527.523438 409.597656 528.6875 410.253906 529.734375 411.039062 C 529.925781 411.203125 530.117188 411.359375 530.320312 411.503906 C 533.257812 413.9375 535.257812 417.449219 535.816406 421.386719 C 536.507812 426.363281 534.746094 430.882812 530.984375 433.800781 Z M 351.84375 497.71875 C 340.773438 498.042969 335.601562 493.648438 333.128906 489.695312 C 353.710938 485.984375 375.832031 470.613281 383.230469 465.101562 C 387.75 466.570312 390.839844 468.648438 392.25 471.375 C 393.714844 474.21875 393.214844 477.367188 392.808594 478.925781 C 388.582031 482.765625 371.457031 497.175781 351.84375 497.71875 Z M 306.050781 469.179688 C 325.984375 466.144531 354.207031 448.601562 362.230469 443.398438 C 369.128906 444.441406 373.066406 451.59375 374.863281 456.121094 C 366.222656 462.398438 342.65625 478.265625 324.804688 478.371094 C 314.441406 478.285156 308.964844 473.523438 306.050781 469.179688 Z M 282.539062 442.792969 C 299.65625 439.890625 318.285156 429.273438 328.828125 423.242188 L 331.183594 421.898438 C 332.488281 421.160156 333.589844 420.292969 334.558594 419.347656 C 350.425781 422.144531 353.941406 429.78125 354.59375 433.832031 C 342.109375 441.800781 314.652344 457.484375 300.574219 457.484375 C 290.398438 457.484375 285.0625 448.828125 282.539062 442.792969 Z M 253.0625 417.183594 C 251.539062 413.527344 256.039062 409.847656 258.300781 408.574219 C 274.378906 400.875 293.976562 394.15625 304.464844 394.15625 C 306.679688 394.15625 308.5 394.460938 309.785156 395.117188 C 320.914062 400.824219 326.664062 408.59375 326.21875 410.46875 C 326.1875 410.550781 325.914062 410.886719 325.183594 411.289062 L 322.78125 412.664062 C 311.652344 419.023438 282.160156 435.925781 267.394531 430.320312 C 260.964844 427.867188 254.371094 420.324219 253.0625 417.183594 "/></g></g></svg>