<svg xmlns="http://www.w3.org/2000/svg" xmlns:xlink="http://www.w3.org/1999/xlink" width="1080" zoomAndPan="magnify" viewBox="0 0 810 809.999993" height="1080" preserveAspectRatio="xMidYMid meet" version="1.2"><defs><clipPath id="adeae8b2c5"><path d="M 264.667969 243 L 545.167969 243 L 545.167969 320 L 264.667969 320 Z M 264.667969 243 "/></clipPath></defs><g id="d6c6c6e380"><path style=" stroke:none;fill-rule:nonzero;fill:#154371;fill-opacity:1;" d="M 280.933594 542.78125 C 280.941406 545.738281 283.421875 548.203125 286.378906 548.191406 C 289.40625 548.183594 291.800781 545.703125 291.792969 542.742188 L 291.707031 517.414062 C 291.695312 514.425781 289.28125 511.992188 286.257812 512.003906 C 283.296875 512.011719 280.835938 514.460938 280.847656 517.453125 L 280.933594 542.78125 "/><path style=" stroke:none;fill-rule:nonzero;fill:#154371;fill-opacity:1;" d="M 285.890625 403.464844 C 288.914062 403.453125 291.3125 400.976562 291.300781 398.015625 L 291.214844 372.6875 C 291.207031 369.664062 288.792969 367.265625 285.765625 367.277344 C 282.808594 367.289062 280.34375 369.703125 280.355469 372.726562 L 280.441406 398.054688 C 280.449219 401.011719 282.929688 403.476562 285.890625 403.464844 "/><path style=" stroke:none;fill-rule:nonzero;fill:#154371;fill-opacity:1;" d="M 280.6875 470.402344 C 280.695312 473.390625 283.175781 475.824219 286.136719 475.8125 C 289.160156 475.800781 291.558594 473.355469 291.546875 470.367188 L 291.496094 455.894531 C 291.488281 452.902344 289.074219 450.472656 286.050781 450.484375 C 283.089844 450.492188 280.628906 452.941406 280.636719 455.933594 L 280.6875 470.402344 "/><path style=" stroke:none;fill-rule:nonzero;fill:#154371;fill-opacity:1;" d="M 311.28125 422.078125 C 314.304688 422.066406 316.703125 419.621094 316.695312 416.628906 L 316.609375 391.296875 C 316.597656 388.304688 314.183594 385.878906 311.160156 385.886719 C 308.199219 385.898438 305.738281 388.34375 305.746094 391.335938 L 305.835938 416.664062 C 305.84375 419.65625 308.324219 422.085938 311.28125 422.078125 "/><path style=" stroke:none;fill-rule:nonzero;fill:#154371;fill-opacity:1;" d="M 306.324219 561.390625 C 306.335938 564.417969 308.8125 566.8125 311.773438 566.800781 C 314.796875 566.792969 317.195312 564.378906 317.183594 561.355469 L 317.097656 536.027344 C 317.089844 533.035156 314.675781 530.605469 311.652344 530.613281 C 308.691406 530.625 306.230469 533.070312 306.238281 536.0625 L 306.324219 561.390625 "/><path style=" stroke:none;fill-rule:nonzero;fill:#154371;fill-opacity:1;" d="M 306.078125 489.046875 C 306.089844 492.035156 308.570312 494.464844 311.527344 494.457031 C 314.550781 494.445312 316.949219 492 316.941406 489.007812 L 316.890625 474.507812 C 316.878906 471.511719 314.464844 469.117188 311.441406 469.125 C 308.484375 469.136719 306.019531 471.550781 306.03125 474.542969 L 306.078125 489.046875 "/><path style=" stroke:none;fill-rule:nonzero;fill:#154371;fill-opacity:1;" d="M 334.03125 542.601562 C 334.039062 545.5625 336.453125 548.023438 339.476562 548.015625 C 342.46875 548.003906 344.898438 545.523438 344.890625 542.566406 L 344.804688 517.234375 C 344.792969 514.242188 342.347656 511.8125 339.355469 511.824219 C 336.332031 511.832031 333.933594 514.277344 333.945312 517.273438 L 334.03125 542.601562 "/><path style=" stroke:none;fill-rule:nonzero;fill:#154371;fill-opacity:1;" d="M 338.988281 403.285156 C 341.980469 403.277344 344.410156 400.792969 344.398438 397.835938 L 344.3125 372.507812 C 344.304688 369.484375 341.855469 367.085938 338.863281 367.097656 C 335.839844 367.105469 333.441406 369.519531 333.453125 372.542969 L 333.539062 397.875 C 333.550781 400.832031 335.964844 403.296875 338.988281 403.285156 "/><path style=" stroke:none;fill-rule:nonzero;fill:#154371;fill-opacity:1;" d="M 333.785156 470.222656 C 333.792969 473.214844 336.207031 475.644531 339.234375 475.632812 C 342.222656 475.625 344.652344 473.175781 344.644531 470.183594 L 344.59375 455.714844 C 344.585938 452.726562 342.136719 450.292969 339.148438 450.300781 C 336.121094 450.3125 333.726562 452.761719 333.734375 455.75 L 333.785156 470.222656 "/><path style=" stroke:none;fill-rule:nonzero;fill:#154371;fill-opacity:1;" d="M 359.175781 488.863281 C 359.1875 491.859375 361.601562 494.285156 364.625 494.277344 C 367.617188 494.265625 370.046875 491.820312 370.039062 488.828125 L 369.988281 474.324219 C 369.980469 471.335938 367.53125 468.933594 364.539062 468.945312 C 361.515625 468.957031 359.117188 471.371094 359.128906 474.363281 L 359.175781 488.863281 "/><path style=" stroke:none;fill-rule:nonzero;fill:#154371;fill-opacity:1;" d="M 359.421875 561.210938 C 359.433594 564.234375 361.847656 566.632812 364.871094 566.625 C 367.863281 566.613281 370.292969 564.199219 370.28125 561.175781 L 370.195312 535.84375 C 370.1875 532.855469 367.738281 530.421875 364.746094 530.433594 C 361.726562 530.445312 359.328125 532.890625 359.335938 535.882812 L 359.421875 561.210938 "/><path style=" stroke:none;fill-rule:nonzero;fill:#154371;fill-opacity:1;" d="M 364.378906 421.898438 C 367.371094 421.886719 369.800781 419.4375 369.792969 416.449219 L 369.707031 391.117188 C 369.695312 388.125 367.25 385.695312 364.257812 385.707031 C 361.234375 385.714844 358.835938 388.164062 358.847656 391.15625 L 358.929688 416.488281 C 358.941406 419.476562 361.355469 421.90625 364.378906 421.898438 "/><path style=" stroke:none;fill-rule:nonzero;fill:#154371;fill-opacity:1;" d="M 387.09375 542.421875 C 387.105469 545.378906 389.550781 547.84375 392.542969 547.832031 C 395.503906 547.824219 397.964844 545.34375 397.957031 542.382812 L 397.871094 517.054688 C 397.859375 514.066406 395.378906 511.632812 392.421875 511.644531 C 389.429688 511.652344 387 514.101562 387.007812 517.089844 L 387.09375 542.421875 "/><path style=" stroke:none;fill-rule:nonzero;fill:#154371;fill-opacity:1;" d="M 386.847656 470.042969 C 386.859375 473.03125 389.304688 475.464844 392.296875 475.453125 C 395.257812 475.441406 397.71875 472.996094 397.710938 470.003906 L 397.660156 455.535156 C 397.652344 452.542969 395.171875 450.113281 392.210938 450.125 C 389.222656 450.132812 386.789062 452.582031 386.800781 455.574219 L 386.847656 470.042969 "/><path style=" stroke:none;fill-rule:nonzero;fill:#154371;fill-opacity:1;" d="M 392.054688 403.105469 C 395.011719 403.09375 397.472656 400.617188 397.464844 397.65625 L 397.378906 372.328125 C 397.367188 369.304688 394.890625 366.90625 391.929688 366.917969 C 388.9375 366.925781 386.507812 369.339844 386.519531 372.363281 L 386.605469 397.695312 C 386.613281 400.652344 389.0625 403.117188 392.054688 403.105469 "/><path style=" stroke:none;fill-rule:nonzero;fill:#154371;fill-opacity:1;" d="M 412.488281 561.03125 C 412.496094 564.058594 414.945312 566.453125 417.9375 566.441406 C 420.898438 566.433594 423.359375 564.019531 423.347656 560.996094 L 423.261719 535.667969 C 423.253906 532.675781 420.773438 530.242188 417.8125 530.253906 C 414.824219 530.261719 412.394531 532.710938 412.402344 535.703125 L 412.488281 561.03125 "/><path style=" stroke:none;fill-rule:nonzero;fill:#154371;fill-opacity:1;" d="M 412.242188 488.683594 C 412.253906 491.675781 414.699219 494.105469 417.691406 494.09375 C 420.648438 494.085938 423.113281 491.636719 423.101562 488.648438 L 423.054688 474.148438 C 423.042969 471.152344 420.566406 468.757812 417.605469 468.765625 C 414.613281 468.777344 412.183594 471.191406 412.195312 474.183594 L 412.242188 488.683594 "/><path style=" stroke:none;fill-rule:nonzero;fill:#154371;fill-opacity:1;" d="M 417.445312 421.71875 C 420.402344 421.707031 422.867188 419.261719 422.855469 416.269531 L 422.773438 390.9375 C 422.761719 387.945312 420.28125 385.519531 417.324219 385.527344 C 414.332031 385.539062 411.902344 387.984375 411.910156 390.972656 L 411.996094 416.304688 C 412.007812 419.296875 414.457031 421.726562 417.445312 421.71875 "/><path style=" stroke:none;fill-rule:nonzero;fill:#154371;fill-opacity:1;" d="M 445.117188 402.925781 C 448.109375 402.917969 450.507812 400.433594 450.5 397.476562 L 450.410156 372.148438 C 450.402344 369.121094 447.988281 366.726562 444.996094 366.738281 C 442.003906 366.746094 439.574219 369.160156 439.582031 372.1875 L 439.671875 397.515625 C 439.679688 400.472656 442.128906 402.9375 445.117188 402.925781 "/><path style=" stroke:none;fill-rule:nonzero;fill:#154371;fill-opacity:1;" d="M 440.160156 542.242188 C 440.171875 545.203125 442.617188 547.660156 445.609375 547.652344 C 448.601562 547.644531 451 545.164062 450.988281 542.207031 L 450.902344 516.875 C 450.894531 513.882812 448.480469 511.453125 445.484375 511.464844 C 442.496094 511.472656 440.066406 513.917969 440.074219 516.914062 L 440.160156 542.242188 "/><path style=" stroke:none;fill-rule:nonzero;fill:#154371;fill-opacity:1;" d="M 439.914062 469.863281 C 439.925781 472.855469 442.371094 475.285156 445.363281 475.273438 C 448.355469 475.265625 450.753906 472.816406 450.742188 469.824219 L 450.695312 455.355469 C 450.683594 452.367188 448.269531 449.933594 445.277344 449.941406 C 442.285156 449.953125 439.855469 452.402344 439.867188 455.390625 L 439.914062 469.863281 "/><path style=" stroke:none;fill-rule:nonzero;fill:#154371;fill-opacity:1;" d="M 470.511719 421.535156 C 473.503906 421.527344 475.902344 419.078125 475.890625 416.089844 L 475.804688 390.757812 C 475.792969 387.765625 473.378906 385.335938 470.390625 385.347656 C 467.398438 385.355469 464.96875 387.804688 464.976562 390.796875 L 465.0625 416.125 C 465.070312 419.117188 467.519531 421.546875 470.511719 421.535156 "/><path style=" stroke:none;fill-rule:nonzero;fill:#154371;fill-opacity:1;" d="M 465.554688 560.851562 C 465.5625 563.875 468.007812 566.273438 471.003906 566.265625 C 473.996094 566.253906 476.390625 563.839844 476.378906 560.816406 L 476.296875 535.484375 C 476.285156 532.496094 473.871094 530.0625 470.878906 530.074219 C 467.886719 530.085938 465.457031 532.53125 465.46875 535.523438 L 465.554688 560.851562 "/><path style=" stroke:none;fill-rule:nonzero;fill:#154371;fill-opacity:1;" d="M 465.308594 488.503906 C 465.320312 491.496094 467.765625 493.925781 470.757812 493.917969 C 473.75 493.90625 476.144531 491.460938 476.136719 488.46875 L 476.085938 473.964844 C 476.078125 470.976562 473.664062 468.574219 470.671875 468.585938 C 467.679688 468.597656 465.25 471.011719 465.257812 474 L 465.308594 488.503906 "/><path style=" stroke:none;fill-rule:nonzero;fill:#154371;fill-opacity:1;" d="M 498.183594 402.746094 C 501.175781 402.734375 503.605469 400.257812 503.59375 397.296875 L 503.507812 371.96875 C 503.5 368.945312 501.054688 366.546875 498.058594 366.554688 C 495.070312 366.566406 492.640625 368.980469 492.648438 372.003906 L 492.738281 397.335938 C 492.746094 400.292969 495.191406 402.757812 498.183594 402.746094 "/><path style=" stroke:none;fill-rule:nonzero;fill:#154371;fill-opacity:1;" d="M 493.226562 542.0625 C 493.238281 545.019531 495.683594 547.484375 498.675781 547.472656 C 501.664062 547.464844 504.09375 544.984375 504.085938 542.023438 L 504 516.695312 C 503.992188 513.703125 501.542969 511.273438 498.550781 511.28125 C 495.5625 511.292969 493.128906 513.742188 493.140625 516.730469 L 493.226562 542.0625 "/><path style=" stroke:none;fill-rule:nonzero;fill:#154371;fill-opacity:1;" d="M 492.980469 469.683594 C 492.992188 472.671875 495.4375 475.101562 498.429688 475.09375 C 501.421875 475.082031 503.851562 472.636719 503.839844 469.644531 L 503.792969 455.175781 C 503.78125 452.183594 501.332031 449.753906 498.34375 449.765625 C 495.351562 449.773438 492.921875 452.21875 492.933594 455.210938 L 492.980469 469.683594 "/><path style=" stroke:none;fill-rule:nonzero;fill:#154371;fill-opacity:1;" d="M 523.578125 421.355469 C 526.570312 421.347656 529 418.902344 528.992188 415.910156 L 528.902344 390.578125 C 528.894531 387.585938 526.445312 385.15625 523.457031 385.167969 C 520.464844 385.175781 518.03125 387.625 518.042969 390.613281 L 518.128906 415.945312 C 518.136719 418.9375 520.585938 421.367188 523.578125 421.355469 "/><path style=" stroke:none;fill-rule:nonzero;fill:#154371;fill-opacity:1;" d="M 518.617188 560.671875 C 518.628906 563.695312 521.074219 566.09375 524.066406 566.082031 C 527.0625 566.074219 529.488281 563.660156 529.480469 560.636719 L 529.394531 535.308594 C 529.382812 532.3125 526.933594 529.882812 523.945312 529.894531 C 520.953125 529.902344 518.523438 532.351562 518.535156 535.34375 L 518.617188 560.671875 "/><path style=" stroke:none;fill-rule:nonzero;fill:#154371;fill-opacity:1;" d="M 518.375 488.324219 C 518.382812 491.316406 520.832031 493.746094 523.824219 493.734375 C 526.8125 493.726562 529.246094 491.277344 529.234375 488.289062 L 529.183594 473.785156 C 529.175781 470.792969 526.730469 468.398438 523.738281 468.40625 C 520.746094 468.417969 518.316406 470.832031 518.324219 473.824219 L 518.375 488.324219 "/><g clip-rule="nonzero" clip-path="url(#adeae8b2c5)"><path style=" stroke:none;fill-rule:nonzero;fill:#154371;fill-opacity:1;" d="M 545.148438 304.265625 L 545.148438 319.800781 C 545.148438 317.125 543.722656 314.523438 541.019531 312.03125 C 538.039062 309.28125 533.507812 306.675781 527.65625 304.265625 C 524.480469 302.953125 520.902344 301.695312 516.976562 300.496094 L 516.964844 300.496094 C 515.820312 300.148438 514.648438 299.808594 513.441406 299.46875 C 512.890625 299.320312 512.320312 299.164062 511.75 299.015625 C 511.175781 298.855469 510.605469 298.699219 510.011719 298.558594 C 508.402344 298.140625 506.75 297.734375 505.058594 297.34375 C 504.785156 297.269531 504.496094 297.203125 504.210938 297.144531 C 503.695312 297.015625 503.1875 296.898438 502.65625 296.792969 C 502.519531 296.75 502.371094 296.71875 502.222656 296.699219 C 501.441406 296.519531 500.644531 296.347656 499.839844 296.179688 C 499.640625 296.136719 499.4375 296.09375 499.226562 296.050781 C 498.71875 295.9375 498.210938 295.828125 497.683594 295.734375 C 497.5 295.695312 497.3125 295.660156 497.132812 295.628906 C 496.339844 295.460938 495.523438 295.300781 494.710938 295.152344 C 493.894531 294.992188 493.066406 294.835938 492.242188 294.6875 C 492.007812 294.644531 491.765625 294.601562 491.53125 294.558594 C 490.582031 294.390625 489.617188 294.222656 488.644531 294.050781 C 487.667969 293.882812 486.683594 293.722656 485.691406 293.566406 C 484.789062 293.417969 483.882812 293.269531 482.960938 293.132812 C 481.691406 292.929688 480.402344 292.738281 479.097656 292.5625 C 477.140625 292.273438 475.152344 292.011719 473.128906 291.753906 C 472.292969 291.640625 471.445312 291.53125 470.589844 291.4375 C 469.792969 291.34375 468.988281 291.25 468.183594 291.152344 C 467.796875 291.101562 467.390625 291.058594 466.980469 291.015625 C 466.292969 290.929688 465.589844 290.855469 464.894531 290.78125 C 463.753906 290.65625 462.585938 290.539062 461.421875 290.414062 C 461 290.378906 460.574219 290.339844 460.152344 290.292969 C 455.199219 289.796875 450.097656 289.375 444.871094 289.023438 C 443.925781 288.960938 442.984375 288.898438 442.03125 288.835938 C 437.8125 288.570312 433.503906 288.359375 429.121094 288.175781 C 427.546875 288.117188 425.96875 288.050781 424.371094 288.007812 C 421.777344 287.925781 419.152344 287.859375 416.503906 287.808594 C 415.246094 287.785156 413.976562 287.765625 412.703125 287.753906 C 410.136719 287.722656 407.53125 287.703125 404.917969 287.703125 C 402.304688 287.703125 399.699219 287.722656 397.128906 287.753906 C 395.855469 287.765625 394.585938 287.785156 393.328125 287.808594 C 390.683594 287.859375 388.058594 287.925781 385.464844 288.007812 C 383.867188 288.050781 382.289062 288.117188 380.710938 288.175781 C 376.332031 288.359375 372.023438 288.570312 367.800781 288.835938 C 366.847656 288.898438 365.90625 288.960938 364.964844 289.023438 C 359.734375 289.375 354.636719 289.796875 349.679688 290.292969 C 349.257812 290.339844 348.835938 290.378906 348.410156 290.414062 C 347.246094 290.539062 346.082031 290.65625 344.941406 290.78125 C 344.242188 290.855469 343.542969 290.929688 342.855469 291.015625 C 342.441406 291.058594 342.039062 291.101562 341.648438 291.152344 C 340.84375 291.25 340.039062 291.34375 339.246094 291.4375 C 338.386719 291.53125 337.542969 291.640625 336.707031 291.753906 C 334.683594 292.011719 332.695312 292.273438 330.738281 292.5625 C 329.433594 292.738281 328.144531 292.929688 326.875 293.132812 C 325.953125 293.269531 325.042969 293.417969 324.144531 293.566406 C 323.148438 293.722656 322.164062 293.882812 321.191406 294.050781 C 320.214844 294.222656 319.253906 294.390625 318.300781 294.558594 C 318.066406 294.601562 317.824219 294.644531 317.589844 294.6875 C 316.765625 294.835938 315.941406 294.992188 315.125 295.152344 C 314.3125 295.300781 313.496094 295.460938 312.703125 295.628906 C 312.523438 295.660156 312.332031 295.695312 312.152344 295.734375 C 311.621094 295.828125 311.113281 295.9375 310.605469 296.050781 C 310.394531 296.09375 310.195312 296.136719 309.992188 296.179688 C 309.1875 296.347656 308.394531 296.519531 307.609375 296.699219 C 307.464844 296.71875 307.316406 296.75 307.175781 296.792969 C 306.648438 296.898438 306.140625 297.015625 305.621094 297.144531 C 305.335938 297.203125 305.050781 297.269531 304.777344 297.34375 C 303.082031 297.734375 301.429688 298.140625 299.820312 298.558594 C 299.230469 298.699219 298.65625 298.855469 298.085938 299.015625 C 297.515625 299.164062 296.941406 299.320312 296.394531 299.46875 C 295.1875 299.808594 294.011719 300.148438 292.867188 300.496094 L 292.859375 300.496094 C 288.929688 301.695312 285.355469 302.953125 282.179688 304.265625 C 276.328125 306.675781 271.796875 309.28125 268.8125 312.03125 C 266.113281 314.523438 264.683594 317.125 264.683594 319.800781 L 264.683594 304.265625 C 264.683594 290.601562 301.980469 278.929688 354.539062 274.304688 C 355.257812 270.652344 357.070312 267.382812 359.609375 264.839844 C 362.953125 261.488281 367.589844 259.410156 372.699219 259.410156 L 389.347656 259.410156 L 389.347656 243.007812 L 424.03125 243.007812 L 424.03125 259.410156 L 440.679688 259.410156 C 449.769531 259.410156 457.347656 265.984375 458.894531 274.628906 C 509.546875 279.464844 545.148438 290.917969 545.148438 304.265625 "/></g><path style=" stroke:none;fill-rule:nonzero;fill:#154371;fill-opacity:1;" d="M 540.894531 325.09375 C 540.894531 339.875 480.015625 351.851562 404.917969 351.851562 C 329.820312 351.851562 268.941406 339.875 268.941406 325.09375 C 268.941406 310.320312 329.820312 298.339844 404.917969 298.339844 C 480.015625 298.339844 540.894531 310.320312 540.894531 325.09375 "/></g></svg>