<svg xmlns="http://www.w3.org/2000/svg" xmlns:xlink="http://www.w3.org/1999/xlink" width="200" zoomAndPan="magnify" viewBox="0 0 150 157.92" height="200" preserveAspectRatio="xMidYMid meet" version="1.2"><defs><clipPath id="b165efc1dd"><path d="M 0.0390625 11.992188 L 149.960938 11.992188 L 149.960938 137.929688 L 0.0390625 137.929688 Z M 0.0390625 11.992188 "/></clipPath></defs><g id="4e1d4335fe"><g clip-rule="nonzero" clip-path="url(#b165efc1dd)"><path style=" stroke:none;fill-rule:nonzero;fill:#ffa800;fill-opacity:1;" d="M 148.925781 130.90625 L 125.214844 99.039062 C 123.019531 96.179688 117.039062 94.652344 112.515625 94.652344 L 37.484375 94.652344 C 32.960938 94.652344 26.980469 96.179688 24.761719 99.0625 L 1.097656 130.859375 C 0.296875 131.902344 0.144531 133.164062 0.695312 134.273438 C 2.183594 137.308594 8.652344 137.929688 13.816406 137.929688 L 136.207031 137.929688 C 141.371094 137.929688 147.816406 137.289062 149.324219 134.273438 C 149.855469 133.164062 149.703125 131.902344 148.925781 130.90625 Z M 27.6875 130.019531 L 19.84375 130.019531 L 36.550781 102.585938 L 40.675781 102.585938 Z M 53.527344 130.019531 L 45.261719 130.019531 L 54.546875 102.585938 L 59.089844 102.585938 Z M 70.789062 130.019531 L 72.652344 102.585938 L 77.371094 102.585938 L 79.234375 130.019531 Z M 96.472656 130.019531 L 90.910156 102.585938 L 95.476562 102.585938 L 104.738281 130.019531 Z M 122.3125 130.019531 L 109.304688 102.585938 L 113.425781 102.585938 L 130.132812 130.019531 Z M 73.539062 87.449219 C 81.824219 87.449219 88.5625 80.734375 88.5625 72.425781 C 88.5625 64.136719 73.539062 46.429688 73.539062 46.429688 C 73.539062 46.429688 58.511719 64.136719 58.511719 72.425781 C 58.511719 80.710938 65.25 87.449219 73.539062 87.449219 Z M 72.652344 80.492188 C 77.503906 80.492188 81.425781 76.570312 81.425781 71.714844 C 82.625 71.714844 83.84375 71.714844 85.039062 71.714844 C 85.039062 78.5625 79.5 84.101562 72.652344 84.101562 C 72.652344 82.90625 72.652344 81.6875 72.652344 80.492188 Z M 103.230469 53.011719 C 111.519531 53.011719 118.257812 46.296875 118.257812 37.988281 C 118.257812 29.699219 103.230469 11.992188 103.230469 11.992188 C 103.230469 11.992188 88.207031 29.699219 88.207031 37.988281 C 88.230469 46.277344 94.945312 53.011719 103.230469 53.011719 Z M 102.34375 46.054688 C 107.199219 46.054688 111.121094 42.132812 111.121094 37.277344 C 112.339844 37.277344 113.535156 37.277344 114.734375 37.277344 C 114.734375 44.125 109.191406 49.667969 102.34375 49.667969 C 102.34375 48.46875 102.34375 47.25 102.34375 46.054688 Z M 43.820312 53.011719 C 52.109375 53.011719 58.84375 46.296875 58.84375 37.988281 C 58.84375 29.699219 43.820312 11.992188 43.820312 11.992188 C 43.820312 11.992188 28.796875 29.699219 28.796875 37.988281 C 28.816406 46.277344 35.53125 53.011719 43.820312 53.011719 Z M 42.957031 46.054688 C 47.808594 46.054688 51.730469 42.132812 51.730469 37.277344 C 52.949219 37.277344 54.148438 37.277344 55.34375 37.277344 C 55.34375 44.125 49.804688 49.667969 42.957031 49.667969 C 42.957031 48.46875 42.957031 47.25 42.957031 46.054688 Z M 42.957031 46.054688 "/></g></g></svg>