<svg xmlns="http://www.w3.org/2000/svg" xmlns:xlink="http://www.w3.org/1999/xlink" width="200" zoomAndPan="magnify" viewBox="0 0 150 157.92" height="200" preserveAspectRatio="xMidYMid meet" version="1.2"><defs><clipPath id="748fbf7a73"><path d="M 0.0390625 0 L 149.960938 0 L 149.960938 149.925781 L 0.0390625 149.925781 Z M 0.0390625 0 "/></clipPath></defs><g id="d479b137e2"><g clip-rule="nonzero" clip-path="url(#748fbf7a73)"><path style=" stroke:none;fill-rule:nonzero;fill:#ffa800;fill-opacity:1;" d="M 22.664062 36.058594 C 21.371094 35.957031 20.402344 34.824219 20.503906 33.53125 L 20.765625 30.292969 C 10.355469 42.914062 4.742188 58.59375 4.742188 74.960938 C 4.742188 89.328125 9.0625 103.195312 17.257812 114.996094 C 18 116.0625 17.738281 117.527344 16.671875 118.265625 C 15.605469 119.007812 14.140625 118.746094 13.402344 117.679688 C 4.667969 105.109375 0.0390625 90.261719 0.0390625 74.960938 C 0.0390625 57.132812 6.328125 40.015625 17.871094 26.441406 L 13.746094 26.773438 C 12.449219 26.875 11.320312 25.90625 11.21875 24.613281 C 11.117188 23.320312 12.082031 22.1875 13.378906 22.085938 L 23.472656 21.277344 C 24.925781 21.164062 26.132812 22.402344 25.996094 23.839844 L 25.1875 33.898438 C 25.089844 35.191406 23.957031 36.160156 22.664062 36.058594 Z M 115.035156 132.703125 C 103.234375 140.898438 89.363281 145.21875 75 145.21875 C 58.632812 145.21875 42.949219 139.605469 30.328125 129.199219 L 33.570312 129.457031 C 34.863281 129.558594 35.992188 128.59375 36.09375 127.296875 C 36.195312 126.003906 35.230469 124.875 33.9375 124.773438 L 23.878906 123.964844 C 22.441406 123.832031 21.199219 125.035156 21.3125 126.488281 L 22.125 136.585938 C 22.226562 137.878906 23.355469 138.84375 24.652344 138.742188 C 25.945312 138.640625 26.910156 137.511719 26.808594 136.21875 L 26.476562 132.089844 C 40.054688 143.636719 57.167969 149.925781 75 149.925781 C 90.300781 149.925781 105.148438 145.292969 117.71875 136.5625 C 118.78125 135.820312 119.046875 134.355469 118.304688 133.289062 C 117.5625 132.226562 116.101562 131.960938 115.035156 132.703125 Z M 136.253906 123.152344 L 132.128906 123.484375 C 143.671875 109.90625 149.960938 92.792969 149.960938 74.960938 C 149.960938 59.660156 145.332031 44.8125 136.597656 32.246094 C 135.859375 31.179688 134.394531 30.917969 133.328125 31.65625 C 132.261719 32.398438 132 33.863281 132.742188 34.925781 C 140.9375 46.726562 145.257812 60.597656 145.257812 74.960938 C 145.257812 91.332031 139.644531 107.011719 129.234375 119.632812 L 129.496094 116.394531 C 129.597656 115.097656 128.628906 113.96875 127.335938 113.867188 C 126.042969 113.765625 124.910156 114.730469 124.808594 116.027344 L 124.003906 126.082031 C 123.867188 127.523438 125.074219 128.761719 126.527344 128.648438 L 136.621094 127.835938 C 137.917969 127.734375 138.882812 126.605469 138.78125 125.3125 C 138.679688 124.015625 137.550781 123.050781 136.253906 123.152344 Z M 118.0625 83.59375 C 116.921875 89.308594 114.675781 94.625 111.550781 99.304688 L 117.679688 105.433594 L 105.472656 117.640625 L 99.34375 111.511719 C 94.664062 114.636719 89.347656 116.886719 83.632812 118.027344 L 83.632812 126.6875 L 66.367188 126.6875 L 66.367188 118.027344 C 60.652344 116.886719 55.335938 114.636719 50.65625 111.511719 L 44.527344 117.640625 L 32.320312 105.433594 L 38.449219 99.304688 C 35.324219 94.625 33.078125 89.308594 31.9375 83.59375 L 23.273438 83.59375 L 23.273438 66.332031 L 31.9375 66.332031 C 33.078125 60.613281 35.324219 55.300781 38.449219 50.617188 L 32.320312 44.492188 L 44.527344 32.285156 L 50.65625 38.410156 C 55.335938 35.285156 60.652344 33.039062 66.367188 31.898438 L 66.367188 23.238281 L 83.632812 23.238281 L 83.632812 31.898438 C 89.347656 33.039062 94.660156 35.289062 99.34375 38.410156 L 105.472656 32.285156 L 117.679688 44.492188 L 111.550781 50.617188 C 114.675781 55.300781 116.921875 60.613281 118.0625 66.332031 L 126.722656 66.332031 L 126.722656 83.59375 Z M 104.160156 74.960938 C 104.160156 58.859375 91.105469 45.804688 75 45.804688 C 58.894531 45.804688 45.839844 58.859375 45.839844 74.960938 C 45.839844 91.066406 58.894531 104.121094 75 104.121094 C 91.105469 104.121094 104.160156 91.066406 104.160156 74.960938 Z M 75 50.507812 C 61.492188 50.507812 50.542969 61.457031 50.542969 74.960938 C 50.542969 86.007812 57.957031 95.683594 68.582031 98.566406 L 68.582031 80.519531 L 62.308594 80.519531 C 60.921875 80.519531 60.074219 78.921875 60.960938 77.773438 L 73.652344 61.347656 C 74.335938 60.464844 75.664062 60.464844 76.347656 61.347656 L 89.039062 77.773438 C 89.929688 78.921875 89.078125 80.519531 87.691406 80.519531 L 81.417969 80.519531 L 81.417969 98.566406 C 92.042969 95.6875 99.457031 86.011719 99.457031 74.960938 C 99.457031 61.457031 88.507812 50.507812 75 50.507812 Z M 34.964844 17.222656 C 46.765625 9.023438 60.636719 4.703125 75 4.703125 C 91.367188 4.703125 107.050781 10.316406 119.671875 20.726562 L 116.429688 20.464844 C 115.136719 20.363281 114.007812 21.332031 113.90625 22.625 C 113.804688 23.917969 114.769531 25.050781 116.0625 25.152344 L 126.121094 25.957031 C 127.558594 26.09375 128.800781 24.886719 128.6875 23.433594 L 127.875 13.339844 C 127.773438 12.046875 126.644531 11.078125 125.347656 11.179688 C 124.054688 11.28125 123.089844 12.414062 123.191406 13.707031 L 123.523438 17.832031 C 109.945312 6.289062 92.832031 0 75 0 C 59.699219 0 44.851562 4.632812 32.28125 13.363281 C 31.21875 14.105469 30.953125 15.566406 31.695312 16.632812 C 32.4375 17.699219 33.898438 17.960938 34.964844 17.222656 Z M 34.964844 17.222656 "/></g></g></svg>