<svg xmlns="http://www.w3.org/2000/svg" xmlns:xlink="http://www.w3.org/1999/xlink" width="200" zoomAndPan="magnify" viewBox="0 0 150 157.92" height="200" preserveAspectRatio="xMidYMid meet" version="1.2"><defs><clipPath id="2d62c04f48"><path d="M 0.0390625 57 L 149.960938 57 L 149.960938 144.269531 L 0.0390625 144.269531 Z M 0.0390625 57 "/></clipPath><clipPath id="e9ed6c7b13"><path d="M 31 125 L 49 125 L 49 144.269531 L 31 144.269531 Z M 31 125 "/></clipPath><clipPath id="dc62aa1a6a"><path d="M 23 5.589844 L 42 5.589844 L 42 75 L 23 75 Z M 23 5.589844 "/></clipPath></defs><g id="1a536ade4c"><path style=" stroke:none;fill-rule:nonzero;fill:#ffa800;fill-opacity:1;" d="M 73.074219 58.53125 C 73.074219 57.855469 73.621094 57.304688 74.296875 57.304688 L 77.6875 57.304688 L 77.6875 54.859375 L 70.304688 54.859375 L 70.304688 64.261719 L 73.074219 65.597656 Z M 73.074219 58.53125 "/><path style=" stroke:none;fill-rule:nonzero;fill:#ffa800;fill-opacity:1;" d="M 77.6875 67.824219 L 77.6875 59.753906 L 75.523438 59.753906 L 75.523438 66.777344 Z M 77.6875 67.824219 "/><path style=" stroke:none;fill-rule:nonzero;fill:#ffa800;fill-opacity:1;" d="M 99.039062 55.660156 C 99.039062 55.238281 99.257812 54.847656 99.613281 54.621094 C 99.972656 54.398438 100.417969 54.375 100.796875 54.558594 L 109.988281 58.996094 L 109.988281 49.609375 C 109.988281 41.378906 103.292969 34.679688 95.0625 34.679688 C 93.773438 34.679688 92.53125 34.863281 91.335938 35.171875 C 91.117188 35.375 90.828125 35.507812 90.503906 35.507812 C 90.4375 35.507812 90.378906 35.480469 90.3125 35.46875 C 84.40625 37.460938 80.136719 43.039062 80.136719 49.605469 L 80.136719 69.007812 L 99.039062 78.132812 Z M 99.039062 55.660156 "/><path style=" stroke:none;fill-rule:nonzero;fill:#ffa800;fill-opacity:1;" d="M 61.328125 11.339844 L 55.207031 11.339844 L 53.691406 56.238281 L 62.996094 60.734375 Z M 61.328125 11.339844 "/><g clip-rule="nonzero" clip-path="url(#2d62c04f48)"><path style=" stroke:none;fill-rule:nonzero;fill:#ffa800;fill-opacity:1;" d="M 101.488281 57.609375 L 101.488281 80.082031 C 101.488281 80.503906 101.273438 80.894531 100.917969 81.117188 C 100.558594 81.34375 100.113281 81.367188 99.734375 81.183594 L 51.925781 58.105469 L 50.898438 57.609375 L 50.898438 80.082031 C 50.898438 80.503906 50.679688 80.894531 50.324219 81.117188 C 49.96875 81.34375 49.519531 81.367188 49.140625 81.183594 L 0.304688 57.609375 L 0.304688 144.308594 L 29.367188 144.308594 L 29.367188 124.273438 C 29.367188 123.59375 29.914062 123.046875 30.589844 123.046875 L 49.671875 123.046875 C 50.347656 123.046875 50.894531 123.59375 50.894531 124.273438 L 50.894531 144.304688 L 149.632812 144.304688 L 149.632812 80.851562 Z M 20.664062 107.074219 L 5.625 107.074219 L 5.625 92.035156 L 20.664062 92.035156 Z M 140.707031 118.570312 C 140.707031 119.246094 140.160156 119.796875 139.484375 119.796875 L 61.046875 119.796875 C 60.371094 119.796875 59.820312 119.246094 59.820312 118.570312 L 59.820312 94.675781 C 59.820312 94 60.371094 93.453125 61.046875 93.453125 L 139.480469 93.453125 C 140.15625 93.453125 140.707031 94 140.707031 94.675781 Z M 140.707031 118.570312 "/></g><g clip-rule="nonzero" clip-path="url(#e9ed6c7b13)"><path style=" stroke:none;fill-rule:nonzero;fill:#ffa800;fill-opacity:1;" d="M 31.8125 125.496094 L 48.449219 125.496094 L 48.449219 144.304688 L 31.8125 144.304688 Z M 31.8125 125.496094 "/></g><path style=" stroke:none;fill-rule:nonzero;fill:#ffa800;fill-opacity:1;" d="M 112.4375 60.175781 L 119.425781 63.550781 L 119.425781 59.753906 L 112.4375 59.753906 Z M 112.4375 60.175781 "/><path style=" stroke:none;fill-rule:nonzero;fill:#ffa800;fill-opacity:1;" d="M 95.480469 32.253906 L 95.480469 27.527344 C 95.480469 26.851562 96.03125 26.300781 96.707031 26.300781 L 131.777344 26.300781 C 132.453125 26.300781 133.003906 26.851562 133.003906 27.527344 L 133.003906 45.46875 C 134.253906 45.441406 135.503906 45.492188 136.757812 45.628906 L 136.757812 22.835938 L 91.726562 22.835938 L 91.726562 32.5625 C 92.808594 32.351562 93.921875 32.230469 95.0625 32.230469 C 95.203125 32.230469 95.339844 32.25 95.480469 32.253906 Z M 95.480469 32.253906 "/><path style=" stroke:none;fill-rule:nonzero;fill:#ffa800;fill-opacity:1;" d="M 112.4375 54.859375 L 119.425781 54.859375 L 119.425781 57.304688 L 112.4375 57.304688 Z M 112.4375 54.859375 "/><path style=" stroke:none;fill-rule:nonzero;fill:#ffa800;fill-opacity:1;" d="M 119.425781 49.835938 C 119.425781 49.371094 119.691406 48.941406 120.113281 48.738281 C 123.578125 47.046875 127.0625 46.015625 130.554688 45.628906 L 130.554688 28.75 L 97.929688 28.75 L 97.929688 32.488281 C 106.148438 33.863281 112.4375 41.003906 112.4375 49.605469 L 112.4375 52.410156 L 119.425781 52.410156 Z M 119.425781 49.835938 "/><path style=" stroke:none;fill-rule:nonzero;fill:#ffa800;fill-opacity:1;" d="M 145.429688 50.609375 C 137.609375 47.011719 129.691406 47.011719 121.871094 50.609375 L 121.871094 64.730469 L 145.429688 76.101562 Z M 145.429688 50.609375 "/><g clip-rule="nonzero" clip-path="url(#dc62aa1a6a)"><path style=" stroke:none;fill-rule:nonzero;fill:#ffa800;fill-opacity:1;" d="M 35.726562 5.589844 L 28.851562 5.589844 L 23.515625 66.097656 L 41.839844 74.941406 Z M 35.726562 5.589844 "/></g><path style=" stroke:none;fill-rule:nonzero;fill:#ffa800;fill-opacity:1;" d="M 81.621094 95.902344 L 99.039062 95.902344 L 99.039062 105.402344 L 81.621094 105.402344 Z M 81.621094 95.902344 "/><path style=" stroke:none;fill-rule:nonzero;fill:#ffa800;fill-opacity:1;" d="M 121.355469 107.847656 L 138.257812 107.847656 L 138.257812 117.347656 L 121.355469 117.347656 Z M 121.355469 107.847656 "/><path style=" stroke:none;fill-rule:nonzero;fill:#ffa800;fill-opacity:1;" d="M 101.488281 107.847656 L 118.910156 107.847656 L 118.910156 117.347656 L 101.488281 117.347656 Z M 101.488281 107.847656 "/><path style=" stroke:none;fill-rule:nonzero;fill:#ffa800;fill-opacity:1;" d="M 121.355469 95.902344 L 138.257812 95.902344 L 138.257812 105.402344 L 121.355469 105.402344 Z M 121.355469 95.902344 "/><path style=" stroke:none;fill-rule:nonzero;fill:#ffa800;fill-opacity:1;" d="M 101.488281 95.902344 L 118.910156 95.902344 L 118.910156 105.402344 L 101.488281 105.402344 Z M 101.488281 95.902344 "/><path style=" stroke:none;fill-rule:nonzero;fill:#ffa800;fill-opacity:1;" d="M 62.269531 95.902344 L 79.171875 95.902344 L 79.171875 105.402344 L 62.269531 105.402344 Z M 62.269531 95.902344 "/><path style=" stroke:none;fill-rule:nonzero;fill:#ffa800;fill-opacity:1;" d="M 62.269531 107.847656 L 79.171875 107.847656 L 79.171875 117.347656 L 62.269531 117.347656 Z M 62.269531 107.847656 "/><path style=" stroke:none;fill-rule:nonzero;fill:#ffa800;fill-opacity:1;" d="M 81.621094 107.847656 L 99.039062 107.847656 L 99.039062 117.347656 L 81.621094 117.347656 Z M 81.621094 107.847656 "/></g></svg>