<svg xmlns="http://www.w3.org/2000/svg" xmlns:xlink="http://www.w3.org/1999/xlink" width="200" zoomAndPan="magnify" viewBox="0 0 150 157.92" height="200" preserveAspectRatio="xMidYMid meet" version="1.2"><defs><clipPath id="77c4b02c88"><path d="M 1.257812 0 L 148.929688 0 L 148.929688 149.925781 L 1.257812 149.925781 Z M 1.257812 0 "/></clipPath></defs><g id="551845370e"><g clip-rule="nonzero" clip-path="url(#77c4b02c88)"><path style=" stroke:none;fill-rule:nonzero;fill:#ffa800;fill-opacity:1;" d="M 147.339844 44.601562 L 76.449219 0.375 C 75.648438 -0.125 74.601562 -0.125 73.800781 0.375 L 2.910156 44.601562 C 2.1875 45.078125 1.738281 45.875 1.738281 46.726562 L 1.738281 147.425781 C 1.738281 148.800781 2.863281 149.925781 4.234375 149.925781 L 72.625 149.925781 L 72.625 93.800781 L 66.703125 88.03125 C 61.832031 83.308594 59.15625 77.011719 59.15625 70.3125 C 59.15625 63.617188 61.832031 57.296875 66.679688 52.546875 L 73.375 46.027344 C 74.351562 45.078125 75.898438 45.078125 76.875 46.027344 L 83.546875 52.546875 C 88.417969 57.296875 91.09375 63.617188 91.09375 70.3125 C 91.09375 73.664062 90.417969 76.910156 89.144531 79.910156 C 87.867188 82.90625 85.96875 85.65625 83.546875 88.03125 L 77.625 93.800781 L 77.625 149.925781 L 146.015625 149.925781 C 147.386719 149.925781 148.511719 148.800781 148.511719 147.425781 L 148.511719 46.726562 C 148.511719 45.875 148.0625 45.078125 147.339844 44.601562 Z M 60.957031 95.078125 C 64.804688 98.925781 66.902344 104.023438 66.878906 109.417969 L 66.855469 116.789062 C 66.855469 118.164062 65.730469 119.265625 64.355469 119.265625 L 56.859375 119.289062 L 56.785156 119.289062 C 51.1875 119.289062 45.964844 117.140625 42.042969 113.21875 C 38.167969 109.371094 36.070312 104.273438 36.070312 98.851562 L 36.09375 91.480469 C 36.09375 90.105469 37.21875 89.003906 38.59375 89.003906 L 46.089844 88.980469 L 46.113281 88.980469 C 51.761719 88.980469 57.035156 91.128906 60.957031 95.078125 Z M 89.292969 95.078125 C 93.214844 91.128906 98.488281 88.980469 104.109375 88.980469 C 104.136719 88.980469 104.160156 88.980469 104.160156 88.980469 L 111.65625 89.003906 C 113.03125 89.003906 114.15625 90.105469 114.15625 91.480469 L 114.179688 98.851562 C 114.179688 104.273438 112.082031 109.371094 108.207031 113.21875 C 104.285156 117.140625 99.0625 119.289062 93.464844 119.289062 L 93.390625 119.289062 L 85.894531 119.265625 C 84.519531 119.265625 83.394531 118.164062 83.394531 116.789062 L 83.371094 109.417969 C 83.347656 104.023438 85.445312 98.925781 89.292969 95.078125 Z M 89.292969 95.078125 "/></g></g></svg>