<svg xmlns="http://www.w3.org/2000/svg" xmlns:xlink="http://www.w3.org/1999/xlink" width="200" zoomAndPan="magnify" viewBox="0 0 150 157.92" height="200" preserveAspectRatio="xMidYMid meet" version="1.2"><defs><clipPath id="ab31f9a9e9"><path d="M 0.0390625 10.027344 L 149 10.027344 L 149 139.710938 L 0.0390625 139.710938 Z M 0.0390625 10.027344 "/></clipPath></defs><g id="d8c6fd6b97"><g clip-rule="nonzero" clip-path="url(#ab31f9a9e9)"><path style=" stroke:none;fill-rule:nonzero;fill:#ffa800;fill-opacity:1;" d="M 144.460938 28.988281 L 135.375 44.722656 L 126.492188 44.722656 L 122.046875 37.03125 L 131.136719 21.292969 C 130.183594 21.183594 129.230469 21.144531 128.273438 21.171875 C 127.316406 21.203125 126.367188 21.300781 125.425781 21.46875 C 124.480469 21.632812 123.554688 21.867188 122.644531 22.167969 C 121.738281 22.464844 120.855469 22.832031 119.996094 23.257812 C 119.140625 23.683594 118.320312 24.171875 117.535156 24.71875 C 116.746094 25.265625 116.003906 25.863281 115.304688 26.519531 C 114.605469 27.171875 113.957031 27.871094 113.359375 28.617188 C 112.757812 29.367188 112.21875 30.152344 111.734375 30.976562 C 111.269531 31.761719 110.867188 32.578125 110.519531 33.417969 C 110.171875 34.261719 109.886719 35.125 109.660156 36.007812 C 109.433594 36.890625 109.269531 37.785156 109.171875 38.691406 C 109.070312 39.597656 109.035156 40.503906 109.0625 41.414062 C 109.089844 42.324219 109.183594 43.230469 109.335938 44.128906 C 109.492188 45.027344 109.710938 45.910156 109.988281 46.777344 C 110.269531 47.644531 110.605469 48.488281 111.003906 49.304688 C 111.402344 50.125 111.855469 50.914062 112.363281 51.671875 C 97.960938 76.617188 83.554688 101.570312 69.152344 126.523438 C 68.859375 127.023438 68.621094 127.546875 68.433594 128.089844 C 68.242188 128.636719 68.109375 129.195312 68.035156 129.765625 C 67.957031 130.339844 67.933594 130.914062 67.96875 131.488281 C 68.007812 132.066406 68.097656 132.632812 68.246094 133.191406 C 68.394531 133.746094 68.59375 134.285156 68.847656 134.804688 C 69.105469 135.320312 69.40625 135.808594 69.757812 136.269531 C 70.109375 136.726562 70.5 137.144531 70.933594 137.527344 C 71.367188 137.90625 71.832031 138.242188 72.332031 138.53125 C 72.832031 138.820312 73.355469 139.054688 73.902344 139.242188 C 74.449219 139.425781 75.007812 139.554688 75.582031 139.632812 C 76.15625 139.707031 76.726562 139.722656 77.304688 139.683594 C 77.878906 139.644531 78.445312 139.550781 79.003906 139.398438 C 79.558594 139.25 80.097656 139.042969 80.613281 138.789062 C 81.128906 138.53125 81.617188 138.226562 82.074219 137.871094 C 82.53125 137.519531 82.949219 137.125 83.324219 136.6875 C 83.703125 136.253906 84.035156 135.785156 84.324219 135.28125 C 98.726562 110.332031 113.132812 85.382812 127.535156 60.425781 C 134.742188 60.867188 141.8125 57.496094 145.777344 50.632812 C 146.25 49.800781 146.660156 48.9375 147.007812 48.046875 C 147.355469 47.15625 147.636719 46.242188 147.851562 45.308594 C 148.070312 44.378906 148.21875 43.433594 148.296875 42.480469 C 148.375 41.527344 148.386719 40.570312 148.328125 39.617188 C 148.273438 38.660156 148.144531 37.714844 147.949219 36.777344 C 147.757812 35.839844 147.496094 34.921875 147.167969 34.019531 C 146.839844 33.121094 146.449219 32.25 145.996094 31.40625 C 145.542969 30.5625 145.03125 29.757812 144.460938 28.988281 Z M 78.921875 131.261719 L 78.761719 131.546875 C 78.621094 131.789062 78.445312 131.992188 78.226562 132.160156 C 78.011719 132.328125 77.769531 132.445312 77.503906 132.519531 C 77.238281 132.589844 76.96875 132.609375 76.695312 132.574219 C 76.421875 132.539062 76.167969 132.453125 75.929688 132.316406 C 75.6875 132.179688 75.484375 132 75.316406 131.785156 C 75.148438 131.566406 75.03125 131.324219 74.957031 131.058594 C 74.886719 130.792969 74.867188 130.523438 74.902344 130.25 C 74.9375 129.976562 75.023438 129.722656 75.160156 129.484375 L 75.328125 129.195312 C 75.464844 128.957031 75.644531 128.757812 75.859375 128.589844 C 76.078125 128.421875 76.320312 128.300781 76.585938 128.230469 C 76.851562 128.15625 77.117188 128.140625 77.390625 128.175781 C 77.664062 128.210938 77.917969 128.296875 78.15625 128.433594 C 78.394531 128.570312 78.597656 128.75 78.765625 128.964844 C 78.933594 129.183594 79.050781 129.425781 79.125 129.691406 C 79.195312 129.953125 79.214844 130.222656 79.179688 130.496094 C 79.144531 130.769531 79.058594 131.023438 78.921875 131.261719 Z M 120.035156 60.058594 L 82.171875 125.625 C 82.039062 125.863281 81.859375 126.066406 81.644531 126.238281 C 81.425781 126.40625 81.183594 126.527344 80.917969 126.597656 C 80.652344 126.671875 80.382812 126.691406 80.109375 126.65625 C 79.835938 126.621094 79.578125 126.535156 79.339844 126.398438 C 79.101562 126.257812 78.898438 126.082031 78.730469 125.863281 C 78.5625 125.644531 78.441406 125.402344 78.371094 125.136719 C 78.300781 124.867188 78.28125 124.597656 78.320312 124.324219 C 78.355469 124.050781 78.445312 123.796875 78.582031 123.558594 L 116.4375 57.992188 C 116.574219 57.753906 116.75 57.550781 116.96875 57.382812 C 117.1875 57.214844 117.425781 57.09375 117.691406 57.023438 C 117.957031 56.949219 118.226562 56.933594 118.5 56.96875 C 118.773438 57.003906 119.03125 57.089844 119.269531 57.226562 C 119.507812 57.363281 119.710938 57.539062 119.878906 57.757812 C 120.046875 57.976562 120.167969 58.21875 120.238281 58.484375 C 120.308594 58.75 120.328125 59.015625 120.292969 59.289062 C 120.257812 59.5625 120.171875 59.820312 120.035156 60.058594 Z M 75.816406 51.585938 C 76.019531 51.789062 76.203125 52.011719 76.359375 52.25 C 76.519531 52.492188 76.652344 52.742188 76.761719 53.007812 C 76.871094 53.273438 76.957031 53.546875 77.011719 53.832031 C 77.066406 54.113281 77.09375 54.398438 77.09375 54.683594 C 77.09375 54.972656 77.066406 55.257812 77.011719 55.539062 C 76.957031 55.820312 76.871094 56.09375 76.761719 56.359375 C 76.652344 56.625 76.519531 56.878906 76.359375 57.117188 C 76.203125 57.355469 76.019531 57.578125 75.816406 57.78125 L 52.632812 80.960938 C 52.425781 81.164062 52.207031 81.34375 51.96875 81.503906 C 51.726562 81.664062 51.476562 81.800781 51.210938 81.910156 C 50.945312 82.019531 50.671875 82.101562 50.386719 82.160156 C 50.105469 82.214844 49.820312 82.242188 49.535156 82.242188 C 49.246094 82.242188 48.960938 82.214844 48.679688 82.160156 C 48.394531 82.101562 48.121094 82.019531 47.855469 81.910156 C 47.589844 81.800781 47.339844 81.664062 47.097656 81.503906 C 46.859375 81.34375 46.640625 81.164062 46.4375 80.960938 L 36.9375 71.460938 C 36.734375 71.257812 36.554688 71.035156 36.398438 70.796875 C 36.242188 70.558594 36.109375 70.304688 36 70.042969 C 35.890625 69.777344 35.808594 69.503906 35.753906 69.222656 C 35.699219 68.941406 35.671875 68.660156 35.675781 68.371094 C 35.675781 68.085938 35.703125 67.804688 35.761719 67.523438 C 35.816406 67.242188 35.898438 66.96875 36.007812 66.707031 C 36.121094 66.441406 36.253906 66.191406 36.414062 65.953125 C 36.570312 65.714844 36.753906 65.496094 36.957031 65.292969 C 37.15625 65.089844 37.378906 64.910156 37.617188 64.75 C 37.851562 64.589844 38.105469 64.457031 38.367188 64.347656 C 38.632812 64.238281 38.90625 64.152344 39.183594 64.097656 C 39.464844 64.039062 39.75 64.011719 40.035156 64.011719 C 40.320312 64.011719 40.605469 64.039062 40.886719 64.09375 C 41.167969 64.148438 41.441406 64.226562 41.703125 64.335938 C 41.96875 64.445312 42.222656 64.578125 42.460938 64.734375 C 42.699219 64.894531 42.917969 65.074219 43.125 65.273438 L 49.539062 71.679688 L 69.625 51.585938 C 69.828125 51.382812 70.046875 51.203125 70.289062 51.042969 C 70.527344 50.886719 70.78125 50.75 71.046875 50.640625 C 71.3125 50.53125 71.585938 50.449219 71.867188 50.394531 C 72.148438 50.335938 72.433594 50.308594 72.71875 50.308594 C 73.007812 50.308594 73.292969 50.335938 73.574219 50.394531 C 73.855469 50.449219 74.128906 50.53125 74.394531 50.640625 C 74.660156 50.75 74.914062 50.886719 75.152344 51.042969 C 75.394531 51.203125 75.613281 51.382812 75.816406 51.585938 Z M 104.628906 56.753906 L 100.953125 55.824219 C 99.8125 50.957031 97.921875 46.402344 95.28125 42.15625 L 97.902344 37.761719 L 101.085938 32.417969 C 97.96875 28.300781 94.351562 24.683594 90.230469 21.5625 L 84.886719 24.757812 L 80.496094 27.371094 C 76.25 24.734375 71.691406 22.84375 66.824219 21.707031 L 65.578125 16.757812 L 64.050781 10.714844 C 58.933594 10.011719 53.8125 10.011719 48.695312 10.714844 L 47.175781 16.757812 L 45.929688 21.707031 C 41.058594 22.84375 36.5 24.734375 32.25 27.371094 L 27.867188 24.757812 L 22.523438 21.5625 C 18.40625 24.683594 14.78125 28.300781 11.660156 32.417969 L 14.855469 37.761719 L 17.476562 42.152344 C 14.832031 46.398438 12.941406 50.957031 11.800781 55.824219 L 6.855469 57.074219 L 0.808594 58.597656 C 0.109375 63.71875 0.109375 68.835938 0.808594 73.957031 L 6.855469 75.480469 L 11.800781 76.71875 C 12.941406 81.589844 14.832031 86.152344 17.476562 90.398438 L 14.855469 94.78125 L 11.660156 100.125 C 14.785156 104.242188 18.40625 107.863281 22.523438 110.992188 L 27.867188 107.796875 L 32.25 105.175781 C 36.496094 107.820312 41.058594 109.710938 45.929688 110.847656 L 47.175781 115.796875 L 48.695312 121.839844 C 53.8125 122.539062 58.933594 122.539062 64.050781 121.839844 L 65.578125 115.796875 L 66.824219 110.847656 C 69.628906 110.191406 72.34375 109.28125 74.976562 108.109375 Z M 56.375 99.941406 C 55.269531 99.941406 54.171875 99.886719 53.074219 99.777344 C 51.976562 99.671875 50.886719 99.507812 49.804688 99.292969 C 48.722656 99.078125 47.65625 98.808594 46.601562 98.488281 C 45.542969 98.167969 44.507812 97.796875 43.488281 97.375 C 42.46875 96.953125 41.476562 96.484375 40.503906 95.964844 C 39.53125 95.445312 38.585938 94.878906 37.667969 94.265625 C 36.75 93.652344 35.867188 92.996094 35.015625 92.296875 C 34.164062 91.597656 33.347656 90.855469 32.566406 90.078125 C 31.789062 89.296875 31.046875 88.480469 30.347656 87.628906 C 29.648438 86.777344 28.992188 85.890625 28.378906 84.972656 C 27.769531 84.058594 27.203125 83.113281 26.683594 82.140625 C 26.164062 81.167969 25.691406 80.171875 25.269531 79.152344 C 24.847656 78.132812 24.476562 77.097656 24.15625 76.042969 C 23.835938 74.988281 23.570312 73.917969 23.355469 72.835938 C 23.140625 71.753906 22.980469 70.664062 22.871094 69.570312 C 22.761719 68.472656 22.707031 67.371094 22.707031 66.269531 C 22.710938 65.164062 22.761719 64.066406 22.871094 62.96875 C 22.980469 61.871094 23.140625 60.78125 23.355469 59.699219 C 23.570312 58.617188 23.839844 57.550781 24.160156 56.496094 C 24.480469 55.441406 24.851562 54.402344 25.273438 53.382812 C 25.695312 52.367188 26.167969 51.371094 26.6875 50.398438 C 27.207031 49.425781 27.773438 48.480469 28.386719 47.5625 C 29 46.648438 29.652344 45.761719 30.355469 44.910156 C 31.054688 44.058594 31.792969 43.242188 32.574219 42.460938 C 33.351562 41.683594 34.167969 40.941406 35.019531 40.242188 C 35.875 39.542969 36.757812 38.886719 37.675781 38.277344 C 38.59375 37.664062 39.539062 37.097656 40.507812 36.578125 C 41.480469 36.058594 42.476562 35.585938 43.496094 35.164062 C 44.515625 34.742188 45.550781 34.371094 46.609375 34.050781 C 47.664062 33.734375 48.730469 33.464844 49.8125 33.25 C 50.894531 33.035156 51.984375 32.875 53.082031 32.765625 C 54.179688 32.65625 55.277344 32.605469 56.382812 32.605469 C 57.484375 32.605469 58.585938 32.660156 59.679688 32.765625 C 60.777344 32.875 61.867188 33.035156 62.949219 33.25 C 64.03125 33.46875 65.097656 33.734375 66.15625 34.054688 C 67.210938 34.375 68.246094 34.746094 69.265625 35.167969 C 70.285156 35.589844 71.28125 36.0625 72.253906 36.582031 C 73.222656 37.101562 74.167969 37.667969 75.085938 38.28125 C 76.003906 38.894531 76.886719 39.550781 77.738281 40.25 C 78.589844 40.949219 79.40625 41.6875 80.1875 42.46875 C 80.96875 43.246094 81.707031 44.0625 82.40625 44.917969 C 83.105469 45.769531 83.761719 46.652344 84.375 47.570312 C 84.988281 48.488281 85.550781 49.433594 86.070312 50.40625 C 86.59375 51.378906 87.0625 52.371094 87.484375 53.390625 C 87.90625 54.410156 88.277344 55.449219 88.597656 56.503906 C 88.917969 57.558594 89.183594 58.625 89.398438 59.707031 C 89.613281 60.789062 89.777344 61.878906 89.882812 62.976562 C 89.992188 64.074219 90.046875 65.171875 90.046875 66.277344 C 90.046875 67.378906 89.992188 68.480469 89.882812 69.578125 C 89.777344 70.675781 89.613281 71.761719 89.398438 72.84375 C 89.183594 73.925781 88.917969 74.996094 88.597656 76.050781 C 88.277344 77.105469 87.90625 78.144531 87.484375 79.160156 C 87.0625 80.179688 86.589844 81.175781 86.070312 82.148438 C 85.550781 83.121094 84.984375 84.066406 84.371094 84.984375 C 83.757812 85.898438 83.101562 86.785156 82.402344 87.636719 C 81.703125 88.488281 80.964844 89.304688 80.183594 90.085938 C 79.402344 90.863281 78.585938 91.605469 77.734375 92.304688 C 76.882812 93.003906 75.996094 93.660156 75.082031 94.269531 C 74.164062 94.882812 73.21875 95.449219 72.246094 95.96875 C 71.273438 96.488281 70.277344 96.960938 69.257812 97.382812 C 68.238281 97.804688 67.203125 98.175781 66.148438 98.492188 C 65.09375 98.8125 64.023438 99.082031 62.941406 99.296875 C 61.859375 99.511719 60.769531 99.671875 59.671875 99.78125 C 58.574219 99.886719 57.476562 99.941406 56.375 99.941406 Z M 56.375 99.941406 "/></g></g></svg>