<svg xmlns="http://www.w3.org/2000/svg" xmlns:xlink="http://www.w3.org/1999/xlink" width="200" zoomAndPan="magnify" viewBox="0 0 150 157.92" height="200" preserveAspectRatio="xMidYMid meet" version="1.2"><g id="0f4d6d8f2f"><path style=" stroke:none;fill-rule:nonzero;fill:#ffa800;fill-opacity:1;" d="M 78.765625 1.378906 C 77.027344 -0.390625 73.90625 -0.390625 72.160156 1.378906 C 68.707031 4.90625 38.445312 36.304688 38.445312 55.527344 C 38.445312 75.941406 55.046875 92.546875 75.460938 92.546875 C 95.878906 92.546875 112.480469 75.941406 112.480469 55.527344 C 112.480469 36.304688 82.21875 4.90625 78.765625 1.378906 Z M 75.460938 74.035156 C 65.253906 74.035156 56.953125 65.734375 56.953125 55.527344 C 56.953125 52.972656 59.027344 50.898438 61.582031 50.898438 C 64.136719 50.898438 66.207031 52.972656 66.207031 55.527344 C 66.207031 60.636719 70.363281 64.78125 75.460938 64.78125 C 78.015625 64.78125 80.089844 66.855469 80.089844 69.410156 C 80.089844 71.964844 78.015625 74.035156 75.460938 74.035156 Z M 75.460938 74.035156 "/><path style=" stroke:none;fill-rule:nonzero;fill:#ffa800;fill-opacity:1;" d="M 112.480469 148.074219 C 107.59375 148.074219 103.058594 145.851562 99.699219 141.816406 C 96.453125 137.894531 91.4375 137.96875 88.308594 141.742188 C 81.476562 149.953125 69.410156 149.878906 62.683594 141.816406 C 59.433594 137.894531 54.417969 137.96875 51.289062 141.742188 C 44.460938 149.953125 32.390625 149.878906 25.664062 141.816406 C 22.414062 137.894531 17.398438 137.96875 14.273438 141.742188 C 12.632812 143.695312 9.71875 143.972656 7.757812 142.324219 C 5.792969 140.6875 5.527344 137.78125 7.164062 135.8125 C 13.890625 127.75 26.007812 127.75 32.734375 135.8125 C 35.984375 139.734375 41 139.660156 44.125 135.886719 C 50.957031 127.675781 63.023438 127.75 69.753906 135.8125 C 73 139.734375 78.015625 139.660156 81.144531 135.886719 C 87.976562 127.675781 100.042969 127.75 106.769531 135.8125 C 110.019531 139.734375 115.035156 139.660156 118.164062 135.886719 C 124.992188 127.675781 137.0625 127.75 143.789062 135.8125 C 145.425781 137.78125 145.160156 140.6875 143.195312 142.324219 C 141.234375 143.972656 138.320312 143.6875 136.683594 141.742188 C 133.542969 137.96875 128.472656 137.96875 125.335938 141.742188 C 121.902344 145.851562 117.367188 148.074219 112.480469 148.074219 Z M 112.480469 148.074219 "/><path style=" stroke:none;fill-rule:nonzero;fill:#ffa800;fill-opacity:1;" d="M 112.480469 120.308594 C 107.59375 120.308594 103.058594 118.089844 99.699219 114.054688 C 96.453125 110.128906 91.4375 110.203125 88.308594 113.980469 C 81.476562 122.1875 69.410156 122.113281 62.683594 114.054688 C 59.433594 110.128906 54.417969 110.203125 51.289062 113.980469 C 44.460938 122.1875 32.390625 122.113281 25.664062 114.054688 C 22.414062 110.128906 17.398438 110.203125 14.273438 113.980469 C 12.632812 115.941406 9.71875 116.210938 7.757812 114.5625 C 5.792969 112.925781 5.527344 110.019531 7.164062 108.046875 C 13.890625 99.988281 26.007812 99.988281 32.734375 108.046875 C 35.984375 111.972656 41 111.898438 44.125 108.121094 C 50.957031 99.914062 63.023438 99.988281 69.753906 108.046875 C 73 111.972656 78.015625 111.898438 81.144531 108.121094 C 87.976562 99.914062 100.042969 99.988281 106.769531 108.046875 C 110.019531 111.972656 115.035156 111.898438 118.164062 108.121094 C 124.992188 99.914062 137.0625 99.988281 143.789062 108.046875 C 145.425781 110.019531 145.160156 112.925781 143.195312 114.5625 C 141.234375 116.210938 138.320312 115.933594 136.683594 113.980469 C 133.542969 110.203125 128.472656 110.203125 125.335938 113.980469 C 121.902344 118.089844 117.367188 120.308594 112.480469 120.308594 Z M 112.480469 120.308594 "/></g></svg>