<svg xmlns="http://www.w3.org/2000/svg" xmlns:xlink="http://www.w3.org/1999/xlink" width="200" zoomAndPan="magnify" viewBox="0 0 150 157.92" height="200" preserveAspectRatio="xMidYMid meet" version="1.2"><defs><clipPath id="82244cd592"><path d="M 113 14.617188 L 128 14.617188 L 128 36 L 113 36 Z M 113 14.617188 "/></clipPath><clipPath id="80fce602aa"><path d="M 124 50 L 149.960938 50 L 149.960938 77 L 124 77 Z M 124 50 "/></clipPath><clipPath id="ca8c93e80c"><path d="M 22 14.617188 L 37 14.617188 L 37 36 L 22 36 Z M 22 14.617188 "/></clipPath><clipPath id="fa4cb8581a"><path d="M 0.0390625 50 L 26 50 L 26 77 L 0.0390625 77 Z M 0.0390625 50 "/></clipPath></defs><g id="30024b5ad9"><path style=" stroke:none;fill-rule:nonzero;fill:#ffa800;fill-opacity:1;" d="M 78.433594 35.34375 L 86.425781 51.796875 L 104.652344 54.484375 C 109.667969 55.21875 109.96875 57.398438 106.382812 60.929688 L 93.480469 72.5625 L 96.417969 91.175781 C 97.398438 96.882812 95.632812 98.238281 91.597656 96.09375 L 75.070312 87.296875 L 58.539062 96.09375 C 54.484375 98.238281 52.738281 96.882812 53.710938 91.175781 L 56.667969 72.5625 L 43.738281 60.929688 C 40.152344 57.398438 40.460938 55.21875 45.476562 54.484375 L 63.699219 51.796875 L 71.695312 35.34375 C 73.574219 31.453125 76.9375 32.28125 78.433594 35.34375 Z M 78.433594 35.34375 "/><path style=" stroke:none;fill-rule:nonzero;fill:#ffa800;fill-opacity:1;" d="M 135.546875 26.527344 C 140.601562 31.28125 142.984375 36.710938 142.714844 41.660156 C 142.433594 46.578125 139.503906 50.902344 134.945312 52.902344 C 130.386719 54.890625 126.351562 54.242188 123.402344 51.746094 C 120.425781 49.242188 118.503906 44.984375 118.523438 39.59375 C 118.523438 38.496094 119.347656 38.359375 119.957031 38.59375 C 124.011719 40.113281 127.371094 41.425781 130.175781 44.042969 C 128.960938 37.855469 131.929688 31.558594 133.851562 26.894531 C 134.179688 26.058594 135.023438 26.035156 135.546875 26.527344 Z M 135.546875 26.527344 "/><path style=" stroke:none;fill-rule:nonzero;fill:#ffa800;fill-opacity:1;" d="M 146.421875 79.050781 C 147.984375 85.8125 146.9375 91.652344 143.957031 95.621094 C 141 99.546875 136.148438 101.519531 131.257812 100.636719 C 126.359375 99.75 123.363281 96.96875 122.296875 93.261719 C 121.222656 89.527344 121.988281 84.910156 125.003906 80.453125 C 125.617188 79.546875 126.378906 79.886719 126.761719 80.417969 C 129.269531 83.933594 131.335938 86.890625 132.222656 90.625 C 134.644531 84.804688 140.613281 81.226562 144.804688 78.410156 C 145.546875 77.910156 146.253906 78.355469 146.421875 79.050781 Z M 146.421875 79.050781 "/><path style=" stroke:none;fill-rule:nonzero;fill:#ffa800;fill-opacity:1;" d="M 135.632812 105.992188 C 134.148438 112.769531 130.707031 117.589844 126.3125 119.898438 C 121.957031 122.1875 116.730469 121.886719 112.6875 118.988281 C 108.640625 116.097656 107.125 112.304688 107.757812 108.492188 C 108.375 104.664062 111.054688 100.820312 115.695312 98.074219 C 116.632812 97.511719 117.175781 98.152344 117.292969 98.792969 C 118.0625 103.050781 118.652344 106.609375 117.847656 110.355469 C 122.53125 106.132812 129.457031 105.46875 134.453125 104.710938 C 135.332031 104.582031 135.789062 105.28125 135.632812 105.992188 Z M 135.632812 105.992188 "/><path style=" stroke:none;fill-rule:nonzero;fill:#ffa800;fill-opacity:1;" d="M 81.429688 128.40625 C 81.429688 128.824219 81.390625 129.238281 81.308594 129.648438 C 81.226562 130.058594 81.105469 130.457031 80.945312 130.84375 C 80.785156 131.230469 80.589844 131.597656 80.355469 131.945312 C 80.125 132.296875 79.859375 132.617188 79.5625 132.914062 C 79.269531 133.207031 78.945312 133.472656 78.597656 133.707031 C 78.25 133.9375 77.882812 134.132812 77.496094 134.292969 C 77.109375 134.453125 76.710938 134.574219 76.300781 134.65625 C 75.890625 134.738281 75.476562 134.78125 75.058594 134.78125 C 74.640625 134.78125 74.226562 134.738281 73.8125 134.65625 C 73.402344 134.574219 73.003906 134.453125 72.617188 134.292969 C 72.230469 134.132812 71.863281 133.9375 71.515625 133.707031 C 71.167969 133.472656 70.847656 133.207031 70.550781 132.914062 C 70.253906 132.617188 69.992188 132.296875 69.757812 131.945312 C 69.527344 131.597656 69.328125 131.230469 69.167969 130.84375 C 69.007812 130.457031 68.886719 130.058594 68.808594 129.648438 C 68.726562 129.238281 68.683594 128.824219 68.683594 128.40625 C 68.683594 127.988281 68.726562 127.574219 68.808594 127.164062 C 68.886719 126.753906 69.007812 126.355469 69.167969 125.96875 C 69.328125 125.582031 69.527344 125.214844 69.757812 124.867188 C 69.992188 124.519531 70.253906 124.195312 70.550781 123.898438 C 70.847656 123.605469 71.167969 123.339844 71.515625 123.105469 C 71.863281 122.875 72.230469 122.679688 72.617188 122.519531 C 73.003906 122.359375 73.402344 122.238281 73.8125 122.15625 C 74.226562 122.074219 74.640625 122.035156 75.058594 122.035156 C 75.476562 122.035156 75.890625 122.074219 76.300781 122.15625 C 76.710938 122.238281 77.109375 122.359375 77.496094 122.519531 C 77.882812 122.679688 78.25 122.875 78.597656 123.105469 C 78.945312 123.339844 79.269531 123.605469 79.5625 123.898438 C 79.859375 124.195312 80.125 124.519531 80.355469 124.867188 C 80.589844 125.214844 80.785156 125.582031 80.945312 125.96875 C 81.105469 126.355469 81.226562 126.753906 81.308594 127.164062 C 81.390625 127.574219 81.429688 127.988281 81.429688 128.40625 Z M 81.429688 128.40625 "/><g clip-rule="nonzero" clip-path="url(#82244cd592)"><path style=" stroke:none;fill-rule:nonzero;fill:#ffa800;fill-opacity:1;" d="M 123.671875 35.316406 C 114.644531 32.460938 113.847656 26.429688 113.847656 16.738281 C 113.847656 14.742188 114.175781 14.535156 115.707031 14.859375 C 125.886719 17.011719 129.980469 26.382812 126.234375 34.414062 C 125.613281 35.734375 124.855469 35.695312 123.671875 35.316406 Z M 123.671875 35.316406 "/></g><g clip-rule="nonzero" clip-path="url(#80fce602aa)"><path style=" stroke:none;fill-rule:nonzero;fill:#ffa800;fill-opacity:1;" d="M 144.984375 51 C 148.875 56.753906 150.011719 62.570312 148.652344 67.34375 C 147.3125 72.078125 143.5 75.65625 138.613281 76.601562 C 133.722656 77.539062 129.933594 76.015625 127.601562 72.953125 C 125.253906 69.847656 124.304688 65.269531 125.507812 60.023438 C 125.761719 58.957031 126.582031 58.996094 127.136719 59.355469 C 130.746094 61.730469 133.734375 63.746094 135.90625 66.910156 C 136.070312 60.613281 140.347656 55.125 143.246094 50.992188 C 143.761719 50.253906 144.585938 50.410156 144.984375 51 Z M 144.984375 51 "/></g><path style=" stroke:none;fill-rule:nonzero;fill:#ffa800;fill-opacity:1;" d="M 115.683594 126.855469 C 111.191406 132.152344 105.890625 134.796875 100.925781 134.78125 C 96.011719 134.761719 91.539062 132.042969 89.316406 127.59375 C 87.097656 123.140625 87.542969 119.074219 89.871094 116.011719 C 92.226562 112.917969 96.386719 110.773438 101.761719 110.519531 C 102.859375 110.46875 103.042969 111.289062 102.839844 111.910156 C 101.527344 116.03125 100.386719 119.445312 97.917969 122.382812 C 104.03125 120.851562 110.472656 123.5 115.234375 125.175781 C 116.078125 125.46875 116.144531 126.308594 115.683594 126.855469 Z M 115.683594 126.855469 "/><path style=" stroke:none;fill-rule:nonzero;fill:#ffa800;fill-opacity:1;" d="M 14.566406 26.527344 C 9.515625 31.28125 7.136719 36.710938 7.40625 41.660156 C 7.679688 46.578125 10.609375 50.902344 15.175781 52.902344 C 19.738281 54.890625 23.773438 54.242188 26.714844 51.746094 C 29.6875 49.242188 31.621094 44.984375 31.589844 39.59375 C 31.589844 38.496094 30.765625 38.359375 30.152344 38.59375 C 26.109375 40.113281 22.75 41.425781 19.941406 44.042969 C 21.160156 37.855469 18.183594 31.558594 16.269531 26.894531 C 15.9375 26.058594 15.09375 26.035156 14.566406 26.527344 Z M 14.566406 26.527344 "/><path style=" stroke:none;fill-rule:nonzero;fill:#ffa800;fill-opacity:1;" d="M 3.695312 79.050781 C 2.140625 85.8125 3.179688 91.652344 6.15625 95.621094 C 9.117188 99.546875 13.96875 101.519531 18.863281 100.636719 C 23.761719 99.75 26.75 96.96875 27.816406 93.261719 C 28.894531 89.527344 28.128906 84.910156 25.113281 80.453125 C 24.5 79.546875 23.746094 79.886719 23.355469 80.417969 C 20.84375 83.933594 18.78125 86.890625 17.90625 90.625 C 15.480469 84.804688 9.503906 81.226562 5.3125 78.410156 C 4.578125 77.910156 3.859375 78.355469 3.695312 79.050781 Z M 3.695312 79.050781 "/><path style=" stroke:none;fill-rule:nonzero;fill:#ffa800;fill-opacity:1;" d="M 14.480469 105.992188 C 15.976562 112.769531 19.417969 117.589844 23.804688 119.898438 C 28.167969 122.1875 33.386719 121.886719 37.429688 118.988281 C 41.484375 116.097656 42.988281 112.304688 42.367188 108.492188 C 41.738281 104.664062 39.070312 100.820312 34.433594 98.074219 C 33.496094 97.511719 32.949219 98.152344 32.832031 98.792969 C 32.066406 103.050781 31.46875 106.609375 32.269531 110.355469 C 27.585938 106.132812 20.660156 105.46875 15.671875 104.710938 C 14.792969 104.582031 14.324219 105.28125 14.480469 105.992188 Z M 14.480469 105.992188 "/><g clip-rule="nonzero" clip-path="url(#ca8c93e80c)"><path style=" stroke:none;fill-rule:nonzero;fill:#ffa800;fill-opacity:1;" d="M 26.441406 35.316406 C 35.472656 32.460938 36.277344 26.429688 36.277344 16.738281 C 36.277344 14.742188 35.9375 14.535156 34.414062 14.859375 C 24.230469 17.011719 20.136719 26.382812 23.890625 34.414062 C 24.5 35.734375 25.257812 35.695312 26.441406 35.316406 Z M 26.441406 35.316406 "/></g><g clip-rule="nonzero" clip-path="url(#fa4cb8581a)"><path style=" stroke:none;fill-rule:nonzero;fill:#ffa800;fill-opacity:1;" d="M 5.128906 51 C 1.238281 56.753906 0.117188 62.570312 1.464844 67.34375 C 2.8125 72.078125 6.625 75.65625 11.511719 76.601562 C 16.390625 77.539062 20.1875 76.015625 22.523438 72.953125 C 24.871094 69.847656 25.808594 65.269531 24.609375 60.023438 C 24.367188 58.957031 23.53125 58.996094 22.992188 59.355469 C 19.371094 61.730469 16.382812 63.746094 14.21875 66.910156 C 14.046875 60.613281 9.765625 55.125 6.875 50.992188 C 6.359375 50.253906 5.539062 50.410156 5.128906 51 Z M 5.128906 51 "/></g><path style=" stroke:none;fill-rule:nonzero;fill:#ffa800;fill-opacity:1;" d="M 34.433594 126.855469 C 38.925781 132.152344 44.230469 134.796875 49.183594 134.78125 C 54.105469 134.761719 58.585938 132.042969 60.804688 127.59375 C 63.027344 123.140625 62.570312 119.074219 60.242188 116.011719 C 57.886719 112.917969 53.734375 110.773438 48.347656 110.519531 C 47.253906 110.46875 47.082031 111.289062 47.273438 111.910156 C 48.59375 116.03125 49.726562 119.445312 52.203125 122.382812 C 46.082031 120.851562 39.652344 123.5 34.890625 125.175781 C 34.046875 125.46875 33.96875 126.308594 34.433594 126.855469 Z M 34.433594 126.855469 "/></g></svg>