<svg xmlns="http://www.w3.org/2000/svg" xmlns:xlink="http://www.w3.org/1999/xlink" width="200" zoomAndPan="magnify" viewBox="0 0 150 157.92" height="200" preserveAspectRatio="xMidYMid meet" version="1.2"><defs><clipPath id="b522fa03d6"><path d="M 49 110 L 79 110 L 79 149.925781 L 49 149.925781 Z M 49 110 "/></clipPath><clipPath id="86190c829e"><path d="M 11.078125 39 L 58 39 L 58 125 L 11.078125 125 Z M 11.078125 39 "/></clipPath></defs><g id="61086bc0f7"><path style=" stroke:none;fill-rule:nonzero;fill:#ffa800;fill-opacity:1;" d="M 38.773438 83.164062 C 35.96875 84.675781 34.738281 87.1875 34.238281 88.667969 C 35.714844 89.011719 38.523438 89.304688 41.121094 87.554688 C 43.542969 85.925781 44.347656 83.503906 44.617188 82.113281 C 43.207031 81.941406 41.003906 81.96875 38.773438 83.164062 Z M 38.773438 83.164062 "/><path style=" stroke:none;fill-rule:nonzero;fill:#ffa800;fill-opacity:1;" d="M 49.90625 59.683594 L 18.832031 59.683594 L 18.832031 114.367188 L 47.328125 114.367188 L 47.328125 105.03125 C 47.328125 102.839844 48.332031 100.878906 49.90625 99.5625 Z M 33.914062 68.105469 C 34.632812 67.820312 35.265625 67.429688 35.792969 66.945312 C 37.371094 65.5 37.632812 63.582031 37.652344 62.585938 C 37.652344 62.5 37.652344 62.421875 37.652344 62.347656 C 37.652344 62.328125 37.652344 62.3125 37.652344 62.296875 C 37.632812 61.621094 38.167969 61.054688 38.847656 61.035156 C 38.859375 61.035156 38.871094 61.035156 38.882812 61.035156 C 38.894531 61.035156 38.90625 61.035156 38.917969 61.035156 C 39.597656 61.054688 40.132812 61.621094 40.113281 62.296875 C 40.113281 62.3125 40.113281 62.328125 40.113281 62.347656 C 40.113281 62.421875 40.113281 62.5 40.113281 62.585938 C 40.128906 63.582031 40.390625 65.5 41.96875 66.945312 C 42.5 67.429688 43.132812 67.820312 43.851562 68.105469 C 44.316406 68.292969 44.625 68.746094 44.625 69.25 C 44.625 69.753906 44.316406 70.203125 43.851562 70.390625 C 43.132812 70.675781 42.5 71.066406 41.972656 71.550781 C 40.390625 72.996094 40.128906 74.914062 40.113281 75.910156 C 40.113281 75.992188 40.113281 76.074219 40.113281 76.148438 C 40.113281 76.164062 40.113281 76.179688 40.113281 76.195312 C 40.121094 76.527344 39.996094 76.847656 39.765625 77.089844 C 39.535156 77.324219 39.21875 77.460938 38.882812 77.460938 C 38.550781 77.460938 38.234375 77.328125 38 77.089844 C 37.769531 76.847656 37.644531 76.527344 37.652344 76.195312 C 37.652344 76.179688 37.652344 76.164062 37.652344 76.148438 C 37.652344 76.074219 37.652344 75.992188 37.652344 75.90625 C 37.632812 74.910156 37.371094 72.996094 35.792969 71.550781 C 35.261719 71.0625 34.632812 70.671875 33.914062 70.390625 C 33.445312 70.203125 33.140625 69.75 33.140625 69.246094 C 33.140625 68.746094 33.445312 68.292969 33.914062 68.105469 Z M 43.851562 104.675781 C 43.132812 104.960938 42.5 105.351562 41.96875 105.835938 C 40.390625 107.28125 40.128906 109.199219 40.113281 110.191406 C 40.113281 110.277344 40.113281 110.359375 40.113281 110.433594 C 40.113281 110.449219 40.113281 110.464844 40.113281 110.480469 C 40.121094 110.8125 39.996094 111.136719 39.765625 111.375 C 39.535156 111.609375 39.21875 111.746094 38.882812 111.746094 C 38.550781 111.746094 38.234375 111.613281 38 111.375 C 37.769531 111.136719 37.644531 110.8125 37.652344 110.480469 C 37.652344 110.464844 37.652344 110.449219 37.652344 110.433594 C 37.652344 110.359375 37.652344 110.277344 37.652344 110.191406 C 37.632812 109.199219 37.371094 107.28125 35.792969 105.835938 C 35.261719 105.351562 34.632812 104.960938 33.914062 104.675781 C 33.445312 104.488281 33.140625 104.035156 33.140625 103.535156 C 33.140625 103.03125 33.445312 102.578125 33.914062 102.390625 C 34.632812 102.105469 35.265625 101.714844 35.792969 101.230469 C 37.371094 99.785156 37.632812 97.867188 37.652344 96.875 C 37.652344 96.789062 37.652344 96.707031 37.652344 96.632812 C 37.652344 96.617188 37.652344 96.601562 37.652344 96.585938 C 37.632812 95.90625 38.167969 95.34375 38.847656 95.320312 C 38.859375 95.320312 38.871094 95.320312 38.882812 95.320312 C 38.894531 95.320312 38.90625 95.320312 38.917969 95.320312 C 39.597656 95.34375 40.132812 95.90625 40.113281 96.585938 C 40.113281 96.601562 40.113281 96.617188 40.113281 96.632812 C 40.113281 96.707031 40.113281 96.789062 40.113281 96.875 C 40.128906 97.871094 40.390625 99.785156 41.96875 101.230469 C 42.5 101.714844 43.132812 102.105469 43.851562 102.390625 C 44.316406 102.578125 44.625 103.03125 44.625 103.535156 C 44.625 104.035156 44.316406 104.488281 43.851562 104.675781 Z M 42.496094 89.59375 C 40.421875 90.988281 38.28125 91.390625 36.496094 91.390625 C 35.164062 91.390625 34.039062 91.167969 33.273438 90.960938 C 32.144531 92.765625 31.152344 94.660156 30.328125 96.621094 C 29.171875 99.386719 28.328125 102.285156 27.828125 105.238281 C 27.726562 105.839844 27.207031 106.261719 26.617188 106.261719 C 26.550781 106.261719 26.480469 106.257812 26.410156 106.246094 C 25.742188 106.132812 25.292969 105.5 25.40625 104.828125 C 25.9375 101.691406 26.832031 98.609375 28.0625 95.671875 C 28.875 93.734375 29.84375 91.859375 30.9375 90.0625 C 29.410156 89.269531 27.152344 87.625 25.65625 84.40625 C 23.160156 79.035156 24.941406 73.84375 25.152344 73.269531 C 25.378906 72.648438 26.058594 72.316406 26.6875 72.523438 C 27.71875 72.863281 31.242188 74.308594 33.3125 78.757812 C 34.058594 80.355469 34.414062 81.9375 34.554688 83.390625 C 35.355469 82.511719 36.355469 81.675781 37.613281 81 C 41.28125 79.027344 44.882812 79.582031 46.261719 79.914062 C 46.832031 80.050781 47.226562 80.570312 47.203125 81.15625 C 47.167969 82.058594 46.78125 86.710938 42.496094 89.59375 Z M 42.496094 89.59375 "/><path style=" stroke:none;fill-rule:nonzero;fill:#ffa800;fill-opacity:1;" d="M 27.101562 75.382812 C 26.726562 77.074219 26.402344 80.179688 27.886719 83.371094 C 29.03125 85.835938 30.691406 87.132812 31.867188 87.78125 C 32.242188 86.089844 32.566406 82.980469 31.082031 79.792969 C 29.933594 77.324219 28.273438 76.03125 27.101562 75.382812 Z M 27.101562 75.382812 "/><path style=" stroke:none;fill-rule:nonzero;fill:#ffa800;fill-opacity:1;" d="M 38.882812 101.304688 C 38.519531 101.902344 38.054688 102.492188 37.453125 103.042969 C 37.265625 103.214844 37.070312 103.378906 36.863281 103.535156 C 37.070312 103.6875 37.265625 103.851562 37.453125 104.023438 C 38.054688 104.574219 38.519531 105.164062 38.882812 105.765625 C 39.246094 105.164062 39.710938 104.574219 40.3125 104.023438 C 40.496094 103.851562 40.695312 103.6875 40.898438 103.535156 C 40.695312 103.378906 40.496094 103.214844 40.3125 103.042969 C 39.710938 102.492188 39.246094 101.902344 38.882812 101.304688 Z M 38.882812 101.304688 "/><g clip-rule="nonzero" clip-path="url(#b522fa03d6)"><path style=" stroke:none;fill-rule:nonzero;fill:#ffa800;fill-opacity:1;" d="M 74.351562 110.476562 L 49.785156 110.476562 L 49.785156 115.636719 L 67.902344 115.636719 C 68.582031 115.636719 69.128906 116.1875 69.128906 116.867188 L 69.128906 140.992188 C 69.128906 141.671875 68.582031 142.222656 67.902344 142.222656 L 49.785156 142.222656 L 49.785156 145.207031 C 49.785156 147.808594 51.941406 149.925781 54.589844 149.925781 L 73.472656 149.925781 C 76.121094 149.925781 78.277344 147.808594 78.277344 145.207031 L 78.277344 110.476562 Z M 74.351562 110.476562 "/></g><path style=" stroke:none;fill-rule:nonzero;fill:#ffa800;fill-opacity:1;" d="M 70.417969 100.316406 L 73.117188 100.316406 L 73.117188 108.019531 L 70.417969 108.019531 Z M 70.417969 100.316406 "/><path style=" stroke:none;fill-rule:nonzero;fill:#ffa800;fill-opacity:1;" d="M 49.785156 118.097656 L 66.671875 118.097656 L 66.671875 139.765625 L 49.785156 139.765625 Z M 49.785156 118.097656 "/><path style=" stroke:none;fill-rule:nonzero;fill:#ffa800;fill-opacity:1;" d="M 75.570312 100.8125 L 75.578125 108.019531 L 78.28125 108.019531 L 78.28125 105.03125 C 78.28125 103.175781 77.167969 101.578125 75.570312 100.8125 Z M 75.570312 100.8125 "/><path style=" stroke:none;fill-rule:nonzero;fill:#ffa800;fill-opacity:1;" d="M 38.882812 71.476562 C 39.246094 70.878906 39.710938 70.289062 40.3125 69.738281 C 40.496094 69.566406 40.695312 69.402344 40.898438 69.246094 C 40.695312 69.09375 40.496094 68.929688 40.3125 68.757812 C 39.710938 68.207031 39.246094 67.617188 38.882812 67.015625 C 38.519531 67.617188 38.054688 68.207031 37.453125 68.757812 C 37.265625 68.929688 37.070312 69.09375 36.863281 69.246094 C 37.070312 69.402344 37.265625 69.566406 37.453125 69.738281 C 38.054688 70.289062 38.519531 70.878906 38.882812 71.476562 Z M 38.882812 71.476562 "/><path style=" stroke:none;fill-rule:nonzero;fill:#ffa800;fill-opacity:1;" d="M 49.785156 105.03125 L 49.785156 108.019531 L 52.484375 108.019531 L 52.484375 100.816406 C 50.890625 101.585938 49.785156 103.175781 49.785156 105.03125 Z M 49.785156 105.03125 "/><path style=" stroke:none;fill-rule:nonzero;fill:#ffa800;fill-opacity:1;" d="M 60.101562 100.316406 L 62.804688 100.316406 L 62.804688 108.019531 L 60.101562 108.019531 Z M 60.101562 100.316406 "/><path style=" stroke:none;fill-rule:nonzero;fill:#ffa800;fill-opacity:1;" d="M 65.261719 100.316406 L 67.960938 100.316406 L 67.960938 108.019531 L 65.261719 108.019531 Z M 65.261719 100.316406 "/><path style=" stroke:none;fill-rule:nonzero;fill:#ffa800;fill-opacity:1;" d="M 126 24.351562 C 126 23.527344 125.308594 22.855469 124.464844 22.855469 L 117.097656 22.855469 C 116.25 22.855469 115.558594 23.527344 115.558594 24.351562 L 115.558594 28.019531 L 126 28.019531 Z M 126 24.351562 "/><path style=" stroke:none;fill-rule:nonzero;fill:#ffa800;fill-opacity:1;" d="M 87.320312 95.109375 C 87.492188 93.855469 86.925781 92.65625 86.367188 91.714844 C 84.949219 92.246094 83.5 92.585938 82.191406 92.695312 C 81.816406 92.726562 81.445312 92.742188 81.085938 92.742188 C 77.675781 92.742188 74.894531 91.414062 73 90.15625 L 73 97.859375 L 73.472656 97.859375 C 76.15625 97.859375 78.496094 99.304688 79.753906 101.445312 C 83.84375 100.636719 86.902344 98.109375 87.320312 95.109375 Z M 87.320312 95.109375 "/><path style=" stroke:none;fill-rule:nonzero;fill:#ffa800;fill-opacity:1;" d="M 23.988281 0 L 44.746094 0 L 44.746094 8.972656 L 23.988281 8.972656 Z M 23.988281 0 "/><path style=" stroke:none;fill-rule:nonzero;fill:#ffa800;fill-opacity:1;" d="M 55.742188 36.90625 L 45.15625 11.429688 L 23.582031 11.429688 L 12.996094 36.90625 Z M 55.742188 36.90625 "/><path style=" stroke:none;fill-rule:nonzero;fill:#ffa800;fill-opacity:1;" d="M 54.945312 100.316406 L 57.644531 100.316406 L 57.644531 108.019531 L 54.945312 108.019531 Z M 54.945312 100.316406 "/><g clip-rule="nonzero" clip-path="url(#86190c829e)"><path style=" stroke:none;fill-rule:nonzero;fill:#ffa800;fill-opacity:1;" d="M 16.375 115.597656 L 16.375 58.453125 C 16.375 57.777344 16.921875 57.226562 17.601562 57.226562 L 51.132812 57.226562 C 51.8125 57.226562 52.363281 57.777344 52.363281 58.453125 L 52.363281 98.207031 C 53.066406 97.984375 53.816406 97.859375 54.589844 97.859375 L 57.644531 97.859375 L 57.644531 54.601562 L 45.972656 54.601562 C 45.296875 54.601562 44.746094 54.050781 44.746094 53.375 C 44.746094 52.695312 45.296875 52.144531 45.972656 52.144531 L 57.570312 52.144531 C 57.503906 51.269531 57.40625 50.394531 57.25 49.523438 L 49.84375 49.523438 C 49.164062 49.523438 48.613281 48.972656 48.613281 48.296875 C 48.613281 47.617188 49.164062 47.066406 49.84375 47.066406 L 56.675781 47.066406 C 56.589844 46.753906 56.511719 46.441406 56.414062 46.132812 C 55.636719 43.722656 54.5 41.457031 53.058594 39.363281 L 15.679688 39.363281 C 14.234375 41.457031 13.097656 43.726562 12.324219 46.132812 C 12.222656 46.441406 12.148438 46.753906 12.058594 47.066406 L 18.890625 47.066406 C 19.570312 47.066406 20.121094 47.617188 20.121094 48.292969 C 20.121094 48.972656 19.570312 49.523438 18.890625 49.523438 L 11.488281 49.523438 C 11.332031 50.390625 11.230469 51.265625 11.167969 52.144531 L 22.761719 52.144531 C 23.441406 52.144531 23.988281 52.695312 23.988281 53.371094 C 23.988281 54.050781 23.441406 54.601562 22.761719 54.601562 L 11.09375 54.601562 L 11.09375 117.90625 C 11.09375 121.554688 14.117188 124.527344 17.835938 124.527344 L 47.328125 124.527344 L 47.328125 116.824219 L 17.601562 116.824219 C 16.921875 116.828125 16.375 116.277344 16.375 115.597656 Z M 16.375 115.597656 "/></g><path style=" stroke:none;fill-rule:nonzero;fill:#ffa800;fill-opacity:1;" d="M 103.574219 61.089844 L 104.0625 60.929688 C 103.433594 60.0625 103.046875 59.054688 102.980469 58.039062 C 102.851562 58.035156 102.722656 58.050781 102.589844 58.089844 C 101.84375 58.3125 101.570312 59.214844 101.542969 59.316406 C 101.335938 60.050781 101.703125 60.96875 102.441406 61.726562 C 102.773438 61.453125 103.152344 61.234375 103.574219 61.089844 Z M 103.574219 61.089844 "/><path style=" stroke:none;fill-rule:nonzero;fill:#ffa800;fill-opacity:1;" d="M 115.984375 77.023438 C 115.96875 77.058594 115.960938 77.097656 115.941406 77.132812 C 115.859375 77.34375 115.84375 77.570312 115.917969 77.789062 L 115.964844 77.929688 C 116.144531 78.457031 116.734375 78.734375 117.277344 78.554688 L 120.988281 77.320312 C 121.25 77.230469 121.460938 77.050781 121.578125 76.804688 C 121.695312 76.574219 121.710938 76.3125 121.628906 76.066406 L 121.578125 75.921875 C 121.46875 75.597656 121.199219 75.371094 120.882812 75.285156 C 120.824219 75.273438 120.765625 75.28125 120.707031 75.261719 C 120.703125 75.261719 120.703125 75.257812 120.699219 75.257812 C 120.667969 75.253906 120.636719 75.242188 120.605469 75.242188 C 120.492188 75.242188 120.378906 75.261719 120.269531 75.296875 L 116.558594 76.535156 C 116.308594 76.621094 116.105469 76.796875 115.984375 77.023438 Z M 115.984375 77.023438 "/><path style=" stroke:none;fill-rule:nonzero;fill:#ffa800;fill-opacity:1;" d="M 137.707031 42.011719 L 131.058594 33.011719 C 129.886719 31.421875 127.996094 30.476562 126 30.476562 L 115.472656 30.476562 C 115.089844 30.476562 114.710938 30.4375 114.335938 30.390625 C 114.335938 30.390625 114.332031 30.390625 114.332031 30.390625 C 114.328125 30.390625 114.324219 30.386719 114.320312 30.386719 C 112.894531 30.199219 111.542969 29.683594 110.359375 28.839844 L 100.105469 21.496094 C 99.027344 20.726562 97.757812 20.320312 96.425781 20.320312 L 71.507812 20.320312 C 68.0625 20.320312 65.261719 23.070312 65.261719 26.453125 L 65.261719 97.859375 L 70.542969 97.859375 L 70.542969 44.484375 C 70.542969 43.808594 71.089844 43.257812 71.769531 43.257812 L 132.386719 43.257812 C 133.066406 43.257812 133.617188 43.808594 133.617188 44.484375 L 133.617188 116.867188 C 133.617188 117.546875 133.066406 118.097656 132.386719 118.097656 L 80.738281 118.097656 L 80.738281 124.527344 L 132.648438 124.527344 C 136.09375 124.527344 138.898438 121.773438 138.898438 118.394531 L 138.898438 45.609375 C 138.898438 44.308594 138.484375 43.0625 137.707031 42.011719 Z M 99.691406 34.328125 L 71.832031 34.328125 C 71.085938 34.328125 70.480469 33.730469 70.480469 32.996094 L 70.480469 28.039062 C 70.480469 27.304688 71.085938 26.707031 71.832031 26.707031 L 96.945312 26.707031 C 97.335938 26.707031 97.714844 26.871094 97.96875 27.167969 C 98.664062 27.996094 99.460938 29.109375 100.144531 30.515625 C 100.5 31.257812 100.777344 31.964844 100.984375 32.617188 C 101.257812 33.464844 100.59375 34.328125 99.691406 34.328125 Z M 99.691406 34.328125 "/><path style=" stroke:none;fill-rule:nonzero;fill:#ffa800;fill-opacity:1;" d="M 115.78125 74.203125 L 116.269531 74.042969 C 115.640625 73.171875 115.253906 72.167969 115.183594 71.148438 C 115.058594 71.148438 114.929688 71.160156 114.796875 71.199219 C 114.046875 71.425781 113.777344 72.324219 113.75 72.425781 C 113.542969 73.164062 113.910156 74.082031 114.648438 74.839844 C 114.980469 74.5625 115.359375 74.34375 115.78125 74.203125 Z M 115.78125 74.203125 "/><path style=" stroke:none;fill-rule:nonzero;fill:#ffa800;fill-opacity:1;" d="M 73 87.101562 C 74.519531 88.390625 77.78125 90.605469 81.984375 90.246094 C 86.257812 89.886719 91.09375 87.0625 91.175781 83.820312 C 91.207031 82.613281 90.605469 81.515625 89.898438 80.644531 C 87.886719 82.527344 85.371094 84.039062 82.480469 85.015625 C 82.351562 85.058594 82.21875 85.078125 82.089844 85.078125 C 81.578125 85.078125 81.097656 84.757812 80.925781 84.242188 C 80.707031 83.601562 81.054688 82.902344 81.695312 82.6875 C 84.640625 81.691406 87.140625 80.082031 89 78.074219 C 89.015625 78.054688 89.019531 78.03125 89.035156 78.015625 C 89.046875 78.003906 89.066406 78 89.078125 77.984375 C 90.914062 75.972656 92.117188 73.570312 92.480469 70.980469 C 93.152344 66.1875 91.035156 59.960938 86.804688 58.332031 C 86.277344 58.125 84.40625 57.523438 82.578125 58.3125 C 80.40625 59.25 78.578125 62.054688 79.382812 64.40625 C 79.769531 65.542969 80.75 66.605469 81.929688 67.179688 C 82.769531 67.589844 83.597656 67.6875 84.261719 67.453125 C 85.140625 67.144531 86.242188 66.074219 86.042969 65.039062 C 85.90625 64.34375 85.226562 63.714844 84.308594 63.4375 C 83.660156 63.238281 83.292969 62.554688 83.492188 61.902344 C 83.691406 61.253906 84.375 60.882812 85.023438 61.085938 C 86.828125 61.632812 88.140625 62.96875 88.453125 64.5625 C 88.914062 66.917969 87.097656 69.058594 85.074219 69.769531 C 84.957031 69.808594 84.835938 69.820312 84.714844 69.851562 C 84.753906 71.417969 84.484375 73.585938 83.109375 75.644531 C 81.171875 78.539062 77.742188 80.207031 73.976562 80.207031 C 73.652344 80.207031 73.324219 80.183594 72.996094 80.160156 L 72.996094 87.101562 Z M 73 87.101562 "/><path style=" stroke:none;fill-rule:nonzero;fill:#ffa800;fill-opacity:1;" d="M 119.492188 72.96875 C 119.722656 72.890625 119.957031 72.839844 120.191406 72.8125 C 120.296875 72.21875 120.347656 71.195312 119.761719 70.203125 C 119.390625 69.605469 118.878906 69.46875 118.507812 69.523438 C 118.273438 69.554688 117.855469 69.691406 117.699219 70.246094 C 117.433594 71.25 117.898438 72.429688 118.792969 73.199219 Z M 119.492188 72.96875 "/><path style=" stroke:none;fill-rule:nonzero;fill:#ffa800;fill-opacity:1;" d="M 80.738281 115.636719 L 131.160156 115.636719 L 131.160156 45.714844 L 73 45.714844 L 73 71.132812 C 73.972656 71.023438 75.136719 70.738281 76.335938 70.078125 C 77.464844 69.453125 78.273438 68.679688 78.855469 67.976562 C 78.042969 67.183594 77.40625 66.226562 77.058594 65.203125 C 75.777344 61.460938 78.371094 57.453125 81.601562 56.058594 C 84.28125 54.898438 86.9375 55.75 87.6875 56.039062 C 93.179688 58.160156 95.714844 65.625 94.914062 71.324219 C 94.527344 74.070312 93.359375 76.632812 91.582031 78.835938 C 92.675781 80.101562 93.6875 81.828125 93.632812 83.882812 C 93.558594 86.820312 91.359375 89.152344 88.613281 90.683594 C 89.308594 91.898438 90.019531 93.542969 89.753906 95.449219 C 89.207031 99.378906 85.53125 102.660156 80.617188 103.769531 C 80.691406 104.179688 80.738281 104.601562 80.738281 105.035156 Z M 113.871094 87.460938 C 112.855469 87.257812 111.996094 87.332031 111.320312 87.675781 C 109.871094 88.414062 109.53125 90.316406 109.097656 93.359375 C 108.730469 95.957031 108.3125 98.902344 106.726562 101.671875 C 104.679688 105.25 100.941406 107.945312 95.613281 109.6875 C 95.488281 109.726562 95.359375 109.75 95.230469 109.75 C 94.714844 109.75 94.234375 109.417969 94.066406 108.898438 C 93.851562 108.253906 94.203125 107.5625 94.851562 107.351562 C 99.578125 105.804688 102.859375 103.484375 104.59375 100.453125 C 105.945312 98.089844 106.328125 95.394531 106.667969 93.015625 C 107.117188 89.839844 107.542969 86.835938 110.210938 85.484375 C 111.386719 84.886719 112.777344 84.738281 114.351562 85.050781 C 115.015625 85.179688 115.449219 85.828125 115.316406 86.492188 C 115.183594 87.160156 114.535156 87.597656 113.871094 87.460938 Z M 113.625 57.785156 L 113.675781 57.636719 C 113.921875 56.910156 114.402344 56.328125 114.996094 55.925781 C 114.796875 54.933594 114.675781 53.203125 115.691406 51.472656 C 115.695312 51.46875 115.753906 51.371094 115.757812 51.363281 C 116.546875 50.089844 117.988281 49.40625 119.410156 49.601562 C 120.464844 49.75 121.347656 50.355469 121.871094 51.238281 C 122.347656 51.175781 122.898438 51.183594 123.488281 51.359375 C 125.390625 51.933594 126.039062 53.738281 126.191406 54.277344 C 126.699219 56.101562 125.878906 58.140625 124.128906 59.582031 C 124.191406 60.089844 124.152344 60.605469 123.980469 61.105469 L 123.933594 61.242188 C 123.441406 62.675781 122.082031 63.582031 120.628906 63.582031 C 120.261719 63.582031 119.886719 63.523438 119.519531 63.402344 L 115.8125 62.164062 C 114.921875 61.871094 114.203125 61.246094 113.789062 60.410156 C 113.382812 59.585938 113.324219 58.652344 113.625 57.785156 Z M 114.089844 68.847656 C 114.679688 68.667969 115.230469 68.664062 115.710938 68.730469 C 116.246094 67.828125 117.125 67.234375 118.167969 67.085938 C 119.597656 66.882812 121.03125 67.578125 121.816406 68.84375 C 121.820312 68.851562 121.878906 68.949219 121.886719 68.957031 C 122.902344 70.691406 122.78125 72.421875 122.582031 73.410156 C 123.175781 73.816406 123.65625 74.398438 123.90625 75.125 L 123.953125 75.269531 C 124.253906 76.136719 124.191406 77.070312 123.785156 77.894531 C 123.375 78.730469 122.65625 79.355469 121.765625 79.652344 L 118.054688 80.886719 C 117.6875 81.011719 117.316406 81.066406 116.949219 81.066406 C 115.496094 81.066406 114.136719 80.164062 113.644531 78.730469 L 113.59375 78.585938 C 113.421875 78.089844 113.382812 77.574219 113.445312 77.066406 C 111.695312 75.628906 110.875 73.589844 111.382812 71.769531 C 111.691406 70.65625 112.5625 69.304688 114.089844 68.847656 Z M 99.175781 58.65625 C 99.328125 58.117188 99.964844 56.3125 101.882812 55.734375 C 102.472656 55.558594 103.023438 55.550781 103.503906 55.613281 C 104.039062 54.714844 104.914062 54.121094 105.957031 53.976562 C 107.390625 53.777344 108.820312 54.464844 109.605469 55.730469 C 109.613281 55.742188 109.675781 55.84375 109.679688 55.855469 C 110.695312 57.578125 110.5625 59.339844 110.371094 60.300781 C 110.96875 60.703125 111.449219 61.285156 111.699219 62.015625 L 111.746094 62.15625 C 112.046875 63.027344 111.984375 63.960938 111.578125 64.785156 C 111.164062 65.621094 110.449219 66.242188 109.558594 66.539062 L 105.847656 67.777344 C 105.480469 67.898438 105.105469 67.957031 104.738281 67.957031 C 103.289062 67.957031 101.929688 67.050781 101.433594 65.617188 L 101.386719 65.476562 C 101.214844 64.976562 101.175781 64.460938 101.238281 63.953125 C 99.488281 62.515625 98.667969 60.476562 99.175781 58.65625 Z M 85.097656 105.519531 C 91.105469 102.644531 94.929688 99.050781 96.464844 94.839844 C 97.492188 92.023438 97.5 88.964844 97.511719 86.269531 C 97.527344 82.464844 97.539062 78.867188 100.402344 76.871094 C 101.570312 76.058594 102.976562 75.667969 104.691406 75.679688 C 105.367188 75.6875 105.910156 76.246094 105.902344 76.921875 C 105.890625 77.597656 105.34375 78.136719 104.671875 78.136719 C 104.640625 78.136719 104.597656 78.136719 104.558594 78.136719 C 103.449219 78.136719 102.523438 78.390625 101.808594 78.886719 C 100.082031 80.09375 99.984375 82.480469 99.96875 86.277344 C 99.960938 89.175781 99.945312 92.460938 98.773438 95.679688 C 97.011719 100.519531 92.765625 104.574219 86.160156 107.738281 C 85.988281 107.816406 85.808594 107.855469 85.628906 107.855469 C 85.171875 107.855469 84.730469 107.601562 84.519531 107.160156 C 84.226562 106.546875 84.488281 105.8125 85.097656 105.519531 Z M 85.097656 105.519531 "/><path style=" stroke:none;fill-rule:nonzero;fill:#ffa800;fill-opacity:1;" d="M 107.28125 59.855469 C 107.511719 59.777344 107.75 59.730469 107.980469 59.699219 C 108.082031 59.113281 108.140625 58.082031 107.554688 57.089844 C 107.183594 56.492188 106.671875 56.355469 106.300781 56.410156 C 106.066406 56.441406 105.648438 56.582031 105.492188 57.132812 C 105.226562 58.136719 105.691406 59.316406 106.585938 60.085938 Z M 107.28125 59.855469 "/><path style=" stroke:none;fill-rule:nonzero;fill:#ffa800;fill-opacity:1;" d="M 103.777344 63.910156 C 103.761719 63.949219 103.753906 63.988281 103.734375 64.023438 C 103.652344 64.234375 103.636719 64.460938 103.710938 64.675781 L 103.757812 64.820312 C 103.9375 65.34375 104.527344 65.625 105.070312 65.441406 L 108.78125 64.207031 C 109.042969 64.121094 109.253906 63.9375 109.371094 63.695312 C 109.488281 63.460938 109.503906 63.199219 109.421875 62.953125 L 109.371094 62.8125 C 109.257812 62.476562 108.972656 62.246094 108.644531 62.167969 C 108.597656 62.160156 108.550781 62.167969 108.503906 62.152344 C 108.5 62.152344 108.5 62.148438 108.496094 62.148438 C 108.460938 62.144531 108.429688 62.132812 108.398438 62.132812 C 108.285156 62.132812 108.171875 62.148438 108.058594 62.1875 L 104.351562 63.421875 C 104.101562 63.507812 103.902344 63.683594 103.777344 63.910156 Z M 103.777344 63.910156 "/><path style=" stroke:none;fill-rule:nonzero;fill:#ffa800;fill-opacity:1;" d="M 116.589844 59.835938 L 120.296875 61.074219 C 120.839844 61.253906 121.429688 60.972656 121.609375 60.445312 L 121.65625 60.308594 C 121.734375 60.085938 121.714844 59.855469 121.632812 59.640625 C 121.613281 59.609375 121.605469 59.574219 121.59375 59.542969 C 121.472656 59.3125 121.269531 59.136719 121.015625 59.050781 L 117.304688 57.816406 C 117.195312 57.777344 117.082031 57.761719 116.972656 57.761719 C 116.9375 57.761719 116.90625 57.773438 116.871094 57.777344 C 116.867188 57.777344 116.863281 57.78125 116.863281 57.78125 C 116.816406 57.796875 116.769531 57.789062 116.722656 57.796875 C 116.394531 57.878906 116.109375 58.105469 115.992188 58.441406 L 115.941406 58.589844 C 115.859375 58.828125 115.878906 59.089844 115.992188 59.324219 C 116.113281 59.566406 116.324219 59.75 116.589844 59.835938 Z M 116.589844 59.835938 "/><path style=" stroke:none;fill-rule:nonzero;fill:#ffa800;fill-opacity:1;" d="M 118.085938 55.484375 L 118.78125 55.714844 C 119.675781 54.945312 120.144531 53.765625 119.882812 52.792969 C 119.71875 52.207031 119.300781 52.070312 119.066406 52.039062 C 118.691406 51.976562 118.179688 52.117188 117.851562 52.652344 C 117.242188 53.691406 117.28125 54.722656 117.386719 55.328125 C 117.621094 55.359375 117.851562 55.40625 118.085938 55.484375 Z M 118.085938 55.484375 "/><path style=" stroke:none;fill-rule:nonzero;fill:#ffa800;fill-opacity:1;" d="M 122.925781 57.355469 C 123.664062 56.597656 124.03125 55.679688 123.824219 54.945312 C 123.777344 54.785156 123.503906 53.9375 122.777344 53.71875 C 122.640625 53.675781 122.507812 53.664062 122.378906 53.667969 C 122.308594 54.691406 121.925781 55.695312 121.304688 56.558594 L 121.792969 56.722656 C 122.21875 56.863281 122.59375 57.082031 122.925781 57.355469 Z M 122.925781 57.355469 "/><path style=" stroke:none;fill-rule:nonzero;fill:#ffa800;fill-opacity:1;" d="M 81.066406 74.277344 C 82.101562 72.730469 82.292969 71.066406 82.257812 69.871094 C 81.796875 69.765625 81.335938 69.621094 80.875 69.398438 C 80.125 70.335938 79.039062 71.390625 77.523438 72.226562 C 75.882812 73.132812 74.289062 73.488281 72.996094 73.605469 L 72.996094 77.6875 C 76.335938 78 79.429688 76.730469 81.066406 74.277344 Z M 81.066406 74.277344 "/></g></svg>