<svg xmlns="http://www.w3.org/2000/svg" xmlns:xlink="http://www.w3.org/1999/xlink" width="200" zoomAndPan="magnify" viewBox="0 0 150 157.92" height="200" preserveAspectRatio="xMidYMid meet" version="1.2"><defs><clipPath id="021c02c94a"><path d="M 0.0390625 2 L 149.960938 2 L 149.960938 147.957031 L 0.0390625 147.957031 Z M 0.0390625 2 "/></clipPath></defs><g id="333a5d295e"><g clip-rule="nonzero" clip-path="url(#021c02c94a)"><path style=" stroke:none;fill-rule:evenodd;fill:#ffa800;fill-opacity:1;" d="M 79.804688 52.375 L 79.804688 116.15625 C 79.28125 116.433594 78.769531 116.734375 78.277344 117.0625 C 75.835938 115.511719 72.960938 114.71875 70.003906 114.828125 L 70.003906 52.375 Z M 19.058594 62.246094 C 18.992188 64.125 21.09375 65.265625 22.632812 64.1875 C 23.214844 63.777344 23.5625 63.132812 23.589844 62.421875 C 23.644531 60.941406 23.730469 59.460938 23.84375 57.984375 C 23.964844 56.429688 22.53125 55.226562 21.019531 55.609375 C 20.078125 55.855469 19.402344 56.660156 19.324219 57.625 Z M 134.34375 32.742188 C 134.582031 34.339844 136.335938 35.1875 137.734375 34.382812 C 138.53125 33.914062 138.964844 33.019531 138.835938 32.101562 C 138.609375 30.519531 138.328125 28.972656 137.945312 27.421875 C 137.523438 25.757812 135.488281 25.136719 134.210938 26.292969 C 133.097656 27.3125 133.527344 28.398438 133.769531 29.511719 Z M 128.320312 17.019531 C 129.367188 18.414062 131.519531 18.171875 132.222656 16.570312 C 132.800781 15.238281 132.015625 14.347656 131.265625 13.402344 L 128.761719 10.621094 C 127.613281 9.511719 125.746094 9.875 125.09375 11.332031 C 124.71875 12.199219 124.910156 13.199219 125.585938 13.859375 C 126.636719 14.902344 127.433594 15.835938 128.320312 17.019531 Z M 114.929688 7.539062 C 116.550781 8.023438 118.097656 6.632812 117.8125 4.96875 C 117.542969 3.445312 116.269531 3.179688 115.046875 2.855469 L 111.496094 2.105469 C 110.476562 1.957031 109.488281 2.507812 109.078125 3.453125 C 108.492188 4.824219 109.351562 6.367188 110.824219 6.59375 C 112.289062 6.820312 113.515625 7.109375 114.929688 7.539062 Z M 98.246094 7.246094 C 99.957031 6.789062 100.507812 4.664062 99.246094 3.421875 C 98.191406 2.398438 96.992188 2.859375 95.753906 3.230469 L 92.507812 4.378906 C 90.808594 5.078125 90.597656 7.394531 92.148438 8.390625 C 93.289062 9.113281 94.175781 8.574219 95.238281 8.183594 Z M 83.902344 15.636719 C 84.621094 14.84375 84.695312 13.671875 84.078125 12.796875 C 83.257812 11.636719 81.585938 11.445312 80.457031 12.679688 C 79.386719 13.859375 78.414062 15.105469 77.542969 16.433594 C 76.648438 17.808594 77.445312 19.628906 79.058594 19.914062 C 79.953125 20.058594 80.835938 19.683594 81.335938 18.921875 C 82.121094 17.734375 82.9375 16.683594 83.902344 15.636719 Z M 126.214844 62.421875 C 126.269531 63.664062 127.296875 64.628906 128.542969 64.601562 C 129.8125 64.566406 130.796875 63.515625 130.75 62.246094 L 130.488281 57.625 C 130.339844 55.816406 128.238281 54.90625 126.8125 56.03125 C 126.21875 56.511719 125.910156 57.226562 125.964844 57.984375 C 126.082031 59.460938 126.164062 60.941406 126.214844 62.421875 Z M 127.03125 39.601562 C 126.992188 39.488281 126.953125 39.378906 126.914062 39.269531 C 126.355469 37.75 124.4375 37.285156 123.246094 38.375 C 121.988281 39.550781 122.691406 40.863281 123.128906 42.234375 L 123.914062 44.949219 C 124.15625 45.886719 124.964844 46.566406 125.929688 46.644531 C 127.488281 46.757812 128.6875 45.328125 128.304688 43.8125 Z M 116.253906 30.074219 C 117.460938 31.261719 119.492188 30.769531 120.011719 29.15625 C 120.472656 27.699219 119.507812 26.871094 118.585938 26.03125 C 117.652344 25.183594 116.617188 24.378906 115.5625 23.695312 C 114.878906 23.257812 114.03125 23.21875 113.304688 23.585938 C 111.75 24.394531 111.644531 26.5625 113.117188 27.515625 C 114.296875 28.285156 115.253906 29.085938 116.253906 30.074219 Z M 101.390625 24.152344 C 102.234375 24.167969 103 23.730469 103.417969 23 C 104.25 21.503906 103.199219 19.660156 101.488281 19.621094 C 99.859375 19.589844 98.292969 19.65625 96.671875 19.816406 C 94.890625 20.003906 94.023438 22.082031 95.136719 23.488281 C 96.035156 24.609375 97.144531 24.308594 98.371094 24.226562 Z M 84.433594 27.300781 C 86.023438 26.738281 86.472656 24.730469 85.273438 23.539062 C 84.121094 22.410156 82.871094 23.03125 81.621094 23.484375 L 78.589844 24.648438 C 77.546875 25.066406 76.96875 26.1875 77.234375 27.28125 C 77.566406 28.632812 78.988281 29.367188 80.285156 28.851562 Z M 10.972656 32.105469 C 10.832031 33.082031 11.339844 34.035156 12.230469 34.46875 C 13.621094 35.132812 15.234375 34.269531 15.464844 32.746094 L 16.265625 28.519531 C 16.460938 27.742188 16.230469 26.929688 15.664062 26.363281 C 14.40625 25.125 12.296875 25.714844 11.863281 27.425781 C 11.472656 28.996094 11.203125 30.5 10.972656 32.105469 Z M 17.847656 14.3125 C 17.382812 14.941406 17.269531 15.746094 17.550781 16.484375 C 18.207031 18.148438 20.414062 18.453125 21.488281 17.019531 C 22.382812 15.828125 23.164062 14.914062 24.230469 13.863281 C 25.503906 12.609375 24.894531 10.441406 23.148438 10.035156 C 21.757812 9.710938 20.972656 10.671875 20.121094 11.582031 Z M 33.578125 3.191406 C 31.972656 3.683594 31.429688 5.648438 32.550781 6.894531 C 33.296875 7.710938 34.183594 7.742188 35.144531 7.457031 C 36.421875 7.074219 37.664062 6.796875 38.980469 6.589844 C 40.777344 6.316406 41.542969 4.164062 40.316406 2.816406 C 39.359375 1.769531 38.152344 2.105469 36.917969 2.351562 Z M 52.71875 2.863281 C 51.523438 2.554688 50.3125 3.238281 49.960938 4.421875 C 49.609375 5.652344 50.324219 6.917969 51.566406 7.25 C 53.046875 7.644531 54.167969 8.007812 55.585938 8.582031 C 57.09375 9.1875 58.710938 8.089844 58.710938 6.46875 C 58.703125 5.316406 58.003906 4.664062 57.015625 4.269531 C 55.558594 3.683594 54.234375 3.261719 52.71875 2.863281 Z M 69.253906 12.578125 C 68.546875 11.8125 67.429688 11.613281 66.507812 12.105469 C 65.222656 12.796875 64.855469 14.480469 66 15.734375 C 66.925781 16.75 67.714844 17.777344 68.472656 18.917969 C 69.46875 20.433594 71.757812 20.226562 72.460938 18.554688 C 72.996094 17.277344 72.253906 16.367188 71.542969 15.382812 Z M 21.503906 43.8125 C 21.210938 44.976562 21.847656 46.160156 22.988281 46.539062 C 24.230469 46.949219 25.566406 46.214844 25.894531 44.953125 L 27.160156 40.820312 L 27.15625 40.824219 C 27.703125 39.304688 26.558594 37.730469 24.941406 37.78125 C 24.015625 37.820312 23.214844 38.398438 22.894531 39.269531 Z M 30.359375 26.855469 C 29.109375 28.101562 29.691406 30.230469 31.40625 30.664062 C 32.851562 31.023438 33.519531 30.058594 34.4375 29.238281 L 36.6875 27.511719 C 38.046875 26.632812 38.085938 24.671875 36.761719 23.738281 C 36 23.21875 35.023438 23.195312 34.242188 23.691406 C 32.800781 24.632812 31.582031 25.644531 30.359375 26.855469 Z M 48.320312 19.617188 C 46.699219 19.65625 45.652344 21.316406 46.292969 22.800781 C 46.667969 23.644531 47.488281 24.167969 48.414062 24.152344 C 49.910156 24.128906 51.167969 24.179688 52.660156 24.328125 C 54.207031 24.480469 55.445312 23.09375 55.109375 21.570312 C 54.890625 20.621094 54.101562 19.917969 53.132812 19.816406 C 51.484375 19.648438 49.980469 19.589844 48.320312 19.617188 Z M 66.867188 23.015625 C 66.046875 22.734375 65.152344 22.9375 64.53125 23.539062 C 63.335938 24.726562 63.78125 26.738281 65.371094 27.300781 L 69.519531 28.851562 C 70.8125 29.367188 72.238281 28.632812 72.570312 27.28125 C 72.832031 26.1875 72.253906 25.066406 71.210938 24.648438 Z M 70.003906 47.839844 L 79.800781 47.839844 L 85.847656 36.167969 L 63.957031 36.167969 Z M 46.082031 117.636719 C 43.230469 117.636719 40.601562 118.574219 38.476562 120.160156 C 37.984375 118.1875 37.375 116.273438 36.644531 114.425781 C 36.257812 110.390625 36.617188 106.304688 37.714844 102.390625 C 58.578125 98.871094 49.390625 80.664062 56.414062 73.15625 C 42.101562 73.941406 32.976562 84.722656 34.378906 98.039062 C 33.378906 100.675781 32.691406 103.410156 32.316406 106.179688 C 32.058594 105.796875 31.792969 105.417969 31.523438 105.042969 C 31.011719 104.335938 30.476562 103.640625 29.921875 102.964844 C 27.449219 89.394531 15.242188 81.597656 1.121094 85.351562 C 10.082031 90.292969 7.046875 110.289062 27.660156 107.410156 C 30.324219 111.03125 32.308594 115.074219 33.617188 119.519531 C 28.34375 116.578125 21.636719 119.03125 19.523438 124.71875 C 10.953125 119.835938 0.0625 125.972656 0.0625 136.035156 C 0.0625 140.894531 2.726562 145.132812 6.667969 147.371094 C 7.378906 147.773438 8.082031 147.957031 8.898438 147.957031 C 53.125 147.957031 96.648438 147.957031 140.910156 147.957031 C 141.726562 147.957031 142.429688 147.773438 143.136719 147.371094 C 147.085938 145.132812 149.746094 140.894531 149.746094 136.035156 C 149.746094 125.972656 138.855469 119.832031 130.285156 124.71875 C 128.171875 119.03125 121.46875 116.578125 116.195312 119.519531 C 117.5 115.074219 119.484375 111.03125 122.152344 107.410156 C 142.761719 110.289062 139.730469 90.292969 148.691406 85.351562 C 134.566406 81.597656 122.359375 89.394531 119.886719 102.964844 C 119.332031 103.640625 118.796875 104.335938 118.285156 105.042969 C 118.011719 105.417969 117.75 105.796875 117.492188 106.179688 C 117.113281 103.40625 116.425781 100.675781 115.429688 98.039062 C 116.832031 84.722656 107.707031 73.941406 93.390625 73.15625 C 100.417969 80.664062 91.230469 98.871094 112.09375 102.390625 C 113.1875 106.308594 113.550781 110.394531 113.164062 114.425781 C 112.433594 116.273438 111.824219 118.183594 111.328125 120.160156 C 106.425781 116.492188 99.601562 116.855469 95.105469 121.007812 C 89.792969 117.289062 82.53125 118.183594 78.261719 123.058594 C 73.453125 117.066406 63.9375 118.617188 61.265625 125.800781 C 60.050781 125.109375 58.707031 124.601562 57.285156 124.332031 C 55.136719 120.34375 50.925781 117.636719 46.082031 117.636719 Z M 46.082031 117.636719 "/></g></g></svg>