<svg xmlns="http://www.w3.org/2000/svg" xmlns:xlink="http://www.w3.org/1999/xlink" width="200" zoomAndPan="magnify" viewBox="0 0 150 157.92" height="200" preserveAspectRatio="xMidYMid meet" version="1.2"><defs><clipPath id="f1d6da4619"><path d="M 0.0390625 0 L 149.960938 0 L 149.960938 149.925781 L 0.0390625 149.925781 Z M 0.0390625 0 "/></clipPath></defs><g id="bada5264ac"><g clip-rule="nonzero" clip-path="url(#f1d6da4619)"><path style=" stroke:none;fill-rule:evenodd;fill:#164774;fill-opacity:1;" d="M 5.601562 0.898438 C 3.425781 2.097656 1.941406 3.609375 0.902344 5.683594 L 0.0390625 7.414062 L 0.0390625 141.902344 L 0.800781 143.429688 C 1.84375 145.527344 3.914062 147.503906 6.1875 148.582031 L 8.089844 149.484375 L 141.394531 149.484375 L 143.691406 148.3125 C 146.363281 146.949219 148.074219 145.085938 149.050781 142.472656 L 149.667969 140.824219 L 149.667969 8.222656 L 149.058594 6.589844 C 148.285156 4.515625 145.777344 1.765625 143.742188 0.75 L 142.234375 0 L 74.722656 0.00390625 L 7.210938 0.0117188 Z M 31.371094 20.519531 C 24.441406 21.359375 19.339844 28.15625 20.476562 35.03125 C 21.640625 42.054688 28.269531 46.925781 35.074219 45.757812 C 40.558594 44.820312 44.75 40.660156 45.726562 35.195312 C 47 28.082031 41.550781 21.046875 34.296875 20.4375 C 33.574219 20.375 32.253906 20.414062 31.371094 20.519531 M 95.894531 54.605469 C 93.222656 55.089844 92.007812 55.488281 89.578125 56.679688 C 85.832031 58.515625 82.792969 61.097656 80.855469 64.085938 C 80.316406 64.914062 79.769531 65.589844 79.636719 65.589844 C 79.503906 65.589844 79.390625 63.417969 79.390625 60.761719 L 79.390625 55.929688 L 58.308594 55.929688 L 58.308594 127.375 L 80.234375 127.375 L 80.351562 106.804688 C 80.476562 84.105469 80.488281 83.953125 82.378906 79.96875 C 84.511719 75.480469 89.1875 73.09375 94.886719 73.585938 C 101.269531 74.140625 104.300781 77.839844 105.148438 86.113281 C 105.328125 87.839844 105.453125 97.078125 105.453125 108.226562 L 105.453125 127.375 L 127.449219 127.375 L 127.339844 103.144531 C 127.246094 81.855469 127.171875 78.578125 126.730469 76.132812 C 125.3125 68.277344 123.128906 63.550781 119.253906 59.964844 C 117.398438 58.246094 113.867188 56.265625 111.308594 55.507812 C 106.941406 54.21875 100.203125 53.824219 95.894531 54.605469 M 22 91.652344 L 22 127.375 L 44.253906 127.375 L 44.253906 55.929688 L 22 55.929688 Z M 22 91.652344 "/></g></g></svg>