<svg xmlns="http://www.w3.org/2000/svg" xmlns:xlink="http://www.w3.org/1999/xlink" width="200" zoomAndPan="magnify" viewBox="0 0 150 157.92" height="200" preserveAspectRatio="xMidYMid meet" version="1.2"><defs><clipPath id="fdbe310aa6"><path d="M 35 0 L 115 0 L 115 149.925781 L 35 149.925781 Z M 35 0 "/></clipPath></defs><g id="ef7a189976"><g clip-rule="nonzero" clip-path="url(#fdbe310aa6)"><path style=" stroke:none;fill-rule:evenodd;fill:#164774;fill-opacity:1;" d="M 79.183594 2.363281 C 72.148438 5.109375 65.398438 11.480469 61.929688 18.652344 C 59.75 23.164062 59.261719 26.554688 58.839844 40.117188 L 58.335938 56.222656 L 35.175781 56.222656 L 35.175781 84.332031 L 58.601562 84.332031 L 58.601562 148.707031 L 61.238281 149.367188 C 62.6875 149.726562 69.144531 149.867188 75.585938 149.679688 L 87.296875 149.339844 L 87.921875 84.332031 L 109.84375 84.332031 L 111.75 72.109375 C 112.796875 65.382812 113.652344 59.058594 113.652344 58.050781 C 113.652344 56.503906 111.671875 56.222656 100.769531 56.222656 L 87.882812 56.222656 L 87.882812 46.8125 C 87.882812 30.269531 91.382812 26.03125 105.960938 24.929688 L 114.824219 24.257812 L 114.824219 1.488281 L 109.390625 0.746094 C 98.71875 -0.71875 85.222656 0.00390625 79.183594 2.363281 "/></g></g></svg>