<svg xmlns="http://www.w3.org/2000/svg" xmlns:xlink="http://www.w3.org/1999/xlink" width="200" zoomAndPan="magnify" viewBox="0 0 150 157.92" height="200" preserveAspectRatio="xMidYMid meet" version="1.2"><defs><clipPath id="2592d80e20"><path d="M 0.0390625 0 L 149.960938 0 L 149.960938 149.925781 L 0.0390625 149.925781 Z M 0.0390625 0 "/></clipPath></defs><g id="dddaea0daa"><path style=" stroke:none;fill-rule:evenodd;fill:#ffa800;fill-opacity:1;" d="M 75 53.972656 C 86.59375 53.972656 95.988281 44.574219 95.988281 32.984375 C 95.988281 21.390625 86.59375 11.992188 75 11.992188 C 63.40625 11.992188 54.011719 21.390625 54.011719 32.984375 C 54.011719 44.574219 63.40625 53.972656 75 53.972656 Z M 75 65.964844 C 93.214844 65.964844 107.984375 51.199219 107.984375 32.984375 C 107.984375 14.765625 93.214844 0 75 0 C 56.785156 0 42.015625 14.765625 42.015625 32.984375 C 42.015625 51.199219 56.785156 65.964844 75 65.964844 Z M 75 65.964844 "/><path style=" stroke:none;fill-rule:nonzero;fill:#ffa800;fill-opacity:1;" d="M 78.703125 19.675781 C 81.042969 17.332031 84.839844 17.332031 87.183594 19.675781 C 89.527344 22.015625 89.527344 25.8125 87.183594 28.15625 L 80.292969 35.046875 C 77.949219 37.390625 74.152344 37.390625 71.8125 35.046875 C 69.46875 32.703125 69.46875 28.90625 71.8125 26.566406 Z M 78.703125 19.675781 "/><g clip-rule="nonzero" clip-path="url(#2592d80e20)"><path style=" stroke:none;fill-rule:evenodd;fill:#ffa800;fill-opacity:1;" d="M 107.984375 32.984375 C 107.984375 45.800781 100.671875 56.910156 89.992188 62.371094 L 89.992188 73.460938 L 106.484375 73.460938 C 110.625 73.460938 113.980469 76.820312 113.980469 80.960938 L 113.980469 83.957031 L 119.976562 83.957031 C 136.539062 83.957031 149.960938 97.382812 149.960938 113.941406 L 149.960938 142.429688 C 149.960938 146.566406 146.605469 149.925781 142.464844 149.925781 L 127.472656 149.925781 C 123.332031 149.925781 119.976562 146.566406 119.976562 142.429688 L 119.976562 115.441406 C 119.976562 114.613281 119.304688 113.941406 118.476562 113.941406 L 113.980469 113.941406 L 113.980469 115.441406 C 113.980469 119.582031 110.625 122.9375 106.484375 122.9375 L 43.515625 122.9375 C 39.375 122.9375 36.019531 119.582031 36.019531 115.441406 L 36.019531 113.941406 L 31.523438 113.941406 C 30.695312 113.941406 30.023438 114.613281 30.023438 115.441406 L 30.023438 142.429688 C 30.023438 146.566406 26.667969 149.925781 22.527344 149.925781 L 7.535156 149.925781 C 3.394531 149.925781 0.0390625 146.566406 0.0390625 142.429688 L 0.0390625 113.941406 C 0.0390625 97.382812 13.460938 83.957031 30.023438 83.957031 L 36.019531 83.957031 L 36.019531 80.960938 C 36.019531 76.820312 39.375 73.460938 43.515625 73.460938 L 60.007812 73.460938 L 60.007812 62.371094 C 49.328125 56.910156 42.015625 45.800781 42.015625 32.984375 C 42.015625 14.765625 56.785156 0 75 0 C 93.214844 0 107.984375 14.765625 107.984375 32.984375 Z M 75 53.972656 C 86.59375 53.972656 95.988281 44.574219 95.988281 32.984375 C 95.988281 21.390625 86.59375 11.992188 75 11.992188 C 63.40625 11.992188 54.011719 21.390625 54.011719 32.984375 C 54.011719 44.574219 63.40625 53.972656 75 53.972656 Z M 75 65.964844 C 76.011719 65.964844 77.011719 65.921875 78 65.832031 L 78 73.460938 L 72 73.460938 L 72 65.832031 C 72.988281 65.921875 73.988281 65.964844 75 65.964844 Z M 48.011719 110.945312 L 48.011719 85.457031 L 101.984375 85.457031 L 101.984375 110.945312 Z M 36.019531 95.953125 L 36.019531 101.949219 L 31.523438 101.949219 C 24.070312 101.949219 18.027344 107.988281 18.027344 115.441406 L 18.027344 137.929688 L 12.03125 137.929688 L 12.03125 113.941406 C 12.03125 104.007812 20.085938 95.953125 30.023438 95.953125 Z M 113.980469 101.949219 L 118.476562 101.949219 C 125.929688 101.949219 131.972656 107.988281 131.972656 115.441406 L 131.972656 137.929688 L 137.96875 137.929688 L 137.96875 113.941406 C 137.96875 104.007812 129.914062 95.953125 119.976562 95.953125 L 113.980469 95.953125 Z M 113.980469 101.949219 "/></g></g></svg>