<svg xmlns="http://www.w3.org/2000/svg" xmlns:xlink="http://www.w3.org/1999/xlink" width="200" zoomAndPan="magnify" viewBox="0 0 150 157.92" height="200" preserveAspectRatio="xMidYMid meet" version="1.2"><defs><clipPath id="fe02b16045"><path d="M 0.0390625 2.8125 L 39 2.8125 L 39 53 L 0.0390625 53 Z M 0.0390625 2.8125 "/></clipPath><clipPath id="9ff9d82fd9"><path d="M 117 114 L 149.960938 114 L 149.960938 136 L 117 136 Z M 117 114 "/></clipPath><clipPath id="e58a21e8e3"><path d="M 66 2.8125 L 105 2.8125 L 105 91 L 66 91 Z M 66 2.8125 "/></clipPath></defs><g id="e075588d52"><g clip-rule="nonzero" clip-path="url(#fe02b16045)"><path style=" stroke:none;fill-rule:nonzero;fill:#ffa800;fill-opacity:1;" d="M 38.226562 2.910156 L 29.089844 2.910156 C 28.136719 2.910156 27.191406 2.957031 26.242188 3.054688 C 25.296875 3.148438 24.355469 3.289062 23.425781 3.476562 C 22.492188 3.660156 21.570312 3.894531 20.660156 4.171875 C 19.75 4.445312 18.855469 4.769531 17.980469 5.132812 C 17.101562 5.496094 16.242188 5.902344 15.402344 6.351562 C 14.566406 6.800781 13.75 7.289062 12.960938 7.820312 C 12.167969 8.347656 11.40625 8.914062 10.671875 9.515625 C 9.9375 10.121094 9.230469 10.757812 8.558594 11.429688 C 7.886719 12.105469 7.25 12.808594 6.644531 13.542969 C 6.042969 14.277344 5.476562 15.039062 4.949219 15.832031 C 4.417969 16.621094 3.929688 17.4375 3.480469 18.273438 C 3.03125 19.113281 2.625 19.972656 2.261719 20.851562 C 1.894531 21.726562 1.574219 22.621094 1.296875 23.53125 C 1.023438 24.441406 0.789062 25.363281 0.601562 26.296875 C 0.417969 27.230469 0.277344 28.167969 0.183594 29.113281 C 0.0859375 30.0625 0.0390625 31.007812 0.0390625 31.960938 L 0.0390625 52.867188 L 28.4375 52.867188 L 28.4375 42.765625 C 28.441406 42.097656 28.507812 41.433594 28.628906 40.777344 C 28.753906 40.121094 28.9375 39.480469 29.179688 38.859375 C 29.421875 38.234375 29.714844 37.636719 30.066406 37.070312 C 30.417969 36.5 30.816406 35.96875 31.261719 35.46875 C 31.710938 34.972656 32.199219 34.523438 32.730469 34.113281 C 33.257812 33.707031 33.820312 33.351562 34.417969 33.046875 C 35.011719 32.742188 35.628906 32.492188 36.269531 32.300781 C 36.910156 32.109375 37.5625 31.976562 38.226562 31.902344 Z M 38.226562 2.910156 "/></g><path style=" stroke:none;fill-rule:nonzero;fill:#ffa800;fill-opacity:1;" d="M 41.054688 7.917969 L 63.6875 7.917969 L 63.6875 27.71875 L 41.054688 27.71875 Z M 41.054688 7.917969 "/><g clip-rule="nonzero" clip-path="url(#9ff9d82fd9)"><path style=" stroke:none;fill-rule:nonzero;fill:#ffa800;fill-opacity:1;" d="M 117.347656 114.871094 C 117.289062 114.8125 117.292969 135.804688 117.347656 135.746094 L 149.960938 135.746094 L 149.960938 114.871094 Z M 117.347656 114.871094 "/></g><path style=" stroke:none;fill-rule:nonzero;fill:#ffa800;fill-opacity:1;" d="M 104.730469 99.003906 L 104.730469 96.316406 L 78.195312 120.078125 C 78.714844 121.449219 79.335938 122.773438 80.054688 124.054688 C 80.773438 125.332031 81.585938 126.550781 82.488281 127.707031 C 83.390625 128.863281 84.378906 129.941406 85.445312 130.949219 C 86.511719 131.957031 87.652344 132.875 88.859375 133.710938 C 90.066406 134.542969 91.328125 135.28125 92.648438 135.925781 C 93.964844 136.566406 95.324219 137.105469 96.726562 137.542969 C 98.128906 137.980469 99.554688 138.308594 101.003906 138.53125 C 102.453125 138.75 103.914062 138.859375 105.382812 138.859375 L 114.519531 138.859375 L 114.519531 137.445312 C 114.519531 135.527344 114.515625 110.839844 114.519531 109.863281 C 113.851562 109.792969 113.199219 109.660156 112.558594 109.46875 C 111.917969 109.277344 111.300781 109.027344 110.707031 108.722656 C 110.113281 108.417969 109.546875 108.0625 109.019531 107.65625 C 108.488281 107.25 108 106.796875 107.550781 106.300781 C 107.105469 105.804688 106.707031 105.269531 106.355469 104.699219 C 106.003906 104.132812 105.710938 103.535156 105.46875 102.910156 C 105.226562 102.289062 105.046875 101.648438 104.921875 100.992188 C 104.796875 100.332031 104.734375 99.671875 104.730469 99.003906 Z M 104.730469 99.003906 "/><path style=" stroke:none;fill-rule:nonzero;fill:#ffa800;fill-opacity:1;" d="M 139.4375 82.765625 C 141.039062 81.34375 142.4375 79.742188 143.632812 77.960938 C 144.824219 76.183594 145.773438 74.28125 146.484375 72.257812 C 147.191406 70.238281 147.632812 68.160156 147.808594 66.023438 C 147.988281 63.886719 147.894531 61.765625 147.53125 59.65625 C 147.496094 59.4375 147.40625 59.25 147.253906 59.089844 C 147.105469 58.929688 146.921875 58.824219 146.707031 58.777344 C 146.511719 58.714844 146.3125 58.710938 146.109375 58.769531 C 145.910156 58.824219 145.742188 58.933594 145.605469 59.089844 L 129 77.589844 C 128.824219 77.785156 128.605469 77.917969 128.351562 77.988281 C 128.09375 78.0625 127.839844 78.058594 127.585938 77.984375 L 113.414062 74.164062 C 112.960938 74.039062 112.648438 73.757812 112.480469 73.316406 L 107.164062 59.796875 C 107.0625 59.550781 107.03125 59.296875 107.078125 59.039062 C 107.125 58.777344 107.238281 58.546875 107.417969 58.351562 L 123.484375 40.417969 C 123.625 40.253906 123.710938 40.066406 123.742188 39.855469 C 123.773438 39.640625 123.746094 39.4375 123.660156 39.238281 C 123.570312 39.042969 123.4375 38.882812 123.257812 38.765625 C 123.078125 38.644531 122.878906 38.585938 122.664062 38.582031 L 122.496094 38.582031 C 121.546875 38.582031 120.605469 38.636719 119.664062 38.746094 C 118.722656 38.855469 117.789062 39.011719 116.867188 39.226562 C 115.945312 39.4375 115.035156 39.699219 114.140625 40.011719 C 113.246094 40.324219 112.375 40.683594 111.519531 41.09375 C 110.664062 41.503906 109.835938 41.960938 109.035156 42.460938 C 108.230469 42.960938 107.457031 43.507812 106.714844 44.09375 C 105.972656 44.683594 105.265625 45.308594 104.589844 45.976562 C 103.917969 46.640625 103.285156 47.34375 102.691406 48.082031 C 102.09375 48.816406 101.542969 49.585938 101.03125 50.382812 C 100.523438 51.179688 100.058594 52.003906 99.640625 52.855469 C 99.222656 53.703125 98.855469 54.574219 98.53125 55.464844 C 98.210938 56.355469 97.941406 57.261719 97.71875 58.183594 C 97.5 59.105469 97.332031 60.035156 97.214844 60.976562 C 97.097656 61.914062 97.03125 62.859375 97.019531 63.804688 C 97.007812 64.75 97.046875 65.695312 97.140625 66.640625 C 97.234375 67.582031 97.378906 68.515625 97.574219 69.441406 C 97.730469 70.203125 97.789062 70.976562 97.742188 71.753906 C 97.695312 72.53125 97.546875 73.289062 97.296875 74.027344 C 97.046875 74.765625 96.707031 75.457031 96.273438 76.105469 C 95.84375 76.75 95.332031 77.332031 94.746094 77.84375 L 75.960938 94.644531 L 75.707031 94.871094 L 50.53125 117.417969 C 48.992188 118.777344 47.203125 119.539062 45.15625 119.707031 C 44.324219 119.789062 43.503906 119.941406 42.699219 120.171875 C 41.894531 120.402344 41.117188 120.707031 40.367188 121.082031 C 39.617188 121.453125 38.910156 121.894531 38.242188 122.402344 C 37.578125 122.90625 36.960938 123.46875 36.398438 124.089844 C 35.835938 124.710938 35.335938 125.375 34.894531 126.089844 C 34.457031 126.804688 34.085938 127.550781 33.785156 128.332031 C 33.488281 129.113281 33.261719 129.914062 33.109375 130.738281 C 32.957031 131.5625 32.882812 132.394531 32.886719 133.230469 C 32.886719 134.066406 32.964844 134.898438 33.125 135.71875 C 33.28125 136.542969 33.511719 137.34375 33.816406 138.125 C 34.121094 138.902344 34.496094 139.648438 34.9375 140.359375 C 35.378906 141.070312 35.886719 141.734375 36.453125 142.351562 C 37.019531 142.96875 37.636719 143.527344 38.304688 144.027344 C 38.976562 144.53125 39.6875 144.96875 40.4375 145.335938 C 41.1875 145.707031 41.96875 146.007812 42.773438 146.230469 C 43.582031 146.457031 44.402344 146.609375 45.234375 146.679688 C 46.070312 146.753906 46.902344 146.75 47.734375 146.671875 C 48.570312 146.589844 49.386719 146.433594 50.191406 146.199219 C 50.996094 145.96875 51.773438 145.664062 52.519531 145.285156 C 53.269531 144.910156 53.976562 144.464844 54.640625 143.957031 C 55.308594 143.449219 55.921875 142.886719 56.480469 142.265625 C 57.042969 141.644531 57.542969 140.976562 57.976562 140.261719 C 58.414062 139.546875 58.78125 138.796875 59.082031 138.015625 C 59.378906 137.234375 59.605469 136.429688 59.753906 135.605469 C 60.097656 133.476562 61.058594 131.675781 62.636719 130.203125 C 71.132812 122.632812 98.226562 98.335938 107.132812 90.347656 C 107.691406 89.84375 108.300781 89.414062 108.960938 89.0625 C 109.625 88.710938 110.320312 88.445312 111.046875 88.269531 C 111.777344 88.089844 112.515625 88.003906 113.265625 88.011719 C 114.015625 88.019531 114.753906 88.117188 115.480469 88.308594 C 117.546875 88.898438 119.65625 89.21875 121.808594 89.273438 C 123.957031 89.328125 126.078125 89.113281 128.175781 88.628906 C 130.269531 88.144531 132.269531 87.40625 134.179688 86.410156 C 136.085938 85.417969 137.839844 84.203125 139.4375 82.765625 Z M 52.03125 139.425781 C 51.617188 139.789062 51.175781 140.109375 50.703125 140.382812 C 50.226562 140.660156 49.730469 140.886719 49.210938 141.066406 C 48.695312 141.246094 48.164062 141.375 47.617188 141.449219 C 47.074219 141.523438 46.527344 141.546875 45.980469 141.515625 C 45.433594 141.484375 44.894531 141.402344 44.363281 141.265625 C 43.832031 141.128906 43.316406 140.941406 42.820312 140.703125 C 42.328125 140.464844 41.859375 140.183594 41.421875 139.855469 C 40.980469 139.527344 40.578125 139.15625 40.207031 138.75 C 39.839844 138.34375 39.515625 137.902344 39.234375 137.433594 C 38.953125 136.960938 38.71875 136.46875 38.535156 135.953125 C 38.347656 135.433594 38.214844 134.90625 38.132812 134.363281 C 38.050781 133.820312 38.023438 133.273438 38.046875 132.726562 C 38.070312 132.179688 38.148438 131.636719 38.28125 131.105469 C 38.410156 130.570312 38.589844 130.054688 38.824219 129.558594 C 39.054688 129.058594 39.332031 128.589844 39.65625 128.144531 C 39.976562 127.703125 40.339844 127.292969 40.742188 126.921875 C 41.15625 126.558594 41.597656 126.238281 42.074219 125.964844 C 42.546875 125.6875 43.042969 125.457031 43.5625 125.28125 C 44.082031 125.101562 44.613281 124.972656 45.15625 124.898438 C 45.699219 124.820312 46.246094 124.800781 46.792969 124.832031 C 47.339844 124.863281 47.882812 124.945312 48.414062 125.082031 C 48.945312 125.21875 49.457031 125.40625 49.953125 125.644531 C 50.449219 125.882812 50.914062 126.164062 51.355469 126.492188 C 51.792969 126.820312 52.199219 127.1875 52.566406 127.597656 C 52.933594 128.003906 53.257812 128.441406 53.539062 128.914062 C 53.820312 129.386719 54.054688 129.878906 54.242188 130.394531 C 54.425781 130.910156 54.558594 131.441406 54.640625 131.984375 C 54.722656 132.527344 54.753906 133.074219 54.726562 133.621094 C 54.703125 134.167969 54.625 134.710938 54.496094 135.242188 C 54.363281 135.777344 54.183594 136.292969 53.953125 136.789062 C 53.71875 137.285156 53.441406 137.757812 53.121094 138.199219 C 52.796875 138.644531 52.433594 139.050781 52.03125 139.425781 Z M 52.03125 139.425781 "/><path style=" stroke:none;fill-rule:nonzero;fill:#ffa800;fill-opacity:1;" d="M 46.371094 127.601562 C 45.917969 127.601562 45.472656 127.65625 45.035156 127.765625 C 44.59375 127.875 44.171875 128.039062 43.773438 128.25 C 43.371094 128.460938 43.003906 128.71875 42.664062 129.019531 C 42.324219 129.324219 42.027344 129.660156 41.773438 130.035156 C 41.515625 130.410156 41.308594 130.808594 41.152344 131.234375 C 40.992188 131.65625 40.886719 132.09375 40.835938 132.546875 C 40.78125 132.996094 40.785156 133.445312 40.84375 133.894531 C 40.898438 134.34375 41.011719 134.78125 41.171875 135.203125 C 41.335938 135.625 41.550781 136.023438 41.808594 136.394531 C 42.070312 136.765625 42.371094 137.101562 42.710938 137.398438 C 43.054688 137.695312 43.425781 137.949219 43.828125 138.15625 C 44.230469 138.363281 44.652344 138.519531 45.09375 138.625 C 45.535156 138.730469 45.984375 138.78125 46.4375 138.777344 C 46.890625 138.773438 47.335938 138.714844 47.773438 138.601562 C 48.214844 138.488281 48.632812 138.324219 49.03125 138.109375 C 49.429688 137.894531 49.800781 137.636719 50.136719 137.332031 C 50.546875 136.949219 50.890625 136.515625 51.167969 136.027344 C 51.449219 135.542969 51.652344 135.027344 51.777344 134.480469 C 51.902344 133.933594 51.945312 133.378906 51.902344 132.820312 C 51.863281 132.261719 51.742188 131.71875 51.539062 131.195312 C 51.335938 130.671875 51.0625 130.191406 50.714844 129.75 C 50.371094 129.308594 49.964844 128.929688 49.507812 128.609375 C 49.046875 128.289062 48.550781 128.042969 48.015625 127.871094 C 47.480469 127.699219 46.933594 127.609375 46.371094 127.601562 Z M 46.371094 127.601562 "/><g clip-rule="nonzero" clip-path="url(#e58a21e8e3)"><path style=" stroke:none;fill-rule:nonzero;fill:#ffa800;fill-opacity:1;" d="M 76.300781 42.796875 C 76.273438 52.679688 76.3125 80.332031 76.328125 90.515625 L 92.847656 75.722656 C 93.253906 75.378906 93.605469 74.988281 93.90625 74.554688 C 94.203125 74.117188 94.441406 73.648438 94.613281 73.148438 C 94.789062 72.648438 94.894531 72.136719 94.929688 71.605469 C 94.96875 71.078125 94.933594 70.554688 94.828125 70.035156 C 94.558594 68.820312 94.367188 67.59375 94.257812 66.355469 C 94.152344 65.117188 94.125 63.875 94.179688 62.632812 C 94.238281 61.390625 94.375 60.15625 94.59375 58.933594 C 94.816406 57.710938 95.113281 56.503906 95.496094 55.320312 C 95.875 54.136719 96.332031 52.980469 96.863281 51.859375 C 97.398438 50.734375 98.003906 49.652344 98.679688 48.609375 C 99.355469 47.566406 100.101562 46.570312 100.910156 45.625 C 101.71875 44.679688 102.585938 43.792969 103.515625 42.964844 C 103.882812 42.628906 104.269531 42.316406 104.671875 42.03125 L 104.671875 31.960938 C 104.671875 31.007812 104.625 30.0625 104.53125 29.113281 C 104.4375 28.167969 104.296875 27.226562 104.109375 26.292969 C 103.925781 25.363281 103.695312 24.441406 103.417969 23.53125 C 103.140625 22.621094 102.820312 21.726562 102.457031 20.847656 C 102.089844 19.96875 101.683594 19.109375 101.234375 18.269531 C 100.789062 17.433594 100.296875 16.617188 99.769531 15.828125 C 99.242188 15.035156 98.675781 14.273438 98.070312 13.539062 C 97.46875 12.800781 96.828125 12.097656 96.15625 11.425781 C 95.484375 10.753906 94.78125 10.113281 94.046875 9.511719 C 93.308594 8.90625 92.546875 8.34375 91.757812 7.8125 C 90.964844 7.285156 90.152344 6.796875 89.3125 6.347656 C 88.472656 5.898438 87.613281 5.492188 86.734375 5.128906 C 85.855469 4.761719 84.960938 4.441406 84.050781 4.164062 C 83.140625 3.890625 82.222656 3.65625 81.289062 3.472656 C 80.355469 3.285156 79.414062 3.144531 78.46875 3.050781 C 77.523438 2.957031 76.574219 2.910156 75.621094 2.910156 L 66.515625 2.910156 L 66.515625 31.933594 C 67.179688 32.003906 67.832031 32.136719 68.472656 32.328125 C 69.113281 32.519531 69.730469 32.769531 70.324219 33.074219 C 70.921875 33.378906 71.484375 33.734375 72.011719 34.140625 C 72.542969 34.546875 73.03125 35 73.480469 35.496094 C 73.925781 35.992188 74.324219 36.527344 74.675781 37.097656 C 75.027344 37.664062 75.320312 38.261719 75.5625 38.886719 C 75.804688 39.507812 75.988281 40.148438 76.109375 40.808594 C 76.234375 41.464844 76.296875 42.125 76.300781 42.796875 Z M 76.300781 42.796875 "/></g><path style=" stroke:none;fill-rule:nonzero;fill:#ffa800;fill-opacity:1;" d="M 14.746094 67.773438 C 13.757812 70.148438 5.15625 91.136719 5.15625 96.511719 C 5.164062 97.222656 5.242188 97.929688 5.386719 98.625 C 5.53125 99.320312 5.742188 99.996094 6.019531 100.652344 C 6.296875 101.304688 6.636719 101.929688 7.035156 102.515625 C 7.433594 103.105469 7.886719 103.652344 8.390625 104.152344 C 8.898438 104.652344 9.445312 105.097656 10.039062 105.492188 C 10.632812 105.882812 11.257812 106.214844 11.914062 106.484375 C 12.574219 106.757812 13.25 106.960938 13.949219 107.097656 C 14.648438 107.234375 15.351562 107.304688 16.0625 107.304688 C 16.773438 107.304688 17.480469 107.234375 18.175781 107.097656 C 18.875 106.960938 19.550781 106.757812 20.210938 106.484375 C 20.867188 106.214844 21.492188 105.882812 22.085938 105.492188 C 22.679688 105.097656 23.226562 104.652344 23.734375 104.152344 C 24.238281 103.648438 24.691406 103.105469 25.089844 102.515625 C 25.488281 101.929688 25.828125 101.304688 26.105469 100.652344 C 26.382812 99.996094 26.59375 99.320312 26.738281 98.625 C 26.882812 97.929688 26.960938 97.222656 26.96875 96.511719 C 26.96875 91.136719 18.339844 70.148438 17.351562 67.773438 C 17.222656 67.53125 17.042969 67.339844 16.808594 67.199219 C 16.574219 67.058594 16.320312 66.988281 16.046875 66.988281 C 15.777344 66.988281 15.523438 67.058594 15.289062 67.199219 C 15.054688 67.339844 14.875 67.53125 14.746094 67.773438 Z M 14.746094 67.773438 "/></g></svg>