<svg xmlns="http://www.w3.org/2000/svg" xmlns:xlink="http://www.w3.org/1999/xlink" width="200" zoomAndPan="magnify" viewBox="0 0 150 157.92" height="200" preserveAspectRatio="xMidYMid meet" version="1.2"><defs><clipPath id="cb15507ecb"><path d="M 15.03125 0 L 91 0 L 91 149.925781 L 15.03125 149.925781 Z M 15.03125 0 "/></clipPath></defs><g id="05201af66d"><g clip-rule="nonzero" clip-path="url(#cb15507ecb)"><path style=" stroke:none;fill-rule:nonzero;fill:#ffa800;fill-opacity:1;" d="M 79.445312 26.832031 C 79.445312 12.011719 67.488281 0 52.65625 0 C 37.839844 0 25.898438 11.542969 25.898438 26.359375 L 25.898438 85.660156 C 19.292969 92.433594 15.148438 102.144531 15.148438 112.359375 C 15.148438 133.085938 31.96875 149.898438 52.714844 149.898438 C 73.445312 149.898438 90.273438 133.082031 90.273438 112.359375 C 90.273438 102.09375 86.09375 92.8125 79.445312 86.019531 Z M 52.664062 139.195312 C 37.878906 139.195312 25.945312 127.148438 25.945312 112.359375 C 25.945312 103.628906 30.136719 95.894531 36.605469 91.011719 L 36.605469 26.832031 C 36.605469 17.957031 43.832031 10.769531 52.710938 10.769531 C 61.570312 10.769531 68.773438 17.953125 68.773438 26.832031 L 68.773438 91.074219 C 75.238281 95.957031 79.480469 103.628906 79.480469 112.359375 C 79.480469 127.148438 67.457031 139.195312 52.664062 139.195312 Z M 52.664062 139.195312 "/></g><path style=" stroke:none;fill-rule:nonzero;fill:#ffa800;fill-opacity:1;" d="M 58.023438 97.285156 L 58.023438 53.535156 L 47.355469 53.535156 L 47.355469 97.285156 C 41.128906 99.5 36.652344 105.382812 36.652344 112.359375 C 36.652344 121.242188 43.832031 128.425781 52.714844 128.425781 C 61.574219 128.425781 68.777344 121.242188 68.777344 112.359375 C 68.773438 105.382812 64.242188 99.5 58.023438 97.285156 Z M 58.023438 97.285156 "/><path style=" stroke:none;fill-rule:nonzero;fill:#ffa800;fill-opacity:1;" d="M 111.601562 21.414062 L 90.230469 42.789062 L 106.207031 42.789062 L 106.207031 58.84375 L 116.910156 58.84375 L 116.910156 42.789062 L 132.972656 42.789062 Z M 111.601562 21.414062 "/></g></svg>