<svg xmlns="http://www.w3.org/2000/svg" xmlns:xlink="http://www.w3.org/1999/xlink" width="200" zoomAndPan="magnify" viewBox="0 0 150 157.92" height="200" preserveAspectRatio="xMidYMid meet" version="1.2"><defs><clipPath id="d254f1d66e"><path d="M 0.0390625 10.121094 L 149.960938 10.121094 L 149.960938 139.804688 L 0.0390625 139.804688 Z M 0.0390625 10.121094 "/></clipPath></defs><g id="04a9820179"><g clip-rule="nonzero" clip-path="url(#d254f1d66e)"><path style=" stroke:none;fill-rule:evenodd;fill:#ffa800;fill-opacity:1;" d="M 22.957031 10.59375 C 24.058594 10.105469 25.351562 10.601562 25.839844 11.703125 C 26.332031 12.808594 25.835938 14.101562 24.730469 14.589844 C 24.730469 14.589844 22.964844 15.335938 22.175781 16.71875 C 21.5625 17.804688 21.480469 18.503906 21.503906 19.945312 C 21.53125 21.308594 21.625 22.023438 21.910156 22.839844 C 22.617188 24.890625 23.40625 26.316406 24.25 27.757812 C 25.40625 29.726562 26.847656 31.335938 28.027344 34.089844 C 28.59375 35.40625 29.066406 37.117188 29.035156 39.160156 C 28.996094 41.785156 28.800781 43.367188 26.859375 46.675781 C 26.226562 47.753906 24.382812 50.652344 24.382812 50.652344 C 23.738281 51.671875 22.386719 51.972656 21.367188 51.328125 C 20.347656 50.679688 20.046875 49.328125 20.695312 48.308594 C 20.695312 48.308594 22.476562 45.503906 23.089844 44.460938 C 24.476562 42.097656 24.636719 40.972656 24.664062 39.097656 C 24.683594 37.773438 24.375 36.667969 24.007812 35.8125 C 22.914062 33.265625 21.546875 31.789062 20.480469 29.96875 C 19.5 28.296875 18.597656 26.644531 17.777344 24.269531 C 17.363281 23.070312 17.171875 22.027344 17.132812 20.03125 C 17.085938 17.570312 17.328125 16.402344 18.375 14.558594 C 19.808594 12.035156 22.957031 10.59375 22.957031 10.59375 Z M 57.566406 10.59375 C 58.667969 10.105469 59.960938 10.601562 60.453125 11.703125 C 60.945312 12.808594 60.445312 14.101562 59.34375 14.589844 C 59.34375 14.589844 57.574219 15.335938 56.789062 16.71875 C 56.171875 17.804688 56.089844 18.503906 56.117188 19.945312 C 56.144531 21.308594 56.238281 22.023438 56.519531 22.839844 C 57.226562 24.890625 58.015625 26.316406 58.863281 27.757812 C 60.015625 29.726562 61.457031 31.335938 62.640625 34.089844 C 63.203125 35.40625 63.675781 37.117188 63.648438 39.160156 C 63.609375 41.785156 63.414062 43.367188 61.472656 46.675781 C 60.835938 47.753906 58.996094 50.652344 58.996094 50.652344 C 58.347656 51.671875 56.996094 51.972656 55.976562 51.328125 C 54.960938 50.679688 54.65625 49.328125 55.304688 48.308594 C 55.304688 48.308594 57.085938 45.503906 57.703125 44.460938 C 59.089844 42.097656 59.246094 40.972656 59.273438 39.097656 C 59.292969 37.773438 58.984375 36.667969 58.621094 35.8125 C 57.527344 33.265625 56.160156 31.789062 55.089844 29.96875 C 54.109375 28.296875 53.207031 26.644531 52.386719 24.269531 C 51.972656 23.070312 51.78125 22.027344 51.746094 20.03125 C 51.699219 17.570312 51.9375 16.402344 52.988281 14.558594 C 54.421875 12.035156 57.566406 10.59375 57.566406 10.59375 Z M 92.179688 10.59375 C 93.28125 10.105469 94.574219 10.601562 95.0625 11.703125 C 95.554688 12.808594 95.058594 14.101562 93.957031 14.589844 C 93.957031 14.589844 92.1875 15.335938 91.398438 16.71875 C 90.785156 17.804688 90.699219 18.503906 90.730469 19.945312 C 90.753906 21.308594 90.847656 22.023438 91.132812 22.839844 C 91.839844 24.890625 92.628906 26.316406 93.472656 27.757812 C 94.628906 29.726562 96.070312 31.335938 97.25 34.089844 C 97.816406 35.40625 98.289062 37.117188 98.257812 39.160156 C 98.21875 41.785156 98.023438 43.367188 96.082031 46.675781 C 95.449219 47.753906 93.605469 50.652344 93.605469 50.652344 C 92.960938 51.671875 91.609375 51.972656 90.589844 51.328125 C 89.570312 50.679688 89.269531 49.328125 89.914062 48.308594 C 89.914062 48.308594 91.699219 45.503906 92.3125 44.460938 C 93.699219 42.097656 93.859375 40.972656 93.886719 39.097656 C 93.90625 37.773438 93.597656 36.667969 93.230469 35.8125 C 92.136719 33.265625 90.769531 31.789062 89.703125 29.96875 C 88.722656 28.296875 87.820312 26.644531 86.996094 24.269531 C 86.585938 23.070312 86.394531 22.027344 86.355469 20.03125 C 86.308594 17.570312 86.550781 16.402344 87.597656 14.558594 C 89.03125 12.035156 92.179688 10.59375 92.179688 10.59375 Z M 126.789062 10.59375 C 127.890625 10.105469 129.183594 10.601562 129.675781 11.703125 C 130.164062 12.808594 129.667969 14.101562 128.566406 14.589844 C 128.566406 14.589844 126.796875 15.335938 126.011719 16.71875 C 125.394531 17.804688 125.3125 18.503906 125.339844 19.945312 C 125.367188 21.308594 125.460938 22.023438 125.742188 22.839844 C 126.449219 24.890625 127.238281 26.316406 128.085938 27.757812 C 129.238281 29.726562 130.679688 31.335938 131.863281 34.089844 C 132.425781 35.40625 132.898438 37.117188 132.871094 39.160156 C 132.832031 41.785156 132.636719 43.367188 130.695312 46.675781 C 130.058594 47.753906 128.21875 50.652344 128.21875 50.652344 C 127.570312 51.671875 126.21875 51.972656 125.199219 51.328125 C 124.183594 50.679688 123.878906 49.328125 124.527344 48.308594 C 124.527344 48.308594 126.308594 45.503906 126.921875 44.460938 C 128.3125 42.097656 128.46875 40.972656 128.496094 39.097656 C 128.515625 37.773438 128.207031 36.667969 127.84375 35.8125 C 126.75 33.265625 125.378906 31.789062 124.3125 29.96875 C 123.332031 28.296875 122.429688 26.644531 121.609375 24.269531 C 121.195312 23.070312 121.003906 22.027344 120.96875 20.03125 C 120.921875 17.570312 121.160156 16.402344 122.210938 14.558594 C 123.644531 12.035156 126.789062 10.59375 126.789062 10.59375 Z M 15.28125 107.390625 L 4.722656 107.390625 C 2.136719 107.390625 0.0390625 105.292969 0.0390625 102.703125 L 0.0390625 64.960938 C 0.0390625 62.375 2.136719 60.277344 4.722656 60.277344 L 145.277344 60.277344 C 147.863281 60.277344 149.960938 62.375 149.960938 64.960938 L 149.960938 102.703125 C 149.960938 105.292969 147.863281 107.390625 145.277344 107.390625 L 134.699219 107.390625 C 134.058594 106.285156 132.953125 105.503906 131.671875 105.28125 C 130.894531 105.144531 130.113281 105.222656 129.402344 105.488281 C 128.578125 96.109375 124.425781 87.789062 115.78125 80.644531 C 114.5625 79.640625 112.894531 79.367188 111.417969 79.9375 C 109.945312 80.507812 108.890625 81.828125 108.667969 83.394531 C 108.089844 87.402344 107.539062 91.175781 105.691406 94.863281 C 104.757812 94.308594 103.644531 93.800781 102.253906 93.261719 C 101.167969 92.84375 99.960938 92.875 98.898438 93.347656 C 97.835938 93.824219 97.007812 94.699219 96.59375 95.785156 C 94.859375 100.34375 93.074219 103.597656 91.652344 107.390625 L 58.332031 107.390625 C 57.6875 106.285156 56.582031 105.503906 55.300781 105.28125 C 54.527344 105.144531 53.746094 105.222656 53.03125 105.488281 C 52.210938 96.109375 48.054688 87.789062 39.410156 80.644531 C 38.191406 79.640625 36.523438 79.367188 35.050781 79.9375 C 33.574219 80.507812 32.523438 81.828125 32.296875 83.394531 C 31.722656 87.402344 31.171875 91.175781 29.320312 94.863281 C 28.390625 94.308594 27.277344 93.800781 25.882812 93.261719 C 24.800781 92.84375 23.589844 92.875 22.53125 93.347656 C 21.46875 93.824219 20.636719 94.699219 20.222656 95.785156 C 18.488281 100.34375 16.707031 103.597656 15.28125 107.390625 Z M 124.796875 114.835938 C 127.574219 113.234375 128.523438 112.359375 130.921875 109.589844 C 136.839844 124.863281 128.972656 139.796875 111.425781 139.578125 C 97.742188 139.40625 91.765625 128.035156 93.929688 115.585938 C 95.257812 107.988281 98.058594 104.230469 100.679688 97.34375 C 103.777344 98.539062 104.980469 99.484375 106.304688 101.839844 C 111.085938 96.089844 112.085938 90.335938 112.996094 84.015625 C 123.257812 92.496094 126.34375 102.863281 124.796875 114.835938 Z M 113.226562 110.375 C 110.867188 113.75 107.226562 115.910156 106.148438 120.503906 C 105.152344 124.710938 107.589844 129.054688 112.074219 129.113281 C 117.828125 129.191406 120.667969 123.898438 117.585938 119.234375 C 115.625 116.269531 114.804688 114.953125 113.226562 110.375 Z M 48.429688 114.835938 C 51.207031 113.234375 52.152344 112.359375 54.550781 109.589844 C 60.472656 124.863281 52.601562 139.796875 35.058594 139.578125 C 21.375 139.40625 15.394531 128.035156 17.5625 115.585938 C 18.886719 107.988281 21.6875 104.230469 24.3125 97.34375 C 27.410156 98.539062 28.609375 99.484375 29.933594 101.839844 C 34.714844 96.089844 35.714844 90.335938 36.625 84.015625 C 46.890625 92.496094 49.972656 102.863281 48.429688 114.835938 Z M 36.859375 110.375 C 34.496094 113.75 30.859375 115.910156 29.777344 120.503906 C 28.78125 124.710938 31.21875 129.054688 35.707031 129.113281 C 41.457031 129.191406 44.300781 123.898438 41.214844 119.234375 C 39.257812 116.269531 38.4375 114.953125 36.859375 110.375 Z M 36.859375 110.375 "/></g></g></svg>