<svg xmlns="http://www.w3.org/2000/svg" xmlns:xlink="http://www.w3.org/1999/xlink" width="1080" zoomAndPan="magnify" viewBox="0 0 810 809.999993" height="1080" preserveAspectRatio="xMidYMid meet" version="1.2"><defs><clipPath id="4a5a4dec23"><path d="M 243 249.074219 L 326 249.074219 L 326 358 L 243 358 Z M 243 249.074219 "/></clipPath><clipPath id="25e40a8b35"><path d="M 386 249.074219 L 470 249.074219 L 470 439 L 386 439 Z M 386 249.074219 "/></clipPath></defs><g id="01964cd679"><g clip-rule="nonzero" clip-path="url(#4a5a4dec23)"><path style=" stroke:none;fill-rule:nonzero;fill:#154371;fill-opacity:1;" d="M 325.527344 249.289062 L 305.785156 249.289062 C 303.726562 249.289062 301.679688 249.394531 299.632812 249.597656 C 297.585938 249.800781 295.558594 250.105469 293.542969 250.507812 C 291.527344 250.914062 289.535156 251.414062 287.570312 252.011719 C 285.601562 252.609375 283.671875 253.304688 281.773438 254.089844 C 279.875 254.878906 278.019531 255.757812 276.207031 256.726562 C 274.394531 257.699219 272.632812 258.753906 270.925781 259.898438 C 269.21875 261.039062 267.570312 262.261719 265.980469 263.566406 C 264.390625 264.871094 262.871094 266.25 261.417969 267.703125 C 259.964844 269.15625 258.585938 270.675781 257.28125 272.265625 C 255.976562 273.855469 254.753906 275.503906 253.609375 277.210938 C 252.46875 278.921875 251.410156 280.679688 250.441406 282.492188 C 249.472656 284.304688 248.59375 286.160156 247.804688 288.058594 C 247.015625 289.957031 246.324219 291.890625 245.726562 293.855469 C 245.128906 295.820312 244.625 297.8125 244.222656 299.828125 C 243.820312 301.84375 243.515625 303.875 243.3125 305.917969 C 243.109375 307.964844 243.003906 310.015625 243 312.070312 L 243 357.246094 L 304.378906 357.246094 L 304.378906 335.421875 C 304.382812 334.703125 304.417969 333.980469 304.488281 333.265625 C 304.554688 332.546875 304.65625 331.835938 304.792969 331.125 C 304.925781 330.417969 305.089844 329.71875 305.289062 329.023438 C 305.488281 328.332031 305.714844 327.648438 305.976562 326.976562 C 306.238281 326.304688 306.527344 325.644531 306.847656 325 C 307.167969 324.351562 307.515625 323.722656 307.894531 323.109375 C 308.273438 322.496094 308.675781 321.898438 309.109375 321.324219 C 309.539062 320.746094 309.996094 320.1875 310.480469 319.652344 C 310.960938 319.117188 311.46875 318.605469 311.996094 318.117188 C 312.527344 317.628906 313.078125 317.164062 313.648438 316.722656 C 314.21875 316.285156 314.808594 315.871094 315.417969 315.488281 C 316.027344 315.101562 316.652344 314.742188 317.296875 314.414062 C 317.9375 314.085938 318.589844 313.789062 319.261719 313.519531 C 319.929688 313.25 320.609375 313.011719 321.300781 312.804688 C 321.988281 312.597656 322.6875 312.421875 323.394531 312.28125 C 324.101562 312.136719 324.8125 312.027344 325.527344 311.949219 Z M 325.527344 249.289062 "/></g><path style=" stroke:none;fill-rule:nonzero;fill:#154371;fill-opacity:1;" d="M 331.644531 260.109375 L 380.550781 260.109375 L 380.550781 302.898438 L 331.644531 302.898438 Z M 331.644531 260.109375 "/><path style=" stroke:none;fill-rule:nonzero;fill:#154371;fill-opacity:1;" d="M 496.515625 491.246094 C 496.394531 491.121094 496.402344 536.488281 496.511719 536.363281 L 567 536.363281 L 567 491.246094 Z M 496.515625 491.246094 "/><path style=" stroke:none;fill-rule:nonzero;fill:#154371;fill-opacity:1;" d="M 469.25 456.953125 L 469.25 451.144531 L 411.90625 502.496094 C 412.46875 503.976562 413.082031 505.433594 413.75 506.867188 C 414.421875 508.300781 415.144531 509.710938 415.921875 511.089844 C 416.695312 512.46875 417.523438 513.816406 418.402344 515.136719 C 419.28125 516.453125 420.207031 517.734375 421.183594 518.980469 C 422.15625 520.230469 423.179688 521.4375 424.246094 522.605469 C 425.3125 523.777344 426.421875 524.90625 427.574219 525.992188 C 428.726562 527.078125 429.917969 528.117188 431.148438 529.113281 C 432.378906 530.109375 433.644531 531.058594 434.949219 531.957031 C 436.25 532.855469 437.585938 533.707031 438.953125 534.503906 C 440.320312 535.304688 441.714844 536.050781 443.136719 536.746094 C 444.558594 537.4375 446.007812 538.078125 447.480469 538.660156 C 448.949219 539.246094 450.441406 539.773438 451.953125 540.242188 C 453.464844 540.714844 454.992188 541.128906 456.535156 541.484375 C 458.078125 541.839844 459.632812 542.136719 461.195312 542.375 C 462.761719 542.609375 464.332031 542.789062 465.914062 542.910156 C 467.492188 543.027344 469.070312 543.085938 470.65625 543.085938 L 490.402344 543.085938 L 490.402344 540.03125 C 490.40625 535.882812 490.398438 482.53125 490.402344 480.425781 C 489.683594 480.347656 488.972656 480.238281 488.265625 480.09375 C 487.558594 479.953125 486.859375 479.777344 486.171875 479.570312 C 485.480469 479.363281 484.800781 479.125 484.128906 478.855469 C 483.460938 478.589844 482.804688 478.289062 482.164062 477.960938 C 481.523438 477.632812 480.898438 477.277344 480.289062 476.890625 C 479.679688 476.503906 479.089844 476.09375 478.515625 475.652344 C 477.945312 475.214844 477.394531 474.75 476.867188 474.261719 C 476.335938 473.773438 475.832031 473.257812 475.347656 472.722656 C 474.863281 472.1875 474.40625 471.632812 473.976562 471.054688 C 473.542969 470.476562 473.140625 469.882812 472.761719 469.265625 C 472.382812 468.652344 472.035156 468.023438 471.714844 467.375 C 471.394531 466.730469 471.105469 466.070312 470.84375 465.398438 C 470.585938 464.726562 470.355469 464.042969 470.160156 463.351562 C 469.960938 462.65625 469.796875 461.957031 469.660156 461.25 C 469.527344 460.539062 469.425781 459.828125 469.359375 459.109375 C 469.289062 458.390625 469.253906 457.671875 469.25 456.953125 Z M 469.25 456.953125 "/><path style=" stroke:none;fill-rule:nonzero;fill:#154371;fill-opacity:1;" d="M 544.257812 421.863281 C 545.980469 420.332031 547.601562 418.695312 549.117188 416.960938 C 550.632812 415.222656 552.035156 413.398438 553.316406 411.480469 C 554.601562 409.566406 555.757812 407.578125 556.789062 405.515625 C 557.820312 403.453125 558.71875 401.335938 559.480469 399.160156 C 560.242188 396.980469 560.863281 394.765625 561.34375 392.511719 C 561.824219 390.257812 562.15625 387.980469 562.347656 385.683594 C 562.539062 383.382812 562.585938 381.085938 562.484375 378.78125 C 562.382812 376.476562 562.132812 374.191406 561.742188 371.917969 C 561.671875 371.449219 561.472656 371.042969 561.148438 370.695312 C 560.824219 370.347656 560.433594 370.125 559.96875 370.023438 C 559.539062 369.886719 559.109375 369.882812 558.675781 370.003906 C 558.242188 370.125 557.878906 370.355469 557.585938 370.695312 L 521.699219 410.675781 C 521.316406 411.097656 520.847656 411.386719 520.296875 411.542969 C 519.742188 411.695312 519.195312 411.691406 518.644531 411.53125 L 488.015625 403.277344 C 487.554688 403.148438 487.144531 402.925781 486.789062 402.601562 C 486.433594 402.277344 486.171875 401.894531 486 401.445312 L 474.507812 372.222656 C 474.285156 371.695312 474.226562 371.148438 474.324219 370.582031 C 474.425781 370.019531 474.667969 369.527344 475.058594 369.105469 L 509.78125 330.347656 C 510.082031 329.996094 510.269531 329.589844 510.335938 329.128906 C 510.40625 328.667969 510.34375 328.222656 510.15625 327.796875 C 509.964844 327.375 509.675781 327.03125 509.289062 326.773438 C 508.898438 326.515625 508.472656 326.382812 508.007812 326.375 L 507.640625 326.375 C 506.617188 326.378906 505.59375 326.410156 504.574219 326.46875 C 503.554688 326.527344 502.535156 326.617188 501.519531 326.734375 C 500.503906 326.851562 499.492188 326.996094 498.484375 327.167969 C 497.476562 327.339844 496.472656 327.539062 495.476562 327.769531 C 494.480469 327.996094 493.492188 328.253906 492.507812 328.535156 C 491.527344 328.820312 490.550781 329.128906 489.585938 329.464844 C 488.621094 329.804688 487.667969 330.167969 486.722656 330.558594 C 485.777344 330.949219 484.84375 331.363281 483.921875 331.808594 C 483 332.25 482.089844 332.71875 481.195312 333.210938 C 480.296875 333.703125 479.417969 334.21875 478.550781 334.761719 C 477.683594 335.304688 476.832031 335.867188 475.996094 336.457031 C 475.160156 337.046875 474.339844 337.65625 473.539062 338.292969 C 472.738281 338.925781 471.953125 339.582031 471.1875 340.261719 C 470.421875 340.9375 469.675781 341.636719 468.949219 342.359375 C 468.222656 343.078125 467.515625 343.816406 466.832031 344.574219 C 466.144531 345.332031 465.480469 346.109375 464.839844 346.90625 C 464.199219 347.703125 463.578125 348.515625 462.980469 349.34375 C 462.382812 350.175781 461.808594 351.019531 461.257812 351.882812 C 460.710938 352.742188 460.183594 353.621094 459.679688 354.511719 C 459.179688 355.402344 458.703125 356.304688 458.253906 357.222656 C 457.800781 358.140625 457.375 359.070312 456.976562 360.011719 C 456.574219 360.953125 456.203125 361.902344 455.855469 362.867188 C 455.507812 363.828125 455.1875 364.796875 454.894531 365.777344 C 454.601562 366.757812 454.335938 367.746094 454.097656 368.738281 C 453.859375 369.734375 453.652344 370.734375 453.46875 371.738281 C 453.285156 372.746094 453.128906 373.757812 453.003906 374.769531 C 452.878906 375.785156 452.78125 376.804688 452.710938 377.824219 C 452.640625 378.84375 452.597656 379.863281 452.585938 380.886719 C 452.570312 381.910156 452.585938 382.929688 452.628906 383.953125 C 452.671875 384.972656 452.746094 385.992188 452.84375 387.011719 C 452.945312 388.027344 453.074219 389.042969 453.230469 390.054688 C 453.386719 391.0625 453.570312 392.070312 453.785156 393.070312 C 454.125 394.71875 454.246094 396.382812 454.144531 398.0625 C 454.042969 399.742188 453.722656 401.378906 453.1875 402.976562 C 452.648438 404.570312 451.914062 406.066406 450.976562 407.46875 C 450.039062 408.867188 448.9375 410.121094 447.667969 411.226562 L 407.078125 447.539062 L 406.527344 448.027344 L 352.121094 496.75 C 350.503906 498.179688 348.699219 499.316406 346.714844 500.164062 C 344.726562 501.007812 342.660156 501.523438 340.507812 501.699219 C 339.605469 501.785156 338.714844 501.910156 337.828125 502.078125 C 336.941406 502.246094 336.0625 502.453125 335.195312 502.703125 C 334.328125 502.949219 333.472656 503.238281 332.628906 503.566406 C 331.789062 503.894531 330.964844 504.261719 330.15625 504.664062 C 329.351562 505.066406 328.5625 505.507812 327.796875 505.984375 C 327.03125 506.460938 326.285156 506.972656 325.566406 507.519531 C 324.847656 508.0625 324.15625 508.640625 323.488281 509.25 C 322.824219 509.859375 322.1875 510.5 321.582031 511.167969 C 320.972656 511.835938 320.398438 512.53125 319.855469 513.253906 C 319.3125 513.976562 318.804688 514.722656 318.332031 515.488281 C 317.859375 516.257812 317.421875 517.046875 317.023438 517.855469 C 316.621094 518.667969 316.257812 519.492188 315.933594 520.335938 C 315.609375 521.175781 315.328125 522.035156 315.082031 522.902344 C 314.835938 523.773438 314.632812 524.648438 314.46875 525.539062 C 314.304688 526.425781 314.183594 527.320312 314.101562 528.21875 C 314.023438 529.117188 313.984375 530.019531 313.984375 530.921875 C 313.988281 531.824219 314.03125 532.726562 314.117188 533.625 C 314.203125 534.523438 314.332031 535.414062 314.5 536.300781 C 314.667969 537.191406 314.878906 538.066406 315.128906 538.933594 C 315.378906 539.800781 315.667969 540.65625 315.996094 541.496094 C 316.324219 542.339844 316.691406 543.160156 317.097656 543.96875 C 317.503906 544.777344 317.945312 545.5625 318.421875 546.328125 C 318.898438 547.09375 319.410156 547.835938 319.957031 548.554688 C 320.503906 549.273438 321.082031 549.964844 321.695312 550.628906 C 322.304688 551.296875 322.945312 551.929688 323.613281 552.535156 C 324.285156 553.140625 324.980469 553.714844 325.703125 554.257812 C 326.425781 554.800781 327.171875 555.304688 327.941406 555.777344 C 328.710938 556.25 329.5 556.6875 330.308594 557.085938 C 331.117188 557.484375 331.945312 557.847656 332.789062 558.167969 C 333.632812 558.492188 334.488281 558.773438 335.355469 559.019531 C 336.226562 559.261719 337.105469 559.464844 337.992188 559.628906 C 338.882812 559.789062 339.773438 559.910156 340.675781 559.988281 C 341.574219 560.070312 342.476562 560.105469 343.378906 560.101562 C 344.28125 560.097656 345.179688 560.054688 346.082031 559.964844 C 346.980469 559.878906 347.871094 559.75 348.757812 559.582031 C 349.644531 559.410156 350.523438 559.199219 351.390625 558.949219 C 352.257812 558.699219 353.109375 558.40625 353.949219 558.078125 C 354.789062 557.746094 355.613281 557.378906 356.421875 556.972656 C 357.226562 556.566406 358.011719 556.125 358.777344 555.644531 C 359.542969 555.167969 360.285156 554.652344 361.003906 554.105469 C 361.71875 553.558594 362.410156 552.980469 363.074219 552.367188 C 363.738281 551.753906 364.375 551.113281 364.980469 550.445312 C 365.585938 549.773438 366.15625 549.078125 366.699219 548.355469 C 367.238281 547.632812 367.742188 546.882812 368.214844 546.113281 C 368.6875 545.34375 369.121094 544.554688 369.519531 543.742188 C 369.917969 542.933594 370.277344 542.105469 370.597656 541.261719 C 370.921875 540.417969 371.203125 539.5625 371.445312 538.691406 C 371.6875 537.824219 371.890625 536.945312 372.050781 536.054688 C 372.410156 533.816406 373.128906 531.699219 374.195312 529.699219 C 375.261719 527.699219 376.625 525.925781 378.285156 524.378906 C 396.640625 508.019531 455.191406 455.511719 474.445312 438.246094 C 475.644531 437.15625 476.960938 436.230469 478.394531 435.472656 C 479.824219 434.710938 481.328125 434.136719 482.902344 433.753906 C 484.476562 433.371094 486.074219 433.183594 487.695312 433.199219 C 489.316406 433.214844 490.910156 433.429688 492.480469 433.84375 C 494.707031 434.476562 496.960938 434.96875 499.25 435.320312 C 501.539062 435.667969 503.839844 435.871094 506.152344 435.929688 C 508.464844 435.988281 510.773438 435.898438 513.078125 435.664062 C 515.378906 435.433594 517.660156 435.054688 519.914062 434.53125 C 522.167969 434.011719 524.382812 433.347656 526.554688 432.546875 C 528.726562 431.746094 530.835938 430.8125 532.890625 429.742188 C 534.941406 428.671875 536.921875 427.480469 538.824219 426.160156 C 540.726562 424.84375 542.535156 423.410156 544.257812 421.863281 Z M 355.359375 544.308594 C 354.917969 544.699219 354.457031 545.070312 353.976562 545.414062 C 353.496094 545.761719 353 546.082031 352.488281 546.382812 C 351.976562 546.679688 351.453125 546.953125 350.914062 547.199219 C 350.378906 547.445312 349.828125 547.664062 349.269531 547.859375 C 348.710938 548.050781 348.144531 548.21875 347.570312 548.355469 C 346.992188 548.492188 346.414062 548.601562 345.828125 548.683594 C 345.242188 548.765625 344.652344 548.816406 344.0625 548.839844 C 343.46875 548.867188 342.878906 548.859375 342.289062 548.828125 C 341.699219 548.792969 341.109375 548.730469 340.523438 548.640625 C 339.941406 548.550781 339.363281 548.429688 338.789062 548.28125 C 338.214844 548.132812 337.652344 547.960938 337.09375 547.757812 C 336.539062 547.554688 335.996094 547.324219 335.460938 547.070312 C 334.925781 546.816406 334.40625 546.535156 333.902344 546.226562 C 333.394531 545.921875 332.90625 545.589844 332.429688 545.238281 C 331.957031 544.882812 331.5 544.507812 331.0625 544.109375 C 330.628906 543.710938 330.210938 543.289062 329.8125 542.851562 C 329.417969 542.410156 329.042969 541.953125 328.691406 541.480469 C 328.339844 541.003906 328.011719 540.511719 327.707031 540.003906 C 327.402344 539.496094 327.125 538.976562 326.871094 538.441406 C 326.621094 537.90625 326.394531 537.359375 326.191406 536.800781 C 325.992188 536.246094 325.820312 535.679688 325.675781 535.105469 C 325.53125 534.53125 325.414062 533.953125 325.328125 533.367188 C 325.238281 532.785156 325.179688 532.195312 325.148438 531.605469 C 325.117188 531.015625 325.113281 530.421875 325.140625 529.832031 C 325.167969 529.242188 325.222656 528.652344 325.308594 528.066406 C 325.390625 527.480469 325.503906 526.902344 325.644531 526.328125 C 325.785156 525.753906 325.953125 525.183594 326.148438 524.628906 C 326.347656 524.070312 326.570312 523.523438 326.816406 522.984375 C 327.066406 522.449219 327.34375 521.925781 327.640625 521.414062 C 327.941406 520.90625 328.265625 520.410156 328.617188 519.933594 C 328.964844 519.457031 329.335938 518.996094 329.726562 518.554688 C 330.121094 518.113281 330.535156 517.691406 330.96875 517.289062 C 331.414062 516.898438 331.875 516.527344 332.355469 516.183594 C 332.835938 515.835938 333.332031 515.515625 333.84375 515.214844 C 334.351562 514.917969 334.878906 514.644531 335.414062 514.398438 C 335.953125 514.152344 336.5 513.933594 337.0625 513.738281 C 337.621094 513.546875 338.1875 513.378906 338.761719 513.242188 C 339.339844 513.105469 339.917969 512.996094 340.503906 512.914062 C 341.089844 512.832031 341.679688 512.78125 342.269531 512.753906 C 342.863281 512.730469 343.453125 512.738281 344.042969 512.769531 C 344.632812 512.804688 345.222656 512.867188 345.804688 512.957031 C 346.390625 513.046875 346.96875 513.167969 347.542969 513.316406 C 348.117188 513.460938 348.679688 513.636719 349.234375 513.839844 C 349.792969 514.042969 350.335938 514.269531 350.871094 514.527344 C 351.402344 514.78125 351.921875 515.0625 352.429688 515.371094 C 352.9375 515.675781 353.425781 516.007812 353.898438 516.359375 C 354.375 516.714844 354.828125 517.089844 355.265625 517.488281 C 355.703125 517.886719 356.121094 518.308594 356.519531 518.746094 C 356.914062 519.183594 357.289062 519.640625 357.640625 520.117188 C 357.992188 520.59375 358.320312 521.085938 358.625 521.59375 C 358.925781 522.101562 359.207031 522.621094 359.460938 523.15625 C 359.710938 523.691406 359.9375 524.238281 360.136719 524.792969 C 360.339844 525.351562 360.511719 525.917969 360.65625 526.488281 C 360.800781 527.0625 360.917969 527.644531 361.003906 528.226562 C 361.09375 528.8125 361.152344 529.402344 361.183594 529.992188 C 361.214844 530.582031 361.214844 531.171875 361.191406 531.765625 C 361.164062 532.355469 361.105469 532.945312 361.023438 533.53125 C 360.9375 534.117188 360.828125 534.695312 360.6875 535.269531 C 360.546875 535.84375 360.378906 536.410156 360.179688 536.96875 C 359.984375 537.527344 359.761719 538.074219 359.511719 538.613281 C 359.265625 539.148438 358.988281 539.671875 358.6875 540.179688 C 358.386719 540.691406 358.0625 541.183594 357.714844 541.664062 C 357.367188 542.140625 356.996094 542.601562 356.601562 543.042969 C 356.210938 543.484375 355.796875 543.90625 355.359375 544.308594 Z M 355.359375 544.308594 "/><path style=" stroke:none;fill-rule:nonzero;fill:#154371;fill-opacity:1;" d="M 343.136719 518.753906 C 342.648438 518.757812 342.160156 518.789062 341.675781 518.847656 C 341.191406 518.90625 340.714844 518.996094 340.238281 519.113281 C 339.765625 519.234375 339.300781 519.378906 338.84375 519.554688 C 338.390625 519.726562 337.945312 519.929688 337.515625 520.15625 C 337.082031 520.386719 336.667969 520.640625 336.265625 520.917969 C 335.867188 521.195312 335.484375 521.5 335.121094 521.824219 C 334.753906 522.148438 334.414062 522.496094 334.089844 522.859375 C 333.769531 523.226562 333.46875 523.613281 333.195312 524.015625 C 332.917969 524.417969 332.667969 524.835938 332.445312 525.269531 C 332.21875 525.703125 332.019531 526.148438 331.851562 526.605469 C 331.679688 527.0625 331.535156 527.527344 331.421875 528 C 331.308594 528.476562 331.222656 528.957031 331.167969 529.441406 C 331.109375 529.925781 331.082031 530.410156 331.085938 530.898438 C 331.089844 531.386719 331.121094 531.875 331.183594 532.359375 C 331.246094 532.84375 331.335938 533.320312 331.453125 533.792969 C 331.574219 534.265625 331.722656 534.730469 331.898438 535.1875 C 332.074219 535.640625 332.277344 536.085938 332.507812 536.515625 C 332.738281 536.945312 332.992188 537.359375 333.273438 537.761719 C 333.550781 538.160156 333.855469 538.542969 334.179688 538.90625 C 334.507812 539.265625 334.855469 539.609375 335.222656 539.929688 C 335.589844 540.25 335.976562 540.546875 336.378906 540.824219 C 336.78125 541.097656 337.203125 541.34375 337.636719 541.570312 C 338.070312 541.792969 338.515625 541.988281 338.972656 542.15625 C 339.429688 542.328125 339.898438 542.46875 340.371094 542.582031 C 340.847656 542.695312 341.328125 542.777344 341.8125 542.832031 C 342.296875 542.886719 342.785156 542.910156 343.269531 542.90625 C 343.757812 542.902344 344.246094 542.867188 344.730469 542.804688 C 345.214844 542.742188 345.691406 542.648438 346.164062 542.527344 C 346.636719 542.40625 347.101562 542.257812 347.554688 542.082031 C 348.007812 541.902344 348.453125 541.699219 348.882812 541.46875 C 349.3125 541.234375 349.726562 540.980469 350.125 540.699219 C 350.523438 540.417969 350.902344 540.113281 351.265625 539.785156 C 352.152344 538.957031 352.894531 538.019531 353.5 536.96875 C 354.105469 535.917969 354.542969 534.800781 354.8125 533.621094 C 355.082031 532.4375 355.175781 531.242188 355.085938 530.035156 C 355 528.824219 354.738281 527.65625 354.300781 526.523438 C 353.863281 525.394531 353.269531 524.351562 352.523438 523.398438 C 351.773438 522.445312 350.902344 521.625 349.90625 520.933594 C 348.910156 520.238281 347.835938 519.707031 346.683594 519.335938 C 345.53125 518.964844 344.347656 518.773438 343.136719 518.753906 Z M 343.136719 518.753906 "/><g clip-rule="nonzero" clip-path="url(#25e40a8b35)"><path style=" stroke:none;fill-rule:nonzero;fill:#154371;fill-opacity:1;" d="M 407.8125 335.484375 C 407.75 356.847656 407.835938 416.601562 407.875 438.613281 L 443.574219 406.640625 C 444.445312 405.902344 445.207031 405.058594 445.855469 404.117188 C 446.5 403.171875 447.015625 402.160156 447.390625 401.082031 C 447.765625 400 447.992188 398.890625 448.074219 397.746094 C 448.152344 396.605469 448.078125 395.476562 447.851562 394.351562 C 447.265625 391.730469 446.855469 389.078125 446.621094 386.402344 C 446.386719 383.722656 446.328125 381.042969 446.449219 378.355469 C 446.574219 375.671875 446.871094 373.007812 447.347656 370.359375 C 447.820312 367.714844 448.46875 365.113281 449.292969 362.550781 C 450.113281 359.992188 451.097656 357.5 452.25 355.070312 C 453.402344 352.640625 454.710938 350.300781 456.175781 348.046875 C 457.636719 345.789062 459.246094 343.640625 460.992188 341.601562 C 462.742188 339.558594 464.617188 337.640625 466.621094 335.851562 C 467.414062 335.125 468.25 334.453125 469.128906 333.832031 L 469.128906 312.070312 C 469.125 310.015625 469.023438 307.964844 468.820312 305.917969 C 468.617188 303.871094 468.3125 301.839844 467.910156 299.824219 C 467.507812 297.808594 467.007812 295.816406 466.410156 293.851562 C 465.8125 291.882812 465.121094 289.953125 464.332031 288.050781 C 463.546875 286.152344 462.667969 284.296875 461.699219 282.484375 C 460.726562 280.671875 459.671875 278.910156 458.53125 277.203125 C 457.386719 275.492188 456.164062 273.84375 454.859375 272.253906 C 453.554688 270.667969 452.175781 269.144531 450.722656 267.691406 C 449.269531 266.238281 447.746094 264.859375 446.160156 263.554688 C 444.570312 262.25 442.921875 261.027344 441.210938 259.886719 C 439.503906 258.742188 437.742188 257.6875 435.929688 256.714844 C 434.117188 255.746094 432.261719 254.867188 430.363281 254.082031 C 428.464844 253.292969 426.53125 252.601562 424.5625 252.003906 C 422.597656 251.40625 420.605469 250.90625 418.589844 250.503906 C 416.574219 250.101562 414.542969 249.796875 412.496094 249.59375 C 410.449219 249.390625 408.402344 249.289062 406.34375 249.289062 L 386.660156 249.289062 L 386.660156 312.007812 C 387.378906 312.085938 388.089844 312.195312 388.796875 312.339844 C 389.503906 312.484375 390.199219 312.65625 390.890625 312.863281 C 391.582031 313.070312 392.261719 313.308594 392.929688 313.578125 C 393.601562 313.847656 394.253906 314.144531 394.898438 314.472656 C 395.539062 314.800781 396.164062 315.160156 396.773438 315.542969 C 397.382812 315.929688 397.972656 316.339844 398.542969 316.78125 C 399.117188 317.21875 399.667969 317.683594 400.195312 318.175781 C 400.726562 318.664062 401.230469 319.175781 401.714844 319.710938 C 402.195312 320.246094 402.652344 320.804688 403.085938 321.378906 C 403.515625 321.957031 403.921875 322.554688 404.300781 323.167969 C 404.675781 323.78125 405.027344 324.410156 405.347656 325.058594 C 405.667969 325.703125 405.957031 326.363281 406.214844 327.035156 C 406.476562 327.707031 406.703125 328.390625 406.902344 329.082031 C 407.101562 329.777344 407.265625 330.476562 407.398438 331.1875 C 407.535156 331.894531 407.636719 332.609375 407.703125 333.324219 C 407.773438 334.042969 407.808594 334.761719 407.8125 335.484375 Z M 407.8125 335.484375 "/></g><path style=" stroke:none;fill-rule:nonzero;fill:#154371;fill-opacity:1;" d="M 274.789062 389.460938 C 272.648438 394.597656 254.066406 439.957031 254.066406 451.570312 C 254.074219 452.339844 254.121094 453.101562 254.203125 453.867188 C 254.285156 454.628906 254.402344 455.382812 254.558594 456.136719 C 254.71875 456.886719 254.910156 457.625 255.136719 458.359375 C 255.367188 459.089844 255.628906 459.808594 255.929688 460.515625 C 256.230469 461.222656 256.5625 461.910156 256.925781 462.585938 C 257.292969 463.257812 257.691406 463.914062 258.121094 464.546875 C 258.550781 465.183594 259.011719 465.792969 259.503906 466.382812 C 259.992188 466.972656 260.507812 467.539062 261.054688 468.078125 C 261.597656 468.617188 262.167969 469.128906 262.765625 469.613281 C 263.359375 470.097656 263.976562 470.550781 264.617188 470.972656 C 265.253906 471.398438 265.914062 471.789062 266.589844 472.148438 C 267.269531 472.507812 267.960938 472.832031 268.671875 473.125 C 269.378906 473.414062 270.101562 473.671875 270.835938 473.894531 C 271.570312 474.113281 272.3125 474.296875 273.066406 474.449219 C 273.816406 474.597656 274.574219 474.707031 275.335938 474.78125 C 276.101562 474.855469 276.867188 474.894531 277.632812 474.894531 C 278.398438 474.894531 279.164062 474.855469 279.925781 474.78125 C 280.691406 474.707031 281.449219 474.597656 282.199219 474.449219 C 282.953125 474.296875 283.695312 474.113281 284.429688 473.894531 C 285.164062 473.671875 285.886719 473.414062 286.59375 473.125 C 287.304688 472.832031 287.996094 472.507812 288.675781 472.148438 C 289.351562 471.789062 290.011719 471.398438 290.648438 470.972656 C 291.289062 470.550781 291.90625 470.097656 292.5 469.613281 C 293.09375 469.128906 293.664062 468.617188 294.210938 468.078125 C 294.753906 467.539062 295.273438 466.972656 295.761719 466.382812 C 296.253906 465.792969 296.710938 465.183594 297.144531 464.546875 C 297.574219 463.914062 297.972656 463.257812 298.335938 462.585938 C 298.703125 461.910156 299.035156 461.222656 299.335938 460.515625 C 299.632812 459.808594 299.898438 459.089844 300.125 458.359375 C 300.355469 457.625 300.546875 456.886719 300.703125 456.132812 C 300.859375 455.382812 300.980469 454.628906 301.0625 453.863281 C 301.144531 453.101562 301.191406 452.339844 301.199219 451.570312 C 301.199219 439.957031 282.554688 394.597656 280.414062 389.460938 C 280.140625 388.941406 279.75 388.527344 279.242188 388.222656 C 278.738281 387.917969 278.191406 387.765625 277.601562 387.765625 C 277.011719 387.765625 276.464844 387.917969 275.960938 388.222656 C 275.453125 388.527344 275.066406 388.941406 274.789062 389.460938 Z M 274.789062 389.460938 "/></g></svg>