<svg xmlns="http://www.w3.org/2000/svg" width="568.32" height="634.332" viewBox="0 0 568.32 634.332">
  <g id="Map_" data-name="Map " transform="translate(-808.406 -67.797)">
    <path id="Path_269" data-name="Path 269" d="M955,172.543s-7.346-1.428-8.568-4.081,1.835-6.939-5.305-7.958-7.754,1.837-10.407-5.305-7.549-5.305-6.937-12.039,2.653-7.549,1.021-16.528,0-5.509,4.691-8.977,6.123-5.1,4.082-7.549-5.305-.2-4.9-6.53-6.528-1.019-8.161-5.305-1.019-3.06-5.712-5.1-5.305,0-5.1-5.509-3.06-4.286,2.449-5.714c0,0,1.172.714,3.009-1.428s4.439-5.968,6.581-5.968,3.062-1.225,4.9,0,1.684,1.53,4.286,1.53,1.62-1.53,1.04-4.132,4.162-1.682,7.989-1.682,4.591-2.142,6.886-1.989,9.795,1.377,12.549,1.682,4.9,8.418,6.121,9.03,8.416,1.225,11.782,4.437,3.367,5.51,7.653,7.805,1.837,6.121,3.979,6.733,8.568,2.449,9.181,3.672-.153,3.979,2.3,4.439,9.793-3.214,11.783-3.672,2.3-4.133,5.509-4.439,11.325.305,13.467-.765,1.225-2.3,3.521-1.072.765,2.449,4.59,2.6,6.428-.918,8.417,3.674,2.907,3.367,1.53,8.263-.305,7.039-3.214,8.57-.765,3.825-5.356,7.191-5.814,3.367-6.579,5.509.153,2.144-5.051,4.133-5.814,3.977-4.9,6.274,2.295,3.519.153,5.356-.918,3.979,1.684,4.591,6.274-1.532,6.121,2.142,1.07,5.968,2.448,8.416.307,6.275-1.53,6.733-5.2.919-6.733,2.142-1.99,2.4-4.132.817,0-4.642-2.295-5.1-4.744-.153-5.356,2.142-.154,3.367,1.835,6.121,3.214.612,2.909,4.9-2.449,3.519,4.437,6.274,4.439,8.723,7.193,9.335.459-.153,4.131,3.214,5.2.918,9.183,3.977,4.376,2.144,5.707,4.9,1.026,2.907,6.228,4.437,7.5,4.286,6.581,5.968-2.6-.458-4.132,2.142-.918,5.356-4.132,5.968-3.367,4.132-3.979,5.968,1.53,2.754-1.99,4.284,0,6.428-1.377,8.418-2.142,4.284.46,6.121,6.274.918,7.958,1.837.153,1.377,3.825,1.99,1.99.153,4.591,2.754,5.509,6.886,10.865,7.958,3.367,3.519,7.653,4.284,6.121.765,9.488,3.214,6.121.305,7.039,2.907,1.837,3.214,4.9,3.214,3.979-2.142,8.877-1.53,3.06,3.672,5.661,1.53,8.263-2.6,11.63,3.519,6.428,5.968,9.488,6.733,2.909,1.377,6.886,1.225,4.438-1.637,6.123.024a6.86,6.86,0,0,0,5.356,2.425c2.295,0,3.978-1.225,7.8,0s7.805,2.754,13.161,2.907,1.99.153,6.579,1.53,12.4-1.53,13.467-3.06,1.684-8.418,1.377-10.407-3.367-4.9-2.907-7.651,1.225-2.909,2.142-6.733,1.684-5.051,3.979-6.581,3.826-3.061,5.509-2.754,5.2,3.979,4.438,6.733a19.437,19.437,0,0,0,.107,9.947c.965,3.06-.107,7.191,4.942,8.875s11.172-.307,12.7,2.142,3.367-1.632,7.448-2.449,3.877-.407,12.447-1.019,13.263.407,18.363-.816,7.754-.817,8.161-2.653,1.633-11.632-3.672-11.632-7.958-.611-7.754-2.856.817-6.733,3.877-6.937,5.509,1.019,9.182-1.633-.612-4.081,5.916-5.509,6.123-1.225,8.163-6.121,2.244-8.774,10.405-9.386,7.549-5.305,13.263-8.977,7.753-5.918,11.833-4.489,5.305,2.449,9.795-.407,10.814-6.733,12.242-3.468,1.021,2.856,0,5.509-1.428,2.447,3.877,2.653,1.632,5.509.816,8.161-1.837,7.346.409,7.14,3.875-4.081,8.568-2.447,6.326.2,8.161,5.918,4.286,6.325,3.47,8.568-1.225-1.225-1.837,4.489-7.958,6.53-10.2,6.121-1.837-2.244-6.326-.409-8.162,4.693-12.446,5.51-1.837,9.181-5.1,14.895-6.734,16.323-7.753,18.363-5.509.612-4.49,3.468,4.9,5.509,4.693,10.611-.816,7.14.612,8.161.816,5.1-1.632,4.9-2.858-2.434-5.917.008-2.449,11.623-4.693,11.827-.816-.409-5.917,0-7.549-1.428-9.386-1.428,4.284,7.346,3.674,11.221-3.265,11.019-4.9,15.3-1.631,5.305-.2,7.754.2,7.14-2.041,7.549-4.9-1.225-7.142-2.856-4.081-3.061-3.876-8.163-.205-13.67-2.245-14.895-7.753,1.837-9.59,2.449-5.305,1.837-8.57,1.632-4.9-1.835-5.1-5.509-.205-11.018,2.244-13.058,2.04-2.653,6.121-3.061,5.714-.2,8.367-1.428,1.632-6.325,1.835-8.977-1.225-3.674,3.265-3.877,2.856-5.918-1.019-6.53-4.081-1.428-10-.612-7.549-3.263-12.854-.611-2.041,3.263-10.611,2.651-12.039,0-16.935-3.672-.816-10.405-1.021-12.242.205-5.305-2.856-5.714-1.632,2.858-7.753,1.225-4.49-4.693-8.367-4.9-.816,4.693-4.693,2.653-1.837-5.305-5.305-3.877-2.244,8.161-3.672,10.611.2,5.305,3.723,6.988,3.521,3.979,7.193,4.439,6.121,2.754,3.367,4.591-3.672,1.682-6.581,2.295.46,4.744-3.366,5.968-4.744,1.837-5.049,3.979,6.886,7.039,10.865,7.8,4.744,2.144,1.837,5.663-2.754,8.416-.612,10.405,1.683,3.061,2.447,4.591,5.663,2.907,4.286,8.263-.154,4.286.458,9.03,4.132,7.8-.612,9.64-4.59,0-8.263,2.449-3.367-1.684-4.437-3.214-4.438,0-7.193,5.509-1.377,5.375-5.662,6.591-2.6,1.367-7.958,3.356-5.051,5.2-4.9,9.488,1.684,6.733-1.377,8.875-.765,6.274-3.367,8.57-.969,2.6-3.545,5.049-.28,2.6-6.1,3.061-5.356,2.295-7.805,3.672-3.824,3.061-4.744,1.837-1.223-3.214-2.295-3.367-3.366-.46-4.591,3.061.919,2.907-1.683,5.967-7.5,4.591-9.03,8.265-1.07,3.825-5.356,9.64-9.181,7.651-11.63,10.1-5.049,2.754-7.8,7.651-3.826,7.346-10.56,9.795-7.193,3.367-9.948,6.428-.917,3.977-.305,5.814.153,5.968-6.275,7.5-6.733.46-12.242,1.377-5.661,6.888-8.416,10.865-5.816,3.214-7.958,1.532-2.909-1.684-5.816.153-6.274,6.886-6.274,11.937.46,23.567,1.53,27.7,4.744,6.121,2.3,7.958-2.909,4.589-1.684,6.426,5.509,2.142,3.214,6.274-3.674,13.161-6.733,17.293-3.674,3.674-3.979,8.263,1.377,14.079,0,18.211-.917,2.144-1.99,9.489.46,7.8-2.449,7.8-1.07-1.377-5.661,2.449-2.6,8.723-6.274,9.793-6.275,8.875-5.2,9.03,4.284,1.377,1.07,2.6-4.437-1.225-7.344,2.142-3.979.458-6.888,6.581.765,8.111-8.416,12.7-4.132,7.193-9.03,5.663-1.835-.46-6.426-2.6-4.744.46-7.04-4.9-3.825-5.968-8.568-10.407-1.377-4.284-3.367-10.712-3.521-2.754-1.684-8.11,2.449-5.356,1.684-9.64-2.142,1.682-3.826,0,.46-6.121-2.907-12.7-3.521-6.426-3.521-10.1-5.2-6.121-7.8-10.865-1.377-7.039-5.968-12.854-5.049-.918-6.733-11.172-1.99-7.346-3.214-18.516-.612-15.763-4.9-22.5S920.216,542.824,915.93,539s-12.242-16.068-13.925-21.425-2.144-4.591-2.3-14.844-4.132-21.118-4.591-26.168.154-12.854,0-16.068-3.672-8.263-2.6-17.6.305-12.854,1.53-16.681-.46-14.691-.919-19.128-2.142-3.5,0-6.723-1.223-5.214-2.142-7.356,2.449-5.509,0-7.193-7.5.154-6.886,5.663,3.367,8.263-1.225,11.17-1.835,9.642-9.488,9.947-12.7,1.377-18.823.612-4.744-6.581-10.558-9.795-12.089-9.333-16.528-11.935-4.591-7.193-6.274-10.865-1.224-6.581,1.835-4.9,1.837,4.744,4.744,5.509,5.816,1.837,8.877-.153a58.506,58.506,0,0,1,9.793-4.9c3.061-1.225,5.968-4.744,3.519-6.121s-3.06-.765-11.17-.918-6.733,3.06-12.549,0-4.591-6.275-7.191-8.418-7.653-4.591-6.123-7.346,5.2-1.837,3.214-3.214-1.07.46-4.284-.765-3.674-3.979-1.99-4.591,4.132.307,6.886-1.07,1.99-1.377,5.509-5.051,3.826-4.132,6.888-2.447,4.284,3.519,7.344,3.519,2.449,3.06,5.51,2.449,2.755-3.979,7.8-4.439,3.979-3.214,7.805-.153,7.958-.154,7.8-2.142,1.531-10.56-2.754-13.161-4.9-3.826-3.519-7.039,2.449-4.591-1.53-4.744-10.1,1.223-8.57-5.51,8.418-11.018,2.907-12.854-3.212-.458-6.733-2.754-9.181-8.111-5.969-10.712,2.756-.765,7.5-6.733,7.039-10.405,10.712-9.947,7.344.154,7.344,3.979,4.591-1.223,9.182-2.142,8.723,1.53,11.784-1.377,9.333-5.509,12.7-14.232,7.805-8.263,11.172-9.795,4.591-8.111,6.733-14.384,7.039-6.886,9.028-7.193,2.6-9.028,8.417-11.782,10.253-6.581,9.64-7.5-2.142-8.418-1.377-12.089,2.449-9.64,5.816-9.795a52.6,52.6,0,0,0,8.57-1.53Z" fill="#fff" stroke="#676b78" stroke-miterlimit="10" stroke-width="0.951"/>
    <g id="Group_152" data-name="Group 152" transform="translate(865.473 154.1)">
      <path id="Path_270" data-name="Path 270" d="M895.053,137.319s4.235-1.888,8.06-3.112,2.909-5.509,3.979-9.335,4.439-1.377,7.5-3.672,5.816-2.6,9.182-2.142,1.377,5.2,5.661,6.121,5.051-.919,7.653.305,2.6,1.377,5.356.612,3.212,0,5.661,4.284a10.058,10.058,0,0,0,6.221,5" transform="translate(-805.522 -118.876)" fill="#fff" stroke="#676b78" stroke-linecap="round" stroke-linejoin="round" stroke-width="0.714" stroke-dasharray="1.117"/>
      <path id="Path_271" data-name="Path 271" d="M961.875,146.078a10.085,10.085,0,0,0-1.163,4.486c0,2.447,2.938,3.672,1.163,5.049s-2.7.765-5.3,0-4.439-1.53-7.5-.918-4.284-1.116-7.039,1.737-6.121,3.467-6.274,8.056,1.99,6.428-1.224,6.733-3.367-3.519-7.04-4.9-2.6-3.519-7.191-5.2-.765-2.447-3.519-5.968-7.958-.611-9.642-5.509,1.224-6.579-2.6-9.793-4.744-11.937-4.744-11.937" transform="translate(-802.214 -112.584)" fill="#fff" stroke="#676b78" stroke-linecap="round" stroke-linejoin="round" stroke-width="0.714" stroke-dasharray="1.117"/>
      <path id="Path_272" data-name="Path 272" d="M877.609,161.54s1.224,4.746,4.9,5.051,13.312-.765,16.068,0,1.377,4.591,3.672,5.816,3.519.305,6.274,0,3.674,3.686,5.356.617,1.225-3.219,5.663-2.914,2.295-2.907,4.132-5.049,2.447-1.377,5.2-.612,3.06,2.142,4.744-2.909,3.825-2.447,3.977-6.274a30.172,30.172,0,0,0-.767-7.507" transform="translate(-817.664 -98.771)" fill="#fff" stroke="#676b78" stroke-linecap="round" stroke-linejoin="round" stroke-width="0.714" stroke-dasharray="1.117"/>
      <path id="Path_273" data-name="Path 273" d="M920.656,153.391a66.053,66.053,0,0,1,3.046,7.444c1.531,4.439,2.909,3.826,6.733,5.663a69.416,69.416,0,0,0,10.1,3.774c3.521,1.123,5.2,1.428,13.314,1.428s10.712,1.225,13.774,0a22.314,22.314,0,0,1,5.992-1.428" transform="translate(-787.701 -94.851)" fill="#fff" stroke="#676b78" stroke-linecap="round" stroke-linejoin="round" stroke-width="0.714" stroke-dasharray="1.117"/>
      <path id="Path_274" data-name="Path 274" d="M885.459,161.424s0,13.933,1.684,13.933,1.99-1.989,4.744-1.225,6.121-.765,6.886,2.142-1.055,3.214,3.375,5.2,3.206,2.142,2.286,6.426,2.449,4.133,5.356,5.663,1.072,7.651,2.6,10.253,3.367-.153,7.346-1.07,3.061-3.979,3.979-.919-.46,7.958,2.449,7.958,4.437-1.072,4.284,1.989,4.744,4.744,7.039-.612,2.653,1.072,3.623-6.274.051-8.111-2.4-10.712-6.852,3.672-6.562-2.449.594-11.018,1.971-14.232-5.509-5.614-.458-8.621,3.825-6.988,5.661-9.284,7.346-4.2,7.346-4.2" transform="translate(-812.2 -93.458)" fill="#fff" stroke="#676b78" stroke-linecap="round" stroke-linejoin="round" stroke-width="0.714" stroke-dasharray="1.117"/>
      <path id="Path_275" data-name="Path 275" d="M842.265,250.906a7.053,7.053,0,0,1,6.487,0c3.265,1.82,3.061,1.82,8.365,1.82s6.225-.612,9.437,2.6,2.756,2.6,6.581,2.6,5.816.918,7.5-1.225,3.214-2.449,2.449,2.295-1.224,5.968,1.684,7.958,2.6,1.225,4.284,5.663,4.132,4.59,7.346,6.733,3.979-.307,6.426,5.049,6.428,5.968,7.193,4.284.153-1.835,2.449-5.356,1.835-4.744,3.06-7.344,3.061-2.449,1.99-8.418-2.449-4.132-1.225-9.947-1.343-3.519,1.547-6.426,3.2-6.886,5.493-6.121,3.825.765,3.214,3.979-1.108,4.9.134,5.049,1.243-.918,4.61-1.377,4.9-1.225,5.356,1.377,1.223,3.367,0,4.744-1.531-.46-1.379,3.979-3.519,5.509-3.672,6.733-1.989,1.837.305,2.754,4.077-4.315,5.405-5.064,3.317-.292,5-2.893,2.449-3.774,4.081-2.447.51,2.549,3.57,2.754,2.04,0,4.489,1.428,4.693,2.04,4.081-2.244-1.326-5.51.1-5.816,1.224,1.733,2.551-.1.2-2.653-.612-3.572-5.1-3.161-2.04-6.019,7.958-1.428,8.774-2.651.714-6.123-2.142-5.816-3.469,1.2-5.816-.014-4.081,1.442-5.814-3.048-3.979-5.814.816-9.386,7.549-4.182,11.324-7.753,4.284-4.081,8.67-4.388,10.509-3.723,10.356-6.019-4.131-1.07-6.581-1.377-4.131-.458-3.672-3.672,1.53-6.428-1.684-7.5-4.131.305-3.826-2.449a21.848,21.848,0,0,0-.8-6.684" transform="translate(-842.265 -71.051)" fill="#fff" stroke="#676b78" stroke-linecap="round" stroke-linejoin="round" stroke-width="0.714" stroke-dasharray="1.117"/>
      <path id="Path_276" data-name="Path 276" d="M858.628,307.647a42.577,42.577,0,0,1,5.77-3.472c2.653-1.223,3.367.51,6.428-1.632s2.142-3.468,3.875-6.019,1.837-1.019,3.265,0,4.388.2,5.51-1.837,1.223-6.528,0-7.14-1.735-4.388.305-5.714,3.672.612,2.856-2.754-4.488-4.081-3.774-6.835,2.958-2.653,5-3.468,3.672-3.468,4.182-7.346,0-3.061,2.449-5.1,1.92-8.7,1.92-8.7" transform="translate(-830.876 -29.254)" fill="#fff" stroke="#676b78" stroke-linecap="round" stroke-linejoin="round" stroke-width="0.714" stroke-dasharray="1.117"/>
      <path id="Path_277" data-name="Path 277" d="M1035.569,193.134s1.806,6.759,4.254,8.187,5.714,1.43,4.9,4.489-3.516-1.632-4.513,3.674-3.49,7.14,0,9.793,8.389,2.449,9.613,4.693-.612,3.468-2.856,3.672-2.449-.816-5.714,1.633-5.1,5.712-6.937,7.142-4.49-.612-6.121,2.856,2.449,7.753,3.674,9.181,0,4.081-2.449,4.693,1.688,8.979-1.6,11.019-.232,4.081-4.925,3.468-9.793,1.632-9.386-1.428,1.633-4.081,2.449-6.121.816-6.326-1.633-6.733-2.447,3.06-7.549-3.061-5.509-8.57-7.958-8.57-3.263.817-8.365,1.43-4.294,2.651-9.493.611-3.565-3.875-8.054-3.06-4.693,1.225-6.733-2.04-3.265,2.856-10,2.447-3.877-4.488-10-3.672-1.727-2.653-5.862-3.877-6.993,3.877-6.177,8.367a23.712,23.712,0,0,0,3.877,10.2c2.244,3.468,6.026,8.977,2.3,9.589s-3.728-6.325-8.421-6.325-4.177-1.021-4.842-6.326-4.028-11.018,0-13.261,3.618-3.877,8.516-6.326,8.977-8.57,8.568-10.611,1.742-5.712-3.821-8.568-4.8-6.447-9.237-6.121l-4.433.324" transform="translate(-784.61 -67.188)" fill="#fff" stroke="#676b78" stroke-linecap="round" stroke-linejoin="round" stroke-width="0.714" stroke-dasharray="1.117"/>
      <path id="Path_278" data-name="Path 278" d="M1038.866,195.474a47.947,47.947,0,0,0,6.852-1.764c3.469-1.2,3.875-1.4,5.305-1.4h2.7" transform="translate(-705.42 -67.763)" fill="#fff" stroke="#676b78" stroke-linecap="round" stroke-linejoin="round" stroke-width="0.714" stroke-dasharray="1.117"/>
      <path id="Path_279" data-name="Path 279" d="M1074.214,203.051s5.275-1.974,4.866,0a13.878,13.878,0,0,1-4.866,7.485c-2.887,2.246-2.011,8.774,0,11.223s-2.274,4.9-3.5,5.714,5.94,8.161,4.194,11.221-.317,2.653-2.359,7.754-6.528.2-7.549,6.528.409,5.962-6.937,8.592-7.346-.226-11.426,2.631-4.9-.612-8.161,1.428-3.265,4.081,0,7.549,6.325,6.662,10.2,6.187,2.04,8.1,4.49,10.953a3.162,3.162,0,0,1-3.469,5.1c-2.858-1.019-4.081-7.344-6.326-7.344s-3.06,1.606-3.877,7.536-3.263,7.563-5.916,4.5-5.51-2.244-10-2.653.612-4.9-2.653-6.733-4.286.585-9.795,1.109-9.181,2.129-9.793,0-.816-2.944,1.632-6.209,3.877-.889,1.224-6.26-5.305-5.575-5.509-10.063-.845-1.633-6.937-6.53l-6.094-4.9" transform="translate(-742.456 -60.896)" fill="#fff" stroke="#676b78" stroke-linecap="round" stroke-linejoin="round" stroke-width="0.714" stroke-dasharray="1.117"/>
      <path id="Path_280" data-name="Path 280" d="M1042.034,269.182s2.04-3.416-3.469-5.539-10.405-3.143-11.018-4.367a10.424,10.424,0,0,0-2.152-2.539" transform="translate(-714.796 -22.917)" fill="#fff" stroke="#676b78" stroke-linecap="round" stroke-linejoin="round" stroke-width="0.714" stroke-dasharray="1.117"/>
      <path id="Path_281" data-name="Path 281" d="M875.865,263.621a9.4,9.4,0,0,0,7.244,1.2c3.877-1.1,1.835,1.754,5.305,4.406a19.393,19.393,0,0,0,10,4.081c3.877.612,4.9.205,7.958,2.653s6.939-1.225,9.386,2.449,4.081,5.305,8.161,4.489,3.265-1.837,7.958-5.51,8.57-5.531,11.426-4.908-2.447,7.766,5.305,7.561,8.161-8.465,13.875-6.681,5.916,6.274,11.018,4.028,6.937-5,11.223-4.028,8.161,4.846,13.67,4.233,10,0,10.405,1.835-3.06,1.428-1.835,5.918,4.352,7.142,1.869,12.854-2.687,8.774-.85,11.835,6.326,6.937,3.061,8.57-5.714,3.263-7.754,8.774,4.693,8.568.409,10.609,4.284,2.449,5.1,4.693,4.888,3.265,6.423,8.774,6.024,5.1,8.472,4.9.818.407,4.286-5.918,6.53-10.2,8.161-12.854,7.549.612,6.733-7.754-2.653-.612-2.244-10.814-4.9-12.651-1.021-13.058,7.549,6.733,10.61,6.733,2.04-4.286,0-5.714-3.5-7.549-4.2-11.018-1.311-3.674,1.749-6.733-.612-5.509,5.305-6.937,8.367,4.488,10.407-4.081-.205-8.813,5.712-13.385a32.534,32.534,0,0,0,8.57-9.788" transform="translate(-818.878 -24.1)" fill="#fff" stroke="#676b78" stroke-linecap="round" stroke-linejoin="round" stroke-width="0.714" stroke-dasharray="1.117"/>
      <path id="Path_282" data-name="Path 282" d="M867.589,376.02s4.958-3.166,7.2-1.535,5.712,2.04,8.161-1.835,5.1-5.688,2.653-9.182-3.358-3.265.974-8.57,2.086-7.14,7.6-6.528,5.916,1.223,11.018-4.286,1.631-7.346,8.365-5.918,11.426,1.225,14.691-3.875,2.04-7.346,7.549-8.57,5.918-.2,11.632-5.714,5.712-.611,7.346-10.405,2.244-10.2,6.121-11.223,2.856,1.225,6.324-3.672,4.693-6.53,8.367-5.714,4.081,6.733,10,6.939,8.774-7.142,12.447-1.225-.2,13.263,2.244,17.344,8,3.589,8,3.589" transform="translate(-824.638 -0.604)" fill="#fff" stroke="#676b78" stroke-linecap="round" stroke-linejoin="round" stroke-width="0.714" stroke-dasharray="1.117"/>
      <path id="Path_283" data-name="Path 283" d="M874.106,357.363s1.86,2.035,2.881-2.045-1.442-15.534-1.442-15.534" transform="translate(-820.102 34.888)" fill="#fff" stroke="#676b78" stroke-linecap="round" stroke-linejoin="round" stroke-width="0.714" stroke-dasharray="1.117"/>
      <path id="Path_284" data-name="Path 284" d="M880.721,378.365S892.38,381.716,893.6,386s2.858,4.489,9.182,6.937,7.142-2.653,7.549,4.286,5.509,10.405,6.938,12.242,2.448,10.405,6.121,12.039-.612,12.651,3.672,15.3,6.733-1.223,5.509,8.367,3.061,8.774-.816,14.691-1.631,3.265-2.449,8.365,1.633,6.733,0,8.367-5.356,1.428-5.356,1.428" transform="translate(-815.498 61.743)" fill="#fff" stroke="#676b78" stroke-linecap="round" stroke-linejoin="round" stroke-width="0.714" stroke-dasharray="1.117"/>
      <path id="Path_285" data-name="Path 285" d="M963.024,326.778a20.577,20.577,0,0,0,7.958-2.246c3.674-2.04,5.1-1.224,11.223-7.14s3.877-9.386,8.57-8.161,6.733,2.447,8.365-1.837-1.428-5.509,4.081-6.939,6.937-4.9,9.182-1.428,8.774,6.121,11.221,4.49,6.632-4.9,6.632-4.9" transform="translate(-758.21 5.48)" fill="#fff" stroke="#676b78" stroke-linecap="round" stroke-linejoin="round" stroke-width="0.714" stroke-dasharray="1.117"/>
      <path id="Path_286" data-name="Path 286" d="M898.507,405.767s7.2-.278,8.221,1.966,5.714,5.305,7.346,3.877,1.9-4.489,6.969-4.693,7.519-.816,9.559-5.918-4.081-4.9-1.428-9.589-1.021-6.53,4.284-6.53,6.733-4.459,8.365-1.106,5.305,6.208,6.53,3.555,2.449-5.509,6.53-6.121,6.121,2.653,8.774,1.632,7.549-4.693,7.753-6.325,2.195-1.021,7.754-2.449,4.913-3.472,4.913-3.472" transform="translate(-803.117 56.334)" fill="#fff" stroke="#676b78" stroke-linecap="round" stroke-linejoin="round" stroke-width="0.714" stroke-dasharray="1.117"/>
      <path id="Path_287" data-name="Path 287" d="M920.145,307.2s4.693,7.346,3.265,10.2-4.832,4.9-1.5,7.956-1.36,7.142-1.767,12.244,4.759,7.293,1.767,9.564-1.564,5.943.885,7.778,2.4,5.305-2.676,6.53-6.3.612-7.731,3.674,2.653,7.753,1.633,10.814-5.1,1.638-5.51,4.593-3.672,13.362,0,13.567,11.426-3.47,11.223,1.835-4.9,2.449-5.305,6.326,4.286,4.488,8.57,4.284,6.937-1.837,9.182,1.632-1.448,2.648,3.356,6.526,5.621,3.268,4.193,7.146a17.259,17.259,0,0,1-3.674,6.034" transform="translate(-797.354 12.206)" fill="#fff" stroke="#676b78" stroke-linecap="round" stroke-linejoin="round" stroke-width="0.714" stroke-dasharray="1.117"/>
      <path id="Path_288" data-name="Path 288" d="M1058.545,209.768s.866-4.132,1.938-4.9,1.652-7.458,1.652-7.458" transform="translate(-691.722 -64.209)" fill="#fff" stroke="#676b78" stroke-linecap="round" stroke-linejoin="round" stroke-width="0.714" stroke-dasharray="1.117"/>
      <path id="Path_289" data-name="Path 289" d="M1060.1,211.775a24.01,24.01,0,0,1,10.005-2.015c5.509.153,9.64,1.089,12.242,1s3.061,3.026,6.886,1.011,6.121-7.524,10.865-7.066,7.653-1.223,7.04,3.061.305,5.356,3.519,5.661,5.969,3.979,5.661,6.121-3.227,5.816-3.227,5.816" transform="translate(-690.636 -59.15)" fill="#fff" stroke="#676b78" stroke-linecap="round" stroke-linejoin="round" stroke-width="0.714" stroke-dasharray="1.117"/>
      <path id="Path_290" data-name="Path 290" d="M1085.035,207.628s-2.088.69,5.105-2.371,14.844-1.686,20.505-3.063,7.193,1.837,7.5-4.9,1.835-6.121,5.356-7.805,1.988-3.367,5.354-3.826,5.051,3.521,9.642-1.377a21.692,21.692,0,0,1,12.547-6.733c3.521-.765,5.2-3.519,4.439.767s-4.591,3.672-1.683,6.886,4.284,4.437,1.223,7.5-4.237,1.925-3.725,5.477" transform="translate(-673.48 -79.129)" fill="#fff" stroke="#676b78" stroke-linecap="round" stroke-linejoin="round" stroke-width="0.714" stroke-dasharray="1.117"/>
      <path id="Path_291" data-name="Path 291" d="M1127.293,210.254s.551-3.687-1.438-3.84-1.837,4.437-4.9,5.2-3.52-1.1-7.958,2.207-.917,3.3-7.193,4.986-4.284,6.428-5.509,10.1-2.449,6.274-1.837,9.488,5.867,7.754,5.867,7.754" transform="translate(-664.051 -57.946)" fill="#fff" stroke="#676b78" stroke-linecap="round" stroke-linejoin="round" stroke-width="0.714" stroke-dasharray="1.117"/>
      <path id="Path_292" data-name="Path 292" d="M1088.14,228.037s3.926,3.1,3.469,5.858-.587,13.253-.587,13.253" transform="translate(-671.123 -42.893)" fill="#fff" stroke="#676b78" stroke-linecap="round" stroke-linejoin="round" stroke-width="0.714" stroke-dasharray="1.117"/>
      <path id="Path_293" data-name="Path 293" d="M1103.491,225.7s0-1.07-3.979-.765-.26,5.509-3.8,6.581-5.953,1.786-5.953,1.786" transform="translate(-669.998 -45.093)" fill="#fff" stroke="#676b78" stroke-linecap="round" stroke-linejoin="round" stroke-width="0.714" stroke-dasharray="1.117"/>
      <path id="Path_294" data-name="Path 294" d="M1103.273,231.328a8.485,8.485,0,0,0-.612-7.8c-2.447-4.286,1.989-7.04,3.521-6.733a6.472,6.472,0,0,0,4.115-.024c1.852-.589,2.619-7.629,5.373-10.536s2.447-1.377,5.814-6.581,4.591-6.121,9.488-7.346a36.97,36.97,0,0,0,9.2-3.881" transform="translate(-661.517 -70.465)" fill="#fff" stroke="#676b78" stroke-linecap="round" stroke-linejoin="round" stroke-width="0.714" stroke-dasharray="1.117"/>
    </g>
  </g>
</svg>
