<svg xmlns="http://www.w3.org/2000/svg" xmlns:xlink="http://www.w3.org/1999/xlink" width="200" zoomAndPan="magnify" viewBox="0 0 150 157.92" height="200" preserveAspectRatio="xMidYMid meet" version="1.2"><defs><clipPath id="a2fde54a47"><path d="M 42.800781 0 L 137.5 0 L 137.5 78.460938 L 42.800781 78.460938 Z M 42.800781 0 "/></clipPath><clipPath id="82f2b660fc"><path d="M 12.332031 128.457031 L 136.417969 128.457031 L 136.417969 145.351562 L 12.332031 145.351562 Z M 12.332031 128.457031 "/></clipPath><clipPath id="eb9cb12a88"><path d="M 12.324219 77 L 137 77 L 137 127 L 12.324219 127 Z M 12.324219 77 "/></clipPath></defs><g id="6af7c2fc8f"><g clip-rule="nonzero" clip-path="url(#a2fde54a47)"><path style=" stroke:none;fill-rule:nonzero;fill:#ffa800;fill-opacity:1;" d="M 117.601562 59.617188 L 103.265625 28.894531 C 103.085938 28.511719 103.367188 28.074219 103.789062 28.074219 L 106.308594 28.074219 C 106.84375 28.074219 107.324219 28.382812 107.550781 28.863281 L 121.707031 59.199219 C 121.949219 59.71875 121.570312 60.3125 120.996094 60.3125 L 118.695312 60.3125 C 118.226562 60.3125 117.800781 60.042969 117.601562 59.617188 Z M 93.195312 59.515625 L 93.195312 12.886719 L 100.050781 12.886719 L 100.050781 59.515625 C 100.050781 59.957031 99.695312 60.3125 99.253906 60.3125 L 93.992188 60.3125 C 93.550781 60.3125 93.195312 59.957031 93.195312 59.515625 Z M 84.664062 59.421875 L 70.515625 29.105469 C 70.289062 28.625 70.640625 28.074219 71.175781 28.074219 L 73.871094 28.074219 C 74.152344 28.074219 74.410156 28.238281 74.527344 28.492188 L 88.847656 59.175781 C 89.09375 59.703125 88.707031 60.3125 88.121094 60.3125 L 86.0625 60.3125 C 85.460938 60.3125 84.917969 59.964844 84.664062 59.421875 Z M 53.914062 64.175781 L 67.722656 31.207031 C 67.96875 30.625 68.785156 30.609375 69.050781 31.179688 L 82.621094 60.253906 L 70.628906 60.253906 C 64.675781 60.253906 59.039062 61.589844 53.914062 64.175781 Z M 49.050781 25.503906 L 49.050781 18.902344 C 49.050781 18.703125 49.210938 18.539062 49.410156 18.535156 C 49.421875 18.535156 49.429688 18.535156 49.441406 18.535156 L 90.207031 18.535156 C 90.640625 18.535156 90.992188 18.886719 90.992188 19.316406 L 90.992188 25.085938 C 90.992188 25.519531 90.640625 25.871094 90.207031 25.871094 L 68.304688 25.871094 C 68.300781 25.871094 68.300781 25.871094 68.296875 25.871094 L 49.417969 25.871094 C 49.214844 25.871094 49.050781 25.707031 49.050781 25.503906 Z M 68.921875 8.671875 L 68.921875 15.605469 C 68.921875 16.007812 68.59375 16.332031 68.195312 16.332031 L 56.242188 16.332031 C 55.492188 16.332031 55.226562 15.34375 55.875 14.96875 L 67.832031 8.042969 C 68.316406 7.761719 68.921875 8.113281 68.921875 8.671875 Z M 84.847656 16.332031 L 71.851562 16.332031 C 71.449219 16.332031 71.125 16.007812 71.125 15.605469 L 71.125 8.566406 C 71.125 8.015625 71.710938 7.667969 72.195312 7.929688 L 85.195312 14.957031 C 85.863281 15.316406 85.609375 16.332031 84.847656 16.332031 Z M 90.03125 56.503906 L 77.246094 29.105469 C 77.019531 28.625 77.371094 28.074219 77.90625 28.074219 L 90.207031 28.074219 C 90.640625 28.074219 90.992188 28.421875 90.992188 28.855469 L 90.992188 56.292969 C 90.992188 56.832031 90.261719 56.996094 90.03125 56.503906 Z M 103.355469 34.296875 L 114.976562 59.199219 C 115.21875 59.71875 114.839844 60.3125 114.265625 60.3125 L 103.050781 60.3125 C 102.609375 60.3125 102.253906 59.957031 102.253906 59.515625 L 102.253906 34.539062 C 102.253906 33.921875 103.09375 33.734375 103.355469 34.296875 Z M 114.707031 18.535156 C 114.910156 18.535156 115.074219 18.699219 115.074219 18.902344 L 115.074219 25.503906 C 115.074219 25.707031 114.910156 25.871094 114.707031 25.871094 L 103.125 25.871094 C 102.644531 25.871094 102.253906 25.480469 102.253906 25 L 102.253906 19.40625 C 102.253906 18.925781 102.644531 18.535156 103.125 18.535156 Z M 136.398438 60.3125 L 134.203125 60.3125 C 133.582031 60.3125 133.078125 59.808594 133.078125 59.1875 L 133.078125 45.867188 C 133.078125 44.855469 133.898438 44.035156 134.914062 44.035156 L 136.398438 44.035156 C 137.007812 44.035156 137.5 43.539062 137.5 42.933594 C 137.5 42.324219 137.007812 41.832031 136.398438 41.832031 L 134.914062 41.832031 C 132.683594 41.832031 130.875 43.636719 130.875 45.867188 L 130.875 59.1875 C 130.875 59.808594 130.371094 60.3125 129.75 60.3125 L 125.425781 60.3125 C 124.957031 60.3125 124.53125 60.042969 124.332031 59.617188 L 109.996094 28.894531 C 109.816406 28.511719 110.097656 28.074219 110.519531 28.074219 L 114.707031 28.074219 C 116.125 28.074219 117.277344 26.921875 117.277344 25.503906 L 117.277344 18.902344 C 117.277344 17.484375 116.125 16.332031 114.707031 16.332031 L 102.832031 16.332031 C 102.511719 16.332031 102.253906 16.074219 102.253906 15.753906 L 102.253906 11.785156 C 102.253906 11.179688 101.761719 10.6875 101.152344 10.6875 L 92.09375 10.6875 C 91.484375 10.6875 90.992188 11.179688 90.992188 11.785156 L 90.992188 14.109375 C 90.992188 14.777344 90.28125 15.203125 89.695312 14.882812 L 71.503906 5.050781 C 71.269531 4.925781 71.125 4.679688 71.125 4.410156 L 71.125 1.101562 C 71.125 0.492188 70.628906 0 70.023438 0 C 69.414062 0 68.921875 0.492188 68.921875 1.101562 L 68.921875 4.449219 C 68.921875 4.707031 68.78125 4.945312 68.558594 5.078125 L 49.085938 16.355469 C 47.828125 16.515625 46.847656 17.597656 46.847656 18.902344 L 46.847656 25.503906 C 46.847656 26.921875 48 28.074219 49.417969 28.074219 L 65.554688 28.074219 C 66.074219 28.074219 66.425781 28.601562 66.226562 29.082031 L 50.78125 65.949219 C 48.070312 67.664062 45.523438 69.753906 43.179688 72.210938 C 42.777344 72.628906 42.710938 73.308594 43.089844 73.746094 C 43.3125 74 43.617188 74.125 43.921875 74.125 C 44.214844 74.125 44.503906 74.011719 44.71875 73.785156 C 51.78125 66.375 60.738281 62.457031 70.628906 62.457031 L 79.394531 62.457031 C 78.910156 63.195312 78.625 64.078125 78.625 65.023438 L 78.621094 67.59375 L 70.628906 67.59375 C 62.621094 67.59375 55.160156 70.769531 49.601562 76.535156 C 49.199219 76.953125 49.128906 77.632812 49.511719 78.074219 C 49.734375 78.328125 50.039062 78.453125 50.34375 78.453125 C 50.640625 78.453125 50.933594 78.335938 51.152344 78.101562 C 55.871094 73.007812 66.339844 69.796875 73.28125 69.796875 L 78.621094 69.796875 L 78.617188 72.519531 C 78.617188 73.125 79.113281 73.621094 79.71875 73.621094 C 80.328125 73.621094 80.820312 73.128906 80.820312 72.519531 L 80.824219 68.71875 C 80.824219 68.710938 80.828125 68.703125 80.828125 68.695312 C 80.828125 68.6875 80.824219 68.683594 80.824219 68.675781 L 80.828125 65.027344 C 80.828125 63.644531 81.960938 62.515625 83.339844 62.515625 L 136.398438 62.515625 C 137.007812 62.515625 137.5 62.023438 137.5 61.414062 C 137.5 60.804688 137.007812 60.3125 136.398438 60.3125 "/></g><g clip-rule="nonzero" clip-path="url(#82f2b660fc)"><path style=" stroke:none;fill-rule:nonzero;fill:#ffa800;fill-opacity:1;" d="M 12.332031 130.070312 L 12.332031 140.855469 C 12.332031 143.339844 14.34375 145.351562 16.828125 145.351562 L 131.902344 145.351562 C 134.386719 145.351562 136.398438 143.339844 136.398438 140.855469 L 136.398438 130.980469 C 136.398438 129.59375 135.273438 128.472656 133.886719 128.472656 L 13.933594 128.472656 C 13.050781 128.472656 12.332031 129.1875 12.332031 130.070312 "/></g><g clip-rule="nonzero" clip-path="url(#eb9cb12a88)"><path style=" stroke:none;fill-rule:nonzero;fill:#ffa800;fill-opacity:1;" d="M 41.429688 97.929688 L 41.429688 96.792969 C 41.429688 93.234375 42.054688 89.777344 43.285156 86.515625 C 43.480469 86.003906 44.015625 85.664062 44.550781 85.773438 C 45.234375 85.914062 45.601562 86.621094 45.363281 87.246094 C 44.214844 90.273438 43.632812 93.484375 43.632812 96.792969 L 43.632812 97.929688 C 43.632812 110.753906 35.683594 121.75 24.457031 126.269531 L 133.886719 126.269531 C 135.273438 126.269531 136.398438 125.144531 136.398438 123.757812 L 136.398438 108.136719 C 136.398438 107.550781 135.792969 107.195312 135.261719 107.433594 C 132.132812 108.847656 128.285156 108.132812 125.90625 105.453125 C 124.792969 104.195312 123.195312 103.476562 121.527344 103.476562 C 119.867188 103.476562 118.289062 104.183594 117.179688 105.414062 C 115.671875 107.089844 113.609375 108.160156 111.355469 108.160156 L 110.867188 108.160156 C 108.625 108.160156 106.578125 107.09375 105.082031 105.425781 C 103.414062 103.5625 100.667969 102.898438 98.203125 104.042969 C 97.539062 104.351562 96.949219 104.804688 96.453125 105.335938 C 95.601562 106.253906 94.617188 107.054688 93.460938 107.53125 C 90.148438 108.902344 86.519531 107.953125 84.304688 105.449219 C 82.636719 103.566406 79.878906 102.894531 77.410156 104.039062 C 76.746094 104.347656 76.152344 104.800781 75.652344 105.335938 C 74.800781 106.25 73.816406 107.054688 72.660156 107.535156 C 69.34375 108.902344 65.71875 107.949219 63.503906 105.449219 L 65.152344 103.988281 L 65.15625 103.992188 C 65.535156 104.425781 65.96875 104.820312 66.46875 105.109375 C 69.023438 106.609375 72.011719 106.027344 73.808594 104.089844 C 74.65625 103.175781 75.640625 102.382812 76.792969 101.90625 C 80.105469 100.53125 83.734375 101.484375 85.949219 103.984375 C 87.0625 105.242188 88.65625 105.957031 90.328125 105.957031 C 91.984375 105.957031 93.566406 105.253906 94.675781 104.023438 C 96.179688 102.347656 98.242188 101.277344 100.5 101.277344 L 100.957031 101.277344 C 103.210938 101.277344 105.273438 102.34375 106.78125 104.019531 C 107.886719 105.253906 109.46875 105.957031 111.125 105.957031 C 112.835938 105.957031 114.421875 105.171875 115.574219 103.90625 C 117.789062 101.472656 121.347656 100.554688 124.613281 101.886719 C 125.769531 102.355469 126.769531 103.136719 127.613281 104.058594 C 129.714844 106.351562 133.316406 106.59375 135.6875 104.589844 C 135.691406 104.589844 135.691406 104.589844 135.695312 104.585938 C 136.175781 104.164062 136.398438 103.515625 136.398438 102.875 L 136.398438 85.054688 C 136.398438 83.589844 135.03125 82.484375 133.605469 82.835938 C 131.195312 83.433594 128.519531 82.71875 126.730469 80.699219 L 125.632812 79.5 C 123.335938 76.992188 119.355469 77.082031 117.171875 79.6875 C 114.339844 83.066406 109.3125 83.519531 105.925781 80.699219 L 104.976562 79.90625 C 102.140625 77.542969 97.929688 77.894531 95.527344 80.699219 C 92.847656 83.824219 88.035156 83.894531 85.265625 80.847656 L 84.949219 80.5 C 82.1875 77.460938 77.375 77.550781 74.730469 80.695312 L 74.726562 80.699219 C 72.066406 83.855469 67.230469 83.933594 64.476562 80.863281 L 63.953125 80.277344 C 61.351562 77.382812 56.800781 77.410156 54.238281 80.339844 C 51.398438 83.585938 46.578125 83.746094 43.527344 80.699219 L 41.65625 78.824219 C 39.253906 76.421875 35.75 76.769531 33.863281 79.597656 C 31.171875 83.632812 26.164062 84.128906 22.730469 80.699219 L 22.730469 80.695312 C 20.59375 78.28125 17.191406 77.738281 14.484375 79.058594 C 13.164062 79.703125 12.332031 81.050781 12.332031 82.519531 L 12.332031 117.828125 C 12.332031 118.4375 12.828125 118.925781 13.4375 118.914062 C 13.785156 118.910156 14.121094 118.902344 14.277344 118.894531 C 25.304688 118.277344 34.089844 109.109375 34.089844 97.925781 L 34.089844 96.789062 C 34.089844 91.878906 35.042969 87.125 36.917969 82.664062 C 37.132812 82.15625 37.679688 81.835938 38.210938 81.96875 C 38.890625 82.136719 39.230469 82.851562 38.96875 83.46875 C 37.195312 87.671875 36.292969 92.15625 36.292969 96.792969 L 36.292969 97.929688 C 36.292969 110.277344 26.59375 120.402344 14.414062 121.09375 C 14.226562 121.101562 13.8125 121.113281 13.402344 121.117188 C 12.808594 121.125 12.332031 121.609375 12.332031 122.203125 L 12.332031 125.175781 C 12.332031 125.777344 12.828125 126.265625 13.433594 126.257812 C 13.78125 126.253906 14.121094 126.25 14.273438 126.242188 C 29.355469 125.621094 41.429688 113.15625 41.429688 97.929688 "/></g></g></svg>