<svg xmlns="http://www.w3.org/2000/svg" xmlns:xlink="http://www.w3.org/1999/xlink" width="200" zoomAndPan="magnify" viewBox="0 0 150 157.92" height="200" preserveAspectRatio="xMidYMid meet" version="1.2"><defs><clipPath id="25862f42c3"><path d="M 0.0390625 18 L 8 18 L 8 27 L 0.0390625 27 Z M 0.0390625 18 "/></clipPath><clipPath id="b0e349b428"><path d="M 23 0 L 149.210938 0 L 149.210938 149.925781 L 23 149.925781 Z M 23 0 "/></clipPath></defs><g id="23c50b8fea"><path style=" stroke:none;fill-rule:nonzero;fill:#ffa800;fill-opacity:1;" d="M 28.078125 17.617188 C 28.0625 17.589844 28.046875 17.566406 28.027344 17.535156 C 26.667969 15.324219 24.433594 13.707031 21.808594 13.164062 L 21.808594 20.601562 L 29.246094 20.601562 C 29.027344 19.53125 28.625 18.523438 28.078125 17.617188 Z M 28.078125 17.617188 "/><path style=" stroke:none;fill-rule:nonzero;fill:#ffa800;fill-opacity:1;" d="M 28.03125 27.546875 C 28.039062 27.527344 28.046875 27.515625 28.058594 27.503906 C 28.613281 26.585938 29.023438 25.566406 29.246094 24.480469 L 21.808594 24.480469 L 21.808594 31.917969 C 24.433594 31.375 26.667969 29.757812 28.03125 27.546875 Z M 28.03125 27.546875 "/><path style=" stroke:none;fill-rule:nonzero;fill:#ffa800;fill-opacity:1;" d="M 17.925781 31.917969 L 17.925781 24.480469 L 10.488281 24.480469 C 11.257812 28.207031 14.199219 31.148438 17.925781 31.917969 Z M 17.925781 31.917969 "/><path style=" stroke:none;fill-rule:nonzero;fill:#ffa800;fill-opacity:1;" d="M 11.699219 17.539062 C 11.695312 17.550781 11.6875 17.566406 11.679688 17.578125 C 11.121094 18.496094 10.710938 19.515625 10.488281 20.601562 L 17.925781 20.601562 L 17.925781 13.164062 C 15.300781 13.707031 13.066406 15.328125 11.699219 17.539062 Z M 11.699219 17.539062 "/><g clip-rule="nonzero" clip-path="url(#25862f42c3)"><path style=" stroke:none;fill-rule:nonzero;fill:#ffa800;fill-opacity:1;" d="M 0.128906 18.554688 L 0.128906 26.53125 L 7.011719 26.53125 C 6.621094 25.269531 6.410156 23.925781 6.410156 22.539062 C 6.410156 21.152344 6.621094 19.816406 7.011719 18.554688 Z M 0.128906 18.554688 "/></g><g clip-rule="nonzero" clip-path="url(#b0e349b428)"><path style=" stroke:none;fill-rule:nonzero;fill:#ffa800;fill-opacity:1;" d="M 147.210938 92.714844 C 146.136719 92.714844 145.273438 93.585938 145.273438 94.65625 L 145.273438 100.851562 L 138.789062 100.851562 C 138.441406 100.851562 138.097656 100.820312 137.769531 100.753906 C 137.679688 100.738281 137.589844 100.71875 137.5 100.699219 C 137.148438 100.625 136.808594 100.511719 136.484375 100.363281 C 136.324219 100.292969 136.167969 100.214844 136.011719 100.125 C 135.933594 100.085938 135.859375 100.039062 135.785156 99.988281 C 135.710938 99.949219 135.632812 99.902344 135.5625 99.84375 C 135.492188 99.800781 135.421875 99.75 135.351562 99.691406 C 135.210938 99.59375 135.078125 99.480469 134.949219 99.355469 C 134.882812 99.300781 134.816406 99.238281 134.757812 99.175781 C 134.628906 99.050781 134.511719 98.921875 134.402344 98.785156 C 134.34375 98.71875 134.289062 98.652344 134.242188 98.582031 C 134.132812 98.441406 134.035156 98.300781 133.941406 98.148438 C 133.847656 98 133.757812 97.847656 133.683594 97.6875 C 133.605469 97.527344 133.53125 97.367188 133.46875 97.203125 C 133.4375 97.117188 133.402344 97.035156 133.378906 96.949219 C 133.289062 96.695312 133.222656 96.433594 133.175781 96.164062 C 133.109375 95.832031 133.078125 95.488281 133.078125 95.140625 L 133.078125 76.609375 C 133.078125 76.261719 133.109375 75.917969 133.175781 75.585938 C 133.222656 75.316406 133.289062 75.054688 133.378906 74.796875 C 133.402344 74.714844 133.4375 74.628906 133.46875 74.546875 C 133.53125 74.382812 133.605469 74.21875 133.683594 74.0625 C 133.757812 73.902344 133.847656 73.75 133.941406 73.597656 C 134.035156 73.449219 134.132812 73.308594 134.242188 73.164062 C 134.289062 73.097656 134.34375 73.03125 134.402344 72.960938 C 134.511719 72.828125 134.628906 72.695312 134.757812 72.574219 C 134.816406 72.507812 134.882812 72.449219 134.949219 72.394531 C 135.078125 72.269531 135.210938 72.15625 135.351562 72.058594 C 135.421875 72 135.492188 71.945312 135.5625 71.90625 C 135.632812 71.847656 135.707031 71.796875 135.785156 71.757812 C 135.859375 71.710938 135.933594 71.664062 136.011719 71.625 C 136.167969 71.535156 136.324219 71.457031 136.484375 71.386719 C 136.808594 71.238281 137.148438 71.125 137.5 71.046875 C 137.589844 71.027344 137.679688 71.011719 137.769531 70.992188 C 138.097656 70.929688 138.441406 70.898438 138.789062 70.898438 L 143.238281 70.898438 L 143.238281 78.980469 C 143.238281 80.050781 144.109375 80.917969 145.179688 80.917969 C 146.25 80.917969 147.117188 80.050781 147.117188 78.980469 L 147.117188 54.839844 C 147.117188 53.769531 146.25 52.898438 145.179688 52.898438 C 144.109375 52.898438 143.238281 53.769531 143.238281 54.839844 L 143.238281 62.921875 L 138.789062 62.921875 C 135.640625 62.921875 133.078125 60.359375 133.078125 57.207031 L 133.078125 35.828125 L 141.160156 35.828125 C 142.234375 35.828125 143.097656 34.957031 143.097656 33.890625 C 143.097656 32.816406 142.234375 31.949219 141.160156 31.949219 L 117.023438 31.949219 C 115.949219 31.949219 115.082031 32.816406 115.082031 33.890625 C 115.082031 34.957031 115.949219 35.828125 117.023438 35.828125 L 125.105469 35.828125 L 125.105469 57.207031 C 125.105469 60.359375 122.539062 62.921875 119.390625 62.921875 L 107.628906 62.921875 C 104.480469 62.921875 101.921875 60.359375 101.921875 57.207031 L 101.921875 42.09375 L 110.003906 42.09375 C 111.074219 42.09375 111.945312 41.222656 111.945312 40.152344 C 111.945312 39.082031 111.074219 38.214844 110.003906 38.214844 L 85.863281 38.214844 C 84.792969 38.214844 83.921875 39.082031 83.921875 40.152344 C 83.921875 41.222656 84.792969 42.09375 85.863281 42.09375 L 93.945312 42.09375 L 93.945312 57.207031 C 93.945312 60.359375 91.386719 62.921875 88.234375 62.921875 L 74.441406 62.921875 C 71.292969 62.921875 68.726562 60.359375 68.726562 57.207031 L 68.726562 3.878906 L 76.8125 3.878906 C 77.882812 3.878906 78.753906 3.011719 78.753906 1.941406 C 78.753906 0.867188 77.882812 0 76.8125 0 L 52.671875 0 C 51.597656 0 50.734375 0.867188 50.734375 1.941406 C 50.734375 3.011719 51.597656 3.878906 52.671875 3.878906 L 60.753906 3.878906 L 60.753906 10.675781 C 60.753906 15.019531 56.703125 18.550781 51.726562 18.554688 C 51.722656 18.554688 51.722656 18.554688 51.71875 18.554688 L 32.722656 18.554688 C 33.113281 19.816406 33.324219 21.152344 33.324219 22.539062 C 33.324219 23.929688 33.113281 25.269531 32.722656 26.53125 L 54.972656 26.53125 C 55.183594 26.53125 55.390625 26.5625 55.59375 26.632812 C 55.652344 26.648438 55.707031 26.671875 55.761719 26.699219 C 55.804688 26.71875 55.851562 26.742188 55.894531 26.761719 C 58.855469 28.140625 60.753906 31.125 60.753906 34.394531 L 60.753906 55.296875 C 60.753906 58.75 58.128906 61.835938 54.355469 62.832031 C 54.320312 62.847656 54.285156 62.851562 54.25 62.863281 C 54.230469 62.867188 54.214844 62.871094 54.195312 62.875 C 54.132812 62.886719 54.074219 62.898438 54.011719 62.90625 C 53.984375 62.90625 53.960938 62.910156 53.933594 62.914062 C 53.882812 62.917969 53.832031 62.921875 53.777344 62.921875 L 33.324219 62.921875 L 33.324219 54.839844 C 33.324219 53.769531 32.453125 52.898438 31.382812 52.898438 C 30.308594 52.898438 29.445312 53.769531 29.445312 54.839844 L 29.445312 78.980469 C 29.445312 80.050781 30.308594 80.917969 31.382812 80.917969 C 32.453125 80.917969 33.324219 80.050781 33.324219 78.980469 L 33.324219 70.894531 L 54.972656 70.894531 C 55.109375 70.894531 55.246094 70.914062 55.382812 70.9375 C 55.445312 70.953125 55.511719 70.972656 55.570312 70.992188 C 55.632812 71.007812 55.695312 71.035156 55.753906 71.0625 C 55.757812 71.0625 55.757812 71.0625 55.761719 71.0625 C 55.808594 71.082031 55.851562 71.101562 55.894531 71.128906 C 58.855469 72.511719 60.753906 75.496094 60.753906 78.773438 L 60.753906 93.328125 C 60.753906 96.667969 58.304688 99.660156 54.730469 100.753906 C 54.710938 100.761719 54.691406 100.769531 54.671875 100.773438 C 54.535156 100.816406 54.390625 100.855469 54.25 100.890625 C 54.089844 100.933594 53.929688 100.953125 53.773438 100.953125 C 53.5625 100.953125 53.355469 100.917969 53.164062 100.851562 L 35.15625 100.851562 C 34.144531 100.851562 33.324219 101.671875 33.324219 102.6875 L 33.324219 141.679688 L 25.238281 141.679688 C 24.167969 141.679688 23.296875 142.546875 23.296875 143.617188 C 23.296875 144.6875 24.167969 145.558594 25.238281 145.558594 L 49.378906 145.558594 C 50.453125 145.558594 51.316406 144.6875 51.316406 143.617188 C 51.316406 142.546875 50.453125 141.679688 49.378906 141.679688 L 41.296875 141.679688 L 41.296875 115.003906 C 41.257812 114.855469 41.238281 114.699219 41.238281 114.539062 C 41.238281 114.453125 41.238281 114.371094 41.242188 114.285156 C 41.25 114.167969 41.257812 114.054688 41.273438 113.941406 C 41.277344 113.867188 41.289062 113.796875 41.300781 113.726562 C 41.304688 113.722656 41.304688 113.71875 41.304688 113.714844 L 41.304688 113.695312 C 41.308594 113.664062 41.3125 113.640625 41.3125 113.609375 C 41.316406 113.574219 41.324219 113.535156 41.332031 113.5 C 41.332031 113.496094 41.332031 113.492188 41.332031 113.484375 C 41.828125 110.835938 44.15625 108.828125 46.949219 108.828125 L 119.390625 108.828125 C 122.539062 108.828125 125.105469 111.390625 125.105469 114.539062 L 125.105469 145.855469 L 117.019531 145.855469 C 115.949219 145.855469 115.082031 146.726562 115.082031 147.796875 C 115.082031 148.867188 115.949219 149.734375 117.019531 149.734375 L 141.160156 149.734375 C 142.230469 149.734375 143.097656 148.867188 143.097656 147.796875 C 143.097656 146.726562 142.230469 145.855469 141.160156 145.855469 L 133.074219 145.855469 L 133.074219 114.539062 C 133.074219 111.390625 135.640625 108.828125 138.789062 108.828125 L 145.269531 108.828125 L 145.269531 118.796875 C 145.269531 119.871094 146.136719 120.734375 147.210938 120.734375 C 148.28125 120.734375 149.148438 119.871094 149.148438 118.796875 L 149.148438 94.65625 C 149.152344 93.585938 148.28125 92.714844 147.210938 92.714844 Z M 125.007812 96.164062 C 124.960938 96.433594 124.890625 96.695312 124.804688 96.949219 C 124.777344 97.035156 124.746094 97.117188 124.714844 97.203125 C 124.648438 97.367188 124.578125 97.53125 124.5 97.6875 C 124.421875 97.847656 124.335938 98 124.242188 98.148438 C 124.148438 98.300781 124.046875 98.441406 123.941406 98.582031 C 123.890625 98.652344 123.835938 98.71875 123.777344 98.789062 C 123.667969 98.921875 123.554688 99.050781 123.421875 99.175781 C 123.363281 99.238281 123.300781 99.300781 123.234375 99.355469 C 123.101562 99.480469 122.972656 99.59375 122.832031 99.691406 C 122.761719 99.75 122.691406 99.800781 122.617188 99.84375 C 122.546875 99.902344 122.472656 99.953125 122.398438 99.988281 C 122.324219 100.039062 122.246094 100.085938 122.167969 100.125 C 122.015625 100.214844 121.859375 100.292969 121.695312 100.363281 C 121.375 100.511719 121.035156 100.625 120.683594 100.699219 C 120.589844 100.71875 120.503906 100.738281 120.414062 100.757812 C 120.085938 100.820312 119.742188 100.851562 119.390625 100.851562 L 74.441406 100.851562 C 74.089844 100.851562 73.75 100.820312 73.417969 100.757812 C 73.328125 100.738281 73.242188 100.71875 73.148438 100.699219 C 72.796875 100.625 72.457031 100.511719 72.136719 100.363281 C 71.972656 100.292969 71.816406 100.214844 71.664062 100.125 C 71.585938 100.085938 71.507812 100.039062 71.433594 99.988281 C 71.359375 99.953125 71.285156 99.902344 71.214844 99.84375 C 71.144531 99.800781 71.070312 99.75 71 99.691406 C 70.859375 99.59375 70.730469 99.480469 70.597656 99.355469 C 70.53125 99.300781 70.46875 99.238281 70.410156 99.175781 C 70.28125 99.050781 70.164062 98.921875 70.054688 98.789062 C 69.996094 98.71875 69.941406 98.652344 69.890625 98.582031 C 69.785156 98.441406 69.683594 98.300781 69.589844 98.148438 C 69.496094 98 69.410156 97.847656 69.332031 97.6875 C 69.253906 97.53125 69.183594 97.367188 69.117188 97.203125 C 69.085938 97.117188 69.054688 97.035156 69.027344 96.949219 C 68.941406 96.695312 68.875 96.433594 68.824219 96.164062 C 68.761719 95.832031 68.726562 95.488281 68.726562 95.140625 L 68.726562 76.28125 C 68.726562 75.855469 68.777344 75.445312 68.875 75.054688 C 68.890625 74.96875 68.910156 74.890625 68.9375 74.808594 C 68.960938 74.726562 68.984375 74.648438 69.011719 74.570312 C 69.0625 74.40625 69.125 74.253906 69.195312 74.101562 C 69.230469 74.027344 69.265625 73.953125 69.300781 73.878906 C 69.335938 73.804688 69.375 73.726562 69.417969 73.65625 C 69.453125 73.585938 69.5 73.511719 69.546875 73.445312 C 69.585938 73.371094 69.632812 73.304688 69.679688 73.238281 C 69.773438 73.101562 69.875 72.96875 69.976562 72.84375 C 70.03125 72.78125 70.085938 72.71875 70.140625 72.660156 C 70.191406 72.597656 70.25 72.535156 70.3125 72.480469 C 70.371094 72.417969 70.425781 72.363281 70.488281 72.308594 C 70.609375 72.191406 70.738281 72.085938 70.867188 71.992188 C 70.933594 71.9375 71 71.890625 71.066406 71.851562 C 71.203125 71.75 71.34375 71.664062 71.488281 71.589844 C 71.539062 71.554688 71.59375 71.523438 71.648438 71.5 C 71.65625 71.496094 71.667969 71.492188 71.675781 71.488281 C 71.757812 71.441406 71.847656 71.402344 71.929688 71.363281 C 72.601562 71.0625 73.335938 70.898438 74.113281 70.898438 L 88.089844 70.898438 C 88.359375 70.898438 88.625 70.953125 88.867188 71.058594 C 91.953125 72.417969 93.945312 75.441406 93.945312 78.773438 L 93.945312 82.917969 L 101.921875 82.917969 L 101.921875 77.035156 C 101.886719 76.898438 101.871094 76.753906 101.871094 76.609375 C 101.871094 76.570312 101.871094 76.53125 101.875 76.492188 C 101.875 76.453125 101.875 76.414062 101.878906 76.375 C 101.886719 76.261719 101.890625 76.152344 101.90625 76.039062 C 101.90625 75.980469 101.914062 75.917969 101.925781 75.855469 C 101.929688 75.828125 101.933594 75.792969 101.9375 75.765625 C 101.945312 75.71875 101.949219 75.671875 101.960938 75.625 C 102.425781 72.941406 104.773438 70.894531 107.585938 70.894531 L 119.390625 70.894531 C 119.742188 70.894531 120.085938 70.929688 120.414062 70.992188 C 120.503906 71.007812 120.589844 71.027344 120.683594 71.046875 C 121.035156 71.125 121.375 71.238281 121.695312 71.386719 C 121.859375 71.457031 122.015625 71.53125 122.167969 71.625 C 122.246094 71.664062 122.324219 71.710938 122.398438 71.757812 C 122.472656 71.796875 122.546875 71.847656 122.617188 71.90625 C 122.691406 71.945312 122.761719 72 122.832031 72.058594 C 122.972656 72.15625 123.105469 72.269531 123.234375 72.394531 C 123.300781 72.449219 123.367188 72.507812 123.421875 72.574219 C 123.554688 72.695312 123.667969 72.824219 123.777344 72.960938 C 123.835938 73.03125 123.890625 73.097656 123.941406 73.164062 C 124.046875 73.308594 124.148438 73.449219 124.242188 73.597656 C 124.335938 73.746094 124.421875 73.902344 124.5 74.0625 C 124.578125 74.21875 124.648438 74.382812 124.714844 74.546875 C 124.746094 74.628906 124.777344 74.714844 124.804688 74.796875 C 124.890625 75.054688 124.957031 75.316406 125.007812 75.582031 C 125.070312 75.917969 125.105469 76.257812 125.105469 76.609375 L 125.105469 95.140625 C 125.105469 95.488281 125.070312 95.832031 125.007812 96.164062 Z M 125.007812 96.164062 "/></g></g></svg>