<svg xmlns="http://www.w3.org/2000/svg" xmlns:xlink="http://www.w3.org/1999/xlink" width="200" zoomAndPan="magnify" viewBox="0 0 150 157.92" height="200" preserveAspectRatio="xMidYMid meet" version="1.2"><defs><clipPath id="2308b3e483"><path d="M 0.0390625 0 L 149.960938 0 L 149.960938 149.925781 L 0.0390625 149.925781 Z M 0.0390625 0 "/></clipPath></defs><g id="75d4d02253"><g clip-rule="nonzero" clip-path="url(#2308b3e483)"><path style=" stroke:none;fill-rule:nonzero;fill:#ffa800;fill-opacity:1;" d="M 149.960938 -0.00390625 L 149.960938 149.921875 L 0.03125 149.921875 L 66.496094 83.457031 C 66.726562 83.335938 66.929688 83.183594 67.113281 83 L 81.917969 68.195312 L 103.359375 89.636719 L 93.972656 89.636719 C 93.632812 89.644531 93.304688 89.71875 92.992188 89.855469 C 92.679688 89.992188 92.40625 90.183594 92.167969 90.425781 C 91.929688 90.671875 91.746094 90.953125 91.617188 91.265625 C 91.492188 91.582031 91.425781 91.910156 91.425781 92.253906 C 91.425781 92.59375 91.492188 92.921875 91.617188 93.238281 C 91.746094 93.554688 91.929688 93.835938 92.167969 94.078125 C 92.40625 94.324219 92.679688 94.511719 92.992188 94.648438 C 93.304688 94.789062 93.632812 94.859375 93.972656 94.871094 L 109.675781 94.871094 C 109.996094 94.871094 110.308594 94.8125 110.609375 94.699219 C 110.71875 94.65625 110.820312 94.609375 110.921875 94.554688 L 111.03125 94.492188 C 111.066406 94.46875 111.105469 94.445312 111.140625 94.421875 C 111.492188 94.183594 111.773438 93.875 111.976562 93.5 C 111.996094 93.464844 112.015625 93.425781 112.03125 93.386719 C 112.054688 93.351562 112.070312 93.3125 112.085938 93.269531 C 112.105469 93.234375 112.121094 93.195312 112.132812 93.152344 L 112.175781 93.03125 C 112.195312 92.972656 112.207031 92.914062 112.222656 92.855469 C 112.230469 92.820312 112.238281 92.78125 112.242188 92.746094 C 112.253906 92.710938 112.257812 92.675781 112.261719 92.640625 C 112.28125 92.515625 112.292969 92.386719 112.292969 92.253906 L 112.292969 76.550781 C 112.292969 76.203125 112.226562 75.871094 112.09375 75.550781 C 111.960938 75.230469 111.769531 74.945312 111.527344 74.699219 C 111.28125 74.457031 110.996094 74.265625 110.675781 74.132812 C 110.355469 74 110.023438 73.933594 109.675781 73.933594 C 109.328125 73.933594 108.996094 74 108.675781 74.132812 C 108.355469 74.265625 108.070312 74.457031 107.828125 74.699219 C 107.582031 74.945312 107.390625 75.230469 107.257812 75.550781 C 107.125 75.871094 107.058594 76.203125 107.058594 76.550781 L 107.058594 85.9375 L 85.621094 64.496094 L 100.421875 49.695312 C 100.609375 49.507812 100.761719 49.300781 100.886719 49.066406 Z M 149.960938 -0.00390625 "/></g><path style=" stroke:none;fill-rule:nonzero;fill:#ffa800;fill-opacity:1;" d="M 48.609375 68.199219 L 27.171875 89.636719 L 23.46875 89.636719 L 23.46875 85.933594 L 44.910156 64.496094 Z M 48.609375 68.199219 "/><path style=" stroke:none;fill-rule:nonzero;fill:#ffa800;fill-opacity:1;" d="M 39.167969 92.253906 C 39.167969 92.601562 39.101562 92.933594 38.96875 93.253906 C 38.835938 93.574219 38.648438 93.859375 38.402344 94.101562 C 38.15625 94.347656 37.875 94.539062 37.554688 94.671875 C 37.234375 94.804688 36.902344 94.871094 36.554688 94.871094 L 20.851562 94.871094 C 20.785156 94.871094 20.714844 94.867188 20.644531 94.859375 C 20.609375 94.859375 20.570312 94.855469 20.53125 94.847656 L 20.457031 94.839844 C 20.417969 94.839844 20.378906 94.828125 20.339844 94.816406 C 20.261719 94.804688 20.183594 94.785156 20.109375 94.761719 L 19.988281 94.722656 L 19.914062 94.695312 L 19.886719 94.683594 C 19.828125 94.660156 19.773438 94.636719 19.71875 94.609375 C 19.664062 94.585938 19.613281 94.558594 19.5625 94.527344 L 19.410156 94.433594 C 19.3125 94.371094 19.21875 94.296875 19.128906 94.222656 L 19.066406 94.164062 C 19.042969 94.140625 19.015625 94.117188 18.996094 94.09375 C 18.957031 94.054688 18.917969 94.015625 18.882812 93.972656 C 18.84375 93.929688 18.804688 93.882812 18.773438 93.835938 L 18.71875 93.765625 C 18.703125 93.742188 18.6875 93.71875 18.667969 93.691406 C 18.644531 93.65625 18.621094 93.621094 18.601562 93.582031 C 18.582031 93.554688 18.566406 93.527344 18.554688 93.5 C 18.53125 93.464844 18.511719 93.425781 18.496094 93.386719 C 18.464844 93.324219 18.433594 93.261719 18.410156 93.195312 C 18.394531 93.15625 18.382812 93.121094 18.371094 93.082031 C 18.28125 92.816406 18.238281 92.542969 18.238281 92.261719 L 18.238281 76.550781 C 18.246094 76.210938 18.320312 75.882812 18.457031 75.570312 C 18.59375 75.257812 18.785156 74.984375 19.027344 74.746094 C 19.273438 74.507812 19.550781 74.324219 19.867188 74.195312 C 20.183594 74.070312 20.511719 74.003906 20.855469 74.003906 C 21.195312 74.003906 21.523438 74.070312 21.839844 74.195312 C 22.15625 74.324219 22.433594 74.507812 22.679688 74.746094 C 22.925781 74.984375 23.113281 75.257812 23.25 75.570312 C 23.386719 75.882812 23.460938 76.210938 23.46875 76.550781 L 23.46875 89.636719 L 36.554688 89.636719 C 36.902344 89.636719 37.234375 89.703125 37.554688 89.835938 C 37.875 89.96875 38.160156 90.160156 38.402344 90.402344 C 38.648438 90.648438 38.839844 90.933594 38.96875 91.253906 C 39.101562 91.574219 39.167969 91.90625 39.167969 92.253906 Z M 39.167969 92.253906 "/><path style=" stroke:none;fill-rule:nonzero;fill:#ffa800;fill-opacity:1;" d="M 103.355469 6.046875 L 107.058594 6.046875 L 107.058594 9.75 L 85.621094 31.1875 L 81.917969 27.488281 Z M 103.355469 6.046875 "/><path style=" stroke:none;fill-rule:nonzero;fill:#ffa800;fill-opacity:1;" d="M 112.292969 3.433594 L 112.292969 19.132812 C 112.28125 19.472656 112.210938 19.800781 112.074219 20.113281 C 111.9375 20.425781 111.746094 20.699219 111.5 20.9375 C 111.257812 21.175781 110.976562 21.359375 110.660156 21.488281 C 110.34375 21.617188 110.015625 21.679688 109.675781 21.679688 C 109.335938 21.679688 109.003906 21.617188 108.691406 21.488281 C 108.375 21.359375 108.09375 21.175781 107.847656 20.9375 C 107.605469 20.699219 107.414062 20.425781 107.277344 20.113281 C 107.140625 19.800781 107.066406 19.472656 107.058594 19.132812 L 107.058594 6.046875 L 93.972656 6.046875 C 93.632812 6.039062 93.304688 5.964844 92.992188 5.828125 C 92.679688 5.691406 92.40625 5.5 92.167969 5.257812 C 91.929688 5.011719 91.746094 4.734375 91.617188 4.417969 C 91.492188 4.101562 91.425781 3.773438 91.425781 3.429688 C 91.425781 3.089844 91.492188 2.761719 91.617188 2.445312 C 91.746094 2.128906 91.929688 1.851562 92.167969 1.605469 C 92.40625 1.363281 92.679688 1.171875 92.992188 1.035156 C 93.304688 0.898438 93.632812 0.824219 93.972656 0.816406 L 109.675781 0.816406 C 109.816406 0.8125 109.957031 0.824219 110.097656 0.847656 C 110.167969 0.847656 110.234375 0.875 110.300781 0.890625 L 110.332031 0.890625 L 110.441406 0.921875 L 110.5 0.941406 L 110.609375 0.980469 C 110.726562 1.023438 110.84375 1.078125 110.953125 1.140625 C 111 1.167969 111.042969 1.191406 111.082031 1.21875 C 111.183594 1.28125 111.277344 1.351562 111.367188 1.429688 C 111.414062 1.464844 111.457031 1.503906 111.496094 1.546875 C 111.535156 1.585938 111.574219 1.625 111.613281 1.664062 C 111.648438 1.703125 111.691406 1.757812 111.730469 1.808594 L 111.792969 1.886719 C 111.902344 2.035156 111.992188 2.195312 112.066406 2.363281 C 112.078125 2.386719 112.085938 2.410156 112.097656 2.4375 C 112.109375 2.460938 112.117188 2.484375 112.125 2.507812 L 112.15625 2.589844 C 112.246094 2.863281 112.292969 3.144531 112.292969 3.433594 Z M 112.292969 3.433594 "/><path style=" stroke:none;fill-rule:nonzero;fill:#ffa800;fill-opacity:1;" d="M 94.792969 47.761719 L 65.183594 77.371094 L 35.65625 47.84375 L 65.265625 18.234375 L 80.019531 32.992188 L 80.101562 33.070312 Z M 94.792969 47.761719 "/></g></svg>