<svg xmlns="http://www.w3.org/2000/svg" xmlns:xlink="http://www.w3.org/1999/xlink" width="200" zoomAndPan="magnify" viewBox="0 0 150 157.92" height="200" preserveAspectRatio="xMidYMid meet" version="1.2"><defs><clipPath id="0b64279f6d"><path d="M 0.0390625 83 L 149.960938 83 L 149.960938 149 L 0.0390625 149 Z M 0.0390625 83 "/></clipPath></defs><g id="5653241d60"><path style=" stroke:none;fill-rule:evenodd;fill:#ffa800;fill-opacity:1;" d="M 88.378906 54.964844 C 92.601562 53.546875 96.792969 51.503906 100.875 48.628906 C 101.707031 48.039062 102.882812 48.25 103.472656 49.113281 C 104.0625 49.945312 103.851562 51.085938 103.023438 51.675781 C 98.417969 54.894531 93.675781 57.144531 88.933594 58.667969 C 88.933594 58.253906 88.898438 57.804688 88.863281 57.351562 C 88.726562 56.523438 88.550781 55.691406 88.378906 54.964844 Z M 88.378906 54.964844 "/><path style=" stroke:none;fill-rule:evenodd;fill:#ffa800;fill-opacity:1;" d="M 130.992188 49.425781 C 130.300781 49.425781 129.640625 49.042969 129.296875 48.351562 C 127.21875 43.851562 124.589844 39.941406 121.644531 36.617188 C 122.199219 36.027344 122.789062 35.40625 123.34375 34.714844 C 123.585938 34.367188 123.792969 34.019531 124 33.710938 C 127.324219 37.378906 130.335938 41.707031 132.6875 46.792969 C 133.105469 47.730469 132.722656 48.835938 131.789062 49.253906 C 131.511719 49.355469 131.269531 49.425781 130.992188 49.425781 Z M 130.992188 49.425781 "/><path style=" stroke:none;fill-rule:evenodd;fill:#ffa800;fill-opacity:1;" d="M 75.363281 71.40625 C 75.847656 71.371094 85.125 69.953125 85.265625 59.707031 C 80.347656 60.917969 75.5 61.402344 70.898438 61.402344 C 54.179688 61.402344 40.953125 55.136719 40.746094 55.035156 C 39.8125 54.582031 39.429688 53.476562 39.882812 52.542969 C 40.332031 51.605469 41.4375 51.226562 42.339844 51.675781 C 42.617188 51.8125 63.214844 61.542969 84.8125 56.003906 C 83.359375 50.015625 79.933594 48.214844 73.527344 47.589844 C 74.601562 48.976562 75.605469 50.777344 76.261719 53.058594 C 76.574219 54.03125 75.988281 55.066406 75.015625 55.34375 C 74.84375 55.414062 74.671875 55.414062 74.5 55.414062 C 73.667969 55.414062 72.941406 54.894531 72.699219 54.097656 C 71.519531 49.980469 68.855469 47.902344 67.921875 47.28125 L 65.601562 47.246094 C 64.042969 47.210938 62.417969 47.175781 60.71875 47.105469 C 62.382812 48.941406 63.90625 51.292969 64.078125 53.753906 C 64.113281 54.792969 63.351562 55.65625 62.3125 55.726562 L 62.210938 55.726562 C 61.238281 55.726562 60.410156 54.964844 60.375 53.960938 C 60.203125 51.363281 56.601562 48.074219 54.871094 46.761719 C 45.003906 45.824219 33.617188 42.988281 22.054688 33.292969 C 23.921875 40.011719 28.078125 51.328125 36.523438 60.019531 C 37.457031 60.191406 40.433594 60.570312 42.894531 58.390625 C 43.6875 57.699219 44.832031 57.769531 45.523438 58.5625 C 46.214844 59.324219 46.113281 60.503906 45.351562 61.160156 C 43.757812 62.578125 42.027344 63.273438 40.46875 63.617188 C 45.558594 67.667969 51.859375 70.714844 59.648438 71.824219 C 61.621094 70.332031 64.078125 67.875 64.183594 66.25 C 64.25 65.210938 65.152344 64.449219 66.15625 64.519531 C 67.195312 64.585938 67.957031 65.453125 67.886719 66.492188 C 67.746094 68.601562 66.292969 70.644531 64.769531 72.238281 L 65.980469 72.238281 C 68.992188 72.238281 72.144531 71.960938 75.363281 71.40625 Z M 75.363281 71.40625 "/><path style=" stroke:none;fill-rule:evenodd;fill:#ffa800;fill-opacity:1;" d="M 63.90625 21.28125 C 73.769531 21.28125 81.765625 23.878906 88.550781 26.992188 C 90.664062 26.683594 95.441406 25.644531 96.894531 23.464844 C 97.449219 22.597656 98.589844 22.390625 99.457031 22.945312 C 100.320312 23.496094 100.5625 24.675781 99.976562 25.503906 C 98.625 27.546875 96.132812 28.828125 93.78125 29.589844 C 95.269531 30.386719 96.6875 31.183594 98.039062 31.945312 L 100.078125 33.050781 C 101.222656 32.984375 104.546875 32.5 107.625 29.554688 C 108.386719 28.828125 109.53125 28.863281 110.257812 29.589844 C 110.984375 30.351562 110.949219 31.527344 110.222656 32.222656 C 108.492188 33.882812 106.691406 34.921875 105.0625 35.613281 C 107.558594 36.722656 109.808594 37.414062 111.882812 37.414062 C 114.445312 37.414062 116.765625 36.304688 119.085938 33.917969 C 103.125 18.339844 80.417969 16.46875 80.140625 16.46875 C 79.136719 16.402344 78.339844 15.5 78.445312 14.464844 C 78.511719 13.460938 79.414062 12.699219 80.417969 12.765625 C 80.730469 12.765625 104.371094 14.707031 121.335938 30.941406 C 126.421875 22.007812 118.980469 16.160156 118.667969 15.917969 C 115.761719 13.527344 112.820312 11.519531 109.839844 9.894531 C 110.359375 12.039062 110.601562 14.496094 109.667969 16.402344 C 109.355469 17.058594 108.699219 17.441406 108.007812 17.441406 C 107.730469 17.441406 107.453125 17.371094 107.175781 17.230469 C 106.242188 16.78125 105.894531 15.675781 106.34375 14.738281 C 107.070312 13.285156 106.171875 9.960938 105.203125 7.679688 C 100.425781 5.738281 95.542969 4.769531 90.59375 4.769531 C 88.550781 4.769531 86.542969 4.945312 84.570312 5.253906 C 85.714844 6.292969 86.820312 7.746094 87.480469 9.71875 C 87.824219 10.691406 87.304688 11.761719 86.335938 12.074219 C 86.128906 12.144531 85.921875 12.179688 85.75 12.179688 C 84.953125 12.179688 84.226562 11.695312 83.984375 10.933594 C 82.980469 7.953125 80.453125 6.742188 79.449219 6.363281 C 67.816406 9.6875 58.46875 17.371094 53.484375 22.21875 C 57.015625 21.59375 60.511719 21.28125 63.90625 21.28125 Z M 63.90625 21.28125 "/><g clip-rule="nonzero" clip-path="url(#0b64279f6d)"><path style=" stroke:none;fill-rule:evenodd;fill:#ffa800;fill-opacity:1;" d="M 141.6875 83.765625 L 9.972656 83.765625 L 0.0390625 148.394531 L 149.960938 148.394531 Z M 76.714844 107.546875 C 77.753906 107.546875 78.582031 108.410156 78.582031 109.414062 C 78.582031 110.453125 77.753906 111.285156 76.714844 111.285156 L 73.21875 111.285156 C 72.179688 111.285156 71.347656 110.453125 71.347656 109.414062 C 71.347656 108.410156 72.179688 107.546875 73.21875 107.546875 Z M 61.066406 109.070312 C 61.066406 110.074219 60.234375 110.90625 59.199219 110.90625 L 55.703125 110.90625 C 54.664062 110.90625 53.832031 110.074219 53.832031 109.070312 C 53.832031 108.03125 54.664062 107.199219 55.703125 107.199219 L 59.199219 107.199219 C 60.234375 107.199219 61.066406 108.03125 61.066406 109.070312 Z M 43.515625 109.414062 C 43.515625 110.453125 42.683594 111.285156 41.679688 111.285156 L 38.152344 111.285156 C 37.148438 111.285156 36.316406 110.453125 36.316406 109.414062 C 36.316406 108.410156 37.148438 107.546875 38.152344 107.546875 L 41.679688 107.546875 C 42.683594 107.546875 43.515625 108.410156 43.515625 109.414062 Z M 125.800781 135.238281 L 129.296875 135.238281 C 130.335938 135.238281 131.164062 136.070312 131.164062 137.109375 C 131.164062 138.113281 130.335938 138.945312 129.296875 138.945312 L 125.800781 138.945312 C 124.761719 138.945312 123.929688 138.113281 123.929688 137.109375 C 123.929688 136.070312 124.761719 135.238281 125.800781 135.238281 Z M 123.929688 123.089844 C 123.929688 122.050781 124.761719 121.21875 125.800781 121.21875 L 129.296875 121.21875 C 130.335938 121.21875 131.164062 122.050781 131.164062 123.089844 C 131.164062 124.09375 130.335938 124.925781 129.296875 124.925781 L 125.800781 124.925781 C 124.761719 124.925781 123.929688 124.09375 123.929688 123.089844 Z M 111.78125 135.238281 C 112.820312 135.238281 113.648438 136.070312 113.648438 137.109375 C 113.648438 138.113281 112.820312 138.945312 111.78125 138.945312 L 108.285156 138.945312 C 107.246094 138.945312 106.414062 138.113281 106.414062 137.109375 C 106.414062 136.070312 107.246094 135.238281 108.285156 135.238281 Z M 113.648438 123.089844 C 113.648438 124.09375 112.820312 124.925781 111.78125 124.925781 L 108.285156 124.925781 C 107.246094 124.925781 106.414062 124.09375 106.414062 123.089844 C 106.414062 122.050781 107.246094 121.21875 108.285156 121.21875 L 111.78125 121.21875 C 112.820312 121.21875 113.648438 122.050781 113.648438 123.089844 Z M 94.265625 135.238281 C 95.269531 135.238281 96.097656 136.070312 96.097656 137.109375 C 96.097656 138.113281 95.269531 138.945312 94.265625 138.945312 L 90.734375 138.945312 C 89.730469 138.945312 88.898438 138.113281 88.898438 137.109375 C 88.898438 136.070312 89.730469 135.238281 90.734375 135.238281 Z M 129.296875 107.199219 C 130.335938 107.199219 131.164062 108.03125 131.164062 109.070312 C 131.164062 110.074219 130.335938 110.90625 129.296875 110.90625 L 125.800781 110.90625 C 124.761719 110.90625 123.929688 110.074219 123.929688 109.070312 C 123.929688 108.03125 124.761719 107.199219 125.800781 107.199219 Z M 78.582031 137.109375 C 78.582031 138.113281 77.753906 138.945312 76.714844 138.945312 L 73.21875 138.945312 C 72.179688 138.945312 71.347656 138.113281 71.347656 137.109375 C 71.347656 136.070312 72.179688 135.238281 73.21875 135.238281 L 76.714844 135.238281 C 77.753906 135.238281 78.582031 136.070312 78.582031 137.109375 Z M 94.265625 121.21875 C 95.269531 121.21875 96.097656 122.050781 96.097656 123.089844 C 96.097656 124.09375 95.269531 124.925781 94.265625 124.925781 L 90.734375 124.925781 C 89.730469 124.925781 88.898438 124.09375 88.898438 123.089844 C 88.898438 122.050781 89.730469 121.21875 90.734375 121.21875 Z M 61.066406 137.109375 C 61.066406 138.113281 60.234375 138.945312 59.199219 138.945312 L 55.703125 138.945312 C 54.664062 138.945312 53.832031 138.113281 53.832031 137.109375 C 53.832031 136.070312 54.664062 135.238281 55.703125 135.238281 L 59.199219 135.238281 C 60.234375 135.238281 61.066406 136.070312 61.066406 137.109375 Z M 43.515625 137.109375 C 43.515625 138.113281 42.683594 138.945312 41.679688 138.945312 L 38.152344 138.945312 C 37.148438 138.945312 36.316406 138.113281 36.316406 137.109375 C 36.316406 136.070312 37.148438 135.238281 38.152344 135.238281 L 41.679688 135.238281 C 42.683594 135.238281 43.515625 136.070312 43.515625 137.109375 Z M 76.714844 121.21875 C 77.753906 121.21875 78.582031 122.050781 78.582031 123.089844 C 78.582031 124.09375 77.753906 124.925781 76.714844 124.925781 L 73.21875 124.925781 C 72.179688 124.925781 71.347656 124.09375 71.347656 123.089844 C 71.347656 122.050781 72.179688 121.21875 73.21875 121.21875 Z M 26 137.109375 C 26 138.113281 25.167969 138.945312 24.132812 138.945312 L 20.636719 138.945312 C 19.632812 138.945312 18.800781 138.113281 18.800781 137.109375 C 18.800781 136.070312 19.632812 135.238281 20.636719 135.238281 L 24.132812 135.238281 C 25.167969 135.238281 26 136.070312 26 137.109375 Z M 113.648438 109.414062 C 113.648438 110.453125 112.820312 111.285156 111.78125 111.285156 L 108.285156 111.285156 C 107.246094 111.285156 106.414062 110.453125 106.414062 109.414062 C 106.414062 108.410156 107.246094 107.546875 108.285156 107.546875 L 111.78125 107.546875 C 112.820312 107.546875 113.648438 108.410156 113.648438 109.414062 Z M 61.066406 123.089844 C 61.066406 124.09375 60.234375 124.925781 59.199219 124.925781 L 55.703125 124.925781 C 54.664062 124.925781 53.832031 124.09375 53.832031 123.089844 C 53.832031 122.050781 54.664062 121.21875 55.703125 121.21875 L 59.199219 121.21875 C 60.234375 121.21875 61.066406 122.050781 61.066406 123.089844 Z M 43.515625 123.089844 C 43.515625 124.09375 42.683594 124.925781 41.679688 124.925781 L 38.152344 124.925781 C 37.148438 124.925781 36.316406 124.09375 36.316406 123.089844 C 36.316406 122.050781 37.148438 121.21875 38.152344 121.21875 L 41.679688 121.21875 C 42.683594 121.21875 43.515625 122.050781 43.515625 123.089844 Z M 26 123.089844 C 26 124.09375 25.167969 124.925781 24.132812 124.925781 L 20.636719 124.925781 C 19.632812 124.925781 18.800781 124.09375 18.800781 123.089844 C 18.800781 122.050781 19.632812 121.21875 20.636719 121.21875 L 24.132812 121.21875 C 25.167969 121.21875 26 122.050781 26 123.089844 Z M 96.097656 109.070312 C 96.097656 110.074219 95.269531 110.90625 94.265625 110.90625 L 90.734375 110.90625 C 89.730469 110.90625 88.898438 110.074219 88.898438 109.070312 C 88.898438 108.03125 89.730469 107.199219 90.734375 107.199219 L 94.265625 107.199219 C 95.269531 107.199219 96.097656 108.03125 96.097656 109.070312 Z M 26 109.070312 C 26 110.074219 25.167969 110.90625 24.132812 110.90625 L 20.636719 110.90625 C 19.632812 110.90625 18.800781 110.074219 18.800781 109.070312 C 18.800781 108.03125 19.632812 107.199219 20.636719 107.199219 L 24.132812 107.199219 C 25.167969 107.199219 26 108.03125 26 109.070312 Z M 129.296875 96.886719 L 125.800781 96.886719 C 124.761719 96.886719 123.929688 96.054688 123.929688 95.050781 C 123.929688 94.011719 124.761719 93.179688 125.800781 93.179688 L 129.296875 93.179688 C 130.335938 93.179688 131.164062 94.011719 131.164062 95.050781 C 131.164062 96.054688 130.335938 96.886719 129.296875 96.886719 Z M 94.265625 96.886719 L 90.734375 96.886719 C 89.730469 96.886719 88.898438 96.054688 88.898438 95.050781 C 88.898438 94.011719 89.730469 93.179688 90.734375 93.179688 L 94.265625 93.179688 C 95.269531 93.179688 96.097656 94.011719 96.097656 95.050781 C 96.097656 96.054688 95.269531 96.886719 94.265625 96.886719 Z M 59.199219 96.886719 L 55.703125 96.886719 C 54.664062 96.886719 53.832031 96.054688 53.832031 95.050781 C 53.832031 94.011719 54.664062 93.179688 55.703125 93.179688 L 59.199219 93.179688 C 60.234375 93.179688 61.066406 94.011719 61.066406 95.050781 C 61.066406 96.054688 60.234375 96.886719 59.199219 96.886719 Z M 24.132812 96.886719 L 20.636719 96.886719 C 19.632812 96.886719 18.800781 96.054688 18.800781 95.050781 C 18.800781 94.011719 19.632812 93.179688 20.636719 93.179688 L 24.132812 93.179688 C 25.167969 93.179688 26 94.011719 26 95.050781 C 26 96.054688 25.167969 96.886719 24.132812 96.886719 Z M 111.78125 97.613281 L 108.285156 97.613281 C 107.246094 97.613281 106.414062 96.78125 106.414062 95.777344 C 106.414062 94.738281 107.246094 93.90625 108.285156 93.90625 L 111.78125 93.90625 C 112.820312 93.90625 113.648438 94.738281 113.648438 95.777344 C 113.648438 96.78125 112.820312 97.613281 111.78125 97.613281 Z M 76.714844 97.613281 L 73.21875 97.613281 C 72.179688 97.613281 71.347656 96.78125 71.347656 95.777344 C 71.347656 94.738281 72.179688 93.90625 73.21875 93.90625 L 76.714844 93.90625 C 77.753906 93.90625 78.582031 94.738281 78.582031 95.777344 C 78.582031 96.78125 77.753906 97.613281 76.714844 97.613281 Z M 41.679688 97.613281 L 38.152344 97.613281 C 37.148438 97.613281 36.316406 96.78125 36.316406 95.742188 C 36.316406 94.738281 37.148438 93.90625 38.152344 93.90625 L 41.679688 93.90625 C 42.683594 93.90625 43.515625 94.738281 43.515625 95.742188 C 43.515625 96.78125 42.683594 97.613281 41.679688 97.613281 Z M 41.679688 97.613281 "/></g></g></svg>