<svg xmlns="http://www.w3.org/2000/svg" xmlns:xlink="http://www.w3.org/1999/xlink" width="200" zoomAndPan="magnify" viewBox="0 0 150 157.92" height="200" preserveAspectRatio="xMidYMid meet" version="1.2"><defs><clipPath id="d059388edd"><path d="M 0.0390625 123 L 149.960938 123 L 149.960938 132 L 0.0390625 132 Z M 0.0390625 123 "/></clipPath><clipPath id="165f0e2278"><path d="M 0.0390625 136 L 149.960938 136 L 149.960938 149.925781 L 0.0390625 149.925781 Z M 0.0390625 136 "/></clipPath></defs><g id="1a00c34dba"><path style=" stroke:none;fill-rule:nonzero;fill:#ffa800;fill-opacity:1;" d="M 89.050781 117.066406 C 90.09375 118.109375 91.785156 118.109375 92.832031 117.066406 L 128.355469 81.53125 L 128.355469 87.109375 C 128.402344 90.617188 133.648438 90.621094 133.699219 87.109375 C 133.699219 87.109375 133.699219 75.078125 133.699219 75.078125 C 133.722656 73.648438 132.460938 72.378906 131.027344 72.40625 C 131.027344 72.40625 119 72.40625 119 72.40625 C 117.527344 72.40625 116.328125 73.601562 116.328125 75.078125 C 116.328125 76.554688 117.527344 77.753906 119 77.753906 L 124.578125 77.753906 L 90.941406 111.394531 L 52.742188 73.1875 C 50.304688 70.734375 46.476562 74.476562 48.964844 76.96875 C 48.964844 76.96875 89.050781 117.0625 89.050781 117.0625 Z M 89.050781 117.066406 "/><path style=" stroke:none;fill-rule:nonzero;fill:#ffa800;fill-opacity:1;" d="M 56.972656 117.074219 C 58.03125 118.101562 59.710938 118.101562 60.769531 117.074219 C 60.769531 117.074219 71.136719 106.699219 71.136719 106.699219 L 67.34375 102.90625 L 58.871094 111.40625 L 20.683594 73.179688 C 18.207031 70.734375 14.410156 74.464844 16.886719 76.976562 C 16.886719 76.976562 56.972656 117.074219 56.972656 117.074219 Z M 56.972656 117.074219 "/><path style=" stroke:none;fill-rule:nonzero;fill:#ffa800;fill-opacity:1;" d="M 99.625 72.511719 C 99.414062 72.433594 99.199219 72.40625 98.957031 72.40625 L 86.933594 72.40625 C 83.425781 72.464844 83.417969 77.691406 86.933594 77.753906 C 86.933594 77.753906 92.492188 77.753906 92.492188 77.753906 L 78.675781 91.570312 C 78.675781 91.570312 82.46875 95.367188 82.46875 95.367188 L 96.285156 81.546875 L 96.285156 87.109375 C 96.339844 90.617188 101.574219 90.625 101.628906 87.109375 C 101.628906 87.109375 101.628906 75.078125 101.628906 75.078125 C 101.621094 73.902344 100.789062 72.757812 99.625 72.511719 Z M 99.625 72.511719 "/><g clip-rule="nonzero" clip-path="url(#d059388edd)"><path style=" stroke:none;fill-rule:nonzero;fill:#ffa800;fill-opacity:1;" d="M 147.0625 123.195312 L 2.75 123.195312 C 1.28125 123.195312 0.078125 124.398438 0.078125 125.867188 L 0.078125 131.210938 L 149.734375 131.210938 L 149.734375 125.867188 C 149.734375 124.398438 148.53125 123.195312 147.0625 123.195312 Z M 147.0625 123.195312 "/></g><g clip-rule="nonzero" clip-path="url(#165f0e2278)"><path style=" stroke:none;fill-rule:nonzero;fill:#ffa800;fill-opacity:1;" d="M 0.078125 147.25 C 0.078125 148.722656 1.28125 149.925781 2.75 149.925781 L 147.0625 149.925781 C 148.53125 149.925781 149.734375 148.722656 149.734375 147.25 L 149.734375 136.558594 L 0.078125 136.558594 Z M 0.078125 147.25 "/></g><path style=" stroke:none;fill-rule:nonzero;fill:#ffa800;fill-opacity:1;" d="M 74.90625 61.714844 C 87.949219 61.875 99.117188 50.652344 98.957031 37.65625 C 98.957031 25.148438 79.128906 3.523438 76.855469 1.089844 C 75.839844 -0.0078125 73.972656 -0.0078125 72.957031 1.089844 C 72.742188 1.328125 67.449219 7.023438 62.078125 14.265625 C 54.621094 24.292969 50.855469 32.175781 50.855469 37.65625 C 50.855469 50.914062 61.652344 61.714844 74.90625 61.714844 Z M 74.90625 61.714844 "/></g></svg>