<svg xmlns="http://www.w3.org/2000/svg" xmlns:xlink="http://www.w3.org/1999/xlink" width="200" zoomAndPan="magnify" viewBox="0 0 150 157.92" height="200" preserveAspectRatio="xMidYMid meet" version="1.2"><defs><clipPath id="462106375d"><path d="M 40.984375 0 L 109 0 L 109 100 L 40.984375 100 Z M 40.984375 0 "/></clipPath><clipPath id="d5a9b81436"><path d="M 64 104 L 90 104 L 90 149.925781 L 64 149.925781 Z M 64 104 "/></clipPath></defs><g id="3b68f1e966"><g clip-rule="nonzero" clip-path="url(#462106375d)"><path style=" stroke:none;fill-rule:nonzero;fill:#ffa800;fill-opacity:1;" d="M 62.332031 99.59375 L 69.839844 99.59375 L 83.679688 99.476562 C 94.585938 98.539062 103.265625 89.269531 103.265625 77.894531 L 103.265625 21.007812 L 106.667969 21.007812 C 107.488281 21.007812 108.308594 20.539062 108.664062 19.835938 C 109.015625 19.132812 109.015625 18.195312 108.542969 17.488281 L 98.222656 1.070312 C 97.753906 0.367188 97.050781 0.015625 96.230469 0.015625 C 95.410156 0.015625 94.703125 0.367188 94.234375 1.070312 L 83.914062 17.488281 C 83.445312 18.195312 83.445312 19.132812 83.796875 19.835938 C 84.148438 20.539062 84.96875 21.007812 85.789062 21.007812 L 89.191406 21.007812 L 89.191406 77.894531 C 89.191406 81.414062 86.847656 84.460938 83.5625 85.285156 C 83.210938 85.402344 82.859375 85.519531 82.507812 85.519531 L 62.332031 85.519531 C 58.226562 85.519531 54.824219 82.117188 54.824219 77.894531 L 54.824219 66.164062 C 54.824219 61.941406 58.226562 58.542969 62.332031 58.542969 C 66.4375 58.542969 69.839844 61.941406 69.839844 66.164062 L 69.839844 80.828125 L 82.742188 80.828125 C 83.09375 80.828125 83.328125 80.945312 83.679688 81.0625 L 83.679688 66.164062 C 83.679688 54.203125 74.0625 44.464844 62.332031 44.464844 C 50.605469 44.464844 40.984375 54.203125 40.984375 66.164062 L 40.984375 77.894531 C 40.984375 89.859375 50.605469 99.59375 62.332031 99.59375 Z M 62.332031 99.59375 "/></g><g clip-rule="nonzero" clip-path="url(#d5a9b81436)"><path style=" stroke:none;fill-rule:nonzero;fill:#ffa800;fill-opacity:1;" d="M 69.839844 104.285156 L 69.839844 128.914062 L 66.4375 128.914062 C 65.617188 128.914062 64.796875 129.382812 64.445312 130.089844 C 64.09375 130.792969 64.09375 131.730469 64.5625 132.433594 L 74.882812 148.855469 C 75.351562 149.558594 76.054688 149.910156 76.875 149.910156 C 77.699219 149.910156 78.402344 149.558594 78.871094 148.855469 L 89.191406 132.433594 C 89.660156 131.730469 89.660156 130.792969 89.308594 130.089844 C 88.957031 129.382812 88.136719 128.914062 87.316406 128.914062 L 83.914062 128.914062 L 83.914062 104.285156 Z M 69.839844 104.285156 "/></g></g></svg>