<svg xmlns="http://www.w3.org/2000/svg" xmlns:xlink="http://www.w3.org/1999/xlink" width="200" zoomAndPan="magnify" viewBox="0 0 150 157.92" height="200" preserveAspectRatio="xMidYMid meet" version="1.2"><defs><clipPath id="82569820cf"><path d="M 43 116 L 70 116 L 70 149.925781 L 43 149.925781 Z M 43 116 "/></clipPath></defs><g id="c7f34d89b6"><g clip-rule="nonzero" clip-path="url(#82569820cf)"><path style=" stroke:none;fill-rule:nonzero;fill:#ffa800;fill-opacity:1;" d="M 54.855469 117.128906 C 53.683594 118.300781 43.84375 128.605469 43.84375 135.867188 C 43.84375 143.597656 49.464844 149.925781 56.492188 149.925781 C 63.519531 149.925781 69.144531 143.597656 69.144531 135.867188 C 69.144531 128.605469 59.304688 118.300781 58.132812 117.128906 C 57.429688 116.191406 55.789062 116.191406 54.855469 117.128906 Z M 54.855469 117.128906 "/></g><path style=" stroke:none;fill-rule:nonzero;fill:#ffa800;fill-opacity:1;" d="M 43.84375 100.730469 C 45.25 100.730469 46.1875 101.902344 46.1875 103.074219 L 46.1875 104.242188 C 46.1875 107.757812 48.996094 110.804688 52.746094 110.804688 L 58.835938 110.804688 C 62.351562 110.804688 65.394531 107.992188 65.394531 104.242188 L 65.394531 89.015625 C 65.394531 85.269531 62.351562 82.222656 58.601562 82.222656 L 53.449219 82.222656 L 53.449219 74.257812 L 60.007812 74.257812 C 61.414062 74.257812 62.351562 73.320312 62.351562 71.917969 C 62.351562 70.746094 61.414062 69.574219 60.007812 69.574219 L 32.367188 69.574219 C 30.960938 69.574219 30.023438 70.746094 30.023438 71.917969 C 30.023438 73.320312 30.960938 74.257812 32.367188 74.257812 L 38.925781 74.257812 L 38.925781 82.222656 L 20.417969 82.222656 C 19.011719 82.222656 18.074219 83.394531 18.074219 84.566406 L 18.074219 132.824219 C 18.074219 133.996094 19.011719 135.164062 20.417969 135.164062 L 39.394531 135.164062 C 39.394531 133.527344 39.863281 132.121094 40.328125 130.480469 L 22.761719 130.480469 L 22.761719 100.730469 Z M 43.84375 100.730469 "/><path style=" stroke:none;fill-rule:nonzero;fill:#ffa800;fill-opacity:1;" d="M 96.316406 83.628906 L 96.316406 97.683594 C 96.316406 98.855469 95.144531 100.027344 93.976562 100.027344 L 79.917969 100.027344 C 78.515625 100.027344 77.578125 98.855469 77.578125 97.683594 L 77.578125 83.628906 C 77.578125 82.222656 78.515625 81.285156 79.917969 81.285156 L 93.976562 81.285156 C 95.378906 81.285156 96.316406 82.457031 96.316406 83.628906 Z M 96.316406 83.628906 "/><path style=" stroke:none;fill-rule:nonzero;fill:#ffa800;fill-opacity:1;" d="M 96.316406 106.585938 L 96.316406 120.640625 C 96.316406 121.8125 95.144531 122.984375 93.976562 122.984375 L 79.917969 122.984375 C 78.515625 122.984375 77.578125 121.8125 77.578125 120.640625 L 77.578125 106.585938 C 77.578125 105.414062 78.515625 104.242188 79.917969 104.242188 L 93.976562 104.242188 C 95.378906 104.242188 96.316406 105.179688 96.316406 106.585938 Z M 96.316406 106.585938 "/><path style=" stroke:none;fill-rule:nonzero;fill:#ffa800;fill-opacity:1;" d="M 120.914062 106.585938 L 120.914062 120.640625 C 120.914062 121.8125 119.742188 122.984375 118.570312 122.984375 L 104.515625 122.984375 C 103.34375 122.984375 102.171875 121.8125 102.171875 120.640625 L 102.171875 106.585938 C 102.171875 105.414062 103.34375 104.242188 104.515625 104.242188 L 118.570312 104.242188 C 119.742188 104.242188 120.914062 105.179688 120.914062 106.585938 Z M 120.914062 106.585938 "/><path style=" stroke:none;fill-rule:nonzero;fill:#ffa800;fill-opacity:1;" d="M 120.914062 83.628906 L 120.914062 97.683594 C 120.914062 98.855469 119.742188 100.027344 118.570312 100.027344 L 104.515625 100.027344 C 103.34375 100.027344 102.171875 98.855469 102.171875 97.683594 L 102.171875 83.628906 C 102.171875 82.222656 103.34375 81.285156 104.515625 81.285156 L 118.570312 81.285156 C 119.742188 81.285156 120.914062 82.457031 120.914062 83.628906 Z M 120.914062 83.628906 "/><path style=" stroke:none;fill-rule:nonzero;fill:#ffa800;fill-opacity:1;" d="M 136.140625 56.222656 L 119.273438 40.292969 L 119.273438 10.777344 C 119.273438 9.371094 118.335938 8.433594 116.933594 8.433594 L 104.515625 8.433594 C 103.34375 8.433594 102.171875 9.371094 102.171875 10.777344 L 102.171875 24.363281 L 76.640625 0.703125 C 75.703125 0 74.296875 0 73.359375 0.703125 L 13.859375 56.222656 C 13.15625 56.925781 12.921875 57.859375 13.15625 58.796875 C 13.625 59.734375 14.328125 60.203125 15.265625 60.203125 L 127.003906 60.203125 L 127.003906 130.480469 L 73.125 130.480469 C 73.59375 132.121094 74.0625 133.527344 74.0625 135.164062 L 129.582031 135.164062 C 130.988281 135.164062 131.925781 133.996094 131.925781 132.824219 L 131.925781 60.203125 L 134.5 60.203125 C 135.4375 60.203125 136.375 59.5 136.609375 58.796875 C 137.078125 57.859375 136.84375 56.925781 136.140625 56.222656 Z M 75 41.230469 C 68.910156 41.230469 63.988281 36.308594 63.988281 30.21875 C 63.988281 24.128906 68.910156 19.210938 75 19.210938 C 81.089844 19.210938 86.011719 24.128906 86.011719 30.21875 C 86.011719 36.308594 81.089844 41.230469 75 41.230469 Z M 75 41.230469 "/></g></svg>