<svg xmlns="http://www.w3.org/2000/svg" xmlns:xlink="http://www.w3.org/1999/xlink" width="1080" zoomAndPan="magnify" viewBox="0 0 810 809.999993" height="1080" preserveAspectRatio="xMidYMid meet" version="1.2"><defs><clipPath id="db0c7a846a"><path d="M 392 269 L 567 269 L 567 553.363281 L 392 553.363281 Z M 392 269 "/></clipPath></defs><g id="d53303325c"><g clip-rule="nonzero" clip-path="url(#db0c7a846a)"><path style=" stroke:none;fill-rule:nonzero;fill:#154371;fill-opacity:1;" d="M 518.433594 459.058594 C 521.535156 453.617188 524.257812 447.863281 526.515625 441.9375 C 528.964844 435.5 530.886719 428.824219 532.207031 422.105469 L 533.242188 416.859375 L 566.847656 415.648438 L 565.195312 369.78125 L 531.589844 370.988281 L 530.183594 365.828125 C 528.382812 359.214844 525.984375 352.707031 523.074219 346.449219 C 520.398438 340.703125 517.269531 335.160156 513.785156 329.964844 L 510.804688 325.515625 L 533.710938 300.902344 L 500.113281 269.644531 L 477.214844 294.253906 L 472.566406 291.605469 C 472.121094 291.351562 471.679688 291.101562 471.238281 290.855469 C 466.1875 288.058594 460.886719 285.597656 455.453125 283.523438 C 450.25 281.539062 444.886719 279.90625 439.480469 278.65625 L 439.265625 313.546875 C 439.8125 313.730469 440.367188 313.914062 440.90625 314.101562 C 442.246094 314.5625 443.574219 315.058594 444.863281 315.582031 C 454.523438 319.457031 463.335938 324.941406 470.976562 331.734375 C 479.605469 339.410156 486.722656 348.75 491.875 359.335938 C 492.476562 360.554688 493.066406 361.847656 493.632812 363.160156 C 497.976562 373.25 500.382812 383.980469 500.785156 395.0625 C 501.175781 406.132812 499.550781 417.023438 495.933594 427.40625 C 495.472656 428.746094 494.980469 430.074219 494.457031 431.351562 C 486.203125 451.941406 470.664062 468.644531 450.703125 478.367188 C 449.492188 478.96875 448.191406 479.558594 446.878906 480.125 C 441.0625 482.625 435.042969 484.484375 428.855469 485.683594 C 425.714844 486.300781 422.535156 486.746094 419.3125 487.015625 C 417.878906 487.136719 392.355469 487.980469 392.355469 487.980469 L 394.710938 553.320312 L 440.253906 551.6875 L 439.046875 518.089844 L 444.210938 516.683594 C 450.824219 514.875 457.347656 512.476562 463.589844 509.566406 C 465.632812 508.617188 467.648438 507.601562 469.636719 506.542969 C 473.234375 504.621094 476.730469 502.527344 480.074219 500.277344 L 484.523438 497.296875 L 509.136719 520.203125 L 540.394531 486.605469 L 515.78125 463.707031 L 518.433594 459.058594 "/></g><path style=" stroke:none;fill-rule:nonzero;fill:#154371;fill-opacity:1;" d="M 354.265625 282.757812 C 356.167969 289.117188 360.714844 292.109375 366.988281 292.152344 C 369.414062 292.167969 371.785156 290.875 373.714844 288.972656 C 375.363281 287.335938 376.113281 285.503906 376.191406 283.410156 C 376.21875 282.671875 377.070312 282.234375 377.667969 282.660156 C 378.015625 282.914062 378.15625 283.367188 378.078125 283.984375 C 377.867188 285.667969 377.433594 287.136719 376.574219 288.910156 C 376.105469 289.890625 375.355469 290.8125 374.164062 291.671875 C 376.417969 293.890625 379.066406 294.5 381.996094 294.820312 C 385.117188 295.175781 387.390625 293.65625 389.722656 292.109375 C 391.363281 293.949219 392.761719 295.089844 394.117188 295.617188 L 401.976562 289.597656 C 401.957031 289.207031 401.914062 288.804688 401.828125 288.40625 C 401.15625 285.269531 398.90625 283.773438 394.207031 283.433594 C 394.1875 280.507812 393.816406 277.671875 391.78125 275.273438 C 389.703125 272.832031 387.269531 271.035156 384.046875 270.652344 C 382.742188 270.503906 382.300781 270.007812 381.976562 268.785156 C 379.960938 261.101562 372.382812 256.320312 364.71875 257.78125 C 360.496094 258.582031 357.742188 261.457031 357.148438 265.734375 C 357.027344 266.59375 356.863281 267.429688 355.769531 267.269531 C 354.734375 267.125 354.527344 266.226562 354.726562 265.410156 C 355.160156 263.640625 355.5 261.8125 356.59375 260.292969 C 352.621094 257.675781 347.183594 258.199219 343.089844 261.507812 C 339.300781 264.585938 337.726562 270.566406 339.535156 275.039062 C 341.890625 280.890625 346.339844 283.261719 354.265625 282.757812 "/><path style=" stroke:none;fill-rule:nonzero;fill:#154371;fill-opacity:1;" d="M 257.8125 344.554688 C 257.820312 346.273438 257.820312 348.003906 257.828125 349.726562 L 299.933594 349.726562 C 299.925781 347.890625 299.914062 346.152344 299.90625 344.554688 L 257.8125 344.554688 "/><path style=" stroke:none;fill-rule:nonzero;fill:#154371;fill-opacity:1;" d="M 300.011719 359.570312 C 299.992188 357.808594 299.976562 356.070312 299.96875 354.390625 L 257.835938 354.390625 C 257.847656 356.121094 257.847656 357.839844 257.855469 359.570312 L 300.011719 359.570312 "/><path style=" stroke:none;fill-rule:nonzero;fill:#154371;fill-opacity:1;" d="M 323.980469 432.890625 L 336.128906 432.890625 L 336.128906 447.613281 C 336.128906 448.65625 335.285156 449.5 334.242188 449.5 L 325.863281 449.5 C 324.8125 449.5 323.980469 448.65625 323.980469 447.613281 Z M 323.980469 409.261719 C 323.980469 408.21875 324.8125 407.375 325.863281 407.375 L 334.242188 407.375 C 335.285156 407.375 336.128906 408.21875 336.128906 409.261719 L 336.128906 423.984375 L 323.980469 423.984375 Z M 351.519531 432.890625 L 363.667969 432.890625 L 363.667969 447.613281 C 363.667969 448.65625 362.824219 449.5 361.78125 449.5 L 353.40625 449.5 C 352.363281 449.5 351.519531 448.65625 351.519531 447.613281 Z M 351.519531 409.261719 C 351.519531 408.21875 352.363281 407.375 353.40625 407.375 L 361.78125 407.375 C 362.824219 407.375 363.667969 408.21875 363.667969 409.261719 L 363.667969 423.984375 L 351.519531 423.984375 Z M 379.058594 432.890625 L 391.214844 432.890625 L 391.214844 447.613281 C 391.214844 448.65625 390.375 449.5 389.320312 449.5 L 380.953125 449.5 C 379.902344 449.5 379.058594 448.65625 379.058594 447.613281 Z M 379.058594 409.261719 C 379.058594 408.21875 379.902344 407.375 380.953125 407.375 L 389.320312 407.375 C 390.375 407.375 391.214844 408.21875 391.214844 409.261719 L 391.214844 423.984375 L 379.058594 423.984375 Z M 406.605469 432.890625 L 418.753906 432.890625 L 418.753906 447.613281 C 418.753906 448.65625 417.914062 449.5 416.871094 449.5 L 408.492188 449.5 C 407.449219 449.5 406.605469 448.65625 406.605469 447.613281 Z M 406.605469 409.261719 C 406.605469 408.21875 407.449219 407.375 408.492188 407.375 L 416.871094 407.375 C 417.914062 407.375 418.753906 408.21875 418.753906 409.261719 L 418.753906 423.984375 L 406.605469 423.984375 Z M 412.238281 379.585938 L 431.339844 379.585938 L 431.339844 384.425781 L 412.238281 384.425781 C 411.570312 384.425781 410.96875 384.148438 410.527344 383.710938 C 410.089844 383.277344 409.820312 382.671875 409.820312 382 C 409.820312 380.664062 410.898438 379.585938 412.238281 379.585938 Z M 419.40625 370.574219 L 431.339844 370.574219 L 431.339844 375.414062 L 419.40625 375.414062 C 418.746094 375.414062 418.140625 375.144531 417.703125 374.699219 C 417.261719 374.265625 416.992188 373.667969 416.992188 372.996094 C 416.992188 371.660156 418.078125 370.574219 419.40625 370.574219 Z M 424.414062 361.570312 L 431.339844 361.570312 L 431.339844 366.410156 L 424.414062 366.410156 C 423.742188 366.410156 423.144531 366.132812 422.710938 365.699219 C 422.265625 365.261719 421.996094 364.65625 421.996094 363.984375 C 421.996094 362.648438 423.082031 361.570312 424.414062 361.570312 Z M 434.546875 465.488281 L 434.546875 337.332031 C 430.53125 339.070312 426.792969 340.695312 422.71875 342.460938 C 421.648438 326.972656 420.554688 311.808594 419.574219 296.617188 C 419.539062 296.078125 419.511719 295.59375 419.476562 295.140625 C 419.121094 290.144531 418.667969 290.074219 412.828125 290.066406 C 411.925781 290.066406 411.011719 290.074219 410.101562 290.082031 L 393.484375 302.832031 C 393.300781 306.769531 393.128906 311.078125 392.9375 315.492188 C 392.839844 317.988281 392.746094 320.515625 392.640625 323.027344 L 392.640625 323.125 L 391.207031 349.429688 L 391.199219 349.5 L 390.789062 357.015625 L 389.738281 357.484375 L 388.722656 357.953125 L 388.703125 357.964844 C 386.191406 359.03125 383.011719 360.5 379.875 361.988281 L 379.746094 362.046875 L 371.96875 365.59375 L 371.96875 336.699219 C 355.621094 344.199219 339.71875 351.496094 323.527344 358.929688 L 323.511719 358.894531 L 319.789062 360.648438 C 319.183594 360.925781 318.574219 361.203125 317.964844 361.484375 L 317.964844 345.242188 C 317.964844 333.371094 318 321.480469 317.957031 309.609375 C 317.921875 302.945312 314.375 299.46875 307.675781 299.433594 C 300.253906 299.40625 292.824219 299.390625 285.410156 299.441406 C 279.109375 299.484375 275.425781 303.214844 275.375 309.507812 C 275.347656 312.183594 275.367188 314.859375 275.367188 317.414062 C 262.6875 322.105469 258.359375 327.46875 257.855469 339.878906 L 299.804688 339.878906 C 299.074219 327.269531 294.09375 321.480469 281.144531 317.433594 C 281.144531 314.964844 281.257812 312.660156 281.136719 310.382812 C 280.910156 306.570312 282.5625 305.039062 286.402344 305.136719 C 293.414062 305.328125 300.445312 305.292969 307.460938 305.144531 C 311.101562 305.074219 312.65625 306.621094 312.648438 310.175781 C 312.613281 327.320312 312.636719 364.027344 312.636719 364.027344 L 309.988281 365.28125 C 309.050781 366.054688 308.875 367.21875 308.859375 368.503906 C 308.847656 368.800781 308.847656 369.09375 308.847656 369.398438 C 308.910156 381.125 308.875 392.847656 308.875 404.761719 L 300.332031 404.761719 C 300.4375 403.753906 300.210938 383.042969 300.046875 364.238281 L 257.871094 364.238281 C 257.90625 376.214844 257.960938 388.195312 257.992188 400.171875 L 257.992188 404.863281 L 243.082031 404.863281 L 243.082031 465.480469 L 269.699219 465.480469 L 269.699219 436.046875 C 269.699219 432.25 271.246094 428.808594 273.730469 426.320312 C 276.226562 423.828125 279.667969 422.289062 283.464844 422.289062 C 291.058594 422.289062 297.222656 428.449219 297.222656 436.046875 L 297.222656 465.488281 L 434.546875 465.488281 "/><path style=" stroke:none;fill-rule:nonzero;fill:#154371;fill-opacity:1;" d="M 325.152344 314.527344 L 361.375 314.527344 C 361.921875 314.527344 362.363281 314.085938 362.363281 313.539062 L 362.363281 311.347656 C 362.363281 310.800781 361.921875 310.359375 361.375 310.359375 L 325.152344 310.359375 C 324.605469 310.359375 324.160156 310.800781 324.160156 311.347656 L 324.160156 313.539062 C 324.160156 314.085938 324.605469 314.527344 325.152344 314.527344 "/><path style=" stroke:none;fill-rule:nonzero;fill:#154371;fill-opacity:1;" d="M 330.757812 332.328125 C 330.757812 331.988281 331.027344 331.710938 331.367188 331.710938 L 339.8125 331.710938 C 340.152344 331.710938 340.429688 331.988281 340.429688 332.328125 L 340.429688 338.269531 C 340.429688 338.609375 340.152344 338.878906 339.8125 338.878906 L 331.367188 338.878906 C 331.027344 338.878906 330.757812 338.609375 330.757812 338.269531 Z M 330.757812 321.316406 C 330.757812 320.976562 331.027344 320.699219 331.367188 320.699219 L 339.8125 320.699219 C 340.152344 320.699219 340.429688 320.976562 340.429688 321.316406 L 340.429688 327.261719 C 340.429688 327.597656 340.152344 327.878906 339.8125 327.878906 L 331.367188 327.878906 C 331.027344 327.878906 330.757812 327.597656 330.757812 327.261719 Z M 346.097656 332.328125 C 346.097656 331.988281 346.375 331.710938 346.714844 331.710938 L 355.160156 331.710938 C 355.5 331.710938 355.777344 331.988281 355.777344 332.328125 L 355.777344 338.269531 C 355.777344 338.609375 355.5 338.878906 355.160156 338.878906 L 346.714844 338.878906 C 346.375 338.878906 346.097656 338.609375 346.097656 338.269531 Z M 346.097656 321.316406 C 346.097656 320.976562 346.375 320.699219 346.714844 320.699219 L 355.160156 320.699219 C 355.5 320.699219 355.777344 320.976562 355.777344 321.316406 L 355.777344 327.261719 C 355.777344 327.597656 355.5 327.878906 355.160156 327.878906 L 346.714844 327.878906 C 346.375 327.878906 346.097656 327.597656 346.097656 327.261719 Z M 352.335938 341.851562 C 354.066406 341.0625 356.714844 339.84375 359.609375 338.515625 L 359.609375 316.363281 L 326.917969 316.363281 L 326.917969 353.523438 C 335.414062 349.613281 343.855469 345.746094 352.335938 341.851562 "/></g></svg>