<svg xmlns="http://www.w3.org/2000/svg" xmlns:xlink="http://www.w3.org/1999/xlink" width="1080" zoomAndPan="magnify" viewBox="0 0 810 809.999993" height="1080" preserveAspectRatio="xMidYMid meet" version="1.2"><defs><clipPath id="980f315cc2"><path d="M 243 410 L 456 410 L 456 488.800781 L 243 488.800781 Z M 243 410 "/></clipPath><clipPath id="4321ee0623"><path d="M 456.546875 410 L 487 410 L 487 488.800781 L 456.546875 488.800781 Z M 456.546875 410 "/></clipPath></defs><g id="7c5de46792"><g clip-rule="nonzero" clip-path="url(#980f315cc2)"><path style=" stroke:none;fill-rule:nonzero;fill:#154371;fill-opacity:1;" d="M 257.84375 410.503906 C 247.054688 410.503906 243 438.835938 243 449.652344 L 243 454.371094 C 244.351562 474.621094 251.773438 488.800781 257.84375 488.800781 L 455.625 488.800781 C 449.554688 480.027344 446.191406 465.847656 446.191406 449.652344 C 446.191406 433.429688 449.554688 419.277344 455.625 410.503906 L 257.84375 410.503906 "/></g><g clip-rule="nonzero" clip-path="url(#4321ee0623)"><path style=" stroke:none;fill-rule:nonzero;fill:#154371;fill-opacity:1;" d="M 471.820312 410.503906 C 465.75 410.503906 456.976562 426.007812 456.976562 449.652344 C 456.976562 473.269531 465.75 488.800781 471.820312 488.800781 C 477.917969 488.800781 486.691406 473.269531 486.691406 449.652344 C 486.691406 426.007812 477.917969 410.503906 471.820312 410.503906 "/></g><path style=" stroke:none;fill-rule:nonzero;fill:#154371;fill-opacity:1;" d="M 290.921875 399.691406 L 488.703125 399.691406 C 482.632812 390.917969 479.269531 376.734375 479.269531 360.542969 C 479.269531 344.347656 482.632812 330.167969 488.703125 321.394531 L 290.921875 321.394531 C 280.796875 321.394531 276.078125 347.050781 276.078125 360.542969 L 276.078125 365.257812 C 276.742188 385.507812 284.191406 399.691406 290.921875 399.691406 "/><path style=" stroke:none;fill-rule:nonzero;fill:#154371;fill-opacity:1;" d="M 504.207031 399.691406 C 510.304688 399.691406 519.078125 384.15625 519.078125 360.542969 C 519.078125 336.925781 510.304688 321.394531 504.207031 321.394531 C 498.167969 321.394531 489.367188 336.925781 489.367188 360.542969 C 489.367188 384.15625 498.167969 399.691406 504.207031 399.691406 "/><path style=" stroke:none;fill-rule:nonzero;fill:#154371;fill-opacity:1;" d="M 528.542969 378.085938 C 525.148438 396.984375 516.375 409.816406 505.558594 410.503906 L 488.042969 410.503906 C 494.082031 419.277344 497.476562 433.429688 497.476562 449.652344 L 497.476562 456.382812 L 537.316406 456.382812 C 531.21875 447.609375 527.851562 433.457031 527.851562 417.234375 C 527.851562 401.042969 531.21875 386.859375 537.316406 378.085938 L 528.542969 378.085938 "/><path style=" stroke:none;fill-rule:nonzero;fill:#154371;fill-opacity:1;" d="M 552.15625 378.085938 C 546.058594 378.085938 537.316406 393.621094 537.316406 417.234375 C 537.316406 441.542969 546.058594 456.382812 552.15625 456.382812 C 558.226562 456.382812 567 440.878906 567 417.234375 C 567 392.929688 558.226562 378.085938 552.15625 378.085938 "/></g></svg>