<svg xmlns="http://www.w3.org/2000/svg" xmlns:xlink="http://www.w3.org/1999/xlink" width="1080" zoomAndPan="magnify" viewBox="0 0 810 809.999993" height="1080" preserveAspectRatio="xMidYMid meet" version="1.2"><defs><clipPath id="3f70ca33d4"><path d="M 350 243 L 536 243 L 536 350 L 350 350 Z M 350 243 "/></clipPath></defs><g id="6c981f655a"><path style=" stroke:none;fill-rule:nonzero;fill:#154371;fill-opacity:1;" d="M 463.171875 359.621094 L 332.511719 284.179688 L 274.335938 317.769531 L 405 393.207031 Z M 463.171875 359.621094 "/><path style=" stroke:none;fill-rule:nonzero;fill:#154371;fill-opacity:1;" d="M 262.582031 489.003906 L 396.097656 566.089844 L 396.097656 408.625 L 262.582031 331.539062 Z M 262.582031 489.003906 "/><g clip-rule="nonzero" clip-path="url(#3f70ca33d4)"><path style=" stroke:none;fill-rule:nonzero;fill:#154371;fill-opacity:1;" d="M 535.664062 317.769531 L 405 242.332031 L 350.316406 273.902344 L 480.660156 349.15625 L 480.339844 349.710938 Z M 535.664062 317.769531 "/></g><path style=" stroke:none;fill-rule:nonzero;fill:#154371;fill-opacity:1;" d="M 413.898438 566.089844 L 547.417969 489.003906 L 547.417969 331.539062 L 413.898438 408.625 Z M 458.40625 460.1875 L 511.8125 429.351562 L 511.8125 464.953125 L 458.40625 495.792969 Z M 458.40625 460.1875 "/></g></svg>