<svg xmlns="http://www.w3.org/2000/svg" xmlns:xlink="http://www.w3.org/1999/xlink" width="1080" zoomAndPan="magnify" viewBox="0 0 810 809.999993" height="1080" preserveAspectRatio="xMidYMid meet" version="1.2"><g id="75cb7c7b05"><path style=" stroke:none;fill-rule:nonzero;fill:#154371;fill-opacity:1;" d="M 435.535156 402.5625 C 430.847656 402.5625 427.050781 398.769531 427.050781 394.082031 L 427.050781 362.324219 C 427.050781 357.636719 430.847656 353.84375 435.535156 353.84375 C 440.222656 353.84375 444.015625 357.636719 444.015625 362.324219 L 444.015625 394.082031 C 444.015625 398.769531 440.222656 402.5625 435.535156 402.5625 Z M 435.535156 402.5625 "/><path style=" stroke:none;fill-rule:nonzero;fill:#154371;fill-opacity:1;" d="M 406.027344 345.039062 C 377.535156 345.039062 355.671875 337.605469 340.964844 322.898438 C 325.390625 307.324219 317.964844 283.71875 318.894531 252.726562 C 319.03125 248.246094 322.625 244.640625 327.109375 244.503906 C 358.128906 243.519531 381.777344 250.933594 397.355469 266.503906 C 412.933594 282.078125 420.328125 305.714844 419.355469 336.75 C 419.222656 341.230469 415.613281 344.832031 411.136719 344.964844 C 409.410156 345.019531 407.707031 345.046875 406.035156 345.046875 Z M 335.824219 261.417969 C 336.378906 283.445312 342.128906 300.066406 352.957031 310.898438 C 363.785156 321.734375 380.410156 327.476562 402.433594 328.03125 C 401.914062 305.96875 396.183594 289.328125 385.351562 278.5 C 374.523438 267.671875 357.886719 261.9375 335.824219 261.417969 Z M 335.824219 261.417969 "/><path style=" stroke:none;fill-rule:nonzero;fill:#154371;fill-opacity:1;" d="M 435.535156 370.808594 C 433.296875 370.808594 431.0625 369.925781 429.398438 368.183594 L 376.949219 313.21875 C 373.714844 309.824219 373.839844 304.457031 377.226562 301.222656 C 380.613281 297.988281 385.992188 298.113281 389.21875 301.5 L 441.667969 356.46875 C 444.902344 359.859375 444.78125 365.226562 441.390625 368.460938 C 439.746094 370.027344 437.636719 370.808594 435.535156 370.808594 Z M 435.535156 370.808594 "/><path style=" stroke:none;fill-rule:nonzero;fill:#154371;fill-opacity:1;" d="M 465.039062 345.039062 C 463.359375 345.039062 461.65625 345.011719 459.933594 344.960938 C 455.457031 344.824219 451.847656 341.230469 451.710938 336.746094 C 450.738281 305.707031 458.140625 282.078125 473.714844 266.5 C 489.285156 250.925781 512.871094 243.480469 543.957031 244.5 C 548.4375 244.632812 552.039062 248.242188 552.175781 252.71875 C 553.101562 283.707031 545.675781 307.320312 530.105469 322.890625 C 515.398438 337.597656 493.527344 345.039062 465.039062 345.039062 Z M 535.246094 261.417969 C 513.179688 261.9375 496.546875 267.664062 485.710938 278.5 C 474.878906 289.328125 469.148438 305.96875 468.628906 328.03125 C 490.660156 327.476562 507.277344 321.734375 518.113281 310.898438 C 528.941406 300.066406 534.691406 283.445312 535.246094 261.417969 Z M 535.246094 261.417969 "/><path style=" stroke:none;fill-rule:nonzero;fill:#154371;fill-opacity:1;" d="M 435.535156 370.808594 C 433.425781 370.808594 431.320312 370.027344 429.675781 368.460938 C 426.289062 365.226562 426.160156 359.859375 429.398438 356.46875 L 481.851562 301.5 C 485.085938 298.109375 490.449219 297.988281 493.84375 301.222656 C 497.230469 304.457031 497.359375 309.824219 494.121094 313.21875 L 441.667969 368.183594 C 440.007812 369.929688 437.773438 370.808594 435.535156 370.808594 Z M 435.535156 370.808594 "/><path style=" stroke:none;fill-rule:nonzero;fill:#154371;fill-opacity:1;" d="M 538.496094 448.175781 C 525.050781 411.332031 481.058594 385.605469 431.519531 385.605469 C 390.421875 385.605469 352.882812 403 333.554688 431 C 331.683594 433.707031 331.554688 437.246094 333.203125 440.089844 C 334.863281 442.929688 338.003906 444.546875 341.289062 444.265625 C 350.28125 443.457031 359.074219 444.722656 367.464844 448.011719 L 410.664062 464.921875 C 411.648438 465.304688 412.699219 465.503906 413.757812 465.503906 L 453 465.503906 C 456.980469 465.503906 460.496094 468.59375 460.519531 472.0625 L 460.519531 472.371094 C 460.507812 472.480469 460.496094 472.582031 460.492188 472.683594 C 460.378906 474.089844 459.71875 475.523438 458.683594 476.613281 C 455.855469 479.578125 455.550781 484.132812 457.953125 487.449219 C 459.59375 489.710938 462.175781 490.953125 464.824219 490.953125 C 466.054688 490.953125 467.300781 490.6875 468.476562 490.128906 L 534.179688 458.746094 C 538.121094 456.863281 539.992188 452.28125 538.496094 448.175781 Z M 538.496094 448.175781 "/><path style=" stroke:none;fill-rule:nonzero;fill:#154371;fill-opacity:1;" d="M 464.824219 490.949219 C 462.71875 490.949219 460.613281 490.167969 458.972656 488.601562 C 455.578125 485.371094 455.453125 480 458.6875 476.609375 C 459.730469 475.523438 460.386719 474.085938 460.5 472.679688 C 460.503906 472.570312 460.515625 472.46875 460.527344 472.367188 L 460.527344 472.167969 C 460.503906 468.589844 456.988281 465.496094 453.007812 465.496094 L 413.765625 465.496094 C 412.707031 465.496094 411.65625 465.300781 410.671875 464.914062 L 367.472656 448.007812 C 359.082031 444.71875 350.289062 443.449219 341.296875 444.257812 C 336.636719 444.632812 332.511719 441.234375 332.089844 436.570312 C 331.671875 431.90625 335.117188 427.78125 339.78125 427.363281 C 351.414062 426.339844 362.796875 427.957031 373.65625 432.210938 L 415.363281 448.535156 L 453.007812 448.535156 C 466.417969 448.535156 477.398438 459.058594 477.488281 471.996094 L 477.488281 472.957031 C 477.488281 473.386719 477.449219 473.855469 477.375 474.335938 C 476.890625 479.519531 474.617188 484.472656 470.960938 488.3125 C 469.296875 490.058594 467.058594 490.949219 464.824219 490.949219 Z M 464.824219 490.949219 "/><path style=" stroke:none;fill-rule:nonzero;fill:#154371;fill-opacity:1;" d="M 453.96875 495.582031 L 413.765625 495.582031 C 409.078125 495.582031 405.28125 491.789062 405.28125 487.101562 C 405.28125 482.414062 409.078125 478.621094 413.765625 478.621094 L 453.96875 478.621094 C 455.765625 478.621094 457.449219 477.902344 458.707031 476.589844 C 461.957031 473.210938 467.328125 473.105469 470.699219 476.351562 C 474.078125 479.597656 474.1875 484.964844 470.9375 488.347656 C 466.453125 493.015625 460.425781 495.589844 453.96875 495.589844 Z M 453.96875 495.582031 "/><path style=" stroke:none;fill-rule:nonzero;fill:#154371;fill-opacity:1;" d="M 288.078125 467.3125 C 285.136719 467.3125 282.28125 465.777344 280.707031 463.046875 C 278.378906 458.984375 279.78125 453.796875 283.847656 451.46875 L 309.179688 436.9375 C 313.238281 434.605469 318.425781 436.007812 320.757812 440.074219 C 323.089844 444.140625 321.6875 449.324219 317.621094 451.65625 L 292.289062 466.1875 C 290.960938 466.949219 289.507812 467.3125 288.078125 467.3125 Z M 288.078125 467.3125 "/><path style=" stroke:none;fill-rule:nonzero;fill:#154371;fill-opacity:1;" d="M 461.769531 537.597656 L 395.046875 537.597656 C 389.015625 537.597656 383.035156 536.085938 377.773438 533.238281 L 353.90625 520.285156 C 348.460938 517.34375 341.855469 517.203125 336.246094 519.90625 L 325.253906 525.167969 C 321.03125 527.203125 315.96875 525.40625 313.945312 521.183594 C 311.921875 516.957031 313.707031 511.890625 317.929688 509.875 L 328.902344 504.613281 C 339.363281 499.558594 351.738281 499.84375 361.980469 505.363281 L 385.859375 518.320312 C 388.6875 519.855469 391.777344 520.632812 395.046875 520.632812 L 461.769531 520.632812 C 465.660156 520.632812 469.425781 519.484375 472.648438 517.320312 L 545.964844 467.804688 C 547.542969 466.742188 548.554688 465.148438 548.832031 463.285156 C 549.113281 461.402344 548.605469 459.550781 547.40625 458.066406 C 545.558594 455.789062 542.175781 455.03125 539.652344 456.128906 L 534.167969 458.742188 C 529.941406 460.746094 524.875 458.957031 522.867188 454.71875 C 520.859375 450.492188 522.65625 445.429688 526.886719 443.417969 L 532.597656 440.703125 C 542.679688 436.257812 553.992188 439.265625 560.574219 447.371094 C 564.757812 452.527344 566.589844 459.242188 565.613281 465.796875 C 564.636719 472.328125 560.925781 478.1875 555.445312 481.867188 L 482.125 531.390625 C 476.074219 535.453125 469.042969 537.597656 461.769531 537.597656 Z M 461.769531 537.597656 "/><path style=" stroke:none;fill-rule:nonzero;fill:#154371;fill-opacity:1;" d="M 296.398438 566.71875 C 295.691406 566.71875 294.980469 566.625 294.28125 566.453125 C 291.949219 565.851562 289.988281 564.285156 288.875 562.152344 L 244.519531 476.9375 C 242.796875 473.628906 243.441406 469.585938 246.097656 466.972656 L 274.359375 439.199219 C 276.238281 437.355469 278.84375 436.488281 281.464844 436.847656 C 284.074219 437.207031 286.363281 438.757812 287.667969 441.042969 L 338.910156 530.714844 C 341.125 534.59375 339.957031 539.523438 336.234375 541.992188 L 301.085938 565.308594 C 299.683594 566.242188 298.050781 566.71875 296.398438 566.71875 Z M 262.46875 474.667969 L 299.570312 545.953125 L 320.25 532.238281 L 278.402344 459.003906 Z M 262.46875 474.667969 "/><path style=" stroke:none;fill-rule:nonzero;fill:#154371;fill-opacity:1;" d="M 464.828125 490.953125 C 461.664062 490.953125 458.625 489.171875 457.171875 486.125 C 455.15625 481.894531 456.941406 476.832031 461.171875 474.816406 L 526.875 443.433594 C 531.105469 441.414062 536.167969 443.199219 538.183594 447.429688 C 540.203125 451.660156 538.417969 456.71875 534.1875 458.738281 L 468.484375 490.121094 C 467.304688 490.6875 466.058594 490.953125 464.828125 490.953125 Z M 464.828125 490.953125 "/></g></svg>