<svg xmlns="http://www.w3.org/2000/svg" xmlns:xlink="http://www.w3.org/1999/xlink" width="1080" zoomAndPan="magnify" viewBox="0 0 810 809.999993" height="1080" preserveAspectRatio="xMidYMid meet" version="1.2"><defs><clipPath id="cbfc1ef5da"><path d="M 280.058594 243 L 529.808594 243 L 529.808594 567 L 280.058594 567 Z M 280.058594 243 "/></clipPath></defs><g id="3214420944"><g clip-rule="nonzero" clip-path="url(#cbfc1ef5da)"><path style=" stroke:none;fill-rule:evenodd;fill:#154371;fill-opacity:1;" d="M 432.984375 422.441406 C 426.875 425.269531 422.292969 430.765625 420.671875 437.726562 C 420.667969 437.746094 418.621094 446.457031 418.621094 446.457031 C 418.621094 446.464844 418.617188 446.472656 418.617188 446.480469 C 418.554688 446.738281 418.441406 446.941406 418.246094 447.125 C 418.238281 447.128906 418.234375 447.136719 418.226562 447.140625 L 411.675781 453.285156 C 404.28125 460.226562 402.417969 470.828125 407.007812 479.867188 C 407.015625 479.886719 411.035156 487.835938 411.035156 487.835938 C 411.160156 488.085938 411.214844 488.332031 411.183594 488.613281 C 411.179688 488.625 411.179688 488.636719 411.179688 488.644531 L 410.109375 497.566406 L 410.109375 497.578125 C 409.6875 501.164062 410.097656 504.652344 411.222656 507.839844 C 367.523438 507.839844 322.203125 507.835938 309.113281 507.832031 C 308.160156 507.832031 307.253906 507.421875 306.628906 506.703125 C 306 505.984375 305.714844 505.027344 305.847656 504.085938 C 312.90625 455.660156 354.585938 418.464844 404.953125 418.464844 C 414.683594 418.464844 424.089844 419.851562 432.984375 422.441406 Z M 404.953125 411.855469 C 377.066406 411.855469 354.335938 389.097656 354.335938 361.210938 C 354.335938 333.324219 377.066406 310.566406 404.953125 310.566406 C 432.867188 310.566406 455.597656 333.324219 455.597656 361.210938 C 455.597656 389.097656 432.867188 411.855469 404.953125 411.855469 Z M 509.382812 527.398438 L 521.519531 553.480469 C 521.703125 553.859375 521.65625 554.261719 521.402344 554.578125 C 521.160156 554.910156 520.785156 555.058594 520.378906 554.984375 L 504.28125 552.175781 L 496.054688 566.308594 C 495.859375 566.652344 495.496094 566.847656 495.09375 566.832031 C 494.6875 566.816406 494.355469 566.589844 494.175781 566.214844 L 483.03125 542.28125 C 492 544.023438 500.949219 540.296875 506.0625 532.476562 Z M 460.40625 542.28125 L 449.261719 566.214844 C 449.097656 566.589844 448.75 566.816406 448.347656 566.832031 C 447.941406 566.847656 447.578125 566.652344 447.386719 566.308594 L 439.171875 552.175781 L 423.058594 554.984375 C 422.652344 555.058594 422.277344 554.910156 422.039062 554.578125 C 421.78125 554.261719 421.738281 553.859375 421.917969 553.480469 L 434.054688 527.398438 C 435.492188 529.589844 437.378906 532.480469 437.378906 532.480469 C 442.488281 540.296875 451.4375 544.023438 460.40625 542.28125 Z M 478.875 422.6875 L 486.066406 428.078125 C 488.035156 429.550781 490.09375 430.300781 492.554688 430.4375 L 501.519531 430.933594 C 506.878906 431.230469 511.25 434.894531 512.464844 440.121094 L 514.523438 448.875 C 515.078125 451.265625 516.175781 453.171875 517.976562 454.851562 L 524.523438 460.996094 C 528.445312 464.675781 529.433594 470.289062 527.003906 475.082031 L 522.949219 483.097656 C 521.851562 485.292969 521.460938 487.453125 521.761719 489.902344 L 522.828125 498.820312 C 523.457031 504.152344 520.621094 509.09375 515.664062 511.210938 L 507.421875 514.738281 C 505.152344 515.699219 503.472656 517.125 502.121094 519.183594 L 497.210938 526.691406 C 494.265625 531.195312 488.921875 533.132812 483.769531 531.585938 L 475.164062 528.988281 C 472.824219 528.269531 470.617188 528.269531 468.273438 528.988281 L 459.667969 531.585938 C 454.519531 533.132812 449.171875 531.195312 446.230469 526.691406 L 441.320312 519.183594 C 439.96875 517.125 438.285156 515.699219 436.019531 514.738281 L 427.773438 511.210938 C 422.832031 509.09375 419.980469 504.152344 420.609375 498.820312 L 421.675781 489.902344 C 421.976562 487.453125 421.585938 485.292969 420.492188 483.097656 L 416.4375 475.082031 C 414.003906 470.289062 414.996094 464.675781 418.914062 460.996094 L 425.460938 454.851562 C 427.261719 453.171875 428.359375 451.265625 428.914062 448.875 L 430.972656 440.121094 C 432.1875 434.894531 436.558594 431.230469 441.917969 430.933594 L 450.882812 430.4375 C 453.347656 430.300781 455.417969 429.550781 457.371094 428.078125 L 464.5625 422.6875 C 468.875 419.472656 474.566406 419.472656 478.875 422.6875 Z M 471.726562 509.011719 C 489.785156 509.011719 504.53125 494.265625 504.53125 476.191406 C 504.53125 458.117188 489.785156 443.371094 471.726562 443.371094 C 453.652344 443.371094 438.90625 458.117188 438.90625 476.191406 C 438.90625 494.265625 453.652344 509.011719 471.726562 509.011719 Z M 402.519531 244.765625 C 402.863281 243.714844 403.84375 243 404.953125 243 C 406.058594 243 407.042969 243.714844 407.382812 244.765625 L 412.035156 259.085938 C 412.378906 260.140625 413.359375 260.855469 414.46875 260.855469 L 429.527344 260.855469 C 430.632812 260.855469 431.617188 261.566406 431.957031 262.621094 C 432.300781 263.675781 431.925781 264.828125 431.03125 265.480469 L 418.847656 274.332031 C 417.953125 274.980469 417.578125 276.136719 417.917969 277.1875 L 422.570312 291.507812 C 422.914062 292.5625 422.539062 293.71875 421.644531 294.367188 C 420.746094 295.019531 419.53125 295.019531 418.636719 294.367188 L 406.457031 285.519531 C 405.558594 284.867188 404.34375 284.867188 403.449219 285.519531 L 391.265625 294.367188 C 390.371094 295.019531 389.15625 295.019531 388.261719 294.367188 C 387.367188 293.71875 386.988281 292.5625 387.332031 291.507812 L 391.984375 277.1875 C 392.328125 276.136719 391.953125 274.980469 391.054688 274.332031 L 378.875 265.480469 C 377.980469 264.828125 377.605469 263.675781 377.945312 262.621094 C 378.289062 261.566406 379.269531 260.855469 380.378906 260.855469 L 395.4375 260.855469 C 396.542969 260.855469 397.523438 260.140625 397.867188 259.085938 Z M 316.222656 282.539062 C 315.722656 281.550781 315.910156 280.351562 316.695312 279.570312 C 317.476562 278.785156 318.675781 278.597656 319.664062 279.097656 L 333.078125 285.933594 C 334.066406 286.4375 335.265625 286.246094 336.046875 285.464844 L 346.695312 274.816406 C 347.480469 274.035156 348.675781 273.84375 349.664062 274.347656 C 350.652344 274.851562 351.203125 275.929688 351.027344 277.023438 L 348.671875 291.898438 C 348.5 292.992188 349.050781 294.074219 350.039062 294.574219 L 363.453125 301.410156 C 364.441406 301.914062 364.992188 302.996094 364.820312 304.089844 C 364.644531 305.183594 363.789062 306.042969 362.695312 306.214844 L 347.820312 308.570312 C 346.726562 308.742188 345.871094 309.601562 345.695312 310.695312 L 343.339844 325.566406 C 343.167969 326.660156 342.308594 327.519531 341.214844 327.695312 C 340.121094 327.867188 339.039062 327.316406 338.535156 326.328125 L 331.699219 312.914062 C 331.199219 311.925781 330.117188 311.375 329.023438 311.546875 L 314.148438 313.902344 C 313.054688 314.078125 311.976562 313.527344 311.472656 312.539062 C 310.96875 311.550781 311.160156 310.351562 311.941406 309.570312 L 322.589844 298.921875 C 323.371094 298.140625 323.5625 296.941406 323.058594 295.953125 Z M 281.910156 370.265625 C 280.859375 369.925781 280.144531 368.941406 280.144531 367.835938 C 280.144531 366.726562 280.859375 365.746094 281.910156 365.402344 L 296.230469 360.75 C 297.285156 360.40625 298 359.425781 298 358.316406 L 298 343.261719 C 298 342.152344 298.710938 341.171875 299.765625 340.828125 C 300.820312 340.484375 301.972656 340.863281 302.625 341.757812 L 311.472656 353.9375 C 312.125 354.835938 313.28125 355.210938 314.332031 354.867188 L 328.652344 350.214844 C 329.707031 349.871094 330.863281 350.246094 331.511719 351.144531 C 332.164062 352.039062 332.164062 353.253906 331.511719 354.148438 L 322.660156 366.332031 C 322.011719 367.226562 322.011719 368.441406 322.660156 369.335938 L 331.511719 381.519531 C 332.164062 382.414062 332.164062 383.628906 331.511719 384.523438 C 330.863281 385.421875 329.707031 385.796875 328.652344 385.453125 L 314.332031 380.800781 C 313.28125 380.457031 312.125 380.832031 311.472656 381.730469 L 302.625 393.910156 C 301.972656 394.808594 300.820312 395.183594 299.765625 394.839844 C 298.710938 394.5 298 393.515625 298 392.410156 L 298 377.351562 C 298 376.242188 297.285156 375.261719 296.230469 374.917969 Z M 490.25 279.078125 C 491.234375 278.578125 492.433594 278.765625 493.21875 279.550781 C 494 280.332031 494.191406 281.53125 493.6875 282.519531 L 486.851562 295.933594 C 486.347656 296.921875 486.539062 298.121094 487.324219 298.902344 L 497.96875 309.550781 C 498.753906 310.335938 498.941406 311.53125 498.441406 312.519531 C 497.9375 313.507812 496.855469 314.058594 495.761719 313.882812 L 480.890625 311.527344 C 479.796875 311.355469 478.714844 311.90625 478.210938 312.894531 L 471.375 326.308594 C 470.871094 327.296875 469.792969 327.847656 468.695312 327.675781 C 467.601562 327.5 466.746094 326.644531 466.570312 325.550781 L 464.214844 310.675781 C 464.042969 309.582031 463.183594 308.726562 462.089844 308.550781 L 447.21875 306.195312 C 446.125 306.023438 445.265625 305.164062 445.09375 304.070312 C 444.917969 302.976562 445.472656 301.894531 446.457031 301.390625 L 459.875 294.554688 C 460.859375 294.054688 461.414062 292.972656 461.238281 291.878906 L 458.882812 277.007812 C 458.710938 275.910156 459.261719 274.832031 460.246094 274.328125 C 461.234375 273.824219 462.433594 274.015625 463.214844 274.796875 L 473.863281 285.445312 C 474.648438 286.226562 475.847656 286.417969 476.832031 285.914062 Z M 528.019531 365.375 C 529.074219 365.71875 529.785156 366.699219 529.785156 367.808594 C 529.785156 368.914062 529.074219 369.898438 528.019531 370.238281 L 513.699219 374.890625 C 512.644531 375.234375 511.933594 376.21875 511.933594 377.324219 L 511.933594 392.382812 C 511.933594 393.488281 511.21875 394.472656 510.164062 394.8125 C 509.113281 395.15625 507.957031 394.78125 507.308594 393.886719 L 498.457031 381.703125 C 497.804688 380.808594 496.652344 380.433594 495.597656 380.773438 L 481.277344 385.425781 C 480.222656 385.769531 479.070312 385.394531 478.417969 384.5 C 477.765625 383.601562 477.765625 382.390625 478.417969 381.492188 L 487.269531 369.3125 C 487.921875 368.414062 487.921875 367.199219 487.269531 366.304688 L 478.417969 354.121094 C 477.765625 353.226562 477.765625 352.011719 478.417969 351.117188 C 479.070312 350.222656 480.222656 349.847656 481.277344 350.1875 L 495.597656 354.839844 C 496.652344 355.183594 497.804688 354.808594 498.457031 353.914062 L 507.308594 341.730469 C 507.957031 340.835938 509.113281 340.460938 510.164062 340.800781 C 511.21875 341.144531 511.933594 342.125 511.933594 343.234375 L 511.933594 358.292969 C 511.933594 359.398438 512.644531 360.378906 513.699219 360.722656 Z M 528.019531 365.375 "/></g></g></svg>