<svg xmlns="http://www.w3.org/2000/svg" xmlns:xlink="http://www.w3.org/1999/xlink" width="1080" zoomAndPan="magnify" viewBox="0 0 810 809.999993" height="1080" preserveAspectRatio="xMidYMid meet" version="1.2"><g id="7890af7308"><path style=" stroke:none;fill-rule:nonzero;fill:#154371;fill-opacity:1;" d="M 549.921875 386.839844 L 518.976562 386.839844 C 518.976562 386.839844 518.558594 386.839844 518.558594 386.839844 C 495.144531 388.929688 488.453125 405.65625 488.035156 414.4375 L 488.035156 452.902344 C 488.035156 500.570312 451.660156 539.039062 406.917969 539.039062 C 362.175781 539.039062 325.800781 500.570312 325.800781 452.902344 L 325.800781 414.4375 C 325.800781 412.34375 326.21875 402.726562 319.527344 395.203125 C 314.511719 389.765625 306.984375 386.839844 296.949219 386.839844 L 259.734375 386.839844 C 256.808594 386.839844 254.714844 389.347656 254.714844 391.855469 L 254.714844 561.621094 C 254.714844 564.546875 257.226562 566.636719 259.734375 566.636719 L 549.921875 566.636719 C 552.847656 566.636719 554.9375 564.128906 554.9375 561.621094 L 554.9375 391.855469 C 554.9375 388.929688 552.847656 386.839844 549.921875 386.839844 Z M 549.921875 386.839844 "/><path style=" stroke:none;fill-rule:nonzero;fill:#154371;fill-opacity:1;" d="M 361.339844 401.890625 L 352.558594 398.128906 C 348.796875 396.457031 345.035156 398.128906 343.363281 401.890625 C 341.6875 405.65625 343.363281 409.417969 347.125 411.089844 L 361.757812 417.363281 L 361.757812 440.359375 C 361.757812 440.359375 361.757812 440.359375 361.757812 440.777344 L 361.757812 466.703125 C 361.757812 468.375 362.175781 470.046875 363.433594 471.300781 L 400.644531 515.207031 C 401.902344 516.878906 403.992188 517.714844 406.082031 517.714844 C 408.171875 517.714844 410.261719 516.878906 411.519531 515.207031 L 443.714844 477.15625 C 444.96875 475.484375 445.804688 473.394531 445.386719 470.882812 C 444.96875 468.375 443.296875 467.121094 441.625 465.867188 L 375.976562 435.761719 L 375.976562 423.214844 L 394.375 431.160156 L 457.511719 458.757812 C 458.347656 459.175781 459.601562 459.175781 460.441406 459.175781 C 462.949219 459.175781 465.875 457.503906 466.710938 454.996094 C 468.382812 451.230469 466.710938 447.46875 462.949219 445.796875 L 451.242188 440.777344 L 451.242188 424.890625 C 451.242188 421.960938 449.566406 419.453125 447.058594 418.199219 L 375.976562 388.511719 L 375.976562 375.96875 L 441.207031 403.144531 L 457.09375 410.253906 C 457.929688 410.671875 459.183594 410.671875 460.019531 410.671875 C 462.53125 410.671875 465.457031 409 466.292969 406.492188 C 467.964844 402.726562 466.292969 398.964844 462.53125 397.292969 L 450.824219 392.273438 L 450.824219 376.804688 C 450.824219 373.875 449.148438 371.367188 446.640625 370.113281 L 375.558594 340.84375 L 375.558594 326.210938 L 456.675781 361.75 C 457.511719 362.167969 458.765625 362.167969 459.601562 362.167969 C 462.113281 362.167969 465.039062 360.496094 465.875 357.988281 C 467.546875 354.222656 465.875 350.460938 462.113281 348.789062 L 450.824219 344.605469 L 450.824219 327.046875 C 450.824219 324.117188 449.148438 321.609375 446.640625 320.773438 L 375.558594 290.25 L 375.558594 277.707031 L 438.695312 305.300781 L 457.09375 313.246094 C 457.929688 313.664062 459.183594 313.664062 460.019531 313.664062 C 462.53125 313.664062 465.457031 311.992188 466.292969 309.484375 C 467.964844 305.71875 466.292969 301.957031 462.53125 300.285156 L 450.824219 295.265625 L 450.824219 281.886719 C 450.824219 278.960938 449.148438 276.449219 446.640625 275.195312 L 371.375 243.835938 C 369.285156 243 366.777344 243 364.6875 244.671875 C 362.597656 246.34375 361.339844 248.019531 361.339844 250.527344 L 361.339844 255.960938 L 352.5625 252.199219 C 348.796875 250.527344 345.035156 252.199219 343.363281 255.960938 C 341.6875 259.726562 343.363281 263.488281 347.125 265.160156 L 361.757812 271.433594 L 361.757812 305.300781 L 352.980469 301.539062 C 349.214844 299.867188 345.453125 301.539062 343.78125 305.300781 C 342.105469 309.066406 343.78125 312.828125 347.542969 314.5 L 362.175781 320.773438 L 362.175781 353.386719 L 353.398438 349.625 C 349.632812 347.953125 345.871094 349.625 344.199219 353.386719 C 342.523438 357.152344 344.199219 360.914062 347.960938 362.585938 L 362.597656 368.859375 L 362.597656 401.890625 Z M 361.339844 401.890625 "/></g></svg>