<svg xmlns="http://www.w3.org/2000/svg" xmlns:xlink="http://www.w3.org/1999/xlink" width="1080" zoomAndPan="magnify" viewBox="0 0 810 809.999993" height="1080" preserveAspectRatio="xMidYMid meet" version="1.2"><defs><clipPath id="d36d54186b"><path d="M 288.15625 373 L 522 373 L 522 409 L 288.15625 409 Z M 288.15625 373 "/></clipPath><clipPath id="830be188f5"><path d="M 288.15625 408 L 522 408 L 522 449 L 288.15625 449 Z M 288.15625 408 "/></clipPath><clipPath id="9bda594bd9"><path d="M 288.15625 336 L 522 336 L 522 374 L 288.15625 374 Z M 288.15625 336 "/></clipPath></defs><g id="63a07e7aab"><path style=" stroke:none;fill-rule:nonzero;fill:#154371;fill-opacity:1;" d="M 353.226562 286.8125 C 353.246094 291.898438 353.246094 297.109375 352.832031 302.296875 C 356.066406 298.292969 359.609375 294.585938 363.464844 291.175781 C 368.394531 287.066406 373.65625 283.433594 379.242188 280.277344 C 382.578125 278.195312 386.183594 276.804688 390.054688 276.101562 C 392.351562 275.847656 394.652344 275.773438 396.957031 275.875 C 398.117188 275.875 399.253906 275.894531 400.371094 275.875 C 402.519531 275.8125 404.714844 275.894531 406.84375 275.957031 C 409.71875 276.097656 412.589844 276.085938 415.464844 275.917969 C 418.414062 275.679688 421.308594 275.996094 424.140625 276.867188 C 426.152344 277.484375 428 278.429688 429.675781 279.699219 C 430.070312 279.945312 430.464844 280.214844 430.898438 280.507812 L 434.1875 282.613281 C 438.445312 285.144531 442.476562 287.996094 446.277344 291.175781 C 450.132812 294.578125 453.667969 298.289062 456.886719 302.296875 C 456.472656 297.109375 456.492188 291.898438 456.511719 286.8125 C 456.390625 282.5625 456.710938 278.347656 457.472656 274.164062 C 457.613281 273.273438 457.945312 272.460938 458.464844 271.726562 L 450.808594 271.726562 C 449.96875 271.785156 449.09375 271.847656 448.222656 271.953125 C 447.351562 272.054688 446.542969 272.140625 445.703125 272.199219 C 443.894531 272.300781 442.089844 272.25 440.289062 272.054688 C 439.253906 271.953125 438.222656 271.871094 437.167969 271.847656 C 427.863281 271.683594 418.722656 272.160156 410.992188 272.652344 C 410.496094 272.675781 409.976562 272.695312 409.484375 272.695312 C 407.53125 272.660156 405.589844 272.511719 403.652344 272.261719 C 401.863281 272.027344 400.0625 271.886719 398.257812 271.847656 L 378.945312 271.847656 C 376.816406 271.828125 374.6875 271.804688 372.558594 271.847656 C 371.523438 271.871094 370.488281 271.953125 369.457031 272.054688 C 367.648438 272.25 365.835938 272.300781 364.019531 272.199219 C 363.179688 272.140625 362.339844 272.035156 361.5 271.953125 C 360.660156 271.867188 359.78125 271.785156 358.914062 271.726562 L 351.261719 271.726562 C 351.777344 272.464844 352.113281 273.277344 352.273438 274.164062 C 353.03125 278.347656 353.347656 282.5625 353.226562 286.8125 Z M 353.226562 286.8125 "/><path style=" stroke:none;fill-rule:nonzero;fill:#154371;fill-opacity:1;" d="M 372.472656 267.707031 C 374.644531 267.667969 376.816406 267.6875 378.984375 267.707031 L 398.253906 267.707031 C 400.210938 267.746094 402.160156 267.890625 404.105469 268.144531 C 406.304688 268.46875 408.519531 268.59375 410.742188 268.515625 C 418.535156 268.019531 427.800781 267.542969 437.246094 267.707031 C 438.367188 267.726562 439.5 267.832031 440.605469 267.914062 C 441.445312 267.996094 442.21875 268.058594 443.003906 268.082031 C 443.003906 266.902344 442.921875 265.660156 442.796875 264.339844 C 442.714844 263.449219 442.632812 262.558594 442.589844 261.648438 C 442.585938 261.015625 442.492188 260.394531 442.308594 259.789062 C 442.121094 259.398438 441.566406 258.796875 439.910156 258.136719 C 439.320312 257.882812 438.710938 257.667969 438.089844 257.492188 C 436.8125 257.320312 435.53125 257.246094 434.246094 257.265625 L 404.859375 257.246094 L 375.472656 257.265625 C 374.1875 257.246094 372.90625 257.320312 371.628906 257.492188 C 371.003906 257.675781 370.390625 257.890625 369.789062 258.136719 C 368.15625 258.796875 367.578125 259.398438 367.410156 259.789062 C 367.210938 260.394531 367.117188 261.011719 367.132812 261.648438 C 367.070312 262.558594 367.007812 263.449219 366.925781 264.339844 C 366.800781 265.660156 366.699219 266.902344 366.699219 268.082031 C 367.484375 268.058594 368.269531 267.976562 369.097656 267.914062 C 370.21875 267.832031 371.355469 267.726562 372.472656 267.707031 Z M 372.472656 267.707031 "/><path style=" stroke:none;fill-rule:nonzero;fill:#154371;fill-opacity:1;" d="M 348.921875 305.480469 C 349.070312 305.421875 349.253906 305.355469 349.417969 305.292969 C 350.027344 299.152344 350.261719 292.996094 350.121094 286.824219 C 350.242188 282.78125 349.945312 278.769531 349.234375 274.789062 C 349.175781 274.3125 349.011719 273.878906 348.734375 273.484375 C 348.300781 273.1875 347.816406 273.015625 347.289062 272.96875 C 341.800781 271.910156 336.277344 271.628906 330.710938 272.128906 C 330.175781 272.269531 329.675781 272.496094 329.222656 272.8125 C 328.589844 273.328125 328.054688 273.929688 327.605469 274.609375 C 327.148438 277.582031 326.90625 280.574219 326.882812 283.582031 L 326.21875 305.152344 C 329.734375 305.171875 333.214844 305.253906 336.722656 305.316406 C 340.769531 305.398438 344.851562 305.480469 348.921875 305.480469 Z M 348.921875 305.480469 "/><path style=" stroke:none;fill-rule:nonzero;fill:#154371;fill-opacity:1;" d="M 322.4375 293.117188 L 322.75 283.460938 C 322.769531 282.324219 322.808594 281.1875 322.875 280.03125 C 318.820312 279.816406 314.804688 280.105469 310.820312 280.898438 C 306.839844 281.6875 303.015625 282.957031 299.351562 284.703125 L 299.328125 306.121094 C 306.121094 300.886719 313.460938 296.585938 321.347656 293.222656 C 321.703125 293.09375 322.066406 293.058594 322.4375 293.117188 Z M 322.4375 293.117188 "/><path style=" stroke:none;fill-rule:nonzero;fill:#154371;fill-opacity:1;" d="M 487.28125 293.117188 C 487.65625 293.054688 488.019531 293.089844 488.375 293.222656 C 496.265625 296.578125 503.605469 300.878906 510.394531 306.121094 L 510.394531 284.703125 C 506.726562 282.957031 502.902344 281.691406 498.917969 280.90625 C 494.933594 280.117188 490.914062 279.828125 486.859375 280.042969 C 486.921875 281.199219 486.960938 282.335938 487.003906 283.472656 Z M 487.28125 293.117188 "/><path style=" stroke:none;fill-rule:nonzero;fill:#154371;fill-opacity:1;" d="M 402.308594 254.125 L 402.339844 254.125 L 404.882812 254.144531 L 407.425781 254.125 L 407.449219 254.144531 L 429.113281 254.167969 C 428.886719 253.105469 428.542969 252.085938 428.082031 251.101562 C 427.621094 250.121094 427.054688 249.203125 426.382812 248.351562 C 425.710938 247.5 424.949219 246.738281 424.101562 246.0625 C 423.253906 245.382812 422.34375 244.8125 421.363281 244.347656 C 418.507812 243.464844 415.589844 243.175781 412.617188 243.476562 C 410.789062 243.566406 408.964844 243.550781 407.136719 243.4375 C 405.816406 243.40625 404.511719 243.527344 403.21875 243.808594 C 400.949219 244.304688 398.667969 244.367188 396.375 243.992188 C 395.054688 243.632812 393.710938 243.484375 392.347656 243.542969 C 390.980469 243.605469 389.65625 243.871094 388.371094 244.347656 C 387.394531 244.8125 386.484375 245.386719 385.636719 246.066406 C 384.789062 246.742188 384.03125 247.507812 383.359375 248.355469 C 382.6875 249.207031 382.117188 250.125 381.65625 251.105469 C 381.195312 252.085938 380.847656 253.105469 380.621094 254.167969 L 402.289062 254.144531 C 402.300781 254.144531 402.308594 254.136719 402.308594 254.125 Z M 402.308594 254.125 "/><path style=" stroke:none;fill-rule:nonzero;fill:#154371;fill-opacity:1;" d="M 460.816406 305.480469 C 464.890625 305.480469 468.929688 305.398438 472.996094 305.316406 C 476.488281 305.253906 479.992188 305.171875 483.515625 305.152344 L 482.855469 283.585938 C 482.824219 280.582031 482.582031 277.597656 482.132812 274.628906 C 481.683594 273.941406 481.140625 273.339844 480.496094 272.832031 C 480.046875 272.5 479.550781 272.265625 479.007812 272.128906 C 473.441406 271.628906 467.917969 271.90625 462.429688 272.96875 C 461.90625 273.007812 461.429688 273.179688 461.003906 273.480469 C 460.71875 273.875 460.546875 274.308594 460.484375 274.785156 C 459.789062 278.769531 459.5 282.78125 459.617188 286.820312 C 459.460938 292.992188 459.6875 299.148438 460.300781 305.292969 Z M 460.816406 305.480469 "/><g clip-rule="nonzero" clip-path="url(#d36d54186b)"><path style=" stroke:none;fill-rule:nonzero;fill:#154371;fill-opacity:1;" d="M 477.292969 373.707031 C 459.941406 373.5 446.671875 373.429688 434.269531 373.5 C 431.769531 373.519531 429.230469 373.605469 426.714844 373.6875 C 422.289062 373.832031 417.699219 373.964844 413.214844 373.75 L 412.324219 373.707031 C 406.191406 373.269531 400.058594 373.214844 393.921875 373.542969 C 389.230469 373.875 384.394531 373.75 379.738281 373.625 C 377.5 373.5625 375.261719 373.5 373.0625 373.5 C 365.929688 373.460938 358.789062 373.480469 351.644531 373.519531 C 337.75 373.605469 323.609375 373.800781 309.921875 373.996094 L 309.21875 374.019531 C 302.089844 373.792969 295.074219 374.578125 288.171875 376.375 C 288.234375 386.113281 288.335938 395.894531 288.5 405.652344 C 297.136719 407.210938 305.84375 407.878906 314.617188 407.65625 L 384.660156 408.152344 C 385.882812 408.152344 387.101562 408.089844 388.320312 407.964844 C 389.683594 407.863281 391.117188 407.738281 392.535156 407.757812 C 393.515625 407.808594 394.488281 407.910156 395.453125 408.070312 C 396.300781 408.234375 397.15625 408.328125 398.015625 408.351562 C 404.074219 408.472656 410.234375 408.371094 416.191406 408.289062 C 419.144531 408.246094 422.125 408.183594 425.078125 408.164062 L 495.113281 407.660156 C 503.886719 407.878906 512.59375 407.210938 521.226562 405.65625 C 521.390625 395.871094 521.503906 386.113281 521.558594 376.378906 C 514.664062 374.582031 507.65625 373.796875 500.53125 374.023438 C 492.78125 373.894531 485.035156 373.789062 477.292969 373.707031 Z M 477.292969 373.707031 "/></g><path style=" stroke:none;fill-rule:nonzero;fill:#154371;fill-opacity:1;" d="M 499.828125 450.414062 C 490.238281 450.847656 480.269531 451.15625 469.355469 451.34375 C 459.019531 451.53125 448.558594 451.589844 438.195312 451.589844 C 431.480469 451.589844 424.800781 451.570312 418.226562 451.550781 C 407.164062 451.507812 395.730469 451.464844 384.503906 451.53125 C 380.929688 451.550781 377.351562 451.570312 373.773438 451.570312 C 366.640625 451.589844 359.488281 451.570312 352.355469 451.507812 C 336.890625 451.363281 322.996094 451.011719 309.886719 450.414062 C 305.246094 450.316406 300.644531 449.851562 296.078125 449.011719 C 293.722656 448.550781 291.441406 447.847656 289.234375 446.90625 C 289.378906 457.285156 289.460938 467.664062 289.515625 477.941406 C 293.542969 479.609375 297.726562 480.65625 302.066406 481.082031 C 312.441406 482.480469 322.863281 483.332031 333.328125 483.644531 C 336.636719 483.769531 339.941406 483.8125 343.25 483.851562 C 345.253906 483.875 347.242188 483.914062 349.246094 483.953125 C 350.5625 484.003906 351.851562 484.214844 353.113281 484.59375 C 353.484375 484.679688 353.878906 484.78125 354.292969 484.875 C 355.90625 485.160156 357.53125 485.242188 359.167969 485.125 C 359.789062 485.105469 360.429688 485.082031 361.050781 485.082031 L 384.246094 485.082031 C 386.832031 485.082031 389.398438 485.039062 391.960938 485 L 394.835938 484.957031 C 395.332031 484.9375 395.804688 484.957031 396.257812 484.957031 C 397.539062 485.035156 398.808594 484.941406 400.066406 484.679688 C 402.660156 484.144531 405.265625 484.097656 407.878906 484.535156 C 408.953125 484.660156 410.070312 484.78125 411.238281 484.816406 C 416.695312 485.003906 421.203125 485.097656 425.460938 485.097656 L 448.691406 485.097656 C 449.3125 485.097656 449.929688 485.117188 450.570312 485.136719 C 452.207031 485.257812 453.835938 485.171875 455.453125 484.890625 C 455.84375 484.808594 456.234375 484.703125 456.609375 484.609375 C 457.871094 484.234375 459.160156 484.019531 460.476562 483.96875 C 462.480469 483.929688 464.46875 483.886719 466.46875 483.863281 C 469.777344 483.824219 473.085938 483.785156 476.394531 483.65625 C 486.859375 483.347656 497.28125 482.492188 507.65625 481.09375 C 512 480.667969 516.191406 479.621094 520.226562 477.953125 C 520.269531 467.675781 520.347656 457.296875 520.507812 446.921875 C 518.300781 447.863281 516.019531 448.566406 513.664062 449.027344 C 509.089844 449.863281 504.480469 450.324219 499.828125 450.414062 Z M 499.828125 450.414062 "/><g clip-rule="nonzero" clip-path="url(#830be188f5)"><path style=" stroke:none;fill-rule:nonzero;fill:#154371;fill-opacity:1;" d="M 425.089844 411.253906 C 422.132812 411.273438 419.175781 411.335938 416.242188 411.378906 C 412.167969 411.441406 408.011719 411.5 403.835938 411.5 C 401.871094 411.5 399.910156 411.480469 397.957031 411.441406 C 396.960938 411.402344 395.96875 411.308594 394.980469 411.160156 C 394.152344 411.007812 393.320312 410.914062 392.476562 410.878906 C 391.167969 410.871094 389.863281 410.9375 388.558594 411.085938 C 387.296875 411.191406 385.996094 411.292969 384.640625 411.273438 L 314.597656 410.777344 C 305.859375 410.96875 297.183594 410.328125 288.570312 408.855469 C 288.652344 413.546875 288.714844 418.261719 288.847656 422.933594 C 289.015625 429.800781 289.140625 436.664062 289.222656 443.527344 C 291.617188 444.667969 294.121094 445.484375 296.726562 445.984375 C 301.136719 446.789062 305.582031 447.238281 310.0625 447.332031 C 323.128906 447.929688 336.980469 448.28125 352.40625 448.425781 C 359.535156 448.488281 366.667969 448.507812 373.804688 448.488281 C 377.378906 448.488281 380.9375 448.46875 384.511719 448.445312 C 395.757812 448.382812 407.183594 448.425781 418.253906 448.46875 C 435 448.511719 452.304688 448.570312 469.320312 448.261719 C 480.21875 448.074219 490.140625 447.765625 499.710938 447.332031 C 504.195312 447.238281 508.640625 446.792969 513.046875 445.984375 C 515.65625 445.484375 518.15625 444.667969 520.554688 443.527344 C 520.65625 436.664062 520.78125 429.800781 520.925781 422.933594 C 521.050781 418.261719 521.109375 413.546875 521.207031 408.855469 C 512.597656 410.328125 503.925781 410.96875 495.195312 410.777344 Z M 425.089844 411.253906 "/></g><g clip-rule="nonzero" clip-path="url(#9bda594bd9)"><path style=" stroke:none;fill-rule:nonzero;fill:#154371;fill-opacity:1;" d="M 520.8125 341.972656 C 520.734375 340.667969 520.691406 339.386719 520.667969 338.105469 C 514.621094 337.175781 508.542969 336.878906 502.433594 337.21875 C 498.980469 337.300781 495.4375 337.382812 491.910156 337.21875 C 484.011719 336.863281 475.929688 336.90625 468.121094 336.9375 C 465.601562 336.957031 463.085938 336.957031 460.566406 336.957031 L 349.167969 336.957031 C 346.664062 336.957031 344.128906 336.957031 341.609375 336.9375 C 333.773438 336.894531 325.691406 336.855469 317.792969 337.21875 C 314.300781 337.382812 310.722656 337.300781 307.269531 337.21875 C 301.160156 336.878906 295.082031 337.175781 289.035156 338.105469 C 289.015625 339.386719 288.972656 340.667969 288.910156 341.972656 C 288.351562 351.460938 288.070312 361.300781 288.105469 371.207031 C 288.105469 371.867188 288.125 372.507812 288.125 373.164062 C 295.035156 371.472656 302.042969 370.722656 309.152344 370.910156 L 309.855469 370.890625 C 323.539062 370.707031 337.679688 370.5 351.597656 370.414062 C 358.75 370.371094 365.90625 370.351562 373.058594 370.394531 C 375.296875 370.394531 377.535156 370.457031 379.796875 370.519531 C 384.386719 370.640625 389.121094 370.765625 393.671875 370.4375 C 399.9375 370.097656 406.203125 370.152344 412.464844 370.601562 L 413.351562 370.640625 C 417.695312 370.871094 422.222656 370.726562 426.585938 370.578125 C 429.148438 370.5 431.710938 370.414062 434.234375 370.394531 C 446.660156 370.332031 459.933594 370.394531 477.300781 370.601562 C 485.054688 370.683594 492.804688 370.785156 500.558594 370.910156 C 507.664062 370.722656 514.664062 371.472656 521.5625 373.164062 C 521.5625 372.503906 521.585938 371.84375 521.585938 371.207031 C 521.621094 361.324219 521.351562 351.480469 520.8125 341.972656 Z M 520.8125 341.972656 "/></g><path style=" stroke:none;fill-rule:nonzero;fill:#154371;fill-opacity:1;" d="M 489.59375 522.859375 C 483.664062 523.519531 477.625 523.808594 471.773438 524.078125 L 457.035156 524.800781 C 449.546875 525.152344 441.796875 525.523438 434.144531 525.75 C 426.105469 525.957031 419.074219 526 412.621094 525.8125 C 406.691406 525.648438 400.628906 525.75 394.925781 525.855469 C 392.683594 525.917969 390.394531 525.9375 388.144531 525.9375 C 376.171875 525.9375 364.140625 525.359375 352.457031 524.78125 L 337.972656 524.082031 C 332.121094 523.800781 326.0625 523.519531 320.128906 522.859375 C 315.871094 522.40625 311.695312 521.761719 308.550781 521.269531 C 302.039062 520.445312 295.753906 518.765625 289.695312 516.230469 C 289.734375 525.660156 289.820312 535.148438 289.921875 544.554688 C 289.839844 545.785156 290.011719 546.976562 290.441406 548.132812 C 291.535156 549.425781 292.898438 550.292969 294.53125 550.738281 C 315.847656 558.746094 337.863281 563.523438 360.578125 565.066406 C 369.304688 565.8125 378.253906 566.304688 387.375 566.59375 L 387.351562 551.171875 C 387.292969 549.125 387.417969 547.09375 387.730469 545.070312 C 387.894531 544.117188 388.136719 543.179688 388.457031 542.265625 C 388.773438 541.351562 389.164062 540.464844 389.621094 539.613281 C 390.082031 538.761719 390.609375 537.949219 391.199219 537.183594 C 391.792969 536.414062 392.441406 535.699219 393.148438 535.035156 C 393.851562 534.375 394.609375 533.773438 395.414062 533.230469 C 396.214844 532.691406 397.058594 532.214844 397.9375 531.8125 C 398.820312 531.40625 399.726562 531.074219 400.660156 530.816406 C 401.59375 530.554688 402.542969 530.375 403.503906 530.269531 C 403.703125 530.179688 403.910156 530.140625 404.125 530.140625 L 404.1875 530.140625 C 404.414062 530.140625 404.640625 530.164062 404.871094 530.164062 C 405.101562 530.164062 405.304688 530.140625 405.53125 530.140625 L 405.59375 530.140625 C 405.808594 530.140625 406.015625 530.179688 406.214844 530.269531 C 407.175781 530.375 408.125 530.558594 409.058594 530.816406 C 409.992188 531.078125 410.902344 531.410156 411.78125 531.8125 C 412.664062 532.21875 413.503906 532.691406 414.308594 533.234375 C 415.113281 533.773438 415.867188 534.375 416.574219 535.039062 C 417.285156 535.703125 417.933594 536.417969 418.523438 537.183594 C 419.117188 537.953125 419.644531 538.761719 420.105469 539.613281 C 420.566406 540.464844 420.957031 541.351562 421.277344 542.265625 C 421.597656 543.179688 421.839844 544.117188 422.007812 545.070312 C 422.300781 547.085938 422.417969 549.113281 422.363281 551.148438 L 422.339844 566.511719 C 427.921875 566.34375 433.535156 566.097656 439.171875 565.765625 C 469.625 563.945312 493.792969 559.148438 515.210938 550.714844 C 515.574219 550.6875 515.933594 550.621094 516.28125 550.519531 C 516.632812 550.414062 516.96875 550.273438 517.289062 550.097656 C 517.605469 549.921875 517.90625 549.714844 518.179688 549.472656 C 518.453125 549.234375 518.703125 548.964844 518.917969 548.671875 C 519.136719 548.378906 519.320312 548.066406 519.472656 547.734375 C 519.621094 547.402344 519.734375 547.054688 519.8125 546.699219 C 519.886719 546.339844 519.925781 545.980469 519.921875 545.617188 C 519.921875 545.25 519.878906 544.890625 519.800781 544.53125 C 519.925781 535.125 519.988281 525.636719 520.027344 516.207031 C 513.976562 518.742188 507.699219 520.421875 501.191406 521.246094 C 498.03125 521.761719 493.875 522.402344 489.59375 522.859375 Z M 489.59375 522.859375 "/><path style=" stroke:none;fill-rule:nonzero;fill:#154371;fill-opacity:1;" d="M 413.800781 536.730469 C 413.195312 536.183594 412.542969 535.695312 411.84375 535.265625 C 411.148438 534.835938 410.417969 534.476562 409.652344 534.183594 C 408.890625 533.886719 408.105469 533.667969 407.300781 533.515625 C 406.5 533.367188 405.6875 533.292969 404.871094 533.292969 C 404.050781 533.292969 403.238281 533.367188 402.4375 533.515625 C 401.632812 533.667969 400.847656 533.886719 400.085938 534.183594 C 399.320312 534.476562 398.589844 534.835938 397.894531 535.265625 C 397.195312 535.695312 396.542969 536.183594 395.9375 536.730469 C 394.589844 537.871094 393.476562 539.203125 392.585938 540.730469 C 391.699219 542.253906 391.09375 543.882812 390.769531 545.617188 C 390.511719 547.457031 390.40625 549.304688 390.460938 551.160156 L 390.480469 566.667969 C 399.886719 566.894531 409.472656 566.878906 419.238281 566.625 L 419.257812 551.160156 C 419.3125 549.304688 419.207031 547.457031 418.949219 545.617188 C 418.632812 543.882812 418.03125 542.253906 417.148438 540.726562 C 416.261719 539.203125 415.148438 537.867188 413.800781 536.730469 Z M 413.800781 536.730469 "/><path style=" stroke:none;fill-rule:nonzero;fill:#154371;fill-opacity:1;" d="M 307.367188 334.117188 C 310.757812 334.199219 314.269531 334.28125 317.683594 334.117188 C 325.644531 333.765625 333.769531 333.804688 341.625 333.835938 C 344.144531 333.855469 346.664062 333.855469 349.179688 333.855469 L 460.550781 333.855469 C 463.054688 333.855469 465.589844 333.855469 468.109375 333.835938 C 475.964844 333.796875 484.085938 333.753906 492.050781 334.117188 C 495.460938 334.28125 498.976562 334.199219 502.386719 334.117188 C 508.503906 333.796875 514.597656 334.078125 520.664062 334.957031 C 520.929688 329.828125 520.199219 324.84375 518.472656 320.007812 C 517.753906 318.410156 516.84375 316.929688 515.742188 315.566406 C 515.28125 315.53125 514.882812 315.359375 514.542969 315.046875 C 506.519531 307.582031 497.476562 301.671875 487.417969 297.316406 L 487.730469 307.15625 C 487.742188 307.730469 487.550781 308.226562 487.148438 308.644531 C 486.746094 309.070312 486.25 309.285156 485.660156 309.285156 C 481.441406 309.285156 477.265625 309.367188 473.089844 309.449219 C 468.914062 309.53125 464.675781 309.613281 460.4375 309.613281 C 460.101562 309.617188 459.785156 309.542969 459.484375 309.386719 C 459.257812 309.308594 458.824219 309.140625 458.390625 308.996094 C 457.085938 308.539062 456.21875 308.230469 455.828125 307.527344 C 452.144531 302.734375 448.058594 298.316406 443.566406 294.277344 C 439.917969 291.257812 436.058594 288.535156 431.988281 286.109375 C 430.871094 285.40625 429.75 284.710938 428.628906 283.980469 C 428.175781 283.699219 427.742188 283.402344 427.347656 283.113281 C 426.019531 282.097656 424.558594 281.339844 422.964844 280.835938 C 420.632812 280.109375 418.25 279.839844 415.8125 280.03125 C 412.773438 280.214844 409.734375 280.234375 406.695312 280.09375 C 404.648438 280.03125 402.515625 279.945312 400.472656 280.007812 C 399.3125 280.03125 398.09375 280.007812 396.894531 279.988281 C 394.792969 279.910156 392.699219 279.980469 390.609375 280.195312 C 387.300781 280.816406 384.222656 282.023438 381.375 283.816406 C 376.003906 286.863281 370.941406 290.347656 366.175781 294.277344 C 361.683594 298.316406 357.597656 302.734375 353.917969 307.527344 C 353.523438 308.230469 352.65625 308.539062 351.375 308.996094 C 350.917969 309.140625 350.484375 309.308594 350.277344 309.386719 C 349.972656 309.539062 349.648438 309.617188 349.308594 309.613281 C 345.066406 309.613281 340.871094 309.535156 336.65625 309.449219 C 332.4375 309.367188 328.300781 309.285156 324.101562 309.285156 C 323.515625 309.285156 323.019531 309.070312 322.617188 308.644531 C 322.203125 308.234375 322.011719 307.738281 322.039062 307.15625 L 322.316406 297.316406 C 312.261719 301.667969 303.222656 307.570312 295.191406 315.023438 C 294.851562 315.339844 294.453125 315.515625 293.988281 315.542969 C 292.886719 316.902344 291.984375 318.382812 291.28125 319.988281 C 289.535156 324.820312 288.804688 329.804688 289.089844 334.933594 C 295.15625 334.0625 301.246094 333.789062 307.367188 334.117188 Z M 307.367188 334.117188 "/><path style=" stroke:none;fill-rule:nonzero;fill:#154371;fill-opacity:1;" d="M 476.503906 486.738281 C 473.144531 486.863281 469.824219 486.902344 466.496094 486.941406 C 464.511719 486.964844 462.527344 487.007812 460.519531 487.046875 C 459.445312 487.097656 458.390625 487.277344 457.359375 487.585938 C 456.964844 487.6875 456.519531 487.792969 456.097656 487.894531 C 454.886719 488.136719 453.667969 488.25 452.4375 488.226562 C 451.773438 488.226562 451.113281 488.207031 450.476562 488.207031 C 449.839844 488.207031 449.277344 488.164062 448.699219 488.164062 L 425.472656 488.164062 C 421.1875 488.164062 416.621094 488.082031 411.140625 487.882812 C 409.859375 487.84375 408.683594 487.699219 407.546875 487.574219 C 405.292969 487.171875 403.046875 487.203125 400.804688 487.65625 C 399.304688 487.96875 397.789062 488.089844 396.257812 488.027344 C 395.824219 488.027344 395.367188 488.007812 394.890625 488.027344 L 392.039062 488.070312 C 389.457031 488.113281 386.851562 488.152344 384.265625 488.152344 L 361.058594 488.152344 C 360.460938 488.152344 359.859375 488.175781 359.261719 488.195312 C 357.367188 488.316406 355.484375 488.214844 353.617188 487.882812 C 353.183594 487.78125 352.777344 487.675781 352.355469 487.574219 C 351.324219 487.265625 350.269531 487.085938 349.191406 487.035156 C 347.207031 486.996094 345.203125 486.953125 343.21875 486.933594 C 339.890625 486.894531 336.558594 486.851562 333.230469 486.726562 C 322.65625 486.398438 312.128906 485.535156 301.640625 484.140625 C 297.484375 483.695312 293.445312 482.75 289.523438 481.308594 C 289.566406 486.476562 289.59375 491.617188 289.605469 496.734375 C 289.625 502.023438 289.648438 507.402344 289.667969 512.777344 C 295.835938 515.589844 302.289062 517.390625 309.019531 518.171875 C 312.140625 518.691406 316.257812 519.308594 320.453125 519.765625 C 326.304688 520.40625 332.300781 520.695312 338.109375 520.984375 L 352.5625 521.667969 C 366.457031 522.347656 380.78125 523.03125 394.863281 522.742188 C 400.609375 522.640625 406.710938 522.535156 412.707031 522.699219 C 419.09375 522.886719 426.082031 522.847656 434.0625 522.640625 C 441.671875 522.414062 449.40625 522.039062 456.886719 521.6875 L 471.609375 520.984375 C 477.417969 520.707031 483.414062 520.40625 489.265625 519.765625 C 493.464844 519.308594 497.578125 518.691406 500.699219 518.171875 C 507.433594 517.390625 513.882812 515.59375 520.050781 512.777344 C 520.09375 507.402344 520.113281 502.046875 520.132812 496.753906 C 520.152344 491.648438 520.171875 486.480469 520.195312 481.308594 C 516.273438 482.75 512.234375 483.695312 508.078125 484.140625 C 497.597656 485.539062 487.070312 486.40625 476.503906 486.738281 Z M 476.503906 486.738281 "/></g></svg>