<svg xmlns="http://www.w3.org/2000/svg" xmlns:xlink="http://www.w3.org/1999/xlink" width="200" zoomAndPan="magnify" viewBox="0 0 150 157.92" height="200" preserveAspectRatio="xMidYMid meet" version="1.2"><defs><clipPath id="4f1466d00a"><path d="M 20.933594 60 L 128.878906 60 L 128.878906 77 L 20.933594 77 Z M 20.933594 60 "/></clipPath><clipPath id="103fc39da5"><path d="M 21 94 L 128.878906 94 L 128.878906 112 L 21 112 Z M 21 94 "/></clipPath><clipPath id="b8e16c5bc5"><path d="M 21 76 L 128.878906 76 L 128.878906 95 L 21 95 Z M 21 76 "/></clipPath><clipPath id="2ec4cddb3c"><path d="M 20.933594 43 L 128.878906 43 L 128.878906 61 L 20.933594 61 Z M 20.933594 43 "/></clipPath><clipPath id="82a1b61a92"><path d="M 21 126 L 128.878906 126 L 128.878906 149.925781 L 21 149.925781 Z M 21 126 "/></clipPath><clipPath id="40960b5513"><path d="M 68 134 L 82 134 L 82 149.925781 L 68 149.925781 Z M 68 134 "/></clipPath><clipPath id="3c199b1511"><path d="M 21 17 L 128.878906 17 L 128.878906 43 L 21 43 Z M 21 17 "/></clipPath><clipPath id="ebc10832a3"><path d="M 21 110 L 128.878906 110 L 128.878906 130 L 21 130 Z M 21 110 "/></clipPath></defs><g id="8727b7de2f"><path style=" stroke:none;fill-rule:nonzero;fill:#ffa800;fill-opacity:1;" d="M 50.992188 20.238281 C 51 22.585938 51 24.992188 50.808594 27.390625 C 52.300781 25.539062 53.9375 23.828125 55.71875 22.253906 C 58 20.355469 60.425781 18.679688 63.007812 17.21875 C 64.550781 16.257812 66.214844 15.613281 68.003906 15.289062 C 69.0625 15.171875 70.125 15.136719 71.191406 15.183594 C 71.726562 15.183594 72.253906 15.195312 72.769531 15.183594 C 73.761719 15.15625 74.773438 15.195312 75.757812 15.222656 C 77.085938 15.289062 78.414062 15.28125 79.738281 15.203125 C 81.105469 15.09375 82.441406 15.242188 83.746094 15.644531 C 84.675781 15.929688 85.53125 16.367188 86.304688 16.953125 C 86.488281 17.066406 86.667969 17.191406 86.871094 17.324219 L 88.386719 18.296875 C 90.355469 19.46875 92.21875 20.785156 93.972656 22.253906 C 95.753906 23.824219 97.386719 25.539062 98.875 27.390625 C 98.683594 24.992188 98.691406 22.585938 98.703125 20.238281 C 98.644531 18.273438 98.792969 16.328125 99.144531 14.394531 C 99.210938 13.984375 99.363281 13.609375 99.601562 13.269531 L 96.066406 13.269531 C 95.679688 13.296875 95.273438 13.324219 94.871094 13.375 C 94.472656 13.421875 94.097656 13.460938 93.710938 13.488281 C 92.875 13.535156 92.039062 13.511719 91.207031 13.421875 C 90.730469 13.375 90.253906 13.335938 89.765625 13.324219 C 85.46875 13.25 81.246094 13.46875 77.675781 13.699219 C 77.445312 13.707031 77.207031 13.71875 76.976562 13.71875 C 76.074219 13.699219 75.179688 13.632812 74.285156 13.515625 C 73.457031 13.40625 72.625 13.34375 71.792969 13.324219 L 62.871094 13.324219 C 61.886719 13.316406 60.90625 13.304688 59.921875 13.324219 C 59.445312 13.335938 58.964844 13.375 58.488281 13.421875 C 57.652344 13.511719 56.816406 13.535156 55.976562 13.488281 C 55.589844 13.460938 55.199219 13.410156 54.8125 13.375 C 54.425781 13.335938 54.019531 13.296875 53.617188 13.269531 L 50.082031 13.269531 C 50.320312 13.609375 50.476562 13.984375 50.550781 14.394531 C 50.902344 16.328125 51.046875 18.273438 50.992188 20.238281 Z M 50.992188 20.238281 "/><path style=" stroke:none;fill-rule:nonzero;fill:#ffa800;fill-opacity:1;" d="M 59.878906 11.414062 C 60.882812 11.394531 61.886719 11.402344 62.890625 11.414062 L 71.789062 11.414062 C 72.695312 11.429688 73.59375 11.496094 74.492188 11.613281 C 75.507812 11.765625 76.53125 11.820312 77.558594 11.785156 C 81.160156 11.558594 85.4375 11.335938 89.804688 11.414062 C 90.320312 11.421875 90.84375 11.46875 91.355469 11.507812 C 91.742188 11.546875 92.097656 11.574219 92.460938 11.585938 C 92.460938 11.039062 92.421875 10.46875 92.367188 9.855469 C 92.328125 9.445312 92.289062 9.035156 92.269531 8.613281 C 92.269531 8.320312 92.226562 8.035156 92.140625 7.753906 C 92.054688 7.574219 91.796875 7.296875 91.035156 6.992188 C 90.757812 6.875 90.480469 6.773438 90.191406 6.695312 C 89.601562 6.613281 89.011719 6.582031 88.414062 6.589844 L 74.839844 6.582031 L 61.269531 6.589844 C 60.671875 6.578125 60.082031 6.613281 59.492188 6.695312 C 59.203125 6.777344 58.917969 6.878906 58.640625 6.992188 C 57.886719 7.296875 57.621094 7.574219 57.542969 7.753906 C 57.449219 8.035156 57.40625 8.320312 57.414062 8.613281 C 57.386719 9.035156 57.355469 9.445312 57.320312 9.855469 C 57.261719 10.46875 57.214844 11.039062 57.214844 11.585938 C 57.578125 11.574219 57.941406 11.539062 58.320312 11.507812 C 58.839844 11.46875 59.363281 11.421875 59.878906 11.414062 Z M 59.878906 11.414062 "/><path style=" stroke:none;fill-rule:nonzero;fill:#ffa800;fill-opacity:1;" d="M 49.003906 28.863281 C 49.070312 28.832031 49.15625 28.804688 49.230469 28.773438 C 49.511719 25.9375 49.621094 23.09375 49.554688 20.242188 C 49.613281 18.375 49.476562 16.523438 49.148438 14.683594 C 49.121094 14.464844 49.042969 14.261719 48.917969 14.082031 C 48.714844 13.945312 48.492188 13.863281 48.25 13.84375 C 45.714844 13.355469 43.160156 13.226562 40.589844 13.457031 C 40.34375 13.519531 40.113281 13.625 39.902344 13.769531 C 39.609375 14.007812 39.363281 14.285156 39.15625 14.601562 C 38.945312 15.976562 38.832031 17.355469 38.824219 18.746094 L 38.515625 28.710938 C 40.140625 28.71875 41.746094 28.757812 43.367188 28.785156 C 45.238281 28.824219 47.121094 28.863281 49.003906 28.863281 Z M 49.003906 28.863281 "/><path style=" stroke:none;fill-rule:nonzero;fill:#ffa800;fill-opacity:1;" d="M 36.769531 23.148438 L 36.914062 18.691406 C 36.921875 18.164062 36.941406 17.640625 36.96875 17.105469 C 33.164062 16.90625 29.542969 17.625 26.105469 19.261719 L 26.09375 29.15625 C 29.230469 26.738281 32.621094 24.75 36.265625 23.199219 C 36.429688 23.140625 36.597656 23.121094 36.769531 23.148438 Z M 36.769531 23.148438 "/><path style=" stroke:none;fill-rule:nonzero;fill:#ffa800;fill-opacity:1;" d="M 112.914062 23.148438 C 113.085938 23.121094 113.253906 23.136719 113.421875 23.199219 C 117.066406 24.75 120.457031 26.734375 123.589844 29.15625 L 123.589844 19.261719 C 120.148438 17.628906 116.523438 16.910156 112.71875 17.109375 C 112.75 17.644531 112.765625 18.171875 112.785156 18.695312 Z M 112.914062 23.148438 "/><path style=" stroke:none;fill-rule:nonzero;fill:#ffa800;fill-opacity:1;" d="M 73.664062 5.136719 L 73.679688 5.136719 L 74.851562 5.148438 L 76.027344 5.136719 L 76.039062 5.148438 L 86.046875 5.15625 C 85.832031 4.164062 85.414062 3.269531 84.785156 2.472656 C 84.15625 1.675781 83.382812 1.058594 82.464844 0.621094 C 81.144531 0.214844 79.800781 0.0820312 78.425781 0.21875 C 77.582031 0.261719 76.738281 0.253906 75.894531 0.203125 C 75.285156 0.1875 74.679688 0.242188 74.085938 0.375 C 73.035156 0.601562 71.980469 0.628906 70.921875 0.457031 C 69.671875 0.117188 68.441406 0.171875 67.226562 0.621094 C 66.308594 1.058594 65.539062 1.675781 64.910156 2.472656 C 64.28125 3.269531 63.859375 4.164062 63.644531 5.15625 L 73.652344 5.148438 C 73.660156 5.148438 73.664062 5.144531 73.664062 5.136719 Z M 73.664062 5.136719 "/><path style=" stroke:none;fill-rule:nonzero;fill:#ffa800;fill-opacity:1;" d="M 100.6875 28.863281 C 102.570312 28.863281 104.4375 28.824219 106.316406 28.785156 C 107.929688 28.757812 109.546875 28.71875 111.175781 28.710938 L 110.871094 18.746094 C 110.855469 17.359375 110.742188 15.980469 110.535156 14.609375 C 110.328125 14.292969 110.078125 14.015625 109.78125 13.777344 C 109.574219 13.625 109.34375 13.519531 109.09375 13.453125 C 106.523438 13.222656 103.96875 13.351562 101.433594 13.84375 C 101.191406 13.859375 100.972656 13.941406 100.777344 14.082031 C 100.644531 14.261719 100.566406 14.460938 100.535156 14.683594 C 100.214844 16.523438 100.082031 18.375 100.136719 20.242188 C 100.0625 23.09375 100.167969 25.9375 100.453125 28.773438 Z M 100.6875 28.863281 "/><g clip-rule="nonzero" clip-path="url(#4f1466d00a)"><path style=" stroke:none;fill-rule:nonzero;fill:#ffa800;fill-opacity:1;" d="M 108.300781 60.378906 C 100.285156 60.28125 94.15625 60.25 88.425781 60.28125 C 87.273438 60.292969 86.101562 60.328125 84.9375 60.367188 C 82.894531 60.433594 80.773438 60.496094 78.699219 60.398438 L 78.289062 60.378906 C 75.457031 60.175781 72.625 60.148438 69.789062 60.300781 C 67.621094 60.453125 65.386719 60.398438 63.238281 60.339844 C 62.203125 60.3125 61.167969 60.28125 60.152344 60.28125 C 56.859375 60.261719 53.558594 60.273438 50.261719 60.292969 C 43.839844 60.328125 37.308594 60.421875 30.988281 60.511719 L 30.660156 60.519531 C 27.367188 60.417969 24.128906 60.777344 20.941406 61.609375 C 20.96875 66.105469 21.015625 70.625 21.09375 75.132812 C 25.082031 75.851562 29.101562 76.160156 33.15625 76.058594 L 65.511719 76.289062 C 66.078125 76.289062 66.640625 76.257812 67.203125 76.203125 C 67.832031 76.15625 68.496094 76.097656 69.148438 76.105469 C 69.601562 76.128906 70.050781 76.175781 70.496094 76.25 C 70.886719 76.324219 71.28125 76.367188 71.679688 76.378906 C 74.480469 76.4375 77.324219 76.386719 80.074219 76.351562 C 81.441406 76.332031 82.816406 76.304688 84.183594 76.292969 L 116.53125 76.058594 C 120.585938 76.164062 124.605469 75.855469 128.597656 75.132812 C 128.671875 70.617188 128.722656 66.109375 128.75 61.609375 C 125.5625 60.78125 122.324219 60.417969 119.035156 60.523438 C 115.453125 60.464844 111.875 60.414062 108.300781 60.378906 Z M 108.300781 60.378906 "/></g><g clip-rule="nonzero" clip-path="url(#103fc39da5)"><path style=" stroke:none;fill-rule:nonzero;fill:#ffa800;fill-opacity:1;" d="M 118.710938 95.808594 C 114.28125 96.011719 109.675781 96.152344 104.632812 96.238281 C 99.859375 96.324219 95.027344 96.355469 90.242188 96.355469 C 87.136719 96.355469 84.050781 96.34375 81.015625 96.335938 C 75.90625 96.316406 70.625 96.296875 65.4375 96.324219 C 63.789062 96.335938 62.136719 96.34375 60.484375 96.34375 C 57.1875 96.355469 53.882812 96.34375 50.589844 96.316406 C 43.445312 96.25 37.027344 96.085938 30.972656 95.808594 C 28.828125 95.765625 26.703125 95.550781 24.59375 95.164062 C 23.503906 94.949219 22.449219 94.625 21.429688 94.191406 C 21.5 98.984375 21.535156 103.777344 21.5625 108.523438 C 23.421875 109.296875 25.355469 109.777344 27.359375 109.976562 C 32.152344 110.621094 36.964844 111.015625 41.796875 111.160156 C 43.328125 111.21875 44.855469 111.238281 46.382812 111.253906 C 47.308594 111.265625 48.226562 111.285156 49.152344 111.304688 C 49.761719 111.324219 50.355469 111.425781 50.9375 111.597656 C 51.109375 111.636719 51.292969 111.6875 51.484375 111.730469 C 52.230469 111.859375 52.980469 111.898438 53.734375 111.84375 C 54.023438 111.835938 54.320312 111.824219 54.605469 111.824219 L 65.320312 111.824219 C 66.515625 111.824219 67.699219 111.804688 68.882812 111.785156 L 70.210938 111.765625 C 70.441406 111.757812 70.660156 111.765625 70.867188 111.765625 C 71.460938 111.800781 72.046875 111.757812 72.628906 111.636719 C 73.828125 111.390625 75.03125 111.371094 76.238281 111.574219 C 76.734375 111.628906 77.25 111.6875 77.789062 111.703125 C 80.308594 111.789062 82.390625 111.832031 84.359375 111.832031 L 95.089844 111.832031 C 95.375 111.832031 95.660156 111.839844 95.957031 111.851562 C 96.714844 111.90625 97.464844 111.867188 98.210938 111.734375 C 98.394531 111.699219 98.574219 111.648438 98.746094 111.605469 C 99.328125 111.433594 99.925781 111.335938 100.53125 111.308594 C 101.457031 111.292969 102.375 111.273438 103.300781 111.261719 C 104.828125 111.242188 106.359375 111.222656 107.886719 111.167969 C 112.71875 111.023438 117.53125 110.628906 122.324219 109.980469 C 124.332031 109.785156 126.269531 109.300781 128.132812 108.53125 C 128.152344 103.785156 128.191406 98.988281 128.261719 94.195312 C 127.242188 94.632812 126.1875 94.957031 125.101562 95.167969 C 122.988281 95.554688 120.859375 95.769531 118.710938 95.808594 Z M 118.710938 95.808594 "/></g><g clip-rule="nonzero" clip-path="url(#b8e16c5bc5)"><path style=" stroke:none;fill-rule:nonzero;fill:#ffa800;fill-opacity:1;" d="M 84.1875 77.722656 C 82.820312 77.730469 81.457031 77.757812 80.097656 77.777344 C 78.21875 77.808594 76.296875 77.835938 74.367188 77.835938 C 73.460938 77.835938 72.554688 77.824219 71.652344 77.808594 C 71.191406 77.789062 70.734375 77.746094 70.277344 77.675781 C 69.894531 77.609375 69.511719 77.566406 69.121094 77.546875 C 68.515625 77.542969 67.914062 77.574219 67.3125 77.644531 C 66.730469 77.691406 66.128906 77.738281 65.503906 77.730469 L 33.144531 77.5 C 29.109375 77.589844 25.101562 77.292969 21.125 76.613281 C 21.164062 78.78125 21.191406 80.957031 21.253906 83.117188 C 21.328125 86.289062 21.386719 89.457031 21.425781 92.628906 C 22.53125 93.15625 23.6875 93.535156 24.890625 93.765625 C 26.929688 94.136719 28.980469 94.34375 31.050781 94.386719 C 37.089844 94.664062 43.488281 94.824219 50.613281 94.890625 C 53.90625 94.921875 57.199219 94.929688 60.496094 94.921875 C 62.148438 94.921875 63.792969 94.910156 65.441406 94.902344 C 70.636719 94.871094 75.914062 94.890625 81.027344 94.910156 C 88.765625 94.929688 96.757812 94.960938 104.617188 94.816406 C 109.652344 94.730469 114.234375 94.585938 118.65625 94.386719 C 120.726562 94.34375 122.78125 94.136719 124.816406 93.765625 C 126.019531 93.535156 127.175781 93.15625 128.285156 92.628906 C 128.332031 89.457031 128.390625 86.289062 128.457031 83.117188 C 128.511719 80.957031 128.542969 78.78125 128.585938 76.613281 C 124.609375 77.292969 120.605469 77.589844 116.570312 77.5 Z M 84.1875 77.722656 "/></g><g clip-rule="nonzero" clip-path="url(#2ec4cddb3c)"><path style=" stroke:none;fill-rule:nonzero;fill:#ffa800;fill-opacity:1;" d="M 128.40625 45.71875 C 128.367188 45.117188 128.347656 44.523438 128.335938 43.929688 C 125.542969 43.503906 122.738281 43.367188 119.914062 43.523438 C 118.320312 43.558594 116.683594 43.597656 115.054688 43.523438 C 111.40625 43.359375 107.671875 43.378906 104.0625 43.390625 C 102.902344 43.402344 101.738281 43.402344 100.574219 43.402344 L 49.117188 43.402344 C 47.960938 43.402344 46.789062 43.402344 45.625 43.390625 C 42.003906 43.371094 38.273438 43.351562 34.625 43.523438 C 33.007812 43.597656 31.355469 43.558594 29.761719 43.523438 C 26.941406 43.367188 24.132812 43.503906 21.339844 43.929688 C 21.328125 44.523438 21.308594 45.117188 21.28125 45.71875 C 21.023438 50.101562 20.894531 54.648438 20.910156 59.222656 C 20.910156 59.527344 20.917969 59.824219 20.917969 60.128906 C 24.109375 59.34375 27.347656 58.996094 30.632812 59.085938 L 30.957031 59.074219 C 37.277344 58.992188 43.808594 58.894531 50.238281 58.855469 C 53.542969 58.835938 56.847656 58.828125 60.152344 58.847656 C 61.1875 58.847656 62.21875 58.875 63.265625 58.902344 C 65.386719 58.960938 67.574219 59.019531 69.671875 58.867188 C 72.570312 58.710938 75.460938 58.734375 78.355469 58.941406 L 78.765625 58.960938 C 80.769531 59.066406 82.863281 59 84.878906 58.933594 C 86.0625 58.894531 87.246094 58.855469 88.410156 58.847656 C 94.148438 58.820312 100.28125 58.847656 108.304688 58.941406 C 111.886719 58.980469 115.46875 59.027344 119.046875 59.085938 C 122.328125 59 125.5625 59.34375 128.75 60.128906 C 128.75 59.820312 128.761719 59.515625 128.761719 59.222656 C 128.777344 54.65625 128.652344 50.109375 128.40625 45.71875 Z M 128.40625 45.71875 "/></g><g clip-rule="nonzero" clip-path="url(#82a1b61a92)"><path style=" stroke:none;fill-rule:nonzero;fill:#ffa800;fill-opacity:1;" d="M 113.984375 129.273438 C 111.242188 129.578125 108.453125 129.714844 105.75 129.835938 L 98.941406 130.171875 C 95.484375 130.335938 91.902344 130.507812 88.367188 130.609375 C 84.65625 130.707031 81.40625 130.726562 78.429688 130.640625 C 75.6875 130.5625 72.886719 130.609375 70.253906 130.660156 C 69.21875 130.6875 68.160156 130.695312 67.121094 130.695312 C 61.589844 130.695312 56.03125 130.429688 50.636719 130.164062 L 43.945312 129.839844 C 41.242188 129.710938 38.441406 129.582031 35.703125 129.273438 C 33.734375 129.066406 31.804688 128.769531 30.355469 128.539062 C 27.34375 128.160156 24.441406 127.382812 21.644531 126.210938 C 21.664062 130.566406 21.703125 134.953125 21.75 139.296875 C 21.710938 139.863281 21.789062 140.414062 21.988281 140.949219 C 22.492188 141.546875 23.125 141.949219 23.878906 142.152344 C 33.722656 145.851562 43.894531 148.058594 54.386719 148.769531 C 58.417969 149.117188 62.550781 149.34375 66.765625 149.476562 L 66.753906 142.351562 C 66.726562 141.40625 66.785156 140.46875 66.929688 139.535156 C 67.082031 138.648438 67.375 137.808594 67.804688 137.015625 C 68.230469 136.222656 68.773438 135.515625 69.429688 134.898438 C 70.089844 134.285156 70.828125 133.785156 71.644531 133.410156 C 72.464844 133.03125 73.320312 132.796875 74.214844 132.695312 C 74.308594 132.65625 74.402344 132.636719 74.503906 132.640625 L 74.53125 132.640625 C 74.636719 132.640625 74.742188 132.648438 74.847656 132.648438 C 74.953125 132.648438 75.046875 132.640625 75.152344 132.640625 L 75.179688 132.640625 C 75.28125 132.636719 75.375 132.65625 75.46875 132.695312 C 76.363281 132.796875 77.21875 133.035156 78.039062 133.410156 C 78.859375 133.789062 79.597656 134.285156 80.253906 134.902344 C 80.910156 135.515625 81.457031 136.222656 81.882812 137.015625 C 82.3125 137.808594 82.605469 138.648438 82.765625 139.535156 C 82.898438 140.464844 82.953125 141.402344 82.925781 142.34375 L 82.917969 149.4375 C 85.496094 149.363281 88.085938 149.246094 90.691406 149.09375 C 104.757812 148.253906 115.921875 146.039062 125.816406 142.140625 C 126.15625 142.117188 126.476562 142.023438 126.777344 141.855469 C 127.074219 141.691406 127.324219 141.472656 127.527344 141.199219 C 127.734375 140.925781 127.871094 140.621094 127.941406 140.285156 C 128.011719 139.953125 128.011719 139.621094 127.9375 139.285156 C 127.992188 134.941406 128.023438 130.558594 128.042969 126.203125 C 125.246094 127.375 122.347656 128.148438 119.339844 128.53125 C 117.878906 128.765625 115.960938 129.0625 113.984375 129.273438 Z M 113.984375 129.273438 "/></g><g clip-rule="nonzero" clip-path="url(#40960b5513)"><path style=" stroke:none;fill-rule:nonzero;fill:#ffa800;fill-opacity:1;" d="M 78.972656 135.683594 C 78.691406 135.429688 78.390625 135.203125 78.070312 135.003906 C 77.746094 134.808594 77.410156 134.640625 77.054688 134.503906 C 76.703125 134.371094 76.339844 134.265625 75.96875 134.199219 C 75.597656 134.128906 75.222656 134.09375 74.847656 134.09375 C 74.46875 134.09375 74.09375 134.128906 73.722656 134.199219 C 73.351562 134.265625 72.988281 134.371094 72.636719 134.503906 C 72.28125 134.640625 71.945312 134.808594 71.625 135.003906 C 71.300781 135.203125 71 135.429688 70.71875 135.683594 C 69.4375 136.769531 68.644531 138.136719 68.332031 139.789062 C 68.214844 140.636719 68.167969 141.492188 68.191406 142.347656 L 68.199219 149.511719 C 72.542969 149.617188 76.972656 149.609375 81.484375 149.492188 L 81.492188 142.347656 C 81.515625 141.492188 81.46875 140.636719 81.351562 139.789062 C 81.046875 138.136719 80.253906 136.765625 78.972656 135.683594 Z M 78.972656 135.683594 "/></g><g clip-rule="nonzero" clip-path="url(#3c199b1511)"><path style=" stroke:none;fill-rule:nonzero;fill:#ffa800;fill-opacity:1;" d="M 29.808594 42.089844 C 31.371094 42.125 32.996094 42.164062 34.570312 42.089844 C 38.25 41.925781 42.003906 41.945312 45.632812 41.960938 C 46.796875 41.96875 47.957031 41.96875 49.121094 41.96875 L 100.566406 41.96875 C 101.722656 41.96875 102.894531 41.96875 104.058594 41.960938 C 107.6875 41.941406 111.441406 41.921875 115.117188 42.089844 C 116.695312 42.164062 118.316406 42.125 119.890625 42.089844 C 122.71875 41.941406 125.53125 42.070312 128.335938 42.476562 C 128.457031 40.109375 128.121094 37.804688 127.324219 35.574219 C 126.992188 34.832031 126.570312 34.148438 126.0625 33.519531 C 125.847656 33.503906 125.664062 33.425781 125.507812 33.28125 C 121.800781 29.832031 117.625 27.101562 112.976562 25.089844 L 113.121094 29.632812 C 113.128906 29.902344 113.039062 30.128906 112.855469 30.324219 C 112.667969 30.519531 112.4375 30.617188 112.167969 30.617188 C 110.21875 30.617188 108.289062 30.65625 106.359375 30.695312 C 104.429688 30.730469 102.472656 30.769531 100.515625 30.769531 C 100.359375 30.773438 100.210938 30.738281 100.074219 30.667969 C 99.96875 30.628906 99.769531 30.550781 99.570312 30.484375 C 98.96875 30.273438 98.566406 30.132812 98.386719 29.804688 C 96.683594 27.59375 94.796875 25.550781 92.722656 23.683594 C 91.035156 22.289062 89.253906 21.035156 87.375 19.914062 C 86.855469 19.589844 86.339844 19.265625 85.824219 18.929688 C 85.613281 18.800781 85.410156 18.660156 85.230469 18.527344 C 84.617188 18.058594 83.941406 17.710938 83.207031 17.476562 C 82.128906 17.140625 81.027344 17.015625 79.902344 17.105469 C 78.5 17.191406 77.09375 17.199219 75.691406 17.132812 C 74.742188 17.105469 73.757812 17.066406 72.816406 17.09375 C 72.28125 17.105469 71.71875 17.09375 71.164062 17.085938 C 70.191406 17.050781 69.222656 17.082031 68.257812 17.179688 C 66.730469 17.46875 65.308594 18.027344 63.992188 18.851562 C 61.511719 20.261719 59.171875 21.871094 56.972656 23.683594 C 54.898438 25.550781 53.011719 27.59375 51.308594 29.804688 C 51.128906 30.132812 50.726562 30.273438 50.136719 30.484375 C 49.925781 30.550781 49.726562 30.628906 49.628906 30.667969 C 49.488281 30.738281 49.339844 30.773438 49.179688 30.769531 C 47.222656 30.769531 45.285156 30.734375 43.335938 30.695312 C 41.386719 30.65625 39.476562 30.617188 37.539062 30.617188 C 37.265625 30.617188 37.039062 30.519531 36.851562 30.324219 C 36.660156 30.132812 36.570312 29.902344 36.582031 29.632812 L 36.714844 25.089844 C 32.070312 27.101562 27.890625 29.828125 24.183594 33.269531 C 24.027344 33.417969 23.839844 33.496094 23.628906 33.507812 C 23.117188 34.136719 22.703125 34.820312 22.375 35.5625 C 21.570312 37.792969 21.230469 40.097656 21.363281 42.464844 C 24.167969 42.0625 26.980469 41.9375 29.808594 42.089844 Z M 29.808594 42.089844 "/></g><g clip-rule="nonzero" clip-path="url(#ebc10832a3)"><path style=" stroke:none;fill-rule:nonzero;fill:#ffa800;fill-opacity:1;" d="M 107.9375 112.589844 C 106.386719 112.648438 104.851562 112.664062 103.3125 112.683594 C 102.398438 112.695312 101.480469 112.714844 100.554688 112.730469 C 100.054688 112.753906 99.570312 112.839844 99.09375 112.980469 C 98.910156 113.027344 98.703125 113.074219 98.507812 113.125 C 97.953125 113.234375 97.386719 113.289062 96.820312 113.277344 C 96.511719 113.277344 96.207031 113.265625 95.914062 113.265625 C 95.621094 113.265625 95.359375 113.246094 95.09375 113.246094 L 84.363281 113.246094 C 82.386719 113.246094 80.273438 113.210938 77.742188 113.117188 C 77.152344 113.101562 76.609375 113.03125 76.082031 112.976562 C 75.042969 112.789062 74.003906 112.804688 72.96875 113.015625 C 72.273438 113.15625 71.574219 113.214844 70.867188 113.1875 C 70.667969 113.1875 70.457031 113.175781 70.238281 113.1875 L 68.917969 113.203125 C 67.726562 113.222656 66.523438 113.242188 65.328125 113.242188 L 54.609375 113.242188 C 54.332031 113.242188 54.054688 113.253906 53.777344 113.261719 C 52.902344 113.320312 52.035156 113.269531 51.171875 113.117188 C 50.972656 113.070312 50.785156 113.023438 50.589844 112.976562 C 50.113281 112.832031 49.625 112.75 49.128906 112.726562 C 48.210938 112.707031 47.285156 112.6875 46.367188 112.679688 C 44.832031 112.660156 43.292969 112.640625 41.753906 112.585938 C 36.871094 112.433594 32.007812 112.035156 27.164062 111.390625 C 25.242188 111.183594 23.375 110.746094 21.566406 110.082031 C 21.585938 112.46875 21.597656 114.84375 21.601562 117.207031 C 21.613281 119.652344 21.621094 122.132812 21.632812 124.617188 C 24.480469 125.917969 27.460938 126.746094 30.570312 127.109375 C 32.011719 127.347656 33.914062 127.636719 35.851562 127.84375 C 38.554688 128.140625 41.324219 128.273438 44.007812 128.410156 L 50.683594 128.722656 C 57.101562 129.039062 63.71875 129.355469 70.222656 129.222656 C 72.878906 129.171875 75.695312 129.125 78.464844 129.203125 C 81.417969 129.285156 84.644531 129.269531 88.332031 129.171875 C 91.847656 129.070312 95.417969 128.898438 98.875 128.734375 L 105.675781 128.410156 C 108.359375 128.28125 111.128906 128.140625 113.832031 127.84375 C 115.769531 127.636719 117.671875 127.347656 119.113281 127.109375 C 122.222656 126.75 125.203125 125.917969 128.050781 124.617188 C 128.070312 122.132812 128.078125 119.660156 128.089844 117.214844 C 128.097656 114.855469 128.109375 112.46875 128.117188 110.082031 C 126.304688 110.746094 124.441406 111.183594 122.519531 111.390625 C 117.679688 112.035156 112.816406 112.4375 107.9375 112.589844 Z M 107.9375 112.589844 "/></g></g></svg>