<svg xmlns="http://www.w3.org/2000/svg" xmlns:xlink="http://www.w3.org/1999/xlink" width="200" zoomAndPan="magnify" viewBox="0 0 150 157.92" height="200" preserveAspectRatio="xMidYMid meet" version="1.2"><defs><clipPath id="a6cad0506b"><path d="M 41.359375 144 L 78 144 L 78 149.925781 L 41.359375 149.925781 Z M 41.359375 144 "/></clipPath><clipPath id="4af7e69778"><path d="M 41.359375 64 L 78 64 L 78 70 L 41.359375 70 Z M 41.359375 64 "/></clipPath><clipPath id="c5276c2c1f"><path d="M 102 0 L 108.828125 0 L 108.828125 37 L 102 37 Z M 102 0 "/></clipPath></defs><g id="10a07e6caa"><path style=" stroke:none;fill-rule:nonzero;fill:#ffa800;fill-opacity:1;" d="M 69.859375 38.410156 C 69.859375 32.835938 74.351562 28.300781 79.859375 28.300781 L 96.410156 28.300781 L 96.410156 9.050781 L 72.34375 9.050781 C 59.488281 9.050781 49.035156 19.679688 49.035156 32.75 L 49.035156 57.765625 L 69.859375 57.765625 Z M 69.859375 38.410156 "/><g clip-rule="nonzero" clip-path="url(#a6cad0506b)"><path style=" stroke:none;fill-rule:nonzero;fill:#ffa800;fill-opacity:1;" d="M 45.726562 144.566406 L 41.558594 144.566406 L 41.558594 150.097656 L 77.3125 150.097656 L 77.3125 144.566406 L 73.164062 144.566406 C 73.140625 144.566406 73.121094 144.566406 73.097656 144.566406 L 45.792969 144.566406 C 45.769531 144.566406 45.75 144.566406 45.726562 144.566406 Z M 45.726562 144.566406 "/></g><g clip-rule="nonzero" clip-path="url(#4af7e69778)"><path style=" stroke:none;fill-rule:nonzero;fill:#ffa800;fill-opacity:1;" d="M 73.097656 69.800781 L 77.332031 69.800781 L 77.332031 64.269531 L 41.558594 64.269531 L 41.558594 69.800781 Z M 73.097656 69.800781 "/></g><g clip-rule="nonzero" clip-path="url(#c5276c2c1f)"><path style=" stroke:none;fill-rule:nonzero;fill:#ffa800;fill-opacity:1;" d="M 108.226562 0.0859375 L 102.890625 0.0859375 L 102.890625 36.488281 L 108.226562 36.488281 Z M 108.226562 0.0859375 "/></g><path style=" stroke:none;fill-rule:nonzero;fill:#ffa800;fill-opacity:1;" d="M 49.035156 76.300781 L 49.035156 138.0625 L 69.859375 138.0625 L 69.859375 76.300781 Z M 49.035156 76.300781 "/></g></svg>