<svg xmlns="http://www.w3.org/2000/svg" xmlns:xlink="http://www.w3.org/1999/xlink" width="200" zoomAndPan="magnify" viewBox="0 0 150 157.92" height="200" preserveAspectRatio="xMidYMid meet" version="1.2"><defs><clipPath id="22f494dec5"><path d="M 7.535156 99 L 142.464844 99 L 142.464844 149.175781 L 7.535156 149.175781 Z M 7.535156 99 "/></clipPath></defs><g id="acdc9b8ffa"><path style=" stroke:none;fill-rule:nonzero;fill:#ffa800;fill-opacity:1;" d="M 49.808594 64.730469 C 53.972656 68.203125 58.832031 70.023438 61.484375 70.023438 C 62.15625 70.023438 62.765625 69.625 63.035156 69.007812 C 63.304688 68.394531 63.183594 67.675781 62.726562 67.183594 C 61.890625 66.28125 59.582031 63.640625 58.929688 62.253906 C 57.972656 60.210938 57.875 58.132812 57.957031 56.75 C 57.980469 56.375 58.019531 56.027344 58.066406 55.710938 C 59 56.582031 60.230469 57.34375 61.675781 57.367188 C 63.859375 57.402344 65.667969 56.683594 66.910156 55.289062 C 68.511719 53.492188 69.078125 50.738281 68.597656 47.105469 C 68.136719 43.617188 70.222656 39.660156 72.152344 37.332031 C 72.605469 36.785156 73.035156 36.339844 73.425781 35.980469 C 73.28125 37.578125 73.21875 39.609375 73.445312 41.726562 C 73.746094 44.542969 74.507812 46.9375 75.699219 48.855469 C 77.261719 51.355469 79.53125 53.007812 82.441406 53.765625 C 85.066406 54.449219 87.746094 53.675781 90.1875 51.527344 C 90.644531 51.125 91.050781 50.710938 91.402344 50.316406 C 91.527344 50.816406 91.632812 51.449219 91.675781 52.21875 C 91.789062 54.238281 91.441406 56.488281 90.714844 58.46875 C 90.082031 60.058594 88.21875 64.277344 85.285156 67.050781 C 84.769531 67.539062 84.613281 68.296875 84.898438 68.945312 C 85.164062 69.566406 85.773438 69.960938 86.441406 69.960938 C 86.476562 69.960938 86.511719 69.957031 86.546875 69.957031 C 87.664062 69.886719 88.777344 69.730469 89.855469 69.492188 C 90.4375 69.367188 91.035156 69.25 91.59375 69.035156 C 98.015625 66.566406 103.210938 60.867188 103.746094 60.105469 C 104.644531 58.835938 105.386719 57.480469 105.957031 56.078125 C 108.425781 49.996094 107.707031 42.300781 106.101562 39.457031 C 105.601562 38.566406 104.953125 38.050781 104.183594 37.929688 C 103.558594 37.828125 102.933594 38.085938 102.558594 38.59375 C 102.550781 38.605469 101.683594 39.710938 100.277344 40.09375 C 99.851562 40.210938 99.398438 40.246094 99.035156 40.21875 C 99.234375 38.546875 99.453125 35.554688 98.960938 32.6875 C 98.550781 30.304688 97.363281 28.433594 96.441406 27.28125 C 95.351562 25.921875 94.027344 24.800781 92.804688 24.210938 C 91.699219 23.679688 90.75 23.621094 89.980469 24.042969 C 89.324219 24.402344 88.980469 25.136719 89.136719 25.871094 C 89.269531 26.519531 89.425781 28.421875 88.625 29.460938 C 88.371094 29.792969 87.960938 30.070312 87.550781 30.25 C 87.46875 29.039062 87.300781 27.28125 86.957031 25.183594 C 86.363281 21.527344 85.101562 16.101562 82.480469 11.035156 C 79.574219 5.417969 74.613281 1.175781 71.496094 0.320312 C 70.402344 0.0195312 69.472656 0.101562 68.734375 0.5625 C 68.027344 1 67.746094 1.890625 68.070312 2.65625 C 68.09375 2.707031 70.3125 8.046875 69.035156 14.308594 C 68.15625 18.628906 66.273438 20.960938 64.09375 23.660156 C 62.515625 25.617188 60.726562 27.835938 59.128906 31.039062 C 57.5625 34.179688 57.53125 37.480469 57.695312 39.394531 C 57.328125 39.367188 56.886719 39.273438 56.398438 39.085938 C 55.222656 38.636719 54.152344 37.816406 53.535156 36.886719 C 51.828125 34.324219 52.773438 30.714844 52.804688 30.597656 C 53.054688 29.753906 52.605469 28.871094 51.78125 28.558594 C 51.070312 28.289062 50.292969 28.441406 49.476562 29.015625 C 47.941406 30.089844 45.984375 32.71875 44.488281 35.710938 C 43.117188 38.460938 41.492188 42.789062 41.570312 47.78125 C 41.695312 56.210938 46.121094 61.652344 49.808594 64.730469 Z M 49.808594 64.730469 "/><path style=" stroke:none;fill-rule:nonzero;fill:#ffa800;fill-opacity:1;" d="M 112.703125 89.304688 L 119.039062 97.375 L 130.015625 70.023438 L 100.839844 74.191406 L 107.160156 82.246094 L 74.167969 107.945312 L 35.992188 76.6875 L 30.304688 83.632812 L 74.046875 119.445312 Z M 112.703125 89.304688 "/><g clip-rule="nonzero" clip-path="url(#22f494dec5)"><path style=" stroke:none;fill-rule:nonzero;fill:#ffa800;fill-opacity:1;" d="M 141.015625 112.71875 L 110.390625 99.457031 L 78.09375 124.636719 C 76.90625 125.566406 75.476562 126.027344 74.046875 126.027344 C 72.570312 126.027344 71.089844 125.53125 69.878906 124.539062 L 39.265625 99.476562 C 39.238281 99.488281 39.210938 99.5 39.183594 99.511719 L 8.691406 112.71875 C 8.019531 113.011719 7.574219 113.664062 7.554688 114.394531 C 7.535156 115.128906 7.9375 115.804688 8.59375 116.132812 L 74.007812 148.957031 C 74.273438 149.089844 74.5625 149.15625 74.851562 149.15625 C 75.140625 149.15625 75.429688 149.089844 75.699219 148.957031 L 141.109375 116.132812 C 141.765625 115.804688 142.171875 115.128906 142.148438 114.394531 C 142.128906 113.664062 141.6875 113.011719 141.015625 112.71875 Z M 141.015625 112.71875 "/></g><path style=" stroke:none;fill-rule:nonzero;fill:#ffa800;fill-opacity:1;" d="M 72.230469 85.042969 L 61.089844 89.914062 L 74.144531 100.34375 L 88.042969 90.070312 L 76.066406 85.015625 C 74.839844 84.5 73.453125 84.507812 72.230469 85.042969 Z M 72.230469 85.042969 "/></g></svg>