<svg xmlns="http://www.w3.org/2000/svg" xmlns:xlink="http://www.w3.org/1999/xlink" width="200" zoomAndPan="magnify" viewBox="0 0 150 157.92" height="200" preserveAspectRatio="xMidYMid meet" version="1.2"><defs><clipPath id="8b20bc9d03"><path d="M 0.0390625 89 L 149.960938 89 L 149.960938 128 L 0.0390625 128 Z M 0.0390625 89 "/></clipPath><clipPath id="597032a4d4"><path d="M 9 21.925781 L 110 21.925781 L 110 84 L 9 84 Z M 9 21.925781 "/></clipPath><clipPath id="5e013729e8"><path d="M 40 21.925781 L 77 21.925781 L 77 59 L 40 59 Z M 40 21.925781 "/></clipPath><clipPath id="93f91fac8c"><path d="M 80 21.925781 L 141 21.925781 L 141 84 L 80 84 Z M 80 21.925781 "/></clipPath></defs><g id="bdfdfb6d02"><g clip-rule="nonzero" clip-path="url(#8b20bc9d03)"><path style=" stroke:none;fill-rule:nonzero;fill:#ffa800;fill-opacity:1;" d="M 149.738281 127.945312 C 129.359375 121.648438 103.335938 117.878906 75.03125 117.878906 C 46.722656 117.878906 20.742188 121.648438 0.3125 127.945312 C 5.660156 106.039062 37.074219 89.226562 75.03125 89.226562 C 112.984375 89.226562 144.378906 106.039062 149.738281 127.945312 Z M 149.738281 127.945312 "/></g><g clip-rule="nonzero" clip-path="url(#597032a4d4)"><path style=" stroke:none;fill-rule:nonzero;fill:#ffa800;fill-opacity:1;" d="M 80.921875 36.457031 L 88.46875 42.816406 L 63.875 73.6875 L 18.570312 21.925781 L 9.820312 21.925781 L 64.128906 83.960938 L 93.515625 47.0625 L 100.453125 52.914062 L 109.847656 21.925781 Z M 80.921875 36.457031 "/></g><g clip-rule="nonzero" clip-path="url(#5e013729e8)"><path style=" stroke:none;fill-rule:nonzero;fill:#ffa800;fill-opacity:1;" d="M 48.945312 21.925781 L 76.34375 53.21875 L 72.1875 58.464844 L 40.203125 21.925781 Z M 48.945312 21.925781 "/></g><g clip-rule="nonzero" clip-path="url(#93f91fac8c)"><path style=" stroke:none;fill-rule:nonzero;fill:#ffa800;fill-opacity:1;" d="M 140.230469 21.925781 L 130.828125 52.902344 L 123.886719 47.0625 L 94.503906 83.960938 L 80.5625 68.035156 L 84.730469 62.796875 L 94.257812 73.679688 L 118.855469 42.824219 L 111.292969 36.457031 Z M 140.230469 21.925781 "/></g></g></svg>