<svg xmlns="http://www.w3.org/2000/svg" xmlns:xlink="http://www.w3.org/1999/xlink" width="200" zoomAndPan="magnify" viewBox="0 0 150 157.92" height="200" preserveAspectRatio="xMidYMid meet" version="1.2"><defs><clipPath id="3c09944922"><path d="M 17 21.457031 L 83 21.457031 L 83 113 L 17 113 Z M 17 21.457031 "/></clipPath><clipPath id="d8fdbe995b"><path d="M 0.0390625 93 L 13 93 L 13 117 L 0.0390625 117 Z M 0.0390625 93 "/></clipPath><clipPath id="9619ac0860"><path d="M 67 37 L 133 37 L 133 128.652344 L 67 128.652344 Z M 67 37 "/></clipPath><clipPath id="c14b3bbf96"><path d="M 137 32 L 149.960938 32 L 149.960938 57 L 137 57 Z M 137 32 "/></clipPath></defs><g id="ce7f07e9f6"><g clip-rule="nonzero" clip-path="url(#3c09944922)"><path style=" stroke:none;fill-rule:nonzero;fill:#ffa800;fill-opacity:1;" d="M 67.964844 47.5 L 67.964844 64.171875 L 82.050781 64.171875 L 82.050781 47.5 C 82.050781 33.144531 70.363281 21.457031 56.007812 21.457031 C 41.621094 21.457031 29.933594 33.144531 29.933594 47.5 L 29.933594 90.765625 C 29.933594 94.929688 26.558594 98.308594 22.394531 98.308594 L 17.015625 98.308594 L 17.015625 112.394531 L 22.394531 112.394531 C 34.320312 112.394531 44.019531 102.691406 44.019531 90.765625 L 44.019531 47.5 C 44.019531 40.90625 49.382812 35.527344 56.007812 35.527344 C 62.585938 35.542969 67.964844 40.90625 67.964844 47.5 Z M 67.964844 47.5 "/></g><g clip-rule="nonzero" clip-path="url(#d8fdbe995b)"><path style=" stroke:none;fill-rule:nonzero;fill:#ffa800;fill-opacity:1;" d="M 9.460938 93.78125 L 3.007812 93.78125 C 1.382812 93.78125 0.0742188 95.089844 0.0742188 96.714844 L 0.0742188 114.015625 C 0.0742188 115.640625 1.382812 116.953125 3.007812 116.953125 L 9.460938 116.953125 C 11.085938 116.953125 12.394531 115.640625 12.394531 114.015625 L 12.394531 96.714844 C 12.378906 95.089844 11.070312 93.78125 9.460938 93.78125 Z M 9.460938 93.78125 "/></g><g clip-rule="nonzero" clip-path="url(#9619ac0860)"><path style=" stroke:none;fill-rule:nonzero;fill:#ffa800;fill-opacity:1;" d="M 105.996094 59.15625 L 105.996094 102.425781 C 105.996094 109.015625 100.632812 114.394531 94.023438 114.394531 C 87.398438 114.394531 82.035156 109.03125 82.035156 102.425781 L 82.035156 85.75 L 67.949219 85.75 L 67.949219 102.425781 C 67.949219 116.777344 79.636719 128.464844 94.023438 128.464844 C 108.394531 128.464844 120.066406 116.777344 120.066406 102.425781 L 120.066406 59.15625 C 120.066406 54.992188 123.441406 51.617188 127.621094 51.617188 L 132.96875 51.617188 L 132.96875 37.53125 L 127.621094 37.53125 C 115.695312 37.53125 105.996094 47.230469 105.996094 59.15625 Z M 105.996094 59.15625 "/></g><g clip-rule="nonzero" clip-path="url(#c14b3bbf96)"><path style=" stroke:none;fill-rule:nonzero;fill:#ffa800;fill-opacity:1;" d="M 146.992188 32.972656 L 140.539062 32.972656 C 138.914062 32.972656 137.605469 34.28125 137.605469 35.90625 L 137.605469 53.210938 C 137.605469 54.835938 138.914062 56.144531 140.539062 56.144531 L 146.992188 56.144531 C 148.617188 56.144531 149.925781 54.835938 149.925781 53.210938 L 149.925781 35.90625 C 149.925781 34.296875 148.617188 32.972656 146.992188 32.972656 Z M 146.992188 32.972656 "/></g><path style=" stroke:none;fill-rule:nonzero;fill:#ffa800;fill-opacity:1;" d="M 86.578125 78.179688 L 86.578125 71.726562 C 86.578125 70.105469 85.269531 68.792969 83.644531 68.792969 L 66.339844 68.792969 C 64.714844 68.792969 63.40625 70.105469 63.40625 71.726562 L 63.40625 78.179688 C 63.40625 79.804688 64.714844 81.113281 66.339844 81.113281 L 83.644531 81.113281 C 85.269531 81.113281 86.578125 79.804688 86.578125 78.179688 Z M 86.578125 78.179688 "/></g></svg>