<svg xmlns="http://www.w3.org/2000/svg" xmlns:xlink="http://www.w3.org/1999/xlink" width="200" zoomAndPan="magnify" viewBox="0 0 150 157.92" height="200" preserveAspectRatio="xMidYMid meet" version="1.2"><defs><clipPath id="0653d08ae2"><path d="M 2.660156 6 L 147.339844 6 L 147.339844 144 L 2.660156 144 Z M 2.660156 6 "/></clipPath></defs><g id="b62bbcbe21"><g clip-rule="nonzero" clip-path="url(#0653d08ae2)"><path style=" stroke:none;fill-rule:nonzero;fill:#ffa800;fill-opacity:1;" d="M 146.902344 112.445312 C 147.046875 112.863281 147.109375 113.296875 147.085938 113.742188 C 147.058594 114.183594 146.953125 114.609375 146.757812 115.007812 C 146.566406 115.410156 146.304688 115.757812 145.972656 116.054688 C 145.640625 116.351562 145.261719 116.574219 144.84375 116.722656 C 144.421875 116.867188 143.988281 116.929688 143.546875 116.902344 C 143.101562 116.878906 142.679688 116.769531 142.277344 116.574219 C 141.875 116.382812 141.527344 116.121094 141.230469 115.789062 C 140.933594 115.453125 140.714844 115.078125 140.566406 114.65625 L 138.6875 109.277344 C 138.523438 108.796875 138.242188 108.398438 137.839844 108.085938 C 137.441406 107.773438 136.984375 107.59375 136.480469 107.550781 C 135.972656 107.507812 135.496094 107.601562 135.046875 107.839844 C 134.597656 108.078125 134.25 108.421875 134.003906 108.867188 C 133.078125 110.5 132.089844 112.09375 131.035156 113.648438 C 129.980469 115.203125 128.863281 116.710938 127.683594 118.171875 C 126.503906 119.632812 125.265625 121.042969 123.972656 122.402344 C 122.675781 123.761719 121.328125 125.066406 119.925781 126.316406 C 118.523438 127.566406 117.074219 128.757812 115.574219 129.886719 C 114.074219 131.015625 112.527344 132.082031 110.941406 133.085938 C 109.355469 134.089844 107.726562 135.027344 106.0625 135.894531 C 104.398438 136.765625 102.703125 137.566406 100.972656 138.296875 C 99.242188 139.027344 97.484375 139.683594 95.699219 140.269531 C 93.917969 140.855469 92.109375 141.367188 90.285156 141.804688 C 88.457031 142.242188 86.617188 142.605469 84.761719 142.890625 C 82.90625 143.175781 81.039062 143.386719 79.167969 143.519531 C 77.292969 143.652344 75.417969 143.707031 73.539062 143.6875 C 71.664062 143.667969 69.789062 143.570312 67.917969 143.394531 C 66.050781 143.21875 64.191406 142.96875 62.339844 142.640625 C 60.492188 142.3125 58.660156 141.910156 56.84375 141.433594 C 55.027344 140.953125 53.234375 140.402344 51.464844 139.777344 C 49.691406 139.152344 47.949219 138.453125 46.238281 137.683594 C 44.523438 136.917969 42.84375 136.078125 41.199219 135.171875 C 39.554688 134.265625 37.949219 133.292969 36.386719 132.253906 C 34.820312 131.21875 33.300781 130.117188 31.828125 128.953125 C 30.351562 127.789062 28.929688 126.566406 27.554688 125.289062 C 26.179688 124.007812 24.863281 122.671875 23.597656 121.285156 C 22.332031 119.894531 21.128906 118.457031 19.980469 116.972656 C 18.835938 115.484375 17.75 113.949219 16.730469 112.375 C 15.710938 110.796875 14.757812 109.183594 13.871094 107.527344 C 12.980469 105.871094 12.164062 104.183594 11.414062 102.460938 C 10.664062 100.738281 9.988281 98.988281 9.382812 97.210938 C 8.777344 95.433594 8.246094 93.632812 7.789062 91.8125 C 7.332031 89.992188 6.949219 88.15625 6.644531 86.300781 C 6.335938 84.449219 6.109375 82.585938 5.953125 80.714844 C 5.800781 78.84375 5.722656 76.96875 5.726562 75.089844 C 5.726562 74.648438 5.808594 74.21875 5.980469 73.808594 C 6.148438 73.398438 6.390625 73.039062 6.707031 72.722656 C 7.019531 72.410156 7.382812 72.167969 7.789062 72 C 8.199219 71.828125 8.628906 71.742188 9.070312 71.742188 C 9.515625 71.742188 9.941406 71.828125 10.351562 72 C 10.761719 72.167969 11.125 72.410156 11.4375 72.722656 C 11.75 73.039062 11.992188 73.398438 12.164062 73.808594 C 12.332031 74.21875 12.417969 74.648438 12.417969 75.089844 C 12.40625 76.761719 12.460938 78.433594 12.585938 80.101562 C 12.710938 81.769531 12.902344 83.429688 13.160156 85.082031 C 13.417969 86.738281 13.746094 88.375 14.136719 90.003906 C 14.527344 91.628906 14.984375 93.234375 15.507812 94.824219 C 16.03125 96.414062 16.617188 97.980469 17.265625 99.519531 C 17.917969 101.0625 18.628906 102.574219 19.398438 104.058594 C 20.171875 105.542969 21.003906 106.992188 21.894531 108.410156 C 22.785156 109.824219 23.730469 111.203125 24.734375 112.542969 C 25.734375 113.882812 26.789062 115.179688 27.898438 116.433594 C 29.003906 117.6875 30.160156 118.894531 31.367188 120.050781 C 32.574219 121.210938 33.824219 122.320312 35.121094 123.378906 C 36.414062 124.4375 37.75 125.441406 39.128906 126.390625 C 40.503906 127.339844 41.917969 128.234375 43.367188 129.066406 C 44.820312 129.902344 46.300781 130.675781 47.8125 131.390625 C 49.324219 132.105469 50.863281 132.757812 52.429688 133.347656 C 53.996094 133.9375 55.582031 134.460938 57.191406 134.921875 C 58.796875 135.382812 60.421875 135.777344 62.0625 136.105469 C 63.703125 136.433594 65.355469 136.695312 67.015625 136.890625 C 68.675781 137.085938 70.34375 137.210938 72.015625 137.269531 C 73.6875 137.332031 75.359375 137.320312 77.03125 137.246094 C 78.699219 137.167969 80.367188 137.023438 82.023438 136.8125 C 83.683594 136.601562 85.332031 136.320312 86.96875 135.976562 C 88.605469 135.628906 90.226562 135.21875 91.828125 134.742188 C 93.433594 134.265625 95.015625 133.722656 96.574219 133.117188 C 98.132812 132.511719 99.664062 131.84375 101.167969 131.113281 C 102.675781 130.382812 104.148438 129.59375 105.589844 128.742188 C 107.03125 127.894531 108.433594 126.984375 109.800781 126.023438 C 111.167969 125.058594 112.492188 124.039062 113.777344 122.96875 C 115.0625 121.898438 116.300781 120.773438 117.496094 119.601562 C 118.6875 118.429688 119.832031 117.210938 120.925781 115.945312 C 122.023438 114.683594 123.0625 113.375 124.050781 112.023438 C 125.039062 110.675781 125.972656 109.289062 126.847656 107.863281 C 127.148438 107.386719 127.277344 106.871094 127.242188 106.308594 C 127.203125 105.75 127.003906 105.253906 126.640625 104.824219 C 126.464844 104.613281 126.261719 104.4375 126.027344 104.292969 C 125.792969 104.148438 125.542969 104.042969 125.277344 103.980469 C 125.011719 103.914062 124.742188 103.890625 124.46875 103.914062 C 124.195312 103.933594 123.933594 103.996094 123.679688 104.101562 L 119.484375 105.984375 C 119.074219 106.152344 118.644531 106.238281 118.199219 106.238281 C 117.753906 106.242188 117.324219 106.15625 116.914062 105.984375 C 116.5 105.816406 116.136719 105.574219 115.820312 105.257812 C 115.507812 104.945312 115.261719 104.582031 115.09375 104.167969 C 114.921875 103.757812 114.835938 103.328125 114.835938 102.882812 C 114.835938 102.4375 114.921875 102.007812 115.089844 101.597656 C 115.261719 101.183594 115.503906 100.820312 115.820312 100.507812 C 116.132812 100.191406 116.5 99.949219 116.910156 99.777344 L 129.78125 94.398438 C 130.976562 93.890625 132.226562 93.636719 133.527344 93.636719 C 134.828125 93.636719 136.074219 93.890625 137.273438 94.398438 C 138.46875 94.933594 139.515625 95.683594 140.40625 96.644531 C 141.300781 97.605469 141.972656 98.699219 142.421875 99.933594 Z M 12.574219 54.1875 C 13.769531 54.695312 15.019531 54.949219 16.320312 54.949219 C 17.617188 54.949219 18.867188 54.695312 20.0625 54.1875 L 33.0625 48.832031 C 33.476562 48.660156 33.839844 48.417969 34.152344 48.105469 C 34.46875 47.789062 34.710938 47.425781 34.878906 47.015625 C 35.050781 46.601562 35.136719 46.175781 35.136719 45.730469 C 35.136719 45.28125 35.050781 44.855469 34.878906 44.445312 C 34.707031 44.03125 34.464844 43.667969 34.152344 43.355469 C 33.835938 43.039062 33.472656 42.796875 33.058594 42.628906 C 32.648438 42.457031 32.21875 42.371094 31.773438 42.371094 C 31.328125 42.371094 30.902344 42.457031 30.488281 42.628906 L 25.90625 44.535156 C 25.652344 44.640625 25.386719 44.707031 25.109375 44.730469 C 24.832031 44.753906 24.558594 44.730469 24.289062 44.664062 C 24.019531 44.597656 23.765625 44.492188 23.53125 44.34375 C 23.296875 44.199219 23.089844 44.015625 22.914062 43.800781 C 22.738281 43.585938 22.597656 43.351562 22.5 43.09375 C 22.398438 42.832031 22.34375 42.566406 22.328125 42.289062 C 22.316406 42.011719 22.347656 41.738281 22.421875 41.46875 C 22.496094 41.203125 22.613281 40.953125 22.765625 40.722656 C 23.675781 39.339844 24.636719 37.996094 25.652344 36.6875 C 26.664062 35.382812 27.730469 34.117188 28.847656 32.898438 C 29.964844 31.675781 31.128906 30.503906 32.339844 29.375 C 33.550781 28.25 34.804688 27.171875 36.101562 26.144531 C 37.398438 25.121094 38.734375 24.148438 40.113281 23.226562 C 41.488281 22.308594 42.898438 21.445312 44.34375 20.640625 C 45.789062 19.835938 47.261719 19.085938 48.765625 18.402344 C 50.273438 17.714844 51.800781 17.085938 53.355469 16.523438 C 54.910156 15.957031 56.488281 15.457031 58.082031 15.019531 C 59.679688 14.582031 61.289062 14.207031 62.914062 13.898438 C 64.539062 13.589844 66.175781 13.347656 67.820312 13.171875 C 69.464844 12.992188 71.113281 12.882812 72.765625 12.839844 C 74.421875 12.792969 76.074219 12.816406 77.726562 12.902344 C 79.378906 12.992188 81.023438 13.144531 82.664062 13.367188 C 84.304688 13.585938 85.929688 13.871094 87.546875 14.222656 C 89.164062 14.574219 90.765625 14.988281 92.347656 15.46875 C 93.929688 15.949219 95.492188 16.492188 97.03125 17.097656 C 98.570312 17.703125 100.085938 18.367188 101.570312 19.09375 C 103.058594 19.820312 104.511719 20.605469 105.9375 21.449219 C 107.359375 22.292969 108.746094 23.191406 110.097656 24.148438 C 111.449219 25.101562 112.757812 26.109375 114.027344 27.167969 C 115.296875 28.230469 116.523438 29.339844 117.703125 30.496094 C 118.886719 31.65625 120.019531 32.859375 121.101562 34.109375 C 122.1875 35.359375 123.21875 36.652344 124.199219 37.984375 C 125.179688 39.316406 126.105469 40.683594 126.976562 42.09375 C 127.847656 43.5 128.660156 44.9375 129.414062 46.410156 C 130.167969 47.882812 130.863281 49.382812 131.496094 50.910156 C 132.132812 52.4375 132.703125 53.988281 133.214844 55.5625 C 133.722656 57.136719 134.167969 58.730469 134.550781 60.339844 C 134.933594 61.949219 135.25 63.570312 135.5 65.207031 C 135.753906 66.839844 135.9375 68.484375 136.058594 70.132812 C 136.175781 71.785156 136.230469 73.4375 136.21875 75.089844 C 136.253906 75.511719 136.367188 75.910156 136.550781 76.289062 C 136.738281 76.667969 136.988281 76.996094 137.296875 77.28125 C 137.609375 77.566406 137.960938 77.785156 138.355469 77.941406 C 138.746094 78.09375 139.15625 78.167969 139.578125 78.167969 C 140 78.167969 140.40625 78.09375 140.800781 77.941406 C 141.191406 77.785156 141.542969 77.566406 141.855469 77.28125 C 142.164062 76.996094 142.414062 76.667969 142.601562 76.289062 C 142.789062 75.910156 142.898438 75.511719 142.9375 75.089844 C 142.933594 73.238281 142.855469 71.386719 142.703125 69.542969 C 142.554688 67.695312 142.328125 65.855469 142.027344 64.027344 C 141.722656 62.199219 141.351562 60.386719 140.902344 58.589844 C 140.453125 56.789062 139.933594 55.011719 139.34375 53.257812 C 138.75 51.5 138.089844 49.773438 137.359375 48.070312 C 136.625 46.367188 135.828125 44.699219 134.960938 43.058594 C 134.09375 41.421875 133.160156 39.824219 132.164062 38.261719 C 131.167969 36.699219 130.109375 35.179688 128.988281 33.703125 C 127.871094 32.226562 126.691406 30.796875 125.457031 29.417969 C 124.222656 28.035156 122.933594 26.707031 121.589844 25.429688 C 120.246094 24.152344 118.855469 22.933594 117.414062 21.769531 C 115.96875 20.605469 114.484375 19.5 112.953125 18.457031 C 111.421875 17.414062 109.851562 16.433594 108.238281 15.519531 C 106.628906 14.601562 104.984375 13.753906 103.304688 12.96875 C 101.625 12.1875 99.917969 11.472656 98.179688 10.828125 C 96.441406 10.183594 94.679688 9.609375 92.898438 9.109375 C 91.113281 8.605469 89.3125 8.175781 87.496094 7.820312 C 85.675781 7.464844 83.847656 7.183594 82.003906 6.976562 C 80.164062 6.765625 78.316406 6.632812 76.464844 6.574219 C 74.613281 6.515625 72.761719 6.535156 70.910156 6.625 C 69.058594 6.71875 67.214844 6.882812 65.378906 7.125 C 63.542969 7.367188 61.71875 7.679688 59.90625 8.070312 C 58.09375 8.457031 56.300781 8.917969 54.527344 9.453125 C 52.75 9.988281 51 10.59375 49.277344 11.269531 C 47.550781 11.945312 45.855469 12.6875 44.191406 13.5 C 42.527344 14.316406 40.894531 15.195312 39.300781 16.140625 C 37.707031 17.082031 36.15625 18.089844 34.644531 19.164062 C 33.128906 20.234375 31.664062 21.363281 30.242188 22.554688 C 28.824219 23.742188 27.453125 24.988281 26.132812 26.289062 C 24.8125 27.589844 23.546875 28.941406 22.335938 30.34375 C 21.128906 31.746094 19.976562 33.195312 18.882812 34.695312 C 17.789062 36.191406 16.757812 37.726562 15.789062 39.308594 C 15.523438 39.75 15.152344 40.082031 14.6875 40.300781 C 14.21875 40.519531 13.726562 40.59375 13.214844 40.519531 C 12.722656 40.46875 12.28125 40.289062 11.890625 39.980469 C 11.5 39.675781 11.21875 39.285156 11.054688 38.820312 L 9.433594 33.902344 C 9.285156 33.480469 9.0625 33.105469 8.765625 32.773438 C 8.472656 32.441406 8.121094 32.179688 7.722656 31.988281 C 7.320312 31.792969 6.898438 31.683594 6.453125 31.660156 C 6.011719 31.632812 5.578125 31.695312 5.160156 31.84375 C 4.738281 31.988281 4.363281 32.210938 4.03125 32.507812 C 3.699219 32.804688 3.4375 33.152344 3.242188 33.550781 C 3.050781 33.953125 2.941406 34.375 2.917969 34.820312 C 2.890625 35.261719 2.953125 35.695312 3.097656 36.117188 L 7.5 48.652344 C 7.933594 49.882812 8.589844 50.976562 9.46875 51.9375 C 10.351562 52.898438 11.386719 53.648438 12.574219 54.1875 Z M 82.878906 41.625 L 98.761719 62.683594 C 99.609375 63.816406 100.375 65 101.066406 66.234375 C 101.757812 67.46875 102.363281 68.742188 102.886719 70.054688 C 103.40625 71.371094 103.839844 72.710938 104.183594 74.085938 C 104.527344 75.457031 104.78125 76.84375 104.941406 78.25 C 105.101562 79.652344 105.171875 81.0625 105.144531 82.476562 C 105.121094 83.890625 105.003906 85.296875 104.792969 86.695312 C 104.582031 88.09375 104.277344 89.472656 103.886719 90.832031 C 103.492188 92.1875 103.011719 93.515625 102.441406 94.808594 C 101.9375 96.007812 101.359375 97.164062 100.699219 98.285156 C 100.042969 99.402344 99.3125 100.476562 98.511719 101.496094 C 97.710938 102.519531 96.84375 103.484375 95.914062 104.386719 C 94.984375 105.292969 93.996094 106.136719 92.953125 106.910156 C 91.910156 107.683594 90.824219 108.386719 89.6875 109.011719 C 88.550781 109.640625 87.378906 110.191406 86.167969 110.664062 C 84.957031 111.136719 83.722656 111.523438 82.460938 111.832031 C 81.199219 112.136719 79.921875 112.359375 78.628906 112.496094 C 76.210938 112.726562 73.789062 112.726562 71.371094 112.496094 C 70.078125 112.359375 68.800781 112.136719 67.539062 111.832031 C 66.277344 111.523438 65.042969 111.136719 63.832031 110.664062 C 62.621094 110.191406 61.449219 109.640625 60.3125 109.011719 C 59.175781 108.386719 58.089844 107.683594 57.046875 106.910156 C 56.003906 106.136719 55.015625 105.292969 54.085938 104.386719 C 53.15625 103.484375 52.289062 102.519531 51.488281 101.496094 C 50.6875 100.476562 49.957031 99.402344 49.300781 98.285156 C 48.640625 97.164062 48.0625 96.007812 47.558594 94.808594 C 46.988281 93.515625 46.507812 92.1875 46.113281 90.832031 C 45.722656 89.472656 45.417969 88.09375 45.207031 86.695312 C 44.996094 85.296875 44.878906 83.890625 44.855469 82.476562 C 44.828125 81.0625 44.898438 79.652344 45.058594 78.25 C 45.21875 76.84375 45.472656 75.457031 45.816406 74.085938 C 46.160156 72.710938 46.59375 71.371094 47.113281 70.054688 C 47.636719 68.742188 48.242188 67.46875 48.933594 66.234375 C 49.625 65 50.390625 63.816406 51.238281 62.683594 L 67.121094 41.625 C 67.351562 41.320312 67.597656 41.03125 67.863281 40.757812 C 68.125 40.484375 68.402344 40.226562 68.695312 39.984375 C 68.988281 39.738281 69.292969 39.515625 69.613281 39.308594 C 69.933594 39.101562 70.261719 38.914062 70.601562 38.742188 C 70.941406 38.574219 71.292969 38.425781 71.648438 38.296875 C 72.007812 38.167969 72.371094 38.058594 72.742188 37.972656 C 73.113281 37.886719 73.484375 37.820312 73.863281 37.777344 C 74.242188 37.734375 74.621094 37.710938 75 37.710938 C 75.378906 37.710938 75.757812 37.734375 76.136719 37.777344 C 76.515625 37.820312 76.886719 37.886719 77.257812 37.972656 C 77.628906 38.058594 77.992188 38.167969 78.351562 38.296875 C 78.707031 38.425781 79.058594 38.574219 79.398438 38.742188 C 79.738281 38.914062 80.066406 39.101562 80.386719 39.308594 C 80.707031 39.515625 81.011719 39.738281 81.304688 39.984375 C 81.597656 40.226562 81.875 40.484375 82.136719 40.757812 C 82.402344 41.03125 82.648438 41.320312 82.878906 41.625 Z M 75.667969 101.8125 C 73.601562 101.222656 71.636719 100.394531 69.765625 99.335938 C 67.894531 98.273438 66.179688 97.007812 64.609375 95.539062 C 63.042969 94.066406 61.671875 92.433594 60.496094 90.632812 C 59.316406 88.835938 58.371094 86.921875 57.648438 84.898438 C 57.539062 84.574219 57.371094 84.285156 57.144531 84.027344 C 56.917969 83.769531 56.648438 83.566406 56.339844 83.414062 C 56.035156 83.265625 55.707031 83.175781 55.367188 83.15625 C 55.023438 83.132812 54.691406 83.179688 54.367188 83.289062 C 54.042969 83.402344 53.75 83.570312 53.496094 83.796875 C 53.238281 84.023438 53.035156 84.289062 52.882812 84.597656 C 52.730469 84.90625 52.644531 85.230469 52.625 85.574219 C 52.601562 85.914062 52.648438 86.246094 52.757812 86.570312 C 53.605469 89 54.730469 91.289062 56.128906 93.441406 C 57.53125 95.597656 59.167969 97.554688 61.042969 99.3125 C 62.914062 101.074219 64.972656 102.582031 67.210938 103.847656 C 69.449219 105.109375 71.804688 106.085938 74.277344 106.78125 C 74.503906 106.820312 74.726562 106.820312 74.949219 106.78125 C 75.289062 106.824219 75.625 106.800781 75.957031 106.710938 C 76.289062 106.621094 76.59375 106.472656 76.867188 106.261719 C 77.136719 106.050781 77.359375 105.796875 77.53125 105.5 C 77.703125 105.203125 77.8125 104.882812 77.855469 104.539062 C 77.898438 104.199219 77.878906 103.863281 77.789062 103.53125 C 77.699219 103.199219 77.546875 102.894531 77.339844 102.625 C 77.128906 102.351562 76.875 102.128906 76.578125 101.957031 C 76.277344 101.785156 75.960938 101.675781 75.617188 101.632812 Z M 75.667969 101.8125 "/></g></g></svg>