<svg xmlns="http://www.w3.org/2000/svg" xmlns:xlink="http://www.w3.org/1999/xlink" width="200" zoomAndPan="magnify" viewBox="0 0 150 157.92" height="200" preserveAspectRatio="xMidYMid meet" version="1.2"><defs><clipPath id="9358b915f0"><path d="M 3.128906 74 L 52 74 L 52 110 L 3.128906 110 Z M 3.128906 74 "/></clipPath><clipPath id="324caf8a6b"><path d="M 53 119 L 104 119 L 104 149.925781 L 53 149.925781 Z M 53 119 "/></clipPath></defs><g id="5e2496f0ac"><path style=" stroke:none;fill-rule:nonzero;fill:#ffa800;fill-opacity:1;" d="M 58.351562 77.171875 L 45.425781 110.5625 L 76.5625 114.015625 L 87.199219 78.921875 Z M 58.351562 77.171875 "/><path style=" stroke:none;fill-rule:nonzero;fill:#ffa800;fill-opacity:1;" d="M 71.300781 43.722656 L 60.71875 71.058594 L 89.0625 72.777344 L 97.863281 43.722656 Z M 71.300781 43.722656 "/><path style=" stroke:none;fill-rule:nonzero;fill:#ffa800;fill-opacity:1;" d="M 95.472656 73.164062 L 130.878906 75.304688 L 137.898438 43.722656 L 104.390625 43.722656 Z M 95.472656 73.164062 "/><path style=" stroke:none;fill-rule:nonzero;fill:#ffa800;fill-opacity:1;" d="M 64.605469 43.722656 L 30.535156 43.722656 L 18.960938 68.527344 L 54.171875 70.664062 Z M 64.605469 43.722656 "/><path style=" stroke:none;fill-rule:nonzero;fill:#ffa800;fill-opacity:1;" d="M 106.285156 37.476562 L 139.285156 37.476562 L 146.769531 3.792969 C 146.980469 2.828125 146.730469 1.832031 146.089844 1.082031 C 145.445312 0.332031 144.496094 -0.0546875 143.507812 0 L 117.105469 1.761719 Z M 106.285156 37.476562 "/><g clip-rule="nonzero" clip-path="url(#9358b915f0)"><path style=" stroke:none;fill-rule:nonzero;fill:#ffa800;fill-opacity:1;" d="M 51.804688 76.773438 L 16.117188 74.613281 L 3.453125 101.75 C 3.03125 102.660156 3.066406 103.722656 3.5625 104.597656 C 4.054688 105.476562 4.941406 106.058594 5.941406 106.171875 L 39 109.84375 Z M 51.804688 76.773438 "/></g><path style=" stroke:none;fill-rule:nonzero;fill:#ffa800;fill-opacity:1;" d="M 93.609375 79.308594 L 82.878906 114.722656 L 118.390625 118.671875 C 118.507812 118.683594 118.621094 118.691406 118.742188 118.691406 C 120.183594 118.691406 121.46875 117.683594 121.789062 116.242188 L 129.511719 81.484375 Z M 93.609375 79.308594 "/><path style=" stroke:none;fill-rule:nonzero;fill:#ffa800;fill-opacity:1;" d="M 67.023438 37.476562 L 79.886719 4.242188 L 49.8125 6.246094 C 48.675781 6.320312 47.671875 7.015625 47.1875 8.046875 L 33.453125 37.476562 C 33.453125 37.476562 67.023438 37.476562 67.023438 37.476562 Z M 67.023438 37.476562 "/><path style=" stroke:none;fill-rule:nonzero;fill:#ffa800;fill-opacity:1;" d="M 99.757812 37.476562 L 110.445312 2.207031 L 86.761719 3.785156 L 73.71875 37.476562 Z M 99.757812 37.476562 "/><g clip-rule="nonzero" clip-path="url(#324caf8a6b)"><path style=" stroke:none;fill-rule:nonzero;fill:#ffa800;fill-opacity:1;" d="M 103.085938 145.824219 C 102.648438 138.722656 97.433594 132.894531 90.625 131.507812 L 90.625 124.667969 C 90.625 123.074219 89.429688 121.738281 87.84375 121.5625 L 69.101562 119.484375 C 68.234375 119.402344 67.339844 119.671875 66.671875 120.265625 C 66.011719 120.859375 65.628906 121.699219 65.628906 122.59375 L 65.628906 131.507812 C 58.507812 132.957031 53.136719 139.265625 53.136719 146.808594 C 53.136719 148.53125 54.535156 149.929688 56.257812 149.929688 L 99.988281 149.929688 C 100.03125 149.929688 100.074219 149.929688 100.113281 149.929688 C 101.835938 149.929688 103.234375 148.53125 103.234375 146.808594 C 103.242188 146.457031 103.1875 146.125 103.085938 145.824219 Z M 103.085938 145.824219 "/></g></g></svg>