<svg xmlns="http://www.w3.org/2000/svg" xmlns:xlink="http://www.w3.org/1999/xlink" width="200" zoomAndPan="magnify" viewBox="0 0 150 157.92" height="200" preserveAspectRatio="xMidYMid meet" version="1.2"><defs><clipPath id="d1af5f8de0"><path d="M 0.0390625 0 L 149.960938 0 L 149.960938 147.675781 L 0.0390625 147.675781 Z M 0.0390625 0 "/></clipPath></defs><g id="cda1e919c5"><g clip-rule="nonzero" clip-path="url(#d1af5f8de0)"><path style=" stroke:none;fill-rule:evenodd;fill:#ffa800;fill-opacity:1;" d="M 42.921875 73.34375 C 36.136719 77.0625 28.960938 80.742188 21.300781 84.382812 C 20.226562 84.894531 18.945312 84.4375 18.433594 83.363281 C 17.925781 82.292969 18.382812 81.007812 19.453125 80.496094 C 25.792969 77.484375 37.316406 71.300781 37.21875 71.261719 C 67.449219 54.996094 89.925781 37.984375 112.394531 20.378906 C 113.328125 19.644531 113.492188 18.292969 112.757812 17.359375 C 112.027344 16.425781 110.675781 16.261719 109.738281 16.992188 C 87.554688 34.378906 65.359375 51.191406 35.570312 67.265625 L 35.472656 54.011719 C 35.457031 51.695312 36.457031 49.484375 38.214844 47.972656 C 41.160156 45.363281 44.09375 42.132812 47.027344 38.429688 C 47.203125 38.203125 47.492188 38.09375 47.773438 38.148438 C 48.054688 38.199219 48.285156 38.402344 48.371094 38.675781 C 48.914062 40.425781 49.839844 43.402344 50.414062 45.253906 C 50.523438 45.609375 50.8125 45.878906 51.171875 45.96875 C 51.527344 46.054688 51.90625 45.953125 52.167969 45.691406 C 57.488281 40.332031 61.878906 33.957031 65.308594 26.519531 C 65.445312 26.222656 65.75 26.042969 66.074219 26.070312 C 66.398438 26.097656 66.671875 26.324219 66.757812 26.640625 C 67.273438 28.566406 68.027344 31.375 68.503906 33.164062 C 68.601562 33.523438 68.882812 33.808594 69.242188 33.910156 C 69.601562 34.007812 69.988281 33.910156 70.257812 33.652344 C 76.226562 27.882812 81.503906 21.589844 85.902344 14.640625 C 86.066406 14.382812 86.363281 14.246094 86.667969 14.289062 C 86.96875 14.332031 87.21875 14.550781 87.300781 14.84375 C 87.878906 16.910156 88.851562 20.375 89.421875 22.414062 C 89.523438 22.769531 89.800781 23.046875 90.15625 23.144531 C 90.511719 23.246094 90.894531 23.152344 91.164062 22.898438 C 94.445312 19.78125 96.871094 16.277344 98.617188 12.460938 C 99.40625 10.742188 101.015625 9.542969 102.886719 9.273438 C 112.761719 7.773438 122.207031 4.546875 131.363281 0.179688 C 131.609375 0.0625 131.90625 0.0898438 132.125 0.253906 C 132.347656 0.414062 132.460938 0.6875 132.421875 0.960938 C 130.917969 10.886719 126.898438 20.289062 119.175781 28.921875 C 118.078125 30.136719 116.746094 31.121094 115.261719 31.808594 C 111.707031 33.433594 107.597656 34.507812 103.136719 35.230469 C 102.789062 35.285156 102.515625 35.546875 102.441406 35.890625 C 102.367188 36.230469 102.507812 36.585938 102.800781 36.777344 C 104.613281 37.980469 107.339844 39.789062 108.984375 40.875 C 109.28125 41.074219 109.453125 41.410156 109.4375 41.769531 C 109.421875 42.125 109.21875 42.449219 108.90625 42.617188 C 101.988281 46.320312 94.335938 49.296875 86.050781 51.632812 C 85.730469 51.722656 85.488281 51.992188 85.4375 52.324219 C 85.390625 52.65625 85.539062 52.984375 85.820312 53.164062 C 87.472656 54.234375 90.042969 55.894531 91.679688 56.953125 C 91.992188 57.15625 92.167969 57.511719 92.140625 57.878906 C 92.117188 58.25 91.886719 58.578125 91.550781 58.730469 C 84.804688 61.773438 77.375 63.933594 69.3125 65.285156 C 68.972656 65.339844 68.699219 65.597656 68.621094 65.933594 C 68.542969 66.269531 68.679688 66.621094 68.960938 66.820312 C 70.597656 67.96875 73.007812 69.667969 74.398438 70.648438 C 74.664062 70.832031 74.824219 71.128906 74.832031 71.453125 C 74.839844 71.773438 74.699219 72.078125 74.445312 72.277344 C 70.832031 75.097656 66.816406 77.121094 62.460938 78.460938 C 60.539062 79.054688 58.472656 79.003906 56.582031 78.316406 C 53.28125 77.117188 47.558594 75.035156 42.921875 73.34375 Z M 1.832031 90.800781 C 0.691406 90.472656 0.0351562 89.28125 0.363281 88.140625 C 0.691406 87 1.882812 86.339844 3.023438 86.667969 C 33.707031 95.511719 55.96875 92.621094 77.324219 88.976562 C 99.203125 85.242188 120.152344 80.757812 147.859375 86.632812 C 149.019531 86.878906 149.761719 88.019531 149.515625 89.179688 C 149.269531 90.34375 148.125 91.085938 146.964844 90.839844 C 119.890625 85.097656 99.425781 89.570312 78.046875 93.21875 C 56.144531 96.957031 33.304688 99.871094 1.832031 90.800781 Z M 1.832031 113.460938 C 0.691406 113.132812 0.0351562 111.941406 0.363281 110.800781 C 0.691406 109.660156 1.882812 109 3.023438 109.328125 C 33.707031 118.171875 55.96875 115.28125 77.324219 111.636719 C 99.203125 107.902344 120.152344 103.417969 147.859375 109.289062 C 149.019531 109.535156 149.761719 110.679688 149.515625 111.839844 C 149.269531 113.003906 148.125 113.746094 146.964844 113.5 C 119.890625 107.757812 99.425781 112.230469 78.046875 115.878906 C 56.144531 119.613281 33.304688 122.53125 1.832031 113.460938 Z M 145.875 131.261719 C 146.722656 131.261719 147.410156 131.949219 147.410156 132.796875 L 147.410156 146.0625 C 147.410156 146.910156 146.722656 147.597656 145.875 147.597656 L 3.964844 147.597656 C 3.117188 147.597656 2.429688 146.910156 2.429688 146.0625 L 2.429688 132.796875 C 2.429688 131.949219 3.117188 131.261719 3.964844 131.261719 Z M 145.875 131.261719 "/></g></g></svg>