<svg xmlns="http://www.w3.org/2000/svg" xmlns:xlink="http://www.w3.org/1999/xlink" width="200" zoomAndPan="magnify" viewBox="0 0 150 157.92" height="200" preserveAspectRatio="xMidYMid meet" version="1.2"><defs><clipPath id="fcc78a9ea0"><path d="M 51 92 L 98 92 L 98 134.746094 L 51 134.746094 Z M 51 92 "/></clipPath><clipPath id="c80305fa6f"><path d="M 0.0390625 15 L 42 15 L 42 33 L 0.0390625 33 Z M 0.0390625 15 "/></clipPath><clipPath id="a24414ae10"><path d="M 107 15 L 149.960938 15 L 149.960938 33 L 107 33 Z M 107 15 "/></clipPath><clipPath id="4b3e39490c"><path d="M 44 10.308594 L 106 10.308594 L 106 54 L 44 54 Z M 44 10.308594 "/></clipPath></defs><g id="68d2617d64"><g clip-rule="nonzero" clip-path="url(#fcc78a9ea0)"><path style=" stroke:none;fill-rule:evenodd;fill:#ffa800;fill-opacity:1;" d="M 91.367188 102.476562 L 78.15625 109.078125 L 78.15625 92.914062 L 71.617188 92.914062 L 71.617188 109.078125 L 58.40625 102.476562 L 58.40625 92.914062 L 51.933594 92.914062 L 51.933594 104.539062 C 51.933594 105.914062 52.753906 107.085938 53.976562 107.566406 L 71.617188 116.371094 L 71.617188 122.492188 L 60.242188 122.492188 C 56.976562 122.492188 54.25 125.246094 54.25 128.617188 C 54.25 131.917969 56.976562 134.667969 60.242188 134.667969 L 89.53125 134.667969 C 92.867188 134.667969 95.523438 131.917969 95.523438 128.617188 C 95.523438 125.246094 92.867188 122.492188 89.53125 122.492188 L 78.15625 122.492188 L 78.15625 116.371094 L 95.796875 107.566406 C 97.023438 107.085938 97.839844 105.914062 97.839844 104.539062 L 97.839844 92.914062 L 91.371094 92.914062 L 91.371094 102.476562 Z M 91.367188 102.476562 "/></g><g clip-rule="nonzero" clip-path="url(#c80305fa6f)"><path style=" stroke:none;fill-rule:evenodd;fill:#ffa800;fill-opacity:1;" d="M 41.992188 15.59375 L 4.738281 15.59375 C 2.148438 15.59375 0.0390625 17.726562 0.0390625 20.34375 L 0.0390625 28.253906 C 0.0390625 30.867188 2.148438 33 4.738281 33 L 41.992188 33 Z M 41.992188 15.59375 "/></g><g clip-rule="nonzero" clip-path="url(#a24414ae10)"><path style=" stroke:none;fill-rule:evenodd;fill:#ffa800;fill-opacity:1;" d="M 145.039062 15.59375 L 107.78125 15.59375 L 107.78125 33 L 145.039062 33 C 147.625 33 149.738281 30.867188 149.738281 28.253906 L 149.738281 20.34375 C 149.738281 17.726562 147.625 15.59375 145.039062 15.59375 Z M 145.039062 15.59375 "/></g><g clip-rule="nonzero" clip-path="url(#4b3e39490c)"><path style=" stroke:none;fill-rule:evenodd;fill:#ffa800;fill-opacity:1;" d="M 49.210938 38.226562 L 57.859375 38.226562 L 57.859375 46.894531 C 57.859375 50.472656 60.722656 53.359375 64.261719 53.359375 L 85.511719 53.359375 C 89.054688 53.359375 91.914062 50.472656 91.914062 46.894531 L 91.914062 38.226562 L 100.5625 38.226562 C 103.421875 38.226562 105.738281 35.886719 105.738281 33 L 105.738281 15.59375 C 105.738281 12.707031 103.421875 10.367188 100.5625 10.367188 L 49.210938 10.367188 C 46.351562 10.367188 44.035156 12.707031 44.035156 15.59375 L 44.035156 33 C 44.035156 35.886719 46.351562 38.226562 49.210938 38.226562 Z M 49.210938 38.226562 "/></g><path style=" stroke:none;fill-rule:evenodd;fill:#ffa800;fill-opacity:1;" d="M 106.558594 78.742188 L 43.21875 78.742188 C 39.949219 78.742188 37.222656 81.496094 37.222656 84.796875 C 37.222656 88.167969 39.949219 90.851562 43.21875 90.851562 L 106.558594 90.851562 C 109.894531 90.851562 112.550781 88.167969 112.550781 84.796875 C 112.550781 81.496094 109.894531 78.742188 106.558594 78.742188 Z M 106.558594 78.742188 "/><path style=" stroke:none;fill-rule:evenodd;fill:#ffa800;fill-opacity:1;" d="M 48.121094 74.339844 L 48.121094 76.679688 L 101.652344 76.679688 L 101.652344 74.339844 C 101.652344 68.90625 97.226562 64.433594 91.847656 64.433594 L 57.929688 64.433594 C 52.546875 64.433594 48.121094 68.90625 48.121094 74.339844 Z M 48.121094 74.339844 "/><path style=" stroke:none;fill-rule:evenodd;fill:#ffa800;fill-opacity:1;" d="M 65.558594 55.425781 L 84.21875 55.425781 L 84.21875 62.371094 L 65.558594 62.371094 Z M 65.558594 55.425781 "/></g></svg>