<svg xmlns="http://www.w3.org/2000/svg" xmlns:xlink="http://www.w3.org/1999/xlink" width="200" zoomAndPan="magnify" viewBox="0 0 150 157.92" height="200" preserveAspectRatio="xMidYMid meet" version="1.2"><defs><clipPath id="be9fe3330f"><path d="M 36 1.6875 L 91 1.6875 L 91 56 L 36 56 Z M 36 1.6875 "/></clipPath><clipPath id="c466246359"><path d="M 110 15 L 149.960938 15 L 149.960938 98 L 110 98 Z M 110 15 "/></clipPath><clipPath id="35c1550fca"><path d="M 0.0390625 94 L 148 94 L 148 149.925781 L 0.0390625 149.925781 Z M 0.0390625 94 "/></clipPath></defs><g id="061f33bf86"><g clip-rule="nonzero" clip-path="url(#be9fe3330f)"><path style=" stroke:none;fill-rule:nonzero;fill:#ffa800;fill-opacity:1;" d="M 63.246094 55.589844 C 78.132812 55.589844 90.199219 43.523438 90.199219 28.640625 C 90.199219 13.753906 78.132812 1.6875 63.246094 1.6875 C 48.359375 1.6875 36.296875 13.753906 36.296875 28.640625 C 36.296875 43.523438 48.359375 55.589844 63.246094 55.589844 Z M 47.109375 22.214844 L 56.980469 20.804688 C 57.292969 20.804688 57.449219 20.648438 57.605469 20.332031 L 61.992188 11.558594 C 62.464844 10.460938 64.03125 10.460938 64.5 11.558594 L 68.890625 20.492188 C 69.046875 20.804688 69.203125 20.960938 69.515625 20.960938 L 79.230469 22.371094 C 80.328125 22.527344 80.796875 23.9375 80.015625 24.722656 L 72.804688 31.773438 C 72.648438 31.929688 72.492188 32.242188 72.492188 32.554688 L 74.214844 42.273438 C 74.375 43.367188 73.277344 44.308594 72.179688 43.839844 L 63.246094 39.136719 C 62.933594 38.980469 62.777344 38.980469 62.464844 39.136719 L 53.6875 43.683594 C 52.59375 44.152344 51.496094 43.367188 51.652344 42.113281 L 53.375 32.242188 C 53.375 31.929688 53.375 31.617188 53.0625 31.460938 L 46.011719 24.566406 C 45.382812 23.78125 45.855469 22.371094 47.109375 22.214844 Z M 47.109375 22.214844 "/></g><path style=" stroke:none;fill-rule:nonzero;fill:#ffa800;fill-opacity:1;" d="M 45.070312 71.105469 C 43.816406 71.105469 42.71875 72.203125 42.71875 73.453125 L 42.71875 88.183594 C 45.382812 87.558594 48.203125 87.246094 51.023438 87.246094 C 52.121094 87.246094 53.21875 87.246094 54.160156 87.402344 L 54.316406 87.402344 L 61.367188 88.183594 L 61.367188 73.453125 C 61.367188 72.203125 60.269531 71.105469 59.015625 71.105469 Z M 45.070312 71.105469 "/><path style=" stroke:none;fill-rule:nonzero;fill:#ffa800;fill-opacity:1;" d="M 70.925781 61.546875 C 69.671875 61.546875 68.574219 62.644531 68.574219 63.894531 L 68.574219 89.125 L 87.222656 91.160156 L 87.222656 63.894531 C 87.222656 62.644531 86.125 61.546875 84.871094 61.546875 Z M 70.925781 61.546875 "/><path style=" stroke:none;fill-rule:nonzero;fill:#ffa800;fill-opacity:1;" d="M 98.976562 96.175781 C 100.230469 97.742188 101.167969 99.46875 101.480469 101.347656 C 104.144531 100.878906 108.375 99.9375 113.078125 98.996094 L 113.078125 54.335938 C 113.078125 53.082031 111.980469 51.988281 110.726562 51.988281 L 96.9375 51.988281 C 95.683594 51.988281 94.585938 53.082031 94.585938 54.335938 L 94.585938 92.730469 C 96.15625 93.511719 97.722656 94.765625 98.976562 96.175781 Z M 98.976562 96.175781 "/><g clip-rule="nonzero" clip-path="url(#c466246359)"><path style=" stroke:none;fill-rule:nonzero;fill:#ffa800;fill-opacity:1;" d="M 148.492188 36.316406 L 131.410156 16.574219 C 130.472656 15.476562 128.746094 15.476562 127.808594 16.574219 L 110.726562 36.316406 C 109.316406 37.882812 110.414062 40.234375 112.609375 40.234375 L 120.441406 40.234375 L 120.441406 97.585938 C 127.964844 96.019531 135.015625 94.609375 137.054688 94.140625 C 137.679688 93.984375 138.464844 93.824219 139.089844 93.824219 L 139.089844 40.234375 L 146.925781 40.234375 C 148.804688 40.234375 149.902344 37.882812 148.492188 36.316406 Z M 148.492188 36.316406 "/></g><g clip-rule="nonzero" clip-path="url(#35c1550fca)"><path style=" stroke:none;fill-rule:nonzero;fill:#ffa800;fill-opacity:1;" d="M 141.753906 100.71875 C 140.8125 100.71875 139.558594 100.878906 138.464844 101.035156 C 134.546875 101.816406 110.726562 106.832031 102.890625 108.398438 C 102.421875 109.964844 101.640625 111.53125 100.542969 113.101562 C 97.878906 116.703125 93.492188 118.742188 89.101562 118.742188 L 88.476562 118.742188 L 57.917969 116.703125 C 56.824219 116.703125 55.726562 116.078125 54.941406 115.292969 C 54.160156 114.351562 53.84375 113.257812 53.84375 112.160156 C 54.003906 109.808594 55.882812 108.085938 58.390625 108.085938 C 58.390625 108.085938 89.101562 110.121094 89.101562 110.121094 C 90.828125 110.121094 92.550781 109.183594 93.804688 107.617188 C 94.429688 106.675781 94.902344 105.421875 94.902344 104.324219 C 94.902344 103.070312 94.429688 101.816406 93.648438 100.71875 C 92.707031 99.46875 91.296875 98.839844 89.730469 98.683594 L 53.84375 94.609375 C 53.0625 94.609375 52.121094 94.453125 51.339844 94.453125 C 45.855469 94.453125 40.210938 96.019531 35.511719 98.996094 L 1.195312 120.933594 C 0.722656 121.25 0.410156 121.71875 0.253906 122.34375 C 0.0976562 122.972656 0.253906 123.441406 0.566406 124.070312 L 17.179688 148.042969 C 17.648438 148.671875 18.273438 148.984375 18.902344 148.984375 C 19.214844 148.984375 19.683594 148.828125 20 148.671875 L 35.980469 139.738281 C 36.609375 139.425781 37.390625 139.113281 38.175781 139.113281 C 38.644531 139.113281 39.117188 139.113281 39.585938 139.269531 L 69.359375 148.984375 C 71.238281 149.609375 73.277344 149.925781 75.3125 149.925781 C 78.761719 149.925781 82.207031 148.984375 85.183594 147.101562 L 144.886719 109.808594 C 147.394531 108.085938 147.707031 105.109375 146.769531 102.914062 C 146.453125 102.601562 145.515625 100.71875 141.753906 100.71875 Z M 141.753906 100.71875 "/></g></g></svg>