<svg xmlns="http://www.w3.org/2000/svg" xmlns:xlink="http://www.w3.org/1999/xlink" width="200" zoomAndPan="magnify" viewBox="0 0 150 157.92" height="200" preserveAspectRatio="xMidYMid meet" version="1.2"><defs><clipPath id="0170c41b30"><path d="M 0.0390625 77 L 43 77 L 43 107 L 0.0390625 107 Z M 0.0390625 77 "/></clipPath><clipPath id="5ef2e306b8"><path d="M 106 77 L 149.960938 77 L 149.960938 107 L 106 107 Z M 106 77 "/></clipPath><clipPath id="8774ecb43e"><path d="M 51 30.640625 L 98 30.640625 L 98 77 L 51 77 Z M 51 30.640625 "/></clipPath><clipPath id="35e65221a4"><path d="M 38 80 L 111 80 L 111 119.097656 L 38 119.097656 Z M 38 80 "/></clipPath></defs><g id="22d47c8e87"><g clip-rule="nonzero" clip-path="url(#0170c41b30)"><path style=" stroke:none;fill-rule:nonzero;fill:#ffa800;fill-opacity:1;" d="M 4.039062 106.882812 L 30.820312 106.882812 C 31.875 106.882812 32.730469 106.035156 32.730469 104.972656 L 32.730469 102.296875 C 32.730469 94.339844 36.421875 87.238281 42.179688 82.621094 C 43.277344 81.742188 43.167969 79.996094 41.894531 79.398438 C 39.046875 78.066406 35.871094 77.320312 32.527344 77.320312 L 22.28125 77.320312 C 10.027344 77.320312 0.09375 87.253906 0.09375 99.507812 L 0.09375 102.949219 C 0.09375 105.125 1.859375 106.882812 4.039062 106.882812 "/></g><path style=" stroke:none;fill-rule:nonzero;fill:#ffa800;fill-opacity:1;" d="M 9.917969 57.011719 C 9.917969 66.667969 17.746094 74.496094 27.402344 74.496094 C 37.058594 74.496094 44.886719 66.667969 44.886719 57.011719 C 44.886719 47.355469 37.058594 39.53125 27.402344 39.53125 C 17.746094 39.53125 9.917969 47.355469 9.917969 57.011719 "/><g clip-rule="nonzero" clip-path="url(#5ef2e306b8)"><path style=" stroke:none;fill-rule:nonzero;fill:#ffa800;fill-opacity:1;" d="M 127.402344 77.320312 L 117.136719 77.320312 C 113.648438 77.320312 110.335938 78.136719 107.398438 79.582031 C 106.132812 80.203125 105.921875 81.898438 107.019531 82.792969 C 112.660156 87.410156 116.265625 94.433594 116.265625 102.296875 L 116.265625 104.972656 C 116.265625 106.035156 117.121094 106.882812 118.171875 106.882812 L 145.648438 106.882812 C 147.824219 106.882812 149.589844 105.125 149.589844 102.949219 L 149.589844 99.507812 C 149.589844 87.253906 139.65625 77.320312 127.402344 77.320312 "/></g><path style=" stroke:none;fill-rule:nonzero;fill:#ffa800;fill-opacity:1;" d="M 122.273438 39.53125 C 112.621094 39.53125 104.789062 47.359375 104.789062 57.011719 C 104.789062 66.667969 112.621094 74.496094 122.273438 74.496094 C 131.933594 74.496094 139.757812 66.667969 139.757812 57.011719 C 139.757812 47.359375 131.933594 39.53125 122.273438 39.53125 "/><g clip-rule="nonzero" clip-path="url(#8774ecb43e)"><path style=" stroke:none;fill-rule:nonzero;fill:#ffa800;fill-opacity:1;" d="M 74.496094 76.558594 C 87.179688 76.558594 97.453125 66.28125 97.453125 53.601562 C 97.453125 40.921875 87.179688 30.644531 74.496094 30.644531 C 61.816406 30.644531 51.539062 40.921875 51.539062 53.601562 C 51.539062 66.28125 61.816406 76.558594 74.496094 76.558594 "/></g><g clip-rule="nonzero" clip-path="url(#35e65221a4)"><path style=" stroke:none;fill-rule:nonzero;fill:#ffa800;fill-opacity:1;" d="M 38.632812 104.894531 L 38.632812 118.898438 C 38.632812 119.007812 38.71875 119.097656 38.824219 119.097656 L 110.171875 119.097656 C 110.273438 119.097656 110.359375 119.007812 110.359375 118.898438 L 110.359375 104.894531 C 110.359375 91.300781 99.332031 80.273438 85.734375 80.273438 L 63.261719 80.273438 C 49.660156 80.273438 38.632812 91.300781 38.632812 104.894531 "/></g></g></svg>