<svg xmlns="http://www.w3.org/2000/svg" xmlns:xlink="http://www.w3.org/1999/xlink" width="200" zoomAndPan="magnify" viewBox="0 0 150 157.92" height="200" preserveAspectRatio="xMidYMid meet" version="1.2"><defs><clipPath id="30b776104b"><path d="M 0.0390625 1.125 L 149.960938 1.125 L 149.960938 148.800781 L 0.0390625 148.800781 Z M 0.0390625 1.125 "/></clipPath></defs><g id="fee04583db"><g clip-rule="nonzero" clip-path="url(#30b776104b)"><path style=" stroke:none;fill-rule:nonzero;fill:#ffa800;fill-opacity:1;" d="M 48.984375 104.867188 C 46.257812 104.867188 44.050781 102.660156 44.050781 99.933594 L 44.050781 50.851562 C 44.050781 48.128906 46.257812 45.917969 48.984375 45.917969 L 98.0625 45.917969 C 100.789062 45.917969 103 48.128906 103 50.851562 L 103 99.933594 C 103 102.660156 100.789062 104.867188 98.0625 104.867188 Z M 127.277344 89.953125 C 128.066406 89.164062 129.355469 89.164062 130.144531 89.953125 C 130.527344 90.335938 130.738281 90.84375 130.738281 91.386719 C 130.738281 91.925781 130.527344 92.4375 130.144531 92.820312 C 129.761719 93.203125 129.253906 93.414062 128.710938 93.414062 C 128.167969 93.414062 127.660156 93.203125 127.277344 92.820312 C 126.894531 92.4375 126.683594 91.925781 126.683594 91.386719 C 126.683594 90.84375 126.894531 90.335938 127.277344 89.953125 Z M 89.046875 135.777344 C 88.664062 136.160156 88.15625 136.371094 87.613281 136.371094 C 87.074219 136.371094 86.5625 136.160156 86.179688 135.777344 C 85.796875 135.394531 85.585938 134.886719 85.585938 134.34375 C 85.585938 133.800781 85.796875 133.292969 86.179688 132.910156 C 86.5625 132.527344 87.074219 132.316406 87.613281 132.316406 C 88.15625 132.316406 88.664062 132.527344 89.046875 132.910156 C 89.835938 133.699219 89.835938 134.988281 89.046875 135.777344 Z M 62.078125 127.144531 C 61.695312 127.527344 61.183594 127.738281 60.644531 127.738281 C 60.101562 127.738281 59.59375 127.527344 59.210938 127.144531 C 58.828125 126.761719 58.617188 126.25 58.617188 125.710938 C 58.617188 125.167969 58.828125 124.660156 59.210938 124.277344 C 59.59375 123.890625 60.101562 123.683594 60.644531 123.683594 C 61.183594 123.683594 61.695312 123.890625 62.078125 124.277344 C 62.867188 125.066406 62.867188 126.355469 62.078125 127.144531 Z M 15.996094 90.699219 C 15.203125 91.488281 13.917969 91.488281 13.128906 90.699219 C 12.746094 90.316406 12.535156 89.804688 12.535156 89.265625 C 12.535156 88.722656 12.746094 88.214844 13.128906 87.828125 C 13.511719 87.449219 14.019531 87.234375 14.5625 87.234375 C 15.101562 87.234375 15.613281 87.449219 15.996094 87.828125 C 16.378906 88.214844 16.589844 88.722656 16.589844 89.265625 C 16.589844 89.804688 16.378906 90.316406 15.996094 90.699219 Z M 24.628906 63.726562 C 23.839844 64.519531 22.554688 64.519531 21.761719 63.726562 C 21.378906 63.34375 21.167969 62.835938 21.167969 62.292969 C 21.167969 61.75 21.378906 61.242188 21.761719 60.859375 C 22.144531 60.476562 22.65625 60.265625 23.195312 60.265625 C 23.738281 60.265625 24.246094 60.476562 24.628906 60.859375 C 25.011719 61.242188 25.222656 61.75 25.222656 62.292969 C 25.222656 62.835938 25.011719 63.34375 24.628906 63.726562 Z M 59.8125 15.929688 C 60.195312 15.546875 60.707031 15.335938 61.246094 15.335938 C 61.789062 15.335938 62.296875 15.546875 62.683594 15.929688 C 63.0625 16.3125 63.273438 16.824219 63.273438 17.363281 C 63.273438 17.90625 63.0625 18.414062 62.683594 18.796875 C 62.296875 19.179688 61.789062 19.390625 61.246094 19.390625 C 60.707031 19.390625 60.195312 19.179688 59.8125 18.796875 C 59.023438 18.007812 59.023438 16.722656 59.8125 15.929688 Z M 86.785156 24.566406 C 87.167969 24.183594 87.675781 23.972656 88.21875 23.972656 C 88.761719 23.972656 89.269531 24.183594 89.652344 24.566406 C 90.035156 24.949219 90.246094 25.457031 90.246094 26 C 90.246094 26.539062 90.035156 27.050781 89.652344 27.433594 C 89.269531 27.816406 88.761719 28.027344 88.21875 28.027344 C 87.675781 28.027344 87.167969 27.816406 86.785156 27.433594 C 85.996094 26.640625 85.996094 25.355469 86.785156 24.566406 Z M 135.910156 62.980469 C 136.703125 62.191406 137.988281 62.191406 138.777344 62.980469 C 139.160156 63.363281 139.371094 63.875 139.371094 64.414062 C 139.371094 64.957031 139.160156 65.464844 138.777344 65.847656 C 138.398438 66.234375 137.886719 66.445312 137.347656 66.445312 C 136.804688 66.445312 136.296875 66.234375 135.910156 65.847656 C 135.527344 65.464844 135.316406 64.957031 135.316406 64.414062 C 135.316406 63.875 135.527344 63.363281 135.910156 62.980469 Z M 148.019531 75.015625 C 146.09375 73.089844 142.96875 73.089844 141.039062 75.015625 C 140.351562 75.703125 139.910156 76.546875 139.714844 77.429688 L 110.632812 77.429688 L 110.632812 65.488281 L 134.679688 65.488281 C 134.820312 65.839844 135.03125 66.164062 135.3125 66.449219 C 136.433594 67.570312 138.257812 67.570312 139.378906 66.449219 C 140.5 65.324219 140.5 63.503906 139.378906 62.382812 C 138.257812 61.261719 136.433594 61.261719 135.3125 62.382812 C 135.03125 62.664062 134.820312 62.992188 134.679688 63.339844 L 110.632812 63.339844 L 110.632812 43.21875 C 110.632812 42.316406 110.390625 41.46875 109.964844 40.742188 L 126.230469 24.476562 L 136.859375 28.167969 C 136.714844 29.59375 137.1875 31.066406 138.277344 32.15625 C 140.203125 34.082031 143.328125 34.082031 145.253906 32.15625 C 147.183594 30.226562 147.183594 27.105469 145.253906 25.179688 C 143.328125 23.25 140.203125 23.25 138.277344 25.179688 C 137.984375 25.46875 137.738281 25.789062 137.535156 26.128906 L 125.738281 22.027344 L 125.6875 21.980469 L 125.664062 22 L 125.597656 21.980469 L 125.550781 22.117188 L 108.507812 39.160156 C 107.710938 38.609375 106.742188 38.285156 105.699219 38.285156 L 89.214844 38.285156 L 89.214844 28.695312 C 89.589844 28.554688 89.949219 28.335938 90.25 28.03125 C 91.375 26.910156 91.375 25.089844 90.25 23.964844 C 89.128906 22.84375 87.308594 22.84375 86.1875 23.964844 C 85.0625 25.089844 85.0625 26.910156 86.1875 28.03125 C 86.445312 28.292969 86.746094 28.488281 87.066406 28.628906 L 87.066406 38.285156 L 76.410156 38.285156 L 76.410156 11.359375 C 77.296875 11.164062 78.136719 10.722656 78.828125 10.03125 C 80.753906 8.105469 80.753906 4.984375 78.828125 3.054688 C 76.898438 1.128906 73.773438 1.128906 71.847656 3.054688 C 69.921875 4.984375 69.921875 8.105469 71.847656 10.03125 C 72.535156 10.722656 73.378906 11.164062 74.261719 11.359375 L 74.261719 38.285156 L 62.320312 38.285156 L 62.320312 20.03125 C 62.671875 19.890625 62.996094 19.679688 63.28125 19.398438 C 64.402344 18.277344 64.402344 16.453125 63.28125 15.332031 C 62.15625 14.207031 60.335938 14.207031 59.214844 15.332031 C 58.09375 16.453125 58.09375 18.277344 59.214844 19.398438 C 59.496094 19.679688 59.824219 19.890625 60.171875 20.03125 L 60.171875 38.285156 L 41.351562 38.285156 C 40.351562 38.285156 39.421875 38.582031 38.648438 39.09375 L 22.816406 23.261719 L 26.511719 12.636719 C 27.933594 12.777344 29.40625 12.304688 30.496094 11.214844 C 32.425781 9.289062 32.425781 6.164062 30.496094 4.238281 C 28.570312 2.3125 25.445312 2.3125 23.519531 4.238281 C 21.59375 6.164062 21.59375 9.289062 23.519531 11.214844 C 23.8125 11.507812 24.132812 11.753906 24.472656 11.960938 L 20.371094 23.757812 L 20.320312 23.804688 L 20.34375 23.828125 L 20.320312 23.894531 L 20.460938 23.945312 L 37.148438 40.632812 C 36.683594 41.382812 36.414062 42.269531 36.414062 43.21875 L 36.414062 61.296875 L 25.890625 61.296875 C 25.75 60.917969 25.53125 60.566406 25.230469 60.261719 C 24.105469 59.136719 22.285156 59.136719 21.164062 60.261719 C 20.039062 61.382812 20.039062 63.203125 21.164062 64.324219 C 22.285156 65.449219 24.105469 65.449219 25.230469 64.324219 C 25.488281 64.066406 25.6875 63.765625 25.828125 63.445312 L 36.414062 63.445312 L 36.414062 74.101562 L 12.191406 74.101562 C 11.996094 73.214844 11.554688 72.375 10.867188 71.683594 C 8.9375 69.757812 5.816406 69.757812 3.886719 71.683594 C 1.960938 73.613281 1.960938 76.738281 3.886719 78.664062 C 5.816406 80.589844 8.9375 80.589844 10.867188 78.664062 C 11.554688 77.976562 11.996094 77.132812 12.191406 76.25 L 36.414062 76.25 L 36.414062 88.1875 L 17.226562 88.1875 C 17.089844 87.839844 16.878906 87.511719 16.59375 87.230469 C 15.472656 86.109375 13.652344 86.109375 12.527344 87.230469 C 11.40625 88.351562 11.40625 90.175781 12.527344 91.296875 C 13.652344 92.417969 15.472656 92.417969 16.59375 91.296875 C 16.878906 91.015625 17.089844 90.6875 17.226562 90.339844 L 36.414062 90.339844 L 36.414062 107.566406 C 36.414062 108.457031 36.652344 109.292969 37.066406 110.011719 L 20.988281 126.089844 L 10.363281 122.394531 C 10.507812 120.972656 10.035156 119.5 8.945312 118.40625 C 7.015625 116.480469 3.894531 116.480469 1.964844 118.40625 C 0.0390625 120.335938 0.0390625 123.460938 1.964844 125.386719 C 3.894531 127.3125 7.015625 127.3125 8.945312 125.386719 C 9.234375 125.09375 9.484375 124.773438 9.6875 124.433594 L 21.484375 128.535156 L 21.53125 128.585938 L 21.554688 128.5625 L 21.625 128.585938 L 21.671875 128.445312 L 38.511719 111.605469 C 39.316406 112.167969 40.292969 112.503906 41.351562 112.503906 L 59.648438 112.503906 L 59.648438 123.015625 C 59.269531 123.152344 58.914062 123.371094 58.609375 123.679688 C 57.488281 124.800781 57.488281 126.617188 58.609375 127.742188 C 59.734375 128.863281 61.554688 128.863281 62.675781 127.742188 C 63.796875 126.617188 63.796875 124.800781 62.675781 123.679688 C 62.414062 123.417969 62.117188 123.21875 61.796875 123.078125 L 61.796875 112.503906 L 72.449219 112.503906 L 72.449219 136.714844 C 71.566406 136.910156 70.722656 137.351562 70.035156 138.039062 C 68.109375 139.964844 68.109375 143.089844 70.035156 145.019531 C 71.960938 146.945312 75.085938 146.945312 77.011719 145.019531 C 78.941406 143.089844 78.941406 139.964844 77.011719 138.039062 C 76.324219 137.351562 75.484375 136.910156 74.597656 136.714844 L 74.597656 112.503906 L 86.539062 112.503906 L 86.539062 131.675781 C 86.191406 131.816406 85.863281 132.027344 85.582031 132.3125 C 84.457031 133.433594 84.457031 135.253906 85.582031 136.375 C 86.703125 137.5 88.523438 137.5 89.648438 136.375 C 90.769531 135.253906 90.769531 133.433594 89.648438 132.3125 C 89.363281 132.027344 89.039062 131.816406 88.6875 131.675781 L 88.6875 112.503906 L 105.699219 112.503906 C 106.722656 112.503906 107.671875 112.191406 108.457031 111.660156 L 124.660156 127.859375 L 120.964844 138.484375 C 119.542969 138.34375 118.070312 138.816406 116.980469 139.90625 C 115.050781 141.832031 115.050781 144.957031 116.980469 146.882812 C 118.90625 148.808594 122.03125 148.808594 123.957031 146.882812 C 125.882812 144.957031 125.882812 141.832031 123.957031 139.90625 C 123.664062 139.613281 123.34375 139.367188 123.003906 139.160156 L 127.109375 127.363281 L 127.15625 127.316406 L 127.132812 127.292969 L 127.15625 127.226562 L 127.015625 127.175781 L 109.9375 110.097656 C 110.378906 109.359375 110.632812 108.492188 110.632812 107.566406 L 110.632812 92.382812 L 126.015625 92.382812 C 126.15625 92.757812 126.375 93.117188 126.679688 93.417969 C 127.800781 94.542969 129.621094 94.542969 130.742188 93.417969 C 131.867188 92.296875 131.867188 90.476562 130.742188 89.351562 C 129.621094 88.230469 127.800781 88.230469 126.679688 89.351562 C 126.417969 89.613281 126.21875 89.914062 126.082031 90.230469 L 110.632812 90.230469 L 110.632812 79.578125 L 139.714844 79.578125 C 139.910156 80.464844 140.351562 81.304688 141.039062 81.996094 C 142.96875 83.921875 146.09375 83.921875 148.019531 81.996094 C 149.945312 80.066406 149.945312 76.941406 148.019531 75.015625 "/></g><path style=" stroke:none;fill-rule:nonzero;fill:#ffa800;fill-opacity:1;" d="M 87.082031 84.050781 C 87.082031 86.828125 84.832031 89.078125 82.054688 89.078125 L 64.796875 89.078125 C 62.019531 89.078125 59.769531 86.828125 59.769531 84.050781 L 59.769531 66.792969 C 59.769531 64.015625 62.019531 61.765625 64.796875 61.765625 L 82.054688 61.765625 C 84.832031 61.765625 87.082031 64.015625 87.082031 66.792969 Z M 85.59375 58.226562 L 61.261719 58.226562 C 58.484375 58.226562 56.230469 60.476562 56.230469 63.253906 L 56.230469 87.589844 C 56.230469 90.367188 58.484375 92.617188 61.261719 92.617188 L 85.59375 92.617188 C 88.367188 92.617188 90.621094 90.367188 90.621094 87.589844 L 90.621094 63.253906 C 90.621094 60.476562 88.367188 58.226562 85.59375 58.226562 "/></g></svg>