<svg xmlns="http://www.w3.org/2000/svg" xmlns:xlink="http://www.w3.org/1999/xlink" width="200" zoomAndPan="magnify" viewBox="0 0 150 157.92" height="200" preserveAspectRatio="xMidYMid meet" version="1.2"><defs><clipPath id="e4755819be"><path d="M 0.0390625 0 L 149.960938 0 L 149.960938 149.925781 L 0.0390625 149.925781 Z M 0.0390625 0 "/></clipPath></defs><g id="7836c4faa6"><path style=" stroke:none;fill-rule:nonzero;fill:#ffa800;fill-opacity:1;" d="M 73.171875 99.6875 L 73.171875 85.570312 C 69.824219 85.808594 66.585938 86.695312 63.628906 88.160156 C 65.675781 93.117188 68.933594 97.105469 73.171875 99.6875 Z M 73.171875 99.6875 "/><path style=" stroke:none;fill-rule:nonzero;fill:#ffa800;fill-opacity:1;" d="M 62.441406 84.675781 C 65.785156 83.089844 69.421875 82.140625 73.171875 81.90625 L 73.171875 76.789062 L 61.222656 76.789062 C 61.347656 79.574219 61.761719 82.214844 62.441406 84.675781 Z M 62.441406 84.675781 "/><path style=" stroke:none;fill-rule:nonzero;fill:#ffa800;fill-opacity:1;" d="M 61.222656 73.132812 L 73.171875 73.132812 L 73.171875 68.019531 C 69.421875 67.789062 65.78125 66.839844 62.441406 65.253906 C 61.761719 67.710938 61.347656 70.351562 61.222656 73.132812 Z M 61.222656 73.132812 "/><path style=" stroke:none;fill-rule:nonzero;fill:#ffa800;fill-opacity:1;" d="M 63.628906 61.765625 C 66.589844 63.230469 69.828125 64.117188 73.171875 64.351562 L 73.171875 50.238281 C 68.933594 52.820312 65.675781 56.808594 63.628906 61.765625 Z M 63.628906 61.765625 "/><path style=" stroke:none;fill-rule:nonzero;fill:#ffa800;fill-opacity:1;" d="M 56.875 93.015625 C 59.574219 95.726562 62.875 97.832031 66.558594 99.121094 C 64.015625 96.601562 61.953125 93.53125 60.449219 90.03125 C 59.175781 90.910156 57.980469 91.910156 56.875 93.015625 Z M 56.875 93.015625 "/><path style=" stroke:none;fill-rule:nonzero;fill:#ffa800;fill-opacity:1;" d="M 66.558594 50.800781 C 62.875 52.09375 59.574219 54.195312 56.875 56.90625 C 57.980469 58.015625 59.175781 59.011719 60.449219 59.890625 C 61.957031 56.394531 64.015625 53.324219 66.558594 50.800781 Z M 66.558594 50.800781 "/><path style=" stroke:none;fill-rule:nonzero;fill:#ffa800;fill-opacity:1;" d="M 59.160156 63.425781 C 57.484375 62.347656 55.914062 61.097656 54.476562 59.679688 C 51.632812 63.488281 49.832031 68.113281 49.476562 73.132812 L 57.5625 73.132812 C 57.703125 69.691406 58.246094 66.433594 59.160156 63.425781 Z M 59.160156 63.425781 "/><path style=" stroke:none;fill-rule:nonzero;fill:#ffa800;fill-opacity:1;" d="M 93.132812 56.914062 C 90.429688 54.199219 87.125 52.09375 83.441406 50.800781 C 85.992188 53.328125 88.054688 56.40625 89.5625 59.914062 C 90.832031 59.03125 92.027344 58.027344 93.132812 56.914062 Z M 93.132812 56.914062 "/><path style=" stroke:none;fill-rule:nonzero;fill:#ffa800;fill-opacity:1;" d="M 57.5625 76.789062 L 49.476562 76.789062 C 49.832031 81.808594 51.632812 86.433594 54.476562 90.242188 C 55.914062 88.828125 57.484375 87.578125 59.160156 86.5 C 58.246094 83.492188 57.703125 80.234375 57.5625 76.789062 Z M 57.5625 76.789062 "/><path style=" stroke:none;fill-rule:nonzero;fill:#ffa800;fill-opacity:1;" d="M 83.441406 99.121094 C 87.125 97.832031 90.429688 95.722656 93.132812 93.011719 C 92.027344 91.894531 90.832031 90.890625 89.5625 90.007812 C 88.054688 93.515625 85.992188 96.59375 83.441406 99.121094 Z M 83.441406 99.121094 "/><path style=" stroke:none;fill-rule:nonzero;fill:#ffa800;fill-opacity:1;" d="M 90.847656 86.472656 C 92.523438 87.554688 94.09375 88.8125 95.527344 90.234375 C 98.367188 86.429688 100.167969 81.804688 100.523438 76.789062 L 92.4375 76.789062 C 92.296875 80.222656 91.753906 83.472656 90.847656 86.472656 Z M 90.847656 86.472656 "/><path style=" stroke:none;fill-rule:nonzero;fill:#ffa800;fill-opacity:1;" d="M 90.847656 63.453125 C 91.757812 66.453125 92.296875 69.703125 92.4375 73.132812 L 100.523438 73.132812 C 100.167969 68.117188 98.367188 63.496094 95.527344 59.6875 C 94.09375 61.113281 92.523438 62.371094 90.847656 63.453125 Z M 90.847656 63.453125 "/><path style=" stroke:none;fill-rule:nonzero;fill:#ffa800;fill-opacity:1;" d="M 76.828125 50.238281 L 76.828125 64.359375 C 80.183594 64.140625 83.421875 63.257812 86.378906 61.792969 C 84.339844 56.824219 81.074219 52.828125 76.828125 50.238281 Z M 76.828125 50.238281 "/><path style=" stroke:none;fill-rule:nonzero;fill:#ffa800;fill-opacity:1;" d="M 88.777344 76.789062 L 76.828125 76.789062 L 76.828125 81.898438 C 80.582031 82.117188 84.226562 83.058594 87.566406 84.644531 C 88.242188 82.195312 88.652344 79.5625 88.777344 76.789062 Z M 88.777344 76.789062 "/><path style=" stroke:none;fill-rule:nonzero;fill:#ffa800;fill-opacity:1;" d="M 87.566406 65.28125 C 84.226562 66.867188 80.585938 67.8125 76.828125 68.027344 L 76.828125 73.132812 L 88.777344 73.132812 C 88.652344 70.363281 88.242188 67.730469 87.566406 65.28125 Z M 87.566406 65.28125 "/><g clip-rule="nonzero" clip-path="url(#e4755819be)"><path style=" stroke:none;fill-rule:nonzero;fill:#ffa800;fill-opacity:1;" d="M 140.085938 65.085938 C 135.238281 65.085938 131.203125 68.59375 130.367188 73.203125 L 116.105469 73.203125 C 115.664062 63.160156 111.605469 54.042969 105.207031 47.121094 L 115.324219 37.003906 C 117.027344 38.207031 119.023438 38.8125 121.023438 38.8125 C 123.550781 38.8125 126.082031 37.847656 128.007812 35.921875 C 129.871094 34.058594 130.898438 31.578125 130.898438 28.941406 C 130.898438 26.300781 129.871094 23.820312 128.007812 21.957031 C 124.15625 18.105469 117.890625 18.105469 114.039062 21.957031 C 110.667969 25.328125 110.246094 30.546875 112.777344 34.378906 L 102.609375 44.546875 C 95.65625 38.242188 86.539062 34.277344 76.519531 33.914062 L 76.519531 19.636719 C 81.246094 18.902344 84.878906 14.804688 84.878906 9.875 C 84.878906 4.429688 80.445312 0 75 0 C 69.554688 0 65.125 4.429688 65.125 9.875 C 65.125 14.589844 68.441406 18.539062 72.863281 19.519531 L 72.863281 33.9375 C 62.953125 34.445312 53.960938 38.480469 47.113281 44.800781 L 37.003906 34.695312 C 39.773438 30.835938 39.425781 25.417969 35.960938 21.957031 C 32.109375 18.105469 25.84375 18.105469 21.992188 21.957031 C 20.128906 23.820312 19.101562 26.300781 19.101562 28.941406 C 19.101562 31.578125 20.128906 34.058594 21.992188 35.921875 C 23.917969 37.847656 26.449219 38.8125 28.976562 38.8125 C 30.855469 38.8125 32.730469 38.28125 34.359375 37.222656 L 44.535156 47.398438 C 38.21875 54.355469 34.25 63.480469 33.882812 73.507812 L 19.683594 73.507812 C 18.980469 68.75 14.867188 65.085938 9.914062 65.085938 C 4.46875 65.085938 0.0390625 69.515625 0.0390625 74.960938 C 0.0390625 80.40625 4.46875 84.839844 9.914062 84.839844 C 14.601562 84.839844 18.535156 81.554688 19.539062 77.167969 L 33.90625 77.167969 C 34.414062 87.050781 38.429688 96.023438 44.726562 102.867188 L 34.675781 112.917969 C 30.824219 110.195312 25.441406 110.550781 21.992188 114 C 20.128906 115.867188 19.101562 118.347656 19.101562 120.984375 C 19.101562 123.621094 20.128906 126.101562 21.992188 127.96875 C 23.917969 129.894531 26.449219 130.855469 28.976562 130.855469 C 31.507812 130.855469 34.035156 129.894531 35.960938 127.96875 C 39.332031 124.597656 39.753906 119.375 37.222656 115.542969 L 47.316406 105.449219 C 54.210938 111.726562 63.238281 115.699219 73.171875 116.132812 L 73.171875 130.34375 C 68.597656 131.203125 65.121094 135.226562 65.121094 140.046875 C 65.121094 145.492188 69.554688 149.921875 75 149.921875 C 80.445312 149.921875 84.875 145.492188 84.875 140.046875 C 84.875 135.226562 81.402344 131.203125 76.828125 130.34375 L 76.828125 116.132812 C 86.84375 115.695312 95.941406 111.65625 102.859375 105.285156 L 112.917969 115.34375 C 110.234375 119.191406 110.605469 124.539062 114.039062 127.96875 C 115.964844 129.894531 118.492188 130.855469 121.023438 130.855469 C 123.550781 130.855469 126.082031 129.894531 128.003906 127.96875 C 129.871094 126.101562 130.898438 123.621094 130.898438 120.984375 C 130.898438 118.34375 129.871094 115.867188 128.003906 114 C 124.617188 110.613281 119.363281 110.207031 115.523438 112.777344 L 105.4375 102.691406 C 111.703125 95.800781 115.667969 86.777344 116.105469 76.859375 L 130.394531 76.859375 C 131.28125 81.398438 135.289062 84.839844 140.085938 84.839844 C 145.53125 84.839844 149.960938 80.40625 149.960938 74.960938 C 149.960938 69.515625 145.53125 65.085938 140.085938 65.085938 Z M 97.15625 94.042969 C 97.066406 94.175781 96.960938 94.300781 96.835938 94.410156 C 96.832031 94.410156 96.832031 94.410156 96.832031 94.410156 C 91.660156 100.207031 84.222656 103.941406 75.925781 104.199219 C 75.847656 104.210938 75.769531 104.214844 75.695312 104.214844 C 75.65625 104.214844 75.621094 104.210938 75.582031 104.207031 C 75.386719 104.210938 75.195312 104.214844 75 104.214844 C 74.804688 104.214844 74.613281 104.210938 74.417969 104.207031 C 74.378906 104.210938 74.34375 104.214844 74.304688 104.214844 C 74.226562 104.214844 74.152344 104.210938 74.074219 104.199219 C 65.777344 103.941406 58.339844 100.207031 53.167969 94.410156 C 53.164062 94.410156 53.160156 94.40625 53.15625 94.402344 C 53.035156 94.292969 52.929688 94.171875 52.84375 94.042969 C 48.421875 88.917969 45.746094 82.246094 45.746094 74.960938 C 45.746094 67.679688 48.421875 61.007812 52.84375 55.882812 C 52.929688 55.75 53.035156 55.628906 53.15625 55.523438 C 53.160156 55.519531 53.164062 55.515625 53.167969 55.511719 C 58.34375 49.710938 65.789062 45.976562 74.097656 45.722656 C 74.210938 45.710938 74.320312 45.707031 74.433594 45.714844 C 74.621094 45.710938 74.808594 45.707031 75 45.707031 C 75.191406 45.707031 75.378906 45.710938 75.566406 45.714844 C 75.675781 45.707031 75.789062 45.710938 75.902344 45.722656 C 84.210938 45.976562 91.65625 49.710938 96.828125 55.511719 C 96.832031 55.511719 96.832031 55.511719 96.835938 55.515625 C 96.960938 55.625 97.066406 55.75 97.15625 55.882812 C 101.578125 61.007812 104.253906 67.679688 104.253906 74.960938 C 104.253906 82.246094 101.578125 88.914062 97.15625 94.042969 Z M 97.15625 94.042969 "/></g><path style=" stroke:none;fill-rule:nonzero;fill:#ffa800;fill-opacity:1;" d="M 76.828125 85.5625 L 76.828125 99.6875 C 81.074219 97.097656 84.339844 93.101562 86.382812 88.128906 C 83.421875 86.664062 80.179688 85.78125 76.828125 85.5625 Z M 76.828125 85.5625 "/></g></svg>