<svg xmlns="http://www.w3.org/2000/svg" xmlns:xlink="http://www.w3.org/1999/xlink" width="200" zoomAndPan="magnify" viewBox="0 0 150 157.92" height="200" preserveAspectRatio="xMidYMid meet" version="1.2"><defs><clipPath id="7a09ab6911"><path d="M 0.0390625 2.34375 L 149.960938 2.34375 L 149.960938 147.769531 L 0.0390625 147.769531 Z M 0.0390625 2.34375 "/></clipPath></defs><g id="d94b79b476"><g clip-rule="nonzero" clip-path="url(#7a09ab6911)"><path style=" stroke:none;fill-rule:evenodd;fill:#ffa800;fill-opacity:1;" d="M 36.386719 42.574219 C 28.023438 42.574219 21.210938 35.75 21.210938 27.386719 C 21.210938 19.027344 28.023438 12.203125 36.386719 12.203125 C 44.753906 12.203125 51.570312 19.027344 51.570312 27.386719 C 51.570312 35.75 44.753906 42.574219 36.386719 42.574219 Z M 114.011719 42.574219 C 105.652344 42.574219 98.835938 35.75 98.835938 27.386719 C 98.835938 19.027344 105.652344 12.203125 114.011719 12.203125 C 122.378906 12.203125 129.195312 19.027344 129.195312 27.386719 C 129.195312 35.75 122.378906 42.574219 114.011719 42.574219 Z M 75 32.738281 C 66.640625 32.738281 59.824219 25.914062 59.824219 17.550781 C 59.824219 9.191406 66.640625 2.367188 75 2.367188 C 83.367188 2.367188 90.183594 9.191406 90.183594 17.550781 C 90.183594 25.914062 83.367188 32.738281 75 32.738281 Z M 8.660156 62.617188 C 13.1875 51.765625 23.894531 44.132812 36.386719 44.132812 C 39.546875 44.132812 42.589844 44.621094 45.449219 45.523438 C 44.519531 46.984375 43.691406 48.519531 42.984375 50.113281 C 42 50.269531 41.078125 50.71875 40.339844 51.410156 C 39.335938 52.355469 38.769531 53.671875 38.769531 55.050781 L 38.769531 62.617188 Z M 111.230469 62.617188 L 111.230469 55.050781 C 111.230469 53.671875 110.664062 52.355469 109.660156 51.410156 C 108.925781 50.71875 108.003906 50.273438 107.023438 50.117188 C 106.328125 48.558594 105.527344 47.058594 104.625 45.632812 C 107.578125 44.660156 110.734375 44.132812 114.011719 44.132812 C 126.507812 44.132812 137.21875 51.765625 141.742188 62.617188 Z M 111.164062 88.972656 C 115.382812 82.804688 118.066406 75.5 118.65625 67.617188 L 149.960938 67.617188 L 149.960938 82.746094 L 137.542969 87.523438 C 135.96875 94.144531 133.335938 100.453125 129.78125 106.253906 L 135.175781 118.429688 L 120.835938 132.765625 L 108.660156 127.375 C 102.882812 130.949219 96.550781 133.5625 89.929688 135.136719 L 85.152344 147.554688 L 64.867188 147.554688 L 60.089844 135.136719 C 53.449219 133.5625 47.140625 130.929688 41.339844 127.375 L 29.164062 132.765625 L 14.824219 118.429688 L 20.238281 106.253906 C 16.664062 100.472656 14.050781 94.144531 12.457031 87.523438 L 0.0390625 82.746094 L 0.0390625 67.617188 L 31.34375 67.617188 C 31.933594 75.507812 34.617188 82.8125 38.835938 88.984375 C 39.9375 108.664062 54.664062 125.269531 74.144531 128.660156 C 74.710938 128.757812 75.292969 128.757812 75.859375 128.660156 C 95.339844 125.265625 110.066406 108.660156 111.164062 88.972656 Z M 101.414062 50.03125 C 92.894531 49.421875 85.023438 45.800781 77.078125 42.175781 C 75.757812 41.574219 74.246094 41.574219 72.929688 42.175781 C 64.980469 45.800781 57.109375 49.421875 48.589844 50.03125 C 53.671875 40.660156 63.59375 34.296875 75 34.296875 C 86.414062 34.296875 96.335938 40.664062 101.414062 50.03125 Z M 75.003906 46.722656 C 85.085938 51.320312 95.109375 55.722656 106.234375 55.050781 L 106.234375 86.609375 C 106.234375 104.890625 92.886719 120.621094 75.003906 123.738281 C 57.113281 120.621094 43.765625 104.890625 43.765625 86.609375 L 43.765625 55.050781 C 54.894531 55.722656 64.917969 51.320312 75.003906 46.722656 Z M 56.082031 86.90625 L 66.597656 97.421875 C 68.429688 99.265625 71.410156 99.265625 73.242188 97.421875 C 82.265625 88.40625 84.96875 85.582031 93.9375 76.523438 C 95.761719 74.691406 95.761719 71.722656 93.914062 69.890625 C 92.082031 68.066406 89.113281 68.078125 87.292969 69.910156 L 69.917969 87.449219 L 62.726562 80.257812 C 60.882812 78.425781 57.914062 78.425781 56.082031 80.257812 C 54.238281 82.09375 54.238281 85.070312 56.082031 86.90625 Z M 56.082031 86.90625 "/></g></g></svg>