<svg xmlns="http://www.w3.org/2000/svg" xmlns:xlink="http://www.w3.org/1999/xlink" width="200" zoomAndPan="magnify" viewBox="0 0 150 157.92" height="200" preserveAspectRatio="xMidYMid meet" version="1.2"><defs><clipPath id="89dffd022f"><path d="M 0.167969 0 L 148 0 L 148 149.925781 L 0.167969 149.925781 Z M 0.167969 0 "/></clipPath></defs><g id="0e31fb3920"><g clip-rule="nonzero" clip-path="url(#89dffd022f)"><path style=" stroke:none;fill-rule:nonzero;fill:#ffa800;fill-opacity:1;" d="M 83.835938 2.945312 L 83.835938 16.457031 C 83.835938 20.109375 86.816406 23.078125 90.46875 23.078125 L 103.980469 23.078125 Z M 28.546875 17.332031 C 27.394531 17.332031 26.472656 16.398438 26.472656 15.253906 C 26.472656 14.101562 27.394531 13.167969 28.546875 13.167969 L 56.820312 13.167969 C 57.972656 13.167969 58.90625 14.101562 58.90625 15.253906 C 58.90625 16.398438 57.972656 17.332031 56.820312 17.332031 Z M 28.546875 31.882812 C 27.394531 31.882812 26.472656 30.960938 26.472656 29.808594 C 26.472656 28.65625 27.394531 27.722656 28.546875 27.722656 L 56.820312 27.722656 C 57.972656 27.722656 58.90625 28.65625 58.90625 29.808594 C 58.90625 30.960938 57.972656 31.882812 56.820312 31.882812 Z M 28.546875 46.453125 C 27.394531 46.453125 26.472656 45.519531 26.472656 44.363281 C 26.472656 43.210938 27.394531 42.277344 28.546875 42.277344 L 74.035156 42.277344 C 75.1875 42.277344 76.121094 43.210938 76.121094 44.363281 C 76.121094 45.519531 75.1875 46.453125 74.035156 46.453125 Z M 28.546875 61.003906 C 27.394531 61.003906 26.472656 60.070312 26.472656 58.917969 C 26.472656 57.765625 27.394531 56.84375 28.546875 56.84375 L 67.234375 56.84375 C 68.386719 56.84375 69.320312 57.769531 69.320312 58.917969 C 69.320312 60.066406 68.386719 61.003906 67.234375 61.003906 Z M 28.546875 75.558594 C 27.394531 75.558594 26.472656 74.636719 26.472656 73.480469 C 26.472656 72.328125 27.394531 71.394531 28.546875 71.394531 L 57.390625 71.394531 C 58.542969 71.394531 59.476562 72.328125 59.476562 73.480469 C 59.476562 74.636719 58.542969 75.558594 57.390625 75.558594 Z M 28.546875 90.125 C 27.394531 90.125 26.472656 89.191406 26.472656 88.039062 C 26.472656 86.886719 27.394531 85.953125 28.546875 85.953125 L 58.167969 85.953125 C 59.320312 85.953125 60.253906 86.886719 60.253906 88.039062 C 60.253906 89.191406 59.320312 90.125 58.167969 90.125 Z M 28.546875 104.679688 C 27.394531 104.679688 26.472656 103.746094 26.472656 102.59375 C 26.472656 101.441406 27.394531 100.515625 28.546875 100.515625 L 60.710938 100.515625 C 61.863281 100.515625 62.796875 101.441406 62.796875 102.59375 C 62.796875 103.746094 61.863281 104.679688 60.710938 104.679688 Z M 91.433594 132.324219 L 91.433594 122.914062 L 22.644531 122.914062 C 16.703125 122.914062 11.859375 118.066406 11.859375 112.117188 L 11.859375 13.570312 L 6.882812 13.570312 C 3.238281 13.570312 0.257812 16.554688 0.257812 20.195312 L 0.257812 125.699219 C 0.257812 129.34375 3.238281 132.324219 6.882812 132.324219 Z M 116.539062 48.734375 L 112.554688 45.042969 C 110.605469 43.238281 107.5625 43.238281 105.617188 45.042969 L 101.621094 48.734375 C 99.574219 50.632812 97.011719 51.46875 94.25 51.144531 L 88.847656 50.507812 C 86.199219 50.191406 83.761719 51.945312 83.25 54.570312 L 82.1875 59.898438 C 81.644531 62.644531 80.0625 64.816406 77.621094 66.183594 L 72.878906 68.839844 C 70.546875 70.140625 69.621094 73.011719 70.742188 75.433594 L 73.015625 80.363281 C 74.1875 82.910156 74.1875 85.589844 73.015625 88.128906 L 70.742188 93.058594 C 69.621094 95.488281 70.546875 98.355469 72.878906 99.664062 L 77.621094 102.3125 C 80.0625 103.679688 81.644531 105.851562 82.1875 108.597656 L 83.25 113.929688 C 83.757812 116.550781 86.199219 118.308594 88.847656 117.996094 L 94.25 117.359375 C 97.042969 117.023438 99.582031 117.878906 101.621094 119.761719 L 105.617188 123.449219 C 107.5625 125.261719 110.605469 125.261719 112.554688 123.449219 L 116.539062 119.761719 C 118.59375 117.859375 121.152344 117.023438 123.917969 117.359375 L 129.3125 117.996094 C 131.96875 118.3125 134.402344 116.550781 134.921875 113.929688 L 135.984375 108.597656 C 136.523438 105.851562 138.109375 103.679688 140.550781 102.3125 L 145.292969 99.664062 C 147.625 98.355469 148.546875 95.488281 147.425781 93.058594 L 145.152344 88.128906 C 143.984375 85.589844 143.984375 82.914062 145.152344 80.363281 L 147.425781 75.433594 C 148.546875 73.011719 147.625 70.140625 145.292969 68.839844 L 140.550781 66.183594 C 138.109375 64.816406 136.523438 62.644531 135.984375 59.898438 L 134.921875 54.570312 C 134.402344 51.945312 131.96875 50.195312 129.3125 50.507812 L 123.917969 51.144531 C 121.152344 51.46875 118.59375 50.632812 116.539062 48.734375 Z M 81.035156 118.742188 C 80.117188 117.609375 79.457031 116.242188 79.160156 114.726562 L 78.101562 109.394531 C 77.792969 107.871094 76.945312 106.695312 75.589844 105.9375 L 70.859375 103.285156 C 66.617188 100.914062 64.925781 95.726562 66.960938 91.316406 L 69.234375 86.386719 C 69.894531 84.980469 69.894531 83.523438 69.234375 82.105469 L 66.960938 77.175781 C 64.921875 72.777344 66.617188 67.582031 70.859375 65.210938 L 75.589844 62.558594 C 76.945312 61.792969 77.792969 60.628906 78.101562 59.09375 L 79.164062 53.773438 C 80.097656 49.019531 84.527344 45.792969 89.335938 46.371094 L 94.730469 47.011719 C 96.296875 47.199219 97.664062 46.753906 98.804688 45.691406 L 102.800781 42 C 104.011719 40.878906 105.441406 40.140625 106.925781 39.777344 L 106.925781 27.25 L 90.46875 27.25 C 84.515625 27.25 79.671875 22.394531 79.671875 16.453125 L 79.671875 -0.0117188 L 22.644531 -0.0117188 C 19.003906 -0.0117188 16.023438 2.972656 16.023438 6.613281 L 16.023438 112.117188 C 16.023438 115.769531 19.003906 118.742188 22.644531 118.742188 Z M 122.574219 121.449219 C 121.351562 121.484375 120.269531 121.957031 119.355469 122.792969 L 115.367188 126.484375 C 111.796875 129.789062 106.363281 129.789062 102.800781 126.484375 L 98.933594 122.914062 L 95.597656 122.914062 L 95.597656 149.738281 L 107.742188 139.789062 C 108.488281 139.160156 109.613281 139.117188 110.398438 139.769531 L 122.570312 149.734375 L 122.570312 121.449219 Z M 124.007812 69.320312 C 115.765625 61.074219 102.398438 61.074219 94.160156 69.320312 C 85.914062 77.566406 85.914062 90.929688 94.160156 99.167969 C 102.398438 107.410156 115.761719 107.410156 124.007812 99.167969 C 132.253906 90.929688 132.253906 77.570312 124.007812 69.320312 Z M 109.078125 58.976562 C 123.042969 58.976562 134.359375 70.285156 134.359375 84.25 C 134.359375 98.203125 123.042969 109.519531 109.078125 109.519531 C 95.121094 109.519531 83.808594 98.199219 83.808594 84.25 C 83.808594 70.285156 95.125 58.976562 109.078125 58.976562 Z M 99.277344 87.015625 C 98.382812 86.296875 98.242188 84.988281 98.960938 84.09375 C 99.679688 83.195312 100.988281 83.058594 101.882812 83.777344 L 106.539062 87.515625 L 116.027344 76.738281 C 116.785156 75.875 118.105469 75.785156 118.960938 76.550781 C 119.828125 77.308594 119.90625 78.617188 119.148438 79.484375 L 108.351562 91.757812 L 108.351562 91.746094 C 107.625 92.582031 106.363281 92.703125 105.488281 92.003906 Z M 99.277344 87.015625 "/></g></g></svg>