<svg xmlns="http://www.w3.org/2000/svg" xmlns:xlink="http://www.w3.org/1999/xlink" width="200" zoomAndPan="magnify" viewBox="0 0 150 157.92" height="200" preserveAspectRatio="xMidYMid meet" version="1.2"><defs><clipPath id="3effd279b4"><path d="M 0.0390625 0 L 149.960938 0 L 149.960938 149.925781 L 0.0390625 149.925781 Z M 0.0390625 0 "/></clipPath></defs><g id="b95b59b72f"><path style=" stroke:none;fill-rule:nonzero;fill:#ffa800;fill-opacity:1;" d="M 83.085938 61.253906 L 72.375 77.316406 L 66.273438 71.214844 C 66.023438 70.96875 65.753906 70.746094 65.460938 70.550781 C 65.171875 70.359375 64.863281 70.195312 64.539062 70.0625 C 64.214844 69.929688 63.882812 69.828125 63.539062 69.757812 C 63.195312 69.691406 62.847656 69.65625 62.496094 69.65625 C 62.148438 69.65625 61.800781 69.691406 61.457031 69.757812 C 61.113281 69.828125 60.78125 69.929688 60.457031 70.0625 C 60.132812 70.195312 59.824219 70.359375 59.53125 70.550781 C 59.242188 70.746094 58.972656 70.96875 58.722656 71.214844 C 58.472656 71.460938 58.246094 71.734375 58.050781 72.027344 C 57.851562 72.320312 57.6875 72.628906 57.550781 72.957031 C 57.414062 73.28125 57.3125 73.617188 57.242188 73.964844 C 57.171875 74.3125 57.140625 74.664062 57.140625 75.015625 C 57.140625 75.367188 57.171875 75.71875 57.242188 76.066406 C 57.3125 76.410156 57.414062 76.75 57.550781 77.074219 C 57.6875 77.402344 57.851562 77.710938 58.050781 78.003906 C 58.246094 78.296875 58.472656 78.566406 58.722656 78.816406 L 69.429688 89.527344 C 69.9375 90.027344 70.519531 90.414062 71.175781 90.679688 C 71.835938 90.949219 72.519531 91.082031 73.234375 91.078125 L 73.714844 91.078125 C 74.519531 91.003906 75.269531 90.761719 75.960938 90.347656 C 76.65625 89.9375 77.226562 89.394531 77.675781 88.722656 L 92.027344 67.304688 C 92.222656 67.011719 92.390625 66.707031 92.527344 66.378906 C 92.660156 66.054688 92.765625 65.722656 92.835938 65.375 C 92.90625 65.03125 92.941406 64.683594 92.941406 64.332031 C 92.945312 63.980469 92.910156 63.628906 92.84375 63.285156 C 92.777344 62.941406 92.675781 62.605469 92.542969 62.277344 C 92.410156 61.953125 92.246094 61.644531 92.050781 61.351562 C 91.859375 61.054688 91.636719 60.785156 91.390625 60.535156 C 91.140625 60.285156 90.871094 60.0625 90.578125 59.863281 C 90.289062 59.667969 89.980469 59.5 89.65625 59.363281 C 89.332031 59.230469 88.996094 59.125 88.652344 59.054688 C 88.308594 58.984375 87.957031 58.949219 87.605469 58.949219 C 87.253906 58.945312 86.90625 58.980469 86.558594 59.046875 C 86.214844 59.113281 85.878906 59.214844 85.554688 59.347656 C 85.226562 59.480469 84.917969 59.644531 84.625 59.835938 C 84.332031 60.03125 84.058594 60.25 83.808594 60.5 C 83.558594 60.746094 83.335938 61.015625 83.140625 61.308594 Z M 83.085938 61.253906 "/><path style=" stroke:none;fill-rule:nonzero;fill:#ffa800;fill-opacity:1;" d="M 75 32.125 C 73.597656 32.125 72.199219 32.195312 70.800781 32.332031 C 69.40625 32.46875 68.019531 32.675781 66.644531 32.949219 C 65.265625 33.222656 63.90625 33.5625 62.566406 33.972656 C 61.222656 34.378906 59.902344 34.851562 58.609375 35.386719 C 57.3125 35.925781 56.042969 36.523438 54.808594 37.183594 C 53.570312 37.847656 52.367188 38.566406 51.203125 39.34375 C 50.035156 40.125 48.910156 40.960938 47.824219 41.851562 C 46.742188 42.738281 45.703125 43.679688 44.710938 44.671875 C 43.71875 45.664062 42.777344 46.703125 41.886719 47.789062 C 40.996094 48.871094 40.164062 49.996094 39.382812 51.164062 C 38.605469 52.332031 37.882812 53.53125 37.222656 54.769531 C 36.5625 56.007812 35.960938 57.273438 35.425781 58.570312 C 34.886719 59.867188 34.417969 61.183594 34.007812 62.527344 C 33.601562 63.871094 33.261719 65.230469 32.988281 66.605469 C 32.714844 67.980469 32.507812 69.367188 32.371094 70.761719 C 32.234375 72.160156 32.164062 73.558594 32.164062 74.960938 C 32.164062 76.363281 32.234375 77.765625 32.371094 79.160156 C 32.507812 80.558594 32.714844 81.941406 32.988281 83.320312 C 33.261719 84.695312 33.601562 86.054688 34.007812 87.398438 C 34.417969 88.738281 34.886719 90.058594 35.425781 91.355469 C 35.960938 92.652344 36.5625 93.917969 37.222656 95.15625 C 37.882812 96.390625 38.605469 97.59375 39.382812 98.761719 C 40.164062 99.925781 40.996094 101.050781 41.886719 102.136719 C 42.777344 103.222656 43.71875 104.257812 44.710938 105.25 C 45.703125 106.242188 46.742188 107.183594 47.824219 108.074219 C 48.910156 108.964844 50.035156 109.800781 51.203125 110.578125 C 52.367188 111.359375 53.570312 112.078125 54.808594 112.738281 C 56.042969 113.402344 57.3125 114 58.609375 114.535156 C 59.902344 115.074219 61.222656 115.546875 62.566406 115.953125 C 63.90625 116.359375 65.265625 116.699219 66.644531 116.972656 C 68.019531 117.25 69.40625 117.453125 70.800781 117.589844 C 72.199219 117.730469 73.597656 117.796875 75 117.796875 C 76.402344 117.796875 77.800781 117.730469 79.199219 117.589844 C 80.59375 117.453125 81.980469 117.25 83.355469 116.972656 C 84.734375 116.699219 86.09375 116.359375 87.433594 115.953125 C 88.777344 115.546875 90.097656 115.074219 91.390625 114.535156 C 92.6875 114 93.957031 113.402344 95.191406 112.738281 C 96.429688 112.078125 97.632812 111.359375 98.796875 110.578125 C 99.964844 109.800781 101.089844 108.964844 102.175781 108.074219 C 103.257812 107.183594 104.296875 106.242188 105.289062 105.25 C 106.28125 104.257812 107.222656 103.222656 108.113281 102.136719 C 109.003906 101.050781 109.835938 99.925781 110.617188 98.761719 C 111.394531 97.59375 112.117188 96.390625 112.777344 95.15625 C 113.4375 93.917969 114.039062 92.652344 114.574219 91.355469 C 115.113281 90.058594 115.582031 88.738281 115.992188 87.398438 C 116.398438 86.054688 116.738281 84.695312 117.011719 83.320312 C 117.285156 81.941406 117.492188 80.558594 117.628906 79.160156 C 117.765625 77.765625 117.835938 76.363281 117.835938 74.960938 C 117.835938 73.558594 117.765625 72.160156 117.628906 70.761719 C 117.492188 69.367188 117.285156 67.980469 117.011719 66.605469 C 116.738281 65.230469 116.398438 63.871094 115.992188 62.527344 C 115.582031 61.183594 115.113281 59.867188 114.574219 58.570312 C 114.039062 57.273438 113.4375 56.007812 112.777344 54.769531 C 112.117188 53.53125 111.394531 52.332031 110.617188 51.164062 C 109.835938 49.996094 109.003906 48.871094 108.113281 47.789062 C 107.222656 46.703125 106.28125 45.664062 105.289062 44.671875 C 104.296875 43.679688 103.257812 42.738281 102.175781 41.851562 C 101.089844 40.960938 99.964844 40.125 98.796875 39.34375 C 97.632812 38.566406 96.429688 37.847656 95.191406 37.183594 C 93.957031 36.523438 92.6875 35.925781 91.390625 35.386719 C 90.097656 34.851562 88.777344 34.378906 87.433594 33.972656 C 86.09375 33.5625 84.734375 33.222656 83.355469 32.949219 C 81.980469 32.675781 80.59375 32.46875 79.199219 32.332031 C 77.800781 32.195312 76.402344 32.125 75 32.125 Z M 75 107.089844 C 73.949219 107.089844 72.898438 107.035156 71.851562 106.933594 C 70.804688 106.832031 69.765625 106.675781 68.730469 106.472656 C 67.699219 106.265625 66.679688 106.011719 65.675781 105.707031 C 64.667969 105.398438 63.679688 105.046875 62.707031 104.644531 C 61.734375 104.242188 60.785156 103.792969 59.855469 103.296875 C 58.925781 102.800781 58.027344 102.257812 57.152344 101.675781 C 56.277344 101.089844 55.433594 100.464844 54.617188 99.796875 C 53.804688 99.128906 53.027344 98.421875 52.28125 97.679688 C 51.539062 96.933594 50.832031 96.15625 50.164062 95.34375 C 49.5 94.53125 48.871094 93.683594 48.289062 92.8125 C 47.703125 91.9375 47.164062 91.035156 46.667969 90.105469 C 46.171875 89.179688 45.722656 88.226562 45.320312 87.257812 C 44.917969 86.285156 44.5625 85.292969 44.257812 84.289062 C 43.953125 83.28125 43.695312 82.261719 43.492188 81.230469 C 43.285156 80.199219 43.132812 79.15625 43.027344 78.109375 C 42.925781 77.0625 42.875 76.015625 42.875 74.960938 C 42.875 73.910156 42.925781 72.859375 43.027344 71.8125 C 43.132812 70.765625 43.285156 69.726562 43.492188 68.695312 C 43.695312 67.664062 43.953125 66.644531 44.257812 65.636719 C 44.5625 64.628906 44.917969 63.640625 45.320312 62.667969 C 45.722656 61.695312 46.171875 60.746094 46.667969 59.816406 C 47.164062 58.890625 47.703125 57.988281 48.289062 57.113281 C 48.871094 56.238281 49.5 55.394531 50.164062 54.582031 C 50.832031 53.769531 51.539062 52.988281 52.28125 52.246094 C 53.027344 51.5 53.804688 50.796875 54.617188 50.128906 C 55.433594 49.460938 56.277344 48.835938 57.152344 48.25 C 58.027344 47.664062 58.925781 47.125 59.855469 46.628906 C 60.785156 46.132812 61.734375 45.683594 62.707031 45.28125 C 63.679688 44.878906 64.667969 44.523438 65.675781 44.21875 C 66.679688 43.914062 67.699219 43.65625 68.730469 43.453125 C 69.765625 43.246094 70.804688 43.09375 71.851562 42.988281 C 72.898438 42.886719 73.949219 42.835938 75 42.835938 C 76.050781 42.835938 77.101562 42.886719 78.148438 42.988281 C 79.195312 43.09375 80.234375 43.246094 81.265625 43.453125 C 82.300781 43.65625 83.320312 43.914062 84.324219 44.21875 C 85.332031 44.523438 86.320312 44.878906 87.292969 45.28125 C 88.265625 45.683594 89.214844 46.132812 90.144531 46.628906 C 91.074219 47.125 91.972656 47.664062 92.847656 48.25 C 93.722656 48.835938 94.566406 49.460938 95.382812 50.128906 C 96.195312 50.796875 96.972656 51.5 97.71875 52.246094 C 98.460938 52.988281 99.167969 53.769531 99.835938 54.582031 C 100.5 55.394531 101.128906 56.238281 101.710938 57.113281 C 102.296875 57.988281 102.835938 58.890625 103.332031 59.816406 C 103.828125 60.746094 104.277344 61.695312 104.679688 62.667969 C 105.082031 63.640625 105.4375 64.628906 105.742188 65.636719 C 106.046875 66.644531 106.304688 67.664062 106.507812 68.695312 C 106.714844 69.726562 106.867188 70.765625 106.972656 71.8125 C 107.074219 72.859375 107.125 73.910156 107.125 74.960938 C 107.125 76.015625 107.074219 77.0625 106.972656 78.109375 C 106.867188 79.15625 106.714844 80.199219 106.507812 81.230469 C 106.304688 82.261719 106.046875 83.28125 105.742188 84.289062 C 105.4375 85.292969 105.082031 86.285156 104.679688 87.257812 C 104.277344 88.226562 103.828125 89.179688 103.332031 90.105469 C 102.835938 91.035156 102.296875 91.9375 101.710938 92.8125 C 101.128906 93.683594 100.5 94.53125 99.835938 95.34375 C 99.167969 96.15625 98.460938 96.933594 97.71875 97.679688 C 96.972656 98.421875 96.195312 99.128906 95.382812 99.796875 C 94.566406 100.464844 93.722656 101.089844 92.847656 101.675781 C 91.972656 102.257812 91.074219 102.800781 90.144531 103.296875 C 89.214844 103.792969 88.265625 104.242188 87.292969 104.644531 C 86.320312 105.046875 85.332031 105.398438 84.324219 105.707031 C 83.320312 106.011719 82.300781 106.265625 81.265625 106.472656 C 80.234375 106.675781 79.195312 106.832031 78.148438 106.933594 C 77.101562 107.035156 76.050781 107.089844 75 107.089844 Z M 75 107.089844 "/><g clip-rule="nonzero" clip-path="url(#3effd279b4)"><path style=" stroke:none;fill-rule:nonzero;fill:#ffa800;fill-opacity:1;" d="M 141.339844 58.148438 L 136.738281 57.238281 C 135.460938 52.589844 133.675781 48.144531 131.382812 43.90625 L 134.058594 39.945312 C 134.398438 39.433594 134.6875 38.894531 134.933594 38.332031 C 135.179688 37.769531 135.375 37.191406 135.519531 36.59375 C 135.667969 36 135.761719 35.394531 135.804688 34.78125 C 135.84375 34.171875 135.835938 33.558594 135.773438 32.949219 C 135.710938 32.339844 135.59375 31.738281 135.429688 31.148438 C 135.261719 30.558594 135.046875 29.984375 134.78125 29.429688 C 134.519531 28.878906 134.207031 28.351562 133.851562 27.851562 C 133.496094 27.351562 133.101562 26.882812 132.667969 26.449219 L 123.566406 17.507812 C 123.132812 17.070312 122.667969 16.667969 122.167969 16.308594 C 121.664062 15.949219 121.136719 15.632812 120.582031 15.363281 C 120.027344 15.097656 119.453125 14.875 118.859375 14.707031 C 118.265625 14.539062 117.664062 14.417969 117.050781 14.355469 C 116.4375 14.289062 115.824219 14.277344 115.207031 14.316406 C 114.59375 14.359375 113.984375 14.449219 113.386719 14.597656 C 112.785156 14.742188 112.203125 14.9375 111.636719 15.183594 C 111.074219 15.429688 110.53125 15.722656 110.019531 16.0625 L 106.054688 18.6875 C 101.816406 16.394531 97.371094 14.609375 92.722656 13.332031 L 91.8125 8.726562 C 91.691406 8.117188 91.519531 7.519531 91.292969 6.9375 C 91.066406 6.355469 90.792969 5.800781 90.46875 5.265625 C 90.144531 4.734375 89.78125 4.230469 89.367188 3.761719 C 88.957031 3.292969 88.511719 2.863281 88.023438 2.472656 C 87.539062 2.082031 87.023438 1.734375 86.476562 1.433594 C 85.929688 1.132812 85.363281 0.882812 84.773438 0.679688 C 84.183594 0.480469 83.578125 0.328125 82.964844 0.234375 C 82.347656 0.136719 81.726562 0.09375 81.105469 0.105469 L 68.683594 0.105469 C 68.058594 0.09375 67.4375 0.136719 66.824219 0.234375 C 66.207031 0.328125 65.601562 0.480469 65.011719 0.679688 C 64.421875 0.882812 63.855469 1.132812 63.308594 1.433594 C 62.761719 1.734375 62.246094 2.082031 61.761719 2.472656 C 61.277344 2.863281 60.828125 3.292969 60.417969 3.761719 C 60.007812 4.230469 59.640625 4.734375 59.316406 5.265625 C 58.992188 5.800781 58.71875 6.355469 58.492188 6.9375 C 58.269531 7.519531 58.09375 8.117188 57.972656 8.726562 L 57.0625 13.332031 C 52.414062 14.609375 47.96875 16.394531 43.730469 18.6875 L 39.980469 16.0625 C 39.46875 15.71875 38.933594 15.421875 38.371094 15.171875 C 37.804688 14.921875 37.226562 14.722656 36.628906 14.574219 C 36.03125 14.421875 35.425781 14.324219 34.808594 14.28125 C 34.195312 14.234375 33.582031 14.242188 32.96875 14.304688 C 32.355469 14.363281 31.753906 14.476562 31.160156 14.640625 C 30.566406 14.804688 29.988281 15.019531 29.433594 15.285156 C 28.875 15.546875 28.347656 15.859375 27.84375 16.214844 C 27.339844 16.570312 26.871094 16.964844 26.433594 17.402344 L 17.546875 26.449219 C 17.109375 26.882812 16.710938 27.347656 16.355469 27.847656 C 15.996094 28.34375 15.683594 28.871094 15.417969 29.421875 C 15.152344 29.976562 14.933594 30.546875 14.765625 31.136719 C 14.597656 31.730469 14.480469 32.328125 14.414062 32.9375 C 14.347656 33.550781 14.335938 34.160156 14.375 34.773438 C 14.414062 35.386719 14.507812 35.992188 14.652344 36.585938 C 14.792969 37.183594 14.988281 37.765625 15.230469 38.328125 C 15.476562 38.890625 15.765625 39.429688 16.101562 39.945312 L 18.726562 43.90625 C 16.433594 48.144531 14.648438 52.589844 13.371094 57.238281 L 8.765625 58.148438 C 8.152344 58.269531 7.558594 58.445312 6.976562 58.667969 C 6.394531 58.894531 5.835938 59.167969 5.304688 59.492188 C 4.769531 59.816406 4.269531 60.183594 3.800781 60.59375 C 3.332031 61.003906 2.902344 61.453125 2.511719 61.9375 C 2.117188 62.421875 1.773438 62.9375 1.472656 63.484375 C 1.171875 64.03125 0.921875 64.601562 0.71875 65.191406 C 0.515625 65.78125 0.367188 66.382812 0.273438 67 C 0.175781 67.613281 0.132812 68.234375 0.144531 68.859375 L 0.144531 81.496094 C 0.132812 82.117188 0.175781 82.738281 0.273438 83.355469 C 0.367188 83.96875 0.515625 84.574219 0.71875 85.164062 C 0.921875 85.753906 1.171875 86.320312 1.472656 86.867188 C 1.773438 87.414062 2.117188 87.929688 2.511719 88.414062 C 2.902344 88.902344 3.332031 89.347656 3.800781 89.757812 C 4.269531 90.167969 4.769531 90.535156 5.304688 90.859375 C 5.835938 91.183594 6.394531 91.457031 6.976562 91.683594 C 7.558594 91.910156 8.152344 92.082031 8.765625 92.203125 L 13.371094 93.113281 C 14.648438 97.761719 16.433594 102.207031 18.726562 106.445312 L 16.101562 109.980469 C 15.761719 110.492188 15.46875 111.027344 15.222656 111.585938 C 14.972656 112.148438 14.777344 112.726562 14.628906 113.324219 C 14.480469 113.917969 14.382812 114.519531 14.339844 115.132812 C 14.292969 115.746094 14.300781 116.355469 14.363281 116.964844 C 14.421875 117.574219 14.535156 118.175781 14.699219 118.765625 C 14.863281 119.359375 15.074219 119.929688 15.339844 120.484375 C 15.601562 121.039062 15.90625 121.566406 16.261719 122.070312 C 16.613281 122.570312 17.007812 123.039062 17.441406 123.472656 L 26.382812 132.414062 C 26.8125 132.859375 27.28125 133.261719 27.785156 133.625 C 28.285156 133.988281 28.816406 134.304688 29.375 134.574219 C 29.929688 134.847656 30.507812 135.066406 31.101562 135.238281 C 31.699219 135.410156 32.304688 135.527344 32.921875 135.59375 C 33.539062 135.65625 34.15625 135.667969 34.773438 135.628906 C 35.390625 135.585938 36 135.492188 36.601562 135.34375 C 37.203125 135.195312 37.789062 134.996094 38.355469 134.75 C 38.925781 134.5 39.464844 134.203125 39.980469 133.859375 L 43.945312 131.238281 C 48.183594 133.53125 52.628906 135.316406 57.277344 136.589844 L 58.1875 141.195312 C 58.308594 141.808594 58.480469 142.40625 58.707031 142.984375 C 58.933594 143.566406 59.207031 144.125 59.53125 144.65625 C 59.855469 145.191406 60.21875 145.691406 60.632812 146.160156 C 61.042969 146.628906 61.488281 147.0625 61.976562 147.453125 C 62.460938 147.84375 62.976562 148.1875 63.523438 148.488281 C 64.070312 148.789062 64.636719 149.042969 65.226562 149.242188 C 65.816406 149.445312 66.421875 149.59375 67.035156 149.691406 C 67.652344 149.785156 68.273438 149.828125 68.894531 149.816406 L 81.53125 149.816406 C 82.15625 149.828125 82.777344 149.785156 83.390625 149.691406 C 84.007812 149.59375 84.609375 149.445312 85.199219 149.242188 C 85.789062 149.042969 86.359375 148.789062 86.90625 148.488281 C 87.449219 148.1875 87.96875 147.84375 88.453125 147.453125 C 88.9375 147.0625 89.386719 146.628906 89.796875 146.160156 C 90.207031 145.691406 90.574219 145.191406 90.898438 144.65625 C 91.21875 144.125 91.496094 143.566406 91.71875 142.984375 C 91.945312 142.40625 92.121094 141.808594 92.242188 141.195312 L 93.152344 136.589844 C 97.800781 135.316406 102.242188 133.53125 106.484375 131.238281 L 110.445312 133.859375 C 110.957031 134.199219 111.492188 134.492188 112.054688 134.742188 C 112.617188 134.988281 113.195312 135.1875 113.789062 135.335938 C 114.382812 135.484375 114.988281 135.578125 115.597656 135.625 C 116.210938 135.667969 116.820312 135.660156 117.433594 135.597656 C 118.042969 135.539062 118.644531 135.425781 119.234375 135.261719 C 119.824219 135.097656 120.398438 134.886719 120.953125 134.625 C 121.507812 134.363281 122.035156 134.054688 122.535156 133.703125 C 123.039062 133.347656 123.503906 132.957031 123.941406 132.523438 L 132.882812 123.582031 C 133.308594 123.132812 133.695312 122.65625 134.039062 122.144531 C 134.386719 121.632812 134.683594 121.09375 134.933594 120.527344 C 135.1875 119.964844 135.386719 119.382812 135.539062 118.785156 C 135.691406 118.1875 135.789062 117.578125 135.835938 116.964844 C 135.882812 116.347656 135.875 115.730469 135.8125 115.117188 C 135.753906 114.503906 135.640625 113.898438 135.476562 113.304688 C 135.308594 112.707031 135.09375 112.132812 134.832031 111.574219 C 134.566406 111.015625 134.253906 110.484375 133.898438 109.980469 L 131.273438 106.019531 C 133.566406 101.777344 135.351562 97.332031 136.628906 92.683594 L 141.234375 91.773438 C 141.847656 91.652344 142.441406 91.480469 143.023438 91.253906 C 143.605469 91.027344 144.164062 90.753906 144.695312 90.429688 C 145.230469 90.109375 145.730469 89.742188 146.199219 89.332031 C 146.667969 88.921875 147.097656 88.472656 147.488281 87.988281 C 147.882812 87.5 148.226562 86.984375 148.527344 86.4375 C 148.828125 85.890625 149.078125 85.324219 149.28125 84.734375 C 149.484375 84.144531 149.632812 83.542969 149.726562 82.925781 C 149.824219 82.308594 149.867188 81.691406 149.855469 81.066406 L 149.855469 68.644531 C 149.855469 68.03125 149.804688 67.425781 149.703125 66.824219 C 149.597656 66.222656 149.445312 65.632812 149.242188 65.058594 C 149.039062 64.480469 148.785156 63.925781 148.488281 63.394531 C 148.1875 62.863281 147.847656 62.359375 147.460938 61.882812 C 147.078125 61.410156 146.65625 60.972656 146.195312 60.570312 C 145.734375 60.167969 145.246094 59.808594 144.722656 59.488281 C 144.203125 59.171875 143.65625 58.898438 143.089844 58.675781 C 142.523438 58.449219 141.9375 58.273438 141.339844 58.148438 Z M 139.253906 81.28125 L 131.328125 82.886719 C 130.824219 82.984375 130.34375 83.152344 129.890625 83.390625 C 129.433594 83.628906 129.019531 83.925781 128.648438 84.28125 C 128.28125 84.636719 127.96875 85.039062 127.710938 85.484375 C 127.457031 85.929688 127.269531 86.402344 127.152344 86.902344 C 125.792969 92.773438 123.523438 98.269531 120.351562 103.394531 C 120.074219 103.824219 119.863281 104.285156 119.71875 104.777344 C 119.578125 105.269531 119.503906 105.773438 119.503906 106.285156 C 119.503906 106.796875 119.578125 107.300781 119.71875 107.792969 C 119.863281 108.285156 120.074219 108.746094 120.351562 109.175781 L 124.851562 115.921875 L 115.90625 124.867188 L 109.160156 120.367188 C 108.726562 120.085938 108.261719 119.871094 107.765625 119.722656 C 107.269531 119.574219 106.761719 119.503906 106.242188 119.503906 C 105.726562 119.503906 105.21875 119.574219 104.722656 119.722656 C 104.226562 119.871094 103.757812 120.085938 103.324219 120.367188 C 98.222656 123.550781 92.746094 125.816406 86.886719 127.167969 C 86.386719 127.285156 85.914062 127.472656 85.46875 127.726562 C 85.023438 127.984375 84.621094 128.296875 84.265625 128.664062 C 83.910156 129.035156 83.613281 129.449219 83.375 129.90625 C 83.136719 130.359375 82.96875 130.839844 82.871094 131.34375 L 81.316406 139.214844 L 68.683594 139.214844 L 67.074219 131.289062 C 66.976562 130.785156 66.808594 130.308594 66.570312 129.851562 C 66.332031 129.394531 66.039062 128.984375 65.679688 128.613281 C 65.324219 128.242188 64.925781 127.929688 64.476562 127.675781 C 64.03125 127.417969 63.558594 127.234375 63.058594 127.113281 C 57.203125 125.761719 51.722656 123.496094 46.621094 120.3125 C 45.742188 119.746094 44.777344 119.460938 43.730469 119.457031 C 42.65625 119.464844 41.675781 119.769531 40.785156 120.367188 L 34.039062 124.867188 L 25.097656 115.921875 L 29.59375 109.175781 C 29.871094 108.746094 30.082031 108.285156 30.226562 107.792969 C 30.371094 107.300781 30.441406 106.796875 30.441406 106.285156 C 30.441406 105.773438 30.371094 105.269531 30.226562 104.777344 C 30.082031 104.285156 29.871094 103.824219 29.59375 103.394531 C 26.421875 98.269531 24.15625 92.773438 22.792969 86.902344 C 22.675781 86.402344 22.488281 85.929688 22.234375 85.484375 C 21.980469 85.039062 21.667969 84.636719 21.296875 84.28125 C 20.925781 83.925781 20.511719 83.628906 20.058594 83.390625 C 19.601562 83.152344 19.121094 82.984375 18.617188 82.886719 L 10.746094 81.28125 L 10.746094 68.644531 L 18.671875 67.039062 C 19.175781 66.9375 19.65625 66.769531 20.109375 66.53125 C 20.566406 66.296875 20.980469 66 21.351562 65.644531 C 21.71875 65.289062 22.03125 64.886719 22.289062 64.441406 C 22.542969 63.996094 22.730469 63.519531 22.847656 63.023438 C 24.207031 57.152344 26.476562 51.652344 29.648438 46.53125 C 29.925781 46.097656 30.136719 45.636719 30.28125 45.144531 C 30.421875 44.652344 30.496094 44.152344 30.496094 43.636719 C 30.496094 43.125 30.421875 42.625 30.28125 42.132812 C 30.136719 41.640625 29.925781 41.179688 29.648438 40.746094 L 25.097656 34 L 34.039062 25.058594 L 40.785156 29.554688 C 41.21875 29.839844 41.683594 30.054688 42.179688 30.199219 C 42.679688 30.347656 43.183594 30.421875 43.703125 30.421875 C 44.222656 30.421875 44.730469 30.347656 45.226562 30.199219 C 45.722656 30.054688 46.1875 29.839844 46.621094 29.554688 C 51.722656 26.375 57.203125 24.109375 63.058594 22.757812 C 63.558594 22.636719 64.03125 22.449219 64.476562 22.195312 C 64.925781 21.941406 65.324219 21.628906 65.679688 21.257812 C 66.039062 20.886719 66.332031 20.476562 66.570312 20.019531 C 66.808594 19.5625 66.976562 19.082031 67.074219 18.578125 L 68.683594 10.707031 L 81.316406 10.707031 L 82.925781 18.632812 C 83.023438 19.136719 83.191406 19.617188 83.429688 20.074219 C 83.667969 20.527344 83.960938 20.941406 84.320312 21.3125 C 84.675781 21.683594 85.074219 21.996094 85.523438 22.25 C 85.96875 22.503906 86.441406 22.691406 86.941406 22.808594 C 92.796875 24.160156 98.277344 26.429688 103.378906 29.609375 C 103.8125 29.890625 104.277344 30.105469 104.773438 30.253906 C 105.269531 30.402344 105.777344 30.476562 106.296875 30.476562 C 106.816406 30.476562 107.320312 30.402344 107.820312 30.253906 C 108.316406 30.105469 108.78125 29.890625 109.214844 29.609375 L 115.960938 25.113281 L 124.902344 34.054688 L 120.40625 40.800781 C 120.128906 41.230469 119.917969 41.695312 119.773438 42.1875 C 119.628906 42.675781 119.558594 43.179688 119.558594 43.691406 C 119.558594 44.203125 119.628906 44.707031 119.773438 45.199219 C 119.917969 45.691406 120.128906 46.152344 120.40625 46.582031 C 123.578125 51.707031 125.84375 57.203125 127.207031 63.074219 C 127.324219 63.574219 127.511719 64.046875 127.765625 64.492188 C 128.019531 64.941406 128.332031 65.339844 128.703125 65.695312 C 129.074219 66.054688 129.488281 66.347656 129.941406 66.585938 C 130.398438 66.824219 130.878906 66.992188 131.382812 67.089844 L 139.308594 68.699219 Z M 139.253906 81.28125 "/></g></g></svg>