<svg xmlns="http://www.w3.org/2000/svg" xmlns:xlink="http://www.w3.org/1999/xlink" width="200" zoomAndPan="magnify" viewBox="0 0 150 157.92" height="200" preserveAspectRatio="xMidYMid meet" version="1.2"><defs><clipPath id="8ba3309597"><path d="M 115 115 L 144.808594 115 L 144.808594 145 L 115 145 Z M 115 115 "/></clipPath><clipPath id="3ceddb68d1"><path d="M 5.378906 5 L 35 5 L 35 35 L 5.378906 35 Z M 5.378906 5 "/></clipPath><clipPath id="433c22840e"><path d="M 104 141 L 113 141 L 113 149.925781 L 104 149.925781 Z M 104 141 "/></clipPath></defs><g id="eff06e8648"><g clip-rule="nonzero" clip-path="url(#8ba3309597)"><path style=" stroke:none;fill-rule:nonzero;fill:#ffa800;fill-opacity:1;" d="M 119.164062 144.566406 C 116.925781 144.566406 115.148438 142.757812 115.148438 140.566406 C 115.148438 139.273438 115.765625 138 116.917969 137.222656 C 124.996094 131.773438 131.835938 124.933594 137.25 116.890625 C 138.023438 115.742188 139.289062 115.121094 140.578125 115.121094 C 142.835938 115.121094 144.597656 116.914062 144.597656 119.117188 C 144.597656 119.894531 144.378906 120.683594 143.914062 121.375 C 137.917969 130.277344 130.347656 137.847656 121.410156 143.878906 C 120.722656 144.34375 119.941406 144.566406 119.167969 144.566406 Z M 119.164062 144.566406 "/></g><g clip-rule="nonzero" clip-path="url(#3ceddb68d1)"><path style=" stroke:none;fill-rule:nonzero;fill:#ffa800;fill-opacity:1;" d="M 9.402344 34.808594 C 7.195312 34.808594 5.386719 33 5.386719 30.757812 C 5.386719 30.046875 5.585938 29.332031 5.988281 28.683594 C 11.425781 19.890625 19.695312 11.617188 28.683594 5.976562 C 29.355469 5.554688 30.105469 5.363281 30.847656 5.363281 C 33.128906 5.363281 34.832031 7.160156 34.832031 9.300781 C 34.832031 10.664062 34.1875 12.003906 32.949219 12.78125 C 25.082031 17.71875 17.558594 25.242188 12.8125 32.90625 C 12.058594 34.136719 10.738281 34.8125 9.398438 34.8125 Z M 9.402344 34.808594 "/></g><path style=" stroke:none;fill-rule:nonzero;fill:#ffa800;fill-opacity:1;" d="M 45.542969 4.023438 C 45.542969 4.285156 45.515625 4.546875 45.464844 4.804688 C 45.414062 5.066406 45.335938 5.316406 45.234375 5.558594 C 45.136719 5.804688 45.011719 6.035156 44.863281 6.253906 C 44.71875 6.472656 44.550781 6.675781 44.367188 6.863281 C 44.179688 7.046875 43.976562 7.214844 43.757812 7.359375 C 43.539062 7.507812 43.304688 7.632812 43.0625 7.730469 C 42.820312 7.832031 42.570312 7.910156 42.308594 7.960938 C 42.050781 8.011719 41.789062 8.039062 41.527344 8.039062 C 41.261719 8.039062 41.003906 8.011719 40.742188 7.960938 C 40.484375 7.910156 40.234375 7.832031 39.992188 7.730469 C 39.746094 7.632812 39.515625 7.507812 39.296875 7.359375 C 39.078125 7.214844 38.875 7.046875 38.6875 6.863281 C 38.5 6.675781 38.335938 6.472656 38.1875 6.253906 C 38.042969 6.035156 37.917969 5.804688 37.816406 5.558594 C 37.714844 5.316406 37.640625 5.066406 37.589844 4.804688 C 37.539062 4.546875 37.511719 4.285156 37.511719 4.023438 C 37.511719 3.757812 37.539062 3.5 37.589844 3.238281 C 37.640625 2.980469 37.714844 2.730469 37.816406 2.488281 C 37.917969 2.242188 38.042969 2.011719 38.1875 1.792969 C 38.335938 1.574219 38.5 1.371094 38.6875 1.183594 C 38.875 0.996094 39.078125 0.832031 39.296875 0.683594 C 39.515625 0.539062 39.746094 0.414062 39.992188 0.3125 C 40.234375 0.214844 40.484375 0.136719 40.742188 0.0859375 C 41.003906 0.0351562 41.261719 0.0078125 41.527344 0.0078125 C 41.789062 0.0078125 42.050781 0.0351562 42.308594 0.0859375 C 42.570312 0.136719 42.820312 0.214844 43.0625 0.3125 C 43.304688 0.414062 43.539062 0.539062 43.757812 0.683594 C 43.976562 0.832031 44.179688 0.996094 44.367188 1.183594 C 44.550781 1.371094 44.71875 1.574219 44.863281 1.792969 C 45.011719 2.011719 45.136719 2.242188 45.234375 2.488281 C 45.335938 2.730469 45.414062 2.980469 45.464844 3.238281 C 45.515625 3.5 45.542969 3.757812 45.542969 4.023438 Z M 45.542969 4.023438 "/><g clip-rule="nonzero" clip-path="url(#433c22840e)"><path style=" stroke:none;fill-rule:nonzero;fill:#ffa800;fill-opacity:1;" d="M 112.464844 145.90625 C 112.464844 146.171875 112.441406 146.429688 112.386719 146.691406 C 112.335938 146.949219 112.261719 147.199219 112.160156 147.441406 C 112.058594 147.6875 111.933594 147.917969 111.789062 148.136719 C 111.644531 148.355469 111.476562 148.558594 111.289062 148.746094 C 111.101562 148.933594 110.902344 149.097656 110.679688 149.246094 C 110.460938 149.390625 110.230469 149.515625 109.988281 149.617188 C 109.742188 149.714844 109.492188 149.792969 109.234375 149.84375 C 108.976562 149.894531 108.714844 149.921875 108.449219 149.921875 C 108.1875 149.921875 107.925781 149.894531 107.667969 149.84375 C 107.410156 149.792969 107.15625 149.714844 106.914062 149.617188 C 106.671875 149.515625 106.441406 149.390625 106.21875 149.246094 C 106 149.097656 105.796875 148.933594 105.613281 148.746094 C 105.425781 148.558594 105.257812 148.355469 105.113281 148.136719 C 104.964844 147.917969 104.84375 147.6875 104.742188 147.441406 C 104.640625 147.199219 104.566406 146.949219 104.511719 146.691406 C 104.460938 146.429688 104.4375 146.171875 104.4375 145.90625 C 104.4375 145.644531 104.460938 145.382812 104.511719 145.125 C 104.566406 144.863281 104.640625 144.613281 104.742188 144.371094 C 104.84375 144.125 104.964844 143.894531 105.113281 143.675781 C 105.257812 143.457031 105.425781 143.253906 105.613281 143.066406 C 105.796875 142.882812 106 142.714844 106.21875 142.570312 C 106.441406 142.421875 106.671875 142.296875 106.914062 142.199219 C 107.15625 142.097656 107.410156 142.019531 107.667969 141.96875 C 107.925781 141.917969 108.1875 141.890625 108.449219 141.890625 C 108.714844 141.890625 108.976562 141.917969 109.234375 141.96875 C 109.492188 142.019531 109.742188 142.097656 109.988281 142.199219 C 110.230469 142.296875 110.460938 142.421875 110.679688 142.570312 C 110.902344 142.714844 111.101562 142.882812 111.289062 143.066406 C 111.476562 143.253906 111.644531 143.457031 111.789062 143.675781 C 111.933594 143.894531 112.058594 144.125 112.160156 144.371094 C 112.261719 144.613281 112.335938 144.863281 112.386719 145.125 C 112.441406 145.382812 112.464844 145.644531 112.464844 145.90625 Z M 112.464844 145.90625 "/></g><path style=" stroke:none;fill-rule:nonzero;fill:#ffa800;fill-opacity:1;" d="M 74.988281 8.039062 C 38.027344 8.039062 8.066406 38.003906 8.066406 74.964844 C 8.066406 111.925781 38.027344 141.890625 74.988281 141.890625 C 111.949219 141.890625 141.914062 111.925781 141.914062 74.964844 C 141.914062 38.003906 111.949219 8.039062 74.988281 8.039062 Z M 18.773438 74.964844 C 18.773438 43.917969 43.941406 18.75 74.988281 18.75 C 88.585938 18.75 101.054688 23.574219 110.777344 31.609375 L 31.632812 110.75 C 23.597656 101.03125 18.773438 88.5625 18.773438 74.964844 Z M 91.054688 82.996094 C 94.011719 82.996094 96.40625 85.394531 96.40625 88.351562 C 96.40625 91.308594 94.011719 93.703125 91.054688 93.703125 C 88.097656 93.703125 85.699219 91.308594 85.699219 88.351562 C 85.699219 85.394531 88.097656 82.996094 91.054688 82.996094 Z M 74.992188 131.183594 C 61.394531 131.183594 48.925781 126.355469 39.203125 118.324219 L 62.308594 95.21875 C 63.308594 99.1875 65.320312 102.75 68.089844 105.585938 L 62.140625 113.519531 C 61.253906 114.699219 61.492188 116.378906 62.675781 117.265625 C 63.15625 117.628906 63.71875 117.800781 64.277344 117.800781 C 65.09375 117.800781 65.894531 117.433594 66.421875 116.730469 L 72.261719 108.941406 C 75.683594 111.097656 79.707031 112.371094 84.035156 112.429688 L 85.75 121.003906 C 86.003906 122.273438 87.121094 123.15625 88.371094 123.15625 C 88.542969 123.15625 88.722656 123.136719 88.902344 123.101562 C 90.347656 122.8125 91.289062 121.402344 91 119.953125 L 89.382812 111.871094 C 95.8125 110.421875 101.210938 106.265625 104.300781 100.648438 L 111.269531 104.132812 C 111.652344 104.324219 112.0625 104.414062 112.464844 104.414062 C 113.445312 104.414062 114.390625 103.875 114.859375 102.9375 C 115.523438 101.613281 114.984375 100.003906 113.664062 99.34375 L 106.292969 95.660156 C 106.8125 93.757812 107.113281 91.765625 107.113281 89.695312 C 107.113281 86.773438 106.542969 83.992188 105.539062 81.429688 L 113.660156 77.367188 C 114.984375 76.703125 115.519531 75.097656 114.855469 73.777344 C 114.195312 72.453125 112.585938 71.917969 111.265625 72.578125 L 103.019531 76.703125 C 99.925781 72.265625 95.296875 68.984375 89.902344 67.628906 L 118.339844 39.1875 C 126.375 48.910156 131.199219 61.378906 131.199219 74.976562 C 131.199219 106.023438 106.03125 131.191406 74.984375 131.191406 Z M 74.992188 131.183594 "/><path style=" stroke:none;fill-rule:nonzero;fill:#ffa800;fill-opacity:1;" d="M 78.476562 56.335938 C 76.847656 53.742188 74.820312 51.261719 72.476562 49.140625 L 76.886719 44.730469 C 77.933594 43.683594 77.933594 41.992188 76.886719 40.945312 C 75.839844 39.898438 74.144531 39.898438 73.097656 40.945312 L 68.113281 45.933594 C 64.945312 44.042969 61.417969 42.839844 57.589844 42.839844 C 56.726562 42.839844 55.878906 42.921875 55.046875 43.046875 L 53.492188 36.839844 C 53.132812 35.402344 51.667969 34.527344 50.25 34.890625 C 48.8125 35.25 47.941406 36.703125 48.300781 38.132812 L 49.925781 44.636719 C 44.164062 47.472656 40.1875 53.382812 40.1875 60.238281 C 40.1875 61.097656 40.269531 61.949219 40.347656 62.796875 L 34.183594 64.335938 C 32.75 64.695312 31.878906 66.148438 32.234375 67.582031 C 32.539062 68.796875 33.628906 69.609375 34.828125 69.609375 C 35.042969 69.609375 35.261719 69.582031 35.480469 69.527344 L 41.34375 68.0625 C 41.859375 69.890625 42.5 71.683594 43.308594 73.410156 L 38.292969 78.425781 C 37.246094 79.472656 37.246094 81.164062 38.292969 82.210938 C 38.816406 82.734375 39.503906 82.996094 40.1875 82.996094 C 40.871094 82.996094 41.558594 82.734375 42.082031 82.210938 L 46.035156 78.257812 C 47.421875 80.394531 48.964844 82.398438 50.625 84.1875 Z M 61.605469 54.886719 C 61.605469 57.109375 59.808594 58.902344 57.589844 58.902344 C 55.375 58.902344 53.578125 57.105469 53.578125 54.886719 C 53.578125 52.671875 55.375 50.875 57.589844 50.875 C 59.808594 50.875 61.605469 52.671875 61.605469 54.886719 Z M 61.605469 54.886719 "/></g></svg>