<svg xmlns="http://www.w3.org/2000/svg" xmlns:xlink="http://www.w3.org/1999/xlink" width="200" zoomAndPan="magnify" viewBox="0 0 150 157.92" height="200" preserveAspectRatio="xMidYMid meet" version="1.2"><defs><clipPath id="e9fb2616f8"><path d="M 122 113 L 149.960938 113 L 149.960938 135 L 122 135 Z M 122 113 "/></clipPath><clipPath id="f605a494bb"><path d="M 6 14.429688 L 144 14.429688 L 144 75 L 6 75 Z M 6 14.429688 "/></clipPath><clipPath id="59fda45d69"><path d="M 0.0390625 113 L 17 113 L 17 135 L 0.0390625 135 Z M 0.0390625 113 "/></clipPath></defs><g id="fa8069eb29"><path style=" stroke:none;fill-rule:nonzero;fill:#ffa800;fill-opacity:1;" d="M 37.453125 92.050781 L 58.832031 92.050781 L 58.832031 134.8125 L 37.453125 134.8125 Z M 37.453125 92.050781 "/><g clip-rule="nonzero" clip-path="url(#e9fb2616f8)"><path style=" stroke:none;fill-rule:nonzero;fill:#ffa800;fill-opacity:1;" d="M 143.953125 121.554688 C 143.527344 121.496094 143.136719 121.34375 142.785156 121.09375 C 142.433594 120.847656 142.15625 120.535156 141.957031 120.152344 C 141.699219 119.652344 141.605469 119.125 141.675781 118.566406 C 141.664062 118.226562 141.617188 117.886719 141.539062 117.554688 C 141.460938 117.222656 141.351562 116.898438 141.210938 116.585938 C 141.070312 116.273438 140.902344 115.976562 140.707031 115.699219 C 140.507812 115.417969 140.285156 115.160156 140.039062 114.921875 C 139.792969 114.683594 139.527344 114.472656 139.238281 114.289062 C 138.949219 114.101562 138.648438 113.945312 138.332031 113.816406 C 138.011719 113.691406 137.6875 113.59375 137.351562 113.527344 C 137.015625 113.464844 136.675781 113.429688 136.332031 113.429688 C 134.972656 113.429688 133.789062 113.886719 132.78125 114.800781 C 132.207031 115.300781 131.761719 115.898438 131.449219 116.59375 C 131.136719 117.285156 130.980469 118.015625 130.988281 118.777344 C 130.988281 119.390625 131.101562 119.984375 131.324219 120.558594 C 131.402344 120.761719 131.453125 120.96875 131.476562 121.183594 C 131.503906 121.398438 131.503906 121.613281 131.476562 121.828125 C 131.449219 122.042969 131.398438 122.25 131.320312 122.453125 C 131.246094 122.65625 131.144531 122.84375 131.023438 123.023438 C 130.898438 123.199219 130.757812 123.359375 130.59375 123.503906 C 130.433594 123.648438 130.253906 123.769531 130.0625 123.871094 C 129.871094 123.96875 129.671875 124.046875 129.460938 124.097656 C 129.253906 124.148438 129.039062 124.175781 128.824219 124.175781 C 128.691406 124.175781 128.289062 124.136719 128.171875 124.117188 C 127.820312 124.125 127.472656 124.160156 127.128906 124.234375 C 126.785156 124.308594 126.453125 124.414062 126.128906 124.554688 C 125.808594 124.691406 125.503906 124.859375 125.210938 125.058594 C 124.921875 125.257812 124.65625 125.484375 124.410156 125.734375 C 124.167969 125.988281 123.949219 126.261719 123.757812 126.554688 C 123.566406 126.847656 123.40625 127.160156 123.277344 127.484375 C 123.144531 127.8125 123.050781 128.148438 122.984375 128.492188 C 122.921875 128.835938 122.890625 129.1875 122.898438 129.535156 C 122.902344 129.886719 122.941406 130.234375 123.011719 130.578125 C 123.085938 130.921875 123.191406 131.253906 123.332031 131.578125 C 123.46875 131.898438 123.640625 132.207031 123.839844 132.496094 C 124.035156 132.785156 124.261719 133.050781 124.515625 133.296875 C 124.765625 133.539062 125.039062 133.757812 125.332031 133.949219 C 125.628906 134.140625 125.9375 134.300781 126.265625 134.429688 C 126.589844 134.5625 126.925781 134.660156 127.269531 134.722656 C 127.617188 134.785156 127.964844 134.816406 128.316406 134.8125 L 143.015625 134.8125 C 143.433594 134.8125 143.847656 134.773438 144.257812 134.695312 C 144.667969 134.621094 145.070312 134.503906 145.457031 134.351562 C 145.847656 134.199219 146.21875 134.011719 146.574219 133.789062 C 146.925781 133.566406 147.257812 133.3125 147.5625 133.027344 C 147.871094 132.746094 148.148438 132.433594 148.394531 132.097656 C 148.644531 131.761719 148.855469 131.402344 149.039062 131.027344 C 149.21875 130.648438 149.363281 130.257812 149.46875 129.851562 C 149.574219 129.449219 149.644531 129.039062 149.671875 128.621094 C 149.703125 128.203125 149.691406 127.789062 149.644531 127.371094 C 149.59375 126.957031 149.507812 126.550781 149.382812 126.152344 C 149.257812 125.753906 149.09375 125.367188 148.898438 125 C 148.699219 124.632812 148.46875 124.285156 148.207031 123.960938 C 147.941406 123.636719 147.652344 123.335938 147.332031 123.066406 C 147.011719 122.796875 146.671875 122.558594 146.308594 122.355469 C 145.941406 122.148438 145.5625 121.976562 145.167969 121.84375 C 144.769531 121.710938 144.367188 121.613281 143.953125 121.554688 Z M 143.953125 121.554688 "/></g><path style=" stroke:none;fill-rule:nonzero;fill:#ffa800;fill-opacity:1;" d="M 128.316406 22.566406 L 117.625 22.566406 L 117.625 41.25 L 128.316406 49.9375 Z M 128.316406 22.566406 "/><g clip-rule="nonzero" clip-path="url(#f605a494bb)"><path style=" stroke:none;fill-rule:nonzero;fill:#ffa800;fill-opacity:1;" d="M 10.460938 74.679688 C 11.578125 74.773438 12.550781 74.441406 13.378906 73.6875 L 74.867188 23.996094 L 136.273438 73.613281 C 136.472656 73.792969 136.6875 73.949219 136.914062 74.085938 C 137.144531 74.222656 137.386719 74.335938 137.636719 74.425781 C 137.890625 74.515625 138.148438 74.578125 138.410156 74.617188 C 138.675781 74.65625 138.941406 74.667969 139.207031 74.65625 C 139.476562 74.640625 139.738281 74.601562 139.996094 74.535156 C 140.257812 74.46875 140.507812 74.378906 140.746094 74.265625 C 140.988281 74.148438 141.214844 74.011719 141.429688 73.851562 C 141.644531 73.691406 141.839844 73.515625 142.019531 73.316406 C 142.753906 72.484375 143.085938 71.511719 143.015625 70.40625 C 142.945312 69.300781 142.496094 68.386719 141.660156 67.660156 L 77.59375 15.621094 C 76.808594 14.917969 75.894531 14.5625 74.84375 14.550781 C 73.839844 14.554688 72.964844 14.886719 72.214844 15.550781 L 8 67.734375 C 7.210938 68.449219 6.785156 69.339844 6.722656 70.40625 C 6.648438 71.515625 6.980469 72.488281 7.714844 73.324219 C 8.441406 74.160156 9.355469 74.613281 10.460938 74.679688 Z M 10.460938 74.679688 "/></g><path style=" stroke:none;fill-rule:nonzero;fill:#ffa800;fill-opacity:1;" d="M 98.917969 92.050781 L 112.28125 92.050781 L 112.28125 113.429688 L 98.917969 113.429688 Z M 98.917969 92.050781 "/><path style=" stroke:none;fill-rule:nonzero;fill:#ffa800;fill-opacity:1;" d="M 80.210938 92.050781 L 93.574219 92.050781 L 93.574219 113.429688 L 80.210938 113.429688 Z M 80.210938 92.050781 "/><path style=" stroke:none;fill-rule:nonzero;fill:#ffa800;fill-opacity:1;" d="M 125.644531 119.113281 C 125.644531 119 125.644531 118.886719 125.644531 118.777344 C 125.648438 117.488281 125.878906 116.242188 126.339844 115.039062 C 126.800781 113.835938 127.457031 112.753906 128.316406 111.792969 L 128.316406 74.054688 L 74.867188 30.867188 L 21.417969 74.058594 L 21.417969 134.8125 L 32.105469 134.8125 L 32.105469 89.378906 C 32.105469 89.023438 32.175781 88.683594 32.3125 88.355469 C 32.445312 88.027344 32.640625 87.742188 32.890625 87.488281 C 33.140625 87.238281 33.429688 87.046875 33.757812 86.910156 C 34.085938 86.773438 34.425781 86.707031 34.78125 86.707031 L 61.503906 86.707031 C 61.859375 86.707031 62.199219 86.773438 62.527344 86.910156 C 62.855469 87.046875 63.144531 87.238281 63.394531 87.488281 C 63.644531 87.738281 63.835938 88.027344 63.972656 88.355469 C 64.109375 88.683594 64.175781 89.023438 64.175781 89.378906 L 64.175781 134.8125 L 119.113281 134.8125 C 118.132812 133.164062 117.636719 131.382812 117.625 129.464844 C 117.625 128.878906 117.675781 128.292969 117.773438 127.714844 C 117.867188 127.132812 118.011719 126.5625 118.203125 126.007812 C 118.394531 125.449219 118.628906 124.914062 118.90625 124.394531 C 119.1875 123.878906 119.507812 123.386719 119.867188 122.921875 C 120.226562 122.457031 120.621094 122.023438 121.054688 121.625 C 121.484375 121.222656 121.949219 120.859375 122.4375 120.539062 C 122.929688 120.214844 123.445312 119.933594 123.980469 119.691406 C 124.519531 119.453125 125.074219 119.261719 125.644531 119.113281 Z M 117.625 116.105469 C 117.625 116.457031 117.558594 116.800781 117.421875 117.125 C 117.285156 117.453125 117.09375 117.742188 116.84375 117.992188 C 116.59375 118.242188 116.304688 118.4375 115.976562 118.574219 C 115.648438 118.707031 115.308594 118.777344 114.953125 118.777344 L 77.539062 118.777344 C 77.183594 118.777344 76.84375 118.707031 76.515625 118.574219 C 76.1875 118.4375 75.898438 118.242188 75.648438 117.992188 C 75.398438 117.742188 75.207031 117.453125 75.070312 117.125 C 74.933594 116.800781 74.867188 116.457031 74.867188 116.105469 L 74.867188 89.378906 C 74.867188 89.023438 74.933594 88.683594 75.070312 88.355469 C 75.207031 88.027344 75.398438 87.742188 75.648438 87.488281 C 75.898438 87.238281 76.1875 87.046875 76.515625 86.910156 C 76.84375 86.773438 77.183594 86.707031 77.539062 86.707031 L 114.953125 86.707031 C 115.308594 86.707031 115.648438 86.773438 115.976562 86.910156 C 116.304688 87.046875 116.59375 87.238281 116.84375 87.488281 C 117.09375 87.738281 117.285156 88.027344 117.421875 88.355469 C 117.558594 88.683594 117.625 89.023438 117.625 89.378906 Z M 117.625 116.105469 "/><g clip-rule="nonzero" clip-path="url(#59fda45d69)"><path style=" stroke:none;fill-rule:nonzero;fill:#ffa800;fill-opacity:1;" d="M 8.054688 118.777344 C 8.058594 119.390625 8.167969 119.984375 8.390625 120.558594 C 8.46875 120.761719 8.519531 120.96875 8.546875 121.183594 C 8.570312 121.398438 8.570312 121.613281 8.542969 121.828125 C 8.519531 122.042969 8.464844 122.25 8.390625 122.453125 C 8.3125 122.65625 8.210938 122.84375 8.089844 123.023438 C 7.964844 123.199219 7.824219 123.359375 7.660156 123.503906 C 7.5 123.648438 7.324219 123.769531 7.132812 123.871094 C 6.941406 123.96875 6.738281 124.046875 6.53125 124.097656 C 6.320312 124.148438 6.105469 124.175781 5.890625 124.175781 C 5.757812 124.175781 5.355469 124.136719 5.238281 124.117188 C 4.886719 124.125 4.539062 124.164062 4.195312 124.234375 C 3.855469 124.308594 3.519531 124.414062 3.199219 124.554688 C 2.875 124.691406 2.570312 124.859375 2.28125 125.058594 C 1.992188 125.257812 1.722656 125.484375 1.480469 125.734375 C 1.234375 125.988281 1.015625 126.261719 0.824219 126.554688 C 0.632812 126.847656 0.472656 127.160156 0.34375 127.484375 C 0.214844 127.8125 0.117188 128.148438 0.0546875 128.492188 C -0.0117188 128.835938 -0.0390625 129.1875 -0.0351562 129.535156 C -0.03125 129.886719 0.0078125 130.234375 0.0820312 130.578125 C 0.15625 130.921875 0.261719 131.253906 0.398438 131.578125 C 0.539062 131.898438 0.707031 132.207031 0.90625 132.496094 C 1.105469 132.785156 1.328125 133.050781 1.582031 133.296875 C 1.832031 133.539062 2.105469 133.757812 2.402344 133.949219 C 2.695312 134.140625 3.003906 134.300781 3.332031 134.429688 C 3.65625 134.5625 3.992188 134.660156 4.339844 134.722656 C 4.683594 134.785156 5.03125 134.816406 5.382812 134.8125 L 16.074219 134.8125 L 16.074219 114.167969 C 15.25 113.679688 14.359375 113.433594 13.398438 113.429688 C 13.050781 113.429688 12.703125 113.464844 12.359375 113.535156 C 12.011719 113.601562 11.679688 113.703125 11.355469 113.839844 C 11.03125 113.972656 10.722656 114.136719 10.429688 114.332031 C 10.140625 114.527344 9.867188 114.75 9.621094 114.996094 C 9.371094 115.246094 9.152344 115.515625 8.957031 115.808594 C 8.761719 116.097656 8.597656 116.40625 8.460938 116.730469 C 8.328125 117.054688 8.226562 117.390625 8.15625 117.734375 C 8.089844 118.078125 8.054688 118.425781 8.054688 118.777344 Z M 8.054688 118.777344 "/></g></g></svg>