<svg xmlns="http://www.w3.org/2000/svg" xmlns:xlink="http://www.w3.org/1999/xlink" width="200" zoomAndPan="magnify" viewBox="0 0 150 157.92" height="200" preserveAspectRatio="xMidYMid meet" version="1.2"><defs><clipPath id="5be14618e5"><path d="M 0.0390625 95 L 149.960938 95 L 149.960938 139 L 0.0390625 139 Z M 0.0390625 95 "/></clipPath><clipPath id="42409c7b67"><path d="M 0.0390625 63 L 149.960938 63 L 149.960938 106 L 0.0390625 106 Z M 0.0390625 63 "/></clipPath><clipPath id="c92ee4f4a9"><path d="M 0.0390625 11 L 149.960938 11 L 149.960938 74 L 0.0390625 74 Z M 0.0390625 11 "/></clipPath></defs><g id="977924d7e6"><g clip-rule="nonzero" clip-path="url(#5be14618e5)"><path style=" stroke:none;fill-rule:nonzero;fill:#ffa800;fill-opacity:1;" d="M 148.347656 108.046875 L 120.21875 95.859375 L 79.730469 112.058594 C 78.273438 112.636719 76.570312 112.929688 74.863281 112.929688 C 73.164062 112.929688 71.460938 112.640625 70.003906 112.058594 L 29.503906 95.859375 L 1.378906 108.046875 C 0.0976562 108.601562 0.113281 109.472656 1.40625 109.992188 L 72.519531 138.433594 C 73.8125 138.953125 75.914062 138.953125 77.210938 138.433594 L 148.324219 109.992188 C 149.617188 109.472656 149.628906 108.601562 148.347656 108.046875 Z M 148.347656 108.046875 "/></g><g clip-rule="nonzero" clip-path="url(#42409c7b67)"><path style=" stroke:none;fill-rule:nonzero;fill:#ffa800;fill-opacity:1;" d="M 148.347656 75.199219 L 120.21875 63.011719 L 79.730469 79.203125 C 78.277344 79.785156 76.570312 80.078125 74.867188 80.078125 C 73.164062 80.078125 71.457031 79.785156 70 79.207031 L 29.507812 63.011719 L 1.378906 75.199219 C 0.0976562 75.753906 0.113281 76.625 1.40625 77.144531 L 72.519531 105.585938 C 73.8125 106.105469 75.914062 106.105469 77.210938 105.585938 L 148.324219 77.144531 C 149.617188 76.625 149.628906 75.757812 148.347656 75.199219 Z M 148.347656 75.199219 "/></g><g clip-rule="nonzero" clip-path="url(#c92ee4f4a9)"><path style=" stroke:none;fill-rule:nonzero;fill:#ffa800;fill-opacity:1;" d="M 1.40625 44.292969 L 38.488281 59.128906 L 72.519531 72.742188 C 73.8125 73.257812 75.914062 73.257812 77.210938 72.742188 L 148.324219 44.296875 C 149.617188 43.777344 149.632812 42.910156 148.351562 42.355469 L 77.183594 11.515625 C 75.902344 10.960938 73.824219 10.960938 72.546875 11.515625 L 1.378906 42.351562 C 0.0976562 42.90625 0.113281 43.777344 1.40625 44.292969 Z M 1.40625 44.292969 "/></g></g></svg>