<svg xmlns="http://www.w3.org/2000/svg" xmlns:xlink="http://www.w3.org/1999/xlink" width="200" zoomAndPan="magnify" viewBox="0 0 150 157.92" height="200" preserveAspectRatio="xMidYMid meet" version="1.2"><defs><clipPath id="ac857defaa"><path d="M 11.1875 0 L 138 0 L 138 147 L 11.1875 147 Z M 11.1875 0 "/></clipPath></defs><g id="619baa3659"><g clip-rule="nonzero" clip-path="url(#ac857defaa)"><path style=" stroke:none;fill-rule:nonzero;fill:#ffa800;fill-opacity:1;" d="M 64.894531 0.964844 C 63.15625 1.003906 61.757812 2.4375 61.785156 4.175781 L 61.785156 23.152344 C 61.769531 24.285156 62.363281 25.347656 63.351562 25.929688 C 64.339844 26.496094 65.550781 26.496094 66.539062 25.929688 C 67.527344 25.347656 68.121094 24.285156 68.109375 23.152344 L 68.109375 4.175781 C 68.121094 3.324219 67.785156 2.496094 67.179688 1.890625 C 66.574219 1.285156 65.75 0.953125 64.894531 0.964844 Z M 36.449219 10.476562 C 35.164062 10.476562 34.015625 11.253906 33.519531 12.441406 C 33.039062 13.640625 33.324219 14.996094 34.25 15.898438 L 46.898438 28.546875 C 47.6875 29.375 48.875 29.710938 49.972656 29.414062 C 51.085938 29.128906 51.949219 28.265625 52.234375 27.152344 C 52.53125 26.054688 52.199219 24.867188 51.371094 24.078125 L 38.722656 11.429688 C 38.128906 10.8125 37.3125 10.476562 36.449219 10.476562 Z M 93.34375 10.476562 C 92.515625 10.488281 91.738281 10.835938 91.167969 11.429688 L 78.519531 24.078125 C 77.691406 24.867188 77.359375 26.054688 77.65625 27.152344 C 77.941406 28.265625 78.804688 29.128906 79.917969 29.414062 C 81.015625 29.710938 82.203125 29.375 82.992188 28.546875 L 95.640625 15.898438 C 96.578125 14.984375 96.851562 13.601562 96.34375 12.402344 C 95.839844 11.195312 94.652344 10.425781 93.34375 10.476562 Z M 125.570312 16.824219 C 123.285156 16.824219 120.988281 17.703125 119.246094 19.445312 L 58.621094 80.070312 C 58.621094 80.070312 49.371094 62.664062 44.738281 58.019531 C 36.648438 49.929688 20.996094 45.976562 16.871094 50.101562 L 11.1875 55.773438 L 29.074219 73.660156 L 42.808594 114.851562 L 67.636719 139.679688 C 76.628906 148.671875 91.207031 148.671875 100.199219 139.679688 L 135.058594 104.824219 C 138.550781 101.328125 138.550781 95.671875 135.058594 92.175781 C 131.5625 88.679688 125.902344 88.679688 122.40625 92.175781 L 125.570312 89.011719 C 129.066406 85.515625 129.066406 79.859375 125.570312 76.363281 C 122.074219 72.867188 116.417969 72.867188 112.921875 76.363281 L 116.082031 73.203125 C 119.578125 69.707031 119.578125 64.046875 116.082031 60.554688 C 112.589844 57.058594 106.929688 57.058594 103.433594 60.554688 L 131.894531 32.09375 C 135.390625 28.597656 135.390625 22.941406 131.894531 19.445312 C 130.152344 17.703125 127.855469 16.824219 125.570312 16.824219 Z M 125.570312 16.824219 "/></g></g></svg>