<svg xmlns="http://www.w3.org/2000/svg" xmlns:xlink="http://www.w3.org/1999/xlink" width="200" zoomAndPan="magnify" viewBox="0 0 150 157.92" height="200" preserveAspectRatio="xMidYMid meet" version="1.2"><defs><clipPath id="5130bf3486"><path d="M 0.0390625 12.179688 L 69 12.179688 L 69 135 L 0.0390625 135 Z M 0.0390625 12.179688 "/></clipPath><clipPath id="10f086effe"><path d="M 81 12.179688 L 149.960938 12.179688 L 149.960938 135 L 81 135 Z M 81 12.179688 "/></clipPath></defs><g id="67056d26b9"><g clip-rule="nonzero" clip-path="url(#5130bf3486)"><path style=" stroke:none;fill-rule:nonzero;fill:#ffa800;fill-opacity:1;" d="M 48.289062 50.441406 C 45.894531 48.046875 42.015625 48.046875 39.617188 50.441406 C 37.21875 52.839844 37.21875 56.71875 39.617188 59.117188 L 47.929688 67.429688 L 12.332031 67.429688 L 12.332031 18.316406 C 12.332031 14.925781 9.585938 12.179688 6.195312 12.179688 C 2.804688 12.179688 0.078125 14.925781 0.078125 18.316406 L 0.078125 128.796875 C 0.078125 132.1875 2.820312 134.933594 6.210938 134.933594 C 9.601562 134.933594 12.347656 132.1875 12.347656 128.796875 L 12.347656 79.683594 L 47.945312 79.683594 L 39.632812 87.996094 C 37.234375 90.394531 37.234375 94.273438 39.632812 96.667969 C 40.832031 97.867188 42.390625 98.46875 43.96875 98.46875 C 45.546875 98.46875 47.109375 97.867188 48.304688 96.667969 L 67.074219 77.902344 C 69.472656 75.503906 69.472656 71.625 67.074219 69.226562 Z M 48.289062 50.441406 "/></g><g clip-rule="nonzero" clip-path="url(#10f086effe)"><path style=" stroke:none;fill-rule:nonzero;fill:#ffa800;fill-opacity:1;" d="M 143.773438 12.179688 C 140.382812 12.179688 137.636719 14.925781 137.636719 18.316406 L 137.636719 67.429688 L 102.054688 67.429688 L 110.367188 59.117188 C 112.765625 56.71875 112.765625 52.839844 110.367188 50.441406 C 107.96875 48.046875 104.089844 48.046875 101.695312 50.441406 L 82.925781 69.210938 C 81.773438 70.363281 81.128906 71.925781 81.128906 73.546875 C 81.128906 75.171875 81.773438 76.734375 82.925781 77.886719 L 101.695312 96.652344 C 102.890625 97.851562 104.453125 98.453125 106.03125 98.453125 C 107.609375 98.453125 109.167969 97.851562 110.367188 96.652344 C 112.765625 94.257812 112.765625 90.375 110.367188 87.980469 L 102.054688 79.667969 L 137.652344 79.667969 L 137.652344 128.78125 C 137.652344 132.171875 140.398438 134.914062 143.789062 134.914062 C 147.179688 134.914062 149.921875 132.171875 149.921875 128.78125 L 149.921875 18.316406 C 149.90625 14.925781 147.164062 12.179688 143.773438 12.179688 Z M 143.773438 12.179688 "/></g></g></svg>